%TF.GenerationSoftware,KiCad,Pcbnew,5.1.8-db9833491~88~ubuntu20.04.1*%
%TF.CreationDate,2020-12-09T15:47:01+01:00*%
%TF.ProjectId,oscar_pcb_svg2shenzen,6f736361-725f-4706-9362-5f7376673273,rev?*%
%TF.SameCoordinates,Original*%
%TF.FileFunction,Copper,L2,Bot*%
%TF.FilePolarity,Positive*%
%FSLAX46Y46*%
G04 Gerber Fmt 4.6, Leading zero omitted, Abs format (unit mm)*
G04 Created by KiCad (PCBNEW 5.1.8-db9833491~88~ubuntu20.04.1) date 2020-12-09 15:47:01*
%MOMM*%
%LPD*%
G01*
G04 APERTURE LIST*
%TA.AperFunction,EtchedComponent*%
%ADD10C,0.010000*%
%TD*%
%TA.AperFunction,ComponentPad*%
%ADD11C,3.719199*%
%TD*%
G04 APERTURE END LIST*
D10*
%TO.C,G\u002A\u002A\u002A*%
G36*
X-9228737Y20308285D02*
G01*
X-9052115Y20263289D01*
X-8921288Y20202194D01*
X-8776427Y20094147D01*
X-8655515Y19957405D01*
X-8562070Y19799392D01*
X-8499605Y19627533D01*
X-8471639Y19449250D01*
X-8481428Y19273462D01*
X-8533452Y19084240D01*
X-8618845Y18915450D01*
X-8733462Y18770643D01*
X-8873163Y18653371D01*
X-9033803Y18567186D01*
X-9211241Y18515639D01*
X-9381458Y18501793D01*
X-9472066Y18505623D01*
X-9558155Y18513552D01*
X-9617758Y18523211D01*
X-9739856Y18566560D01*
X-9868005Y18636808D01*
X-9986631Y18724463D01*
X-10053727Y18788965D01*
X-10170368Y18945322D01*
X-10249357Y19113805D01*
X-10291711Y19289318D01*
X-10298451Y19466762D01*
X-10270594Y19641040D01*
X-10209158Y19807054D01*
X-10115163Y19959707D01*
X-9989627Y20093902D01*
X-9833568Y20204539D01*
X-9763672Y20240661D01*
X-9595070Y20297453D01*
X-9413240Y20319833D01*
X-9228737Y20308285D01*
G37*
X-9228737Y20308285D02*
X-9052115Y20263289D01*
X-8921288Y20202194D01*
X-8776427Y20094147D01*
X-8655515Y19957405D01*
X-8562070Y19799392D01*
X-8499605Y19627533D01*
X-8471639Y19449250D01*
X-8481428Y19273462D01*
X-8533452Y19084240D01*
X-8618845Y18915450D01*
X-8733462Y18770643D01*
X-8873163Y18653371D01*
X-9033803Y18567186D01*
X-9211241Y18515639D01*
X-9381458Y18501793D01*
X-9472066Y18505623D01*
X-9558155Y18513552D01*
X-9617758Y18523211D01*
X-9739856Y18566560D01*
X-9868005Y18636808D01*
X-9986631Y18724463D01*
X-10053727Y18788965D01*
X-10170368Y18945322D01*
X-10249357Y19113805D01*
X-10291711Y19289318D01*
X-10298451Y19466762D01*
X-10270594Y19641040D01*
X-10209158Y19807054D01*
X-10115163Y19959707D01*
X-9989627Y20093902D01*
X-9833568Y20204539D01*
X-9763672Y20240661D01*
X-9595070Y20297453D01*
X-9413240Y20319833D01*
X-9228737Y20308285D01*
G36*
X-7612175Y18870937D02*
G01*
X-7506080Y18832067D01*
X-7414827Y18766594D01*
X-7343658Y18679759D01*
X-7297813Y18576802D01*
X-7282532Y18462964D01*
X-7303056Y18343486D01*
X-7314094Y18314068D01*
X-7379639Y18207006D01*
X-7471499Y18125417D01*
X-7581195Y18072840D01*
X-7700251Y18052812D01*
X-7820190Y18068871D01*
X-7863417Y18084811D01*
X-7969090Y18151618D01*
X-8044595Y18240715D01*
X-8090081Y18344841D01*
X-8105695Y18456738D01*
X-8091584Y18569145D01*
X-8047895Y18674802D01*
X-7974775Y18766451D01*
X-7872373Y18836830D01*
X-7847933Y18847907D01*
X-7727873Y18877964D01*
X-7612175Y18870937D01*
G37*
X-7612175Y18870937D02*
X-7506080Y18832067D01*
X-7414827Y18766594D01*
X-7343658Y18679759D01*
X-7297813Y18576802D01*
X-7282532Y18462964D01*
X-7303056Y18343486D01*
X-7314094Y18314068D01*
X-7379639Y18207006D01*
X-7471499Y18125417D01*
X-7581195Y18072840D01*
X-7700251Y18052812D01*
X-7820190Y18068871D01*
X-7863417Y18084811D01*
X-7969090Y18151618D01*
X-8044595Y18240715D01*
X-8090081Y18344841D01*
X-8105695Y18456738D01*
X-8091584Y18569145D01*
X-8047895Y18674802D01*
X-7974775Y18766451D01*
X-7872373Y18836830D01*
X-7847933Y18847907D01*
X-7727873Y18877964D01*
X-7612175Y18870937D01*
G36*
X-22069061Y20316013D02*
G01*
X-21967093Y20307933D01*
X-21887555Y20292853D01*
X-21810585Y20265649D01*
X-21732262Y20229125D01*
X-21566542Y20125312D01*
X-21431001Y19992110D01*
X-21324261Y19828111D01*
X-21308166Y19795561D01*
X-21278819Y19730979D01*
X-21259498Y19677263D01*
X-21248120Y19622456D01*
X-21242601Y19554602D01*
X-21240858Y19461747D01*
X-21240750Y19408736D01*
X-21241280Y19302468D01*
X-21244461Y19226378D01*
X-21252680Y19168314D01*
X-21268325Y19116120D01*
X-21293782Y19057642D01*
X-21320462Y19002937D01*
X-21424012Y18837582D01*
X-21556900Y18702333D01*
X-21720753Y18595606D01*
X-21756962Y18577742D01*
X-21831889Y18545559D01*
X-21900523Y18525185D01*
X-21978454Y18513322D01*
X-22081278Y18506670D01*
X-22095629Y18506081D01*
X-22202587Y18503779D01*
X-22283312Y18508030D01*
X-22353647Y18520730D01*
X-22429435Y18543774D01*
X-22439242Y18547181D01*
X-22614904Y18630533D01*
X-22766925Y18747733D01*
X-22891994Y18895498D01*
X-22986799Y19070545D01*
X-22999720Y19102917D01*
X-23025738Y19205541D01*
X-23039229Y19333238D01*
X-23040157Y19470633D01*
X-23028485Y19602350D01*
X-23004178Y19713015D01*
X-23001164Y19722010D01*
X-22935701Y19859719D01*
X-22840741Y19993918D01*
X-22727674Y20110136D01*
X-22648380Y20170145D01*
X-22484536Y20255449D01*
X-22310709Y20303996D01*
X-22119212Y20317722D01*
X-22069061Y20316013D01*
G37*
X-22069061Y20316013D02*
X-21967093Y20307933D01*
X-21887555Y20292853D01*
X-21810585Y20265649D01*
X-21732262Y20229125D01*
X-21566542Y20125312D01*
X-21431001Y19992110D01*
X-21324261Y19828111D01*
X-21308166Y19795561D01*
X-21278819Y19730979D01*
X-21259498Y19677263D01*
X-21248120Y19622456D01*
X-21242601Y19554602D01*
X-21240858Y19461747D01*
X-21240750Y19408736D01*
X-21241280Y19302468D01*
X-21244461Y19226378D01*
X-21252680Y19168314D01*
X-21268325Y19116120D01*
X-21293782Y19057642D01*
X-21320462Y19002937D01*
X-21424012Y18837582D01*
X-21556900Y18702333D01*
X-21720753Y18595606D01*
X-21756962Y18577742D01*
X-21831889Y18545559D01*
X-21900523Y18525185D01*
X-21978454Y18513322D01*
X-22081278Y18506670D01*
X-22095629Y18506081D01*
X-22202587Y18503779D01*
X-22283312Y18508030D01*
X-22353647Y18520730D01*
X-22429435Y18543774D01*
X-22439242Y18547181D01*
X-22614904Y18630533D01*
X-22766925Y18747733D01*
X-22891994Y18895498D01*
X-22986799Y19070545D01*
X-22999720Y19102917D01*
X-23025738Y19205541D01*
X-23039229Y19333238D01*
X-23040157Y19470633D01*
X-23028485Y19602350D01*
X-23004178Y19713015D01*
X-23001164Y19722010D01*
X-22935701Y19859719D01*
X-22840741Y19993918D01*
X-22727674Y20110136D01*
X-22648380Y20170145D01*
X-22484536Y20255449D01*
X-22310709Y20303996D01*
X-22119212Y20317722D01*
X-22069061Y20316013D01*
G36*
X-23741220Y18871740D02*
G01*
X-23635892Y18833478D01*
X-23545481Y18768840D01*
X-23474909Y18683134D01*
X-23429100Y18581666D01*
X-23412977Y18469744D01*
X-23431463Y18352675D01*
X-23457959Y18288421D01*
X-23505670Y18215764D01*
X-23566790Y18147890D01*
X-23585746Y18131430D01*
X-23642226Y18092883D01*
X-23699922Y18071871D01*
X-23777398Y18062227D01*
X-23797413Y18061093D01*
X-23895869Y18062712D01*
X-23973902Y18076690D01*
X-23992417Y18083664D01*
X-24098902Y18152878D01*
X-24174714Y18243860D01*
X-24220002Y18349351D01*
X-24234913Y18462097D01*
X-24219593Y18574840D01*
X-24174190Y18680325D01*
X-24098850Y18771295D01*
X-23993721Y18840494D01*
X-23976933Y18847907D01*
X-23856541Y18878319D01*
X-23741220Y18871740D01*
G37*
X-23741220Y18871740D02*
X-23635892Y18833478D01*
X-23545481Y18768840D01*
X-23474909Y18683134D01*
X-23429100Y18581666D01*
X-23412977Y18469744D01*
X-23431463Y18352675D01*
X-23457959Y18288421D01*
X-23505670Y18215764D01*
X-23566790Y18147890D01*
X-23585746Y18131430D01*
X-23642226Y18092883D01*
X-23699922Y18071871D01*
X-23777398Y18062227D01*
X-23797413Y18061093D01*
X-23895869Y18062712D01*
X-23973902Y18076690D01*
X-23992417Y18083664D01*
X-24098902Y18152878D01*
X-24174714Y18243860D01*
X-24220002Y18349351D01*
X-24234913Y18462097D01*
X-24219593Y18574840D01*
X-24174190Y18680325D01*
X-24098850Y18771295D01*
X-23993721Y18840494D01*
X-23976933Y18847907D01*
X-23856541Y18878319D01*
X-23741220Y18871740D01*
G36*
X-18120247Y2550584D02*
G01*
X-18156499Y2470603D01*
X-18192750Y2390623D01*
X-18996394Y3195895D01*
X-18880259Y3312030D01*
X-18120247Y2550584D01*
G37*
X-18120247Y2550584D02*
X-18156499Y2470603D01*
X-18192750Y2390623D01*
X-18996394Y3195895D01*
X-18880259Y3312030D01*
X-18120247Y2550584D01*
G36*
X-6088972Y-934560D02*
G01*
X-5938549Y-970311D01*
X-5803977Y-1038258D01*
X-5710229Y-1117810D01*
X-5631642Y-1215463D01*
X-5578885Y-1317349D01*
X-5548273Y-1434272D01*
X-5536120Y-1577033D01*
X-5535527Y-1629833D01*
X-5544414Y-1785269D01*
X-5572903Y-1911212D01*
X-5624882Y-2017480D01*
X-5704239Y-2113889D01*
X-5741098Y-2148830D01*
X-5867319Y-2234913D01*
X-6013715Y-2288544D01*
X-6171274Y-2307932D01*
X-6330980Y-2291284D01*
X-6385011Y-2276833D01*
X-6514311Y-2215854D01*
X-6630279Y-2122391D01*
X-6723809Y-2005928D01*
X-6785797Y-1875947D01*
X-6792840Y-1852083D01*
X-6809967Y-1746829D01*
X-6814546Y-1619915D01*
X-6814508Y-1619250D01*
X-6508750Y-1619250D01*
X-6496667Y-1720956D01*
X-6456455Y-1803308D01*
X-6382176Y-1876739D01*
X-6348054Y-1901562D01*
X-6264974Y-1936258D01*
X-6163377Y-1946662D01*
X-6058995Y-1933365D01*
X-5967563Y-1896955D01*
X-5951906Y-1886732D01*
X-5873349Y-1807478D01*
X-5828263Y-1711360D01*
X-5816392Y-1607097D01*
X-5837482Y-1503412D01*
X-5891274Y-1409024D01*
X-5967983Y-1338863D01*
X-6056856Y-1301086D01*
X-6162088Y-1288892D01*
X-6266713Y-1302283D01*
X-6350216Y-1338791D01*
X-6437212Y-1411667D01*
X-6487819Y-1491319D01*
X-6507837Y-1588009D01*
X-6508750Y-1619250D01*
X-6814508Y-1619250D01*
X-6806983Y-1489984D01*
X-6787681Y-1375677D01*
X-6782035Y-1354933D01*
X-6733684Y-1251121D01*
X-6655572Y-1147758D01*
X-6558824Y-1056278D01*
X-6454562Y-988115D01*
X-6404438Y-966806D01*
X-6247013Y-932794D01*
X-6088972Y-934560D01*
G37*
X-6088972Y-934560D02*
X-5938549Y-970311D01*
X-5803977Y-1038258D01*
X-5710229Y-1117810D01*
X-5631642Y-1215463D01*
X-5578885Y-1317349D01*
X-5548273Y-1434272D01*
X-5536120Y-1577033D01*
X-5535527Y-1629833D01*
X-5544414Y-1785269D01*
X-5572903Y-1911212D01*
X-5624882Y-2017480D01*
X-5704239Y-2113889D01*
X-5741098Y-2148830D01*
X-5867319Y-2234913D01*
X-6013715Y-2288544D01*
X-6171274Y-2307932D01*
X-6330980Y-2291284D01*
X-6385011Y-2276833D01*
X-6514311Y-2215854D01*
X-6630279Y-2122391D01*
X-6723809Y-2005928D01*
X-6785797Y-1875947D01*
X-6792840Y-1852083D01*
X-6809967Y-1746829D01*
X-6814546Y-1619915D01*
X-6814508Y-1619250D01*
X-6508750Y-1619250D01*
X-6496667Y-1720956D01*
X-6456455Y-1803308D01*
X-6382176Y-1876739D01*
X-6348054Y-1901562D01*
X-6264974Y-1936258D01*
X-6163377Y-1946662D01*
X-6058995Y-1933365D01*
X-5967563Y-1896955D01*
X-5951906Y-1886732D01*
X-5873349Y-1807478D01*
X-5828263Y-1711360D01*
X-5816392Y-1607097D01*
X-5837482Y-1503412D01*
X-5891274Y-1409024D01*
X-5967983Y-1338863D01*
X-6056856Y-1301086D01*
X-6162088Y-1288892D01*
X-6266713Y-1302283D01*
X-6350216Y-1338791D01*
X-6437212Y-1411667D01*
X-6487819Y-1491319D01*
X-6507837Y-1588009D01*
X-6508750Y-1619250D01*
X-6814508Y-1619250D01*
X-6806983Y-1489984D01*
X-6787681Y-1375677D01*
X-6782035Y-1354933D01*
X-6733684Y-1251121D01*
X-6655572Y-1147758D01*
X-6558824Y-1056278D01*
X-6454562Y-988115D01*
X-6404438Y-966806D01*
X-6247013Y-932794D01*
X-6088972Y-934560D01*
G36*
X-12733091Y-1178684D02*
G01*
X-12687368Y-1219450D01*
X-12620551Y-1282281D01*
X-12536811Y-1362995D01*
X-12440315Y-1457408D01*
X-12335233Y-1561339D01*
X-12225732Y-1670606D01*
X-12115982Y-1781024D01*
X-12010151Y-1888412D01*
X-11912407Y-1988587D01*
X-11826920Y-2077367D01*
X-11757857Y-2150569D01*
X-11709388Y-2204010D01*
X-11685680Y-2233508D01*
X-11684000Y-2237310D01*
X-11699900Y-2262848D01*
X-11742736Y-2307303D01*
X-11805211Y-2364691D01*
X-11880029Y-2429022D01*
X-11959894Y-2494311D01*
X-12037510Y-2554570D01*
X-12105581Y-2603812D01*
X-12156810Y-2636050D01*
X-12181573Y-2645610D01*
X-12200958Y-2631187D01*
X-12246628Y-2590059D01*
X-12315076Y-2525598D01*
X-12402797Y-2441178D01*
X-12506284Y-2340169D01*
X-12622032Y-2225946D01*
X-12738031Y-2110388D01*
X-13273167Y-1574944D01*
X-13129459Y-1476519D01*
X-13042848Y-1412418D01*
X-12953628Y-1338769D01*
X-12881036Y-1271459D01*
X-12880713Y-1271130D01*
X-12825751Y-1218139D01*
X-12780491Y-1179880D01*
X-12754280Y-1164216D01*
X-12753554Y-1164166D01*
X-12733091Y-1178684D01*
G37*
X-12733091Y-1178684D02*
X-12687368Y-1219450D01*
X-12620551Y-1282281D01*
X-12536811Y-1362995D01*
X-12440315Y-1457408D01*
X-12335233Y-1561339D01*
X-12225732Y-1670606D01*
X-12115982Y-1781024D01*
X-12010151Y-1888412D01*
X-11912407Y-1988587D01*
X-11826920Y-2077367D01*
X-11757857Y-2150569D01*
X-11709388Y-2204010D01*
X-11685680Y-2233508D01*
X-11684000Y-2237310D01*
X-11699900Y-2262848D01*
X-11742736Y-2307303D01*
X-11805211Y-2364691D01*
X-11880029Y-2429022D01*
X-11959894Y-2494311D01*
X-12037510Y-2554570D01*
X-12105581Y-2603812D01*
X-12156810Y-2636050D01*
X-12181573Y-2645610D01*
X-12200958Y-2631187D01*
X-12246628Y-2590059D01*
X-12315076Y-2525598D01*
X-12402797Y-2441178D01*
X-12506284Y-2340169D01*
X-12622032Y-2225946D01*
X-12738031Y-2110388D01*
X-13273167Y-1574944D01*
X-13129459Y-1476519D01*
X-13042848Y-1412418D01*
X-12953628Y-1338769D01*
X-12881036Y-1271459D01*
X-12880713Y-1271130D01*
X-12825751Y-1218139D01*
X-12780491Y-1179880D01*
X-12754280Y-1164216D01*
X-12753554Y-1164166D01*
X-12733091Y-1178684D01*
G36*
X-5607794Y-2498552D02*
G01*
X-5582318Y-2564491D01*
X-5558813Y-2651813D01*
X-5539762Y-2750099D01*
X-5527652Y-2848927D01*
X-5524619Y-2917937D01*
X-5535316Y-3083078D01*
X-5568533Y-3216169D01*
X-5626358Y-3322240D01*
X-5710880Y-3406318D01*
X-5734509Y-3423204D01*
X-5807089Y-3454040D01*
X-5900261Y-3470121D01*
X-5994233Y-3469386D01*
X-6053667Y-3456438D01*
X-6126865Y-3409468D01*
X-6199547Y-3323841D01*
X-6269261Y-3203192D01*
X-6333554Y-3051151D01*
X-6340645Y-3031378D01*
X-6382516Y-2935313D01*
X-6426080Y-2878634D01*
X-6470233Y-2862493D01*
X-6494115Y-2871153D01*
X-6520274Y-2909695D01*
X-6534381Y-2977495D01*
X-6535994Y-3063101D01*
X-6524673Y-3155061D01*
X-6507580Y-3220856D01*
X-6490895Y-3283584D01*
X-6486277Y-3329579D01*
X-6490543Y-3343824D01*
X-6524016Y-3361794D01*
X-6580480Y-3381293D01*
X-6645971Y-3398811D01*
X-6706524Y-3410840D01*
X-6748176Y-3413871D01*
X-6757557Y-3410910D01*
X-6769598Y-3383480D01*
X-6786360Y-3326052D01*
X-6804530Y-3250193D01*
X-6807347Y-3237118D01*
X-6831995Y-3045912D01*
X-6820230Y-2873861D01*
X-6771802Y-2718116D01*
X-6759856Y-2692957D01*
X-6717093Y-2617448D01*
X-6672960Y-2567834D01*
X-6613705Y-2529530D01*
X-6598459Y-2521759D01*
X-6523654Y-2490515D01*
X-6459514Y-2481040D01*
X-6402768Y-2485999D01*
X-6316418Y-2510561D01*
X-6241125Y-2559192D01*
X-6173289Y-2636184D01*
X-6109313Y-2745827D01*
X-6045597Y-2892414D01*
X-6031928Y-2928255D01*
X-6000825Y-2998608D01*
X-5966790Y-3056769D01*
X-5947390Y-3080151D01*
X-5914358Y-3105513D01*
X-5889161Y-3101374D01*
X-5863167Y-3079750D01*
X-5832390Y-3026099D01*
X-5820359Y-2944640D01*
X-5826864Y-2845417D01*
X-5851697Y-2738475D01*
X-5871413Y-2684049D01*
X-5920987Y-2563515D01*
X-5788090Y-2507033D01*
X-5718072Y-2480483D01*
X-5662265Y-2465174D01*
X-5632755Y-2464420D01*
X-5607794Y-2498552D01*
G37*
X-5607794Y-2498552D02*
X-5582318Y-2564491D01*
X-5558813Y-2651813D01*
X-5539762Y-2750099D01*
X-5527652Y-2848927D01*
X-5524619Y-2917937D01*
X-5535316Y-3083078D01*
X-5568533Y-3216169D01*
X-5626358Y-3322240D01*
X-5710880Y-3406318D01*
X-5734509Y-3423204D01*
X-5807089Y-3454040D01*
X-5900261Y-3470121D01*
X-5994233Y-3469386D01*
X-6053667Y-3456438D01*
X-6126865Y-3409468D01*
X-6199547Y-3323841D01*
X-6269261Y-3203192D01*
X-6333554Y-3051151D01*
X-6340645Y-3031378D01*
X-6382516Y-2935313D01*
X-6426080Y-2878634D01*
X-6470233Y-2862493D01*
X-6494115Y-2871153D01*
X-6520274Y-2909695D01*
X-6534381Y-2977495D01*
X-6535994Y-3063101D01*
X-6524673Y-3155061D01*
X-6507580Y-3220856D01*
X-6490895Y-3283584D01*
X-6486277Y-3329579D01*
X-6490543Y-3343824D01*
X-6524016Y-3361794D01*
X-6580480Y-3381293D01*
X-6645971Y-3398811D01*
X-6706524Y-3410840D01*
X-6748176Y-3413871D01*
X-6757557Y-3410910D01*
X-6769598Y-3383480D01*
X-6786360Y-3326052D01*
X-6804530Y-3250193D01*
X-6807347Y-3237118D01*
X-6831995Y-3045912D01*
X-6820230Y-2873861D01*
X-6771802Y-2718116D01*
X-6759856Y-2692957D01*
X-6717093Y-2617448D01*
X-6672960Y-2567834D01*
X-6613705Y-2529530D01*
X-6598459Y-2521759D01*
X-6523654Y-2490515D01*
X-6459514Y-2481040D01*
X-6402768Y-2485999D01*
X-6316418Y-2510561D01*
X-6241125Y-2559192D01*
X-6173289Y-2636184D01*
X-6109313Y-2745827D01*
X-6045597Y-2892414D01*
X-6031928Y-2928255D01*
X-6000825Y-2998608D01*
X-5966790Y-3056769D01*
X-5947390Y-3080151D01*
X-5914358Y-3105513D01*
X-5889161Y-3101374D01*
X-5863167Y-3079750D01*
X-5832390Y-3026099D01*
X-5820359Y-2944640D01*
X-5826864Y-2845417D01*
X-5851697Y-2738475D01*
X-5871413Y-2684049D01*
X-5920987Y-2563515D01*
X-5788090Y-2507033D01*
X-5718072Y-2480483D01*
X-5662265Y-2465174D01*
X-5632755Y-2464420D01*
X-5607794Y-2498552D01*
G36*
X-6498167Y-3831166D02*
G01*
X-5545667Y-3831166D01*
X-5545667Y-4169833D01*
X-6498167Y-4169833D01*
X-6498167Y-4445000D01*
X-6815667Y-4445000D01*
X-6815667Y-4169833D01*
X-6938622Y-4169833D01*
X-7019045Y-4175103D01*
X-7081225Y-4189052D01*
X-7101670Y-4199150D01*
X-7126303Y-4223278D01*
X-7130704Y-4254469D01*
X-7117110Y-4308794D01*
X-7116986Y-4309199D01*
X-7102438Y-4360801D01*
X-7096406Y-4390934D01*
X-7096813Y-4393688D01*
X-7116168Y-4405123D01*
X-7162369Y-4431411D01*
X-7223363Y-4465711D01*
X-7345308Y-4533975D01*
X-7389582Y-4433886D01*
X-7414880Y-4364324D01*
X-7426509Y-4292795D01*
X-7427041Y-4201317D01*
X-7426030Y-4178806D01*
X-7409924Y-4054696D01*
X-7373136Y-3961503D01*
X-7311646Y-3895940D01*
X-7221437Y-3854722D01*
X-7098491Y-3834565D01*
X-7000875Y-3831199D01*
X-6815667Y-3831166D01*
X-6815667Y-3640666D01*
X-6498167Y-3640666D01*
X-6498167Y-3831166D01*
G37*
X-6498167Y-3831166D02*
X-5545667Y-3831166D01*
X-5545667Y-4169833D01*
X-6498167Y-4169833D01*
X-6498167Y-4445000D01*
X-6815667Y-4445000D01*
X-6815667Y-4169833D01*
X-6938622Y-4169833D01*
X-7019045Y-4175103D01*
X-7081225Y-4189052D01*
X-7101670Y-4199150D01*
X-7126303Y-4223278D01*
X-7130704Y-4254469D01*
X-7117110Y-4308794D01*
X-7116986Y-4309199D01*
X-7102438Y-4360801D01*
X-7096406Y-4390934D01*
X-7096813Y-4393688D01*
X-7116168Y-4405123D01*
X-7162369Y-4431411D01*
X-7223363Y-4465711D01*
X-7345308Y-4533975D01*
X-7389582Y-4433886D01*
X-7414880Y-4364324D01*
X-7426509Y-4292795D01*
X-7427041Y-4201317D01*
X-7426030Y-4178806D01*
X-7409924Y-4054696D01*
X-7373136Y-3961503D01*
X-7311646Y-3895940D01*
X-7221437Y-3854722D01*
X-7098491Y-3834565D01*
X-7000875Y-3831199D01*
X-6815667Y-3831166D01*
X-6815667Y-3640666D01*
X-6498167Y-3640666D01*
X-6498167Y-3831166D01*
G36*
X-16816500Y1234086D02*
G01*
X-16771687Y1190750D01*
X-16699696Y1120191D01*
X-16601898Y1023772D01*
X-16479664Y902856D01*
X-16334363Y758808D01*
X-16167366Y592989D01*
X-15980042Y406765D01*
X-15773763Y201498D01*
X-15549898Y-21448D01*
X-15309818Y-260709D01*
X-15054893Y-514922D01*
X-14786492Y-782723D01*
X-14505987Y-1062749D01*
X-14214747Y-1353636D01*
X-13914143Y-1654020D01*
X-13605544Y-1962539D01*
X-13579230Y-1988854D01*
X-10341594Y-5226541D01*
X-10392070Y-5280270D01*
X-10429037Y-5316243D01*
X-10453195Y-5333690D01*
X-10454803Y-5334000D01*
X-10471331Y-5319391D01*
X-10515475Y-5277070D01*
X-10584953Y-5209298D01*
X-10677482Y-5118331D01*
X-10790780Y-5006430D01*
X-10922566Y-4875853D01*
X-11070557Y-4728860D01*
X-11232472Y-4567708D01*
X-11406027Y-4394658D01*
X-11588941Y-4211968D01*
X-11648906Y-4152011D01*
X-12830753Y-2970023D01*
X-12763557Y-2942190D01*
X-12696362Y-2914356D01*
X-13790084Y-1818952D01*
X-13954606Y-1846196D01*
X-15401636Y-399281D01*
X-16848667Y1047635D01*
X-16848667Y1148234D01*
X-16845666Y1206879D01*
X-16838030Y1243135D01*
X-16832766Y1248834D01*
X-16816500Y1234086D01*
G37*
X-16816500Y1234086D02*
X-16771687Y1190750D01*
X-16699696Y1120191D01*
X-16601898Y1023772D01*
X-16479664Y902856D01*
X-16334363Y758808D01*
X-16167366Y592989D01*
X-15980042Y406765D01*
X-15773763Y201498D01*
X-15549898Y-21448D01*
X-15309818Y-260709D01*
X-15054893Y-514922D01*
X-14786492Y-782723D01*
X-14505987Y-1062749D01*
X-14214747Y-1353636D01*
X-13914143Y-1654020D01*
X-13605544Y-1962539D01*
X-13579230Y-1988854D01*
X-10341594Y-5226541D01*
X-10392070Y-5280270D01*
X-10429037Y-5316243D01*
X-10453195Y-5333690D01*
X-10454803Y-5334000D01*
X-10471331Y-5319391D01*
X-10515475Y-5277070D01*
X-10584953Y-5209298D01*
X-10677482Y-5118331D01*
X-10790780Y-5006430D01*
X-10922566Y-4875853D01*
X-11070557Y-4728860D01*
X-11232472Y-4567708D01*
X-11406027Y-4394658D01*
X-11588941Y-4211968D01*
X-11648906Y-4152011D01*
X-12830753Y-2970023D01*
X-12763557Y-2942190D01*
X-12696362Y-2914356D01*
X-13790084Y-1818952D01*
X-13954606Y-1846196D01*
X-15401636Y-399281D01*
X-16848667Y1047635D01*
X-16848667Y1148234D01*
X-16845666Y1206879D01*
X-16838030Y1243135D01*
X-16832766Y1248834D01*
X-16816500Y1234086D01*
G36*
X-6067389Y-4612911D02*
G01*
X-5995399Y-4621944D01*
X-5931286Y-4640964D01*
X-5857862Y-4673680D01*
X-5848284Y-4678370D01*
X-5725048Y-4756002D01*
X-5634583Y-4854343D01*
X-5570777Y-4980777D01*
X-5552995Y-5035148D01*
X-5535791Y-5122993D01*
X-5528600Y-5225782D01*
X-5530400Y-5335127D01*
X-5540168Y-5442641D01*
X-5556882Y-5539937D01*
X-5579519Y-5618626D01*
X-5607056Y-5670321D01*
X-5632440Y-5686670D01*
X-5667980Y-5683370D01*
X-5729162Y-5671290D01*
X-5783792Y-5657930D01*
X-5848440Y-5638353D01*
X-5892576Y-5620215D01*
X-5905500Y-5609546D01*
X-5898980Y-5581244D01*
X-5882543Y-5528891D01*
X-5873750Y-5503333D01*
X-5849263Y-5400175D01*
X-5842534Y-5290449D01*
X-5853251Y-5189182D01*
X-5881102Y-5111404D01*
X-5881914Y-5110055D01*
X-5943575Y-5045035D01*
X-6031311Y-4997543D01*
X-6132634Y-4970203D01*
X-6235056Y-4965637D01*
X-6326089Y-4986468D01*
X-6365248Y-5008553D01*
X-6453383Y-5094227D01*
X-6503865Y-5194293D01*
X-6517445Y-5311598D01*
X-6494875Y-5448991D01*
X-6487813Y-5473510D01*
X-6469914Y-5533138D01*
X-6458386Y-5572744D01*
X-6456063Y-5581708D01*
X-6474369Y-5592323D01*
X-6521666Y-5607888D01*
X-6585388Y-5625293D01*
X-6652968Y-5641425D01*
X-6711839Y-5653174D01*
X-6749433Y-5657428D01*
X-6756137Y-5655996D01*
X-6778264Y-5614663D01*
X-6799062Y-5542696D01*
X-6816513Y-5451788D01*
X-6828600Y-5353633D01*
X-6833305Y-5259926D01*
X-6832098Y-5215788D01*
X-6802557Y-5047664D01*
X-6737784Y-4901911D01*
X-6639165Y-4780594D01*
X-6508083Y-4685773D01*
X-6459909Y-4661547D01*
X-6390149Y-4633514D01*
X-6322965Y-4617564D01*
X-6242007Y-4610853D01*
X-6164446Y-4610157D01*
X-6067389Y-4612911D01*
G37*
X-6067389Y-4612911D02*
X-5995399Y-4621944D01*
X-5931286Y-4640964D01*
X-5857862Y-4673680D01*
X-5848284Y-4678370D01*
X-5725048Y-4756002D01*
X-5634583Y-4854343D01*
X-5570777Y-4980777D01*
X-5552995Y-5035148D01*
X-5535791Y-5122993D01*
X-5528600Y-5225782D01*
X-5530400Y-5335127D01*
X-5540168Y-5442641D01*
X-5556882Y-5539937D01*
X-5579519Y-5618626D01*
X-5607056Y-5670321D01*
X-5632440Y-5686670D01*
X-5667980Y-5683370D01*
X-5729162Y-5671290D01*
X-5783792Y-5657930D01*
X-5848440Y-5638353D01*
X-5892576Y-5620215D01*
X-5905500Y-5609546D01*
X-5898980Y-5581244D01*
X-5882543Y-5528891D01*
X-5873750Y-5503333D01*
X-5849263Y-5400175D01*
X-5842534Y-5290449D01*
X-5853251Y-5189182D01*
X-5881102Y-5111404D01*
X-5881914Y-5110055D01*
X-5943575Y-5045035D01*
X-6031311Y-4997543D01*
X-6132634Y-4970203D01*
X-6235056Y-4965637D01*
X-6326089Y-4986468D01*
X-6365248Y-5008553D01*
X-6453383Y-5094227D01*
X-6503865Y-5194293D01*
X-6517445Y-5311598D01*
X-6494875Y-5448991D01*
X-6487813Y-5473510D01*
X-6469914Y-5533138D01*
X-6458386Y-5572744D01*
X-6456063Y-5581708D01*
X-6474369Y-5592323D01*
X-6521666Y-5607888D01*
X-6585388Y-5625293D01*
X-6652968Y-5641425D01*
X-6711839Y-5653174D01*
X-6749433Y-5657428D01*
X-6756137Y-5655996D01*
X-6778264Y-5614663D01*
X-6799062Y-5542696D01*
X-6816513Y-5451788D01*
X-6828600Y-5353633D01*
X-6833305Y-5259926D01*
X-6832098Y-5215788D01*
X-6802557Y-5047664D01*
X-6737784Y-4901911D01*
X-6639165Y-4780594D01*
X-6508083Y-4685773D01*
X-6459909Y-4661547D01*
X-6390149Y-4633514D01*
X-6322965Y-4617564D01*
X-6242007Y-4610853D01*
X-6164446Y-4610157D01*
X-6067389Y-4612911D01*
G36*
X-5545667Y-6328833D02*
G01*
X-5905500Y-6328833D01*
X-5905500Y-5969000D01*
X-5545667Y-5969000D01*
X-5545667Y-6328833D01*
G37*
X-5545667Y-6328833D02*
X-5905500Y-6328833D01*
X-5905500Y-5969000D01*
X-5545667Y-5969000D01*
X-5545667Y-6328833D01*
G36*
X-5545667Y-7048500D02*
G01*
X-6815667Y-7048500D01*
X-6815667Y-6688666D01*
X-5545667Y-6688666D01*
X-5545667Y-7048500D01*
G37*
X-5545667Y-7048500D02*
X-6815667Y-7048500D01*
X-6815667Y-6688666D01*
X-5545667Y-6688666D01*
X-5545667Y-7048500D01*
G36*
X-7053181Y-6736861D02*
G01*
X-6921459Y-6869764D01*
X-7187265Y-7133208D01*
X-7318987Y-7000305D01*
X-7450709Y-6867401D01*
X-7317806Y-6735680D01*
X-7184902Y-6603958D01*
X-7053181Y-6736861D01*
G37*
X-7053181Y-6736861D02*
X-6921459Y-6869764D01*
X-7187265Y-7133208D01*
X-7318987Y-7000305D01*
X-7450709Y-6867401D01*
X-7317806Y-6735680D01*
X-7184902Y-6603958D01*
X-7053181Y-6736861D01*
G36*
X-6051264Y-7292942D02*
G01*
X-5899010Y-7337519D01*
X-5766685Y-7417847D01*
X-5657764Y-7531976D01*
X-5594481Y-7636627D01*
X-5567142Y-7696387D01*
X-5549718Y-7749581D01*
X-5540026Y-7808829D01*
X-5535879Y-7886755D01*
X-5535084Y-7979833D01*
X-5539906Y-8116978D01*
X-5557359Y-8224649D01*
X-5591924Y-8314913D01*
X-5648081Y-8399835D01*
X-5721820Y-8482744D01*
X-5834067Y-8569878D01*
X-5969711Y-8628161D01*
X-6119706Y-8655935D01*
X-6275006Y-8651541D01*
X-6426564Y-8613322D01*
X-6429070Y-8612365D01*
X-6554282Y-8543182D01*
X-6663665Y-8442164D01*
X-6747358Y-8319385D01*
X-6773887Y-8260051D01*
X-6804786Y-8137319D01*
X-6814330Y-8017684D01*
X-6492405Y-8017684D01*
X-6457388Y-8120595D01*
X-6454349Y-8126116D01*
X-6378909Y-8223518D01*
X-6285623Y-8283765D01*
X-6179326Y-8305375D01*
X-6064855Y-8286865D01*
X-6007911Y-8263035D01*
X-5923741Y-8199039D01*
X-5864033Y-8110110D01*
X-5834178Y-8007987D01*
X-5839568Y-7904410D01*
X-5840885Y-7899307D01*
X-5889323Y-7787629D01*
X-5966757Y-7706424D01*
X-6019249Y-7675601D01*
X-6125921Y-7644717D01*
X-6228586Y-7649755D01*
X-6321832Y-7685114D01*
X-6400249Y-7745189D01*
X-6458424Y-7824378D01*
X-6490947Y-7917077D01*
X-6492405Y-8017684D01*
X-6814330Y-8017684D01*
X-6816026Y-7996429D01*
X-6808232Y-7852269D01*
X-6782030Y-7719727D01*
X-6747468Y-7630583D01*
X-6654076Y-7493423D01*
X-6534798Y-7389296D01*
X-6392159Y-7319851D01*
X-6228686Y-7286738D01*
X-6219973Y-7286063D01*
X-6051264Y-7292942D01*
G37*
X-6051264Y-7292942D02*
X-5899010Y-7337519D01*
X-5766685Y-7417847D01*
X-5657764Y-7531976D01*
X-5594481Y-7636627D01*
X-5567142Y-7696387D01*
X-5549718Y-7749581D01*
X-5540026Y-7808829D01*
X-5535879Y-7886755D01*
X-5535084Y-7979833D01*
X-5539906Y-8116978D01*
X-5557359Y-8224649D01*
X-5591924Y-8314913D01*
X-5648081Y-8399835D01*
X-5721820Y-8482744D01*
X-5834067Y-8569878D01*
X-5969711Y-8628161D01*
X-6119706Y-8655935D01*
X-6275006Y-8651541D01*
X-6426564Y-8613322D01*
X-6429070Y-8612365D01*
X-6554282Y-8543182D01*
X-6663665Y-8442164D01*
X-6747358Y-8319385D01*
X-6773887Y-8260051D01*
X-6804786Y-8137319D01*
X-6814330Y-8017684D01*
X-6492405Y-8017684D01*
X-6457388Y-8120595D01*
X-6454349Y-8126116D01*
X-6378909Y-8223518D01*
X-6285623Y-8283765D01*
X-6179326Y-8305375D01*
X-6064855Y-8286865D01*
X-6007911Y-8263035D01*
X-5923741Y-8199039D01*
X-5864033Y-8110110D01*
X-5834178Y-8007987D01*
X-5839568Y-7904410D01*
X-5840885Y-7899307D01*
X-5889323Y-7787629D01*
X-5966757Y-7706424D01*
X-6019249Y-7675601D01*
X-6125921Y-7644717D01*
X-6228586Y-7649755D01*
X-6321832Y-7685114D01*
X-6400249Y-7745189D01*
X-6458424Y-7824378D01*
X-6490947Y-7917077D01*
X-6492405Y-8017684D01*
X-6814330Y-8017684D01*
X-6816026Y-7996429D01*
X-6808232Y-7852269D01*
X-6782030Y-7719727D01*
X-6747468Y-7630583D01*
X-6654076Y-7493423D01*
X-6534798Y-7389296D01*
X-6392159Y-7319851D01*
X-6228686Y-7286738D01*
X-6219973Y-7286063D01*
X-6051264Y-7292942D01*
G36*
X-29499178Y35082474D02*
G01*
X-28919031Y35038942D01*
X-28331380Y34956570D01*
X-27738218Y34835497D01*
X-27230917Y34702183D01*
X-26618511Y34506697D01*
X-25997251Y34273236D01*
X-25371395Y34004078D01*
X-24745197Y33701499D01*
X-24122916Y33367778D01*
X-23508805Y33005191D01*
X-22907123Y32616017D01*
X-22322124Y32202532D01*
X-21782816Y31786956D01*
X-21584048Y31627132D01*
X-21253649Y31792130D01*
X-20597812Y32096214D01*
X-19927020Y32361200D01*
X-19243214Y32586572D01*
X-18548335Y32771814D01*
X-17844325Y32916411D01*
X-17133126Y33019847D01*
X-16416679Y33081607D01*
X-16393584Y33082895D01*
X-15692613Y33100242D01*
X-14989953Y33075919D01*
X-14287860Y33010403D01*
X-13588591Y32904172D01*
X-12894403Y32757704D01*
X-12207554Y32571477D01*
X-11530300Y32345970D01*
X-10864897Y32081660D01*
X-10213604Y31779025D01*
X-10195969Y31770193D01*
X-9861520Y31602367D01*
X-9656219Y31767691D01*
X-9179271Y32135406D01*
X-8669515Y32497876D01*
X-8136468Y32849007D01*
X-7589647Y33182709D01*
X-7038570Y33492891D01*
X-6623083Y33708990D01*
X-5986805Y34010095D01*
X-5357846Y34272441D01*
X-4736859Y34495921D01*
X-4124500Y34680430D01*
X-3521422Y34825861D01*
X-2928279Y34932109D01*
X-2345725Y34999067D01*
X-1774414Y35026630D01*
X-1215000Y35014692D01*
X-668137Y34963146D01*
X-134479Y34871887D01*
X147644Y34806142D01*
X276533Y34771853D01*
X372881Y34740686D01*
X445499Y34706697D01*
X503196Y34663943D01*
X554784Y34606482D01*
X609072Y34528371D01*
X646111Y34469913D01*
X805509Y34177600D01*
X939077Y33853893D01*
X1046528Y33501159D01*
X1127574Y33121763D01*
X1181928Y32718072D01*
X1209302Y32292453D01*
X1209409Y31847270D01*
X1181962Y31384891D01*
X1126671Y30907681D01*
X1100106Y30734000D01*
X996118Y30191327D01*
X857368Y29626892D01*
X684481Y29042163D01*
X478086Y28438608D01*
X238809Y27817696D01*
X-32722Y27180894D01*
X-335880Y26529672D01*
X-670039Y25865498D01*
X-1034571Y25189839D01*
X-1428849Y24504164D01*
X-1852245Y23809941D01*
X-1868145Y23784613D01*
X-1933849Y23679083D01*
X-1990378Y23586426D01*
X-2034357Y23512325D01*
X-2062416Y23462466D01*
X-2071183Y23442530D01*
X-2071141Y23442479D01*
X-2048932Y23436690D01*
X-1991701Y23425054D01*
X-1906153Y23408844D01*
X-1798997Y23389331D01*
X-1682750Y23368800D01*
X-1480692Y23332294D01*
X-1272416Y23292251D01*
X-1062671Y23249777D01*
X-856206Y23205977D01*
X-657771Y23161957D01*
X-472114Y23118822D01*
X-303986Y23077679D01*
X-158134Y23039631D01*
X-39308Y23005786D01*
X47743Y22977247D01*
X98269Y22955122D01*
X100541Y22953695D01*
X148166Y22922525D01*
X148166Y21820954D01*
X147733Y21541790D01*
X146445Y21300194D01*
X144315Y21096928D01*
X141359Y20932754D01*
X137592Y20808435D01*
X133026Y20724732D01*
X127679Y20682407D01*
X126255Y20678442D01*
X89019Y20645210D01*
X57463Y20637352D01*
X15579Y20632466D01*
X-54211Y20619614D01*
X-138789Y20601284D01*
X-163628Y20595438D01*
X-380236Y20527416D01*
X-564499Y20435345D01*
X-715166Y20320090D01*
X-830989Y20182520D01*
X-878745Y20098975D01*
X-902850Y20047005D01*
X-920111Y19999557D01*
X-932047Y19947434D01*
X-940175Y19881436D01*
X-946014Y19792366D01*
X-951083Y19671026D01*
X-951569Y19657769D01*
X-963084Y19341873D01*
X-633566Y19093161D01*
X-295167Y18844917D01*
X18312Y18629931D01*
X307622Y18447796D01*
X573509Y18298107D01*
X816724Y18180457D01*
X1038015Y18094440D01*
X1238130Y18039649D01*
X1339928Y18022616D01*
X1441607Y18009899D01*
X1363552Y17921408D01*
X1331295Y17886364D01*
X1273289Y17824947D01*
X1193323Y17741106D01*
X1095187Y17638793D01*
X982671Y17521958D01*
X859565Y17394550D01*
X729659Y17260521D01*
X715334Y17245766D01*
X564980Y17090406D01*
X442291Y16962330D01*
X344955Y16858931D01*
X270658Y16777601D01*
X217091Y16715731D01*
X181939Y16670715D01*
X162892Y16639945D01*
X157638Y16620812D01*
X158247Y16617416D01*
X186014Y16572632D01*
X242554Y16511644D01*
X320701Y16440616D01*
X413286Y16365713D01*
X513143Y16293099D01*
X602699Y16235166D01*
X764347Y16143742D01*
X952047Y16047851D01*
X1155139Y15952183D01*
X1362963Y15861430D01*
X1564859Y15780285D01*
X1750168Y15713439D01*
X1878541Y15673625D01*
X1946214Y15651849D01*
X1993908Y15631097D01*
X2010833Y15616613D01*
X1998937Y15581646D01*
X1966255Y15519860D01*
X1917300Y15438379D01*
X1856581Y15344327D01*
X1788610Y15244830D01*
X1717898Y15147010D01*
X1690872Y15111272D01*
X1606400Y15008120D01*
X1496640Y14884587D01*
X1368551Y14747715D01*
X1229095Y14604548D01*
X1085231Y14462128D01*
X943919Y14327500D01*
X812121Y14207706D01*
X719666Y14128489D01*
X235606Y13752088D01*
X-287267Y13391152D01*
X-848252Y13045949D01*
X-1446650Y12716746D01*
X-2081763Y12403812D01*
X-2752889Y12107415D01*
X-3459330Y11827823D01*
X-4200387Y11565304D01*
X-4975359Y11320125D01*
X-5783547Y11092556D01*
X-6624253Y10882864D01*
X-7496775Y10691318D01*
X-8400415Y10518184D01*
X-8942917Y10425590D01*
X-9099621Y10400013D01*
X-9245590Y10376185D01*
X-9374749Y10355099D01*
X-9481023Y10337745D01*
X-9558337Y10325117D01*
X-9600614Y10318207D01*
X-9602867Y10317838D01*
X-9622997Y10313146D01*
X-9631691Y10305167D01*
X-9625440Y10290919D01*
X-9600735Y10267418D01*
X-9554067Y10231680D01*
X-9481927Y10180722D01*
X-9380807Y10111561D01*
X-9280172Y10043474D01*
X-8554406Y9535415D01*
X-7866863Y9016864D01*
X-7214131Y8484978D01*
X-6592796Y7936916D01*
X-5999446Y7369836D01*
X-5684900Y7049956D01*
X-5432550Y6787645D01*
X-4975817Y6875814D01*
X-4853285Y6898922D01*
X-4696408Y6927647D01*
X-4512605Y6960678D01*
X-4309292Y6996703D01*
X-4093888Y7034410D01*
X-3873811Y7072489D01*
X-3656477Y7109626D01*
X-3587750Y7121261D01*
X-3244371Y7179835D01*
X-2939393Y7233227D01*
X-2669306Y7282229D01*
X-2430603Y7327631D01*
X-2219775Y7370223D01*
X-2033311Y7410797D01*
X-1983183Y7422707D01*
X-1506507Y7422707D01*
X-1238538Y7333136D01*
X-834349Y7175856D01*
X-446632Y6980240D01*
X-77076Y6747622D01*
X272629Y6479335D01*
X600794Y6176712D01*
X905729Y5841086D01*
X1185744Y5473792D01*
X1264327Y5358097D01*
X1385216Y5175250D01*
X1400869Y5281084D01*
X1409425Y5343485D01*
X1421218Y5435637D01*
X1434707Y5545230D01*
X1448350Y5659952D01*
X1448635Y5662401D01*
X1460627Y5776941D01*
X1473566Y5920256D01*
X1486349Y6078837D01*
X1497872Y6239176D01*
X1505043Y6352774D01*
X1513219Y6496041D01*
X1518452Y6604481D01*
X1520458Y6685514D01*
X1518954Y6746562D01*
X1513658Y6795046D01*
X1504286Y6838389D01*
X1490557Y6884011D01*
X1484046Y6903766D01*
X1378805Y7162024D01*
X1241300Y7406663D01*
X1076409Y7631133D01*
X889011Y7828882D01*
X683986Y7993361D01*
X660921Y8008907D01*
X527959Y8087532D01*
X376489Y8162025D01*
X222287Y8225429D01*
X81128Y8270787D01*
X49403Y8278564D01*
X-59943Y8303274D01*
X-217293Y8160763D01*
X-481715Y7944881D01*
X-768366Y7754149D01*
X-1067666Y7594361D01*
X-1340629Y7481549D01*
X-1506507Y7422707D01*
X-1983183Y7422707D01*
X-1867705Y7450143D01*
X-1719445Y7489052D01*
X-1585025Y7528314D01*
X-1460934Y7568720D01*
X-1343664Y7611062D01*
X-1248834Y7648307D01*
X-928581Y7801166D01*
X-624633Y7992443D01*
X-338029Y8221073D01*
X-69808Y8485987D01*
X178991Y8786120D01*
X407330Y9120406D01*
X614170Y9487778D01*
X686887Y9635771D01*
X795851Y9880577D01*
X892932Y10127198D01*
X972571Y10361087D01*
X1001139Y10457957D01*
X1047750Y10625346D01*
X1147042Y10625507D01*
X1207969Y10622166D01*
X1248963Y10613517D01*
X1257193Y10608098D01*
X1264672Y10580759D01*
X1277427Y10517202D01*
X1294552Y10423084D01*
X1315138Y10304066D01*
X1338276Y10165808D01*
X1363059Y10013968D01*
X1388578Y9854206D01*
X1413926Y9692182D01*
X1438195Y9533556D01*
X1460475Y9383987D01*
X1479860Y9249134D01*
X1495442Y9134658D01*
X1502296Y9080500D01*
X1574375Y8387263D01*
X1619223Y7717572D01*
X1636857Y7072975D01*
X1627293Y6455020D01*
X1590547Y5865254D01*
X1526637Y5305225D01*
X1457837Y4889500D01*
X1329279Y4315793D01*
X1166116Y3766380D01*
X968409Y3241355D01*
X736220Y2740813D01*
X469611Y2264849D01*
X168642Y1813558D01*
X-166623Y1387034D01*
X-536123Y985371D01*
X-939796Y608665D01*
X-1377581Y257009D01*
X-1725084Y11888D01*
X-1830069Y-56292D01*
X-1962348Y-139303D01*
X-2112294Y-231269D01*
X-2270275Y-326318D01*
X-2426662Y-418574D01*
X-2508250Y-465849D01*
X-2967310Y-736990D01*
X-3392098Y-1003099D01*
X-3789551Y-1268822D01*
X-4166611Y-1538806D01*
X-4530216Y-1817700D01*
X-4548027Y-1831850D01*
X-4826000Y-2053047D01*
X-4825902Y-2333565D01*
X-4825523Y-2387883D01*
X-4824439Y-2481862D01*
X-4822691Y-2612838D01*
X-4820322Y-2778145D01*
X-4817375Y-2975119D01*
X-4813891Y-3201093D01*
X-4809914Y-3453404D01*
X-4805484Y-3729386D01*
X-4800645Y-4026373D01*
X-4795440Y-4341701D01*
X-4789909Y-4672705D01*
X-4784096Y-5016719D01*
X-4778043Y-5371079D01*
X-4773207Y-5651500D01*
X-4765351Y-6114063D01*
X-4758384Y-6542796D01*
X-4752313Y-6936942D01*
X-4747148Y-7295742D01*
X-4742896Y-7618440D01*
X-4739565Y-7904280D01*
X-4737162Y-8152502D01*
X-4735697Y-8362351D01*
X-4735176Y-8533070D01*
X-4735609Y-8663900D01*
X-4737002Y-8754085D01*
X-4739364Y-8802867D01*
X-4739997Y-8807866D01*
X-4798348Y-9047527D01*
X-4890592Y-9264273D01*
X-5014930Y-9455863D01*
X-5169563Y-9620058D01*
X-5352693Y-9754617D01*
X-5562521Y-9857300D01*
X-5591417Y-9868101D01*
X-5725584Y-9916583D01*
X-11652250Y-9916583D01*
X-11804129Y-9868828D01*
X-11949208Y-9809230D01*
X-12098324Y-9723765D01*
X-12237248Y-9621957D01*
X-12351752Y-9513330D01*
X-12373877Y-9487476D01*
X-12454497Y-9380121D01*
X-12519385Y-9272357D01*
X-12571444Y-9156187D01*
X-12613577Y-9023617D01*
X-12648688Y-8866652D01*
X-12679680Y-8677297D01*
X-12686927Y-8625416D01*
X-12750910Y-8294532D01*
X-12849284Y-7988130D01*
X-12981652Y-7706569D01*
X-13147621Y-7450207D01*
X-13346794Y-7219402D01*
X-13578776Y-7014511D01*
X-13843170Y-6835892D01*
X-14139583Y-6683903D01*
X-14467618Y-6558902D01*
X-14826880Y-6461246D01*
X-15144750Y-6401786D01*
X-15304157Y-6383500D01*
X-15491695Y-6371716D01*
X-15694863Y-6366441D01*
X-15901157Y-6367679D01*
X-16098077Y-6375434D01*
X-16273118Y-6389712D01*
X-16361834Y-6401317D01*
X-16743051Y-6476371D01*
X-17091915Y-6577712D01*
X-17409740Y-6705960D01*
X-17697840Y-6861737D01*
X-17957530Y-7045665D01*
X-18190123Y-7258365D01*
X-18203884Y-7272727D01*
X-18390624Y-7497039D01*
X-18545007Y-7743884D01*
X-18667983Y-8015400D01*
X-18760498Y-8313727D01*
X-18823501Y-8641002D01*
X-18829265Y-8683409D01*
X-18846231Y-8798036D01*
X-18866584Y-8911772D01*
X-18887503Y-9009866D01*
X-18902629Y-9066782D01*
X-18984808Y-9262372D01*
X-19103035Y-9443548D01*
X-19251753Y-9603727D01*
X-19425408Y-9736325D01*
X-19507930Y-9784049D01*
X-19544541Y-9803670D01*
X-19577465Y-9821408D01*
X-19608898Y-9837356D01*
X-19641041Y-9851610D01*
X-19676090Y-9864262D01*
X-19716245Y-9875405D01*
X-19763704Y-9885135D01*
X-19820666Y-9893543D01*
X-19889329Y-9900725D01*
X-19971891Y-9906773D01*
X-20070552Y-9911781D01*
X-20187509Y-9915843D01*
X-20324961Y-9919053D01*
X-20485107Y-9921505D01*
X-20670145Y-9923291D01*
X-20882274Y-9924505D01*
X-21123691Y-9925242D01*
X-21396597Y-9925595D01*
X-21703188Y-9925657D01*
X-22045664Y-9925523D01*
X-22426223Y-9925285D01*
X-22817667Y-9925053D01*
X-23249862Y-9924744D01*
X-23641440Y-9924272D01*
X-23994120Y-9923621D01*
X-24309617Y-9922775D01*
X-24589650Y-9921719D01*
X-24835935Y-9920437D01*
X-25050189Y-9918912D01*
X-25234130Y-9917130D01*
X-25389474Y-9915074D01*
X-25517938Y-9912728D01*
X-25621240Y-9910077D01*
X-25701097Y-9907105D01*
X-25759225Y-9903795D01*
X-25797342Y-9900133D01*
X-25812750Y-9897422D01*
X-26023599Y-9824157D01*
X-26215758Y-9714994D01*
X-26385643Y-9573582D01*
X-26529672Y-9403569D01*
X-26644258Y-9208604D01*
X-26725820Y-8992334D01*
X-26734886Y-8958667D01*
X-26741575Y-8932103D01*
X-26747646Y-8905827D01*
X-26753091Y-8877890D01*
X-26757905Y-8846341D01*
X-26762082Y-8809232D01*
X-26765614Y-8764612D01*
X-26768496Y-8710532D01*
X-26770721Y-8645043D01*
X-26772284Y-8566193D01*
X-26773178Y-8472034D01*
X-26773396Y-8360615D01*
X-26772934Y-8229988D01*
X-26771783Y-8078202D01*
X-26769938Y-7903308D01*
X-26767393Y-7703355D01*
X-26764142Y-7476395D01*
X-26760178Y-7220477D01*
X-26755495Y-6933651D01*
X-26750087Y-6613968D01*
X-26743947Y-6259479D01*
X-26737070Y-5868233D01*
X-26729449Y-5438280D01*
X-26722322Y-5037636D01*
X-26668811Y-2030818D01*
X-26887511Y-1791309D01*
X-27216667Y-1408432D01*
X-27504439Y-1025676D01*
X-27751743Y-641450D01*
X-27959494Y-254165D01*
X-28128607Y137770D01*
X-28259998Y535944D01*
X-28288590Y642627D01*
X-28376356Y1071597D01*
X-28422550Y1507382D01*
X-28426336Y1860283D01*
X-28275325Y1860283D01*
X-28273902Y1608418D01*
X-28261103Y1374748D01*
X-28248556Y1254985D01*
X-28173825Y827509D01*
X-28059694Y410186D01*
X-27905671Y1952D01*
X-27711268Y-398261D01*
X-27475992Y-791518D01*
X-27199352Y-1178885D01*
X-27032238Y-1386416D01*
X-26958795Y-1476595D01*
X-26896111Y-1558303D01*
X-26848980Y-1624912D01*
X-26822195Y-1669796D01*
X-26817876Y-1682750D01*
X-26803391Y-1718789D01*
X-26766867Y-1773394D01*
X-26716055Y-1835048D01*
X-26713409Y-1837966D01*
X-26658887Y-1895585D01*
X-26624514Y-1924602D01*
X-26603690Y-1929229D01*
X-26591071Y-1916004D01*
X-26572246Y-1892577D01*
X-26551336Y-1905762D01*
X-26544748Y-1913478D01*
X-26541248Y-1924724D01*
X-26538329Y-1950489D01*
X-26536007Y-1992488D01*
X-26534298Y-2052442D01*
X-26533218Y-2132069D01*
X-26532784Y-2233086D01*
X-26533010Y-2357213D01*
X-26533914Y-2506167D01*
X-26535511Y-2681667D01*
X-26537817Y-2885431D01*
X-26540849Y-3119178D01*
X-26544622Y-3384626D01*
X-26549152Y-3683493D01*
X-26554456Y-4017498D01*
X-26560549Y-4388359D01*
X-26567448Y-4797795D01*
X-26575169Y-5247523D01*
X-26576669Y-5334146D01*
X-26584352Y-5778257D01*
X-26591288Y-6182058D01*
X-26597491Y-6547565D01*
X-26602972Y-6876796D01*
X-26607745Y-7171767D01*
X-26611823Y-7434495D01*
X-26615218Y-7666995D01*
X-26617943Y-7871286D01*
X-26620010Y-8049383D01*
X-26621433Y-8203303D01*
X-26622225Y-8335063D01*
X-26622397Y-8446679D01*
X-26621963Y-8540168D01*
X-26620936Y-8617547D01*
X-26619328Y-8680832D01*
X-26617153Y-8732040D01*
X-26614422Y-8773187D01*
X-26611148Y-8806290D01*
X-26607346Y-8833367D01*
X-26603026Y-8856432D01*
X-26599079Y-8873886D01*
X-26530351Y-9079726D01*
X-26429450Y-9267270D01*
X-26300584Y-9432058D01*
X-26147957Y-9569630D01*
X-25975776Y-9675528D01*
X-25788245Y-9745290D01*
X-25773902Y-9748887D01*
X-25737297Y-9752640D01*
X-25661402Y-9756161D01*
X-25549262Y-9759448D01*
X-25403920Y-9762495D01*
X-25228419Y-9765301D01*
X-25025802Y-9767861D01*
X-24799114Y-9770172D01*
X-24551397Y-9772230D01*
X-24285695Y-9774032D01*
X-24005051Y-9775574D01*
X-23712510Y-9776853D01*
X-23411114Y-9777865D01*
X-23103906Y-9778606D01*
X-22793931Y-9779073D01*
X-22484232Y-9779263D01*
X-22177853Y-9779171D01*
X-21877836Y-9778795D01*
X-21587225Y-9778130D01*
X-21309064Y-9777174D01*
X-21046396Y-9775922D01*
X-20802265Y-9774371D01*
X-20579714Y-9772518D01*
X-20381786Y-9770358D01*
X-20211525Y-9767889D01*
X-20071975Y-9765107D01*
X-19966179Y-9762009D01*
X-19897181Y-9758590D01*
X-19871251Y-9755780D01*
X-19680536Y-9695886D01*
X-19502555Y-9600567D01*
X-19343171Y-9475193D01*
X-19208243Y-9325131D01*
X-19103633Y-9155751D01*
X-19041554Y-8995833D01*
X-19024935Y-8925805D01*
X-19006217Y-8828191D01*
X-18988020Y-8717477D01*
X-18976478Y-8636000D01*
X-18913026Y-8290032D01*
X-18816385Y-7970319D01*
X-18686393Y-7676633D01*
X-18522886Y-7408745D01*
X-18325702Y-7166426D01*
X-18094678Y-6949448D01*
X-17829652Y-6757581D01*
X-17530460Y-6590598D01*
X-17515417Y-6583292D01*
X-17186983Y-6446611D01*
X-16834333Y-6340453D01*
X-16463210Y-6265433D01*
X-16079360Y-6222167D01*
X-15688527Y-6211270D01*
X-15296454Y-6233356D01*
X-14908886Y-6289041D01*
X-14859000Y-6298807D01*
X-14524889Y-6381635D01*
X-14205228Y-6491213D01*
X-13907944Y-6624396D01*
X-13640966Y-6778039D01*
X-13625819Y-6788015D01*
X-13503570Y-6878388D01*
X-13370366Y-6992276D01*
X-13236794Y-7119380D01*
X-13113441Y-7249401D01*
X-13010895Y-7372043D01*
X-12975149Y-7420935D01*
X-12818032Y-7683703D01*
X-12690864Y-7972174D01*
X-12596095Y-8279862D01*
X-12539883Y-8572500D01*
X-12524288Y-8680204D01*
X-12507750Y-8786394D01*
X-12492784Y-8875226D01*
X-12486091Y-8911166D01*
X-12429160Y-9094077D01*
X-12335900Y-9266225D01*
X-12211998Y-9422035D01*
X-12063140Y-9555931D01*
X-11895012Y-9662339D01*
X-11713300Y-9735683D01*
X-11622903Y-9757511D01*
X-11583040Y-9760920D01*
X-11501549Y-9764052D01*
X-11379136Y-9766902D01*
X-11216505Y-9769463D01*
X-11014363Y-9771732D01*
X-10773413Y-9773704D01*
X-10494361Y-9775372D01*
X-10177912Y-9776732D01*
X-9824771Y-9777779D01*
X-9435643Y-9778507D01*
X-9011233Y-9778911D01*
X-8679892Y-9779000D01*
X-8270771Y-9778954D01*
X-7901837Y-9778803D01*
X-7570946Y-9778522D01*
X-7275951Y-9778089D01*
X-7014707Y-9777478D01*
X-6785068Y-9776667D01*
X-6584889Y-9775633D01*
X-6412023Y-9774351D01*
X-6264327Y-9772798D01*
X-6139653Y-9770951D01*
X-6035857Y-9768786D01*
X-5950792Y-9766280D01*
X-5882313Y-9763409D01*
X-5828275Y-9760149D01*
X-5786532Y-9756477D01*
X-5754938Y-9752369D01*
X-5731347Y-9747802D01*
X-5726463Y-9746589D01*
X-5530139Y-9674278D01*
X-5353171Y-9566693D01*
X-5198958Y-9427769D01*
X-5070898Y-9261441D01*
X-4972388Y-9071647D01*
X-4906826Y-8862320D01*
X-4891397Y-8779383D01*
X-4888649Y-8738813D01*
X-4886877Y-8659365D01*
X-4886086Y-8540745D01*
X-4886278Y-8382658D01*
X-4887458Y-8184810D01*
X-4889628Y-7946905D01*
X-4892791Y-7668651D01*
X-4896951Y-7349751D01*
X-4902112Y-6989913D01*
X-4908275Y-6588840D01*
X-4915445Y-6146239D01*
X-4923625Y-5661814D01*
X-4929873Y-5302250D01*
X-4937591Y-4862002D01*
X-4944563Y-4462115D01*
X-4950798Y-4100621D01*
X-4956310Y-3775553D01*
X-4961110Y-3484946D01*
X-4965208Y-3226831D01*
X-4968616Y-2999243D01*
X-4971347Y-2800215D01*
X-4973411Y-2627780D01*
X-4974819Y-2479972D01*
X-4975584Y-2354823D01*
X-4975717Y-2250367D01*
X-4975229Y-2164638D01*
X-4974131Y-2095669D01*
X-4972436Y-2041493D01*
X-4970154Y-2000143D01*
X-4967298Y-1969653D01*
X-4963878Y-1948057D01*
X-4959906Y-1933386D01*
X-4955394Y-1923676D01*
X-4950353Y-1916958D01*
X-4949630Y-1916171D01*
X-4921368Y-1887912D01*
X-4911715Y-1890662D01*
X-4910667Y-1915448D01*
X-4904022Y-1930007D01*
X-4881164Y-1920244D01*
X-4837704Y-1883374D01*
X-4794269Y-1841517D01*
X-4729139Y-1772278D01*
X-4695314Y-1723112D01*
X-4689680Y-1689444D01*
X-4690041Y-1688216D01*
X-4684792Y-1652334D01*
X-4650059Y-1597538D01*
X-4591419Y-1528725D01*
X-4584165Y-1520194D01*
X-4368747Y-1520194D01*
X-4359149Y-1518483D01*
X-4321213Y-1494912D01*
X-4260377Y-1453144D01*
X-4182080Y-1396840D01*
X-4145543Y-1369921D01*
X-4027919Y-1284315D01*
X-3892733Y-1188477D01*
X-3757918Y-1095002D01*
X-3656542Y-1026502D01*
X-3567247Y-966315D01*
X-3492165Y-914044D01*
X-3437633Y-874229D01*
X-3409986Y-851411D01*
X-3407834Y-848270D01*
X-3424432Y-832565D01*
X-3467525Y-801853D01*
X-3527058Y-762487D01*
X-3592979Y-720822D01*
X-3655233Y-683214D01*
X-3703767Y-656016D01*
X-3728499Y-645583D01*
X-3744402Y-662263D01*
X-3779158Y-708245D01*
X-3828387Y-777441D01*
X-3887711Y-863762D01*
X-3921166Y-913500D01*
X-3996403Y-1023810D01*
X-4076170Y-1136811D01*
X-4151894Y-1240595D01*
X-4215002Y-1323250D01*
X-4225870Y-1336834D01*
X-4282715Y-1407763D01*
X-4330211Y-1468309D01*
X-4361397Y-1509537D01*
X-4368747Y-1520194D01*
X-4584165Y-1520194D01*
X-4383550Y-1284272D01*
X-4181145Y-1013454D01*
X-3989646Y-725228D01*
X-3814497Y-428549D01*
X-3661141Y-132373D01*
X-3535022Y154344D01*
X-3482146Y296334D01*
X-3382737Y611163D01*
X-3310205Y909594D01*
X-3262167Y1205822D01*
X-3236240Y1514040D01*
X-3229809Y1799167D01*
X-3247699Y2214627D01*
X-3300994Y2627439D01*
X-3390574Y3040960D01*
X-3517320Y3458550D01*
X-3682112Y3883567D01*
X-3885831Y4319369D01*
X-3895866Y4339167D01*
X-4146796Y4795144D01*
X-4437989Y5256360D01*
X-4767919Y5721281D01*
X-5135062Y6188372D01*
X-5177531Y6237683D01*
X-4945374Y6237683D01*
X-4939782Y6216072D01*
X-4912312Y6172635D01*
X-4874179Y6123306D01*
X-4788433Y6016003D01*
X-4686660Y5882121D01*
X-4575500Y5730835D01*
X-4461594Y5571321D01*
X-4351583Y5412753D01*
X-4252107Y5264305D01*
X-4248759Y5259193D01*
X-4000061Y4856318D01*
X-3775551Y4446050D01*
X-3580259Y4038017D01*
X-3459598Y3748545D01*
X-3398597Y3591839D01*
X-3249757Y3527552D01*
X-3013439Y3417773D01*
X-2761796Y3287167D01*
X-2507072Y3142835D01*
X-2261512Y2991883D01*
X-2037360Y2841412D01*
X-1922941Y2757881D01*
X-1632841Y2522001D01*
X-1356492Y2265400D01*
X-1100126Y1994839D01*
X-869976Y1717079D01*
X-672277Y1438882D01*
X-599818Y1322527D01*
X-560468Y1257168D01*
X-530495Y1208774D01*
X-515466Y1186304D01*
X-514782Y1185704D01*
X-500329Y1200602D01*
X-463343Y1241711D01*
X-408983Y1303221D01*
X-342409Y1379323D01*
X-322423Y1402292D01*
X-32376Y1757522D01*
X228512Y2123851D01*
X468026Y2512736D01*
X616112Y2783371D01*
X765532Y3068944D01*
X586168Y3307181D01*
X252670Y3715131D01*
X-113336Y4096964D01*
X-510365Y4451793D01*
X-936935Y4778731D01*
X-1391560Y5076891D01*
X-1872756Y5345388D01*
X-2379038Y5583334D01*
X-2908922Y5789842D01*
X-3460924Y5964027D01*
X-4033559Y6105002D01*
X-4132276Y6125484D01*
X-4257618Y6149489D01*
X-4389847Y6172552D01*
X-4522120Y6193728D01*
X-4647592Y6212073D01*
X-4759420Y6226644D01*
X-4850759Y6236494D01*
X-4914766Y6240681D01*
X-4944597Y6238259D01*
X-4945374Y6237683D01*
X-5177531Y6237683D01*
X-5537893Y6656098D01*
X-5974886Y7122925D01*
X-6444517Y7587318D01*
X-6945261Y8047743D01*
X-7475592Y8502664D01*
X-8033985Y8950548D01*
X-8618917Y9389859D01*
X-9228860Y9819063D01*
X-9565284Y10044243D01*
X-9912485Y10272599D01*
X-10348451Y10215991D01*
X-11226585Y10110300D01*
X-12121640Y10019251D01*
X-13039182Y9942388D01*
X-13984776Y9879255D01*
X-14963988Y9829396D01*
X-15178701Y9820396D01*
X-15355368Y9814203D01*
X-15529078Y9810225D01*
X-15704775Y9808580D01*
X-15887405Y9809387D01*
X-16081914Y9812764D01*
X-16293249Y9818831D01*
X-16526354Y9827705D01*
X-16786175Y9839507D01*
X-17077659Y9854354D01*
X-17405750Y9872365D01*
X-17451917Y9874977D01*
X-18007781Y9909761D01*
X-18578567Y9951624D01*
X-19153583Y9999602D01*
X-19722133Y10052732D01*
X-20273524Y10110048D01*
X-20797063Y10170587D01*
X-20971777Y10192363D01*
X-21124388Y10211646D01*
X-21263924Y10229037D01*
X-21384673Y10243843D01*
X-21480923Y10255371D01*
X-21546962Y10262929D01*
X-21577078Y10265824D01*
X-21577632Y10265834D01*
X-21604825Y10254196D01*
X-21662158Y10221287D01*
X-21745087Y10170108D01*
X-21849070Y10103664D01*
X-21969565Y10024958D01*
X-22102029Y9936994D01*
X-22241920Y9842775D01*
X-22384695Y9745306D01*
X-22525813Y9647589D01*
X-22660731Y9552628D01*
X-22717314Y9512238D01*
X-23386098Y9015520D01*
X-24017200Y8511430D01*
X-24615124Y7996100D01*
X-25184376Y7465662D01*
X-25674688Y6973426D01*
X-26103834Y6507359D01*
X-26496349Y6039941D01*
X-26851641Y5572195D01*
X-27169117Y5105146D01*
X-27448185Y4639818D01*
X-27688251Y4177236D01*
X-27888724Y3718424D01*
X-28049011Y3264407D01*
X-28168518Y2816209D01*
X-28214953Y2582334D01*
X-28245489Y2361512D01*
X-28265733Y2116072D01*
X-28275325Y1860283D01*
X-28426336Y1860283D01*
X-28427293Y1949460D01*
X-28390704Y2397306D01*
X-28312904Y2850396D01*
X-28194013Y3308207D01*
X-28034151Y3770215D01*
X-27833439Y4235897D01*
X-27591997Y4704727D01*
X-27309945Y5176184D01*
X-27213862Y5323417D01*
X-26869693Y5810797D01*
X-26484939Y6300155D01*
X-26061203Y6789973D01*
X-25600088Y7278731D01*
X-25103197Y7764911D01*
X-24572134Y8246993D01*
X-24008502Y8723458D01*
X-23413904Y9192787D01*
X-22789943Y9653461D01*
X-22243093Y10033441D01*
X-22114734Y10120391D01*
X-22018063Y10186708D01*
X-21949617Y10235350D01*
X-21905936Y10269276D01*
X-21883556Y10291444D01*
X-21879017Y10304813D01*
X-21888855Y10312341D01*
X-21909610Y10316988D01*
X-21911030Y10317224D01*
X-21949966Y10323608D01*
X-22024566Y10335806D01*
X-22128713Y10352819D01*
X-22256290Y10373648D01*
X-22401180Y10397294D01*
X-22557264Y10422758D01*
X-22574250Y10425528D01*
X-23478529Y10584591D01*
X-24354585Y10762055D01*
X-25201478Y10957566D01*
X-26018269Y11170771D01*
X-26804018Y11401316D01*
X-27557785Y11648848D01*
X-28278631Y11913013D01*
X-28965615Y12193458D01*
X-29617799Y12489829D01*
X-30234242Y12801772D01*
X-30814004Y13128934D01*
X-31356147Y13470961D01*
X-31859730Y13827500D01*
X-32090291Y14005932D01*
X-32218133Y14112308D01*
X-32361176Y14238882D01*
X-32513019Y14379349D01*
X-32667261Y14527406D01*
X-32817500Y14676747D01*
X-32957334Y14821067D01*
X-33080362Y14954062D01*
X-33180182Y15069425D01*
X-33217699Y15116331D01*
X-33285456Y15207638D01*
X-33352903Y15304639D01*
X-33415384Y15399923D01*
X-33468241Y15486076D01*
X-33506819Y15555685D01*
X-33526461Y15601336D01*
X-33528000Y15610344D01*
X-33509081Y15625103D01*
X-33457721Y15648668D01*
X-33382024Y15677658D01*
X-33300517Y15705353D01*
X-33078449Y15782392D01*
X-32857858Y15869326D01*
X-32643238Y15963653D01*
X-32439078Y16062870D01*
X-32249871Y16164475D01*
X-32080107Y16265965D01*
X-31934278Y16364836D01*
X-31816875Y16458586D01*
X-31732389Y16544712D01*
X-31694644Y16600252D01*
X-31663943Y16658754D01*
X-32278104Y17288169D01*
X-32411209Y17424875D01*
X-32535871Y17553475D01*
X-32648801Y17670533D01*
X-32746706Y17772612D01*
X-32826295Y17856276D01*
X-32884278Y17918089D01*
X-32917363Y17954612D01*
X-32923176Y17961773D01*
X-32935268Y17981749D01*
X-32934304Y17996442D01*
X-32913958Y18008799D01*
X-32867901Y18021769D01*
X-32789806Y18038300D01*
X-32736037Y18048967D01*
X-32564020Y18093530D01*
X-32375615Y18163033D01*
X-32169055Y18258469D01*
X-31942575Y18380836D01*
X-31831377Y18448179D01*
X-25419231Y18448179D01*
X-25408153Y18143584D01*
X-25360361Y17846538D01*
X-25277727Y17559843D01*
X-25162121Y17286305D01*
X-25015413Y17028727D01*
X-24839474Y16789914D01*
X-24636174Y16572668D01*
X-24407384Y16379794D01*
X-24154975Y16214096D01*
X-23880816Y16078379D01*
X-23586778Y15975445D01*
X-23274733Y15908099D01*
X-23209250Y15899011D01*
X-23056596Y15883423D01*
X-22920155Y15878837D01*
X-22779094Y15885175D01*
X-22658917Y15896914D01*
X-22336432Y15954263D01*
X-22027510Y16051105D01*
X-21734964Y16186142D01*
X-21461604Y16358073D01*
X-21210244Y16565600D01*
X-21208827Y16566932D01*
X-20985161Y16805340D01*
X-20797403Y17064570D01*
X-20646383Y17341742D01*
X-20532934Y17633975D01*
X-20457887Y17938389D01*
X-20422072Y18252104D01*
X-20424039Y18400329D01*
X-11107769Y18400329D01*
X-11094923Y18150352D01*
X-11040830Y17824593D01*
X-10948293Y17516547D01*
X-10817277Y17226142D01*
X-10647746Y16953302D01*
X-10439666Y16697952D01*
X-10384812Y16640108D01*
X-10143797Y16422412D01*
X-9881367Y16240117D01*
X-9600793Y16094252D01*
X-9305341Y15985850D01*
X-8998282Y15915940D01*
X-8682883Y15885553D01*
X-8362413Y15895719D01*
X-8129167Y15928955D01*
X-7856102Y15999351D01*
X-7581545Y16105536D01*
X-7316578Y16242876D01*
X-7193829Y16319991D01*
X-7092518Y16396767D01*
X-6975999Y16499688D01*
X-6852798Y16619846D01*
X-6731442Y16748332D01*
X-6620458Y16876238D01*
X-6528373Y16994656D01*
X-6481636Y17064025D01*
X-6329045Y17349912D01*
X-6215402Y17648439D01*
X-6140987Y17955942D01*
X-6106078Y18268758D01*
X-6110956Y18583226D01*
X-6155900Y18895681D01*
X-6241191Y19202461D01*
X-6305720Y19368188D01*
X-6450840Y19653715D01*
X-6627404Y19913919D01*
X-6832164Y20147126D01*
X-7061872Y20351664D01*
X-7313283Y20525862D01*
X-7583148Y20668046D01*
X-7868219Y20776545D01*
X-8165250Y20849686D01*
X-8470994Y20885796D01*
X-8782202Y20883204D01*
X-9095628Y20840236D01*
X-9144000Y20829899D01*
X-9447734Y20741146D01*
X-9733040Y20616884D01*
X-9997714Y20460142D01*
X-10239552Y20273948D01*
X-10456348Y20061331D01*
X-10645897Y19825318D01*
X-10805995Y19568940D01*
X-10934436Y19295223D01*
X-11029015Y19007196D01*
X-11087528Y18707889D01*
X-11107769Y18400329D01*
X-20424039Y18400329D01*
X-20426322Y18572239D01*
X-20471468Y18895916D01*
X-20484249Y18951979D01*
X-16752033Y18951979D01*
X-16751787Y18915138D01*
X-16745209Y18880073D01*
X-16741141Y18864792D01*
X-16723393Y18810598D01*
X-16707751Y18778805D01*
X-16703041Y18775278D01*
X-16678109Y18781070D01*
X-16622651Y18796170D01*
X-16546716Y18817808D01*
X-16510601Y18828336D01*
X-16355047Y18870015D01*
X-16192805Y18906557D01*
X-16035014Y18935932D01*
X-15892811Y18956112D01*
X-15777333Y18965068D01*
X-15758584Y18965334D01*
X-15649727Y18958844D01*
X-15511937Y18940728D01*
X-15356351Y18913015D01*
X-15194107Y18877732D01*
X-15036342Y18836910D01*
X-15006567Y18828336D01*
X-14925048Y18804761D01*
X-14859816Y18786538D01*
X-14820878Y18776436D01*
X-14814726Y18775278D01*
X-14801458Y18793162D01*
X-14783488Y18838403D01*
X-14777548Y18857119D01*
X-14769438Y18889732D01*
X-14766880Y18922952D01*
X-14771403Y18963758D01*
X-14784537Y19019125D01*
X-14807810Y19096033D01*
X-14842752Y19201458D01*
X-14871474Y19285744D01*
X-14914584Y19408245D01*
X-14957608Y19524470D01*
X-14996961Y19625155D01*
X-15029057Y19701034D01*
X-15044584Y19733135D01*
X-15135997Y19863382D01*
X-15255722Y19975228D01*
X-15395530Y20064568D01*
X-15547192Y20127297D01*
X-15702482Y20159311D01*
X-15853170Y20156505D01*
X-15882758Y20151254D01*
X-16062581Y20095003D01*
X-16223723Y20006905D01*
X-16360178Y19891383D01*
X-16465937Y19752856D01*
X-16493632Y19701717D01*
X-16521060Y19639461D01*
X-16557631Y19547612D01*
X-16599290Y19436796D01*
X-16641979Y19317641D01*
X-16658567Y19269636D01*
X-16699212Y19149422D01*
X-16727300Y19061493D01*
X-16744389Y18998221D01*
X-16752033Y18951979D01*
X-20484249Y18951979D01*
X-20500192Y19021907D01*
X-20544507Y19164878D01*
X-20607868Y19326415D01*
X-20684129Y19493592D01*
X-20767145Y19653482D01*
X-20850772Y19793161D01*
X-20900970Y19864917D01*
X-21117548Y20117759D01*
X-21355888Y20335759D01*
X-21612979Y20518405D01*
X-21885810Y20665183D01*
X-22171371Y20775579D01*
X-22466652Y20849081D01*
X-22768640Y20885174D01*
X-23074327Y20883347D01*
X-23380700Y20843085D01*
X-23684749Y20763876D01*
X-23983464Y20645205D01*
X-24273833Y20486560D01*
X-24331084Y20449697D01*
X-24437830Y20370111D01*
X-24558629Y20265422D01*
X-24683645Y20145475D01*
X-24803041Y20020115D01*
X-24906982Y19899189D01*
X-24981760Y19798422D01*
X-25082553Y19631158D01*
X-25177742Y19444679D01*
X-25259679Y19255302D01*
X-25320715Y19079347D01*
X-25323767Y19068797D01*
X-25391726Y18757518D01*
X-25419231Y18448179D01*
X-31831377Y18448179D01*
X-31694409Y18531128D01*
X-31422790Y18710342D01*
X-31125955Y18919472D01*
X-30909063Y19079081D01*
X-30565543Y19335750D01*
X-30566327Y19441584D01*
X-30572149Y19641982D01*
X-30586076Y19817239D01*
X-30607494Y19962653D01*
X-30635792Y20073524D01*
X-30654701Y20119336D01*
X-30745633Y20253501D01*
X-30872501Y20372426D01*
X-30974466Y20437363D01*
X-29330500Y20437363D01*
X-29161829Y20616807D01*
X-29078080Y20707732D01*
X-28989887Y20806477D01*
X-28910249Y20898358D01*
X-28871683Y20944451D01*
X-28766169Y21079920D01*
X-28676688Y21208318D01*
X-28607384Y21323087D01*
X-28562405Y21417669D01*
X-28551497Y21450792D01*
X-28530328Y21520048D01*
X-28507437Y21580862D01*
X-28503300Y21590000D01*
X-28489536Y21638200D01*
X-28485841Y21692816D01*
X-28491745Y21738322D01*
X-28506780Y21759193D01*
X-28508419Y21759334D01*
X-28539301Y21745169D01*
X-28592902Y21706717D01*
X-28662428Y21650040D01*
X-28741085Y21581198D01*
X-28822079Y21506253D01*
X-28898615Y21431268D01*
X-28963900Y21362304D01*
X-28997761Y21322738D01*
X-29113064Y21167496D01*
X-29197688Y21022913D01*
X-29256783Y20877106D01*
X-29295501Y20718189D01*
X-29312923Y20595640D01*
X-29330500Y20437363D01*
X-30974466Y20437363D01*
X-31030744Y20473203D01*
X-31215801Y20552929D01*
X-31422697Y20608616D01*
X-31509767Y20627318D01*
X-31582241Y20645630D01*
X-31629080Y20660645D01*
X-31638875Y20665568D01*
X-31644955Y20678979D01*
X-31650099Y20711406D01*
X-31654373Y20765621D01*
X-31657839Y20844399D01*
X-31660562Y20950513D01*
X-31662606Y21086738D01*
X-31664034Y21255848D01*
X-31664911Y21460615D01*
X-31665300Y21703815D01*
X-31665319Y21766825D01*
X-3012435Y21766825D01*
X-2999723Y21615194D01*
X-2985591Y21514221D01*
X-2958435Y21419379D01*
X-2914244Y21322244D01*
X-2849005Y21214391D01*
X-2758706Y21087396D01*
X-2730665Y21050250D01*
X-2674868Y20979746D01*
X-2606202Y20897124D01*
X-2529921Y20808230D01*
X-2451276Y20718909D01*
X-2375519Y20635007D01*
X-2307903Y20562369D01*
X-2253680Y20506842D01*
X-2218102Y20474270D01*
X-2207667Y20468167D01*
X-2204167Y20487528D01*
X-2205004Y20538883D01*
X-2209926Y20612143D01*
X-2211720Y20632209D01*
X-2225197Y20730459D01*
X-2245663Y20829406D01*
X-2268306Y20906471D01*
X-2334951Y21046847D01*
X-2431281Y21198227D01*
X-2549782Y21351402D01*
X-2682943Y21497161D01*
X-2823251Y21626298D01*
X-2910975Y21694288D01*
X-3012435Y21766825D01*
X-31665319Y21766825D01*
X-31665334Y21814098D01*
X-31665328Y21837881D01*
X-28342167Y21837881D01*
X-28338007Y21822965D01*
X-28336178Y21824598D01*
X-28320370Y21846650D01*
X-28299136Y21875750D01*
X-28293963Y21883231D01*
X-3227336Y21883231D01*
X-3201821Y21843348D01*
X-3190280Y21828125D01*
X-3166282Y21803813D01*
X-3149442Y21813264D01*
X-3144681Y21820519D01*
X-3152083Y21843684D01*
X-3185950Y21874018D01*
X-3188372Y21875631D01*
X-3222859Y21893829D01*
X-3227336Y21883231D01*
X-28293963Y21883231D01*
X-28279227Y21904537D01*
X-28286596Y21903168D01*
X-28305125Y21889034D01*
X-28334843Y21856779D01*
X-28342167Y21837881D01*
X-31665328Y21837881D01*
X-31665264Y22062053D01*
X-31664982Y22271062D01*
X-31664378Y22444510D01*
X-31663341Y22585783D01*
X-31661761Y22698268D01*
X-31659529Y22785351D01*
X-31656534Y22850418D01*
X-31652666Y22896855D01*
X-31647816Y22928049D01*
X-31641873Y22947386D01*
X-31634727Y22958252D01*
X-31627990Y22963163D01*
X-31584099Y22979900D01*
X-31503978Y23003627D01*
X-31392932Y23033160D01*
X-31256270Y23067318D01*
X-31099297Y23104916D01*
X-30927320Y23144772D01*
X-30745646Y23185704D01*
X-30559582Y23226529D01*
X-30374434Y23266064D01*
X-30195508Y23303126D01*
X-30028112Y23336532D01*
X-29877551Y23365100D01*
X-29749134Y23387647D01*
X-29665084Y23400671D01*
X-29599015Y23411841D01*
X-29549361Y23423555D01*
X-29535218Y23428842D01*
X-29535441Y23452195D01*
X-29560144Y23507241D01*
X-29608277Y23591904D01*
X-29658498Y23672611D01*
X-29996179Y24215683D01*
X-30323907Y24771697D01*
X-30639138Y25335547D01*
X-30939329Y25902123D01*
X-31221938Y26466319D01*
X-31484421Y27023026D01*
X-31724236Y27567135D01*
X-31938840Y28093540D01*
X-32125690Y28597131D01*
X-32161495Y28700475D01*
X-32344374Y29273381D01*
X-32496548Y29831816D01*
X-32617974Y30374472D01*
X-32708608Y30900042D01*
X-32768408Y31407222D01*
X-32797330Y31894702D01*
X-32796562Y32073918D01*
X-32671008Y32073918D01*
X-32669968Y31871704D01*
X-32665817Y31677737D01*
X-32658495Y31500433D01*
X-32647947Y31348205D01*
X-32642667Y31294917D01*
X-32565934Y30744575D01*
X-32455672Y30179466D01*
X-32311619Y29598950D01*
X-32133514Y29002386D01*
X-31921094Y28389136D01*
X-31674097Y27758559D01*
X-31392263Y27110015D01*
X-31075328Y26442866D01*
X-30723031Y25756470D01*
X-30335111Y25050189D01*
X-29911305Y24323382D01*
X-29542428Y23720612D01*
X-29477084Y23616562D01*
X-29429325Y23543392D01*
X-29394529Y23495943D01*
X-29368075Y23469053D01*
X-29345341Y23457563D01*
X-29321704Y23456312D01*
X-29307238Y23458035D01*
X-29268883Y23463089D01*
X-29194915Y23472527D01*
X-29091734Y23485544D01*
X-28965742Y23501334D01*
X-28823339Y23519092D01*
X-28691417Y23535475D01*
X-28539941Y23554303D01*
X-28399302Y23571882D01*
X-28275908Y23587405D01*
X-28176162Y23600062D01*
X-28106469Y23609045D01*
X-28075315Y23613237D01*
X-28053500Y23617508D01*
X-28034817Y23626605D01*
X-28016715Y23645508D01*
X-28015968Y23646762D01*
X-27823650Y23646762D01*
X-27823632Y23646743D01*
X-27800232Y23644878D01*
X-27741899Y23646099D01*
X-27655900Y23650089D01*
X-27549497Y23656533D01*
X-27469377Y23662142D01*
X-27318129Y23672682D01*
X-27143719Y23683882D01*
X-26965282Y23694566D01*
X-26801949Y23703558D01*
X-26764040Y23705488D01*
X-26402995Y23723473D01*
X-26097290Y23928459D01*
X-25627272Y24223179D01*
X-25156629Y24477591D01*
X-24686232Y24691349D01*
X-24216953Y24864102D01*
X-23749666Y24995504D01*
X-23285243Y25085204D01*
X-23156889Y25102670D01*
X-23020424Y25114682D01*
X-22854173Y25121753D01*
X-22670378Y25123988D01*
X-22481286Y25121494D01*
X-22299139Y25114376D01*
X-22136183Y25102741D01*
X-22048383Y25093073D01*
X-21642724Y25019952D01*
X-21248915Y24908159D01*
X-20865317Y24756972D01*
X-20490291Y24565668D01*
X-20122198Y24333525D01*
X-19827211Y24114431D01*
X-19659937Y23972901D01*
X-19477771Y23803280D01*
X-19288153Y23613441D01*
X-19098522Y23411258D01*
X-18916318Y23204602D01*
X-18748982Y23001348D01*
X-18637250Y22855246D01*
X-18616712Y22833157D01*
X-18585701Y22812187D01*
X-18538421Y22790021D01*
X-18469073Y22764345D01*
X-18371860Y22732845D01*
X-18240982Y22693206D01*
X-18203334Y22682052D01*
X-18057949Y22638066D01*
X-17886518Y22584529D01*
X-17702950Y22525887D01*
X-17521151Y22466586D01*
X-17355029Y22411071D01*
X-17346084Y22408032D01*
X-17210561Y22362638D01*
X-17085868Y22322171D01*
X-16978432Y22288613D01*
X-16894681Y22263946D01*
X-16841039Y22250153D01*
X-16826922Y22247925D01*
X-16787285Y22250349D01*
X-16714942Y22258208D01*
X-16619010Y22270390D01*
X-16508609Y22285779D01*
X-16467089Y22291888D01*
X-16089663Y22331297D01*
X-15694798Y22340709D01*
X-15294916Y22320134D01*
X-15038917Y22290787D01*
X-14679084Y22240156D01*
X-14202834Y22400774D01*
X-14036118Y22456213D01*
X-13852654Y22515896D01*
X-13666247Y22575419D01*
X-13490698Y22630380D01*
X-13339811Y22676375D01*
X-13325149Y22680746D01*
X-13175316Y22726292D01*
X-13062092Y22763195D01*
X-12981034Y22793149D01*
X-12927701Y22817846D01*
X-12897650Y22838981D01*
X-12891757Y22845926D01*
X-12819894Y22943016D01*
X-12725341Y23061995D01*
X-12615161Y23194635D01*
X-12496413Y23332710D01*
X-12376161Y23467991D01*
X-12261466Y23592253D01*
X-12170834Y23685857D01*
X-11823093Y24008704D01*
X-11465286Y24290522D01*
X-11097092Y24531479D01*
X-10718191Y24731743D01*
X-10328261Y24891481D01*
X-9926982Y25010862D01*
X-9514033Y25090053D01*
X-9474494Y25095451D01*
X-9319295Y25110337D01*
X-9135260Y25118983D01*
X-8933221Y25121630D01*
X-8724010Y25118518D01*
X-8518458Y25109887D01*
X-8327397Y25095978D01*
X-8161660Y25077032D01*
X-8085667Y25064634D01*
X-7662130Y24971125D01*
X-7250142Y24850477D01*
X-6844650Y24700519D01*
X-6440598Y24519082D01*
X-6032932Y24303995D01*
X-5616596Y24053088D01*
X-5402148Y23912550D01*
X-5121046Y23723621D01*
X-4714231Y23703376D01*
X-4557016Y23694971D01*
X-4385954Y23684852D01*
X-4216534Y23673997D01*
X-4064240Y23663385D01*
X-3984625Y23657309D01*
X-3873364Y23649265D01*
X-3778686Y23644052D01*
X-3707804Y23641937D01*
X-3667932Y23643186D01*
X-3661834Y23645386D01*
X-3669274Y23674129D01*
X-3690074Y23736066D01*
X-3721950Y23825052D01*
X-3762618Y23934943D01*
X-3809796Y24059596D01*
X-3861199Y24192866D01*
X-3914545Y24328610D01*
X-3932393Y24373417D01*
X-4227731Y25071105D01*
X-4542593Y25734361D01*
X-4879351Y26367459D01*
X-5240380Y26974671D01*
X-5628050Y27560268D01*
X-5945628Y27998373D01*
X-6337297Y28491461D01*
X-6758473Y28970913D01*
X-7203061Y29430638D01*
X-7664967Y29864543D01*
X-8077931Y30215417D01*
X-7828531Y30215417D01*
X-7596946Y30015455D01*
X-7493339Y29922816D01*
X-7367785Y29805467D01*
X-7226859Y29669980D01*
X-7077136Y29522927D01*
X-6925190Y29370880D01*
X-6777597Y29220413D01*
X-6640930Y29078096D01*
X-6521766Y28950504D01*
X-6435955Y28854882D01*
X-6001582Y28329121D01*
X-5584534Y27768135D01*
X-5187352Y27176370D01*
X-4812576Y26558269D01*
X-4462749Y25918276D01*
X-4140412Y25260836D01*
X-3848106Y24590392D01*
X-3588372Y23911390D01*
X-3555313Y23817504D01*
X-3520187Y23722049D01*
X-3492286Y23660699D01*
X-3467857Y23626673D01*
X-3443145Y23613189D01*
X-3442122Y23612986D01*
X-3409764Y23608336D01*
X-3341337Y23599516D01*
X-3242818Y23587261D01*
X-3120186Y23572307D01*
X-2979419Y23555388D01*
X-2826496Y23537241D01*
X-2825750Y23537153D01*
X-2675088Y23519121D01*
X-2538663Y23502286D01*
X-2421990Y23487367D01*
X-2330578Y23475087D01*
X-2269941Y23466167D01*
X-2245590Y23461328D01*
X-2245431Y23461214D01*
X-2229223Y23454211D01*
X-2207559Y23463199D01*
X-2177867Y23491485D01*
X-2137572Y23542380D01*
X-2084102Y23619192D01*
X-2014881Y23725229D01*
X-1927337Y23863801D01*
X-1907108Y23896185D01*
X-1447240Y24654848D01*
X-1024788Y25396420D01*
X-639811Y26120753D01*
X-292367Y26827698D01*
X17484Y27517110D01*
X289685Y28188839D01*
X524175Y28842739D01*
X720898Y29478663D01*
X879794Y30096462D01*
X1000803Y30695990D01*
X1083869Y31277098D01*
X1102343Y31458233D01*
X1111248Y31592177D01*
X1116638Y31754643D01*
X1118702Y31936898D01*
X1117625Y32130207D01*
X1113595Y32325834D01*
X1106799Y32515045D01*
X1097424Y32689106D01*
X1085655Y32839281D01*
X1071681Y32956836D01*
X1070069Y32967084D01*
X1011050Y33271629D01*
X935445Y33564986D01*
X845460Y33841181D01*
X743301Y34094238D01*
X631176Y34318182D01*
X511290Y34507039D01*
X491674Y34533417D01*
X411100Y34639250D01*
X189675Y34645801D01*
X-110366Y34638544D01*
X-432536Y34599523D01*
X-777539Y34528539D01*
X-1146078Y34425388D01*
X-1538854Y34289869D01*
X-1956571Y34121781D01*
X-2399932Y33920921D01*
X-2497667Y33873924D01*
X-2923307Y33660900D01*
X-3332444Y33442568D01*
X-3731679Y33214825D01*
X-4127609Y32973571D01*
X-4526833Y32714705D01*
X-4935950Y32434124D01*
X-5361558Y32127730D01*
X-5636422Y31923145D01*
X-5783030Y31812400D01*
X-5943626Y31690423D01*
X-6114857Y31559811D01*
X-6293369Y31423162D01*
X-6475810Y31283072D01*
X-6658827Y31142138D01*
X-6839067Y31002959D01*
X-7013178Y30868130D01*
X-7177807Y30740249D01*
X-7329601Y30621914D01*
X-7465207Y30515721D01*
X-7581272Y30424267D01*
X-7674445Y30350150D01*
X-7741371Y30295966D01*
X-7778698Y30264314D01*
X-7782474Y30260761D01*
X-7828531Y30215417D01*
X-8077931Y30215417D01*
X-8138098Y30266537D01*
X-8477250Y30529060D01*
X-9048295Y30927634D01*
X-9642650Y31293401D01*
X-10257522Y31625355D01*
X-10890115Y31922490D01*
X-11537634Y32183802D01*
X-12197285Y32408284D01*
X-12866272Y32594930D01*
X-13541801Y32742735D01*
X-14221077Y32850693D01*
X-14901305Y32917798D01*
X-15155334Y32932191D01*
X-15696653Y32946671D01*
X-16212597Y32939529D01*
X-16714421Y32910366D01*
X-17208500Y32859395D01*
X-17909881Y32750533D01*
X-18603848Y32600849D01*
X-19288138Y32411343D01*
X-19960487Y32183014D01*
X-20618628Y31916862D01*
X-21260297Y31613888D01*
X-21883229Y31275091D01*
X-22485159Y30901471D01*
X-23063823Y30494029D01*
X-23616955Y30053764D01*
X-23674917Y30004424D01*
X-24195989Y29530488D01*
X-24694126Y29021510D01*
X-25168696Y28478432D01*
X-25619066Y27902194D01*
X-26044603Y27293736D01*
X-26444675Y26653999D01*
X-26818650Y25983925D01*
X-27165895Y25284453D01*
X-27485777Y24556524D01*
X-27694919Y24025644D01*
X-27738074Y23908969D01*
X-27774679Y23806399D01*
X-27802581Y23724278D01*
X-27819623Y23668952D01*
X-27823650Y23646762D01*
X-28015968Y23646762D01*
X-27996640Y23679195D01*
X-27972042Y23732644D01*
X-27940368Y23810835D01*
X-27899066Y23918747D01*
X-27845583Y24061358D01*
X-27845493Y24061601D01*
X-27543439Y24818450D01*
X-27214341Y25545786D01*
X-26858698Y26242756D01*
X-26477010Y26908509D01*
X-26069779Y27542193D01*
X-25637505Y28142957D01*
X-25180688Y28709949D01*
X-24974814Y28945417D01*
X-24858622Y29071828D01*
X-24721059Y29216252D01*
X-24569325Y29371540D01*
X-24410623Y29530542D01*
X-24252153Y29686111D01*
X-24101118Y29831097D01*
X-23964718Y29958352D01*
X-23859261Y30052825D01*
X-23783625Y30119134D01*
X-23720724Y30175143D01*
X-23676863Y30215178D01*
X-23658347Y30233560D01*
X-23658178Y30233855D01*
X-23673327Y30248866D01*
X-23719024Y30287174D01*
X-23792175Y30346381D01*
X-23889689Y30424084D01*
X-24008471Y30517884D01*
X-24145430Y30625380D01*
X-24297472Y30744170D01*
X-24461504Y30871856D01*
X-24634433Y31006035D01*
X-24813168Y31144307D01*
X-24994614Y31284272D01*
X-25175679Y31423529D01*
X-25353270Y31559678D01*
X-25524294Y31690317D01*
X-25685658Y31813047D01*
X-25834270Y31925467D01*
X-25939750Y32004756D01*
X-26286245Y32260891D01*
X-26609969Y32492674D01*
X-26918572Y32705194D01*
X-27219705Y32903539D01*
X-27521015Y33092798D01*
X-27830155Y33278059D01*
X-28014084Y33384554D01*
X-28499842Y33652259D01*
X-28970785Y33891105D01*
X-29424979Y34100284D01*
X-29860489Y34278991D01*
X-30275383Y34426418D01*
X-30667727Y34541757D01*
X-30939761Y34605432D01*
X-31093514Y34633291D01*
X-31258144Y34656459D01*
X-31423163Y34673998D01*
X-31578086Y34684969D01*
X-31712426Y34688431D01*
X-31813500Y34683690D01*
X-31885929Y34674640D01*
X-31933545Y34661432D01*
X-31970252Y34635782D01*
X-32009955Y34589409D01*
X-32041026Y34548155D01*
X-32174433Y34342769D01*
X-32296654Y34100939D01*
X-32405947Y33827488D01*
X-32500569Y33527240D01*
X-32578776Y33205017D01*
X-32631551Y32914167D01*
X-32645204Y32796943D01*
X-32656034Y32645891D01*
X-32663983Y32469426D01*
X-32668994Y32275963D01*
X-32671008Y32073918D01*
X-32796562Y32073918D01*
X-32795330Y32361178D01*
X-32762365Y32805342D01*
X-32698392Y33225888D01*
X-32603367Y33621509D01*
X-32477248Y33990898D01*
X-32346748Y34280940D01*
X-32294051Y34378255D01*
X-32233212Y34479712D01*
X-32169627Y34577429D01*
X-32108691Y34663527D01*
X-32055798Y34730126D01*
X-32016342Y34769346D01*
X-32009247Y34773931D01*
X-31970208Y34788497D01*
X-31897863Y34809901D01*
X-31800305Y34836159D01*
X-31685633Y34865284D01*
X-31561941Y34895290D01*
X-31437326Y34924193D01*
X-31319884Y34950006D01*
X-31217710Y34970743D01*
X-31174640Y34978630D01*
X-30628977Y35052457D01*
X-30069825Y35087025D01*
X-29499178Y35082474D01*
G37*
X-29499178Y35082474D02*
X-28919031Y35038942D01*
X-28331380Y34956570D01*
X-27738218Y34835497D01*
X-27230917Y34702183D01*
X-26618511Y34506697D01*
X-25997251Y34273236D01*
X-25371395Y34004078D01*
X-24745197Y33701499D01*
X-24122916Y33367778D01*
X-23508805Y33005191D01*
X-22907123Y32616017D01*
X-22322124Y32202532D01*
X-21782816Y31786956D01*
X-21584048Y31627132D01*
X-21253649Y31792130D01*
X-20597812Y32096214D01*
X-19927020Y32361200D01*
X-19243214Y32586572D01*
X-18548335Y32771814D01*
X-17844325Y32916411D01*
X-17133126Y33019847D01*
X-16416679Y33081607D01*
X-16393584Y33082895D01*
X-15692613Y33100242D01*
X-14989953Y33075919D01*
X-14287860Y33010403D01*
X-13588591Y32904172D01*
X-12894403Y32757704D01*
X-12207554Y32571477D01*
X-11530300Y32345970D01*
X-10864897Y32081660D01*
X-10213604Y31779025D01*
X-10195969Y31770193D01*
X-9861520Y31602367D01*
X-9656219Y31767691D01*
X-9179271Y32135406D01*
X-8669515Y32497876D01*
X-8136468Y32849007D01*
X-7589647Y33182709D01*
X-7038570Y33492891D01*
X-6623083Y33708990D01*
X-5986805Y34010095D01*
X-5357846Y34272441D01*
X-4736859Y34495921D01*
X-4124500Y34680430D01*
X-3521422Y34825861D01*
X-2928279Y34932109D01*
X-2345725Y34999067D01*
X-1774414Y35026630D01*
X-1215000Y35014692D01*
X-668137Y34963146D01*
X-134479Y34871887D01*
X147644Y34806142D01*
X276533Y34771853D01*
X372881Y34740686D01*
X445499Y34706697D01*
X503196Y34663943D01*
X554784Y34606482D01*
X609072Y34528371D01*
X646111Y34469913D01*
X805509Y34177600D01*
X939077Y33853893D01*
X1046528Y33501159D01*
X1127574Y33121763D01*
X1181928Y32718072D01*
X1209302Y32292453D01*
X1209409Y31847270D01*
X1181962Y31384891D01*
X1126671Y30907681D01*
X1100106Y30734000D01*
X996118Y30191327D01*
X857368Y29626892D01*
X684481Y29042163D01*
X478086Y28438608D01*
X238809Y27817696D01*
X-32722Y27180894D01*
X-335880Y26529672D01*
X-670039Y25865498D01*
X-1034571Y25189839D01*
X-1428849Y24504164D01*
X-1852245Y23809941D01*
X-1868145Y23784613D01*
X-1933849Y23679083D01*
X-1990378Y23586426D01*
X-2034357Y23512325D01*
X-2062416Y23462466D01*
X-2071183Y23442530D01*
X-2071141Y23442479D01*
X-2048932Y23436690D01*
X-1991701Y23425054D01*
X-1906153Y23408844D01*
X-1798997Y23389331D01*
X-1682750Y23368800D01*
X-1480692Y23332294D01*
X-1272416Y23292251D01*
X-1062671Y23249777D01*
X-856206Y23205977D01*
X-657771Y23161957D01*
X-472114Y23118822D01*
X-303986Y23077679D01*
X-158134Y23039631D01*
X-39308Y23005786D01*
X47743Y22977247D01*
X98269Y22955122D01*
X100541Y22953695D01*
X148166Y22922525D01*
X148166Y21820954D01*
X147733Y21541790D01*
X146445Y21300194D01*
X144315Y21096928D01*
X141359Y20932754D01*
X137592Y20808435D01*
X133026Y20724732D01*
X127679Y20682407D01*
X126255Y20678442D01*
X89019Y20645210D01*
X57463Y20637352D01*
X15579Y20632466D01*
X-54211Y20619614D01*
X-138789Y20601284D01*
X-163628Y20595438D01*
X-380236Y20527416D01*
X-564499Y20435345D01*
X-715166Y20320090D01*
X-830989Y20182520D01*
X-878745Y20098975D01*
X-902850Y20047005D01*
X-920111Y19999557D01*
X-932047Y19947434D01*
X-940175Y19881436D01*
X-946014Y19792366D01*
X-951083Y19671026D01*
X-951569Y19657769D01*
X-963084Y19341873D01*
X-633566Y19093161D01*
X-295167Y18844917D01*
X18312Y18629931D01*
X307622Y18447796D01*
X573509Y18298107D01*
X816724Y18180457D01*
X1038015Y18094440D01*
X1238130Y18039649D01*
X1339928Y18022616D01*
X1441607Y18009899D01*
X1363552Y17921408D01*
X1331295Y17886364D01*
X1273289Y17824947D01*
X1193323Y17741106D01*
X1095187Y17638793D01*
X982671Y17521958D01*
X859565Y17394550D01*
X729659Y17260521D01*
X715334Y17245766D01*
X564980Y17090406D01*
X442291Y16962330D01*
X344955Y16858931D01*
X270658Y16777601D01*
X217091Y16715731D01*
X181939Y16670715D01*
X162892Y16639945D01*
X157638Y16620812D01*
X158247Y16617416D01*
X186014Y16572632D01*
X242554Y16511644D01*
X320701Y16440616D01*
X413286Y16365713D01*
X513143Y16293099D01*
X602699Y16235166D01*
X764347Y16143742D01*
X952047Y16047851D01*
X1155139Y15952183D01*
X1362963Y15861430D01*
X1564859Y15780285D01*
X1750168Y15713439D01*
X1878541Y15673625D01*
X1946214Y15651849D01*
X1993908Y15631097D01*
X2010833Y15616613D01*
X1998937Y15581646D01*
X1966255Y15519860D01*
X1917300Y15438379D01*
X1856581Y15344327D01*
X1788610Y15244830D01*
X1717898Y15147010D01*
X1690872Y15111272D01*
X1606400Y15008120D01*
X1496640Y14884587D01*
X1368551Y14747715D01*
X1229095Y14604548D01*
X1085231Y14462128D01*
X943919Y14327500D01*
X812121Y14207706D01*
X719666Y14128489D01*
X235606Y13752088D01*
X-287267Y13391152D01*
X-848252Y13045949D01*
X-1446650Y12716746D01*
X-2081763Y12403812D01*
X-2752889Y12107415D01*
X-3459330Y11827823D01*
X-4200387Y11565304D01*
X-4975359Y11320125D01*
X-5783547Y11092556D01*
X-6624253Y10882864D01*
X-7496775Y10691318D01*
X-8400415Y10518184D01*
X-8942917Y10425590D01*
X-9099621Y10400013D01*
X-9245590Y10376185D01*
X-9374749Y10355099D01*
X-9481023Y10337745D01*
X-9558337Y10325117D01*
X-9600614Y10318207D01*
X-9602867Y10317838D01*
X-9622997Y10313146D01*
X-9631691Y10305167D01*
X-9625440Y10290919D01*
X-9600735Y10267418D01*
X-9554067Y10231680D01*
X-9481927Y10180722D01*
X-9380807Y10111561D01*
X-9280172Y10043474D01*
X-8554406Y9535415D01*
X-7866863Y9016864D01*
X-7214131Y8484978D01*
X-6592796Y7936916D01*
X-5999446Y7369836D01*
X-5684900Y7049956D01*
X-5432550Y6787645D01*
X-4975817Y6875814D01*
X-4853285Y6898922D01*
X-4696408Y6927647D01*
X-4512605Y6960678D01*
X-4309292Y6996703D01*
X-4093888Y7034410D01*
X-3873811Y7072489D01*
X-3656477Y7109626D01*
X-3587750Y7121261D01*
X-3244371Y7179835D01*
X-2939393Y7233227D01*
X-2669306Y7282229D01*
X-2430603Y7327631D01*
X-2219775Y7370223D01*
X-2033311Y7410797D01*
X-1983183Y7422707D01*
X-1506507Y7422707D01*
X-1238538Y7333136D01*
X-834349Y7175856D01*
X-446632Y6980240D01*
X-77076Y6747622D01*
X272629Y6479335D01*
X600794Y6176712D01*
X905729Y5841086D01*
X1185744Y5473792D01*
X1264327Y5358097D01*
X1385216Y5175250D01*
X1400869Y5281084D01*
X1409425Y5343485D01*
X1421218Y5435637D01*
X1434707Y5545230D01*
X1448350Y5659952D01*
X1448635Y5662401D01*
X1460627Y5776941D01*
X1473566Y5920256D01*
X1486349Y6078837D01*
X1497872Y6239176D01*
X1505043Y6352774D01*
X1513219Y6496041D01*
X1518452Y6604481D01*
X1520458Y6685514D01*
X1518954Y6746562D01*
X1513658Y6795046D01*
X1504286Y6838389D01*
X1490557Y6884011D01*
X1484046Y6903766D01*
X1378805Y7162024D01*
X1241300Y7406663D01*
X1076409Y7631133D01*
X889011Y7828882D01*
X683986Y7993361D01*
X660921Y8008907D01*
X527959Y8087532D01*
X376489Y8162025D01*
X222287Y8225429D01*
X81128Y8270787D01*
X49403Y8278564D01*
X-59943Y8303274D01*
X-217293Y8160763D01*
X-481715Y7944881D01*
X-768366Y7754149D01*
X-1067666Y7594361D01*
X-1340629Y7481549D01*
X-1506507Y7422707D01*
X-1983183Y7422707D01*
X-1867705Y7450143D01*
X-1719445Y7489052D01*
X-1585025Y7528314D01*
X-1460934Y7568720D01*
X-1343664Y7611062D01*
X-1248834Y7648307D01*
X-928581Y7801166D01*
X-624633Y7992443D01*
X-338029Y8221073D01*
X-69808Y8485987D01*
X178991Y8786120D01*
X407330Y9120406D01*
X614170Y9487778D01*
X686887Y9635771D01*
X795851Y9880577D01*
X892932Y10127198D01*
X972571Y10361087D01*
X1001139Y10457957D01*
X1047750Y10625346D01*
X1147042Y10625507D01*
X1207969Y10622166D01*
X1248963Y10613517D01*
X1257193Y10608098D01*
X1264672Y10580759D01*
X1277427Y10517202D01*
X1294552Y10423084D01*
X1315138Y10304066D01*
X1338276Y10165808D01*
X1363059Y10013968D01*
X1388578Y9854206D01*
X1413926Y9692182D01*
X1438195Y9533556D01*
X1460475Y9383987D01*
X1479860Y9249134D01*
X1495442Y9134658D01*
X1502296Y9080500D01*
X1574375Y8387263D01*
X1619223Y7717572D01*
X1636857Y7072975D01*
X1627293Y6455020D01*
X1590547Y5865254D01*
X1526637Y5305225D01*
X1457837Y4889500D01*
X1329279Y4315793D01*
X1166116Y3766380D01*
X968409Y3241355D01*
X736220Y2740813D01*
X469611Y2264849D01*
X168642Y1813558D01*
X-166623Y1387034D01*
X-536123Y985371D01*
X-939796Y608665D01*
X-1377581Y257009D01*
X-1725084Y11888D01*
X-1830069Y-56292D01*
X-1962348Y-139303D01*
X-2112294Y-231269D01*
X-2270275Y-326318D01*
X-2426662Y-418574D01*
X-2508250Y-465849D01*
X-2967310Y-736990D01*
X-3392098Y-1003099D01*
X-3789551Y-1268822D01*
X-4166611Y-1538806D01*
X-4530216Y-1817700D01*
X-4548027Y-1831850D01*
X-4826000Y-2053047D01*
X-4825902Y-2333565D01*
X-4825523Y-2387883D01*
X-4824439Y-2481862D01*
X-4822691Y-2612838D01*
X-4820322Y-2778145D01*
X-4817375Y-2975119D01*
X-4813891Y-3201093D01*
X-4809914Y-3453404D01*
X-4805484Y-3729386D01*
X-4800645Y-4026373D01*
X-4795440Y-4341701D01*
X-4789909Y-4672705D01*
X-4784096Y-5016719D01*
X-4778043Y-5371079D01*
X-4773207Y-5651500D01*
X-4765351Y-6114063D01*
X-4758384Y-6542796D01*
X-4752313Y-6936942D01*
X-4747148Y-7295742D01*
X-4742896Y-7618440D01*
X-4739565Y-7904280D01*
X-4737162Y-8152502D01*
X-4735697Y-8362351D01*
X-4735176Y-8533070D01*
X-4735609Y-8663900D01*
X-4737002Y-8754085D01*
X-4739364Y-8802867D01*
X-4739997Y-8807866D01*
X-4798348Y-9047527D01*
X-4890592Y-9264273D01*
X-5014930Y-9455863D01*
X-5169563Y-9620058D01*
X-5352693Y-9754617D01*
X-5562521Y-9857300D01*
X-5591417Y-9868101D01*
X-5725584Y-9916583D01*
X-11652250Y-9916583D01*
X-11804129Y-9868828D01*
X-11949208Y-9809230D01*
X-12098324Y-9723765D01*
X-12237248Y-9621957D01*
X-12351752Y-9513330D01*
X-12373877Y-9487476D01*
X-12454497Y-9380121D01*
X-12519385Y-9272357D01*
X-12571444Y-9156187D01*
X-12613577Y-9023617D01*
X-12648688Y-8866652D01*
X-12679680Y-8677297D01*
X-12686927Y-8625416D01*
X-12750910Y-8294532D01*
X-12849284Y-7988130D01*
X-12981652Y-7706569D01*
X-13147621Y-7450207D01*
X-13346794Y-7219402D01*
X-13578776Y-7014511D01*
X-13843170Y-6835892D01*
X-14139583Y-6683903D01*
X-14467618Y-6558902D01*
X-14826880Y-6461246D01*
X-15144750Y-6401786D01*
X-15304157Y-6383500D01*
X-15491695Y-6371716D01*
X-15694863Y-6366441D01*
X-15901157Y-6367679D01*
X-16098077Y-6375434D01*
X-16273118Y-6389712D01*
X-16361834Y-6401317D01*
X-16743051Y-6476371D01*
X-17091915Y-6577712D01*
X-17409740Y-6705960D01*
X-17697840Y-6861737D01*
X-17957530Y-7045665D01*
X-18190123Y-7258365D01*
X-18203884Y-7272727D01*
X-18390624Y-7497039D01*
X-18545007Y-7743884D01*
X-18667983Y-8015400D01*
X-18760498Y-8313727D01*
X-18823501Y-8641002D01*
X-18829265Y-8683409D01*
X-18846231Y-8798036D01*
X-18866584Y-8911772D01*
X-18887503Y-9009866D01*
X-18902629Y-9066782D01*
X-18984808Y-9262372D01*
X-19103035Y-9443548D01*
X-19251753Y-9603727D01*
X-19425408Y-9736325D01*
X-19507930Y-9784049D01*
X-19544541Y-9803670D01*
X-19577465Y-9821408D01*
X-19608898Y-9837356D01*
X-19641041Y-9851610D01*
X-19676090Y-9864262D01*
X-19716245Y-9875405D01*
X-19763704Y-9885135D01*
X-19820666Y-9893543D01*
X-19889329Y-9900725D01*
X-19971891Y-9906773D01*
X-20070552Y-9911781D01*
X-20187509Y-9915843D01*
X-20324961Y-9919053D01*
X-20485107Y-9921505D01*
X-20670145Y-9923291D01*
X-20882274Y-9924505D01*
X-21123691Y-9925242D01*
X-21396597Y-9925595D01*
X-21703188Y-9925657D01*
X-22045664Y-9925523D01*
X-22426223Y-9925285D01*
X-22817667Y-9925053D01*
X-23249862Y-9924744D01*
X-23641440Y-9924272D01*
X-23994120Y-9923621D01*
X-24309617Y-9922775D01*
X-24589650Y-9921719D01*
X-24835935Y-9920437D01*
X-25050189Y-9918912D01*
X-25234130Y-9917130D01*
X-25389474Y-9915074D01*
X-25517938Y-9912728D01*
X-25621240Y-9910077D01*
X-25701097Y-9907105D01*
X-25759225Y-9903795D01*
X-25797342Y-9900133D01*
X-25812750Y-9897422D01*
X-26023599Y-9824157D01*
X-26215758Y-9714994D01*
X-26385643Y-9573582D01*
X-26529672Y-9403569D01*
X-26644258Y-9208604D01*
X-26725820Y-8992334D01*
X-26734886Y-8958667D01*
X-26741575Y-8932103D01*
X-26747646Y-8905827D01*
X-26753091Y-8877890D01*
X-26757905Y-8846341D01*
X-26762082Y-8809232D01*
X-26765614Y-8764612D01*
X-26768496Y-8710532D01*
X-26770721Y-8645043D01*
X-26772284Y-8566193D01*
X-26773178Y-8472034D01*
X-26773396Y-8360615D01*
X-26772934Y-8229988D01*
X-26771783Y-8078202D01*
X-26769938Y-7903308D01*
X-26767393Y-7703355D01*
X-26764142Y-7476395D01*
X-26760178Y-7220477D01*
X-26755495Y-6933651D01*
X-26750087Y-6613968D01*
X-26743947Y-6259479D01*
X-26737070Y-5868233D01*
X-26729449Y-5438280D01*
X-26722322Y-5037636D01*
X-26668811Y-2030818D01*
X-26887511Y-1791309D01*
X-27216667Y-1408432D01*
X-27504439Y-1025676D01*
X-27751743Y-641450D01*
X-27959494Y-254165D01*
X-28128607Y137770D01*
X-28259998Y535944D01*
X-28288590Y642627D01*
X-28376356Y1071597D01*
X-28422550Y1507382D01*
X-28426336Y1860283D01*
X-28275325Y1860283D01*
X-28273902Y1608418D01*
X-28261103Y1374748D01*
X-28248556Y1254985D01*
X-28173825Y827509D01*
X-28059694Y410186D01*
X-27905671Y1952D01*
X-27711268Y-398261D01*
X-27475992Y-791518D01*
X-27199352Y-1178885D01*
X-27032238Y-1386416D01*
X-26958795Y-1476595D01*
X-26896111Y-1558303D01*
X-26848980Y-1624912D01*
X-26822195Y-1669796D01*
X-26817876Y-1682750D01*
X-26803391Y-1718789D01*
X-26766867Y-1773394D01*
X-26716055Y-1835048D01*
X-26713409Y-1837966D01*
X-26658887Y-1895585D01*
X-26624514Y-1924602D01*
X-26603690Y-1929229D01*
X-26591071Y-1916004D01*
X-26572246Y-1892577D01*
X-26551336Y-1905762D01*
X-26544748Y-1913478D01*
X-26541248Y-1924724D01*
X-26538329Y-1950489D01*
X-26536007Y-1992488D01*
X-26534298Y-2052442D01*
X-26533218Y-2132069D01*
X-26532784Y-2233086D01*
X-26533010Y-2357213D01*
X-26533914Y-2506167D01*
X-26535511Y-2681667D01*
X-26537817Y-2885431D01*
X-26540849Y-3119178D01*
X-26544622Y-3384626D01*
X-26549152Y-3683493D01*
X-26554456Y-4017498D01*
X-26560549Y-4388359D01*
X-26567448Y-4797795D01*
X-26575169Y-5247523D01*
X-26576669Y-5334146D01*
X-26584352Y-5778257D01*
X-26591288Y-6182058D01*
X-26597491Y-6547565D01*
X-26602972Y-6876796D01*
X-26607745Y-7171767D01*
X-26611823Y-7434495D01*
X-26615218Y-7666995D01*
X-26617943Y-7871286D01*
X-26620010Y-8049383D01*
X-26621433Y-8203303D01*
X-26622225Y-8335063D01*
X-26622397Y-8446679D01*
X-26621963Y-8540168D01*
X-26620936Y-8617547D01*
X-26619328Y-8680832D01*
X-26617153Y-8732040D01*
X-26614422Y-8773187D01*
X-26611148Y-8806290D01*
X-26607346Y-8833367D01*
X-26603026Y-8856432D01*
X-26599079Y-8873886D01*
X-26530351Y-9079726D01*
X-26429450Y-9267270D01*
X-26300584Y-9432058D01*
X-26147957Y-9569630D01*
X-25975776Y-9675528D01*
X-25788245Y-9745290D01*
X-25773902Y-9748887D01*
X-25737297Y-9752640D01*
X-25661402Y-9756161D01*
X-25549262Y-9759448D01*
X-25403920Y-9762495D01*
X-25228419Y-9765301D01*
X-25025802Y-9767861D01*
X-24799114Y-9770172D01*
X-24551397Y-9772230D01*
X-24285695Y-9774032D01*
X-24005051Y-9775574D01*
X-23712510Y-9776853D01*
X-23411114Y-9777865D01*
X-23103906Y-9778606D01*
X-22793931Y-9779073D01*
X-22484232Y-9779263D01*
X-22177853Y-9779171D01*
X-21877836Y-9778795D01*
X-21587225Y-9778130D01*
X-21309064Y-9777174D01*
X-21046396Y-9775922D01*
X-20802265Y-9774371D01*
X-20579714Y-9772518D01*
X-20381786Y-9770358D01*
X-20211525Y-9767889D01*
X-20071975Y-9765107D01*
X-19966179Y-9762009D01*
X-19897181Y-9758590D01*
X-19871251Y-9755780D01*
X-19680536Y-9695886D01*
X-19502555Y-9600567D01*
X-19343171Y-9475193D01*
X-19208243Y-9325131D01*
X-19103633Y-9155751D01*
X-19041554Y-8995833D01*
X-19024935Y-8925805D01*
X-19006217Y-8828191D01*
X-18988020Y-8717477D01*
X-18976478Y-8636000D01*
X-18913026Y-8290032D01*
X-18816385Y-7970319D01*
X-18686393Y-7676633D01*
X-18522886Y-7408745D01*
X-18325702Y-7166426D01*
X-18094678Y-6949448D01*
X-17829652Y-6757581D01*
X-17530460Y-6590598D01*
X-17515417Y-6583292D01*
X-17186983Y-6446611D01*
X-16834333Y-6340453D01*
X-16463210Y-6265433D01*
X-16079360Y-6222167D01*
X-15688527Y-6211270D01*
X-15296454Y-6233356D01*
X-14908886Y-6289041D01*
X-14859000Y-6298807D01*
X-14524889Y-6381635D01*
X-14205228Y-6491213D01*
X-13907944Y-6624396D01*
X-13640966Y-6778039D01*
X-13625819Y-6788015D01*
X-13503570Y-6878388D01*
X-13370366Y-6992276D01*
X-13236794Y-7119380D01*
X-13113441Y-7249401D01*
X-13010895Y-7372043D01*
X-12975149Y-7420935D01*
X-12818032Y-7683703D01*
X-12690864Y-7972174D01*
X-12596095Y-8279862D01*
X-12539883Y-8572500D01*
X-12524288Y-8680204D01*
X-12507750Y-8786394D01*
X-12492784Y-8875226D01*
X-12486091Y-8911166D01*
X-12429160Y-9094077D01*
X-12335900Y-9266225D01*
X-12211998Y-9422035D01*
X-12063140Y-9555931D01*
X-11895012Y-9662339D01*
X-11713300Y-9735683D01*
X-11622903Y-9757511D01*
X-11583040Y-9760920D01*
X-11501549Y-9764052D01*
X-11379136Y-9766902D01*
X-11216505Y-9769463D01*
X-11014363Y-9771732D01*
X-10773413Y-9773704D01*
X-10494361Y-9775372D01*
X-10177912Y-9776732D01*
X-9824771Y-9777779D01*
X-9435643Y-9778507D01*
X-9011233Y-9778911D01*
X-8679892Y-9779000D01*
X-8270771Y-9778954D01*
X-7901837Y-9778803D01*
X-7570946Y-9778522D01*
X-7275951Y-9778089D01*
X-7014707Y-9777478D01*
X-6785068Y-9776667D01*
X-6584889Y-9775633D01*
X-6412023Y-9774351D01*
X-6264327Y-9772798D01*
X-6139653Y-9770951D01*
X-6035857Y-9768786D01*
X-5950792Y-9766280D01*
X-5882313Y-9763409D01*
X-5828275Y-9760149D01*
X-5786532Y-9756477D01*
X-5754938Y-9752369D01*
X-5731347Y-9747802D01*
X-5726463Y-9746589D01*
X-5530139Y-9674278D01*
X-5353171Y-9566693D01*
X-5198958Y-9427769D01*
X-5070898Y-9261441D01*
X-4972388Y-9071647D01*
X-4906826Y-8862320D01*
X-4891397Y-8779383D01*
X-4888649Y-8738813D01*
X-4886877Y-8659365D01*
X-4886086Y-8540745D01*
X-4886278Y-8382658D01*
X-4887458Y-8184810D01*
X-4889628Y-7946905D01*
X-4892791Y-7668651D01*
X-4896951Y-7349751D01*
X-4902112Y-6989913D01*
X-4908275Y-6588840D01*
X-4915445Y-6146239D01*
X-4923625Y-5661814D01*
X-4929873Y-5302250D01*
X-4937591Y-4862002D01*
X-4944563Y-4462115D01*
X-4950798Y-4100621D01*
X-4956310Y-3775553D01*
X-4961110Y-3484946D01*
X-4965208Y-3226831D01*
X-4968616Y-2999243D01*
X-4971347Y-2800215D01*
X-4973411Y-2627780D01*
X-4974819Y-2479972D01*
X-4975584Y-2354823D01*
X-4975717Y-2250367D01*
X-4975229Y-2164638D01*
X-4974131Y-2095669D01*
X-4972436Y-2041493D01*
X-4970154Y-2000143D01*
X-4967298Y-1969653D01*
X-4963878Y-1948057D01*
X-4959906Y-1933386D01*
X-4955394Y-1923676D01*
X-4950353Y-1916958D01*
X-4949630Y-1916171D01*
X-4921368Y-1887912D01*
X-4911715Y-1890662D01*
X-4910667Y-1915448D01*
X-4904022Y-1930007D01*
X-4881164Y-1920244D01*
X-4837704Y-1883374D01*
X-4794269Y-1841517D01*
X-4729139Y-1772278D01*
X-4695314Y-1723112D01*
X-4689680Y-1689444D01*
X-4690041Y-1688216D01*
X-4684792Y-1652334D01*
X-4650059Y-1597538D01*
X-4591419Y-1528725D01*
X-4584165Y-1520194D01*
X-4368747Y-1520194D01*
X-4359149Y-1518483D01*
X-4321213Y-1494912D01*
X-4260377Y-1453144D01*
X-4182080Y-1396840D01*
X-4145543Y-1369921D01*
X-4027919Y-1284315D01*
X-3892733Y-1188477D01*
X-3757918Y-1095002D01*
X-3656542Y-1026502D01*
X-3567247Y-966315D01*
X-3492165Y-914044D01*
X-3437633Y-874229D01*
X-3409986Y-851411D01*
X-3407834Y-848270D01*
X-3424432Y-832565D01*
X-3467525Y-801853D01*
X-3527058Y-762487D01*
X-3592979Y-720822D01*
X-3655233Y-683214D01*
X-3703767Y-656016D01*
X-3728499Y-645583D01*
X-3744402Y-662263D01*
X-3779158Y-708245D01*
X-3828387Y-777441D01*
X-3887711Y-863762D01*
X-3921166Y-913500D01*
X-3996403Y-1023810D01*
X-4076170Y-1136811D01*
X-4151894Y-1240595D01*
X-4215002Y-1323250D01*
X-4225870Y-1336834D01*
X-4282715Y-1407763D01*
X-4330211Y-1468309D01*
X-4361397Y-1509537D01*
X-4368747Y-1520194D01*
X-4584165Y-1520194D01*
X-4383550Y-1284272D01*
X-4181145Y-1013454D01*
X-3989646Y-725228D01*
X-3814497Y-428549D01*
X-3661141Y-132373D01*
X-3535022Y154344D01*
X-3482146Y296334D01*
X-3382737Y611163D01*
X-3310205Y909594D01*
X-3262167Y1205822D01*
X-3236240Y1514040D01*
X-3229809Y1799167D01*
X-3247699Y2214627D01*
X-3300994Y2627439D01*
X-3390574Y3040960D01*
X-3517320Y3458550D01*
X-3682112Y3883567D01*
X-3885831Y4319369D01*
X-3895866Y4339167D01*
X-4146796Y4795144D01*
X-4437989Y5256360D01*
X-4767919Y5721281D01*
X-5135062Y6188372D01*
X-5177531Y6237683D01*
X-4945374Y6237683D01*
X-4939782Y6216072D01*
X-4912312Y6172635D01*
X-4874179Y6123306D01*
X-4788433Y6016003D01*
X-4686660Y5882121D01*
X-4575500Y5730835D01*
X-4461594Y5571321D01*
X-4351583Y5412753D01*
X-4252107Y5264305D01*
X-4248759Y5259193D01*
X-4000061Y4856318D01*
X-3775551Y4446050D01*
X-3580259Y4038017D01*
X-3459598Y3748545D01*
X-3398597Y3591839D01*
X-3249757Y3527552D01*
X-3013439Y3417773D01*
X-2761796Y3287167D01*
X-2507072Y3142835D01*
X-2261512Y2991883D01*
X-2037360Y2841412D01*
X-1922941Y2757881D01*
X-1632841Y2522001D01*
X-1356492Y2265400D01*
X-1100126Y1994839D01*
X-869976Y1717079D01*
X-672277Y1438882D01*
X-599818Y1322527D01*
X-560468Y1257168D01*
X-530495Y1208774D01*
X-515466Y1186304D01*
X-514782Y1185704D01*
X-500329Y1200602D01*
X-463343Y1241711D01*
X-408983Y1303221D01*
X-342409Y1379323D01*
X-322423Y1402292D01*
X-32376Y1757522D01*
X228512Y2123851D01*
X468026Y2512736D01*
X616112Y2783371D01*
X765532Y3068944D01*
X586168Y3307181D01*
X252670Y3715131D01*
X-113336Y4096964D01*
X-510365Y4451793D01*
X-936935Y4778731D01*
X-1391560Y5076891D01*
X-1872756Y5345388D01*
X-2379038Y5583334D01*
X-2908922Y5789842D01*
X-3460924Y5964027D01*
X-4033559Y6105002D01*
X-4132276Y6125484D01*
X-4257618Y6149489D01*
X-4389847Y6172552D01*
X-4522120Y6193728D01*
X-4647592Y6212073D01*
X-4759420Y6226644D01*
X-4850759Y6236494D01*
X-4914766Y6240681D01*
X-4944597Y6238259D01*
X-4945374Y6237683D01*
X-5177531Y6237683D01*
X-5537893Y6656098D01*
X-5974886Y7122925D01*
X-6444517Y7587318D01*
X-6945261Y8047743D01*
X-7475592Y8502664D01*
X-8033985Y8950548D01*
X-8618917Y9389859D01*
X-9228860Y9819063D01*
X-9565284Y10044243D01*
X-9912485Y10272599D01*
X-10348451Y10215991D01*
X-11226585Y10110300D01*
X-12121640Y10019251D01*
X-13039182Y9942388D01*
X-13984776Y9879255D01*
X-14963988Y9829396D01*
X-15178701Y9820396D01*
X-15355368Y9814203D01*
X-15529078Y9810225D01*
X-15704775Y9808580D01*
X-15887405Y9809387D01*
X-16081914Y9812764D01*
X-16293249Y9818831D01*
X-16526354Y9827705D01*
X-16786175Y9839507D01*
X-17077659Y9854354D01*
X-17405750Y9872365D01*
X-17451917Y9874977D01*
X-18007781Y9909761D01*
X-18578567Y9951624D01*
X-19153583Y9999602D01*
X-19722133Y10052732D01*
X-20273524Y10110048D01*
X-20797063Y10170587D01*
X-20971777Y10192363D01*
X-21124388Y10211646D01*
X-21263924Y10229037D01*
X-21384673Y10243843D01*
X-21480923Y10255371D01*
X-21546962Y10262929D01*
X-21577078Y10265824D01*
X-21577632Y10265834D01*
X-21604825Y10254196D01*
X-21662158Y10221287D01*
X-21745087Y10170108D01*
X-21849070Y10103664D01*
X-21969565Y10024958D01*
X-22102029Y9936994D01*
X-22241920Y9842775D01*
X-22384695Y9745306D01*
X-22525813Y9647589D01*
X-22660731Y9552628D01*
X-22717314Y9512238D01*
X-23386098Y9015520D01*
X-24017200Y8511430D01*
X-24615124Y7996100D01*
X-25184376Y7465662D01*
X-25674688Y6973426D01*
X-26103834Y6507359D01*
X-26496349Y6039941D01*
X-26851641Y5572195D01*
X-27169117Y5105146D01*
X-27448185Y4639818D01*
X-27688251Y4177236D01*
X-27888724Y3718424D01*
X-28049011Y3264407D01*
X-28168518Y2816209D01*
X-28214953Y2582334D01*
X-28245489Y2361512D01*
X-28265733Y2116072D01*
X-28275325Y1860283D01*
X-28426336Y1860283D01*
X-28427293Y1949460D01*
X-28390704Y2397306D01*
X-28312904Y2850396D01*
X-28194013Y3308207D01*
X-28034151Y3770215D01*
X-27833439Y4235897D01*
X-27591997Y4704727D01*
X-27309945Y5176184D01*
X-27213862Y5323417D01*
X-26869693Y5810797D01*
X-26484939Y6300155D01*
X-26061203Y6789973D01*
X-25600088Y7278731D01*
X-25103197Y7764911D01*
X-24572134Y8246993D01*
X-24008502Y8723458D01*
X-23413904Y9192787D01*
X-22789943Y9653461D01*
X-22243093Y10033441D01*
X-22114734Y10120391D01*
X-22018063Y10186708D01*
X-21949617Y10235350D01*
X-21905936Y10269276D01*
X-21883556Y10291444D01*
X-21879017Y10304813D01*
X-21888855Y10312341D01*
X-21909610Y10316988D01*
X-21911030Y10317224D01*
X-21949966Y10323608D01*
X-22024566Y10335806D01*
X-22128713Y10352819D01*
X-22256290Y10373648D01*
X-22401180Y10397294D01*
X-22557264Y10422758D01*
X-22574250Y10425528D01*
X-23478529Y10584591D01*
X-24354585Y10762055D01*
X-25201478Y10957566D01*
X-26018269Y11170771D01*
X-26804018Y11401316D01*
X-27557785Y11648848D01*
X-28278631Y11913013D01*
X-28965615Y12193458D01*
X-29617799Y12489829D01*
X-30234242Y12801772D01*
X-30814004Y13128934D01*
X-31356147Y13470961D01*
X-31859730Y13827500D01*
X-32090291Y14005932D01*
X-32218133Y14112308D01*
X-32361176Y14238882D01*
X-32513019Y14379349D01*
X-32667261Y14527406D01*
X-32817500Y14676747D01*
X-32957334Y14821067D01*
X-33080362Y14954062D01*
X-33180182Y15069425D01*
X-33217699Y15116331D01*
X-33285456Y15207638D01*
X-33352903Y15304639D01*
X-33415384Y15399923D01*
X-33468241Y15486076D01*
X-33506819Y15555685D01*
X-33526461Y15601336D01*
X-33528000Y15610344D01*
X-33509081Y15625103D01*
X-33457721Y15648668D01*
X-33382024Y15677658D01*
X-33300517Y15705353D01*
X-33078449Y15782392D01*
X-32857858Y15869326D01*
X-32643238Y15963653D01*
X-32439078Y16062870D01*
X-32249871Y16164475D01*
X-32080107Y16265965D01*
X-31934278Y16364836D01*
X-31816875Y16458586D01*
X-31732389Y16544712D01*
X-31694644Y16600252D01*
X-31663943Y16658754D01*
X-32278104Y17288169D01*
X-32411209Y17424875D01*
X-32535871Y17553475D01*
X-32648801Y17670533D01*
X-32746706Y17772612D01*
X-32826295Y17856276D01*
X-32884278Y17918089D01*
X-32917363Y17954612D01*
X-32923176Y17961773D01*
X-32935268Y17981749D01*
X-32934304Y17996442D01*
X-32913958Y18008799D01*
X-32867901Y18021769D01*
X-32789806Y18038300D01*
X-32736037Y18048967D01*
X-32564020Y18093530D01*
X-32375615Y18163033D01*
X-32169055Y18258469D01*
X-31942575Y18380836D01*
X-31831377Y18448179D01*
X-25419231Y18448179D01*
X-25408153Y18143584D01*
X-25360361Y17846538D01*
X-25277727Y17559843D01*
X-25162121Y17286305D01*
X-25015413Y17028727D01*
X-24839474Y16789914D01*
X-24636174Y16572668D01*
X-24407384Y16379794D01*
X-24154975Y16214096D01*
X-23880816Y16078379D01*
X-23586778Y15975445D01*
X-23274733Y15908099D01*
X-23209250Y15899011D01*
X-23056596Y15883423D01*
X-22920155Y15878837D01*
X-22779094Y15885175D01*
X-22658917Y15896914D01*
X-22336432Y15954263D01*
X-22027510Y16051105D01*
X-21734964Y16186142D01*
X-21461604Y16358073D01*
X-21210244Y16565600D01*
X-21208827Y16566932D01*
X-20985161Y16805340D01*
X-20797403Y17064570D01*
X-20646383Y17341742D01*
X-20532934Y17633975D01*
X-20457887Y17938389D01*
X-20422072Y18252104D01*
X-20424039Y18400329D01*
X-11107769Y18400329D01*
X-11094923Y18150352D01*
X-11040830Y17824593D01*
X-10948293Y17516547D01*
X-10817277Y17226142D01*
X-10647746Y16953302D01*
X-10439666Y16697952D01*
X-10384812Y16640108D01*
X-10143797Y16422412D01*
X-9881367Y16240117D01*
X-9600793Y16094252D01*
X-9305341Y15985850D01*
X-8998282Y15915940D01*
X-8682883Y15885553D01*
X-8362413Y15895719D01*
X-8129167Y15928955D01*
X-7856102Y15999351D01*
X-7581545Y16105536D01*
X-7316578Y16242876D01*
X-7193829Y16319991D01*
X-7092518Y16396767D01*
X-6975999Y16499688D01*
X-6852798Y16619846D01*
X-6731442Y16748332D01*
X-6620458Y16876238D01*
X-6528373Y16994656D01*
X-6481636Y17064025D01*
X-6329045Y17349912D01*
X-6215402Y17648439D01*
X-6140987Y17955942D01*
X-6106078Y18268758D01*
X-6110956Y18583226D01*
X-6155900Y18895681D01*
X-6241191Y19202461D01*
X-6305720Y19368188D01*
X-6450840Y19653715D01*
X-6627404Y19913919D01*
X-6832164Y20147126D01*
X-7061872Y20351664D01*
X-7313283Y20525862D01*
X-7583148Y20668046D01*
X-7868219Y20776545D01*
X-8165250Y20849686D01*
X-8470994Y20885796D01*
X-8782202Y20883204D01*
X-9095628Y20840236D01*
X-9144000Y20829899D01*
X-9447734Y20741146D01*
X-9733040Y20616884D01*
X-9997714Y20460142D01*
X-10239552Y20273948D01*
X-10456348Y20061331D01*
X-10645897Y19825318D01*
X-10805995Y19568940D01*
X-10934436Y19295223D01*
X-11029015Y19007196D01*
X-11087528Y18707889D01*
X-11107769Y18400329D01*
X-20424039Y18400329D01*
X-20426322Y18572239D01*
X-20471468Y18895916D01*
X-20484249Y18951979D01*
X-16752033Y18951979D01*
X-16751787Y18915138D01*
X-16745209Y18880073D01*
X-16741141Y18864792D01*
X-16723393Y18810598D01*
X-16707751Y18778805D01*
X-16703041Y18775278D01*
X-16678109Y18781070D01*
X-16622651Y18796170D01*
X-16546716Y18817808D01*
X-16510601Y18828336D01*
X-16355047Y18870015D01*
X-16192805Y18906557D01*
X-16035014Y18935932D01*
X-15892811Y18956112D01*
X-15777333Y18965068D01*
X-15758584Y18965334D01*
X-15649727Y18958844D01*
X-15511937Y18940728D01*
X-15356351Y18913015D01*
X-15194107Y18877732D01*
X-15036342Y18836910D01*
X-15006567Y18828336D01*
X-14925048Y18804761D01*
X-14859816Y18786538D01*
X-14820878Y18776436D01*
X-14814726Y18775278D01*
X-14801458Y18793162D01*
X-14783488Y18838403D01*
X-14777548Y18857119D01*
X-14769438Y18889732D01*
X-14766880Y18922952D01*
X-14771403Y18963758D01*
X-14784537Y19019125D01*
X-14807810Y19096033D01*
X-14842752Y19201458D01*
X-14871474Y19285744D01*
X-14914584Y19408245D01*
X-14957608Y19524470D01*
X-14996961Y19625155D01*
X-15029057Y19701034D01*
X-15044584Y19733135D01*
X-15135997Y19863382D01*
X-15255722Y19975228D01*
X-15395530Y20064568D01*
X-15547192Y20127297D01*
X-15702482Y20159311D01*
X-15853170Y20156505D01*
X-15882758Y20151254D01*
X-16062581Y20095003D01*
X-16223723Y20006905D01*
X-16360178Y19891383D01*
X-16465937Y19752856D01*
X-16493632Y19701717D01*
X-16521060Y19639461D01*
X-16557631Y19547612D01*
X-16599290Y19436796D01*
X-16641979Y19317641D01*
X-16658567Y19269636D01*
X-16699212Y19149422D01*
X-16727300Y19061493D01*
X-16744389Y18998221D01*
X-16752033Y18951979D01*
X-20484249Y18951979D01*
X-20500192Y19021907D01*
X-20544507Y19164878D01*
X-20607868Y19326415D01*
X-20684129Y19493592D01*
X-20767145Y19653482D01*
X-20850772Y19793161D01*
X-20900970Y19864917D01*
X-21117548Y20117759D01*
X-21355888Y20335759D01*
X-21612979Y20518405D01*
X-21885810Y20665183D01*
X-22171371Y20775579D01*
X-22466652Y20849081D01*
X-22768640Y20885174D01*
X-23074327Y20883347D01*
X-23380700Y20843085D01*
X-23684749Y20763876D01*
X-23983464Y20645205D01*
X-24273833Y20486560D01*
X-24331084Y20449697D01*
X-24437830Y20370111D01*
X-24558629Y20265422D01*
X-24683645Y20145475D01*
X-24803041Y20020115D01*
X-24906982Y19899189D01*
X-24981760Y19798422D01*
X-25082553Y19631158D01*
X-25177742Y19444679D01*
X-25259679Y19255302D01*
X-25320715Y19079347D01*
X-25323767Y19068797D01*
X-25391726Y18757518D01*
X-25419231Y18448179D01*
X-31831377Y18448179D01*
X-31694409Y18531128D01*
X-31422790Y18710342D01*
X-31125955Y18919472D01*
X-30909063Y19079081D01*
X-30565543Y19335750D01*
X-30566327Y19441584D01*
X-30572149Y19641982D01*
X-30586076Y19817239D01*
X-30607494Y19962653D01*
X-30635792Y20073524D01*
X-30654701Y20119336D01*
X-30745633Y20253501D01*
X-30872501Y20372426D01*
X-30974466Y20437363D01*
X-29330500Y20437363D01*
X-29161829Y20616807D01*
X-29078080Y20707732D01*
X-28989887Y20806477D01*
X-28910249Y20898358D01*
X-28871683Y20944451D01*
X-28766169Y21079920D01*
X-28676688Y21208318D01*
X-28607384Y21323087D01*
X-28562405Y21417669D01*
X-28551497Y21450792D01*
X-28530328Y21520048D01*
X-28507437Y21580862D01*
X-28503300Y21590000D01*
X-28489536Y21638200D01*
X-28485841Y21692816D01*
X-28491745Y21738322D01*
X-28506780Y21759193D01*
X-28508419Y21759334D01*
X-28539301Y21745169D01*
X-28592902Y21706717D01*
X-28662428Y21650040D01*
X-28741085Y21581198D01*
X-28822079Y21506253D01*
X-28898615Y21431268D01*
X-28963900Y21362304D01*
X-28997761Y21322738D01*
X-29113064Y21167496D01*
X-29197688Y21022913D01*
X-29256783Y20877106D01*
X-29295501Y20718189D01*
X-29312923Y20595640D01*
X-29330500Y20437363D01*
X-30974466Y20437363D01*
X-31030744Y20473203D01*
X-31215801Y20552929D01*
X-31422697Y20608616D01*
X-31509767Y20627318D01*
X-31582241Y20645630D01*
X-31629080Y20660645D01*
X-31638875Y20665568D01*
X-31644955Y20678979D01*
X-31650099Y20711406D01*
X-31654373Y20765621D01*
X-31657839Y20844399D01*
X-31660562Y20950513D01*
X-31662606Y21086738D01*
X-31664034Y21255848D01*
X-31664911Y21460615D01*
X-31665300Y21703815D01*
X-31665319Y21766825D01*
X-3012435Y21766825D01*
X-2999723Y21615194D01*
X-2985591Y21514221D01*
X-2958435Y21419379D01*
X-2914244Y21322244D01*
X-2849005Y21214391D01*
X-2758706Y21087396D01*
X-2730665Y21050250D01*
X-2674868Y20979746D01*
X-2606202Y20897124D01*
X-2529921Y20808230D01*
X-2451276Y20718909D01*
X-2375519Y20635007D01*
X-2307903Y20562369D01*
X-2253680Y20506842D01*
X-2218102Y20474270D01*
X-2207667Y20468167D01*
X-2204167Y20487528D01*
X-2205004Y20538883D01*
X-2209926Y20612143D01*
X-2211720Y20632209D01*
X-2225197Y20730459D01*
X-2245663Y20829406D01*
X-2268306Y20906471D01*
X-2334951Y21046847D01*
X-2431281Y21198227D01*
X-2549782Y21351402D01*
X-2682943Y21497161D01*
X-2823251Y21626298D01*
X-2910975Y21694288D01*
X-3012435Y21766825D01*
X-31665319Y21766825D01*
X-31665334Y21814098D01*
X-31665328Y21837881D01*
X-28342167Y21837881D01*
X-28338007Y21822965D01*
X-28336178Y21824598D01*
X-28320370Y21846650D01*
X-28299136Y21875750D01*
X-28293963Y21883231D01*
X-3227336Y21883231D01*
X-3201821Y21843348D01*
X-3190280Y21828125D01*
X-3166282Y21803813D01*
X-3149442Y21813264D01*
X-3144681Y21820519D01*
X-3152083Y21843684D01*
X-3185950Y21874018D01*
X-3188372Y21875631D01*
X-3222859Y21893829D01*
X-3227336Y21883231D01*
X-28293963Y21883231D01*
X-28279227Y21904537D01*
X-28286596Y21903168D01*
X-28305125Y21889034D01*
X-28334843Y21856779D01*
X-28342167Y21837881D01*
X-31665328Y21837881D01*
X-31665264Y22062053D01*
X-31664982Y22271062D01*
X-31664378Y22444510D01*
X-31663341Y22585783D01*
X-31661761Y22698268D01*
X-31659529Y22785351D01*
X-31656534Y22850418D01*
X-31652666Y22896855D01*
X-31647816Y22928049D01*
X-31641873Y22947386D01*
X-31634727Y22958252D01*
X-31627990Y22963163D01*
X-31584099Y22979900D01*
X-31503978Y23003627D01*
X-31392932Y23033160D01*
X-31256270Y23067318D01*
X-31099297Y23104916D01*
X-30927320Y23144772D01*
X-30745646Y23185704D01*
X-30559582Y23226529D01*
X-30374434Y23266064D01*
X-30195508Y23303126D01*
X-30028112Y23336532D01*
X-29877551Y23365100D01*
X-29749134Y23387647D01*
X-29665084Y23400671D01*
X-29599015Y23411841D01*
X-29549361Y23423555D01*
X-29535218Y23428842D01*
X-29535441Y23452195D01*
X-29560144Y23507241D01*
X-29608277Y23591904D01*
X-29658498Y23672611D01*
X-29996179Y24215683D01*
X-30323907Y24771697D01*
X-30639138Y25335547D01*
X-30939329Y25902123D01*
X-31221938Y26466319D01*
X-31484421Y27023026D01*
X-31724236Y27567135D01*
X-31938840Y28093540D01*
X-32125690Y28597131D01*
X-32161495Y28700475D01*
X-32344374Y29273381D01*
X-32496548Y29831816D01*
X-32617974Y30374472D01*
X-32708608Y30900042D01*
X-32768408Y31407222D01*
X-32797330Y31894702D01*
X-32796562Y32073918D01*
X-32671008Y32073918D01*
X-32669968Y31871704D01*
X-32665817Y31677737D01*
X-32658495Y31500433D01*
X-32647947Y31348205D01*
X-32642667Y31294917D01*
X-32565934Y30744575D01*
X-32455672Y30179466D01*
X-32311619Y29598950D01*
X-32133514Y29002386D01*
X-31921094Y28389136D01*
X-31674097Y27758559D01*
X-31392263Y27110015D01*
X-31075328Y26442866D01*
X-30723031Y25756470D01*
X-30335111Y25050189D01*
X-29911305Y24323382D01*
X-29542428Y23720612D01*
X-29477084Y23616562D01*
X-29429325Y23543392D01*
X-29394529Y23495943D01*
X-29368075Y23469053D01*
X-29345341Y23457563D01*
X-29321704Y23456312D01*
X-29307238Y23458035D01*
X-29268883Y23463089D01*
X-29194915Y23472527D01*
X-29091734Y23485544D01*
X-28965742Y23501334D01*
X-28823339Y23519092D01*
X-28691417Y23535475D01*
X-28539941Y23554303D01*
X-28399302Y23571882D01*
X-28275908Y23587405D01*
X-28176162Y23600062D01*
X-28106469Y23609045D01*
X-28075315Y23613237D01*
X-28053500Y23617508D01*
X-28034817Y23626605D01*
X-28016715Y23645508D01*
X-28015968Y23646762D01*
X-27823650Y23646762D01*
X-27823632Y23646743D01*
X-27800232Y23644878D01*
X-27741899Y23646099D01*
X-27655900Y23650089D01*
X-27549497Y23656533D01*
X-27469377Y23662142D01*
X-27318129Y23672682D01*
X-27143719Y23683882D01*
X-26965282Y23694566D01*
X-26801949Y23703558D01*
X-26764040Y23705488D01*
X-26402995Y23723473D01*
X-26097290Y23928459D01*
X-25627272Y24223179D01*
X-25156629Y24477591D01*
X-24686232Y24691349D01*
X-24216953Y24864102D01*
X-23749666Y24995504D01*
X-23285243Y25085204D01*
X-23156889Y25102670D01*
X-23020424Y25114682D01*
X-22854173Y25121753D01*
X-22670378Y25123988D01*
X-22481286Y25121494D01*
X-22299139Y25114376D01*
X-22136183Y25102741D01*
X-22048383Y25093073D01*
X-21642724Y25019952D01*
X-21248915Y24908159D01*
X-20865317Y24756972D01*
X-20490291Y24565668D01*
X-20122198Y24333525D01*
X-19827211Y24114431D01*
X-19659937Y23972901D01*
X-19477771Y23803280D01*
X-19288153Y23613441D01*
X-19098522Y23411258D01*
X-18916318Y23204602D01*
X-18748982Y23001348D01*
X-18637250Y22855246D01*
X-18616712Y22833157D01*
X-18585701Y22812187D01*
X-18538421Y22790021D01*
X-18469073Y22764345D01*
X-18371860Y22732845D01*
X-18240982Y22693206D01*
X-18203334Y22682052D01*
X-18057949Y22638066D01*
X-17886518Y22584529D01*
X-17702950Y22525887D01*
X-17521151Y22466586D01*
X-17355029Y22411071D01*
X-17346084Y22408032D01*
X-17210561Y22362638D01*
X-17085868Y22322171D01*
X-16978432Y22288613D01*
X-16894681Y22263946D01*
X-16841039Y22250153D01*
X-16826922Y22247925D01*
X-16787285Y22250349D01*
X-16714942Y22258208D01*
X-16619010Y22270390D01*
X-16508609Y22285779D01*
X-16467089Y22291888D01*
X-16089663Y22331297D01*
X-15694798Y22340709D01*
X-15294916Y22320134D01*
X-15038917Y22290787D01*
X-14679084Y22240156D01*
X-14202834Y22400774D01*
X-14036118Y22456213D01*
X-13852654Y22515896D01*
X-13666247Y22575419D01*
X-13490698Y22630380D01*
X-13339811Y22676375D01*
X-13325149Y22680746D01*
X-13175316Y22726292D01*
X-13062092Y22763195D01*
X-12981034Y22793149D01*
X-12927701Y22817846D01*
X-12897650Y22838981D01*
X-12891757Y22845926D01*
X-12819894Y22943016D01*
X-12725341Y23061995D01*
X-12615161Y23194635D01*
X-12496413Y23332710D01*
X-12376161Y23467991D01*
X-12261466Y23592253D01*
X-12170834Y23685857D01*
X-11823093Y24008704D01*
X-11465286Y24290522D01*
X-11097092Y24531479D01*
X-10718191Y24731743D01*
X-10328261Y24891481D01*
X-9926982Y25010862D01*
X-9514033Y25090053D01*
X-9474494Y25095451D01*
X-9319295Y25110337D01*
X-9135260Y25118983D01*
X-8933221Y25121630D01*
X-8724010Y25118518D01*
X-8518458Y25109887D01*
X-8327397Y25095978D01*
X-8161660Y25077032D01*
X-8085667Y25064634D01*
X-7662130Y24971125D01*
X-7250142Y24850477D01*
X-6844650Y24700519D01*
X-6440598Y24519082D01*
X-6032932Y24303995D01*
X-5616596Y24053088D01*
X-5402148Y23912550D01*
X-5121046Y23723621D01*
X-4714231Y23703376D01*
X-4557016Y23694971D01*
X-4385954Y23684852D01*
X-4216534Y23673997D01*
X-4064240Y23663385D01*
X-3984625Y23657309D01*
X-3873364Y23649265D01*
X-3778686Y23644052D01*
X-3707804Y23641937D01*
X-3667932Y23643186D01*
X-3661834Y23645386D01*
X-3669274Y23674129D01*
X-3690074Y23736066D01*
X-3721950Y23825052D01*
X-3762618Y23934943D01*
X-3809796Y24059596D01*
X-3861199Y24192866D01*
X-3914545Y24328610D01*
X-3932393Y24373417D01*
X-4227731Y25071105D01*
X-4542593Y25734361D01*
X-4879351Y26367459D01*
X-5240380Y26974671D01*
X-5628050Y27560268D01*
X-5945628Y27998373D01*
X-6337297Y28491461D01*
X-6758473Y28970913D01*
X-7203061Y29430638D01*
X-7664967Y29864543D01*
X-8077931Y30215417D01*
X-7828531Y30215417D01*
X-7596946Y30015455D01*
X-7493339Y29922816D01*
X-7367785Y29805467D01*
X-7226859Y29669980D01*
X-7077136Y29522927D01*
X-6925190Y29370880D01*
X-6777597Y29220413D01*
X-6640930Y29078096D01*
X-6521766Y28950504D01*
X-6435955Y28854882D01*
X-6001582Y28329121D01*
X-5584534Y27768135D01*
X-5187352Y27176370D01*
X-4812576Y26558269D01*
X-4462749Y25918276D01*
X-4140412Y25260836D01*
X-3848106Y24590392D01*
X-3588372Y23911390D01*
X-3555313Y23817504D01*
X-3520187Y23722049D01*
X-3492286Y23660699D01*
X-3467857Y23626673D01*
X-3443145Y23613189D01*
X-3442122Y23612986D01*
X-3409764Y23608336D01*
X-3341337Y23599516D01*
X-3242818Y23587261D01*
X-3120186Y23572307D01*
X-2979419Y23555388D01*
X-2826496Y23537241D01*
X-2825750Y23537153D01*
X-2675088Y23519121D01*
X-2538663Y23502286D01*
X-2421990Y23487367D01*
X-2330578Y23475087D01*
X-2269941Y23466167D01*
X-2245590Y23461328D01*
X-2245431Y23461214D01*
X-2229223Y23454211D01*
X-2207559Y23463199D01*
X-2177867Y23491485D01*
X-2137572Y23542380D01*
X-2084102Y23619192D01*
X-2014881Y23725229D01*
X-1927337Y23863801D01*
X-1907108Y23896185D01*
X-1447240Y24654848D01*
X-1024788Y25396420D01*
X-639811Y26120753D01*
X-292367Y26827698D01*
X17484Y27517110D01*
X289685Y28188839D01*
X524175Y28842739D01*
X720898Y29478663D01*
X879794Y30096462D01*
X1000803Y30695990D01*
X1083869Y31277098D01*
X1102343Y31458233D01*
X1111248Y31592177D01*
X1116638Y31754643D01*
X1118702Y31936898D01*
X1117625Y32130207D01*
X1113595Y32325834D01*
X1106799Y32515045D01*
X1097424Y32689106D01*
X1085655Y32839281D01*
X1071681Y32956836D01*
X1070069Y32967084D01*
X1011050Y33271629D01*
X935445Y33564986D01*
X845460Y33841181D01*
X743301Y34094238D01*
X631176Y34318182D01*
X511290Y34507039D01*
X491674Y34533417D01*
X411100Y34639250D01*
X189675Y34645801D01*
X-110366Y34638544D01*
X-432536Y34599523D01*
X-777539Y34528539D01*
X-1146078Y34425388D01*
X-1538854Y34289869D01*
X-1956571Y34121781D01*
X-2399932Y33920921D01*
X-2497667Y33873924D01*
X-2923307Y33660900D01*
X-3332444Y33442568D01*
X-3731679Y33214825D01*
X-4127609Y32973571D01*
X-4526833Y32714705D01*
X-4935950Y32434124D01*
X-5361558Y32127730D01*
X-5636422Y31923145D01*
X-5783030Y31812400D01*
X-5943626Y31690423D01*
X-6114857Y31559811D01*
X-6293369Y31423162D01*
X-6475810Y31283072D01*
X-6658827Y31142138D01*
X-6839067Y31002959D01*
X-7013178Y30868130D01*
X-7177807Y30740249D01*
X-7329601Y30621914D01*
X-7465207Y30515721D01*
X-7581272Y30424267D01*
X-7674445Y30350150D01*
X-7741371Y30295966D01*
X-7778698Y30264314D01*
X-7782474Y30260761D01*
X-7828531Y30215417D01*
X-8077931Y30215417D01*
X-8138098Y30266537D01*
X-8477250Y30529060D01*
X-9048295Y30927634D01*
X-9642650Y31293401D01*
X-10257522Y31625355D01*
X-10890115Y31922490D01*
X-11537634Y32183802D01*
X-12197285Y32408284D01*
X-12866272Y32594930D01*
X-13541801Y32742735D01*
X-14221077Y32850693D01*
X-14901305Y32917798D01*
X-15155334Y32932191D01*
X-15696653Y32946671D01*
X-16212597Y32939529D01*
X-16714421Y32910366D01*
X-17208500Y32859395D01*
X-17909881Y32750533D01*
X-18603848Y32600849D01*
X-19288138Y32411343D01*
X-19960487Y32183014D01*
X-20618628Y31916862D01*
X-21260297Y31613888D01*
X-21883229Y31275091D01*
X-22485159Y30901471D01*
X-23063823Y30494029D01*
X-23616955Y30053764D01*
X-23674917Y30004424D01*
X-24195989Y29530488D01*
X-24694126Y29021510D01*
X-25168696Y28478432D01*
X-25619066Y27902194D01*
X-26044603Y27293736D01*
X-26444675Y26653999D01*
X-26818650Y25983925D01*
X-27165895Y25284453D01*
X-27485777Y24556524D01*
X-27694919Y24025644D01*
X-27738074Y23908969D01*
X-27774679Y23806399D01*
X-27802581Y23724278D01*
X-27819623Y23668952D01*
X-27823650Y23646762D01*
X-28015968Y23646762D01*
X-27996640Y23679195D01*
X-27972042Y23732644D01*
X-27940368Y23810835D01*
X-27899066Y23918747D01*
X-27845583Y24061358D01*
X-27845493Y24061601D01*
X-27543439Y24818450D01*
X-27214341Y25545786D01*
X-26858698Y26242756D01*
X-26477010Y26908509D01*
X-26069779Y27542193D01*
X-25637505Y28142957D01*
X-25180688Y28709949D01*
X-24974814Y28945417D01*
X-24858622Y29071828D01*
X-24721059Y29216252D01*
X-24569325Y29371540D01*
X-24410623Y29530542D01*
X-24252153Y29686111D01*
X-24101118Y29831097D01*
X-23964718Y29958352D01*
X-23859261Y30052825D01*
X-23783625Y30119134D01*
X-23720724Y30175143D01*
X-23676863Y30215178D01*
X-23658347Y30233560D01*
X-23658178Y30233855D01*
X-23673327Y30248866D01*
X-23719024Y30287174D01*
X-23792175Y30346381D01*
X-23889689Y30424084D01*
X-24008471Y30517884D01*
X-24145430Y30625380D01*
X-24297472Y30744170D01*
X-24461504Y30871856D01*
X-24634433Y31006035D01*
X-24813168Y31144307D01*
X-24994614Y31284272D01*
X-25175679Y31423529D01*
X-25353270Y31559678D01*
X-25524294Y31690317D01*
X-25685658Y31813047D01*
X-25834270Y31925467D01*
X-25939750Y32004756D01*
X-26286245Y32260891D01*
X-26609969Y32492674D01*
X-26918572Y32705194D01*
X-27219705Y32903539D01*
X-27521015Y33092798D01*
X-27830155Y33278059D01*
X-28014084Y33384554D01*
X-28499842Y33652259D01*
X-28970785Y33891105D01*
X-29424979Y34100284D01*
X-29860489Y34278991D01*
X-30275383Y34426418D01*
X-30667727Y34541757D01*
X-30939761Y34605432D01*
X-31093514Y34633291D01*
X-31258144Y34656459D01*
X-31423163Y34673998D01*
X-31578086Y34684969D01*
X-31712426Y34688431D01*
X-31813500Y34683690D01*
X-31885929Y34674640D01*
X-31933545Y34661432D01*
X-31970252Y34635782D01*
X-32009955Y34589409D01*
X-32041026Y34548155D01*
X-32174433Y34342769D01*
X-32296654Y34100939D01*
X-32405947Y33827488D01*
X-32500569Y33527240D01*
X-32578776Y33205017D01*
X-32631551Y32914167D01*
X-32645204Y32796943D01*
X-32656034Y32645891D01*
X-32663983Y32469426D01*
X-32668994Y32275963D01*
X-32671008Y32073918D01*
X-32796562Y32073918D01*
X-32795330Y32361178D01*
X-32762365Y32805342D01*
X-32698392Y33225888D01*
X-32603367Y33621509D01*
X-32477248Y33990898D01*
X-32346748Y34280940D01*
X-32294051Y34378255D01*
X-32233212Y34479712D01*
X-32169627Y34577429D01*
X-32108691Y34663527D01*
X-32055798Y34730126D01*
X-32016342Y34769346D01*
X-32009247Y34773931D01*
X-31970208Y34788497D01*
X-31897863Y34809901D01*
X-31800305Y34836159D01*
X-31685633Y34865284D01*
X-31561941Y34895290D01*
X-31437326Y34924193D01*
X-31319884Y34950006D01*
X-31217710Y34970743D01*
X-31174640Y34978630D01*
X-30628977Y35052457D01*
X-30069825Y35087025D01*
X-29499178Y35082474D01*
%TD*%
D11*
%TO.P,,1*%
%TO.N,N/C*%
X-1800667Y31248424D03*
%TD*%
M02*
