%TF.GenerationSoftware,KiCad,Pcbnew,(5.1.7)-1*%
%TF.CreationDate,2020-09-28T14:59:45+02:00*%
%TF.ProjectId,oscar_pcb_svg2shenzen,6f736361-725f-4706-9362-5f7376673273,rev?*%
%TF.SameCoordinates,Original*%
%TF.FileFunction,Copper,L1,Top*%
%TF.FilePolarity,Positive*%
%FSLAX46Y46*%
G04 Gerber Fmt 4.6, Leading zero omitted, Abs format (unit mm)*
G04 Created by KiCad (PCBNEW (5.1.7)-1) date 2020-09-28 14:59:45*
%MOMM*%
%LPD*%
G01*
G04 APERTURE LIST*
%TA.AperFunction,EtchedComponent*%
%ADD10C,0.010000*%
%TD*%
%TA.AperFunction,ComponentPad*%
%ADD11C,3.719199*%
%TD*%
G04 APERTURE END LIST*
D10*
%TO.C,G\u002A\u002A\u002A*%
G36*
X32976885Y-23352552D02*
G01*
X33541963Y-23411543D01*
X34116240Y-23506649D01*
X34697838Y-23637713D01*
X35284877Y-23804580D01*
X35875478Y-24007092D01*
X36066372Y-24079969D01*
X36680300Y-24337115D01*
X37300949Y-24629783D01*
X37920850Y-24953607D01*
X38532535Y-25304224D01*
X39128537Y-25677271D01*
X39701386Y-26068383D01*
X40243615Y-26473197D01*
X40465973Y-26650780D01*
X40641197Y-26793712D01*
X41090390Y-26575171D01*
X41750869Y-26276762D01*
X42422604Y-26018384D01*
X43104075Y-25800262D01*
X43793760Y-25622621D01*
X44490137Y-25485686D01*
X45191686Y-25389682D01*
X45896885Y-25334835D01*
X46604214Y-25321368D01*
X47312149Y-25349508D01*
X48019172Y-25419479D01*
X48461853Y-25484875D01*
X49150359Y-25618793D01*
X49821060Y-25788506D01*
X50478775Y-25995557D01*
X51128320Y-26241493D01*
X51774513Y-26527859D01*
X51896543Y-26586594D01*
X52368670Y-26816673D01*
X52616210Y-26619705D01*
X53101806Y-26249488D01*
X53618945Y-25885395D01*
X54157411Y-25533863D01*
X54706988Y-25201332D01*
X55257459Y-24894242D01*
X55763583Y-24635988D01*
X56396761Y-24345166D01*
X57018860Y-24093684D01*
X57632380Y-23880784D01*
X58239820Y-23705711D01*
X58843679Y-23567707D01*
X59446458Y-23466015D01*
X59753500Y-23427973D01*
X59895686Y-23416244D01*
X60069840Y-23407845D01*
X60266850Y-23402714D01*
X60477606Y-23400790D01*
X60692998Y-23402013D01*
X60903914Y-23406321D01*
X61101246Y-23413652D01*
X61275881Y-23423945D01*
X61418710Y-23437139D01*
X61436250Y-23439291D01*
X61801220Y-23494440D01*
X62161623Y-23565317D01*
X62462779Y-23638569D01*
X62560867Y-23665446D01*
X62628368Y-23687201D01*
X62675590Y-23709652D01*
X62712842Y-23738616D01*
X62750432Y-23779908D01*
X62782006Y-23818690D01*
X62902357Y-23991690D01*
X63015570Y-24200828D01*
X63119588Y-24440211D01*
X63212355Y-24703952D01*
X63291812Y-24986157D01*
X63355903Y-25280939D01*
X63402570Y-25582406D01*
X63404996Y-25602469D01*
X63420086Y-25768694D01*
X63430449Y-25966330D01*
X63436085Y-26184721D01*
X63436996Y-26413210D01*
X63433186Y-26641141D01*
X63424654Y-26857857D01*
X63411403Y-27052700D01*
X63404724Y-27122687D01*
X63331100Y-27671106D01*
X63224084Y-28233073D01*
X63083293Y-28809762D01*
X62908346Y-29402344D01*
X62698861Y-30011995D01*
X62454457Y-30639886D01*
X62174752Y-31287192D01*
X61859364Y-31955086D01*
X61782689Y-32109833D01*
X61513024Y-32637423D01*
X61240860Y-33144780D01*
X60958908Y-33644891D01*
X60659876Y-34150744D01*
X60394580Y-34582512D01*
X60323869Y-34696606D01*
X60261931Y-34798073D01*
X60211905Y-34881647D01*
X60176927Y-34942059D01*
X60160134Y-34974043D01*
X60159214Y-34977699D01*
X60181210Y-34983227D01*
X60238720Y-34994831D01*
X60325548Y-35011340D01*
X60435500Y-35031583D01*
X60562380Y-35054391D01*
X60608094Y-35062490D01*
X60832273Y-35103510D01*
X61055657Y-35147102D01*
X61274132Y-35192259D01*
X61483583Y-35237977D01*
X61679895Y-35283252D01*
X61858954Y-35327077D01*
X62016644Y-35368448D01*
X62148851Y-35406360D01*
X62251460Y-35439807D01*
X62320356Y-35467785D01*
X62350649Y-35488125D01*
X62357540Y-35518354D01*
X62363544Y-35585728D01*
X62368666Y-35685376D01*
X62372911Y-35812427D01*
X62376285Y-35962011D01*
X62378792Y-36129255D01*
X62380437Y-36309289D01*
X62381225Y-36497242D01*
X62381162Y-36688242D01*
X62380252Y-36877419D01*
X62378500Y-37059902D01*
X62375912Y-37230819D01*
X62372492Y-37385299D01*
X62368245Y-37518472D01*
X62363177Y-37625466D01*
X62357292Y-37701410D01*
X62350596Y-37741433D01*
X62348321Y-37745821D01*
X62313358Y-37764008D01*
X62249883Y-37783417D01*
X62171383Y-37799953D01*
X62168316Y-37800465D01*
X61985374Y-37843086D01*
X61811607Y-37907064D01*
X61655649Y-37988052D01*
X61526137Y-38081703D01*
X61446700Y-38163667D01*
X61390209Y-38241076D01*
X61348484Y-38315910D01*
X61318992Y-38397210D01*
X61299203Y-38494023D01*
X61286585Y-38615390D01*
X61278873Y-38763293D01*
X61266916Y-39077336D01*
X61477328Y-39239543D01*
X61828994Y-39502744D01*
X62157900Y-39732648D01*
X62463754Y-39929091D01*
X62746262Y-40091912D01*
X63005129Y-40220948D01*
X63240062Y-40316036D01*
X63450766Y-40377013D01*
X63570406Y-40397776D01*
X63672562Y-40410244D01*
X63561237Y-40530414D01*
X63520458Y-40573746D01*
X63454425Y-40643072D01*
X63367359Y-40734000D01*
X63263478Y-40842135D01*
X63147004Y-40963084D01*
X63022155Y-41092454D01*
X62910276Y-41208159D01*
X62370641Y-41765736D01*
X62407826Y-41834783D01*
X62467973Y-41914796D01*
X62566373Y-42004467D01*
X62700501Y-42102075D01*
X62867836Y-42205900D01*
X63065852Y-42314221D01*
X63232350Y-42397074D01*
X63513360Y-42526358D01*
X63765187Y-42630700D01*
X63991668Y-42711647D01*
X64080234Y-42739065D01*
X64155380Y-42762827D01*
X64211712Y-42783790D01*
X64239490Y-42798230D01*
X64240833Y-42800450D01*
X64228811Y-42836562D01*
X64195862Y-42899091D01*
X64146656Y-42980740D01*
X64085868Y-43074212D01*
X64018169Y-43172209D01*
X63948232Y-43267433D01*
X63911765Y-43314396D01*
X63617861Y-43655704D01*
X63283321Y-43991492D01*
X62909590Y-44320893D01*
X62498108Y-44643038D01*
X62050317Y-44957061D01*
X61567661Y-45262092D01*
X61051580Y-45557264D01*
X60503519Y-45841710D01*
X59924917Y-46114560D01*
X59317219Y-46374949D01*
X58681865Y-46622006D01*
X58039000Y-46848602D01*
X57275058Y-47090705D01*
X56476020Y-47316626D01*
X55646334Y-47525292D01*
X54790449Y-47715630D01*
X53912812Y-47886570D01*
X53282868Y-47994931D01*
X53126532Y-48020388D01*
X52980772Y-48044145D01*
X52851726Y-48065202D01*
X52745533Y-48082555D01*
X52668330Y-48095203D01*
X52626256Y-48102143D01*
X52624507Y-48102436D01*
X52601557Y-48107355D01*
X52590595Y-48114978D01*
X52595278Y-48128565D01*
X52619265Y-48151376D01*
X52666215Y-48186673D01*
X52739785Y-48237714D01*
X52843635Y-48307760D01*
X52889090Y-48338225D01*
X53614507Y-48842161D01*
X54301628Y-49356830D01*
X54953720Y-49884912D01*
X55574048Y-50429085D01*
X56165877Y-50992029D01*
X56356555Y-51183467D01*
X56801361Y-51636083D01*
X57192639Y-51557655D01*
X57301981Y-51536444D01*
X57445889Y-51509611D01*
X57617159Y-51478441D01*
X57808592Y-51444220D01*
X58012986Y-51408232D01*
X58223139Y-51371764D01*
X58431851Y-51336099D01*
X58472916Y-51329154D01*
X58835365Y-51267488D01*
X59159101Y-51211247D01*
X59447293Y-51159674D01*
X59703108Y-51112011D01*
X59929712Y-51067501D01*
X60130275Y-51025387D01*
X60231173Y-51002403D01*
X60708765Y-51002403D01*
X60850257Y-51042692D01*
X61126908Y-51134930D01*
X61416019Y-51255929D01*
X61705793Y-51399750D01*
X61984437Y-51560456D01*
X62240155Y-51732110D01*
X62283369Y-51764111D01*
X62537315Y-51970249D01*
X62785658Y-52200532D01*
X63020939Y-52446848D01*
X63235700Y-52701085D01*
X63422482Y-52955134D01*
X63522684Y-53111858D01*
X63561095Y-53173216D01*
X63591634Y-53216990D01*
X63607503Y-53233566D01*
X63614499Y-53214056D01*
X63625085Y-53160181D01*
X63637954Y-53079628D01*
X63651795Y-52980080D01*
X63655181Y-52953708D01*
X63695689Y-52594678D01*
X63725590Y-52237921D01*
X63744049Y-51921833D01*
X63749284Y-51806114D01*
X63751146Y-51721716D01*
X63748407Y-51657677D01*
X63739840Y-51603039D01*
X63724216Y-51546842D01*
X63700308Y-51478127D01*
X63691668Y-51454344D01*
X63572962Y-51183999D01*
X63423540Y-50937129D01*
X63246374Y-50716491D01*
X63044438Y-50524841D01*
X62820706Y-50364937D01*
X62578151Y-50239536D01*
X62319747Y-50151395D01*
X62274411Y-50140304D01*
X62172069Y-50116681D01*
X61976950Y-50288883D01*
X61678384Y-50525424D01*
X61362010Y-50723942D01*
X61028782Y-50883871D01*
X60892590Y-50936333D01*
X60708765Y-51002403D01*
X60231173Y-51002403D01*
X60307962Y-50984911D01*
X60465942Y-50945318D01*
X60607382Y-50905848D01*
X60735450Y-50865746D01*
X60853312Y-50824254D01*
X60964136Y-50780614D01*
X61071090Y-50734070D01*
X61177341Y-50683864D01*
X61182250Y-50681461D01*
X61481639Y-50511858D01*
X61768495Y-50303536D01*
X62040315Y-50058903D01*
X62294596Y-49780369D01*
X62528836Y-49470341D01*
X62673239Y-49246336D01*
X62806143Y-49009136D01*
X62935453Y-48746215D01*
X63054805Y-48472116D01*
X63157832Y-48201385D01*
X63232621Y-47968163D01*
X63279390Y-47804916D01*
X63488756Y-47804916D01*
X63535866Y-48064623D01*
X63666412Y-48861173D01*
X63764272Y-49631262D01*
X63829439Y-50374792D01*
X63861904Y-51091670D01*
X63861659Y-51781799D01*
X63857849Y-51911810D01*
X63818856Y-52550451D01*
X63746260Y-53163417D01*
X63639945Y-53750929D01*
X63499797Y-54313209D01*
X63325700Y-54850479D01*
X63117539Y-55362960D01*
X62875199Y-55850875D01*
X62598565Y-56314445D01*
X62287522Y-56753892D01*
X61941954Y-57169437D01*
X61561746Y-57561302D01*
X61146784Y-57929709D01*
X60696952Y-58274880D01*
X60473166Y-58429338D01*
X60366528Y-58498484D01*
X60234755Y-58580834D01*
X60089762Y-58669118D01*
X59943467Y-58756067D01*
X59827583Y-58823158D01*
X59400742Y-59071939D01*
X59007799Y-59312566D01*
X58642217Y-59549418D01*
X58297458Y-59786875D01*
X57966985Y-60029316D01*
X57644260Y-60281120D01*
X57610375Y-60308429D01*
X57404000Y-60475247D01*
X57404230Y-60786415D01*
X57404627Y-60844633D01*
X57405732Y-60942461D01*
X57407502Y-61077183D01*
X57409896Y-61246083D01*
X57412869Y-61446445D01*
X57416379Y-61675551D01*
X57420383Y-61930686D01*
X57424838Y-62209134D01*
X57429701Y-62508177D01*
X57434929Y-62825101D01*
X57440479Y-63157187D01*
X57446309Y-63501721D01*
X57452375Y-63855986D01*
X57456667Y-64104216D01*
X57464908Y-64587319D01*
X57472125Y-65028541D01*
X57478321Y-65428322D01*
X57483502Y-65787101D01*
X57487672Y-66105319D01*
X57490835Y-66383415D01*
X57492995Y-66621829D01*
X57494158Y-66821000D01*
X57494328Y-66981370D01*
X57493508Y-67103376D01*
X57491705Y-67187460D01*
X57488921Y-67234061D01*
X57488321Y-67238470D01*
X57432545Y-67463878D01*
X57342100Y-67673663D01*
X57220438Y-67862841D01*
X57071008Y-68026431D01*
X56897261Y-68159451D01*
X56819518Y-68204141D01*
X56782563Y-68223866D01*
X56749333Y-68241708D01*
X56717642Y-68257759D01*
X56685303Y-68272107D01*
X56650128Y-68284845D01*
X56609931Y-68296061D01*
X56562525Y-68305847D01*
X56505722Y-68314292D01*
X56437336Y-68321486D01*
X56355179Y-68327521D01*
X56257064Y-68332485D01*
X56140805Y-68336470D01*
X56004214Y-68339565D01*
X55845104Y-68341862D01*
X55661289Y-68343449D01*
X55450580Y-68344418D01*
X55210792Y-68344858D01*
X54939737Y-68344860D01*
X54635228Y-68344514D01*
X54295078Y-68343910D01*
X53917100Y-68343139D01*
X53499107Y-68342291D01*
X53472711Y-68342239D01*
X50556583Y-68336583D01*
X50419000Y-68287096D01*
X50206145Y-68189790D01*
X50019238Y-68061620D01*
X49861172Y-67905568D01*
X49734838Y-67724618D01*
X49643128Y-67521752D01*
X49626476Y-67469745D01*
X49603040Y-67377726D01*
X49578483Y-67260074D01*
X49556021Y-67133266D01*
X49541531Y-67034833D01*
X49479637Y-66708276D01*
X49382508Y-66405093D01*
X49250452Y-66125666D01*
X49083778Y-65870376D01*
X48882796Y-65639604D01*
X48647815Y-65433732D01*
X48379144Y-65253140D01*
X48077091Y-65098211D01*
X47918188Y-65032240D01*
X47596887Y-64927127D01*
X47251737Y-64849150D01*
X46892464Y-64799661D01*
X46528797Y-64780015D01*
X46182140Y-64790669D01*
X45794383Y-64835663D01*
X45430547Y-64910069D01*
X45092052Y-65013032D01*
X44780316Y-65143698D01*
X44496760Y-65301212D01*
X44242802Y-65484720D01*
X44019861Y-65693367D01*
X43829357Y-65926299D01*
X43672710Y-66182661D01*
X43595252Y-66348111D01*
X43537470Y-66498233D01*
X43489917Y-66650979D01*
X43449810Y-66817327D01*
X43414361Y-67008257D01*
X43393604Y-67143093D01*
X43364506Y-67318772D01*
X43331511Y-67462090D01*
X43291318Y-67583018D01*
X43240627Y-67691524D01*
X43177739Y-67795184D01*
X43053359Y-67948799D01*
X42900308Y-68085266D01*
X42728028Y-68198259D01*
X42545960Y-68281453D01*
X42387654Y-68324542D01*
X42347259Y-68328253D01*
X42269031Y-68331601D01*
X42152554Y-68334588D01*
X41997414Y-68337217D01*
X41803196Y-68339492D01*
X41569485Y-68341415D01*
X41295866Y-68342989D01*
X40981924Y-68344218D01*
X40627245Y-68345103D01*
X40231413Y-68345649D01*
X39794014Y-68345857D01*
X39392570Y-68345773D01*
X38977724Y-68345519D01*
X38603135Y-68345165D01*
X38266725Y-68344687D01*
X37966419Y-68344065D01*
X37700139Y-68343276D01*
X37465809Y-68342297D01*
X37261353Y-68341106D01*
X37084693Y-68339681D01*
X36933753Y-68338000D01*
X36806457Y-68336039D01*
X36700727Y-68333777D01*
X36614487Y-68331192D01*
X36545661Y-68328261D01*
X36492171Y-68324961D01*
X36451941Y-68321271D01*
X36422895Y-68317168D01*
X36406666Y-68313666D01*
X36233229Y-68254884D01*
X36077925Y-68172354D01*
X35929513Y-68059390D01*
X35843505Y-67978631D01*
X35749747Y-67880068D01*
X35680256Y-67793474D01*
X35625222Y-67705698D01*
X35593173Y-67643069D01*
X35573726Y-67603413D01*
X35555999Y-67567905D01*
X35539943Y-67534510D01*
X35525510Y-67501192D01*
X35512652Y-67465917D01*
X35501322Y-67426648D01*
X35491471Y-67381352D01*
X35483052Y-67327992D01*
X35476017Y-67264533D01*
X35470317Y-67188941D01*
X35465906Y-67099180D01*
X35462735Y-66993215D01*
X35460755Y-66869011D01*
X35459921Y-66724532D01*
X35460182Y-66557743D01*
X35461492Y-66366610D01*
X35463803Y-66149097D01*
X35467067Y-65903168D01*
X35471235Y-65626789D01*
X35476261Y-65317924D01*
X35482096Y-64974539D01*
X35488692Y-64594597D01*
X35496001Y-64176065D01*
X35502628Y-63794862D01*
X35560551Y-60448144D01*
X35345136Y-60211947D01*
X35016091Y-59829048D01*
X34728330Y-59446596D01*
X34480870Y-59062616D01*
X34272733Y-58675133D01*
X34102935Y-58282171D01*
X33970498Y-57881756D01*
X33874439Y-57471913D01*
X33824876Y-57150555D01*
X33805543Y-56908742D01*
X33801369Y-56639849D01*
X33806831Y-56489453D01*
X33955358Y-56489453D01*
X33955715Y-56675101D01*
X33960916Y-56864557D01*
X33970641Y-57046528D01*
X33984568Y-57209721D01*
X34002379Y-57342846D01*
X34003823Y-57351083D01*
X34100278Y-57779432D01*
X34234622Y-58195914D01*
X34407677Y-58602187D01*
X34620261Y-58999908D01*
X34873196Y-59390736D01*
X35167302Y-59776328D01*
X35256366Y-59882675D01*
X35318863Y-59959314D01*
X35369362Y-60027784D01*
X35402152Y-60079908D01*
X35411833Y-60105288D01*
X35425166Y-60140774D01*
X35460171Y-60195317D01*
X35509358Y-60257291D01*
X35510867Y-60259021D01*
X35563500Y-60317127D01*
X35596898Y-60346688D01*
X35618229Y-60352253D01*
X35634662Y-60338366D01*
X35635081Y-60337798D01*
X35645190Y-60324515D01*
X35654354Y-60314838D01*
X35662582Y-60310600D01*
X35669885Y-60313636D01*
X35676271Y-60325777D01*
X35681750Y-60348857D01*
X35686332Y-60384709D01*
X35690027Y-60435167D01*
X35692843Y-60502064D01*
X35694790Y-60587232D01*
X35695878Y-60692505D01*
X35696117Y-60819716D01*
X35695515Y-60970698D01*
X35694083Y-61147285D01*
X35691830Y-61351310D01*
X35688765Y-61584605D01*
X35684898Y-61849004D01*
X35680239Y-62146341D01*
X35674797Y-62478447D01*
X35668582Y-62847158D01*
X35661602Y-63254305D01*
X35653869Y-63701721D01*
X35652874Y-63759183D01*
X35645189Y-64203836D01*
X35638253Y-64608174D01*
X35632052Y-64974208D01*
X35626573Y-65303949D01*
X35621802Y-65599409D01*
X35617728Y-65862598D01*
X35614337Y-66095529D01*
X35611617Y-66300211D01*
X35609553Y-66478657D01*
X35608133Y-66632877D01*
X35607345Y-66764884D01*
X35607174Y-66876687D01*
X35607609Y-66970299D01*
X35608635Y-67047730D01*
X35610241Y-67110992D01*
X35612413Y-67162097D01*
X35615138Y-67203054D01*
X35618404Y-67235876D01*
X35622196Y-67262574D01*
X35626502Y-67285159D01*
X35629993Y-67300326D01*
X35700876Y-67509155D01*
X35804971Y-67698393D01*
X35938351Y-67863847D01*
X36097087Y-68001327D01*
X36277251Y-68106641D01*
X36442466Y-68167233D01*
X36464612Y-68171355D01*
X36500876Y-68175084D01*
X36553189Y-68178440D01*
X36623478Y-68181442D01*
X36713675Y-68184110D01*
X36825709Y-68186462D01*
X36961508Y-68188518D01*
X37123004Y-68190297D01*
X37312125Y-68191819D01*
X37530800Y-68193102D01*
X37780961Y-68194166D01*
X38064535Y-68195031D01*
X38383453Y-68195715D01*
X38739644Y-68196239D01*
X39135038Y-68196620D01*
X39401750Y-68196794D01*
X39814791Y-68196972D01*
X40187615Y-68197014D01*
X40522339Y-68196897D01*
X40821077Y-68196601D01*
X41085947Y-68196105D01*
X41319064Y-68195387D01*
X41522545Y-68194427D01*
X41698506Y-68193204D01*
X41849062Y-68191696D01*
X41976330Y-68189883D01*
X42082426Y-68187743D01*
X42169465Y-68185255D01*
X42239566Y-68182399D01*
X42294842Y-68179153D01*
X42337411Y-68175496D01*
X42369388Y-68171407D01*
X42392208Y-68167027D01*
X42593328Y-68098800D01*
X42773211Y-67995862D01*
X42928571Y-67861841D01*
X43056123Y-67700364D01*
X43152583Y-67515058D01*
X43214666Y-67309550D01*
X43225800Y-67246500D01*
X43252489Y-67071133D01*
X43275351Y-66930123D01*
X43295954Y-66815839D01*
X43315867Y-66720649D01*
X43336660Y-66636922D01*
X43359901Y-66557028D01*
X43380995Y-66491693D01*
X43503827Y-66186479D01*
X43659874Y-65907323D01*
X43848790Y-65654482D01*
X44070228Y-65428212D01*
X44323843Y-65228771D01*
X44609288Y-65056414D01*
X44926217Y-64911398D01*
X45274283Y-64793979D01*
X45653140Y-64704415D01*
X45836416Y-64672830D01*
X45987184Y-64655384D01*
X46167372Y-64643655D01*
X46365318Y-64637639D01*
X46569357Y-64637335D01*
X46767825Y-64642741D01*
X46949057Y-64653856D01*
X47101391Y-64670676D01*
X47117000Y-64673050D01*
X47422218Y-64729442D01*
X47697544Y-64798733D01*
X47954327Y-64884273D01*
X48203917Y-64989413D01*
X48230220Y-65001750D01*
X48447087Y-65114262D01*
X48638256Y-65236489D01*
X48817490Y-65378251D01*
X48998546Y-65549367D01*
X49000833Y-65551686D01*
X49185442Y-65758706D01*
X49339658Y-65976112D01*
X49465923Y-66209310D01*
X49566679Y-66463703D01*
X49644367Y-66744699D01*
X49701431Y-67057700D01*
X49710226Y-67121872D01*
X49735086Y-67284200D01*
X49764555Y-67415160D01*
X49802090Y-67525701D01*
X49851145Y-67626773D01*
X49889882Y-67691076D01*
X49974851Y-67801380D01*
X50083752Y-67910831D01*
X50202716Y-68006929D01*
X50317877Y-68077173D01*
X50318533Y-68077494D01*
X50352589Y-68094411D01*
X50383376Y-68109698D01*
X50413095Y-68123433D01*
X50443943Y-68135695D01*
X50478117Y-68146561D01*
X50517817Y-68156111D01*
X50565240Y-68164423D01*
X50622584Y-68171575D01*
X50692048Y-68177646D01*
X50775829Y-68182713D01*
X50876126Y-68186857D01*
X50995137Y-68190154D01*
X51135060Y-68192684D01*
X51298092Y-68194525D01*
X51486433Y-68195756D01*
X51702280Y-68196454D01*
X51947832Y-68196698D01*
X52225286Y-68196567D01*
X52536840Y-68196139D01*
X52884693Y-68195493D01*
X53271043Y-68194707D01*
X53585369Y-68194076D01*
X56483250Y-68188416D01*
X56604652Y-68139385D01*
X56806372Y-68036163D01*
X56980439Y-67901074D01*
X57125528Y-67735358D01*
X57236451Y-67548339D01*
X57252469Y-67515686D01*
X57267062Y-67485847D01*
X57280261Y-67456808D01*
X57292102Y-67426559D01*
X57302617Y-67393087D01*
X57311841Y-67354380D01*
X57319806Y-67308425D01*
X57326547Y-67253212D01*
X57332097Y-67186727D01*
X57336490Y-67106958D01*
X57339759Y-67011894D01*
X57341939Y-66899523D01*
X57343062Y-66767832D01*
X57343163Y-66614808D01*
X57342275Y-66438441D01*
X57340432Y-66236718D01*
X57337667Y-66007627D01*
X57334015Y-65749155D01*
X57329508Y-65459291D01*
X57324180Y-65136022D01*
X57318066Y-64777337D01*
X57311198Y-64381223D01*
X57303611Y-63945669D01*
X57300095Y-63743416D01*
X57292439Y-63301691D01*
X57285522Y-62900332D01*
X57279334Y-62537379D01*
X57273862Y-62210873D01*
X57269095Y-61918853D01*
X57265023Y-61659359D01*
X57261634Y-61430431D01*
X57258916Y-61230109D01*
X57256859Y-61056432D01*
X57255451Y-60907441D01*
X57254680Y-60781175D01*
X57254537Y-60675675D01*
X57255009Y-60588979D01*
X57256084Y-60519129D01*
X57257753Y-60464163D01*
X57260003Y-60422122D01*
X57262823Y-60391046D01*
X57266203Y-60368974D01*
X57270130Y-60353947D01*
X57274593Y-60344004D01*
X57279582Y-60337184D01*
X57280504Y-60336171D01*
X57308682Y-60307903D01*
X57318294Y-60310691D01*
X57319333Y-60335448D01*
X57325978Y-60350007D01*
X57348836Y-60340244D01*
X57392296Y-60303374D01*
X57435731Y-60261517D01*
X57503835Y-60188203D01*
X57537510Y-60136461D01*
X57540679Y-60110486D01*
X57548697Y-60071044D01*
X57588896Y-60009631D01*
X57624246Y-59967422D01*
X57634839Y-59954577D01*
X57848500Y-59954577D01*
X57864516Y-59946044D01*
X57908508Y-59916587D01*
X57974392Y-59870425D01*
X58056084Y-59811774D01*
X58087667Y-59788797D01*
X58204735Y-59704510D01*
X58339299Y-59609443D01*
X58473511Y-59516122D01*
X58574501Y-59447177D01*
X58663423Y-59386246D01*
X58738190Y-59333195D01*
X58792493Y-59292641D01*
X58820023Y-59269203D01*
X58822166Y-59265887D01*
X58805350Y-59249233D01*
X58760309Y-59216572D01*
X58695154Y-59173617D01*
X58658804Y-59150826D01*
X58581183Y-59103678D01*
X58531207Y-59076692D01*
X58500814Y-59067288D01*
X58481944Y-59072882D01*
X58467484Y-59089546D01*
X58445382Y-59122031D01*
X58405656Y-59181559D01*
X58353870Y-59259755D01*
X58295588Y-59348245D01*
X58293560Y-59351333D01*
X58218672Y-59461517D01*
X58132906Y-59581744D01*
X58048642Y-59694907D01*
X57998046Y-59759682D01*
X57938463Y-59834560D01*
X57890148Y-59896674D01*
X57858436Y-59939068D01*
X57848500Y-59954577D01*
X57634839Y-59954577D01*
X57942728Y-59581255D01*
X58220203Y-59186180D01*
X58456558Y-58782425D01*
X58651680Y-58370218D01*
X58805454Y-57949788D01*
X58917768Y-57521363D01*
X58963320Y-57272846D01*
X58980153Y-57129455D01*
X58992009Y-56955899D01*
X58998795Y-56764064D01*
X59000416Y-56565834D01*
X58996777Y-56373096D01*
X58987785Y-56197735D01*
X58973345Y-56051636D01*
X58973033Y-56049333D01*
X58889811Y-55589333D01*
X58765269Y-55126660D01*
X58599316Y-54661158D01*
X58391864Y-54192669D01*
X58142821Y-53721037D01*
X57852098Y-53246105D01*
X57519605Y-52767716D01*
X57145253Y-52285713D01*
X57051088Y-52175833D01*
X57255494Y-52175833D01*
X57384848Y-52335380D01*
X57602230Y-52616512D01*
X57817095Y-52919213D01*
X58024856Y-53235803D01*
X58220923Y-53558598D01*
X58400707Y-53879918D01*
X58559619Y-54192081D01*
X58693070Y-54487405D01*
X58740369Y-54604432D01*
X58777812Y-54696385D01*
X58811834Y-54771854D01*
X58838728Y-54823141D01*
X58854790Y-54842547D01*
X58854974Y-54842557D01*
X58886230Y-54852347D01*
X58948378Y-54879247D01*
X59035160Y-54920061D01*
X59140321Y-54971592D01*
X59257607Y-55030646D01*
X59380762Y-55094026D01*
X59503530Y-55158537D01*
X59619656Y-55220983D01*
X59722884Y-55278169D01*
X59806959Y-55326898D01*
X59827583Y-55339434D01*
X60224836Y-55606421D01*
X60593310Y-55898860D01*
X60930547Y-56214373D01*
X61234085Y-56550583D01*
X61501464Y-56905111D01*
X61595859Y-57048540D01*
X61636632Y-57114670D01*
X61668242Y-57163199D01*
X61695555Y-57192355D01*
X61723437Y-57200363D01*
X61756756Y-57185451D01*
X61800377Y-57145843D01*
X61859167Y-57079767D01*
X61937991Y-56985449D01*
X62011589Y-56897016D01*
X62335828Y-56477168D01*
X62627604Y-56032345D01*
X62878571Y-55577340D01*
X62993390Y-55348765D01*
X62867981Y-55175174D01*
X62563696Y-54789068D01*
X62223530Y-54422157D01*
X61850185Y-54076215D01*
X61446363Y-53753015D01*
X61014764Y-53454330D01*
X60558090Y-53181933D01*
X60079043Y-52937597D01*
X59580324Y-52723097D01*
X59064635Y-52540204D01*
X58684583Y-52429152D01*
X58537234Y-52391963D01*
X58372556Y-52353941D01*
X58197701Y-52316416D01*
X58019821Y-52280719D01*
X57846070Y-52248181D01*
X57683600Y-52220133D01*
X57539563Y-52197906D01*
X57421113Y-52182831D01*
X57335401Y-52176239D01*
X57324455Y-52176057D01*
X57255494Y-52175833D01*
X57051088Y-52175833D01*
X56728951Y-51799940D01*
X56270610Y-51310239D01*
X56240270Y-51279197D01*
X55661096Y-50714029D01*
X55041826Y-50159654D01*
X54383511Y-49616936D01*
X53687207Y-49086737D01*
X52953967Y-48569919D01*
X52815142Y-48476371D01*
X52322035Y-48146389D01*
X52042559Y-48182887D01*
X51250679Y-48280519D01*
X50465329Y-48365439D01*
X49677256Y-48438419D01*
X48877206Y-48500232D01*
X48055926Y-48551650D01*
X47204162Y-48593446D01*
X47044523Y-48600103D01*
X46744452Y-48609679D01*
X46464238Y-48612653D01*
X46182835Y-48609017D01*
X45901523Y-48599693D01*
X44850108Y-48548258D01*
X43832600Y-48481817D01*
X42850576Y-48400496D01*
X41905615Y-48304422D01*
X41258223Y-48227343D01*
X41105685Y-48208141D01*
X40966294Y-48190822D01*
X40845747Y-48176077D01*
X40749742Y-48164595D01*
X40683974Y-48157065D01*
X40654141Y-48154177D01*
X40653596Y-48154166D01*
X40619656Y-48166375D01*
X40555204Y-48201417D01*
X40463736Y-48256918D01*
X40348749Y-48330501D01*
X40213740Y-48419791D01*
X40062206Y-48522413D01*
X39897642Y-48635990D01*
X39723547Y-48758149D01*
X39543415Y-48886512D01*
X39360745Y-49018705D01*
X39179033Y-49152352D01*
X39123553Y-49193624D01*
X38518575Y-49659866D01*
X37946639Y-50131064D01*
X37408851Y-50606073D01*
X36906317Y-51083747D01*
X36440143Y-51562939D01*
X36011434Y-52042505D01*
X35621297Y-52521299D01*
X35270837Y-52998175D01*
X34961161Y-53471987D01*
X34906619Y-53562250D01*
X34651631Y-54018969D01*
X34436909Y-54466782D01*
X34261785Y-54907561D01*
X34125587Y-55343176D01*
X34027644Y-55775500D01*
X33970457Y-56174742D01*
X33960165Y-56318902D01*
X33955358Y-56489453D01*
X33806831Y-56489453D01*
X33811677Y-56356054D01*
X33835787Y-56069535D01*
X33873022Y-55792471D01*
X33912086Y-55584502D01*
X34032358Y-55122766D01*
X34194322Y-54656650D01*
X34397617Y-54186643D01*
X34641883Y-53713231D01*
X34926759Y-53236902D01*
X35251883Y-52758143D01*
X35616897Y-52277443D01*
X36021438Y-51795287D01*
X36465146Y-51312164D01*
X36947660Y-50828560D01*
X37468620Y-50344964D01*
X38027665Y-49861863D01*
X38332833Y-49611384D01*
X38528167Y-49456048D01*
X38739435Y-49292111D01*
X38960843Y-49123801D01*
X39186601Y-48955347D01*
X39410918Y-48790977D01*
X39628000Y-48634920D01*
X39832057Y-48491403D01*
X40017297Y-48364656D01*
X40177929Y-48258907D01*
X40233365Y-48223826D01*
X40301621Y-48179599D01*
X40352071Y-48143721D01*
X40377059Y-48121780D01*
X40378157Y-48118102D01*
X40355240Y-48112019D01*
X40297093Y-48100739D01*
X40210340Y-48085429D01*
X40101603Y-48067254D01*
X39977505Y-48047382D01*
X39969875Y-48046186D01*
X39073760Y-47894884D01*
X38203247Y-47725697D01*
X37359559Y-47539051D01*
X36543920Y-47335375D01*
X35757554Y-47115097D01*
X35001685Y-46878645D01*
X34277536Y-46626446D01*
X33586332Y-46358928D01*
X32929295Y-46076520D01*
X32307651Y-45779649D01*
X31722623Y-45468744D01*
X31175434Y-45144231D01*
X30667309Y-44806539D01*
X30631544Y-44781216D01*
X30323720Y-44552801D01*
X30029015Y-44315406D01*
X29751265Y-44072798D01*
X29494307Y-43828743D01*
X29261976Y-43587007D01*
X29058110Y-43351356D01*
X28886545Y-43125556D01*
X28781490Y-42965122D01*
X28742388Y-42897183D01*
X28714015Y-42841646D01*
X28702074Y-42809749D01*
X28702000Y-42808535D01*
X28720779Y-42790415D01*
X28769867Y-42767613D01*
X28834291Y-42746375D01*
X28997619Y-42694628D01*
X29186063Y-42624941D01*
X29388961Y-42542004D01*
X29595650Y-42450504D01*
X29795468Y-42355130D01*
X29977754Y-42260570D01*
X30107029Y-42186709D01*
X30235845Y-42102755D01*
X30350884Y-42015976D01*
X30445241Y-41932258D01*
X30512015Y-41857485D01*
X30534491Y-41822287D01*
X30566057Y-41761246D01*
X29974761Y-41152998D01*
X29843103Y-41017316D01*
X29718846Y-40888787D01*
X29605525Y-40771100D01*
X29506673Y-40667948D01*
X29425826Y-40583022D01*
X29366517Y-40520011D01*
X29332281Y-40482607D01*
X29327781Y-40477360D01*
X29272096Y-40409971D01*
X29373339Y-40396289D01*
X29571496Y-40354833D01*
X29791059Y-40280984D01*
X30032550Y-40174453D01*
X30296492Y-40034953D01*
X30353972Y-40000343D01*
X36810507Y-40000343D01*
X36824336Y-40295393D01*
X36872725Y-40586602D01*
X36955202Y-40870715D01*
X37071297Y-41144476D01*
X37220538Y-41404631D01*
X37402455Y-41647922D01*
X37616577Y-41871096D01*
X37862433Y-42070895D01*
X38037075Y-42185512D01*
X38267789Y-42305844D01*
X38521979Y-42406327D01*
X38783728Y-42481455D01*
X39011397Y-42522686D01*
X39152474Y-42533129D01*
X39318961Y-42534117D01*
X39495153Y-42526294D01*
X39665348Y-42510306D01*
X39794915Y-42490524D01*
X40024668Y-42432220D01*
X40264066Y-42344833D01*
X40498999Y-42234317D01*
X40715356Y-42106626D01*
X40733614Y-42094373D01*
X40855575Y-42001807D01*
X40988823Y-41884200D01*
X41122222Y-41752416D01*
X41244634Y-41617321D01*
X41323995Y-41518416D01*
X41387226Y-41426367D01*
X41457335Y-41312163D01*
X41524396Y-41192503D01*
X41564478Y-41113880D01*
X41685047Y-40817982D01*
X41765416Y-40516332D01*
X41806753Y-40212178D01*
X41809000Y-40015583D01*
X51130763Y-40015583D01*
X51137514Y-40263507D01*
X51162348Y-40485111D01*
X51208223Y-40693613D01*
X51278096Y-40902232D01*
X51374924Y-41124186D01*
X51382144Y-41139229D01*
X51535243Y-41409398D01*
X51720599Y-41655702D01*
X51934460Y-41876082D01*
X52173071Y-42068478D01*
X52432680Y-42230830D01*
X52709534Y-42361079D01*
X52999880Y-42457165D01*
X53299965Y-42517028D01*
X53606037Y-42538610D01*
X53900916Y-42521535D01*
X54221589Y-42461911D01*
X54526277Y-42364949D01*
X54812407Y-42232998D01*
X55077407Y-42068411D01*
X55318702Y-41873536D01*
X55533719Y-41650726D01*
X55719884Y-41402330D01*
X55874625Y-41130700D01*
X55995367Y-40838186D01*
X56078440Y-40532506D01*
X56122033Y-40218802D01*
X56125005Y-39906584D01*
X56089023Y-39599285D01*
X56015756Y-39300340D01*
X55906871Y-39013181D01*
X55764035Y-38741242D01*
X55588916Y-38487958D01*
X55383182Y-38256762D01*
X55148500Y-38051087D01*
X54886537Y-37874368D01*
X54751878Y-37800979D01*
X54458485Y-37675286D01*
X54158193Y-37589581D01*
X53854356Y-37542778D01*
X53550330Y-37533793D01*
X53249468Y-37561540D01*
X52955125Y-37624934D01*
X52670657Y-37722891D01*
X52399417Y-37854324D01*
X52144761Y-38018149D01*
X51910043Y-38213282D01*
X51698618Y-38438635D01*
X51513840Y-38693126D01*
X51404344Y-38883773D01*
X51292611Y-39124563D01*
X51212443Y-39358834D01*
X51160912Y-39598689D01*
X51135095Y-39856231D01*
X51130763Y-40015583D01*
X41809000Y-40015583D01*
X41810221Y-39908773D01*
X41776989Y-39609364D01*
X41750599Y-39497245D01*
X45476500Y-39497245D01*
X45480034Y-39530703D01*
X45486413Y-39557702D01*
X45502922Y-39611135D01*
X45516588Y-39642077D01*
X45520080Y-39645166D01*
X45543357Y-39639892D01*
X45598754Y-39625588D01*
X45677595Y-39604535D01*
X45757389Y-39582809D01*
X45991798Y-39523604D01*
X46197756Y-39482256D01*
X46371879Y-39459373D01*
X46472680Y-39454666D01*
X46580508Y-39461119D01*
X46717313Y-39479125D01*
X46871978Y-39506656D01*
X47033386Y-39541683D01*
X47190417Y-39582176D01*
X47223433Y-39591664D01*
X47304952Y-39615239D01*
X47370184Y-39633462D01*
X47409122Y-39643564D01*
X47415274Y-39644722D01*
X47428561Y-39626846D01*
X47446507Y-39581656D01*
X47452287Y-39563430D01*
X47460364Y-39530692D01*
X47462802Y-39497132D01*
X47458077Y-39455706D01*
X47444665Y-39399371D01*
X47421045Y-39321083D01*
X47385691Y-39213798D01*
X47360665Y-39139796D01*
X47318882Y-39019348D01*
X47278108Y-38906425D01*
X47241690Y-38809973D01*
X47212978Y-38738938D01*
X47199979Y-38710526D01*
X47107327Y-38572814D01*
X46982113Y-38452288D01*
X46832614Y-38354992D01*
X46667110Y-38286971D01*
X46594671Y-38268555D01*
X46445313Y-38257761D01*
X46285973Y-38282475D01*
X46125414Y-38340246D01*
X45972398Y-38428623D01*
X45941618Y-38451166D01*
X45873547Y-38513492D01*
X45810320Y-38594887D01*
X45749234Y-38700347D01*
X45687586Y-38834864D01*
X45622674Y-39003431D01*
X45586139Y-39107945D01*
X45542171Y-39238252D01*
X45510742Y-39335481D01*
X45490334Y-39406488D01*
X45479427Y-39458124D01*
X45476500Y-39497245D01*
X41750599Y-39497245D01*
X41708221Y-39317204D01*
X41605083Y-39035541D01*
X41468741Y-38767626D01*
X41300361Y-38516709D01*
X41101109Y-38286040D01*
X40872150Y-38078869D01*
X40614652Y-37898447D01*
X40362482Y-37763031D01*
X40067048Y-37647649D01*
X39763458Y-37572127D01*
X39455512Y-37535717D01*
X39147011Y-37537669D01*
X38841753Y-37577233D01*
X38543538Y-37653659D01*
X38256166Y-37766199D01*
X37983435Y-37914103D01*
X37729146Y-38096622D01*
X37497098Y-38313005D01*
X37479649Y-38331713D01*
X37276233Y-38581437D01*
X37110202Y-38846854D01*
X36981085Y-39124709D01*
X36888410Y-39411746D01*
X36831708Y-39704709D01*
X36810507Y-40000343D01*
X30353972Y-40000343D01*
X30583409Y-39862196D01*
X30893824Y-39655894D01*
X31228259Y-39415759D01*
X31426463Y-39266219D01*
X31663842Y-39084250D01*
X31663249Y-38967833D01*
X31658576Y-38789841D01*
X31646991Y-38627276D01*
X31629334Y-38487045D01*
X31606448Y-38376057D01*
X31582873Y-38308521D01*
X31497112Y-38176417D01*
X31375353Y-38057850D01*
X31261755Y-37982139D01*
X32900271Y-37982139D01*
X33088698Y-37781778D01*
X33176347Y-37686393D01*
X33268411Y-37582581D01*
X33352851Y-37484101D01*
X33407853Y-37417105D01*
X33488955Y-37309052D01*
X33562461Y-37199689D01*
X33624014Y-37096562D01*
X33669256Y-37007220D01*
X33693830Y-36939208D01*
X33697005Y-36916333D01*
X33709895Y-36861228D01*
X33728453Y-36830695D01*
X33749923Y-36778986D01*
X33748558Y-36749862D01*
X59224333Y-36749862D01*
X59237607Y-36875728D01*
X59278450Y-37009435D01*
X59348392Y-37153463D01*
X59448961Y-37310291D01*
X59581688Y-37482398D01*
X59748102Y-37672261D01*
X59878408Y-37809817D01*
X59946290Y-37877747D01*
X59991594Y-37914975D01*
X60017439Y-37919280D01*
X60026947Y-37888443D01*
X60023237Y-37820242D01*
X60009947Y-37716204D01*
X59967287Y-37544058D01*
X59888430Y-37365540D01*
X59777655Y-37186679D01*
X59639240Y-37013507D01*
X59477464Y-36852052D01*
X59296606Y-36708346D01*
X59293125Y-36705905D01*
X59224333Y-36657784D01*
X59224333Y-36749862D01*
X33748558Y-36749862D01*
X33747145Y-36719717D01*
X33734716Y-36643126D01*
X33626066Y-36720104D01*
X33564853Y-36768312D01*
X33486415Y-36836937D01*
X33402454Y-36915489D01*
X33348083Y-36969316D01*
X33188616Y-37149962D01*
X33068093Y-37329671D01*
X32983631Y-37514043D01*
X32932350Y-37708678D01*
X32919136Y-37802944D01*
X32900271Y-37982139D01*
X31261755Y-37982139D01*
X31222669Y-37956089D01*
X31044133Y-37874406D01*
X30844817Y-37816072D01*
X30807232Y-37808325D01*
X30720166Y-37790249D01*
X30647703Y-37772908D01*
X30600888Y-37759045D01*
X30591124Y-37754667D01*
X30585019Y-37741883D01*
X30579865Y-37710154D01*
X30575597Y-37656684D01*
X30572151Y-37578682D01*
X30569462Y-37473353D01*
X30567465Y-37337905D01*
X30566098Y-37169544D01*
X30565294Y-36965476D01*
X30564989Y-36722909D01*
X30564990Y-36622375D01*
X30565073Y-36571209D01*
X33887833Y-36571209D01*
X33890827Y-36595358D01*
X33893822Y-36595402D01*
X33910078Y-36573388D01*
X33928566Y-36549057D01*
X33946211Y-36522300D01*
X33940348Y-36521485D01*
X59001708Y-36521485D01*
X59002471Y-36537930D01*
X59032646Y-36582650D01*
X59039527Y-36591641D01*
X59065855Y-36607100D01*
X59087367Y-36599213D01*
X59085916Y-36574651D01*
X59058942Y-36549777D01*
X59030100Y-36531668D01*
X59001708Y-36521485D01*
X33940348Y-36521485D01*
X33934326Y-36520648D01*
X33922577Y-36524863D01*
X33892589Y-36552763D01*
X33887833Y-36571209D01*
X30565073Y-36571209D01*
X30565340Y-36408595D01*
X30566224Y-36207366D01*
X30567586Y-36022705D01*
X30569370Y-35858630D01*
X30571522Y-35719157D01*
X30573983Y-35608303D01*
X30576700Y-35530087D01*
X30579614Y-35488524D01*
X30580865Y-35482992D01*
X30609688Y-35465474D01*
X30675211Y-35441087D01*
X30772566Y-35410960D01*
X30896882Y-35376220D01*
X31043288Y-35337997D01*
X31206915Y-35297417D01*
X31382893Y-35255611D01*
X31566352Y-35213705D01*
X31752422Y-35172828D01*
X31936232Y-35134109D01*
X32112913Y-35098675D01*
X32277594Y-35067656D01*
X32425406Y-35042178D01*
X32551479Y-35023371D01*
X32581071Y-35019594D01*
X32648248Y-35009349D01*
X32696091Y-34998201D01*
X32711689Y-34990755D01*
X32704581Y-34968234D01*
X32678522Y-34918660D01*
X32638032Y-34850211D01*
X32604809Y-34797437D01*
X32372997Y-34428681D01*
X32132609Y-34029758D01*
X31889168Y-33610420D01*
X31648200Y-33180417D01*
X31415228Y-32749498D01*
X31195777Y-32327415D01*
X31118062Y-32173333D01*
X30816339Y-31549776D01*
X30546639Y-30949723D01*
X30307985Y-30370158D01*
X30099402Y-29808066D01*
X29919917Y-29260430D01*
X29768553Y-28724235D01*
X29644335Y-28196465D01*
X29546289Y-27674105D01*
X29473439Y-27154137D01*
X29461896Y-27051000D01*
X29451470Y-26922494D01*
X29443806Y-26763477D01*
X29438906Y-26583635D01*
X29436771Y-26392655D01*
X29437199Y-26262311D01*
X29557045Y-26262311D01*
X29558438Y-26493922D01*
X29564471Y-26724060D01*
X29575099Y-26944022D01*
X29590278Y-27145101D01*
X29608097Y-27305000D01*
X29705271Y-27898435D01*
X29839051Y-28507376D01*
X30009574Y-29132157D01*
X30216978Y-29773114D01*
X30461402Y-30430581D01*
X30742982Y-31104895D01*
X31061858Y-31796390D01*
X31418166Y-32505402D01*
X31812046Y-33232265D01*
X32243634Y-33977316D01*
X32580886Y-34530153D01*
X32666305Y-34667125D01*
X32732627Y-34772235D01*
X32783092Y-34849585D01*
X32820937Y-34903275D01*
X32849400Y-34937405D01*
X32871721Y-34956077D01*
X32891136Y-34963391D01*
X32910884Y-34963448D01*
X32921921Y-34962033D01*
X32960516Y-34956952D01*
X33034713Y-34947508D01*
X33138101Y-34934504D01*
X33264264Y-34918746D01*
X33406790Y-34901037D01*
X33538583Y-34884733D01*
X33690111Y-34865961D01*
X33830840Y-34848406D01*
X33954357Y-34832878D01*
X34054245Y-34820186D01*
X34124089Y-34811140D01*
X34155354Y-34806877D01*
X34213570Y-34784545D01*
X34221701Y-34772580D01*
X34405691Y-34772580D01*
X34429327Y-34774672D01*
X34487875Y-34773645D01*
X34574052Y-34769801D01*
X34680576Y-34763443D01*
X34760623Y-34757858D01*
X34911079Y-34747375D01*
X35084958Y-34736210D01*
X35263388Y-34725524D01*
X35427499Y-34716473D01*
X35469561Y-34714328D01*
X35834205Y-34696158D01*
X36115144Y-34507340D01*
X36528700Y-34242877D01*
X36930005Y-34014511D01*
X37324534Y-33819896D01*
X37717763Y-33656687D01*
X38115168Y-33522538D01*
X38522225Y-33415102D01*
X38798500Y-33357750D01*
X38966874Y-33332934D01*
X39165185Y-33314461D01*
X39381470Y-33302621D01*
X39603766Y-33297705D01*
X39820111Y-33300004D01*
X40018543Y-33309809D01*
X40166182Y-33324522D01*
X40582130Y-33400654D01*
X40989181Y-33517718D01*
X41385574Y-33674922D01*
X41769551Y-33871471D01*
X42139353Y-34106570D01*
X42481500Y-34369564D01*
X42630723Y-34501664D01*
X42794991Y-34658923D01*
X42965151Y-34831764D01*
X43132050Y-35010610D01*
X43286538Y-35185883D01*
X43419461Y-35348005D01*
X43432564Y-35364871D01*
X43501468Y-35453760D01*
X43560698Y-35529461D01*
X43605729Y-35586248D01*
X43632036Y-35618394D01*
X43636903Y-35623500D01*
X43664822Y-35629742D01*
X43727371Y-35647301D01*
X43818914Y-35674419D01*
X43933816Y-35709341D01*
X44066441Y-35750312D01*
X44211155Y-35795575D01*
X44362322Y-35843375D01*
X44514307Y-35891957D01*
X44661475Y-35939565D01*
X44798189Y-35984443D01*
X44839233Y-35998082D01*
X45387217Y-36180807D01*
X45749400Y-36129695D01*
X46149920Y-36089969D01*
X46560031Y-36081086D01*
X46965310Y-36102987D01*
X47233416Y-36135835D01*
X47550916Y-36184416D01*
X47868416Y-36073846D01*
X47991505Y-36031883D01*
X48142257Y-35981897D01*
X48307798Y-35928072D01*
X48475257Y-35874595D01*
X48630416Y-35826065D01*
X48768774Y-35783509D01*
X48900983Y-35743125D01*
X49019043Y-35707335D01*
X49114954Y-35678561D01*
X49180718Y-35659225D01*
X49192836Y-35655777D01*
X49254500Y-35635955D01*
X49300398Y-35611611D01*
X49342060Y-35573670D01*
X49391013Y-35513056D01*
X49414752Y-35481063D01*
X49646341Y-35186369D01*
X49901796Y-34898639D01*
X50173695Y-34625048D01*
X50454614Y-34372770D01*
X50737131Y-34148978D01*
X50937583Y-34009371D01*
X51048449Y-33941434D01*
X51184493Y-33865094D01*
X51335895Y-33785231D01*
X51492836Y-33706726D01*
X51645495Y-33634460D01*
X51784054Y-33573312D01*
X51898692Y-33528165D01*
X51921833Y-33520160D01*
X52191604Y-33439423D01*
X52477174Y-33370440D01*
X52599356Y-33345872D01*
X52705362Y-33330811D01*
X52843827Y-33318307D01*
X53004941Y-33308608D01*
X53178892Y-33301965D01*
X53355870Y-33298625D01*
X53526063Y-33298837D01*
X53679661Y-33302851D01*
X53806853Y-33310914D01*
X53840436Y-33314398D01*
X54306237Y-33390005D01*
X54774190Y-33507797D01*
X55244090Y-33667691D01*
X55715731Y-33869604D01*
X56188906Y-34113453D01*
X56663410Y-34399155D01*
X56857480Y-34527818D01*
X57104710Y-34696081D01*
X57513646Y-34716774D01*
X57671050Y-34725283D01*
X57842156Y-34735444D01*
X58011582Y-34746287D01*
X58163942Y-34756839D01*
X58245375Y-34762990D01*
X58357681Y-34770729D01*
X58452671Y-34775085D01*
X58523299Y-34775907D01*
X58562520Y-34773040D01*
X58568166Y-34770005D01*
X58560569Y-34740347D01*
X58539288Y-34677357D01*
X58506591Y-34586914D01*
X58464747Y-34474901D01*
X58416022Y-34347198D01*
X58362686Y-34209684D01*
X58307004Y-34068242D01*
X58251246Y-33928752D01*
X58197679Y-33797095D01*
X58148571Y-33679150D01*
X58136942Y-33651760D01*
X57804046Y-32919130D01*
X57444072Y-32218461D01*
X57057154Y-31549922D01*
X56643427Y-30913677D01*
X56203024Y-30309895D01*
X55736080Y-29738741D01*
X55242729Y-29200384D01*
X54723106Y-28694989D01*
X54177344Y-28222723D01*
X54141798Y-28195432D01*
X54404743Y-28195432D01*
X54421526Y-28213269D01*
X54463880Y-28252510D01*
X54525147Y-28307111D01*
X54588833Y-28362560D01*
X54692590Y-28455551D01*
X54818776Y-28574344D01*
X54961687Y-28713106D01*
X55115621Y-28866006D01*
X55274875Y-29027211D01*
X55433747Y-29190888D01*
X55586534Y-29351204D01*
X55727533Y-29502327D01*
X55851042Y-29638425D01*
X55951358Y-29753664D01*
X55965825Y-29770916D01*
X56435193Y-30365295D01*
X56874297Y-30985112D01*
X57283897Y-31631721D01*
X57664755Y-32306477D01*
X58017632Y-33010738D01*
X58343288Y-33745857D01*
X58642484Y-34513190D01*
X58668589Y-34585122D01*
X58748321Y-34806161D01*
X59171535Y-34853998D01*
X59316357Y-34870829D01*
X59461166Y-34888479D01*
X59595290Y-34905589D01*
X59708061Y-34920798D01*
X59785250Y-34932179D01*
X59874013Y-34945975D01*
X59949504Y-34957081D01*
X60000016Y-34963802D01*
X60011232Y-34964928D01*
X60039024Y-34947286D01*
X60085797Y-34891956D01*
X60151467Y-34799047D01*
X60224450Y-34686875D01*
X60564161Y-34136890D01*
X60899646Y-33566671D01*
X61222984Y-32990157D01*
X61526254Y-32421288D01*
X61658486Y-32162750D01*
X61978150Y-31505183D01*
X62263262Y-30868620D01*
X62514603Y-30250749D01*
X62732953Y-29649260D01*
X62919095Y-29061839D01*
X63073808Y-28486175D01*
X63197874Y-27919956D01*
X63292075Y-27360871D01*
X63299919Y-27305000D01*
X63313883Y-27177242D01*
X63325744Y-27017007D01*
X63335317Y-26833389D01*
X63342415Y-26635477D01*
X63346854Y-26432363D01*
X63348448Y-26233138D01*
X63347011Y-26046894D01*
X63342357Y-25882722D01*
X63334302Y-25749714D01*
X63332144Y-25726434D01*
X63290033Y-25407965D01*
X63229199Y-25098092D01*
X63151488Y-24802277D01*
X63058743Y-24525982D01*
X62952809Y-24274667D01*
X62835532Y-24053793D01*
X62708754Y-23868823D01*
X62701804Y-23860124D01*
X62629332Y-23770166D01*
X62371457Y-23770291D01*
X62135526Y-23778541D01*
X61897629Y-23804170D01*
X61645529Y-23848848D01*
X61427487Y-23898904D01*
X61067933Y-24000821D01*
X60684012Y-24133132D01*
X60279052Y-24294213D01*
X59856383Y-24482443D01*
X59419336Y-24696200D01*
X58971239Y-24933862D01*
X58515423Y-25193807D01*
X58055217Y-25474413D01*
X57636833Y-25745413D01*
X57528122Y-25817915D01*
X57436123Y-25879656D01*
X57355150Y-25934710D01*
X57279520Y-25987148D01*
X57203548Y-26041046D01*
X57121550Y-26100474D01*
X57027841Y-26169508D01*
X56916737Y-26252219D01*
X56782554Y-26352681D01*
X56638971Y-26460429D01*
X56485458Y-26576097D01*
X56319602Y-26701819D01*
X56144445Y-26835233D01*
X55963028Y-26973976D01*
X55778392Y-27115687D01*
X55593580Y-27258003D01*
X55411633Y-27398563D01*
X55235592Y-27535005D01*
X55068499Y-27664967D01*
X54913395Y-27786087D01*
X54773322Y-27896004D01*
X54651322Y-27992354D01*
X54550436Y-28072776D01*
X54473705Y-28134909D01*
X54424172Y-28176391D01*
X54404877Y-28194858D01*
X54404743Y-28195432D01*
X54141798Y-28195432D01*
X53605579Y-27783753D01*
X53170666Y-27483647D01*
X52593996Y-27127901D01*
X51990046Y-26801850D01*
X51363469Y-26507394D01*
X50718913Y-26246432D01*
X50061031Y-26020865D01*
X49394472Y-25832592D01*
X48799750Y-25698340D01*
X48114798Y-25583170D01*
X47421988Y-25508712D01*
X46719764Y-25474852D01*
X46006570Y-25481477D01*
X45881073Y-25486764D01*
X45202599Y-25539390D01*
X44522837Y-25633012D01*
X43845110Y-25766546D01*
X43172738Y-25938905D01*
X42509044Y-26149004D01*
X41857349Y-26395759D01*
X41220975Y-26678084D01*
X40603243Y-26994894D01*
X40007474Y-27345103D01*
X39814500Y-27468969D01*
X39225024Y-27880917D01*
X38660983Y-28326602D01*
X38122580Y-28805768D01*
X37610016Y-29318159D01*
X37123495Y-29863520D01*
X36663220Y-30441594D01*
X36229395Y-31052126D01*
X35822222Y-31694860D01*
X35441903Y-32369540D01*
X35088643Y-33075911D01*
X34762644Y-33813716D01*
X34744029Y-33858799D01*
X34685061Y-34004083D01*
X34626875Y-34150946D01*
X34571463Y-34294003D01*
X34520820Y-34427870D01*
X34476939Y-34547159D01*
X34441815Y-34646485D01*
X34417442Y-34720463D01*
X34405815Y-34763708D01*
X34405691Y-34772580D01*
X34221701Y-34772580D01*
X34244337Y-34739274D01*
X34259138Y-34700183D01*
X34285443Y-34629509D01*
X34320225Y-34535432D01*
X34360457Y-34426130D01*
X34387106Y-34353500D01*
X34635637Y-33718989D01*
X34913350Y-33090394D01*
X35217261Y-32473010D01*
X35544392Y-31872131D01*
X35891760Y-31293053D01*
X36256386Y-30741071D01*
X36635288Y-30221479D01*
X36901250Y-29887333D01*
X37074526Y-29683552D01*
X37267014Y-29467637D01*
X37472041Y-29246454D01*
X37682930Y-29026870D01*
X37893009Y-28815751D01*
X38095601Y-28619963D01*
X38284033Y-28446372D01*
X38402784Y-28342719D01*
X38484955Y-28271223D01*
X38536994Y-28221079D01*
X38562550Y-28188128D01*
X38565273Y-28168211D01*
X38560594Y-28162813D01*
X38538630Y-28145797D01*
X38486632Y-28105362D01*
X38407952Y-28044120D01*
X38305942Y-27964679D01*
X38183954Y-27869652D01*
X38045340Y-27761650D01*
X37893451Y-27643281D01*
X37731639Y-27517158D01*
X37718060Y-27506573D01*
X37359277Y-27227651D01*
X37030425Y-26973678D01*
X36728765Y-26742682D01*
X36451561Y-26532690D01*
X36196074Y-26341728D01*
X35959565Y-26167822D01*
X35739297Y-26009001D01*
X35532533Y-25863290D01*
X35336533Y-25728716D01*
X35148559Y-25603306D01*
X34965875Y-25485087D01*
X34785741Y-25372086D01*
X34605421Y-25262329D01*
X34596916Y-25257230D01*
X34150198Y-24997715D01*
X33709509Y-24757786D01*
X33279424Y-24539674D01*
X32864524Y-24345609D01*
X32469383Y-24177822D01*
X32098581Y-24038543D01*
X32088666Y-24035100D01*
X31827988Y-23951405D01*
X31564915Y-23879362D01*
X31305951Y-23820124D01*
X31057598Y-23774846D01*
X30826361Y-23744682D01*
X30618741Y-23730784D01*
X30441242Y-23734308D01*
X30409877Y-23737211D01*
X30271527Y-23752027D01*
X30166780Y-23903972D01*
X30006887Y-24169283D01*
X29868489Y-24469548D01*
X29752267Y-24802856D01*
X29658905Y-25167294D01*
X29598772Y-25495250D01*
X29581156Y-25645698D01*
X29568359Y-25829494D01*
X29560337Y-26037934D01*
X29557045Y-26262311D01*
X29437199Y-26262311D01*
X29437404Y-26200222D01*
X29440806Y-26016023D01*
X29446982Y-25849744D01*
X29455931Y-25711071D01*
X29461576Y-25654000D01*
X29512586Y-25311142D01*
X29583903Y-24979735D01*
X29673670Y-24665235D01*
X29780029Y-24373100D01*
X29901121Y-24108786D01*
X30035090Y-23877751D01*
X30096171Y-23790025D01*
X30149395Y-23720206D01*
X30191632Y-23675427D01*
X30236273Y-23646117D01*
X30296704Y-23622705D01*
X30355258Y-23604792D01*
X30846151Y-23480864D01*
X31355640Y-23393832D01*
X31881845Y-23343540D01*
X32422886Y-23329833D01*
X32976885Y-23352552D01*
G37*
X32976885Y-23352552D02*
X33541963Y-23411543D01*
X34116240Y-23506649D01*
X34697838Y-23637713D01*
X35284877Y-23804580D01*
X35875478Y-24007092D01*
X36066372Y-24079969D01*
X36680300Y-24337115D01*
X37300949Y-24629783D01*
X37920850Y-24953607D01*
X38532535Y-25304224D01*
X39128537Y-25677271D01*
X39701386Y-26068383D01*
X40243615Y-26473197D01*
X40465973Y-26650780D01*
X40641197Y-26793712D01*
X41090390Y-26575171D01*
X41750869Y-26276762D01*
X42422604Y-26018384D01*
X43104075Y-25800262D01*
X43793760Y-25622621D01*
X44490137Y-25485686D01*
X45191686Y-25389682D01*
X45896885Y-25334835D01*
X46604214Y-25321368D01*
X47312149Y-25349508D01*
X48019172Y-25419479D01*
X48461853Y-25484875D01*
X49150359Y-25618793D01*
X49821060Y-25788506D01*
X50478775Y-25995557D01*
X51128320Y-26241493D01*
X51774513Y-26527859D01*
X51896543Y-26586594D01*
X52368670Y-26816673D01*
X52616210Y-26619705D01*
X53101806Y-26249488D01*
X53618945Y-25885395D01*
X54157411Y-25533863D01*
X54706988Y-25201332D01*
X55257459Y-24894242D01*
X55763583Y-24635988D01*
X56396761Y-24345166D01*
X57018860Y-24093684D01*
X57632380Y-23880784D01*
X58239820Y-23705711D01*
X58843679Y-23567707D01*
X59446458Y-23466015D01*
X59753500Y-23427973D01*
X59895686Y-23416244D01*
X60069840Y-23407845D01*
X60266850Y-23402714D01*
X60477606Y-23400790D01*
X60692998Y-23402013D01*
X60903914Y-23406321D01*
X61101246Y-23413652D01*
X61275881Y-23423945D01*
X61418710Y-23437139D01*
X61436250Y-23439291D01*
X61801220Y-23494440D01*
X62161623Y-23565317D01*
X62462779Y-23638569D01*
X62560867Y-23665446D01*
X62628368Y-23687201D01*
X62675590Y-23709652D01*
X62712842Y-23738616D01*
X62750432Y-23779908D01*
X62782006Y-23818690D01*
X62902357Y-23991690D01*
X63015570Y-24200828D01*
X63119588Y-24440211D01*
X63212355Y-24703952D01*
X63291812Y-24986157D01*
X63355903Y-25280939D01*
X63402570Y-25582406D01*
X63404996Y-25602469D01*
X63420086Y-25768694D01*
X63430449Y-25966330D01*
X63436085Y-26184721D01*
X63436996Y-26413210D01*
X63433186Y-26641141D01*
X63424654Y-26857857D01*
X63411403Y-27052700D01*
X63404724Y-27122687D01*
X63331100Y-27671106D01*
X63224084Y-28233073D01*
X63083293Y-28809762D01*
X62908346Y-29402344D01*
X62698861Y-30011995D01*
X62454457Y-30639886D01*
X62174752Y-31287192D01*
X61859364Y-31955086D01*
X61782689Y-32109833D01*
X61513024Y-32637423D01*
X61240860Y-33144780D01*
X60958908Y-33644891D01*
X60659876Y-34150744D01*
X60394580Y-34582512D01*
X60323869Y-34696606D01*
X60261931Y-34798073D01*
X60211905Y-34881647D01*
X60176927Y-34942059D01*
X60160134Y-34974043D01*
X60159214Y-34977699D01*
X60181210Y-34983227D01*
X60238720Y-34994831D01*
X60325548Y-35011340D01*
X60435500Y-35031583D01*
X60562380Y-35054391D01*
X60608094Y-35062490D01*
X60832273Y-35103510D01*
X61055657Y-35147102D01*
X61274132Y-35192259D01*
X61483583Y-35237977D01*
X61679895Y-35283252D01*
X61858954Y-35327077D01*
X62016644Y-35368448D01*
X62148851Y-35406360D01*
X62251460Y-35439807D01*
X62320356Y-35467785D01*
X62350649Y-35488125D01*
X62357540Y-35518354D01*
X62363544Y-35585728D01*
X62368666Y-35685376D01*
X62372911Y-35812427D01*
X62376285Y-35962011D01*
X62378792Y-36129255D01*
X62380437Y-36309289D01*
X62381225Y-36497242D01*
X62381162Y-36688242D01*
X62380252Y-36877419D01*
X62378500Y-37059902D01*
X62375912Y-37230819D01*
X62372492Y-37385299D01*
X62368245Y-37518472D01*
X62363177Y-37625466D01*
X62357292Y-37701410D01*
X62350596Y-37741433D01*
X62348321Y-37745821D01*
X62313358Y-37764008D01*
X62249883Y-37783417D01*
X62171383Y-37799953D01*
X62168316Y-37800465D01*
X61985374Y-37843086D01*
X61811607Y-37907064D01*
X61655649Y-37988052D01*
X61526137Y-38081703D01*
X61446700Y-38163667D01*
X61390209Y-38241076D01*
X61348484Y-38315910D01*
X61318992Y-38397210D01*
X61299203Y-38494023D01*
X61286585Y-38615390D01*
X61278873Y-38763293D01*
X61266916Y-39077336D01*
X61477328Y-39239543D01*
X61828994Y-39502744D01*
X62157900Y-39732648D01*
X62463754Y-39929091D01*
X62746262Y-40091912D01*
X63005129Y-40220948D01*
X63240062Y-40316036D01*
X63450766Y-40377013D01*
X63570406Y-40397776D01*
X63672562Y-40410244D01*
X63561237Y-40530414D01*
X63520458Y-40573746D01*
X63454425Y-40643072D01*
X63367359Y-40734000D01*
X63263478Y-40842135D01*
X63147004Y-40963084D01*
X63022155Y-41092454D01*
X62910276Y-41208159D01*
X62370641Y-41765736D01*
X62407826Y-41834783D01*
X62467973Y-41914796D01*
X62566373Y-42004467D01*
X62700501Y-42102075D01*
X62867836Y-42205900D01*
X63065852Y-42314221D01*
X63232350Y-42397074D01*
X63513360Y-42526358D01*
X63765187Y-42630700D01*
X63991668Y-42711647D01*
X64080234Y-42739065D01*
X64155380Y-42762827D01*
X64211712Y-42783790D01*
X64239490Y-42798230D01*
X64240833Y-42800450D01*
X64228811Y-42836562D01*
X64195862Y-42899091D01*
X64146656Y-42980740D01*
X64085868Y-43074212D01*
X64018169Y-43172209D01*
X63948232Y-43267433D01*
X63911765Y-43314396D01*
X63617861Y-43655704D01*
X63283321Y-43991492D01*
X62909590Y-44320893D01*
X62498108Y-44643038D01*
X62050317Y-44957061D01*
X61567661Y-45262092D01*
X61051580Y-45557264D01*
X60503519Y-45841710D01*
X59924917Y-46114560D01*
X59317219Y-46374949D01*
X58681865Y-46622006D01*
X58039000Y-46848602D01*
X57275058Y-47090705D01*
X56476020Y-47316626D01*
X55646334Y-47525292D01*
X54790449Y-47715630D01*
X53912812Y-47886570D01*
X53282868Y-47994931D01*
X53126532Y-48020388D01*
X52980772Y-48044145D01*
X52851726Y-48065202D01*
X52745533Y-48082555D01*
X52668330Y-48095203D01*
X52626256Y-48102143D01*
X52624507Y-48102436D01*
X52601557Y-48107355D01*
X52590595Y-48114978D01*
X52595278Y-48128565D01*
X52619265Y-48151376D01*
X52666215Y-48186673D01*
X52739785Y-48237714D01*
X52843635Y-48307760D01*
X52889090Y-48338225D01*
X53614507Y-48842161D01*
X54301628Y-49356830D01*
X54953720Y-49884912D01*
X55574048Y-50429085D01*
X56165877Y-50992029D01*
X56356555Y-51183467D01*
X56801361Y-51636083D01*
X57192639Y-51557655D01*
X57301981Y-51536444D01*
X57445889Y-51509611D01*
X57617159Y-51478441D01*
X57808592Y-51444220D01*
X58012986Y-51408232D01*
X58223139Y-51371764D01*
X58431851Y-51336099D01*
X58472916Y-51329154D01*
X58835365Y-51267488D01*
X59159101Y-51211247D01*
X59447293Y-51159674D01*
X59703108Y-51112011D01*
X59929712Y-51067501D01*
X60130275Y-51025387D01*
X60231173Y-51002403D01*
X60708765Y-51002403D01*
X60850257Y-51042692D01*
X61126908Y-51134930D01*
X61416019Y-51255929D01*
X61705793Y-51399750D01*
X61984437Y-51560456D01*
X62240155Y-51732110D01*
X62283369Y-51764111D01*
X62537315Y-51970249D01*
X62785658Y-52200532D01*
X63020939Y-52446848D01*
X63235700Y-52701085D01*
X63422482Y-52955134D01*
X63522684Y-53111858D01*
X63561095Y-53173216D01*
X63591634Y-53216990D01*
X63607503Y-53233566D01*
X63614499Y-53214056D01*
X63625085Y-53160181D01*
X63637954Y-53079628D01*
X63651795Y-52980080D01*
X63655181Y-52953708D01*
X63695689Y-52594678D01*
X63725590Y-52237921D01*
X63744049Y-51921833D01*
X63749284Y-51806114D01*
X63751146Y-51721716D01*
X63748407Y-51657677D01*
X63739840Y-51603039D01*
X63724216Y-51546842D01*
X63700308Y-51478127D01*
X63691668Y-51454344D01*
X63572962Y-51183999D01*
X63423540Y-50937129D01*
X63246374Y-50716491D01*
X63044438Y-50524841D01*
X62820706Y-50364937D01*
X62578151Y-50239536D01*
X62319747Y-50151395D01*
X62274411Y-50140304D01*
X62172069Y-50116681D01*
X61976950Y-50288883D01*
X61678384Y-50525424D01*
X61362010Y-50723942D01*
X61028782Y-50883871D01*
X60892590Y-50936333D01*
X60708765Y-51002403D01*
X60231173Y-51002403D01*
X60307962Y-50984911D01*
X60465942Y-50945318D01*
X60607382Y-50905848D01*
X60735450Y-50865746D01*
X60853312Y-50824254D01*
X60964136Y-50780614D01*
X61071090Y-50734070D01*
X61177341Y-50683864D01*
X61182250Y-50681461D01*
X61481639Y-50511858D01*
X61768495Y-50303536D01*
X62040315Y-50058903D01*
X62294596Y-49780369D01*
X62528836Y-49470341D01*
X62673239Y-49246336D01*
X62806143Y-49009136D01*
X62935453Y-48746215D01*
X63054805Y-48472116D01*
X63157832Y-48201385D01*
X63232621Y-47968163D01*
X63279390Y-47804916D01*
X63488756Y-47804916D01*
X63535866Y-48064623D01*
X63666412Y-48861173D01*
X63764272Y-49631262D01*
X63829439Y-50374792D01*
X63861904Y-51091670D01*
X63861659Y-51781799D01*
X63857849Y-51911810D01*
X63818856Y-52550451D01*
X63746260Y-53163417D01*
X63639945Y-53750929D01*
X63499797Y-54313209D01*
X63325700Y-54850479D01*
X63117539Y-55362960D01*
X62875199Y-55850875D01*
X62598565Y-56314445D01*
X62287522Y-56753892D01*
X61941954Y-57169437D01*
X61561746Y-57561302D01*
X61146784Y-57929709D01*
X60696952Y-58274880D01*
X60473166Y-58429338D01*
X60366528Y-58498484D01*
X60234755Y-58580834D01*
X60089762Y-58669118D01*
X59943467Y-58756067D01*
X59827583Y-58823158D01*
X59400742Y-59071939D01*
X59007799Y-59312566D01*
X58642217Y-59549418D01*
X58297458Y-59786875D01*
X57966985Y-60029316D01*
X57644260Y-60281120D01*
X57610375Y-60308429D01*
X57404000Y-60475247D01*
X57404230Y-60786415D01*
X57404627Y-60844633D01*
X57405732Y-60942461D01*
X57407502Y-61077183D01*
X57409896Y-61246083D01*
X57412869Y-61446445D01*
X57416379Y-61675551D01*
X57420383Y-61930686D01*
X57424838Y-62209134D01*
X57429701Y-62508177D01*
X57434929Y-62825101D01*
X57440479Y-63157187D01*
X57446309Y-63501721D01*
X57452375Y-63855986D01*
X57456667Y-64104216D01*
X57464908Y-64587319D01*
X57472125Y-65028541D01*
X57478321Y-65428322D01*
X57483502Y-65787101D01*
X57487672Y-66105319D01*
X57490835Y-66383415D01*
X57492995Y-66621829D01*
X57494158Y-66821000D01*
X57494328Y-66981370D01*
X57493508Y-67103376D01*
X57491705Y-67187460D01*
X57488921Y-67234061D01*
X57488321Y-67238470D01*
X57432545Y-67463878D01*
X57342100Y-67673663D01*
X57220438Y-67862841D01*
X57071008Y-68026431D01*
X56897261Y-68159451D01*
X56819518Y-68204141D01*
X56782563Y-68223866D01*
X56749333Y-68241708D01*
X56717642Y-68257759D01*
X56685303Y-68272107D01*
X56650128Y-68284845D01*
X56609931Y-68296061D01*
X56562525Y-68305847D01*
X56505722Y-68314292D01*
X56437336Y-68321486D01*
X56355179Y-68327521D01*
X56257064Y-68332485D01*
X56140805Y-68336470D01*
X56004214Y-68339565D01*
X55845104Y-68341862D01*
X55661289Y-68343449D01*
X55450580Y-68344418D01*
X55210792Y-68344858D01*
X54939737Y-68344860D01*
X54635228Y-68344514D01*
X54295078Y-68343910D01*
X53917100Y-68343139D01*
X53499107Y-68342291D01*
X53472711Y-68342239D01*
X50556583Y-68336583D01*
X50419000Y-68287096D01*
X50206145Y-68189790D01*
X50019238Y-68061620D01*
X49861172Y-67905568D01*
X49734838Y-67724618D01*
X49643128Y-67521752D01*
X49626476Y-67469745D01*
X49603040Y-67377726D01*
X49578483Y-67260074D01*
X49556021Y-67133266D01*
X49541531Y-67034833D01*
X49479637Y-66708276D01*
X49382508Y-66405093D01*
X49250452Y-66125666D01*
X49083778Y-65870376D01*
X48882796Y-65639604D01*
X48647815Y-65433732D01*
X48379144Y-65253140D01*
X48077091Y-65098211D01*
X47918188Y-65032240D01*
X47596887Y-64927127D01*
X47251737Y-64849150D01*
X46892464Y-64799661D01*
X46528797Y-64780015D01*
X46182140Y-64790669D01*
X45794383Y-64835663D01*
X45430547Y-64910069D01*
X45092052Y-65013032D01*
X44780316Y-65143698D01*
X44496760Y-65301212D01*
X44242802Y-65484720D01*
X44019861Y-65693367D01*
X43829357Y-65926299D01*
X43672710Y-66182661D01*
X43595252Y-66348111D01*
X43537470Y-66498233D01*
X43489917Y-66650979D01*
X43449810Y-66817327D01*
X43414361Y-67008257D01*
X43393604Y-67143093D01*
X43364506Y-67318772D01*
X43331511Y-67462090D01*
X43291318Y-67583018D01*
X43240627Y-67691524D01*
X43177739Y-67795184D01*
X43053359Y-67948799D01*
X42900308Y-68085266D01*
X42728028Y-68198259D01*
X42545960Y-68281453D01*
X42387654Y-68324542D01*
X42347259Y-68328253D01*
X42269031Y-68331601D01*
X42152554Y-68334588D01*
X41997414Y-68337217D01*
X41803196Y-68339492D01*
X41569485Y-68341415D01*
X41295866Y-68342989D01*
X40981924Y-68344218D01*
X40627245Y-68345103D01*
X40231413Y-68345649D01*
X39794014Y-68345857D01*
X39392570Y-68345773D01*
X38977724Y-68345519D01*
X38603135Y-68345165D01*
X38266725Y-68344687D01*
X37966419Y-68344065D01*
X37700139Y-68343276D01*
X37465809Y-68342297D01*
X37261353Y-68341106D01*
X37084693Y-68339681D01*
X36933753Y-68338000D01*
X36806457Y-68336039D01*
X36700727Y-68333777D01*
X36614487Y-68331192D01*
X36545661Y-68328261D01*
X36492171Y-68324961D01*
X36451941Y-68321271D01*
X36422895Y-68317168D01*
X36406666Y-68313666D01*
X36233229Y-68254884D01*
X36077925Y-68172354D01*
X35929513Y-68059390D01*
X35843505Y-67978631D01*
X35749747Y-67880068D01*
X35680256Y-67793474D01*
X35625222Y-67705698D01*
X35593173Y-67643069D01*
X35573726Y-67603413D01*
X35555999Y-67567905D01*
X35539943Y-67534510D01*
X35525510Y-67501192D01*
X35512652Y-67465917D01*
X35501322Y-67426648D01*
X35491471Y-67381352D01*
X35483052Y-67327992D01*
X35476017Y-67264533D01*
X35470317Y-67188941D01*
X35465906Y-67099180D01*
X35462735Y-66993215D01*
X35460755Y-66869011D01*
X35459921Y-66724532D01*
X35460182Y-66557743D01*
X35461492Y-66366610D01*
X35463803Y-66149097D01*
X35467067Y-65903168D01*
X35471235Y-65626789D01*
X35476261Y-65317924D01*
X35482096Y-64974539D01*
X35488692Y-64594597D01*
X35496001Y-64176065D01*
X35502628Y-63794862D01*
X35560551Y-60448144D01*
X35345136Y-60211947D01*
X35016091Y-59829048D01*
X34728330Y-59446596D01*
X34480870Y-59062616D01*
X34272733Y-58675133D01*
X34102935Y-58282171D01*
X33970498Y-57881756D01*
X33874439Y-57471913D01*
X33824876Y-57150555D01*
X33805543Y-56908742D01*
X33801369Y-56639849D01*
X33806831Y-56489453D01*
X33955358Y-56489453D01*
X33955715Y-56675101D01*
X33960916Y-56864557D01*
X33970641Y-57046528D01*
X33984568Y-57209721D01*
X34002379Y-57342846D01*
X34003823Y-57351083D01*
X34100278Y-57779432D01*
X34234622Y-58195914D01*
X34407677Y-58602187D01*
X34620261Y-58999908D01*
X34873196Y-59390736D01*
X35167302Y-59776328D01*
X35256366Y-59882675D01*
X35318863Y-59959314D01*
X35369362Y-60027784D01*
X35402152Y-60079908D01*
X35411833Y-60105288D01*
X35425166Y-60140774D01*
X35460171Y-60195317D01*
X35509358Y-60257291D01*
X35510867Y-60259021D01*
X35563500Y-60317127D01*
X35596898Y-60346688D01*
X35618229Y-60352253D01*
X35634662Y-60338366D01*
X35635081Y-60337798D01*
X35645190Y-60324515D01*
X35654354Y-60314838D01*
X35662582Y-60310600D01*
X35669885Y-60313636D01*
X35676271Y-60325777D01*
X35681750Y-60348857D01*
X35686332Y-60384709D01*
X35690027Y-60435167D01*
X35692843Y-60502064D01*
X35694790Y-60587232D01*
X35695878Y-60692505D01*
X35696117Y-60819716D01*
X35695515Y-60970698D01*
X35694083Y-61147285D01*
X35691830Y-61351310D01*
X35688765Y-61584605D01*
X35684898Y-61849004D01*
X35680239Y-62146341D01*
X35674797Y-62478447D01*
X35668582Y-62847158D01*
X35661602Y-63254305D01*
X35653869Y-63701721D01*
X35652874Y-63759183D01*
X35645189Y-64203836D01*
X35638253Y-64608174D01*
X35632052Y-64974208D01*
X35626573Y-65303949D01*
X35621802Y-65599409D01*
X35617728Y-65862598D01*
X35614337Y-66095529D01*
X35611617Y-66300211D01*
X35609553Y-66478657D01*
X35608133Y-66632877D01*
X35607345Y-66764884D01*
X35607174Y-66876687D01*
X35607609Y-66970299D01*
X35608635Y-67047730D01*
X35610241Y-67110992D01*
X35612413Y-67162097D01*
X35615138Y-67203054D01*
X35618404Y-67235876D01*
X35622196Y-67262574D01*
X35626502Y-67285159D01*
X35629993Y-67300326D01*
X35700876Y-67509155D01*
X35804971Y-67698393D01*
X35938351Y-67863847D01*
X36097087Y-68001327D01*
X36277251Y-68106641D01*
X36442466Y-68167233D01*
X36464612Y-68171355D01*
X36500876Y-68175084D01*
X36553189Y-68178440D01*
X36623478Y-68181442D01*
X36713675Y-68184110D01*
X36825709Y-68186462D01*
X36961508Y-68188518D01*
X37123004Y-68190297D01*
X37312125Y-68191819D01*
X37530800Y-68193102D01*
X37780961Y-68194166D01*
X38064535Y-68195031D01*
X38383453Y-68195715D01*
X38739644Y-68196239D01*
X39135038Y-68196620D01*
X39401750Y-68196794D01*
X39814791Y-68196972D01*
X40187615Y-68197014D01*
X40522339Y-68196897D01*
X40821077Y-68196601D01*
X41085947Y-68196105D01*
X41319064Y-68195387D01*
X41522545Y-68194427D01*
X41698506Y-68193204D01*
X41849062Y-68191696D01*
X41976330Y-68189883D01*
X42082426Y-68187743D01*
X42169465Y-68185255D01*
X42239566Y-68182399D01*
X42294842Y-68179153D01*
X42337411Y-68175496D01*
X42369388Y-68171407D01*
X42392208Y-68167027D01*
X42593328Y-68098800D01*
X42773211Y-67995862D01*
X42928571Y-67861841D01*
X43056123Y-67700364D01*
X43152583Y-67515058D01*
X43214666Y-67309550D01*
X43225800Y-67246500D01*
X43252489Y-67071133D01*
X43275351Y-66930123D01*
X43295954Y-66815839D01*
X43315867Y-66720649D01*
X43336660Y-66636922D01*
X43359901Y-66557028D01*
X43380995Y-66491693D01*
X43503827Y-66186479D01*
X43659874Y-65907323D01*
X43848790Y-65654482D01*
X44070228Y-65428212D01*
X44323843Y-65228771D01*
X44609288Y-65056414D01*
X44926217Y-64911398D01*
X45274283Y-64793979D01*
X45653140Y-64704415D01*
X45836416Y-64672830D01*
X45987184Y-64655384D01*
X46167372Y-64643655D01*
X46365318Y-64637639D01*
X46569357Y-64637335D01*
X46767825Y-64642741D01*
X46949057Y-64653856D01*
X47101391Y-64670676D01*
X47117000Y-64673050D01*
X47422218Y-64729442D01*
X47697544Y-64798733D01*
X47954327Y-64884273D01*
X48203917Y-64989413D01*
X48230220Y-65001750D01*
X48447087Y-65114262D01*
X48638256Y-65236489D01*
X48817490Y-65378251D01*
X48998546Y-65549367D01*
X49000833Y-65551686D01*
X49185442Y-65758706D01*
X49339658Y-65976112D01*
X49465923Y-66209310D01*
X49566679Y-66463703D01*
X49644367Y-66744699D01*
X49701431Y-67057700D01*
X49710226Y-67121872D01*
X49735086Y-67284200D01*
X49764555Y-67415160D01*
X49802090Y-67525701D01*
X49851145Y-67626773D01*
X49889882Y-67691076D01*
X49974851Y-67801380D01*
X50083752Y-67910831D01*
X50202716Y-68006929D01*
X50317877Y-68077173D01*
X50318533Y-68077494D01*
X50352589Y-68094411D01*
X50383376Y-68109698D01*
X50413095Y-68123433D01*
X50443943Y-68135695D01*
X50478117Y-68146561D01*
X50517817Y-68156111D01*
X50565240Y-68164423D01*
X50622584Y-68171575D01*
X50692048Y-68177646D01*
X50775829Y-68182713D01*
X50876126Y-68186857D01*
X50995137Y-68190154D01*
X51135060Y-68192684D01*
X51298092Y-68194525D01*
X51486433Y-68195756D01*
X51702280Y-68196454D01*
X51947832Y-68196698D01*
X52225286Y-68196567D01*
X52536840Y-68196139D01*
X52884693Y-68195493D01*
X53271043Y-68194707D01*
X53585369Y-68194076D01*
X56483250Y-68188416D01*
X56604652Y-68139385D01*
X56806372Y-68036163D01*
X56980439Y-67901074D01*
X57125528Y-67735358D01*
X57236451Y-67548339D01*
X57252469Y-67515686D01*
X57267062Y-67485847D01*
X57280261Y-67456808D01*
X57292102Y-67426559D01*
X57302617Y-67393087D01*
X57311841Y-67354380D01*
X57319806Y-67308425D01*
X57326547Y-67253212D01*
X57332097Y-67186727D01*
X57336490Y-67106958D01*
X57339759Y-67011894D01*
X57341939Y-66899523D01*
X57343062Y-66767832D01*
X57343163Y-66614808D01*
X57342275Y-66438441D01*
X57340432Y-66236718D01*
X57337667Y-66007627D01*
X57334015Y-65749155D01*
X57329508Y-65459291D01*
X57324180Y-65136022D01*
X57318066Y-64777337D01*
X57311198Y-64381223D01*
X57303611Y-63945669D01*
X57300095Y-63743416D01*
X57292439Y-63301691D01*
X57285522Y-62900332D01*
X57279334Y-62537379D01*
X57273862Y-62210873D01*
X57269095Y-61918853D01*
X57265023Y-61659359D01*
X57261634Y-61430431D01*
X57258916Y-61230109D01*
X57256859Y-61056432D01*
X57255451Y-60907441D01*
X57254680Y-60781175D01*
X57254537Y-60675675D01*
X57255009Y-60588979D01*
X57256084Y-60519129D01*
X57257753Y-60464163D01*
X57260003Y-60422122D01*
X57262823Y-60391046D01*
X57266203Y-60368974D01*
X57270130Y-60353947D01*
X57274593Y-60344004D01*
X57279582Y-60337184D01*
X57280504Y-60336171D01*
X57308682Y-60307903D01*
X57318294Y-60310691D01*
X57319333Y-60335448D01*
X57325978Y-60350007D01*
X57348836Y-60340244D01*
X57392296Y-60303374D01*
X57435731Y-60261517D01*
X57503835Y-60188203D01*
X57537510Y-60136461D01*
X57540679Y-60110486D01*
X57548697Y-60071044D01*
X57588896Y-60009631D01*
X57624246Y-59967422D01*
X57634839Y-59954577D01*
X57848500Y-59954577D01*
X57864516Y-59946044D01*
X57908508Y-59916587D01*
X57974392Y-59870425D01*
X58056084Y-59811774D01*
X58087667Y-59788797D01*
X58204735Y-59704510D01*
X58339299Y-59609443D01*
X58473511Y-59516122D01*
X58574501Y-59447177D01*
X58663423Y-59386246D01*
X58738190Y-59333195D01*
X58792493Y-59292641D01*
X58820023Y-59269203D01*
X58822166Y-59265887D01*
X58805350Y-59249233D01*
X58760309Y-59216572D01*
X58695154Y-59173617D01*
X58658804Y-59150826D01*
X58581183Y-59103678D01*
X58531207Y-59076692D01*
X58500814Y-59067288D01*
X58481944Y-59072882D01*
X58467484Y-59089546D01*
X58445382Y-59122031D01*
X58405656Y-59181559D01*
X58353870Y-59259755D01*
X58295588Y-59348245D01*
X58293560Y-59351333D01*
X58218672Y-59461517D01*
X58132906Y-59581744D01*
X58048642Y-59694907D01*
X57998046Y-59759682D01*
X57938463Y-59834560D01*
X57890148Y-59896674D01*
X57858436Y-59939068D01*
X57848500Y-59954577D01*
X57634839Y-59954577D01*
X57942728Y-59581255D01*
X58220203Y-59186180D01*
X58456558Y-58782425D01*
X58651680Y-58370218D01*
X58805454Y-57949788D01*
X58917768Y-57521363D01*
X58963320Y-57272846D01*
X58980153Y-57129455D01*
X58992009Y-56955899D01*
X58998795Y-56764064D01*
X59000416Y-56565834D01*
X58996777Y-56373096D01*
X58987785Y-56197735D01*
X58973345Y-56051636D01*
X58973033Y-56049333D01*
X58889811Y-55589333D01*
X58765269Y-55126660D01*
X58599316Y-54661158D01*
X58391864Y-54192669D01*
X58142821Y-53721037D01*
X57852098Y-53246105D01*
X57519605Y-52767716D01*
X57145253Y-52285713D01*
X57051088Y-52175833D01*
X57255494Y-52175833D01*
X57384848Y-52335380D01*
X57602230Y-52616512D01*
X57817095Y-52919213D01*
X58024856Y-53235803D01*
X58220923Y-53558598D01*
X58400707Y-53879918D01*
X58559619Y-54192081D01*
X58693070Y-54487405D01*
X58740369Y-54604432D01*
X58777812Y-54696385D01*
X58811834Y-54771854D01*
X58838728Y-54823141D01*
X58854790Y-54842547D01*
X58854974Y-54842557D01*
X58886230Y-54852347D01*
X58948378Y-54879247D01*
X59035160Y-54920061D01*
X59140321Y-54971592D01*
X59257607Y-55030646D01*
X59380762Y-55094026D01*
X59503530Y-55158537D01*
X59619656Y-55220983D01*
X59722884Y-55278169D01*
X59806959Y-55326898D01*
X59827583Y-55339434D01*
X60224836Y-55606421D01*
X60593310Y-55898860D01*
X60930547Y-56214373D01*
X61234085Y-56550583D01*
X61501464Y-56905111D01*
X61595859Y-57048540D01*
X61636632Y-57114670D01*
X61668242Y-57163199D01*
X61695555Y-57192355D01*
X61723437Y-57200363D01*
X61756756Y-57185451D01*
X61800377Y-57145843D01*
X61859167Y-57079767D01*
X61937991Y-56985449D01*
X62011589Y-56897016D01*
X62335828Y-56477168D01*
X62627604Y-56032345D01*
X62878571Y-55577340D01*
X62993390Y-55348765D01*
X62867981Y-55175174D01*
X62563696Y-54789068D01*
X62223530Y-54422157D01*
X61850185Y-54076215D01*
X61446363Y-53753015D01*
X61014764Y-53454330D01*
X60558090Y-53181933D01*
X60079043Y-52937597D01*
X59580324Y-52723097D01*
X59064635Y-52540204D01*
X58684583Y-52429152D01*
X58537234Y-52391963D01*
X58372556Y-52353941D01*
X58197701Y-52316416D01*
X58019821Y-52280719D01*
X57846070Y-52248181D01*
X57683600Y-52220133D01*
X57539563Y-52197906D01*
X57421113Y-52182831D01*
X57335401Y-52176239D01*
X57324455Y-52176057D01*
X57255494Y-52175833D01*
X57051088Y-52175833D01*
X56728951Y-51799940D01*
X56270610Y-51310239D01*
X56240270Y-51279197D01*
X55661096Y-50714029D01*
X55041826Y-50159654D01*
X54383511Y-49616936D01*
X53687207Y-49086737D01*
X52953967Y-48569919D01*
X52815142Y-48476371D01*
X52322035Y-48146389D01*
X52042559Y-48182887D01*
X51250679Y-48280519D01*
X50465329Y-48365439D01*
X49677256Y-48438419D01*
X48877206Y-48500232D01*
X48055926Y-48551650D01*
X47204162Y-48593446D01*
X47044523Y-48600103D01*
X46744452Y-48609679D01*
X46464238Y-48612653D01*
X46182835Y-48609017D01*
X45901523Y-48599693D01*
X44850108Y-48548258D01*
X43832600Y-48481817D01*
X42850576Y-48400496D01*
X41905615Y-48304422D01*
X41258223Y-48227343D01*
X41105685Y-48208141D01*
X40966294Y-48190822D01*
X40845747Y-48176077D01*
X40749742Y-48164595D01*
X40683974Y-48157065D01*
X40654141Y-48154177D01*
X40653596Y-48154166D01*
X40619656Y-48166375D01*
X40555204Y-48201417D01*
X40463736Y-48256918D01*
X40348749Y-48330501D01*
X40213740Y-48419791D01*
X40062206Y-48522413D01*
X39897642Y-48635990D01*
X39723547Y-48758149D01*
X39543415Y-48886512D01*
X39360745Y-49018705D01*
X39179033Y-49152352D01*
X39123553Y-49193624D01*
X38518575Y-49659866D01*
X37946639Y-50131064D01*
X37408851Y-50606073D01*
X36906317Y-51083747D01*
X36440143Y-51562939D01*
X36011434Y-52042505D01*
X35621297Y-52521299D01*
X35270837Y-52998175D01*
X34961161Y-53471987D01*
X34906619Y-53562250D01*
X34651631Y-54018969D01*
X34436909Y-54466782D01*
X34261785Y-54907561D01*
X34125587Y-55343176D01*
X34027644Y-55775500D01*
X33970457Y-56174742D01*
X33960165Y-56318902D01*
X33955358Y-56489453D01*
X33806831Y-56489453D01*
X33811677Y-56356054D01*
X33835787Y-56069535D01*
X33873022Y-55792471D01*
X33912086Y-55584502D01*
X34032358Y-55122766D01*
X34194322Y-54656650D01*
X34397617Y-54186643D01*
X34641883Y-53713231D01*
X34926759Y-53236902D01*
X35251883Y-52758143D01*
X35616897Y-52277443D01*
X36021438Y-51795287D01*
X36465146Y-51312164D01*
X36947660Y-50828560D01*
X37468620Y-50344964D01*
X38027665Y-49861863D01*
X38332833Y-49611384D01*
X38528167Y-49456048D01*
X38739435Y-49292111D01*
X38960843Y-49123801D01*
X39186601Y-48955347D01*
X39410918Y-48790977D01*
X39628000Y-48634920D01*
X39832057Y-48491403D01*
X40017297Y-48364656D01*
X40177929Y-48258907D01*
X40233365Y-48223826D01*
X40301621Y-48179599D01*
X40352071Y-48143721D01*
X40377059Y-48121780D01*
X40378157Y-48118102D01*
X40355240Y-48112019D01*
X40297093Y-48100739D01*
X40210340Y-48085429D01*
X40101603Y-48067254D01*
X39977505Y-48047382D01*
X39969875Y-48046186D01*
X39073760Y-47894884D01*
X38203247Y-47725697D01*
X37359559Y-47539051D01*
X36543920Y-47335375D01*
X35757554Y-47115097D01*
X35001685Y-46878645D01*
X34277536Y-46626446D01*
X33586332Y-46358928D01*
X32929295Y-46076520D01*
X32307651Y-45779649D01*
X31722623Y-45468744D01*
X31175434Y-45144231D01*
X30667309Y-44806539D01*
X30631544Y-44781216D01*
X30323720Y-44552801D01*
X30029015Y-44315406D01*
X29751265Y-44072798D01*
X29494307Y-43828743D01*
X29261976Y-43587007D01*
X29058110Y-43351356D01*
X28886545Y-43125556D01*
X28781490Y-42965122D01*
X28742388Y-42897183D01*
X28714015Y-42841646D01*
X28702074Y-42809749D01*
X28702000Y-42808535D01*
X28720779Y-42790415D01*
X28769867Y-42767613D01*
X28834291Y-42746375D01*
X28997619Y-42694628D01*
X29186063Y-42624941D01*
X29388961Y-42542004D01*
X29595650Y-42450504D01*
X29795468Y-42355130D01*
X29977754Y-42260570D01*
X30107029Y-42186709D01*
X30235845Y-42102755D01*
X30350884Y-42015976D01*
X30445241Y-41932258D01*
X30512015Y-41857485D01*
X30534491Y-41822287D01*
X30566057Y-41761246D01*
X29974761Y-41152998D01*
X29843103Y-41017316D01*
X29718846Y-40888787D01*
X29605525Y-40771100D01*
X29506673Y-40667948D01*
X29425826Y-40583022D01*
X29366517Y-40520011D01*
X29332281Y-40482607D01*
X29327781Y-40477360D01*
X29272096Y-40409971D01*
X29373339Y-40396289D01*
X29571496Y-40354833D01*
X29791059Y-40280984D01*
X30032550Y-40174453D01*
X30296492Y-40034953D01*
X30353972Y-40000343D01*
X36810507Y-40000343D01*
X36824336Y-40295393D01*
X36872725Y-40586602D01*
X36955202Y-40870715D01*
X37071297Y-41144476D01*
X37220538Y-41404631D01*
X37402455Y-41647922D01*
X37616577Y-41871096D01*
X37862433Y-42070895D01*
X38037075Y-42185512D01*
X38267789Y-42305844D01*
X38521979Y-42406327D01*
X38783728Y-42481455D01*
X39011397Y-42522686D01*
X39152474Y-42533129D01*
X39318961Y-42534117D01*
X39495153Y-42526294D01*
X39665348Y-42510306D01*
X39794915Y-42490524D01*
X40024668Y-42432220D01*
X40264066Y-42344833D01*
X40498999Y-42234317D01*
X40715356Y-42106626D01*
X40733614Y-42094373D01*
X40855575Y-42001807D01*
X40988823Y-41884200D01*
X41122222Y-41752416D01*
X41244634Y-41617321D01*
X41323995Y-41518416D01*
X41387226Y-41426367D01*
X41457335Y-41312163D01*
X41524396Y-41192503D01*
X41564478Y-41113880D01*
X41685047Y-40817982D01*
X41765416Y-40516332D01*
X41806753Y-40212178D01*
X41809000Y-40015583D01*
X51130763Y-40015583D01*
X51137514Y-40263507D01*
X51162348Y-40485111D01*
X51208223Y-40693613D01*
X51278096Y-40902232D01*
X51374924Y-41124186D01*
X51382144Y-41139229D01*
X51535243Y-41409398D01*
X51720599Y-41655702D01*
X51934460Y-41876082D01*
X52173071Y-42068478D01*
X52432680Y-42230830D01*
X52709534Y-42361079D01*
X52999880Y-42457165D01*
X53299965Y-42517028D01*
X53606037Y-42538610D01*
X53900916Y-42521535D01*
X54221589Y-42461911D01*
X54526277Y-42364949D01*
X54812407Y-42232998D01*
X55077407Y-42068411D01*
X55318702Y-41873536D01*
X55533719Y-41650726D01*
X55719884Y-41402330D01*
X55874625Y-41130700D01*
X55995367Y-40838186D01*
X56078440Y-40532506D01*
X56122033Y-40218802D01*
X56125005Y-39906584D01*
X56089023Y-39599285D01*
X56015756Y-39300340D01*
X55906871Y-39013181D01*
X55764035Y-38741242D01*
X55588916Y-38487958D01*
X55383182Y-38256762D01*
X55148500Y-38051087D01*
X54886537Y-37874368D01*
X54751878Y-37800979D01*
X54458485Y-37675286D01*
X54158193Y-37589581D01*
X53854356Y-37542778D01*
X53550330Y-37533793D01*
X53249468Y-37561540D01*
X52955125Y-37624934D01*
X52670657Y-37722891D01*
X52399417Y-37854324D01*
X52144761Y-38018149D01*
X51910043Y-38213282D01*
X51698618Y-38438635D01*
X51513840Y-38693126D01*
X51404344Y-38883773D01*
X51292611Y-39124563D01*
X51212443Y-39358834D01*
X51160912Y-39598689D01*
X51135095Y-39856231D01*
X51130763Y-40015583D01*
X41809000Y-40015583D01*
X41810221Y-39908773D01*
X41776989Y-39609364D01*
X41750599Y-39497245D01*
X45476500Y-39497245D01*
X45480034Y-39530703D01*
X45486413Y-39557702D01*
X45502922Y-39611135D01*
X45516588Y-39642077D01*
X45520080Y-39645166D01*
X45543357Y-39639892D01*
X45598754Y-39625588D01*
X45677595Y-39604535D01*
X45757389Y-39582809D01*
X45991798Y-39523604D01*
X46197756Y-39482256D01*
X46371879Y-39459373D01*
X46472680Y-39454666D01*
X46580508Y-39461119D01*
X46717313Y-39479125D01*
X46871978Y-39506656D01*
X47033386Y-39541683D01*
X47190417Y-39582176D01*
X47223433Y-39591664D01*
X47304952Y-39615239D01*
X47370184Y-39633462D01*
X47409122Y-39643564D01*
X47415274Y-39644722D01*
X47428561Y-39626846D01*
X47446507Y-39581656D01*
X47452287Y-39563430D01*
X47460364Y-39530692D01*
X47462802Y-39497132D01*
X47458077Y-39455706D01*
X47444665Y-39399371D01*
X47421045Y-39321083D01*
X47385691Y-39213798D01*
X47360665Y-39139796D01*
X47318882Y-39019348D01*
X47278108Y-38906425D01*
X47241690Y-38809973D01*
X47212978Y-38738938D01*
X47199979Y-38710526D01*
X47107327Y-38572814D01*
X46982113Y-38452288D01*
X46832614Y-38354992D01*
X46667110Y-38286971D01*
X46594671Y-38268555D01*
X46445313Y-38257761D01*
X46285973Y-38282475D01*
X46125414Y-38340246D01*
X45972398Y-38428623D01*
X45941618Y-38451166D01*
X45873547Y-38513492D01*
X45810320Y-38594887D01*
X45749234Y-38700347D01*
X45687586Y-38834864D01*
X45622674Y-39003431D01*
X45586139Y-39107945D01*
X45542171Y-39238252D01*
X45510742Y-39335481D01*
X45490334Y-39406488D01*
X45479427Y-39458124D01*
X45476500Y-39497245D01*
X41750599Y-39497245D01*
X41708221Y-39317204D01*
X41605083Y-39035541D01*
X41468741Y-38767626D01*
X41300361Y-38516709D01*
X41101109Y-38286040D01*
X40872150Y-38078869D01*
X40614652Y-37898447D01*
X40362482Y-37763031D01*
X40067048Y-37647649D01*
X39763458Y-37572127D01*
X39455512Y-37535717D01*
X39147011Y-37537669D01*
X38841753Y-37577233D01*
X38543538Y-37653659D01*
X38256166Y-37766199D01*
X37983435Y-37914103D01*
X37729146Y-38096622D01*
X37497098Y-38313005D01*
X37479649Y-38331713D01*
X37276233Y-38581437D01*
X37110202Y-38846854D01*
X36981085Y-39124709D01*
X36888410Y-39411746D01*
X36831708Y-39704709D01*
X36810507Y-40000343D01*
X30353972Y-40000343D01*
X30583409Y-39862196D01*
X30893824Y-39655894D01*
X31228259Y-39415759D01*
X31426463Y-39266219D01*
X31663842Y-39084250D01*
X31663249Y-38967833D01*
X31658576Y-38789841D01*
X31646991Y-38627276D01*
X31629334Y-38487045D01*
X31606448Y-38376057D01*
X31582873Y-38308521D01*
X31497112Y-38176417D01*
X31375353Y-38057850D01*
X31261755Y-37982139D01*
X32900271Y-37982139D01*
X33088698Y-37781778D01*
X33176347Y-37686393D01*
X33268411Y-37582581D01*
X33352851Y-37484101D01*
X33407853Y-37417105D01*
X33488955Y-37309052D01*
X33562461Y-37199689D01*
X33624014Y-37096562D01*
X33669256Y-37007220D01*
X33693830Y-36939208D01*
X33697005Y-36916333D01*
X33709895Y-36861228D01*
X33728453Y-36830695D01*
X33749923Y-36778986D01*
X33748558Y-36749862D01*
X59224333Y-36749862D01*
X59237607Y-36875728D01*
X59278450Y-37009435D01*
X59348392Y-37153463D01*
X59448961Y-37310291D01*
X59581688Y-37482398D01*
X59748102Y-37672261D01*
X59878408Y-37809817D01*
X59946290Y-37877747D01*
X59991594Y-37914975D01*
X60017439Y-37919280D01*
X60026947Y-37888443D01*
X60023237Y-37820242D01*
X60009947Y-37716204D01*
X59967287Y-37544058D01*
X59888430Y-37365540D01*
X59777655Y-37186679D01*
X59639240Y-37013507D01*
X59477464Y-36852052D01*
X59296606Y-36708346D01*
X59293125Y-36705905D01*
X59224333Y-36657784D01*
X59224333Y-36749862D01*
X33748558Y-36749862D01*
X33747145Y-36719717D01*
X33734716Y-36643126D01*
X33626066Y-36720104D01*
X33564853Y-36768312D01*
X33486415Y-36836937D01*
X33402454Y-36915489D01*
X33348083Y-36969316D01*
X33188616Y-37149962D01*
X33068093Y-37329671D01*
X32983631Y-37514043D01*
X32932350Y-37708678D01*
X32919136Y-37802944D01*
X32900271Y-37982139D01*
X31261755Y-37982139D01*
X31222669Y-37956089D01*
X31044133Y-37874406D01*
X30844817Y-37816072D01*
X30807232Y-37808325D01*
X30720166Y-37790249D01*
X30647703Y-37772908D01*
X30600888Y-37759045D01*
X30591124Y-37754667D01*
X30585019Y-37741883D01*
X30579865Y-37710154D01*
X30575597Y-37656684D01*
X30572151Y-37578682D01*
X30569462Y-37473353D01*
X30567465Y-37337905D01*
X30566098Y-37169544D01*
X30565294Y-36965476D01*
X30564989Y-36722909D01*
X30564990Y-36622375D01*
X30565073Y-36571209D01*
X33887833Y-36571209D01*
X33890827Y-36595358D01*
X33893822Y-36595402D01*
X33910078Y-36573388D01*
X33928566Y-36549057D01*
X33946211Y-36522300D01*
X33940348Y-36521485D01*
X59001708Y-36521485D01*
X59002471Y-36537930D01*
X59032646Y-36582650D01*
X59039527Y-36591641D01*
X59065855Y-36607100D01*
X59087367Y-36599213D01*
X59085916Y-36574651D01*
X59058942Y-36549777D01*
X59030100Y-36531668D01*
X59001708Y-36521485D01*
X33940348Y-36521485D01*
X33934326Y-36520648D01*
X33922577Y-36524863D01*
X33892589Y-36552763D01*
X33887833Y-36571209D01*
X30565073Y-36571209D01*
X30565340Y-36408595D01*
X30566224Y-36207366D01*
X30567586Y-36022705D01*
X30569370Y-35858630D01*
X30571522Y-35719157D01*
X30573983Y-35608303D01*
X30576700Y-35530087D01*
X30579614Y-35488524D01*
X30580865Y-35482992D01*
X30609688Y-35465474D01*
X30675211Y-35441087D01*
X30772566Y-35410960D01*
X30896882Y-35376220D01*
X31043288Y-35337997D01*
X31206915Y-35297417D01*
X31382893Y-35255611D01*
X31566352Y-35213705D01*
X31752422Y-35172828D01*
X31936232Y-35134109D01*
X32112913Y-35098675D01*
X32277594Y-35067656D01*
X32425406Y-35042178D01*
X32551479Y-35023371D01*
X32581071Y-35019594D01*
X32648248Y-35009349D01*
X32696091Y-34998201D01*
X32711689Y-34990755D01*
X32704581Y-34968234D01*
X32678522Y-34918660D01*
X32638032Y-34850211D01*
X32604809Y-34797437D01*
X32372997Y-34428681D01*
X32132609Y-34029758D01*
X31889168Y-33610420D01*
X31648200Y-33180417D01*
X31415228Y-32749498D01*
X31195777Y-32327415D01*
X31118062Y-32173333D01*
X30816339Y-31549776D01*
X30546639Y-30949723D01*
X30307985Y-30370158D01*
X30099402Y-29808066D01*
X29919917Y-29260430D01*
X29768553Y-28724235D01*
X29644335Y-28196465D01*
X29546289Y-27674105D01*
X29473439Y-27154137D01*
X29461896Y-27051000D01*
X29451470Y-26922494D01*
X29443806Y-26763477D01*
X29438906Y-26583635D01*
X29436771Y-26392655D01*
X29437199Y-26262311D01*
X29557045Y-26262311D01*
X29558438Y-26493922D01*
X29564471Y-26724060D01*
X29575099Y-26944022D01*
X29590278Y-27145101D01*
X29608097Y-27305000D01*
X29705271Y-27898435D01*
X29839051Y-28507376D01*
X30009574Y-29132157D01*
X30216978Y-29773114D01*
X30461402Y-30430581D01*
X30742982Y-31104895D01*
X31061858Y-31796390D01*
X31418166Y-32505402D01*
X31812046Y-33232265D01*
X32243634Y-33977316D01*
X32580886Y-34530153D01*
X32666305Y-34667125D01*
X32732627Y-34772235D01*
X32783092Y-34849585D01*
X32820937Y-34903275D01*
X32849400Y-34937405D01*
X32871721Y-34956077D01*
X32891136Y-34963391D01*
X32910884Y-34963448D01*
X32921921Y-34962033D01*
X32960516Y-34956952D01*
X33034713Y-34947508D01*
X33138101Y-34934504D01*
X33264264Y-34918746D01*
X33406790Y-34901037D01*
X33538583Y-34884733D01*
X33690111Y-34865961D01*
X33830840Y-34848406D01*
X33954357Y-34832878D01*
X34054245Y-34820186D01*
X34124089Y-34811140D01*
X34155354Y-34806877D01*
X34213570Y-34784545D01*
X34221701Y-34772580D01*
X34405691Y-34772580D01*
X34429327Y-34774672D01*
X34487875Y-34773645D01*
X34574052Y-34769801D01*
X34680576Y-34763443D01*
X34760623Y-34757858D01*
X34911079Y-34747375D01*
X35084958Y-34736210D01*
X35263388Y-34725524D01*
X35427499Y-34716473D01*
X35469561Y-34714328D01*
X35834205Y-34696158D01*
X36115144Y-34507340D01*
X36528700Y-34242877D01*
X36930005Y-34014511D01*
X37324534Y-33819896D01*
X37717763Y-33656687D01*
X38115168Y-33522538D01*
X38522225Y-33415102D01*
X38798500Y-33357750D01*
X38966874Y-33332934D01*
X39165185Y-33314461D01*
X39381470Y-33302621D01*
X39603766Y-33297705D01*
X39820111Y-33300004D01*
X40018543Y-33309809D01*
X40166182Y-33324522D01*
X40582130Y-33400654D01*
X40989181Y-33517718D01*
X41385574Y-33674922D01*
X41769551Y-33871471D01*
X42139353Y-34106570D01*
X42481500Y-34369564D01*
X42630723Y-34501664D01*
X42794991Y-34658923D01*
X42965151Y-34831764D01*
X43132050Y-35010610D01*
X43286538Y-35185883D01*
X43419461Y-35348005D01*
X43432564Y-35364871D01*
X43501468Y-35453760D01*
X43560698Y-35529461D01*
X43605729Y-35586248D01*
X43632036Y-35618394D01*
X43636903Y-35623500D01*
X43664822Y-35629742D01*
X43727371Y-35647301D01*
X43818914Y-35674419D01*
X43933816Y-35709341D01*
X44066441Y-35750312D01*
X44211155Y-35795575D01*
X44362322Y-35843375D01*
X44514307Y-35891957D01*
X44661475Y-35939565D01*
X44798189Y-35984443D01*
X44839233Y-35998082D01*
X45387217Y-36180807D01*
X45749400Y-36129695D01*
X46149920Y-36089969D01*
X46560031Y-36081086D01*
X46965310Y-36102987D01*
X47233416Y-36135835D01*
X47550916Y-36184416D01*
X47868416Y-36073846D01*
X47991505Y-36031883D01*
X48142257Y-35981897D01*
X48307798Y-35928072D01*
X48475257Y-35874595D01*
X48630416Y-35826065D01*
X48768774Y-35783509D01*
X48900983Y-35743125D01*
X49019043Y-35707335D01*
X49114954Y-35678561D01*
X49180718Y-35659225D01*
X49192836Y-35655777D01*
X49254500Y-35635955D01*
X49300398Y-35611611D01*
X49342060Y-35573670D01*
X49391013Y-35513056D01*
X49414752Y-35481063D01*
X49646341Y-35186369D01*
X49901796Y-34898639D01*
X50173695Y-34625048D01*
X50454614Y-34372770D01*
X50737131Y-34148978D01*
X50937583Y-34009371D01*
X51048449Y-33941434D01*
X51184493Y-33865094D01*
X51335895Y-33785231D01*
X51492836Y-33706726D01*
X51645495Y-33634460D01*
X51784054Y-33573312D01*
X51898692Y-33528165D01*
X51921833Y-33520160D01*
X52191604Y-33439423D01*
X52477174Y-33370440D01*
X52599356Y-33345872D01*
X52705362Y-33330811D01*
X52843827Y-33318307D01*
X53004941Y-33308608D01*
X53178892Y-33301965D01*
X53355870Y-33298625D01*
X53526063Y-33298837D01*
X53679661Y-33302851D01*
X53806853Y-33310914D01*
X53840436Y-33314398D01*
X54306237Y-33390005D01*
X54774190Y-33507797D01*
X55244090Y-33667691D01*
X55715731Y-33869604D01*
X56188906Y-34113453D01*
X56663410Y-34399155D01*
X56857480Y-34527818D01*
X57104710Y-34696081D01*
X57513646Y-34716774D01*
X57671050Y-34725283D01*
X57842156Y-34735444D01*
X58011582Y-34746287D01*
X58163942Y-34756839D01*
X58245375Y-34762990D01*
X58357681Y-34770729D01*
X58452671Y-34775085D01*
X58523299Y-34775907D01*
X58562520Y-34773040D01*
X58568166Y-34770005D01*
X58560569Y-34740347D01*
X58539288Y-34677357D01*
X58506591Y-34586914D01*
X58464747Y-34474901D01*
X58416022Y-34347198D01*
X58362686Y-34209684D01*
X58307004Y-34068242D01*
X58251246Y-33928752D01*
X58197679Y-33797095D01*
X58148571Y-33679150D01*
X58136942Y-33651760D01*
X57804046Y-32919130D01*
X57444072Y-32218461D01*
X57057154Y-31549922D01*
X56643427Y-30913677D01*
X56203024Y-30309895D01*
X55736080Y-29738741D01*
X55242729Y-29200384D01*
X54723106Y-28694989D01*
X54177344Y-28222723D01*
X54141798Y-28195432D01*
X54404743Y-28195432D01*
X54421526Y-28213269D01*
X54463880Y-28252510D01*
X54525147Y-28307111D01*
X54588833Y-28362560D01*
X54692590Y-28455551D01*
X54818776Y-28574344D01*
X54961687Y-28713106D01*
X55115621Y-28866006D01*
X55274875Y-29027211D01*
X55433747Y-29190888D01*
X55586534Y-29351204D01*
X55727533Y-29502327D01*
X55851042Y-29638425D01*
X55951358Y-29753664D01*
X55965825Y-29770916D01*
X56435193Y-30365295D01*
X56874297Y-30985112D01*
X57283897Y-31631721D01*
X57664755Y-32306477D01*
X58017632Y-33010738D01*
X58343288Y-33745857D01*
X58642484Y-34513190D01*
X58668589Y-34585122D01*
X58748321Y-34806161D01*
X59171535Y-34853998D01*
X59316357Y-34870829D01*
X59461166Y-34888479D01*
X59595290Y-34905589D01*
X59708061Y-34920798D01*
X59785250Y-34932179D01*
X59874013Y-34945975D01*
X59949504Y-34957081D01*
X60000016Y-34963802D01*
X60011232Y-34964928D01*
X60039024Y-34947286D01*
X60085797Y-34891956D01*
X60151467Y-34799047D01*
X60224450Y-34686875D01*
X60564161Y-34136890D01*
X60899646Y-33566671D01*
X61222984Y-32990157D01*
X61526254Y-32421288D01*
X61658486Y-32162750D01*
X61978150Y-31505183D01*
X62263262Y-30868620D01*
X62514603Y-30250749D01*
X62732953Y-29649260D01*
X62919095Y-29061839D01*
X63073808Y-28486175D01*
X63197874Y-27919956D01*
X63292075Y-27360871D01*
X63299919Y-27305000D01*
X63313883Y-27177242D01*
X63325744Y-27017007D01*
X63335317Y-26833389D01*
X63342415Y-26635477D01*
X63346854Y-26432363D01*
X63348448Y-26233138D01*
X63347011Y-26046894D01*
X63342357Y-25882722D01*
X63334302Y-25749714D01*
X63332144Y-25726434D01*
X63290033Y-25407965D01*
X63229199Y-25098092D01*
X63151488Y-24802277D01*
X63058743Y-24525982D01*
X62952809Y-24274667D01*
X62835532Y-24053793D01*
X62708754Y-23868823D01*
X62701804Y-23860124D01*
X62629332Y-23770166D01*
X62371457Y-23770291D01*
X62135526Y-23778541D01*
X61897629Y-23804170D01*
X61645529Y-23848848D01*
X61427487Y-23898904D01*
X61067933Y-24000821D01*
X60684012Y-24133132D01*
X60279052Y-24294213D01*
X59856383Y-24482443D01*
X59419336Y-24696200D01*
X58971239Y-24933862D01*
X58515423Y-25193807D01*
X58055217Y-25474413D01*
X57636833Y-25745413D01*
X57528122Y-25817915D01*
X57436123Y-25879656D01*
X57355150Y-25934710D01*
X57279520Y-25987148D01*
X57203548Y-26041046D01*
X57121550Y-26100474D01*
X57027841Y-26169508D01*
X56916737Y-26252219D01*
X56782554Y-26352681D01*
X56638971Y-26460429D01*
X56485458Y-26576097D01*
X56319602Y-26701819D01*
X56144445Y-26835233D01*
X55963028Y-26973976D01*
X55778392Y-27115687D01*
X55593580Y-27258003D01*
X55411633Y-27398563D01*
X55235592Y-27535005D01*
X55068499Y-27664967D01*
X54913395Y-27786087D01*
X54773322Y-27896004D01*
X54651322Y-27992354D01*
X54550436Y-28072776D01*
X54473705Y-28134909D01*
X54424172Y-28176391D01*
X54404877Y-28194858D01*
X54404743Y-28195432D01*
X54141798Y-28195432D01*
X53605579Y-27783753D01*
X53170666Y-27483647D01*
X52593996Y-27127901D01*
X51990046Y-26801850D01*
X51363469Y-26507394D01*
X50718913Y-26246432D01*
X50061031Y-26020865D01*
X49394472Y-25832592D01*
X48799750Y-25698340D01*
X48114798Y-25583170D01*
X47421988Y-25508712D01*
X46719764Y-25474852D01*
X46006570Y-25481477D01*
X45881073Y-25486764D01*
X45202599Y-25539390D01*
X44522837Y-25633012D01*
X43845110Y-25766546D01*
X43172738Y-25938905D01*
X42509044Y-26149004D01*
X41857349Y-26395759D01*
X41220975Y-26678084D01*
X40603243Y-26994894D01*
X40007474Y-27345103D01*
X39814500Y-27468969D01*
X39225024Y-27880917D01*
X38660983Y-28326602D01*
X38122580Y-28805768D01*
X37610016Y-29318159D01*
X37123495Y-29863520D01*
X36663220Y-30441594D01*
X36229395Y-31052126D01*
X35822222Y-31694860D01*
X35441903Y-32369540D01*
X35088643Y-33075911D01*
X34762644Y-33813716D01*
X34744029Y-33858799D01*
X34685061Y-34004083D01*
X34626875Y-34150946D01*
X34571463Y-34294003D01*
X34520820Y-34427870D01*
X34476939Y-34547159D01*
X34441815Y-34646485D01*
X34417442Y-34720463D01*
X34405815Y-34763708D01*
X34405691Y-34772580D01*
X34221701Y-34772580D01*
X34244337Y-34739274D01*
X34259138Y-34700183D01*
X34285443Y-34629509D01*
X34320225Y-34535432D01*
X34360457Y-34426130D01*
X34387106Y-34353500D01*
X34635637Y-33718989D01*
X34913350Y-33090394D01*
X35217261Y-32473010D01*
X35544392Y-31872131D01*
X35891760Y-31293053D01*
X36256386Y-30741071D01*
X36635288Y-30221479D01*
X36901250Y-29887333D01*
X37074526Y-29683552D01*
X37267014Y-29467637D01*
X37472041Y-29246454D01*
X37682930Y-29026870D01*
X37893009Y-28815751D01*
X38095601Y-28619963D01*
X38284033Y-28446372D01*
X38402784Y-28342719D01*
X38484955Y-28271223D01*
X38536994Y-28221079D01*
X38562550Y-28188128D01*
X38565273Y-28168211D01*
X38560594Y-28162813D01*
X38538630Y-28145797D01*
X38486632Y-28105362D01*
X38407952Y-28044120D01*
X38305942Y-27964679D01*
X38183954Y-27869652D01*
X38045340Y-27761650D01*
X37893451Y-27643281D01*
X37731639Y-27517158D01*
X37718060Y-27506573D01*
X37359277Y-27227651D01*
X37030425Y-26973678D01*
X36728765Y-26742682D01*
X36451561Y-26532690D01*
X36196074Y-26341728D01*
X35959565Y-26167822D01*
X35739297Y-26009001D01*
X35532533Y-25863290D01*
X35336533Y-25728716D01*
X35148559Y-25603306D01*
X34965875Y-25485087D01*
X34785741Y-25372086D01*
X34605421Y-25262329D01*
X34596916Y-25257230D01*
X34150198Y-24997715D01*
X33709509Y-24757786D01*
X33279424Y-24539674D01*
X32864524Y-24345609D01*
X32469383Y-24177822D01*
X32098581Y-24038543D01*
X32088666Y-24035100D01*
X31827988Y-23951405D01*
X31564915Y-23879362D01*
X31305951Y-23820124D01*
X31057598Y-23774846D01*
X30826361Y-23744682D01*
X30618741Y-23730784D01*
X30441242Y-23734308D01*
X30409877Y-23737211D01*
X30271527Y-23752027D01*
X30166780Y-23903972D01*
X30006887Y-24169283D01*
X29868489Y-24469548D01*
X29752267Y-24802856D01*
X29658905Y-25167294D01*
X29598772Y-25495250D01*
X29581156Y-25645698D01*
X29568359Y-25829494D01*
X29560337Y-26037934D01*
X29557045Y-26262311D01*
X29437199Y-26262311D01*
X29437404Y-26200222D01*
X29440806Y-26016023D01*
X29446982Y-25849744D01*
X29455931Y-25711071D01*
X29461576Y-25654000D01*
X29512586Y-25311142D01*
X29583903Y-24979735D01*
X29673670Y-24665235D01*
X29780029Y-24373100D01*
X29901121Y-24108786D01*
X30035090Y-23877751D01*
X30096171Y-23790025D01*
X30149395Y-23720206D01*
X30191632Y-23675427D01*
X30236273Y-23646117D01*
X30296704Y-23622705D01*
X30355258Y-23604792D01*
X30846151Y-23480864D01*
X31355640Y-23393832D01*
X31881845Y-23343540D01*
X32422886Y-23329833D01*
X32976885Y-23352552D01*
G36*
X56162323Y-65709049D02*
G01*
X56312195Y-65750519D01*
X56445792Y-65826333D01*
X56557852Y-65934396D01*
X56635519Y-66056627D01*
X56663585Y-66118303D01*
X56681166Y-66173337D01*
X56690647Y-66235072D01*
X56694409Y-66316849D01*
X56694916Y-66389250D01*
X56693647Y-66491848D01*
X56688250Y-66565491D01*
X56676344Y-66623521D01*
X56655546Y-66679281D01*
X56635519Y-66721872D01*
X56558682Y-66841463D01*
X56457897Y-66944219D01*
X56344192Y-67019932D01*
X56287805Y-67043827D01*
X56168320Y-67069064D01*
X56031626Y-67073790D01*
X55897474Y-67058137D01*
X55831554Y-67040765D01*
X55717674Y-66984201D01*
X55609426Y-66896942D01*
X55519244Y-66790073D01*
X55483664Y-66730527D01*
X55441550Y-66613803D01*
X55418609Y-66473926D01*
X55416968Y-66389250D01*
X55721250Y-66389250D01*
X55733805Y-66492488D01*
X55775340Y-66575840D01*
X55851654Y-66649568D01*
X55879784Y-66669708D01*
X55968074Y-66707451D01*
X56073119Y-66719606D01*
X56177951Y-66706176D01*
X56262017Y-66669636D01*
X56346382Y-66590075D01*
X56396919Y-66493564D01*
X56413628Y-66388603D01*
X56396508Y-66283695D01*
X56345560Y-66187338D01*
X56262017Y-66108863D01*
X56173144Y-66071086D01*
X56067912Y-66058892D01*
X55963287Y-66072283D01*
X55879784Y-66108791D01*
X55792788Y-66181667D01*
X55742181Y-66261319D01*
X55722163Y-66358009D01*
X55721250Y-66389250D01*
X55416968Y-66389250D01*
X55415740Y-66325930D01*
X55433844Y-66184849D01*
X55447796Y-66131666D01*
X55504101Y-66011891D01*
X55590983Y-65900318D01*
X55697913Y-65807671D01*
X55814360Y-65744672D01*
X55834805Y-65737536D01*
X56001439Y-65704023D01*
X56162323Y-65709049D01*
G37*
X56162323Y-65709049D02*
X56312195Y-65750519D01*
X56445792Y-65826333D01*
X56557852Y-65934396D01*
X56635519Y-66056627D01*
X56663585Y-66118303D01*
X56681166Y-66173337D01*
X56690647Y-66235072D01*
X56694409Y-66316849D01*
X56694916Y-66389250D01*
X56693647Y-66491848D01*
X56688250Y-66565491D01*
X56676344Y-66623521D01*
X56655546Y-66679281D01*
X56635519Y-66721872D01*
X56558682Y-66841463D01*
X56457897Y-66944219D01*
X56344192Y-67019932D01*
X56287805Y-67043827D01*
X56168320Y-67069064D01*
X56031626Y-67073790D01*
X55897474Y-67058137D01*
X55831554Y-67040765D01*
X55717674Y-66984201D01*
X55609426Y-66896942D01*
X55519244Y-66790073D01*
X55483664Y-66730527D01*
X55441550Y-66613803D01*
X55418609Y-66473926D01*
X55416968Y-66389250D01*
X55721250Y-66389250D01*
X55733805Y-66492488D01*
X55775340Y-66575840D01*
X55851654Y-66649568D01*
X55879784Y-66669708D01*
X55968074Y-66707451D01*
X56073119Y-66719606D01*
X56177951Y-66706176D01*
X56262017Y-66669636D01*
X56346382Y-66590075D01*
X56396919Y-66493564D01*
X56413628Y-66388603D01*
X56396508Y-66283695D01*
X56345560Y-66187338D01*
X56262017Y-66108863D01*
X56173144Y-66071086D01*
X56067912Y-66058892D01*
X55963287Y-66072283D01*
X55879784Y-66108791D01*
X55792788Y-66181667D01*
X55742181Y-66261319D01*
X55722163Y-66358009D01*
X55721250Y-66389250D01*
X55416968Y-66389250D01*
X55415740Y-66325930D01*
X55433844Y-66184849D01*
X55447796Y-66131666D01*
X55504101Y-66011891D01*
X55590983Y-65900318D01*
X55697913Y-65807671D01*
X55814360Y-65744672D01*
X55834805Y-65737536D01*
X56001439Y-65704023D01*
X56162323Y-65709049D01*
G36*
X56421642Y-64547032D02*
G01*
X56468766Y-64567748D01*
X56493329Y-64583441D01*
X56585404Y-64664027D01*
X56649798Y-64764261D01*
X56688288Y-64888908D01*
X56702650Y-65042731D01*
X56700959Y-65140416D01*
X56690729Y-65245596D01*
X56671734Y-65346896D01*
X56646600Y-65436035D01*
X56617953Y-65504734D01*
X56588419Y-65544714D01*
X56570601Y-65551432D01*
X56539407Y-65542185D01*
X56483860Y-65520135D01*
X56435625Y-65498928D01*
X56375696Y-65468959D01*
X56335355Y-65443826D01*
X56324510Y-65431870D01*
X56331517Y-65404505D01*
X56349570Y-65351102D01*
X56366844Y-65304231D01*
X56396521Y-65200961D01*
X56408926Y-65099846D01*
X56404036Y-65011568D01*
X56381829Y-64946815D01*
X56367621Y-64929463D01*
X56326264Y-64905111D01*
X56296391Y-64903256D01*
X56275801Y-64926739D01*
X56244979Y-64980402D01*
X56208971Y-65054948D01*
X56188728Y-65101615D01*
X56130426Y-65234118D01*
X56078966Y-65332490D01*
X56029626Y-65403322D01*
X55977685Y-65453207D01*
X55918421Y-65488737D01*
X55908044Y-65493486D01*
X55796997Y-65522738D01*
X55691943Y-65512921D01*
X55596867Y-65467252D01*
X55515754Y-65388946D01*
X55452589Y-65281220D01*
X55411357Y-65147291D01*
X55401625Y-65084750D01*
X55398760Y-64986990D01*
X55407366Y-64869573D01*
X55425129Y-64751585D01*
X55449735Y-64652111D01*
X55456351Y-64633245D01*
X55475802Y-64582085D01*
X55598526Y-64615806D01*
X55666940Y-64636216D01*
X55718470Y-64654552D01*
X55738492Y-64664563D01*
X55742189Y-64691501D01*
X55732974Y-64744242D01*
X55721383Y-64784623D01*
X55700525Y-64874153D01*
X55692912Y-64966051D01*
X55698046Y-65048871D01*
X55715425Y-65111167D01*
X55736830Y-65137942D01*
X55773504Y-65145732D01*
X55811147Y-65121118D01*
X55851786Y-65061500D01*
X55897447Y-64964279D01*
X55923817Y-64898082D01*
X55981701Y-64768315D01*
X56044160Y-64667032D01*
X56071052Y-64634668D01*
X56118164Y-64587696D01*
X56159200Y-64561253D01*
X56210496Y-64548239D01*
X56284848Y-64541773D01*
X56365865Y-64539479D01*
X56421642Y-64547032D01*
G37*
X56421642Y-64547032D02*
X56468766Y-64567748D01*
X56493329Y-64583441D01*
X56585404Y-64664027D01*
X56649798Y-64764261D01*
X56688288Y-64888908D01*
X56702650Y-65042731D01*
X56700959Y-65140416D01*
X56690729Y-65245596D01*
X56671734Y-65346896D01*
X56646600Y-65436035D01*
X56617953Y-65504734D01*
X56588419Y-65544714D01*
X56570601Y-65551432D01*
X56539407Y-65542185D01*
X56483860Y-65520135D01*
X56435625Y-65498928D01*
X56375696Y-65468959D01*
X56335355Y-65443826D01*
X56324510Y-65431870D01*
X56331517Y-65404505D01*
X56349570Y-65351102D01*
X56366844Y-65304231D01*
X56396521Y-65200961D01*
X56408926Y-65099846D01*
X56404036Y-65011568D01*
X56381829Y-64946815D01*
X56367621Y-64929463D01*
X56326264Y-64905111D01*
X56296391Y-64903256D01*
X56275801Y-64926739D01*
X56244979Y-64980402D01*
X56208971Y-65054948D01*
X56188728Y-65101615D01*
X56130426Y-65234118D01*
X56078966Y-65332490D01*
X56029626Y-65403322D01*
X55977685Y-65453207D01*
X55918421Y-65488737D01*
X55908044Y-65493486D01*
X55796997Y-65522738D01*
X55691943Y-65512921D01*
X55596867Y-65467252D01*
X55515754Y-65388946D01*
X55452589Y-65281220D01*
X55411357Y-65147291D01*
X55401625Y-65084750D01*
X55398760Y-64986990D01*
X55407366Y-64869573D01*
X55425129Y-64751585D01*
X55449735Y-64652111D01*
X55456351Y-64633245D01*
X55475802Y-64582085D01*
X55598526Y-64615806D01*
X55666940Y-64636216D01*
X55718470Y-64654552D01*
X55738492Y-64664563D01*
X55742189Y-64691501D01*
X55732974Y-64744242D01*
X55721383Y-64784623D01*
X55700525Y-64874153D01*
X55692912Y-64966051D01*
X55698046Y-65048871D01*
X55715425Y-65111167D01*
X55736830Y-65137942D01*
X55773504Y-65145732D01*
X55811147Y-65121118D01*
X55851786Y-65061500D01*
X55897447Y-64964279D01*
X55923817Y-64898082D01*
X55981701Y-64768315D01*
X56044160Y-64667032D01*
X56071052Y-64634668D01*
X56118164Y-64587696D01*
X56159200Y-64561253D01*
X56210496Y-64548239D01*
X56284848Y-64541773D01*
X56365865Y-64539479D01*
X56421642Y-64547032D01*
G36*
X54932900Y-63510112D02*
G01*
X54988658Y-63536059D01*
X55029058Y-63558208D01*
X55129117Y-63616416D01*
X55108652Y-63698206D01*
X55101710Y-63762033D01*
X55121609Y-63804437D01*
X55172653Y-63828727D01*
X55259148Y-63838212D01*
X55291378Y-63838666D01*
X55414333Y-63838666D01*
X55414333Y-63563500D01*
X55731833Y-63563500D01*
X55731833Y-63838666D01*
X56684333Y-63838666D01*
X56684333Y-64177333D01*
X55731833Y-64177333D01*
X55731833Y-64367833D01*
X55414333Y-64367833D01*
X55414333Y-64177333D01*
X55232323Y-64177333D01*
X55085306Y-64168401D01*
X54973385Y-64139606D01*
X54892826Y-64087944D01*
X54839896Y-64010413D01*
X54810861Y-63904011D01*
X54803759Y-63832737D01*
X54804975Y-63736012D01*
X54817794Y-63645169D01*
X54839602Y-63569419D01*
X54867781Y-63517973D01*
X54898250Y-63500000D01*
X54932900Y-63510112D01*
G37*
X54932900Y-63510112D02*
X54988658Y-63536059D01*
X55029058Y-63558208D01*
X55129117Y-63616416D01*
X55108652Y-63698206D01*
X55101710Y-63762033D01*
X55121609Y-63804437D01*
X55172653Y-63828727D01*
X55259148Y-63838212D01*
X55291378Y-63838666D01*
X55414333Y-63838666D01*
X55414333Y-63563500D01*
X55731833Y-63563500D01*
X55731833Y-63838666D01*
X56684333Y-63838666D01*
X56684333Y-64177333D01*
X55731833Y-64177333D01*
X55731833Y-64367833D01*
X55414333Y-64367833D01*
X55414333Y-64177333D01*
X55232323Y-64177333D01*
X55085306Y-64168401D01*
X54973385Y-64139606D01*
X54892826Y-64087944D01*
X54839896Y-64010413D01*
X54810861Y-63904011D01*
X54803759Y-63832737D01*
X54804975Y-63736012D01*
X54817794Y-63645169D01*
X54839602Y-63569419D01*
X54867781Y-63517973D01*
X54898250Y-63500000D01*
X54932900Y-63510112D01*
G36*
X48423585Y-57235985D02*
G01*
X48428945Y-57292917D01*
X48429009Y-57298224D01*
X48427838Y-57311789D01*
X48423044Y-57327523D01*
X48412876Y-57347270D01*
X48395580Y-57372871D01*
X48369406Y-57406167D01*
X48332601Y-57449000D01*
X48283415Y-57503213D01*
X48220094Y-57570646D01*
X48140889Y-57653142D01*
X48044046Y-57752542D01*
X47927814Y-57870689D01*
X47790441Y-58009423D01*
X47630176Y-58170587D01*
X47445266Y-58356023D01*
X47233961Y-58567572D01*
X46994508Y-58807075D01*
X46982302Y-58819281D01*
X45535271Y-60266196D01*
X45444915Y-60250930D01*
X45354559Y-60235665D01*
X44817613Y-60772301D01*
X44694007Y-60896199D01*
X44580434Y-61010737D01*
X44480256Y-61112472D01*
X44396833Y-61197962D01*
X44333526Y-61263764D01*
X44293697Y-61306432D01*
X44280666Y-61322401D01*
X44298085Y-61338742D01*
X44340570Y-61360630D01*
X44346042Y-61362943D01*
X44411418Y-61390023D01*
X43229572Y-62572011D01*
X43044151Y-62757302D01*
X42867362Y-62933674D01*
X42701485Y-63098867D01*
X42548804Y-63250624D01*
X42411599Y-63386685D01*
X42292153Y-63504791D01*
X42192749Y-63602683D01*
X42115667Y-63678102D01*
X42063192Y-63728789D01*
X42037603Y-63752486D01*
X42035468Y-63754000D01*
X42014199Y-63740094D01*
X41978227Y-63706040D01*
X41972736Y-63700270D01*
X41922260Y-63646541D01*
X45159139Y-60409610D01*
X45579730Y-59989206D01*
X45971513Y-59597998D01*
X46334418Y-59236055D01*
X46668380Y-58903441D01*
X46973328Y-58600226D01*
X47249197Y-58326475D01*
X47495917Y-58082255D01*
X47713421Y-57867634D01*
X47901641Y-57682679D01*
X48060509Y-57527457D01*
X48189957Y-57402034D01*
X48289917Y-57306478D01*
X48360322Y-57240856D01*
X48401103Y-57205235D01*
X48412352Y-57198381D01*
X48423585Y-57235985D01*
G37*
X48423585Y-57235985D02*
X48428945Y-57292917D01*
X48429009Y-57298224D01*
X48427838Y-57311789D01*
X48423044Y-57327523D01*
X48412876Y-57347270D01*
X48395580Y-57372871D01*
X48369406Y-57406167D01*
X48332601Y-57449000D01*
X48283415Y-57503213D01*
X48220094Y-57570646D01*
X48140889Y-57653142D01*
X48044046Y-57752542D01*
X47927814Y-57870689D01*
X47790441Y-58009423D01*
X47630176Y-58170587D01*
X47445266Y-58356023D01*
X47233961Y-58567572D01*
X46994508Y-58807075D01*
X46982302Y-58819281D01*
X45535271Y-60266196D01*
X45444915Y-60250930D01*
X45354559Y-60235665D01*
X44817613Y-60772301D01*
X44694007Y-60896199D01*
X44580434Y-61010737D01*
X44480256Y-61112472D01*
X44396833Y-61197962D01*
X44333526Y-61263764D01*
X44293697Y-61306432D01*
X44280666Y-61322401D01*
X44298085Y-61338742D01*
X44340570Y-61360630D01*
X44346042Y-61362943D01*
X44411418Y-61390023D01*
X43229572Y-62572011D01*
X43044151Y-62757302D01*
X42867362Y-62933674D01*
X42701485Y-63098867D01*
X42548804Y-63250624D01*
X42411599Y-63386685D01*
X42292153Y-63504791D01*
X42192749Y-63602683D01*
X42115667Y-63678102D01*
X42063192Y-63728789D01*
X42037603Y-63752486D01*
X42035468Y-63754000D01*
X42014199Y-63740094D01*
X41978227Y-63706040D01*
X41972736Y-63700270D01*
X41922260Y-63646541D01*
X45159139Y-60409610D01*
X45579730Y-59989206D01*
X45971513Y-59597998D01*
X46334418Y-59236055D01*
X46668380Y-58903441D01*
X46973328Y-58600226D01*
X47249197Y-58326475D01*
X47495917Y-58082255D01*
X47713421Y-57867634D01*
X47901641Y-57682679D01*
X48060509Y-57527457D01*
X48189957Y-57402034D01*
X48289917Y-57306478D01*
X48360322Y-57240856D01*
X48401103Y-57205235D01*
X48412352Y-57198381D01*
X48423585Y-57235985D01*
G36*
X56618762Y-62332616D02*
G01*
X56641097Y-62378547D01*
X56656124Y-62415208D01*
X56681281Y-62511815D01*
X56694804Y-62631688D01*
X56696915Y-62761303D01*
X56687834Y-62887135D01*
X56667782Y-62995661D01*
X56645637Y-63057644D01*
X56562577Y-63186096D01*
X56454779Y-63288615D01*
X56382829Y-63333304D01*
X56290463Y-63366488D01*
X56173060Y-63388709D01*
X56046988Y-63397826D01*
X55932470Y-63392198D01*
X55786248Y-63352998D01*
X55653530Y-63275901D01*
X55539011Y-63164417D01*
X55453677Y-63034333D01*
X55429083Y-62980558D01*
X55414029Y-62925712D01*
X55406346Y-62856919D01*
X55403869Y-62761305D01*
X55403808Y-62738000D01*
X55408739Y-62619400D01*
X55422414Y-62514216D01*
X55443045Y-62428904D01*
X55468846Y-62369921D01*
X55498031Y-62343724D01*
X55512649Y-62344664D01*
X55548949Y-62356777D01*
X55610179Y-62375599D01*
X55658534Y-62389888D01*
X55720966Y-62408653D01*
X55762858Y-62422423D01*
X55773937Y-62427293D01*
X55768228Y-62447830D01*
X55753857Y-62496304D01*
X55742187Y-62534989D01*
X55713789Y-62675930D01*
X55721420Y-62796318D01*
X55765829Y-62899002D01*
X55847769Y-62986830D01*
X55864752Y-62999946D01*
X55945025Y-63035464D01*
X56043281Y-63044373D01*
X56146814Y-63029230D01*
X56242921Y-62992590D01*
X56318898Y-62937009D01*
X56345124Y-62903315D01*
X56376107Y-62820203D01*
X56387700Y-62713267D01*
X56379575Y-62596484D01*
X56354729Y-62493316D01*
X56336773Y-62435761D01*
X56327966Y-62397920D01*
X56328270Y-62390137D01*
X56351104Y-62382040D01*
X56401371Y-62367203D01*
X56465480Y-62349336D01*
X56529843Y-62332153D01*
X56580868Y-62319364D01*
X56604596Y-62314666D01*
X56618762Y-62332616D01*
G37*
X56618762Y-62332616D02*
X56641097Y-62378547D01*
X56656124Y-62415208D01*
X56681281Y-62511815D01*
X56694804Y-62631688D01*
X56696915Y-62761303D01*
X56687834Y-62887135D01*
X56667782Y-62995661D01*
X56645637Y-63057644D01*
X56562577Y-63186096D01*
X56454779Y-63288615D01*
X56382829Y-63333304D01*
X56290463Y-63366488D01*
X56173060Y-63388709D01*
X56046988Y-63397826D01*
X55932470Y-63392198D01*
X55786248Y-63352998D01*
X55653530Y-63275901D01*
X55539011Y-63164417D01*
X55453677Y-63034333D01*
X55429083Y-62980558D01*
X55414029Y-62925712D01*
X55406346Y-62856919D01*
X55403869Y-62761305D01*
X55403808Y-62738000D01*
X55408739Y-62619400D01*
X55422414Y-62514216D01*
X55443045Y-62428904D01*
X55468846Y-62369921D01*
X55498031Y-62343724D01*
X55512649Y-62344664D01*
X55548949Y-62356777D01*
X55610179Y-62375599D01*
X55658534Y-62389888D01*
X55720966Y-62408653D01*
X55762858Y-62422423D01*
X55773937Y-62427293D01*
X55768228Y-62447830D01*
X55753857Y-62496304D01*
X55742187Y-62534989D01*
X55713789Y-62675930D01*
X55721420Y-62796318D01*
X55765829Y-62899002D01*
X55847769Y-62986830D01*
X55864752Y-62999946D01*
X55945025Y-63035464D01*
X56043281Y-63044373D01*
X56146814Y-63029230D01*
X56242921Y-62992590D01*
X56318898Y-62937009D01*
X56345124Y-62903315D01*
X56376107Y-62820203D01*
X56387700Y-62713267D01*
X56379575Y-62596484D01*
X56354729Y-62493316D01*
X56336773Y-62435761D01*
X56327966Y-62397920D01*
X56328270Y-62390137D01*
X56351104Y-62382040D01*
X56401371Y-62367203D01*
X56465480Y-62349336D01*
X56529843Y-62332153D01*
X56580868Y-62319364D01*
X56604596Y-62314666D01*
X56618762Y-62332616D01*
G36*
X56684333Y-62039500D02*
G01*
X56324500Y-62039500D01*
X56324500Y-61679666D01*
X56684333Y-61679666D01*
X56684333Y-62039500D01*
G37*
X56684333Y-62039500D02*
X56324500Y-62039500D01*
X56324500Y-61679666D01*
X56684333Y-61679666D01*
X56684333Y-62039500D01*
G36*
X55176841Y-61008216D02*
G01*
X55308541Y-61141098D01*
X55175612Y-61272845D01*
X55042683Y-61404593D01*
X54921591Y-61282224D01*
X54865277Y-61222866D01*
X54822907Y-61173541D01*
X54801676Y-61142780D01*
X54800500Y-61138640D01*
X54814626Y-61114794D01*
X54852156Y-61070231D01*
X54905820Y-61013409D01*
X54922820Y-60996380D01*
X55045141Y-60875335D01*
X55176841Y-61008216D01*
G37*
X55176841Y-61008216D02*
X55308541Y-61141098D01*
X55175612Y-61272845D01*
X55042683Y-61404593D01*
X54921591Y-61282224D01*
X54865277Y-61222866D01*
X54822907Y-61173541D01*
X54801676Y-61142780D01*
X54800500Y-61138640D01*
X54814626Y-61114794D01*
X54852156Y-61070231D01*
X54905820Y-61013409D01*
X54922820Y-60996380D01*
X55045141Y-60875335D01*
X55176841Y-61008216D01*
G36*
X56684333Y-61319833D02*
G01*
X55414333Y-61319833D01*
X55414333Y-60960000D01*
X56684333Y-60960000D01*
X56684333Y-61319833D01*
G37*
X56684333Y-61319833D02*
X55414333Y-61319833D01*
X55414333Y-60960000D01*
X56684333Y-60960000D01*
X56684333Y-61319833D01*
G36*
X44440285Y-59687111D02*
G01*
X44523160Y-59758845D01*
X44618846Y-59835856D01*
X44695859Y-59893615D01*
X44759494Y-59940705D01*
X44807014Y-59979071D01*
X44830046Y-60001861D01*
X44831000Y-60004225D01*
X44816510Y-60023083D01*
X44775827Y-60067278D01*
X44713130Y-60132660D01*
X44632597Y-60215081D01*
X44538410Y-60310390D01*
X44434745Y-60414440D01*
X44325784Y-60523080D01*
X44215704Y-60632161D01*
X44108686Y-60737534D01*
X44008908Y-60835050D01*
X43920549Y-60920560D01*
X43847790Y-60989914D01*
X43794808Y-61038963D01*
X43765784Y-61063558D01*
X43761927Y-61065629D01*
X43736421Y-61053558D01*
X43686619Y-61021552D01*
X43621674Y-60975626D01*
X43596117Y-60956670D01*
X43511402Y-60890631D01*
X43423891Y-60818557D01*
X43351402Y-60755155D01*
X43346355Y-60750498D01*
X43241391Y-60653083D01*
X44319851Y-59577041D01*
X44440285Y-59687111D01*
G37*
X44440285Y-59687111D02*
X44523160Y-59758845D01*
X44618846Y-59835856D01*
X44695859Y-59893615D01*
X44759494Y-59940705D01*
X44807014Y-59979071D01*
X44830046Y-60001861D01*
X44831000Y-60004225D01*
X44816510Y-60023083D01*
X44775827Y-60067278D01*
X44713130Y-60132660D01*
X44632597Y-60215081D01*
X44538410Y-60310390D01*
X44434745Y-60414440D01*
X44325784Y-60523080D01*
X44215704Y-60632161D01*
X44108686Y-60737534D01*
X44008908Y-60835050D01*
X43920549Y-60920560D01*
X43847790Y-60989914D01*
X43794808Y-61038963D01*
X43765784Y-61063558D01*
X43761927Y-61065629D01*
X43736421Y-61053558D01*
X43686619Y-61021552D01*
X43621674Y-60975626D01*
X43596117Y-60956670D01*
X43511402Y-60890631D01*
X43423891Y-60818557D01*
X43351402Y-60755155D01*
X43346355Y-60750498D01*
X43241391Y-60653083D01*
X44319851Y-59577041D01*
X44440285Y-59687111D01*
G36*
X56181511Y-59360245D02*
G01*
X56320551Y-59397527D01*
X56444174Y-59470017D01*
X56495782Y-59513955D01*
X56582451Y-59608368D01*
X56641715Y-59708130D01*
X56677349Y-59823207D01*
X56693130Y-59963566D01*
X56694762Y-60039250D01*
X56693567Y-60141854D01*
X56688231Y-60215474D01*
X56676392Y-60273418D01*
X56655688Y-60328998D01*
X56635859Y-60371177D01*
X56546565Y-60509273D01*
X56431584Y-60614034D01*
X56292911Y-60684154D01*
X56132540Y-60718327D01*
X56102250Y-60720522D01*
X55977024Y-60719083D01*
X55871890Y-60698336D01*
X55847807Y-60690320D01*
X55695341Y-60616526D01*
X55575819Y-60516223D01*
X55489437Y-60389738D01*
X55436396Y-60237394D01*
X55416893Y-60059517D01*
X55417574Y-60020828D01*
X55731894Y-60020828D01*
X55743103Y-60121708D01*
X55779962Y-60199657D01*
X55861061Y-60293177D01*
X55953295Y-60347064D01*
X56060606Y-60363400D01*
X56087252Y-60362112D01*
X56172408Y-60347228D01*
X56242249Y-60320515D01*
X56256586Y-60311502D01*
X56324154Y-60241428D01*
X56374028Y-60149402D01*
X56399335Y-60051291D01*
X56398268Y-59984466D01*
X56362907Y-59886745D01*
X56297772Y-59803550D01*
X56212127Y-59741152D01*
X56115240Y-59705821D01*
X56016376Y-59703828D01*
X55991828Y-59709447D01*
X55888026Y-59757514D01*
X55807804Y-59830752D01*
X55754610Y-59921183D01*
X55731894Y-60020828D01*
X55417574Y-60020828D01*
X55418136Y-59988984D01*
X55443547Y-59810923D01*
X55500649Y-59660102D01*
X55588176Y-59537852D01*
X55704862Y-59445504D01*
X55849441Y-59384390D01*
X56020143Y-59355875D01*
X56181511Y-59360245D01*
G37*
X56181511Y-59360245D02*
X56320551Y-59397527D01*
X56444174Y-59470017D01*
X56495782Y-59513955D01*
X56582451Y-59608368D01*
X56641715Y-59708130D01*
X56677349Y-59823207D01*
X56693130Y-59963566D01*
X56694762Y-60039250D01*
X56693567Y-60141854D01*
X56688231Y-60215474D01*
X56676392Y-60273418D01*
X56655688Y-60328998D01*
X56635859Y-60371177D01*
X56546565Y-60509273D01*
X56431584Y-60614034D01*
X56292911Y-60684154D01*
X56132540Y-60718327D01*
X56102250Y-60720522D01*
X55977024Y-60719083D01*
X55871890Y-60698336D01*
X55847807Y-60690320D01*
X55695341Y-60616526D01*
X55575819Y-60516223D01*
X55489437Y-60389738D01*
X55436396Y-60237394D01*
X55416893Y-60059517D01*
X55417574Y-60020828D01*
X55731894Y-60020828D01*
X55743103Y-60121708D01*
X55779962Y-60199657D01*
X55861061Y-60293177D01*
X55953295Y-60347064D01*
X56060606Y-60363400D01*
X56087252Y-60362112D01*
X56172408Y-60347228D01*
X56242249Y-60320515D01*
X56256586Y-60311502D01*
X56324154Y-60241428D01*
X56374028Y-60149402D01*
X56399335Y-60051291D01*
X56398268Y-59984466D01*
X56362907Y-59886745D01*
X56297772Y-59803550D01*
X56212127Y-59741152D01*
X56115240Y-59705821D01*
X56016376Y-59703828D01*
X55991828Y-59709447D01*
X55888026Y-59757514D01*
X55807804Y-59830752D01*
X55754610Y-59921183D01*
X55731894Y-60020828D01*
X55417574Y-60020828D01*
X55418136Y-59988984D01*
X55443547Y-59810923D01*
X55500649Y-59660102D01*
X55588176Y-59537852D01*
X55704862Y-59445504D01*
X55849441Y-59384390D01*
X56020143Y-59355875D01*
X56181511Y-59360245D01*
G36*
X50519062Y-55166107D02*
G01*
X50577200Y-55224245D01*
X49769048Y-56032397D01*
X49735708Y-55950907D01*
X49702368Y-55869416D01*
X50460924Y-55107970D01*
X50519062Y-55166107D01*
G37*
X50519062Y-55166107D02*
X50577200Y-55224245D01*
X49769048Y-56032397D01*
X49735708Y-55950907D01*
X49702368Y-55869416D01*
X50460924Y-55107970D01*
X50519062Y-55166107D01*
G36*
X38466759Y-39548261D02*
G01*
X38586497Y-39584476D01*
X38682065Y-39649088D01*
X38752485Y-39735210D01*
X38796777Y-39835955D01*
X38813964Y-39944433D01*
X38803066Y-40053757D01*
X38763104Y-40157039D01*
X38693101Y-40247391D01*
X38592078Y-40317924D01*
X38577125Y-40325047D01*
X38473069Y-40355382D01*
X38359796Y-40361514D01*
X38256670Y-40342859D01*
X38237189Y-40335336D01*
X38174789Y-40294740D01*
X38107364Y-40230971D01*
X38048702Y-40158776D01*
X38013915Y-40096520D01*
X37996125Y-40004401D01*
X38001278Y-39897450D01*
X38028104Y-39795563D01*
X38033952Y-39781874D01*
X38104161Y-39675380D01*
X38201070Y-39597716D01*
X38316980Y-39553035D01*
X38444191Y-39545495D01*
X38466759Y-39548261D01*
G37*
X38466759Y-39548261D02*
X38586497Y-39584476D01*
X38682065Y-39649088D01*
X38752485Y-39735210D01*
X38796777Y-39835955D01*
X38813964Y-39944433D01*
X38803066Y-40053757D01*
X38763104Y-40157039D01*
X38693101Y-40247391D01*
X38592078Y-40317924D01*
X38577125Y-40325047D01*
X38473069Y-40355382D01*
X38359796Y-40361514D01*
X38256670Y-40342859D01*
X38237189Y-40335336D01*
X38174789Y-40294740D01*
X38107364Y-40230971D01*
X38048702Y-40158776D01*
X38013915Y-40096520D01*
X37996125Y-40004401D01*
X38001278Y-39897450D01*
X38028104Y-39795563D01*
X38033952Y-39781874D01*
X38104161Y-39675380D01*
X38201070Y-39597716D01*
X38316980Y-39553035D01*
X38444191Y-39545495D01*
X38466759Y-39548261D01*
G36*
X40197944Y-38103269D02*
G01*
X40378062Y-38140743D01*
X40476828Y-38179490D01*
X40635601Y-38276004D01*
X40775007Y-38404817D01*
X40886372Y-38557268D01*
X40921334Y-38623370D01*
X40950950Y-38688509D01*
X40970427Y-38742517D01*
X40981876Y-38797429D01*
X40987411Y-38865283D01*
X40989146Y-38958114D01*
X40989250Y-39010166D01*
X40988357Y-39119462D01*
X40984438Y-39198141D01*
X40975627Y-39257902D01*
X40960061Y-39310445D01*
X40935875Y-39367470D01*
X40930467Y-39379104D01*
X40827442Y-39553413D01*
X40697008Y-39695977D01*
X40540483Y-39805627D01*
X40367895Y-39878528D01*
X40201949Y-39912602D01*
X40028449Y-39917411D01*
X39863524Y-39893016D01*
X39807439Y-39876440D01*
X39632406Y-39795733D01*
X39483734Y-39686159D01*
X39362942Y-39552823D01*
X39271548Y-39400831D01*
X39211070Y-39235288D01*
X39183027Y-39061300D01*
X39188937Y-38883973D01*
X39230317Y-38708412D01*
X39308687Y-38539723D01*
X39379438Y-38437118D01*
X39508908Y-38306319D01*
X39662480Y-38205895D01*
X39833167Y-38137485D01*
X40013984Y-38102729D01*
X40197944Y-38103269D01*
G37*
X40197944Y-38103269D02*
X40378062Y-38140743D01*
X40476828Y-38179490D01*
X40635601Y-38276004D01*
X40775007Y-38404817D01*
X40886372Y-38557268D01*
X40921334Y-38623370D01*
X40950950Y-38688509D01*
X40970427Y-38742517D01*
X40981876Y-38797429D01*
X40987411Y-38865283D01*
X40989146Y-38958114D01*
X40989250Y-39010166D01*
X40988357Y-39119462D01*
X40984438Y-39198141D01*
X40975627Y-39257902D01*
X40960061Y-39310445D01*
X40935875Y-39367470D01*
X40930467Y-39379104D01*
X40827442Y-39553413D01*
X40697008Y-39695977D01*
X40540483Y-39805627D01*
X40367895Y-39878528D01*
X40201949Y-39912602D01*
X40028449Y-39917411D01*
X39863524Y-39893016D01*
X39807439Y-39876440D01*
X39632406Y-39795733D01*
X39483734Y-39686159D01*
X39362942Y-39552823D01*
X39271548Y-39400831D01*
X39211070Y-39235288D01*
X39183027Y-39061300D01*
X39188937Y-38883973D01*
X39230317Y-38708412D01*
X39308687Y-38539723D01*
X39379438Y-38437118D01*
X39508908Y-38306319D01*
X39662480Y-38205895D01*
X39833167Y-38137485D01*
X40013984Y-38102729D01*
X40197944Y-38103269D01*
G36*
X54595759Y-39548261D02*
G01*
X54715497Y-39584476D01*
X54811065Y-39649088D01*
X54881485Y-39735210D01*
X54925777Y-39835955D01*
X54942964Y-39944433D01*
X54932066Y-40053757D01*
X54892104Y-40157039D01*
X54822101Y-40247391D01*
X54721078Y-40317924D01*
X54706125Y-40325047D01*
X54602698Y-40355300D01*
X54490393Y-40361538D01*
X54388264Y-40343218D01*
X54366583Y-40334749D01*
X54294909Y-40288602D01*
X54223150Y-40220205D01*
X54166179Y-40145077D01*
X54145631Y-40104163D01*
X54120371Y-39983004D01*
X54132312Y-39865260D01*
X54176416Y-39757154D01*
X54247645Y-39664909D01*
X54340959Y-39594746D01*
X54451321Y-39552889D01*
X54573691Y-39545561D01*
X54595759Y-39548261D01*
G37*
X54595759Y-39548261D02*
X54715497Y-39584476D01*
X54811065Y-39649088D01*
X54881485Y-39735210D01*
X54925777Y-39835955D01*
X54942964Y-39944433D01*
X54932066Y-40053757D01*
X54892104Y-40157039D01*
X54822101Y-40247391D01*
X54721078Y-40317924D01*
X54706125Y-40325047D01*
X54602698Y-40355300D01*
X54490393Y-40361538D01*
X54388264Y-40343218D01*
X54366583Y-40334749D01*
X54294909Y-40288602D01*
X54223150Y-40220205D01*
X54166179Y-40145077D01*
X54145631Y-40104163D01*
X54120371Y-39983004D01*
X54132312Y-39865260D01*
X54176416Y-39757154D01*
X54247645Y-39664909D01*
X54340959Y-39594746D01*
X54451321Y-39552889D01*
X54573691Y-39545561D01*
X54595759Y-39548261D01*
G36*
X52947318Y-38111418D02*
G01*
X53023401Y-38115430D01*
X53082305Y-38124879D01*
X53136604Y-38142025D01*
X53198870Y-38169127D01*
X53218472Y-38178347D01*
X53385754Y-38278343D01*
X53521917Y-38401873D01*
X53626953Y-38544077D01*
X53700852Y-38700092D01*
X53743606Y-38865059D01*
X53755206Y-39034117D01*
X53735643Y-39202404D01*
X53684910Y-39365060D01*
X53602995Y-39517225D01*
X53489892Y-39654036D01*
X53345592Y-39770634D01*
X53221467Y-39839763D01*
X53142194Y-39873711D01*
X53071236Y-39894632D01*
X52991667Y-39906195D01*
X52887912Y-39912019D01*
X52790827Y-39912860D01*
X52700198Y-39909267D01*
X52631241Y-39901984D01*
X52614955Y-39898679D01*
X52465318Y-39842274D01*
X52317482Y-39751760D01*
X52196716Y-39647995D01*
X52075818Y-39499309D01*
X51991726Y-39336547D01*
X51943550Y-39164903D01*
X51930400Y-38989567D01*
X51951387Y-38815730D01*
X52005621Y-38648584D01*
X52092212Y-38493320D01*
X52210271Y-38355130D01*
X52358908Y-38239205D01*
X52446556Y-38190152D01*
X52519159Y-38155190D01*
X52576022Y-38132336D01*
X52629908Y-38119021D01*
X52693580Y-38112671D01*
X52779798Y-38110716D01*
X52841485Y-38110583D01*
X52947318Y-38111418D01*
G37*
X52947318Y-38111418D02*
X53023401Y-38115430D01*
X53082305Y-38124879D01*
X53136604Y-38142025D01*
X53198870Y-38169127D01*
X53218472Y-38178347D01*
X53385754Y-38278343D01*
X53521917Y-38401873D01*
X53626953Y-38544077D01*
X53700852Y-38700092D01*
X53743606Y-38865059D01*
X53755206Y-39034117D01*
X53735643Y-39202404D01*
X53684910Y-39365060D01*
X53602995Y-39517225D01*
X53489892Y-39654036D01*
X53345592Y-39770634D01*
X53221467Y-39839763D01*
X53142194Y-39873711D01*
X53071236Y-39894632D01*
X52991667Y-39906195D01*
X52887912Y-39912019D01*
X52790827Y-39912860D01*
X52700198Y-39909267D01*
X52631241Y-39901984D01*
X52614955Y-39898679D01*
X52465318Y-39842274D01*
X52317482Y-39751760D01*
X52196716Y-39647995D01*
X52075818Y-39499309D01*
X51991726Y-39336547D01*
X51943550Y-39164903D01*
X51930400Y-38989567D01*
X51951387Y-38815730D01*
X52005621Y-38648584D01*
X52092212Y-38493320D01*
X52210271Y-38355130D01*
X52358908Y-38239205D01*
X52446556Y-38190152D01*
X52519159Y-38155190D01*
X52576022Y-38132336D01*
X52629908Y-38119021D01*
X52693580Y-38112671D01*
X52779798Y-38110716D01*
X52841485Y-38110583D01*
X52947318Y-38111418D01*
%TD*%
D11*
%TO.P,,1*%
%TO.N,N/C*%
X60429333Y-27171576D03*
%TD*%
M02*
