%TF.GenerationSoftware,KiCad,Pcbnew,(5.1.7)-1*%
%TF.CreationDate,2020-09-28T14:59:46+02:00*%
%TF.ProjectId,oscar_pcb_svg2shenzen,6f736361-725f-4706-9362-5f7376673273,rev?*%
%TF.SameCoordinates,Original*%
%TF.FileFunction,Legend,Top*%
%TF.FilePolarity,Positive*%
%FSLAX46Y46*%
G04 Gerber Fmt 4.6, Leading zero omitted, Abs format (unit mm)*
G04 Created by KiCad (PCBNEW (5.1.7)-1) date 2020-09-28 14:59:46*
%MOMM*%
%LPD*%
G01*
G04 APERTURE LIST*
%ADD10C,0.010000*%
%ADD11C,0.150000*%
G04 APERTURE END LIST*
D10*
%TO.C,G\u002A\u002A\u002A*%
G36*
X50868374Y-51591628D02*
G01*
X51094317Y-51656868D01*
X51198116Y-51701541D01*
X51290947Y-51750859D01*
X51373721Y-51807647D01*
X51459409Y-51881653D01*
X51530250Y-51951129D01*
X51678104Y-52122574D01*
X51786372Y-52299319D01*
X51857781Y-52487976D01*
X51895058Y-52695156D01*
X51902305Y-52853166D01*
X51885258Y-53083222D01*
X51832869Y-53292275D01*
X51743262Y-53484824D01*
X51614562Y-53665369D01*
X51522106Y-53765518D01*
X51343189Y-53915956D01*
X51147557Y-54028305D01*
X50938330Y-54101876D01*
X50718626Y-54135980D01*
X50491565Y-54129926D01*
X50260265Y-54083028D01*
X50188512Y-54060199D01*
X50006250Y-53997190D01*
X49109176Y-54892872D01*
X49188864Y-54989561D01*
X49409079Y-55288691D01*
X49602545Y-55617990D01*
X49767497Y-55973453D01*
X49902173Y-56351077D01*
X50004807Y-56746857D01*
X50037870Y-56917166D01*
X50060021Y-57073417D01*
X50077681Y-57257699D01*
X50090458Y-57458644D01*
X50097959Y-57664885D01*
X50099792Y-57865054D01*
X50095564Y-58047784D01*
X50084884Y-58201709D01*
X50082848Y-58220342D01*
X50014611Y-58643683D01*
X49910027Y-59049932D01*
X49770011Y-59436949D01*
X49595479Y-59802594D01*
X49387345Y-60144727D01*
X49146525Y-60461210D01*
X49102842Y-60511806D01*
X48834975Y-60784727D01*
X48538076Y-61028290D01*
X48214969Y-61241014D01*
X47868479Y-61421422D01*
X47501429Y-61568034D01*
X47116644Y-61679372D01*
X46736000Y-61751298D01*
X46574072Y-61769703D01*
X46387456Y-61783494D01*
X46189580Y-61792252D01*
X45993868Y-61795556D01*
X45813748Y-61792985D01*
X45669017Y-61784694D01*
X45416337Y-61753044D01*
X45149389Y-61702854D01*
X44881540Y-61637468D01*
X44626155Y-61560230D01*
X44396597Y-61474484D01*
X44351394Y-61455034D01*
X44230827Y-61401714D01*
X44798348Y-60833902D01*
X44943572Y-60688697D01*
X45062026Y-60570745D01*
X45156843Y-60477336D01*
X45231156Y-60405757D01*
X45288098Y-60353298D01*
X45330803Y-60317246D01*
X45362402Y-60294890D01*
X45386029Y-60283518D01*
X45404817Y-60280419D01*
X45421899Y-60282881D01*
X45431809Y-60285655D01*
X45516998Y-60305814D01*
X45630575Y-60325706D01*
X45758624Y-60343522D01*
X45887229Y-60357454D01*
X46002471Y-60365692D01*
X46058666Y-60367148D01*
X46387802Y-60347155D01*
X46704441Y-60287074D01*
X47007434Y-60187167D01*
X47169916Y-60114318D01*
X47426435Y-59964905D01*
X47655862Y-59783805D01*
X47857395Y-59572516D01*
X48030234Y-59332531D01*
X48173576Y-59065346D01*
X48286619Y-58772455D01*
X48368563Y-58455355D01*
X48418604Y-58115540D01*
X48435943Y-57754504D01*
X48435945Y-57753250D01*
X48420896Y-57381968D01*
X48374115Y-57036943D01*
X48295038Y-56715784D01*
X48183100Y-56416101D01*
X48065242Y-56182680D01*
X47978491Y-56030278D01*
X45617968Y-58379586D01*
X43257445Y-60728893D01*
X43163883Y-60638071D01*
X42973830Y-60431342D01*
X42791762Y-60189997D01*
X42622212Y-59921617D01*
X42469713Y-59633778D01*
X42338798Y-59334059D01*
X42269633Y-59143116D01*
X42182446Y-58848082D01*
X42119322Y-58554986D01*
X42078550Y-58252544D01*
X42058417Y-57929471D01*
X42056603Y-57805852D01*
X43703456Y-57805852D01*
X43723624Y-58131474D01*
X43770912Y-58445745D01*
X43844123Y-58739639D01*
X43900593Y-58903996D01*
X43968746Y-59081075D01*
X45744683Y-57305912D01*
X47520620Y-55530750D01*
X47440518Y-55461887D01*
X47365134Y-55407062D01*
X47260550Y-55344494D01*
X47137762Y-55279727D01*
X47007762Y-55218305D01*
X46881546Y-55165771D01*
X46788916Y-55133317D01*
X46545660Y-55074928D01*
X46281131Y-55041853D01*
X46008194Y-55034372D01*
X45739716Y-55052763D01*
X45488562Y-55097307D01*
X45460129Y-55104441D01*
X45172977Y-55200011D01*
X44907251Y-55331017D01*
X44664303Y-55495628D01*
X44445482Y-55692010D01*
X44252139Y-55918329D01*
X44085625Y-56172755D01*
X43947289Y-56453453D01*
X43838481Y-56758590D01*
X43760552Y-57086334D01*
X43714853Y-57434852D01*
X43711604Y-57477904D01*
X43703456Y-57805852D01*
X42056603Y-57805852D01*
X42055520Y-57732083D01*
X42073353Y-57285717D01*
X42126913Y-56861077D01*
X42216710Y-56456395D01*
X42343255Y-56069903D01*
X42507059Y-55699833D01*
X42708633Y-55344415D01*
X42774729Y-55243086D01*
X43011419Y-54927846D01*
X43276445Y-54643593D01*
X43568474Y-54391119D01*
X43886169Y-54171215D01*
X44228198Y-53984674D01*
X44593226Y-53832288D01*
X44979918Y-53714847D01*
X45386940Y-53633144D01*
X45518623Y-53615001D01*
X45654450Y-53602896D01*
X45819972Y-53595369D01*
X46003550Y-53592314D01*
X46193547Y-53593629D01*
X46378325Y-53599211D01*
X46546245Y-53608955D01*
X46685670Y-53622759D01*
X46706068Y-53625554D01*
X47087912Y-53697814D01*
X47456654Y-53801566D01*
X47806759Y-53934683D01*
X48132688Y-54095040D01*
X48428905Y-54280510D01*
X48448823Y-54294694D01*
X48627064Y-54422727D01*
X49516063Y-53533728D01*
X49460170Y-53409183D01*
X49382868Y-53187356D01*
X49345071Y-52958524D01*
X49345722Y-52854276D01*
X50016833Y-52854276D01*
X50022910Y-52941814D01*
X50038369Y-53029078D01*
X50048998Y-53066010D01*
X50117613Y-53200510D01*
X50216307Y-53310965D01*
X50338318Y-53394176D01*
X50476880Y-53446946D01*
X50625231Y-53466080D01*
X50776608Y-53448378D01*
X50826805Y-53433660D01*
X50936053Y-53378608D01*
X51042121Y-53293702D01*
X51132322Y-53190338D01*
X51175556Y-53120360D01*
X51207267Y-53049933D01*
X51224493Y-52982104D01*
X51231084Y-52898512D01*
X51231609Y-52853166D01*
X51228404Y-52757154D01*
X51216222Y-52684800D01*
X51191209Y-52617740D01*
X51175556Y-52585972D01*
X51085329Y-52452763D01*
X50971425Y-52350032D01*
X50839896Y-52279870D01*
X50696797Y-52244365D01*
X50548180Y-52245606D01*
X50400099Y-52285682D01*
X50359291Y-52304279D01*
X50220509Y-52394246D01*
X50117082Y-52507307D01*
X50049648Y-52642434D01*
X50018848Y-52798601D01*
X50016833Y-52854276D01*
X49345722Y-52854276D01*
X49346510Y-52728260D01*
X49386914Y-52502137D01*
X49466014Y-52285730D01*
X49519422Y-52183885D01*
X49584824Y-52090891D01*
X49675071Y-51988049D01*
X49778451Y-51886855D01*
X49883251Y-51798806D01*
X49974500Y-51737217D01*
X50188515Y-51640070D01*
X50411489Y-51583345D01*
X50639437Y-51567159D01*
X50868374Y-51591628D01*
G37*
X50868374Y-51591628D02*
X51094317Y-51656868D01*
X51198116Y-51701541D01*
X51290947Y-51750859D01*
X51373721Y-51807647D01*
X51459409Y-51881653D01*
X51530250Y-51951129D01*
X51678104Y-52122574D01*
X51786372Y-52299319D01*
X51857781Y-52487976D01*
X51895058Y-52695156D01*
X51902305Y-52853166D01*
X51885258Y-53083222D01*
X51832869Y-53292275D01*
X51743262Y-53484824D01*
X51614562Y-53665369D01*
X51522106Y-53765518D01*
X51343189Y-53915956D01*
X51147557Y-54028305D01*
X50938330Y-54101876D01*
X50718626Y-54135980D01*
X50491565Y-54129926D01*
X50260265Y-54083028D01*
X50188512Y-54060199D01*
X50006250Y-53997190D01*
X49109176Y-54892872D01*
X49188864Y-54989561D01*
X49409079Y-55288691D01*
X49602545Y-55617990D01*
X49767497Y-55973453D01*
X49902173Y-56351077D01*
X50004807Y-56746857D01*
X50037870Y-56917166D01*
X50060021Y-57073417D01*
X50077681Y-57257699D01*
X50090458Y-57458644D01*
X50097959Y-57664885D01*
X50099792Y-57865054D01*
X50095564Y-58047784D01*
X50084884Y-58201709D01*
X50082848Y-58220342D01*
X50014611Y-58643683D01*
X49910027Y-59049932D01*
X49770011Y-59436949D01*
X49595479Y-59802594D01*
X49387345Y-60144727D01*
X49146525Y-60461210D01*
X49102842Y-60511806D01*
X48834975Y-60784727D01*
X48538076Y-61028290D01*
X48214969Y-61241014D01*
X47868479Y-61421422D01*
X47501429Y-61568034D01*
X47116644Y-61679372D01*
X46736000Y-61751298D01*
X46574072Y-61769703D01*
X46387456Y-61783494D01*
X46189580Y-61792252D01*
X45993868Y-61795556D01*
X45813748Y-61792985D01*
X45669017Y-61784694D01*
X45416337Y-61753044D01*
X45149389Y-61702854D01*
X44881540Y-61637468D01*
X44626155Y-61560230D01*
X44396597Y-61474484D01*
X44351394Y-61455034D01*
X44230827Y-61401714D01*
X44798348Y-60833902D01*
X44943572Y-60688697D01*
X45062026Y-60570745D01*
X45156843Y-60477336D01*
X45231156Y-60405757D01*
X45288098Y-60353298D01*
X45330803Y-60317246D01*
X45362402Y-60294890D01*
X45386029Y-60283518D01*
X45404817Y-60280419D01*
X45421899Y-60282881D01*
X45431809Y-60285655D01*
X45516998Y-60305814D01*
X45630575Y-60325706D01*
X45758624Y-60343522D01*
X45887229Y-60357454D01*
X46002471Y-60365692D01*
X46058666Y-60367148D01*
X46387802Y-60347155D01*
X46704441Y-60287074D01*
X47007434Y-60187167D01*
X47169916Y-60114318D01*
X47426435Y-59964905D01*
X47655862Y-59783805D01*
X47857395Y-59572516D01*
X48030234Y-59332531D01*
X48173576Y-59065346D01*
X48286619Y-58772455D01*
X48368563Y-58455355D01*
X48418604Y-58115540D01*
X48435943Y-57754504D01*
X48435945Y-57753250D01*
X48420896Y-57381968D01*
X48374115Y-57036943D01*
X48295038Y-56715784D01*
X48183100Y-56416101D01*
X48065242Y-56182680D01*
X47978491Y-56030278D01*
X45617968Y-58379586D01*
X43257445Y-60728893D01*
X43163883Y-60638071D01*
X42973830Y-60431342D01*
X42791762Y-60189997D01*
X42622212Y-59921617D01*
X42469713Y-59633778D01*
X42338798Y-59334059D01*
X42269633Y-59143116D01*
X42182446Y-58848082D01*
X42119322Y-58554986D01*
X42078550Y-58252544D01*
X42058417Y-57929471D01*
X42056603Y-57805852D01*
X43703456Y-57805852D01*
X43723624Y-58131474D01*
X43770912Y-58445745D01*
X43844123Y-58739639D01*
X43900593Y-58903996D01*
X43968746Y-59081075D01*
X45744683Y-57305912D01*
X47520620Y-55530750D01*
X47440518Y-55461887D01*
X47365134Y-55407062D01*
X47260550Y-55344494D01*
X47137762Y-55279727D01*
X47007762Y-55218305D01*
X46881546Y-55165771D01*
X46788916Y-55133317D01*
X46545660Y-55074928D01*
X46281131Y-55041853D01*
X46008194Y-55034372D01*
X45739716Y-55052763D01*
X45488562Y-55097307D01*
X45460129Y-55104441D01*
X45172977Y-55200011D01*
X44907251Y-55331017D01*
X44664303Y-55495628D01*
X44445482Y-55692010D01*
X44252139Y-55918329D01*
X44085625Y-56172755D01*
X43947289Y-56453453D01*
X43838481Y-56758590D01*
X43760552Y-57086334D01*
X43714853Y-57434852D01*
X43711604Y-57477904D01*
X43703456Y-57805852D01*
X42056603Y-57805852D01*
X42055520Y-57732083D01*
X42073353Y-57285717D01*
X42126913Y-56861077D01*
X42216710Y-56456395D01*
X42343255Y-56069903D01*
X42507059Y-55699833D01*
X42708633Y-55344415D01*
X42774729Y-55243086D01*
X43011419Y-54927846D01*
X43276445Y-54643593D01*
X43568474Y-54391119D01*
X43886169Y-54171215D01*
X44228198Y-53984674D01*
X44593226Y-53832288D01*
X44979918Y-53714847D01*
X45386940Y-53633144D01*
X45518623Y-53615001D01*
X45654450Y-53602896D01*
X45819972Y-53595369D01*
X46003550Y-53592314D01*
X46193547Y-53593629D01*
X46378325Y-53599211D01*
X46546245Y-53608955D01*
X46685670Y-53622759D01*
X46706068Y-53625554D01*
X47087912Y-53697814D01*
X47456654Y-53801566D01*
X47806759Y-53934683D01*
X48132688Y-54095040D01*
X48428905Y-54280510D01*
X48448823Y-54294694D01*
X48627064Y-54422727D01*
X49516063Y-53533728D01*
X49460170Y-53409183D01*
X49382868Y-53187356D01*
X49345071Y-52958524D01*
X49345722Y-52854276D01*
X50016833Y-52854276D01*
X50022910Y-52941814D01*
X50038369Y-53029078D01*
X50048998Y-53066010D01*
X50117613Y-53200510D01*
X50216307Y-53310965D01*
X50338318Y-53394176D01*
X50476880Y-53446946D01*
X50625231Y-53466080D01*
X50776608Y-53448378D01*
X50826805Y-53433660D01*
X50936053Y-53378608D01*
X51042121Y-53293702D01*
X51132322Y-53190338D01*
X51175556Y-53120360D01*
X51207267Y-53049933D01*
X51224493Y-52982104D01*
X51231084Y-52898512D01*
X51231609Y-52853166D01*
X51228404Y-52757154D01*
X51216222Y-52684800D01*
X51191209Y-52617740D01*
X51175556Y-52585972D01*
X51085329Y-52452763D01*
X50971425Y-52350032D01*
X50839896Y-52279870D01*
X50696797Y-52244365D01*
X50548180Y-52245606D01*
X50400099Y-52285682D01*
X50359291Y-52304279D01*
X50220509Y-52394246D01*
X50117082Y-52507307D01*
X50049648Y-52642434D01*
X50018848Y-52798601D01*
X50016833Y-52854276D01*
X49345722Y-52854276D01*
X49346510Y-52728260D01*
X49386914Y-52502137D01*
X49466014Y-52285730D01*
X49519422Y-52183885D01*
X49584824Y-52090891D01*
X49675071Y-51988049D01*
X49778451Y-51886855D01*
X49883251Y-51798806D01*
X49974500Y-51737217D01*
X50188515Y-51640070D01*
X50411489Y-51583345D01*
X50639437Y-51567159D01*
X50868374Y-51591628D01*
G36*
X40868276Y-49720905D02*
G01*
X40869187Y-49724722D01*
X40863992Y-49735853D01*
X40850056Y-49758199D01*
X40824746Y-49795663D01*
X40785425Y-49852147D01*
X40729461Y-49931553D01*
X40654217Y-50037782D01*
X40559669Y-50171057D01*
X40312108Y-50524395D01*
X40053078Y-50902319D01*
X39787538Y-51297222D01*
X39520444Y-51701498D01*
X39256753Y-52107540D01*
X39001421Y-52507741D01*
X38759406Y-52894496D01*
X38535664Y-53260197D01*
X38411833Y-53467054D01*
X38000382Y-54182651D01*
X37617236Y-54893625D01*
X37263223Y-55597957D01*
X36939170Y-56293628D01*
X36645903Y-56978618D01*
X36384250Y-57650908D01*
X36155039Y-58308477D01*
X35959095Y-58949307D01*
X35797247Y-59571378D01*
X35674469Y-60150375D01*
X35652879Y-60261043D01*
X35632774Y-60355357D01*
X35615803Y-60426226D01*
X35603614Y-60466558D01*
X35599425Y-60473166D01*
X35579673Y-60458315D01*
X35539841Y-60418754D01*
X35487330Y-60361977D01*
X35467723Y-60339875D01*
X35350699Y-60206584D01*
X35423480Y-59847750D01*
X35571165Y-59208358D01*
X35758056Y-58553144D01*
X35984158Y-57882102D01*
X36249473Y-57195227D01*
X36554004Y-56492513D01*
X36897754Y-55773954D01*
X37280725Y-55039546D01*
X37702920Y-54289284D01*
X38164342Y-53523161D01*
X38664994Y-52741172D01*
X39204878Y-51943312D01*
X39783998Y-51129576D01*
X40192261Y-50577750D01*
X40339171Y-50382822D01*
X40471151Y-50209178D01*
X40586686Y-50058750D01*
X40684263Y-49933471D01*
X40762368Y-49835272D01*
X40819487Y-49766087D01*
X40854106Y-49727847D01*
X40863894Y-49720500D01*
X40868276Y-49720905D01*
G37*
X40868276Y-49720905D02*
X40869187Y-49724722D01*
X40863992Y-49735853D01*
X40850056Y-49758199D01*
X40824746Y-49795663D01*
X40785425Y-49852147D01*
X40729461Y-49931553D01*
X40654217Y-50037782D01*
X40559669Y-50171057D01*
X40312108Y-50524395D01*
X40053078Y-50902319D01*
X39787538Y-51297222D01*
X39520444Y-51701498D01*
X39256753Y-52107540D01*
X39001421Y-52507741D01*
X38759406Y-52894496D01*
X38535664Y-53260197D01*
X38411833Y-53467054D01*
X38000382Y-54182651D01*
X37617236Y-54893625D01*
X37263223Y-55597957D01*
X36939170Y-56293628D01*
X36645903Y-56978618D01*
X36384250Y-57650908D01*
X36155039Y-58308477D01*
X35959095Y-58949307D01*
X35797247Y-59571378D01*
X35674469Y-60150375D01*
X35652879Y-60261043D01*
X35632774Y-60355357D01*
X35615803Y-60426226D01*
X35603614Y-60466558D01*
X35599425Y-60473166D01*
X35579673Y-60458315D01*
X35539841Y-60418754D01*
X35487330Y-60361977D01*
X35467723Y-60339875D01*
X35350699Y-60206584D01*
X35423480Y-59847750D01*
X35571165Y-59208358D01*
X35758056Y-58553144D01*
X35984158Y-57882102D01*
X36249473Y-57195227D01*
X36554004Y-56492513D01*
X36897754Y-55773954D01*
X37280725Y-55039546D01*
X37702920Y-54289284D01*
X38164342Y-53523161D01*
X38664994Y-52741172D01*
X39204878Y-51943312D01*
X39783998Y-51129576D01*
X40192261Y-50577750D01*
X40339171Y-50382822D01*
X40471151Y-50209178D01*
X40586686Y-50058750D01*
X40684263Y-49933471D01*
X40762368Y-49835272D01*
X40819487Y-49766087D01*
X40854106Y-49727847D01*
X40863894Y-49720500D01*
X40868276Y-49720905D01*
G36*
X52132406Y-49743168D02*
G01*
X52170817Y-49786955D01*
X52229284Y-49858710D01*
X52305435Y-49955264D01*
X52396899Y-50073446D01*
X52501304Y-50210087D01*
X52616278Y-50362017D01*
X52739449Y-50526067D01*
X52868444Y-50699065D01*
X53000893Y-50877842D01*
X53134424Y-51059228D01*
X53266663Y-51240054D01*
X53395241Y-51417149D01*
X53517784Y-51587343D01*
X53631921Y-51747467D01*
X53732300Y-51890083D01*
X54235003Y-52628217D01*
X54706111Y-53357709D01*
X55145125Y-54077507D01*
X55551551Y-54786564D01*
X55924890Y-55483829D01*
X56264645Y-56168254D01*
X56570320Y-56838788D01*
X56841418Y-57494382D01*
X57077441Y-58133987D01*
X57277893Y-58756554D01*
X57442276Y-59361032D01*
X57570095Y-59946372D01*
X57584875Y-60025808D01*
X57620959Y-60224034D01*
X57492654Y-60352338D01*
X57430691Y-60413458D01*
X57391961Y-60447763D01*
X57370133Y-60458737D01*
X57358877Y-60449865D01*
X57352882Y-60429280D01*
X57344879Y-60391263D01*
X57330359Y-60320251D01*
X57311052Y-60224773D01*
X57288684Y-60113356D01*
X57275996Y-60049833D01*
X57133576Y-59413019D01*
X56957768Y-58764322D01*
X56748184Y-58102848D01*
X56504434Y-57427706D01*
X56226132Y-56738004D01*
X55912888Y-56032848D01*
X55564314Y-55311347D01*
X55180022Y-54572608D01*
X54759624Y-53815738D01*
X54302732Y-53039847D01*
X54038901Y-52609750D01*
X53935098Y-52444981D01*
X53810960Y-52251558D01*
X53670474Y-52035472D01*
X53517629Y-51802716D01*
X53356414Y-51559281D01*
X53190818Y-51311161D01*
X53024828Y-51064347D01*
X52862433Y-50824831D01*
X52707623Y-50598607D01*
X52564386Y-50391665D01*
X52524260Y-50334229D01*
X52426633Y-50194226D01*
X52337639Y-50065446D01*
X52259995Y-49951914D01*
X52196421Y-49857656D01*
X52149637Y-49786696D01*
X52122362Y-49743060D01*
X52116423Y-49730520D01*
X52132406Y-49743168D01*
G37*
X52132406Y-49743168D02*
X52170817Y-49786955D01*
X52229284Y-49858710D01*
X52305435Y-49955264D01*
X52396899Y-50073446D01*
X52501304Y-50210087D01*
X52616278Y-50362017D01*
X52739449Y-50526067D01*
X52868444Y-50699065D01*
X53000893Y-50877842D01*
X53134424Y-51059228D01*
X53266663Y-51240054D01*
X53395241Y-51417149D01*
X53517784Y-51587343D01*
X53631921Y-51747467D01*
X53732300Y-51890083D01*
X54235003Y-52628217D01*
X54706111Y-53357709D01*
X55145125Y-54077507D01*
X55551551Y-54786564D01*
X55924890Y-55483829D01*
X56264645Y-56168254D01*
X56570320Y-56838788D01*
X56841418Y-57494382D01*
X57077441Y-58133987D01*
X57277893Y-58756554D01*
X57442276Y-59361032D01*
X57570095Y-59946372D01*
X57584875Y-60025808D01*
X57620959Y-60224034D01*
X57492654Y-60352338D01*
X57430691Y-60413458D01*
X57391961Y-60447763D01*
X57370133Y-60458737D01*
X57358877Y-60449865D01*
X57352882Y-60429280D01*
X57344879Y-60391263D01*
X57330359Y-60320251D01*
X57311052Y-60224773D01*
X57288684Y-60113356D01*
X57275996Y-60049833D01*
X57133576Y-59413019D01*
X56957768Y-58764322D01*
X56748184Y-58102848D01*
X56504434Y-57427706D01*
X56226132Y-56738004D01*
X55912888Y-56032848D01*
X55564314Y-55311347D01*
X55180022Y-54572608D01*
X54759624Y-53815738D01*
X54302732Y-53039847D01*
X54038901Y-52609750D01*
X53935098Y-52444981D01*
X53810960Y-52251558D01*
X53670474Y-52035472D01*
X53517629Y-51802716D01*
X53356414Y-51559281D01*
X53190818Y-51311161D01*
X53024828Y-51064347D01*
X52862433Y-50824831D01*
X52707623Y-50598607D01*
X52564386Y-50391665D01*
X52524260Y-50334229D01*
X52426633Y-50194226D01*
X52337639Y-50065446D01*
X52259995Y-49951914D01*
X52196421Y-49857656D01*
X52149637Y-49786696D01*
X52122362Y-49743060D01*
X52116423Y-49730520D01*
X52132406Y-49743168D01*
G36*
X37025773Y-34662209D02*
G01*
X37292949Y-34664171D01*
X37544022Y-34667665D01*
X37772621Y-34672712D01*
X37972375Y-34679334D01*
X38136913Y-34687553D01*
X38152916Y-34688576D01*
X39069068Y-34761494D01*
X39954807Y-34858282D01*
X40815345Y-34979943D01*
X41655893Y-35127480D01*
X42481664Y-35301896D01*
X43297870Y-35504193D01*
X44109723Y-35735374D01*
X44883916Y-35983411D01*
X45391916Y-36154836D01*
X45720000Y-36106528D01*
X46021812Y-36073108D01*
X46344876Y-36057069D01*
X46673563Y-36058419D01*
X46992241Y-36077162D01*
X47237553Y-36105876D01*
X47559190Y-36153649D01*
X48094803Y-35974378D01*
X48995523Y-35690888D01*
X49899710Y-35442605D01*
X50811600Y-35228720D01*
X51735425Y-35048422D01*
X52675420Y-34900898D01*
X53635820Y-34785340D01*
X54620858Y-34700936D01*
X54811083Y-34688359D01*
X54956110Y-34681073D01*
X55137075Y-34674974D01*
X55347602Y-34670063D01*
X55581313Y-34666340D01*
X55831829Y-34663804D01*
X56092773Y-34662456D01*
X56357768Y-34662295D01*
X56620435Y-34663323D01*
X56874398Y-34665537D01*
X57113277Y-34668940D01*
X57330696Y-34673530D01*
X57520277Y-34679308D01*
X57675641Y-34686273D01*
X57710916Y-34688359D01*
X58519236Y-34749676D01*
X59296166Y-34829593D01*
X60039475Y-34927843D01*
X60746934Y-35044160D01*
X60854166Y-35063963D01*
X61060890Y-35104002D01*
X61267936Y-35146469D01*
X61470879Y-35190270D01*
X61665294Y-35234310D01*
X61846758Y-35277494D01*
X62010844Y-35318726D01*
X62153128Y-35356912D01*
X62269186Y-35390957D01*
X62354593Y-35419765D01*
X62404924Y-35442241D01*
X62415208Y-35450311D01*
X62421900Y-35479491D01*
X62427716Y-35545945D01*
X62432663Y-35644824D01*
X62436748Y-35771278D01*
X62439979Y-35920458D01*
X62442363Y-36087515D01*
X62443906Y-36267599D01*
X62444616Y-36455861D01*
X62444501Y-36647452D01*
X62443568Y-36837523D01*
X62441823Y-37021224D01*
X62439274Y-37193706D01*
X62435929Y-37350119D01*
X62431794Y-37485614D01*
X62426877Y-37595343D01*
X62421184Y-37674455D01*
X62414724Y-37718102D01*
X62411821Y-37724654D01*
X62376858Y-37742842D01*
X62313383Y-37762250D01*
X62234883Y-37778786D01*
X62231816Y-37779298D01*
X62048874Y-37821920D01*
X61875107Y-37885897D01*
X61719149Y-37966885D01*
X61589637Y-38060537D01*
X61510200Y-38142500D01*
X61458070Y-38213286D01*
X61418552Y-38281639D01*
X61389520Y-38355586D01*
X61368844Y-38443157D01*
X61354395Y-38552378D01*
X61344046Y-38691279D01*
X61339122Y-38787779D01*
X61316224Y-39107594D01*
X61275449Y-39453971D01*
X61216414Y-39829124D01*
X61138733Y-40235268D01*
X61042024Y-40674617D01*
X60937025Y-41105666D01*
X60833626Y-41491111D01*
X60727026Y-41841838D01*
X60614330Y-42165463D01*
X60492640Y-42469600D01*
X60359058Y-42761865D01*
X60210687Y-43049872D01*
X60167346Y-43128553D01*
X59969279Y-43465650D01*
X59768427Y-43770187D01*
X59557747Y-44051725D01*
X59330194Y-44319822D01*
X59141388Y-44520719D01*
X58871308Y-44781829D01*
X58604375Y-45008125D01*
X58332465Y-45205599D01*
X58047455Y-45380242D01*
X57801083Y-45509243D01*
X57507885Y-45641057D01*
X57212980Y-45749442D01*
X56907056Y-45837010D01*
X56580800Y-45906368D01*
X56224898Y-45960124D01*
X56165750Y-45967314D01*
X56013136Y-45981407D01*
X55826667Y-45992341D01*
X55614702Y-46000117D01*
X55385602Y-46004735D01*
X55147726Y-46006196D01*
X54909434Y-46004500D01*
X54679086Y-45999648D01*
X54465042Y-45991640D01*
X54275662Y-45980478D01*
X54128315Y-45967188D01*
X53538734Y-45885175D01*
X52980207Y-45774881D01*
X52452033Y-45636021D01*
X51953513Y-45468312D01*
X51483946Y-45271469D01*
X51042633Y-45045207D01*
X50628874Y-44789244D01*
X50241968Y-44503294D01*
X49987521Y-44285845D01*
X49737068Y-44042006D01*
X49499085Y-43774851D01*
X49271575Y-43481373D01*
X49052541Y-43158567D01*
X48839984Y-42803424D01*
X48631907Y-42412938D01*
X48426312Y-41984104D01*
X48359669Y-41835916D01*
X48270801Y-41631866D01*
X48185638Y-41428641D01*
X48102121Y-41220724D01*
X48018191Y-41002594D01*
X47931790Y-40768733D01*
X47840860Y-40513622D01*
X47743343Y-40231741D01*
X47637179Y-39917573D01*
X47578140Y-39740416D01*
X47514321Y-39549472D01*
X47452280Y-39366355D01*
X47393743Y-39195983D01*
X47340436Y-39043272D01*
X47294085Y-38913139D01*
X47256414Y-38810502D01*
X47255864Y-38809083D01*
X48674096Y-38809083D01*
X48694326Y-39332576D01*
X48752414Y-39855500D01*
X48849014Y-40381757D01*
X48984780Y-40915252D01*
X49077678Y-41217146D01*
X49253820Y-41704330D01*
X49452843Y-42155988D01*
X49674859Y-42572278D01*
X49919979Y-42953362D01*
X50188315Y-43299401D01*
X50479976Y-43610553D01*
X50795076Y-43886981D01*
X51064583Y-44083549D01*
X51522976Y-44365016D01*
X52002939Y-44610375D01*
X52502728Y-44818856D01*
X53020598Y-44989686D01*
X53255333Y-45053127D01*
X53461798Y-45102504D01*
X53662696Y-45144389D01*
X53868135Y-45180437D01*
X54088220Y-45212301D01*
X54333059Y-45241636D01*
X54535916Y-45262667D01*
X54615006Y-45267250D01*
X54728461Y-45269484D01*
X54868390Y-45269583D01*
X55026901Y-45267758D01*
X55196105Y-45264221D01*
X55368110Y-45259186D01*
X55535025Y-45252865D01*
X55688960Y-45245469D01*
X55822023Y-45237211D01*
X55926323Y-45228304D01*
X55960319Y-45224333D01*
X56370135Y-45160529D01*
X56743924Y-45080984D01*
X57085628Y-44983911D01*
X57399187Y-44867522D01*
X57688541Y-44730031D01*
X57957632Y-44569651D01*
X58210400Y-44384595D01*
X58450785Y-44173076D01*
X58592553Y-44030786D01*
X58874699Y-43703885D01*
X59129669Y-43344975D01*
X59357214Y-42954717D01*
X59557081Y-42533771D01*
X59729021Y-42082796D01*
X59872784Y-41602451D01*
X59988118Y-41093395D01*
X60074773Y-40556290D01*
X60132499Y-39991793D01*
X60133868Y-39973250D01*
X60145283Y-39774134D01*
X60152277Y-39556013D01*
X60155089Y-39324357D01*
X60153959Y-39084639D01*
X60149126Y-38842327D01*
X60140828Y-38602895D01*
X60129305Y-38371812D01*
X60114795Y-38154550D01*
X60097538Y-37956579D01*
X60077773Y-37783371D01*
X60055738Y-37640396D01*
X60031674Y-37533126D01*
X60026510Y-37516038D01*
X59947099Y-37332400D01*
X59828938Y-37150163D01*
X59675584Y-36972175D01*
X59490595Y-36801283D01*
X59277530Y-36640335D01*
X59039946Y-36492177D01*
X58781401Y-36359656D01*
X58505455Y-36245621D01*
X58387959Y-36204820D01*
X58131998Y-36127287D01*
X57868788Y-36061000D01*
X57594570Y-36005619D01*
X57305588Y-35960801D01*
X56998082Y-35926208D01*
X56668294Y-35901496D01*
X56312467Y-35886326D01*
X55926842Y-35880357D01*
X55507661Y-35883247D01*
X55051166Y-35894656D01*
X54991000Y-35896675D01*
X54381435Y-35921907D01*
X53811884Y-35954414D01*
X53280609Y-35994488D01*
X52785870Y-36042423D01*
X52325927Y-36098512D01*
X51899042Y-36163049D01*
X51503474Y-36236328D01*
X51137485Y-36318642D01*
X50799335Y-36410285D01*
X50487285Y-36511550D01*
X50199595Y-36622731D01*
X49934527Y-36744121D01*
X49916535Y-36753128D01*
X49665477Y-36895901D01*
X49434904Y-37059657D01*
X49229044Y-37240195D01*
X49052126Y-37433311D01*
X48908377Y-37634802D01*
X48802024Y-37840466D01*
X48788264Y-37874768D01*
X48751901Y-37977669D01*
X48723721Y-38079155D01*
X48702827Y-38186574D01*
X48688320Y-38307276D01*
X48679301Y-38448612D01*
X48674874Y-38617929D01*
X48674096Y-38809083D01*
X47255864Y-38809083D01*
X47229150Y-38740277D01*
X47218621Y-38715991D01*
X47122410Y-38561756D01*
X46994657Y-38432993D01*
X46839933Y-38333084D01*
X46662808Y-38265410D01*
X46586086Y-38248008D01*
X46426779Y-38239251D01*
X46266438Y-38268356D01*
X46111683Y-38331549D01*
X45969135Y-38425057D01*
X45845415Y-38545106D01*
X45747145Y-38687923D01*
X45720576Y-38741286D01*
X45698568Y-38795624D01*
X45665963Y-38883727D01*
X45625051Y-38999034D01*
X45578120Y-39134985D01*
X45527461Y-39285020D01*
X45475361Y-39442579D01*
X45467957Y-39465250D01*
X45301389Y-39967145D01*
X45141455Y-40430225D01*
X44986956Y-40857278D01*
X44836690Y-41251089D01*
X44689456Y-41614445D01*
X44544054Y-41950133D01*
X44399283Y-42260941D01*
X44253943Y-42549654D01*
X44106832Y-42819061D01*
X43956750Y-43071946D01*
X43826257Y-43275526D01*
X43544028Y-43664082D01*
X43232862Y-44022876D01*
X42892536Y-44352026D01*
X42522828Y-44651650D01*
X42123515Y-44921866D01*
X41694374Y-45162793D01*
X41235182Y-45374549D01*
X40745716Y-45557253D01*
X40225754Y-45711022D01*
X39675073Y-45835976D01*
X39093450Y-45932233D01*
X38745583Y-45974561D01*
X38672566Y-45980305D01*
X38566566Y-45985894D01*
X38434588Y-45991190D01*
X38283639Y-45996056D01*
X38120725Y-46000354D01*
X37952852Y-46003947D01*
X37787025Y-46006697D01*
X37630252Y-46008467D01*
X37489537Y-46009119D01*
X37371888Y-46008517D01*
X37284310Y-46006522D01*
X37242750Y-46004046D01*
X37188405Y-45998972D01*
X37103640Y-45991253D01*
X37000205Y-45981952D01*
X36893500Y-45972454D01*
X36519509Y-45929091D01*
X36174820Y-45866932D01*
X35849791Y-45783783D01*
X35534783Y-45677452D01*
X35448003Y-45643604D01*
X35062430Y-45466314D01*
X34691101Y-45250147D01*
X34335301Y-44996528D01*
X33996315Y-44706880D01*
X33675426Y-44382627D01*
X33373919Y-44025194D01*
X33093078Y-43636004D01*
X32834189Y-43216482D01*
X32598534Y-42768052D01*
X32387399Y-42292137D01*
X32357312Y-42216916D01*
X32271867Y-41984420D01*
X32186430Y-41722131D01*
X32102240Y-41435975D01*
X32020542Y-41131875D01*
X31942578Y-40815759D01*
X31869589Y-40493550D01*
X31802819Y-40171174D01*
X31743510Y-39854556D01*
X31692904Y-39549621D01*
X31652243Y-39262294D01*
X31638253Y-39137072D01*
X32803136Y-39137072D01*
X32805519Y-39464066D01*
X32814946Y-39782326D01*
X32831514Y-40083422D01*
X32855320Y-40358926D01*
X32861825Y-40417750D01*
X32937706Y-40941039D01*
X33041039Y-41439814D01*
X33171147Y-41912902D01*
X33327354Y-42359131D01*
X33508983Y-42777328D01*
X33715357Y-43166323D01*
X33945801Y-43524942D01*
X34199636Y-43852014D01*
X34476187Y-44146366D01*
X34774777Y-44406826D01*
X35094729Y-44632223D01*
X35391262Y-44799550D01*
X35589196Y-44887142D01*
X35823182Y-44969818D01*
X36087083Y-45046134D01*
X36374762Y-45114645D01*
X36680081Y-45173908D01*
X36996901Y-45222479D01*
X37319086Y-45258913D01*
X37359166Y-45262519D01*
X37458685Y-45267906D01*
X37592051Y-45270300D01*
X37750904Y-45269964D01*
X37926881Y-45267163D01*
X38111624Y-45262160D01*
X38296770Y-45255219D01*
X38473959Y-45246604D01*
X38634831Y-45236579D01*
X38771024Y-45225408D01*
X38862000Y-45215090D01*
X39367210Y-45130002D01*
X39846693Y-45016383D01*
X40307931Y-44871956D01*
X40758405Y-44694445D01*
X41105199Y-44532509D01*
X41448435Y-44352589D01*
X41754393Y-44172709D01*
X42027961Y-43989178D01*
X42274031Y-43798307D01*
X42497492Y-43596405D01*
X42703234Y-43379784D01*
X42826017Y-43234016D01*
X43078012Y-42891412D01*
X43310536Y-42515116D01*
X43522057Y-42109783D01*
X43711042Y-41680065D01*
X43875961Y-41230615D01*
X44015280Y-40766087D01*
X44127469Y-40291134D01*
X44210994Y-39810409D01*
X44264325Y-39328566D01*
X44285929Y-38850258D01*
X44286301Y-38798500D01*
X44284093Y-38569013D01*
X44274812Y-38374294D01*
X44256990Y-38207151D01*
X44229157Y-38060391D01*
X44189842Y-37926821D01*
X44137575Y-37799248D01*
X44070888Y-37670480D01*
X44047514Y-37629971D01*
X43975310Y-37524838D01*
X43876278Y-37405154D01*
X43759004Y-37279559D01*
X43632072Y-37156697D01*
X43504069Y-37045210D01*
X43383580Y-36953740D01*
X43359916Y-36937805D01*
X43097097Y-36782597D01*
X42801990Y-36640888D01*
X42473322Y-36512302D01*
X42109816Y-36396463D01*
X41710196Y-36292994D01*
X41273188Y-36201519D01*
X40797514Y-36121661D01*
X40417750Y-36069558D01*
X40108412Y-36033968D01*
X39777019Y-36001720D01*
X39428528Y-35972968D01*
X39067895Y-35947866D01*
X38700075Y-35926567D01*
X38330025Y-35909225D01*
X37962702Y-35895992D01*
X37603061Y-35887023D01*
X37256058Y-35882471D01*
X36926650Y-35882489D01*
X36619793Y-35887231D01*
X36340444Y-35896851D01*
X36093557Y-35911501D01*
X35898666Y-35929633D01*
X35438458Y-35995071D01*
X35013390Y-36081678D01*
X34623744Y-36189336D01*
X34269800Y-36317929D01*
X33951840Y-36467338D01*
X33670146Y-36637446D01*
X33424999Y-36828136D01*
X33216682Y-37039291D01*
X33205893Y-37051977D01*
X33106679Y-37184567D01*
X33019457Y-37329807D01*
X32950128Y-37476100D01*
X32904592Y-37611848D01*
X32893484Y-37666083D01*
X32862102Y-37910321D01*
X32837280Y-38187967D01*
X32819113Y-38490594D01*
X32807700Y-38809771D01*
X32803136Y-39137072D01*
X31638253Y-39137072D01*
X31622771Y-38998501D01*
X31605728Y-38764166D01*
X31601851Y-38614085D01*
X31582307Y-38437661D01*
X31524770Y-38277837D01*
X31430812Y-38136164D01*
X31302006Y-38014194D01*
X31139927Y-37913477D01*
X30946148Y-37835564D01*
X30765750Y-37789986D01*
X30678492Y-37771424D01*
X30605831Y-37753220D01*
X30558782Y-37738255D01*
X30548791Y-37733265D01*
X30542453Y-37707953D01*
X30536898Y-37645097D01*
X30532121Y-37549483D01*
X30528120Y-37425891D01*
X30524894Y-37279107D01*
X30522439Y-37113914D01*
X30520753Y-36935094D01*
X30519833Y-36747430D01*
X30519677Y-36555707D01*
X30520281Y-36364707D01*
X30521645Y-36179214D01*
X30523764Y-36004011D01*
X30526636Y-35843881D01*
X30530259Y-35703608D01*
X30534631Y-35587974D01*
X30539748Y-35501763D01*
X30545607Y-35449759D01*
X30550031Y-35436362D01*
X30579245Y-35423384D01*
X30641847Y-35402533D01*
X30730142Y-35376149D01*
X30836434Y-35346572D01*
X30904573Y-35328546D01*
X31532066Y-35179053D01*
X32196788Y-35046509D01*
X32897067Y-34931167D01*
X33631229Y-34833279D01*
X34397602Y-34753098D01*
X35073166Y-34699050D01*
X35239814Y-34689539D01*
X35441326Y-34681387D01*
X35671331Y-34674614D01*
X35923458Y-34669243D01*
X36191337Y-34665296D01*
X36468596Y-34662793D01*
X36748865Y-34661757D01*
X37025773Y-34662209D01*
G37*
X37025773Y-34662209D02*
X37292949Y-34664171D01*
X37544022Y-34667665D01*
X37772621Y-34672712D01*
X37972375Y-34679334D01*
X38136913Y-34687553D01*
X38152916Y-34688576D01*
X39069068Y-34761494D01*
X39954807Y-34858282D01*
X40815345Y-34979943D01*
X41655893Y-35127480D01*
X42481664Y-35301896D01*
X43297870Y-35504193D01*
X44109723Y-35735374D01*
X44883916Y-35983411D01*
X45391916Y-36154836D01*
X45720000Y-36106528D01*
X46021812Y-36073108D01*
X46344876Y-36057069D01*
X46673563Y-36058419D01*
X46992241Y-36077162D01*
X47237553Y-36105876D01*
X47559190Y-36153649D01*
X48094803Y-35974378D01*
X48995523Y-35690888D01*
X49899710Y-35442605D01*
X50811600Y-35228720D01*
X51735425Y-35048422D01*
X52675420Y-34900898D01*
X53635820Y-34785340D01*
X54620858Y-34700936D01*
X54811083Y-34688359D01*
X54956110Y-34681073D01*
X55137075Y-34674974D01*
X55347602Y-34670063D01*
X55581313Y-34666340D01*
X55831829Y-34663804D01*
X56092773Y-34662456D01*
X56357768Y-34662295D01*
X56620435Y-34663323D01*
X56874398Y-34665537D01*
X57113277Y-34668940D01*
X57330696Y-34673530D01*
X57520277Y-34679308D01*
X57675641Y-34686273D01*
X57710916Y-34688359D01*
X58519236Y-34749676D01*
X59296166Y-34829593D01*
X60039475Y-34927843D01*
X60746934Y-35044160D01*
X60854166Y-35063963D01*
X61060890Y-35104002D01*
X61267936Y-35146469D01*
X61470879Y-35190270D01*
X61665294Y-35234310D01*
X61846758Y-35277494D01*
X62010844Y-35318726D01*
X62153128Y-35356912D01*
X62269186Y-35390957D01*
X62354593Y-35419765D01*
X62404924Y-35442241D01*
X62415208Y-35450311D01*
X62421900Y-35479491D01*
X62427716Y-35545945D01*
X62432663Y-35644824D01*
X62436748Y-35771278D01*
X62439979Y-35920458D01*
X62442363Y-36087515D01*
X62443906Y-36267599D01*
X62444616Y-36455861D01*
X62444501Y-36647452D01*
X62443568Y-36837523D01*
X62441823Y-37021224D01*
X62439274Y-37193706D01*
X62435929Y-37350119D01*
X62431794Y-37485614D01*
X62426877Y-37595343D01*
X62421184Y-37674455D01*
X62414724Y-37718102D01*
X62411821Y-37724654D01*
X62376858Y-37742842D01*
X62313383Y-37762250D01*
X62234883Y-37778786D01*
X62231816Y-37779298D01*
X62048874Y-37821920D01*
X61875107Y-37885897D01*
X61719149Y-37966885D01*
X61589637Y-38060537D01*
X61510200Y-38142500D01*
X61458070Y-38213286D01*
X61418552Y-38281639D01*
X61389520Y-38355586D01*
X61368844Y-38443157D01*
X61354395Y-38552378D01*
X61344046Y-38691279D01*
X61339122Y-38787779D01*
X61316224Y-39107594D01*
X61275449Y-39453971D01*
X61216414Y-39829124D01*
X61138733Y-40235268D01*
X61042024Y-40674617D01*
X60937025Y-41105666D01*
X60833626Y-41491111D01*
X60727026Y-41841838D01*
X60614330Y-42165463D01*
X60492640Y-42469600D01*
X60359058Y-42761865D01*
X60210687Y-43049872D01*
X60167346Y-43128553D01*
X59969279Y-43465650D01*
X59768427Y-43770187D01*
X59557747Y-44051725D01*
X59330194Y-44319822D01*
X59141388Y-44520719D01*
X58871308Y-44781829D01*
X58604375Y-45008125D01*
X58332465Y-45205599D01*
X58047455Y-45380242D01*
X57801083Y-45509243D01*
X57507885Y-45641057D01*
X57212980Y-45749442D01*
X56907056Y-45837010D01*
X56580800Y-45906368D01*
X56224898Y-45960124D01*
X56165750Y-45967314D01*
X56013136Y-45981407D01*
X55826667Y-45992341D01*
X55614702Y-46000117D01*
X55385602Y-46004735D01*
X55147726Y-46006196D01*
X54909434Y-46004500D01*
X54679086Y-45999648D01*
X54465042Y-45991640D01*
X54275662Y-45980478D01*
X54128315Y-45967188D01*
X53538734Y-45885175D01*
X52980207Y-45774881D01*
X52452033Y-45636021D01*
X51953513Y-45468312D01*
X51483946Y-45271469D01*
X51042633Y-45045207D01*
X50628874Y-44789244D01*
X50241968Y-44503294D01*
X49987521Y-44285845D01*
X49737068Y-44042006D01*
X49499085Y-43774851D01*
X49271575Y-43481373D01*
X49052541Y-43158567D01*
X48839984Y-42803424D01*
X48631907Y-42412938D01*
X48426312Y-41984104D01*
X48359669Y-41835916D01*
X48270801Y-41631866D01*
X48185638Y-41428641D01*
X48102121Y-41220724D01*
X48018191Y-41002594D01*
X47931790Y-40768733D01*
X47840860Y-40513622D01*
X47743343Y-40231741D01*
X47637179Y-39917573D01*
X47578140Y-39740416D01*
X47514321Y-39549472D01*
X47452280Y-39366355D01*
X47393743Y-39195983D01*
X47340436Y-39043272D01*
X47294085Y-38913139D01*
X47256414Y-38810502D01*
X47255864Y-38809083D01*
X48674096Y-38809083D01*
X48694326Y-39332576D01*
X48752414Y-39855500D01*
X48849014Y-40381757D01*
X48984780Y-40915252D01*
X49077678Y-41217146D01*
X49253820Y-41704330D01*
X49452843Y-42155988D01*
X49674859Y-42572278D01*
X49919979Y-42953362D01*
X50188315Y-43299401D01*
X50479976Y-43610553D01*
X50795076Y-43886981D01*
X51064583Y-44083549D01*
X51522976Y-44365016D01*
X52002939Y-44610375D01*
X52502728Y-44818856D01*
X53020598Y-44989686D01*
X53255333Y-45053127D01*
X53461798Y-45102504D01*
X53662696Y-45144389D01*
X53868135Y-45180437D01*
X54088220Y-45212301D01*
X54333059Y-45241636D01*
X54535916Y-45262667D01*
X54615006Y-45267250D01*
X54728461Y-45269484D01*
X54868390Y-45269583D01*
X55026901Y-45267758D01*
X55196105Y-45264221D01*
X55368110Y-45259186D01*
X55535025Y-45252865D01*
X55688960Y-45245469D01*
X55822023Y-45237211D01*
X55926323Y-45228304D01*
X55960319Y-45224333D01*
X56370135Y-45160529D01*
X56743924Y-45080984D01*
X57085628Y-44983911D01*
X57399187Y-44867522D01*
X57688541Y-44730031D01*
X57957632Y-44569651D01*
X58210400Y-44384595D01*
X58450785Y-44173076D01*
X58592553Y-44030786D01*
X58874699Y-43703885D01*
X59129669Y-43344975D01*
X59357214Y-42954717D01*
X59557081Y-42533771D01*
X59729021Y-42082796D01*
X59872784Y-41602451D01*
X59988118Y-41093395D01*
X60074773Y-40556290D01*
X60132499Y-39991793D01*
X60133868Y-39973250D01*
X60145283Y-39774134D01*
X60152277Y-39556013D01*
X60155089Y-39324357D01*
X60153959Y-39084639D01*
X60149126Y-38842327D01*
X60140828Y-38602895D01*
X60129305Y-38371812D01*
X60114795Y-38154550D01*
X60097538Y-37956579D01*
X60077773Y-37783371D01*
X60055738Y-37640396D01*
X60031674Y-37533126D01*
X60026510Y-37516038D01*
X59947099Y-37332400D01*
X59828938Y-37150163D01*
X59675584Y-36972175D01*
X59490595Y-36801283D01*
X59277530Y-36640335D01*
X59039946Y-36492177D01*
X58781401Y-36359656D01*
X58505455Y-36245621D01*
X58387959Y-36204820D01*
X58131998Y-36127287D01*
X57868788Y-36061000D01*
X57594570Y-36005619D01*
X57305588Y-35960801D01*
X56998082Y-35926208D01*
X56668294Y-35901496D01*
X56312467Y-35886326D01*
X55926842Y-35880357D01*
X55507661Y-35883247D01*
X55051166Y-35894656D01*
X54991000Y-35896675D01*
X54381435Y-35921907D01*
X53811884Y-35954414D01*
X53280609Y-35994488D01*
X52785870Y-36042423D01*
X52325927Y-36098512D01*
X51899042Y-36163049D01*
X51503474Y-36236328D01*
X51137485Y-36318642D01*
X50799335Y-36410285D01*
X50487285Y-36511550D01*
X50199595Y-36622731D01*
X49934527Y-36744121D01*
X49916535Y-36753128D01*
X49665477Y-36895901D01*
X49434904Y-37059657D01*
X49229044Y-37240195D01*
X49052126Y-37433311D01*
X48908377Y-37634802D01*
X48802024Y-37840466D01*
X48788264Y-37874768D01*
X48751901Y-37977669D01*
X48723721Y-38079155D01*
X48702827Y-38186574D01*
X48688320Y-38307276D01*
X48679301Y-38448612D01*
X48674874Y-38617929D01*
X48674096Y-38809083D01*
X47255864Y-38809083D01*
X47229150Y-38740277D01*
X47218621Y-38715991D01*
X47122410Y-38561756D01*
X46994657Y-38432993D01*
X46839933Y-38333084D01*
X46662808Y-38265410D01*
X46586086Y-38248008D01*
X46426779Y-38239251D01*
X46266438Y-38268356D01*
X46111683Y-38331549D01*
X45969135Y-38425057D01*
X45845415Y-38545106D01*
X45747145Y-38687923D01*
X45720576Y-38741286D01*
X45698568Y-38795624D01*
X45665963Y-38883727D01*
X45625051Y-38999034D01*
X45578120Y-39134985D01*
X45527461Y-39285020D01*
X45475361Y-39442579D01*
X45467957Y-39465250D01*
X45301389Y-39967145D01*
X45141455Y-40430225D01*
X44986956Y-40857278D01*
X44836690Y-41251089D01*
X44689456Y-41614445D01*
X44544054Y-41950133D01*
X44399283Y-42260941D01*
X44253943Y-42549654D01*
X44106832Y-42819061D01*
X43956750Y-43071946D01*
X43826257Y-43275526D01*
X43544028Y-43664082D01*
X43232862Y-44022876D01*
X42892536Y-44352026D01*
X42522828Y-44651650D01*
X42123515Y-44921866D01*
X41694374Y-45162793D01*
X41235182Y-45374549D01*
X40745716Y-45557253D01*
X40225754Y-45711022D01*
X39675073Y-45835976D01*
X39093450Y-45932233D01*
X38745583Y-45974561D01*
X38672566Y-45980305D01*
X38566566Y-45985894D01*
X38434588Y-45991190D01*
X38283639Y-45996056D01*
X38120725Y-46000354D01*
X37952852Y-46003947D01*
X37787025Y-46006697D01*
X37630252Y-46008467D01*
X37489537Y-46009119D01*
X37371888Y-46008517D01*
X37284310Y-46006522D01*
X37242750Y-46004046D01*
X37188405Y-45998972D01*
X37103640Y-45991253D01*
X37000205Y-45981952D01*
X36893500Y-45972454D01*
X36519509Y-45929091D01*
X36174820Y-45866932D01*
X35849791Y-45783783D01*
X35534783Y-45677452D01*
X35448003Y-45643604D01*
X35062430Y-45466314D01*
X34691101Y-45250147D01*
X34335301Y-44996528D01*
X33996315Y-44706880D01*
X33675426Y-44382627D01*
X33373919Y-44025194D01*
X33093078Y-43636004D01*
X32834189Y-43216482D01*
X32598534Y-42768052D01*
X32387399Y-42292137D01*
X32357312Y-42216916D01*
X32271867Y-41984420D01*
X32186430Y-41722131D01*
X32102240Y-41435975D01*
X32020542Y-41131875D01*
X31942578Y-40815759D01*
X31869589Y-40493550D01*
X31802819Y-40171174D01*
X31743510Y-39854556D01*
X31692904Y-39549621D01*
X31652243Y-39262294D01*
X31638253Y-39137072D01*
X32803136Y-39137072D01*
X32805519Y-39464066D01*
X32814946Y-39782326D01*
X32831514Y-40083422D01*
X32855320Y-40358926D01*
X32861825Y-40417750D01*
X32937706Y-40941039D01*
X33041039Y-41439814D01*
X33171147Y-41912902D01*
X33327354Y-42359131D01*
X33508983Y-42777328D01*
X33715357Y-43166323D01*
X33945801Y-43524942D01*
X34199636Y-43852014D01*
X34476187Y-44146366D01*
X34774777Y-44406826D01*
X35094729Y-44632223D01*
X35391262Y-44799550D01*
X35589196Y-44887142D01*
X35823182Y-44969818D01*
X36087083Y-45046134D01*
X36374762Y-45114645D01*
X36680081Y-45173908D01*
X36996901Y-45222479D01*
X37319086Y-45258913D01*
X37359166Y-45262519D01*
X37458685Y-45267906D01*
X37592051Y-45270300D01*
X37750904Y-45269964D01*
X37926881Y-45267163D01*
X38111624Y-45262160D01*
X38296770Y-45255219D01*
X38473959Y-45246604D01*
X38634831Y-45236579D01*
X38771024Y-45225408D01*
X38862000Y-45215090D01*
X39367210Y-45130002D01*
X39846693Y-45016383D01*
X40307931Y-44871956D01*
X40758405Y-44694445D01*
X41105199Y-44532509D01*
X41448435Y-44352589D01*
X41754393Y-44172709D01*
X42027961Y-43989178D01*
X42274031Y-43798307D01*
X42497492Y-43596405D01*
X42703234Y-43379784D01*
X42826017Y-43234016D01*
X43078012Y-42891412D01*
X43310536Y-42515116D01*
X43522057Y-42109783D01*
X43711042Y-41680065D01*
X43875961Y-41230615D01*
X44015280Y-40766087D01*
X44127469Y-40291134D01*
X44210994Y-39810409D01*
X44264325Y-39328566D01*
X44285929Y-38850258D01*
X44286301Y-38798500D01*
X44284093Y-38569013D01*
X44274812Y-38374294D01*
X44256990Y-38207151D01*
X44229157Y-38060391D01*
X44189842Y-37926821D01*
X44137575Y-37799248D01*
X44070888Y-37670480D01*
X44047514Y-37629971D01*
X43975310Y-37524838D01*
X43876278Y-37405154D01*
X43759004Y-37279559D01*
X43632072Y-37156697D01*
X43504069Y-37045210D01*
X43383580Y-36953740D01*
X43359916Y-36937805D01*
X43097097Y-36782597D01*
X42801990Y-36640888D01*
X42473322Y-36512302D01*
X42109816Y-36396463D01*
X41710196Y-36292994D01*
X41273188Y-36201519D01*
X40797514Y-36121661D01*
X40417750Y-36069558D01*
X40108412Y-36033968D01*
X39777019Y-36001720D01*
X39428528Y-35972968D01*
X39067895Y-35947866D01*
X38700075Y-35926567D01*
X38330025Y-35909225D01*
X37962702Y-35895992D01*
X37603061Y-35887023D01*
X37256058Y-35882471D01*
X36926650Y-35882489D01*
X36619793Y-35887231D01*
X36340444Y-35896851D01*
X36093557Y-35911501D01*
X35898666Y-35929633D01*
X35438458Y-35995071D01*
X35013390Y-36081678D01*
X34623744Y-36189336D01*
X34269800Y-36317929D01*
X33951840Y-36467338D01*
X33670146Y-36637446D01*
X33424999Y-36828136D01*
X33216682Y-37039291D01*
X33205893Y-37051977D01*
X33106679Y-37184567D01*
X33019457Y-37329807D01*
X32950128Y-37476100D01*
X32904592Y-37611848D01*
X32893484Y-37666083D01*
X32862102Y-37910321D01*
X32837280Y-38187967D01*
X32819113Y-38490594D01*
X32807700Y-38809771D01*
X32803136Y-39137072D01*
X31638253Y-39137072D01*
X31622771Y-38998501D01*
X31605728Y-38764166D01*
X31601851Y-38614085D01*
X31582307Y-38437661D01*
X31524770Y-38277837D01*
X31430812Y-38136164D01*
X31302006Y-38014194D01*
X31139927Y-37913477D01*
X30946148Y-37835564D01*
X30765750Y-37789986D01*
X30678492Y-37771424D01*
X30605831Y-37753220D01*
X30558782Y-37738255D01*
X30548791Y-37733265D01*
X30542453Y-37707953D01*
X30536898Y-37645097D01*
X30532121Y-37549483D01*
X30528120Y-37425891D01*
X30524894Y-37279107D01*
X30522439Y-37113914D01*
X30520753Y-36935094D01*
X30519833Y-36747430D01*
X30519677Y-36555707D01*
X30520281Y-36364707D01*
X30521645Y-36179214D01*
X30523764Y-36004011D01*
X30526636Y-35843881D01*
X30530259Y-35703608D01*
X30534631Y-35587974D01*
X30539748Y-35501763D01*
X30545607Y-35449759D01*
X30550031Y-35436362D01*
X30579245Y-35423384D01*
X30641847Y-35402533D01*
X30730142Y-35376149D01*
X30836434Y-35346572D01*
X30904573Y-35328546D01*
X31532066Y-35179053D01*
X32196788Y-35046509D01*
X32897067Y-34931167D01*
X33631229Y-34833279D01*
X34397602Y-34753098D01*
X35073166Y-34699050D01*
X35239814Y-34689539D01*
X35441326Y-34681387D01*
X35671331Y-34674614D01*
X35923458Y-34669243D01*
X36191337Y-34665296D01*
X36468596Y-34662793D01*
X36748865Y-34661757D01*
X37025773Y-34662209D01*
G36*
X47120131Y-42293510D02*
G01*
X47210270Y-42294933D01*
X47277913Y-42297455D01*
X47327028Y-42301236D01*
X47361581Y-42306434D01*
X47385541Y-42313208D01*
X47402874Y-42321716D01*
X47417548Y-42332116D01*
X47420242Y-42334224D01*
X47465694Y-42388423D01*
X47476833Y-42447168D01*
X47473322Y-42471208D01*
X47460963Y-42501666D01*
X47437016Y-42542265D01*
X47398740Y-42596728D01*
X47343397Y-42668776D01*
X47268247Y-42762134D01*
X47170549Y-42880523D01*
X47064083Y-43007968D01*
X46651333Y-43500338D01*
X46651333Y-44228375D01*
X46651605Y-44443425D01*
X46652995Y-44620937D01*
X46656362Y-44765706D01*
X46662566Y-44882528D01*
X46672467Y-44976196D01*
X46686925Y-45051506D01*
X46706798Y-45113252D01*
X46732948Y-45166230D01*
X46766233Y-45215234D01*
X46807513Y-45265059D01*
X46844595Y-45306242D01*
X46977434Y-45422488D01*
X47126351Y-45501893D01*
X47285738Y-45543971D01*
X47449985Y-45548236D01*
X47613484Y-45514204D01*
X47770623Y-45441389D01*
X47842080Y-45392570D01*
X47944778Y-45291019D01*
X48030930Y-45161146D01*
X48094300Y-45015688D01*
X48128651Y-44867383D01*
X48133000Y-44798492D01*
X48151236Y-44726903D01*
X48198794Y-44674071D01*
X48264947Y-44645034D01*
X48338967Y-44644828D01*
X48401780Y-44672276D01*
X48444593Y-44726805D01*
X48464171Y-44808964D01*
X48462294Y-44912230D01*
X48440743Y-45030083D01*
X48401299Y-45156000D01*
X48345740Y-45283458D01*
X48275849Y-45405937D01*
X48193405Y-45516914D01*
X48161574Y-45552189D01*
X48004427Y-45688088D01*
X47829791Y-45788233D01*
X47642839Y-45852626D01*
X47448741Y-45881270D01*
X47252670Y-45874169D01*
X47059796Y-45831327D01*
X46875292Y-45752745D01*
X46704328Y-45638428D01*
X46608971Y-45551221D01*
X46471359Y-45410070D01*
X46365561Y-45526345D01*
X46211180Y-45666180D01*
X46035460Y-45772940D01*
X45844473Y-45844665D01*
X45644293Y-45879395D01*
X45440991Y-45875172D01*
X45339000Y-45857600D01*
X45147577Y-45794457D01*
X44972874Y-45697888D01*
X44818985Y-45572810D01*
X44690004Y-45424143D01*
X44590028Y-45256802D01*
X44523151Y-45075706D01*
X44493468Y-44885774D01*
X44492333Y-44840825D01*
X44506099Y-44743517D01*
X44547440Y-44678310D01*
X44616421Y-44645128D01*
X44665041Y-44640500D01*
X44733301Y-44651964D01*
X44781708Y-44689721D01*
X44814059Y-44758820D01*
X44834151Y-44864307D01*
X44834302Y-44865561D01*
X44875117Y-45047135D01*
X44950301Y-45205146D01*
X45058570Y-45337729D01*
X45198640Y-45443017D01*
X45250874Y-45471086D01*
X45327076Y-45506212D01*
X45390188Y-45526960D01*
X45457283Y-45536999D01*
X45545435Y-45540002D01*
X45571833Y-45540083D01*
X45667523Y-45538245D01*
X45738077Y-45530265D01*
X45800623Y-45512439D01*
X45872288Y-45481065D01*
X45894181Y-45470402D01*
X46036584Y-45380939D01*
X46150584Y-45264686D01*
X46241880Y-45115751D01*
X46246512Y-45106166D01*
X46302083Y-44989750D01*
X46307864Y-44248916D01*
X46313645Y-43508083D01*
X45889822Y-43003953D01*
X45749061Y-42834916D01*
X45636866Y-42696635D01*
X45553020Y-42588824D01*
X45497305Y-42511200D01*
X45469502Y-42463476D01*
X45466000Y-42450673D01*
X45479143Y-42398254D01*
X45506448Y-42351553D01*
X45546897Y-42301583D01*
X46455274Y-42295646D01*
X46675068Y-42294255D01*
X46856498Y-42293330D01*
X47003530Y-42293029D01*
X47120131Y-42293510D01*
G37*
X47120131Y-42293510D02*
X47210270Y-42294933D01*
X47277913Y-42297455D01*
X47327028Y-42301236D01*
X47361581Y-42306434D01*
X47385541Y-42313208D01*
X47402874Y-42321716D01*
X47417548Y-42332116D01*
X47420242Y-42334224D01*
X47465694Y-42388423D01*
X47476833Y-42447168D01*
X47473322Y-42471208D01*
X47460963Y-42501666D01*
X47437016Y-42542265D01*
X47398740Y-42596728D01*
X47343397Y-42668776D01*
X47268247Y-42762134D01*
X47170549Y-42880523D01*
X47064083Y-43007968D01*
X46651333Y-43500338D01*
X46651333Y-44228375D01*
X46651605Y-44443425D01*
X46652995Y-44620937D01*
X46656362Y-44765706D01*
X46662566Y-44882528D01*
X46672467Y-44976196D01*
X46686925Y-45051506D01*
X46706798Y-45113252D01*
X46732948Y-45166230D01*
X46766233Y-45215234D01*
X46807513Y-45265059D01*
X46844595Y-45306242D01*
X46977434Y-45422488D01*
X47126351Y-45501893D01*
X47285738Y-45543971D01*
X47449985Y-45548236D01*
X47613484Y-45514204D01*
X47770623Y-45441389D01*
X47842080Y-45392570D01*
X47944778Y-45291019D01*
X48030930Y-45161146D01*
X48094300Y-45015688D01*
X48128651Y-44867383D01*
X48133000Y-44798492D01*
X48151236Y-44726903D01*
X48198794Y-44674071D01*
X48264947Y-44645034D01*
X48338967Y-44644828D01*
X48401780Y-44672276D01*
X48444593Y-44726805D01*
X48464171Y-44808964D01*
X48462294Y-44912230D01*
X48440743Y-45030083D01*
X48401299Y-45156000D01*
X48345740Y-45283458D01*
X48275849Y-45405937D01*
X48193405Y-45516914D01*
X48161574Y-45552189D01*
X48004427Y-45688088D01*
X47829791Y-45788233D01*
X47642839Y-45852626D01*
X47448741Y-45881270D01*
X47252670Y-45874169D01*
X47059796Y-45831327D01*
X46875292Y-45752745D01*
X46704328Y-45638428D01*
X46608971Y-45551221D01*
X46471359Y-45410070D01*
X46365561Y-45526345D01*
X46211180Y-45666180D01*
X46035460Y-45772940D01*
X45844473Y-45844665D01*
X45644293Y-45879395D01*
X45440991Y-45875172D01*
X45339000Y-45857600D01*
X45147577Y-45794457D01*
X44972874Y-45697888D01*
X44818985Y-45572810D01*
X44690004Y-45424143D01*
X44590028Y-45256802D01*
X44523151Y-45075706D01*
X44493468Y-44885774D01*
X44492333Y-44840825D01*
X44506099Y-44743517D01*
X44547440Y-44678310D01*
X44616421Y-44645128D01*
X44665041Y-44640500D01*
X44733301Y-44651964D01*
X44781708Y-44689721D01*
X44814059Y-44758820D01*
X44834151Y-44864307D01*
X44834302Y-44865561D01*
X44875117Y-45047135D01*
X44950301Y-45205146D01*
X45058570Y-45337729D01*
X45198640Y-45443017D01*
X45250874Y-45471086D01*
X45327076Y-45506212D01*
X45390188Y-45526960D01*
X45457283Y-45536999D01*
X45545435Y-45540002D01*
X45571833Y-45540083D01*
X45667523Y-45538245D01*
X45738077Y-45530265D01*
X45800623Y-45512439D01*
X45872288Y-45481065D01*
X45894181Y-45470402D01*
X46036584Y-45380939D01*
X46150584Y-45264686D01*
X46241880Y-45115751D01*
X46246512Y-45106166D01*
X46302083Y-44989750D01*
X46307864Y-44248916D01*
X46313645Y-43508083D01*
X45889822Y-43003953D01*
X45749061Y-42834916D01*
X45636866Y-42696635D01*
X45553020Y-42588824D01*
X45497305Y-42511200D01*
X45469502Y-42463476D01*
X45466000Y-42450673D01*
X45479143Y-42398254D01*
X45506448Y-42351553D01*
X45546897Y-42301583D01*
X46455274Y-42295646D01*
X46675068Y-42294255D01*
X46856498Y-42293330D01*
X47003530Y-42293029D01*
X47120131Y-42293510D01*
G36*
X38501407Y-39545812D02*
G01*
X38608223Y-39593408D01*
X38699816Y-39673041D01*
X38729684Y-39712830D01*
X38774123Y-39813416D01*
X38791524Y-39930045D01*
X38781556Y-40047256D01*
X38743888Y-40149594D01*
X38739224Y-40157391D01*
X38658096Y-40249774D01*
X38551880Y-40314212D01*
X38430653Y-40346330D01*
X38311666Y-40343077D01*
X38190889Y-40302411D01*
X38093199Y-40231088D01*
X38022229Y-40136053D01*
X37981615Y-40024250D01*
X37974992Y-39902621D01*
X38005995Y-39778112D01*
X38010454Y-39767683D01*
X38077041Y-39663967D01*
X38167186Y-39589330D01*
X38273132Y-39544364D01*
X38387125Y-39529661D01*
X38501407Y-39545812D01*
G37*
X38501407Y-39545812D02*
X38608223Y-39593408D01*
X38699816Y-39673041D01*
X38729684Y-39712830D01*
X38774123Y-39813416D01*
X38791524Y-39930045D01*
X38781556Y-40047256D01*
X38743888Y-40149594D01*
X38739224Y-40157391D01*
X38658096Y-40249774D01*
X38551880Y-40314212D01*
X38430653Y-40346330D01*
X38311666Y-40343077D01*
X38190889Y-40302411D01*
X38093199Y-40231088D01*
X38022229Y-40136053D01*
X37981615Y-40024250D01*
X37974992Y-39902621D01*
X38005995Y-39778112D01*
X38010454Y-39767683D01*
X38077041Y-39663967D01*
X38167186Y-39589330D01*
X38273132Y-39544364D01*
X38387125Y-39529661D01*
X38501407Y-39545812D01*
G36*
X40184702Y-38090264D02*
G01*
X40260638Y-38094329D01*
X40319530Y-38103887D01*
X40374019Y-38121219D01*
X40436745Y-38148602D01*
X40454972Y-38157180D01*
X40624646Y-38259142D01*
X40764622Y-38387516D01*
X40873077Y-38537395D01*
X40948193Y-38703871D01*
X40988148Y-38882035D01*
X40991124Y-39066981D01*
X40955298Y-39253800D01*
X40908090Y-39378869D01*
X40809727Y-39545618D01*
X40682695Y-39683555D01*
X40531319Y-39790389D01*
X40359925Y-39863830D01*
X40172837Y-39901589D01*
X39974380Y-39901375D01*
X39930916Y-39896187D01*
X39755826Y-39851258D01*
X39596163Y-39770893D01*
X39455735Y-39660359D01*
X39338348Y-39524928D01*
X39247811Y-39369869D01*
X39187931Y-39200451D01*
X39162514Y-39021946D01*
X39173839Y-38848280D01*
X39226999Y-38659134D01*
X39316881Y-38488150D01*
X39440221Y-38339590D01*
X39593752Y-38217717D01*
X39703194Y-38157180D01*
X39769902Y-38126962D01*
X39825250Y-38107359D01*
X39881879Y-38096091D01*
X39952428Y-38090881D01*
X40049536Y-38089451D01*
X40079083Y-38089416D01*
X40184702Y-38090264D01*
G37*
X40184702Y-38090264D02*
X40260638Y-38094329D01*
X40319530Y-38103887D01*
X40374019Y-38121219D01*
X40436745Y-38148602D01*
X40454972Y-38157180D01*
X40624646Y-38259142D01*
X40764622Y-38387516D01*
X40873077Y-38537395D01*
X40948193Y-38703871D01*
X40988148Y-38882035D01*
X40991124Y-39066981D01*
X40955298Y-39253800D01*
X40908090Y-39378869D01*
X40809727Y-39545618D01*
X40682695Y-39683555D01*
X40531319Y-39790389D01*
X40359925Y-39863830D01*
X40172837Y-39901589D01*
X39974380Y-39901375D01*
X39930916Y-39896187D01*
X39755826Y-39851258D01*
X39596163Y-39770893D01*
X39455735Y-39660359D01*
X39338348Y-39524928D01*
X39247811Y-39369869D01*
X39187931Y-39200451D01*
X39162514Y-39021946D01*
X39173839Y-38848280D01*
X39226999Y-38659134D01*
X39316881Y-38488150D01*
X39440221Y-38339590D01*
X39593752Y-38217717D01*
X39703194Y-38157180D01*
X39769902Y-38126962D01*
X39825250Y-38107359D01*
X39881879Y-38096091D01*
X39952428Y-38090881D01*
X40049536Y-38089451D01*
X40079083Y-38089416D01*
X40184702Y-38090264D01*
G36*
X54699184Y-39547524D02*
G01*
X54750282Y-39567006D01*
X54838652Y-39631810D01*
X54913671Y-39722149D01*
X54967014Y-39825066D01*
X54990362Y-39927599D01*
X54990763Y-39941500D01*
X54973067Y-40039436D01*
X54925852Y-40141245D01*
X54857933Y-40232834D01*
X54778124Y-40300109D01*
X54760316Y-40310011D01*
X54649609Y-40344233D01*
X54522918Y-40347498D01*
X54464877Y-40338578D01*
X54379064Y-40303975D01*
X54295571Y-40242702D01*
X54225984Y-40165940D01*
X54181889Y-40084873D01*
X54174813Y-40058593D01*
X54165699Y-39915859D01*
X54192769Y-39788049D01*
X54253977Y-39679808D01*
X54347279Y-39595777D01*
X54389109Y-39571959D01*
X54485950Y-39541190D01*
X54595495Y-39532961D01*
X54699184Y-39547524D01*
G37*
X54699184Y-39547524D02*
X54750282Y-39567006D01*
X54838652Y-39631810D01*
X54913671Y-39722149D01*
X54967014Y-39825066D01*
X54990362Y-39927599D01*
X54990763Y-39941500D01*
X54973067Y-40039436D01*
X54925852Y-40141245D01*
X54857933Y-40232834D01*
X54778124Y-40300109D01*
X54760316Y-40310011D01*
X54649609Y-40344233D01*
X54522918Y-40347498D01*
X54464877Y-40338578D01*
X54379064Y-40303975D01*
X54295571Y-40242702D01*
X54225984Y-40165940D01*
X54181889Y-40084873D01*
X54174813Y-40058593D01*
X54165699Y-39915859D01*
X54192769Y-39788049D01*
X54253977Y-39679808D01*
X54347279Y-39595777D01*
X54389109Y-39571959D01*
X54485950Y-39541190D01*
X54595495Y-39532961D01*
X54699184Y-39547524D01*
G36*
X53012571Y-38088602D02*
G01*
X53152562Y-38120637D01*
X53332767Y-38197767D01*
X53488141Y-38308929D01*
X53617365Y-38452954D01*
X53715133Y-38620062D01*
X53741067Y-38679134D01*
X53758046Y-38731620D01*
X53767935Y-38789220D01*
X53772596Y-38863633D01*
X53773896Y-38966560D01*
X53773916Y-38989000D01*
X53773165Y-39096887D01*
X53769531Y-39174421D01*
X53760941Y-39233573D01*
X53745321Y-39286314D01*
X53720599Y-39344616D01*
X53707491Y-39372611D01*
X53604048Y-39545152D01*
X53473882Y-39686137D01*
X53320428Y-39793715D01*
X53147125Y-39866035D01*
X52957409Y-39901248D01*
X52754716Y-39897502D01*
X52736750Y-39895295D01*
X52560272Y-39851439D01*
X52395451Y-39770124D01*
X52248225Y-39655833D01*
X52124534Y-39513053D01*
X52041091Y-39370000D01*
X51991464Y-39224751D01*
X51966014Y-39060483D01*
X51965855Y-38893562D01*
X51992101Y-38740357D01*
X51997093Y-38723624D01*
X52073594Y-38546819D01*
X52181409Y-38394296D01*
X52315462Y-38268703D01*
X52470680Y-38172689D01*
X52641987Y-38108902D01*
X52824309Y-38079990D01*
X53012571Y-38088602D01*
G37*
X53012571Y-38088602D02*
X53152562Y-38120637D01*
X53332767Y-38197767D01*
X53488141Y-38308929D01*
X53617365Y-38452954D01*
X53715133Y-38620062D01*
X53741067Y-38679134D01*
X53758046Y-38731620D01*
X53767935Y-38789220D01*
X53772596Y-38863633D01*
X53773896Y-38966560D01*
X53773916Y-38989000D01*
X53773165Y-39096887D01*
X53769531Y-39174421D01*
X53760941Y-39233573D01*
X53745321Y-39286314D01*
X53720599Y-39344616D01*
X53707491Y-39372611D01*
X53604048Y-39545152D01*
X53473882Y-39686137D01*
X53320428Y-39793715D01*
X53147125Y-39866035D01*
X52957409Y-39901248D01*
X52754716Y-39897502D01*
X52736750Y-39895295D01*
X52560272Y-39851439D01*
X52395451Y-39770124D01*
X52248225Y-39655833D01*
X52124534Y-39513053D01*
X52041091Y-39370000D01*
X51991464Y-39224751D01*
X51966014Y-39060483D01*
X51965855Y-38893562D01*
X51992101Y-38740357D01*
X51997093Y-38723624D01*
X52073594Y-38546819D01*
X52181409Y-38394296D01*
X52315462Y-38268703D01*
X52470680Y-38172689D01*
X52641987Y-38108902D01*
X52824309Y-38079990D01*
X53012571Y-38088602D01*
%TO.C,*%
D11*
%TD*%
M02*
