%TF.GenerationSoftware,KiCad,Pcbnew,(5.1.7)-1*%
%TF.CreationDate,2020-09-28T14:59:46+02:00*%
%TF.ProjectId,oscar_pcb_svg2shenzen,6f736361-725f-4706-9362-5f7376673273,rev?*%
%TF.SameCoordinates,Original*%
%TF.FileFunction,Soldermask,Bot*%
%TF.FilePolarity,Negative*%
%FSLAX46Y46*%
G04 Gerber Fmt 4.6, Leading zero omitted, Abs format (unit mm)*
G04 Created by KiCad (PCBNEW (5.1.7)-1) date 2020-09-28 14:59:46*
%MOMM*%
%LPD*%
G01*
G04 APERTURE LIST*
%ADD10C,0.010000*%
%ADD11C,4.119199*%
G04 APERTURE END LIST*
D10*
%TO.C,G\u002A\u002A\u002A*%
G36*
X61552666Y-39332427D02*
G01*
X61819150Y-39529512D01*
X62078361Y-39710695D01*
X62327502Y-39874435D01*
X62563776Y-40019191D01*
X62784386Y-40143422D01*
X62986533Y-40245586D01*
X63167421Y-40324141D01*
X63324253Y-40377547D01*
X63454230Y-40404263D01*
X63503197Y-40407166D01*
X63550307Y-40414043D01*
X63573849Y-40427955D01*
X63569066Y-40443129D01*
X63545405Y-40476034D01*
X63501500Y-40528132D01*
X63435983Y-40600884D01*
X63347487Y-40695751D01*
X63234644Y-40814195D01*
X63096089Y-40957677D01*
X62930453Y-41127659D01*
X62736369Y-41325602D01*
X62689117Y-41373657D01*
X62573241Y-41491629D01*
X62484373Y-41583857D01*
X62419987Y-41654927D01*
X62377560Y-41709429D01*
X62354568Y-41751948D01*
X62348487Y-41787073D01*
X62356792Y-41819391D01*
X62376960Y-41853490D01*
X62404393Y-41891150D01*
X62449199Y-41938644D01*
X62522022Y-42001167D01*
X62614386Y-42072292D01*
X62717815Y-42145589D01*
X62823834Y-42214630D01*
X62859245Y-42236159D01*
X62986825Y-42306902D01*
X63143581Y-42385635D01*
X63319386Y-42467956D01*
X63504111Y-42549464D01*
X63687628Y-42625758D01*
X63859809Y-42692435D01*
X64010525Y-42745095D01*
X64077654Y-42765649D01*
X64200225Y-42800684D01*
X64143883Y-42904203D01*
X64066178Y-43030646D01*
X63960539Y-43177772D01*
X63831884Y-43339565D01*
X63685130Y-43510008D01*
X63525196Y-43683085D01*
X63416374Y-43794273D01*
X63022072Y-44161801D01*
X62587954Y-44517298D01*
X62114900Y-44860393D01*
X61603793Y-45190710D01*
X61055512Y-45507875D01*
X60470939Y-45811515D01*
X59850954Y-46101255D01*
X59196440Y-46376721D01*
X58508275Y-46637540D01*
X57787343Y-46883337D01*
X57034523Y-47113738D01*
X56250697Y-47328370D01*
X55436745Y-47526858D01*
X54593548Y-47708828D01*
X53869166Y-47847584D01*
X53741430Y-47870355D01*
X53597169Y-47895497D01*
X53442234Y-47922046D01*
X53282479Y-47949039D01*
X53123754Y-47975513D01*
X52971912Y-48000503D01*
X52832804Y-48023047D01*
X52712283Y-48042182D01*
X52616200Y-48056943D01*
X52550407Y-48066367D01*
X52521267Y-48069500D01*
X52534518Y-48080646D01*
X52578069Y-48111802D01*
X52646963Y-48159544D01*
X52736244Y-48220448D01*
X52840955Y-48291090D01*
X52877281Y-48315440D01*
X53496906Y-48742337D01*
X54080609Y-49170182D01*
X54634598Y-49604038D01*
X55165084Y-50048970D01*
X55678277Y-50510042D01*
X56180387Y-50992317D01*
X56272149Y-51083856D01*
X56801883Y-51615337D01*
X57203483Y-51536855D01*
X57308894Y-51516838D01*
X57449646Y-51490999D01*
X57619321Y-51460473D01*
X57811500Y-51426392D01*
X58019765Y-51389888D01*
X58237699Y-51352096D01*
X58458885Y-51314147D01*
X58621083Y-51286596D01*
X58976396Y-51225836D01*
X59293055Y-51170107D01*
X59574339Y-51118661D01*
X59823532Y-51070748D01*
X60043914Y-51025619D01*
X60238766Y-50982525D01*
X60243910Y-50981279D01*
X60708084Y-50981279D01*
X60955750Y-51061777D01*
X61136392Y-51127459D01*
X61337954Y-51212510D01*
X61547623Y-51310720D01*
X61752588Y-51415877D01*
X61940039Y-51521772D01*
X62060666Y-51597436D01*
X62366221Y-51820191D01*
X62663742Y-52075742D01*
X62945291Y-52356003D01*
X63202929Y-52652893D01*
X63428717Y-52958326D01*
X63491831Y-53054787D01*
X63545511Y-53134383D01*
X63583858Y-53179940D01*
X63605319Y-53189679D01*
X63607446Y-53187175D01*
X63615256Y-53157029D01*
X63626419Y-53093449D01*
X63639579Y-53005073D01*
X63653378Y-52900537D01*
X63656595Y-52874333D01*
X63691512Y-52558871D01*
X63715791Y-52275723D01*
X63730069Y-52016399D01*
X63734545Y-51837166D01*
X63734978Y-51720636D01*
X63732163Y-51634920D01*
X63724687Y-51568536D01*
X63711136Y-51510005D01*
X63690100Y-51447846D01*
X63684977Y-51434250D01*
X63570341Y-51174847D01*
X63433390Y-50944571D01*
X63267854Y-50733372D01*
X63205118Y-50665348D01*
X62996959Y-50475965D01*
X62768613Y-50322619D01*
X62516668Y-50203259D01*
X62333690Y-50141490D01*
X62172798Y-50094872D01*
X61977318Y-50267392D01*
X61701461Y-50488113D01*
X61411472Y-50677021D01*
X61113565Y-50830419D01*
X60871138Y-50925958D01*
X60708084Y-50981279D01*
X60243910Y-50981279D01*
X60411372Y-50940719D01*
X60565011Y-50899449D01*
X60702966Y-50857968D01*
X60828518Y-50815527D01*
X60944948Y-50771376D01*
X61025844Y-50737732D01*
X61346304Y-50576631D01*
X61649726Y-50377397D01*
X61935102Y-50141077D01*
X62201427Y-49868719D01*
X62447694Y-49561370D01*
X62672896Y-49220078D01*
X62876028Y-48845889D01*
X62908529Y-48778583D01*
X63040839Y-48480677D01*
X63150691Y-48193179D01*
X63229184Y-47944398D01*
X63277750Y-47770094D01*
X63373000Y-47784289D01*
X63432981Y-47796983D01*
X63473373Y-47812480D01*
X63480853Y-47818822D01*
X63488296Y-47845304D01*
X63501338Y-47906569D01*
X63518623Y-47995641D01*
X63538795Y-48105544D01*
X63559624Y-48224205D01*
X63677637Y-48980520D01*
X63766471Y-49706912D01*
X63826080Y-50404171D01*
X63856417Y-51073090D01*
X63857434Y-51714459D01*
X63829086Y-52329072D01*
X63771324Y-52917720D01*
X63684103Y-53481194D01*
X63567374Y-54020287D01*
X63421092Y-54535791D01*
X63245209Y-55028496D01*
X63141595Y-55276963D01*
X62931581Y-55716947D01*
X62698430Y-56129420D01*
X62437763Y-56520759D01*
X62145200Y-56897342D01*
X61816363Y-57265546D01*
X61679855Y-57405726D01*
X61421250Y-57656721D01*
X61168174Y-57883408D01*
X60912234Y-58092122D01*
X60645042Y-58289196D01*
X60358206Y-58480965D01*
X60043337Y-58673764D01*
X59859333Y-58780173D01*
X59449366Y-59017853D01*
X59072933Y-59246344D01*
X58723462Y-59470021D01*
X58394386Y-59693257D01*
X58079135Y-59920426D01*
X57771140Y-60155901D01*
X57658000Y-60245771D01*
X57393416Y-60458009D01*
X57450529Y-63751713D01*
X57456889Y-64123342D01*
X57462905Y-64484377D01*
X57468544Y-64832458D01*
X57473775Y-65165226D01*
X57478566Y-65480321D01*
X57482885Y-65775383D01*
X57486701Y-66048054D01*
X57489981Y-66295973D01*
X57492695Y-66516781D01*
X57494809Y-66708118D01*
X57496294Y-66867625D01*
X57497116Y-66992942D01*
X57497244Y-67081710D01*
X57496646Y-67131570D01*
X57496134Y-67140666D01*
X57447532Y-67380793D01*
X57363376Y-67601135D01*
X57245868Y-67798862D01*
X57097209Y-67971145D01*
X56919601Y-68115153D01*
X56715244Y-68228057D01*
X56620833Y-68265930D01*
X56483250Y-68315416D01*
X53541083Y-68315416D01*
X53128650Y-68315397D01*
X52756388Y-68315321D01*
X52422137Y-68315161D01*
X52123736Y-68314888D01*
X51859022Y-68314476D01*
X51625834Y-68313896D01*
X51422011Y-68313122D01*
X51245391Y-68312125D01*
X51093813Y-68310878D01*
X50965116Y-68309353D01*
X50857138Y-68307523D01*
X50767718Y-68305360D01*
X50694694Y-68302836D01*
X50635905Y-68299924D01*
X50589190Y-68296596D01*
X50552386Y-68292824D01*
X50523333Y-68288582D01*
X50499870Y-68283840D01*
X50479834Y-68278573D01*
X50471916Y-68276195D01*
X50273068Y-68194739D01*
X50087649Y-68079886D01*
X49923174Y-67937779D01*
X49787158Y-67774562D01*
X49717145Y-67659250D01*
X49674264Y-67573121D01*
X49641677Y-67495305D01*
X49616488Y-67415274D01*
X49595804Y-67322501D01*
X49576731Y-67206458D01*
X49560765Y-67090385D01*
X49502061Y-66759277D01*
X49416050Y-66458717D01*
X49301208Y-66185680D01*
X49156012Y-65937138D01*
X48978938Y-65710064D01*
X48768462Y-65501432D01*
X48755005Y-65489666D01*
X48509060Y-65303086D01*
X48234657Y-65143397D01*
X47936196Y-65010793D01*
X47618074Y-64905468D01*
X47284688Y-64827617D01*
X46940437Y-64777435D01*
X46589717Y-64755116D01*
X46236928Y-64760855D01*
X45886467Y-64794845D01*
X45542732Y-64857283D01*
X45210120Y-64948361D01*
X44893029Y-65068275D01*
X44595858Y-65217219D01*
X44460583Y-65299730D01*
X44337530Y-65389606D01*
X44205162Y-65503180D01*
X44072259Y-65631449D01*
X43947600Y-65765407D01*
X43839962Y-65896049D01*
X43758124Y-66014371D01*
X43749239Y-66029416D01*
X43635171Y-66248093D01*
X43545226Y-66469266D01*
X43475855Y-66703912D01*
X43423506Y-66963009D01*
X43403509Y-67098333D01*
X43383743Y-67237764D01*
X43364651Y-67345967D01*
X43343194Y-67433883D01*
X43316335Y-67512454D01*
X43281036Y-67592622D01*
X43247777Y-67659250D01*
X43137290Y-67830372D01*
X42992699Y-67985805D01*
X42821078Y-68119691D01*
X42629501Y-68226175D01*
X42502666Y-68276245D01*
X42484675Y-68281754D01*
X42463858Y-68286724D01*
X42438041Y-68291186D01*
X42405050Y-68295170D01*
X42362712Y-68298706D01*
X42308852Y-68301825D01*
X42241296Y-68304558D01*
X42157871Y-68306934D01*
X42056404Y-68308985D01*
X41934720Y-68310741D01*
X41790645Y-68312231D01*
X41622006Y-68313488D01*
X41426629Y-68314540D01*
X41202339Y-68315420D01*
X40946964Y-68316156D01*
X40658330Y-68316780D01*
X40334262Y-68317322D01*
X39972586Y-68317812D01*
X39571130Y-68318281D01*
X39497000Y-68318363D01*
X39148979Y-68318622D01*
X38811563Y-68318632D01*
X38487285Y-68318407D01*
X38178677Y-68317956D01*
X37888273Y-68317293D01*
X37618606Y-68316429D01*
X37372209Y-68315374D01*
X37151617Y-68314142D01*
X36959361Y-68312743D01*
X36797975Y-68311189D01*
X36669993Y-68309492D01*
X36577948Y-68307664D01*
X36524373Y-68305716D01*
X36512500Y-68304649D01*
X36296787Y-68245579D01*
X36098171Y-68147830D01*
X35916490Y-68011310D01*
X35833469Y-67930097D01*
X35684812Y-67743357D01*
X35573186Y-67537122D01*
X35497832Y-67309769D01*
X35468126Y-67151250D01*
X35467196Y-67120854D01*
X35467023Y-67050471D01*
X35467573Y-66942439D01*
X35468814Y-66799097D01*
X35470714Y-66622782D01*
X35473240Y-66415834D01*
X35476360Y-66180590D01*
X35480041Y-65919390D01*
X35484251Y-65634572D01*
X35488957Y-65328474D01*
X35494126Y-65003435D01*
X35499726Y-64661794D01*
X35505725Y-64305888D01*
X35512090Y-63938056D01*
X35515523Y-63743416D01*
X35574525Y-60420250D01*
X35395231Y-60229750D01*
X35058425Y-59847536D01*
X34763009Y-59460110D01*
X34508200Y-59065926D01*
X34293213Y-58663440D01*
X34117263Y-58251105D01*
X33979568Y-57827376D01*
X33879343Y-57390707D01*
X33843619Y-57171166D01*
X33828602Y-57022803D01*
X33820049Y-56843930D01*
X33817779Y-56645846D01*
X33818440Y-56610250D01*
X33968363Y-56610250D01*
X33981318Y-56986555D01*
X34022032Y-57342131D01*
X34092582Y-57685910D01*
X34195043Y-58026823D01*
X34331491Y-58373802D01*
X34425766Y-58578750D01*
X34650508Y-58999400D01*
X34909641Y-59399753D01*
X35206112Y-59784247D01*
X35293608Y-59886681D01*
X35368671Y-59977371D01*
X35413004Y-60042435D01*
X35427928Y-60083899D01*
X35427177Y-60090980D01*
X35434408Y-60127445D01*
X35472686Y-60181355D01*
X35530774Y-60242826D01*
X35589823Y-60298788D01*
X35625391Y-60325777D01*
X35641961Y-60326606D01*
X35644666Y-60314281D01*
X35646611Y-60286708D01*
X35659211Y-60289343D01*
X35685423Y-60315004D01*
X35690766Y-60321090D01*
X35695574Y-60329172D01*
X35699836Y-60341214D01*
X35703543Y-60359182D01*
X35706683Y-60385040D01*
X35709245Y-60420752D01*
X35711219Y-60468283D01*
X35712595Y-60529598D01*
X35713360Y-60606660D01*
X35713506Y-60701436D01*
X35713020Y-60815888D01*
X35711892Y-60951982D01*
X35710112Y-61111682D01*
X35707668Y-61296954D01*
X35704551Y-61509760D01*
X35700749Y-61752066D01*
X35696252Y-62025837D01*
X35691048Y-62333037D01*
X35685128Y-62675630D01*
X35678480Y-63055581D01*
X35671094Y-63474855D01*
X35666883Y-63713274D01*
X35658777Y-64179725D01*
X35651453Y-64616908D01*
X35644922Y-65023750D01*
X35639197Y-65399175D01*
X35634292Y-65742108D01*
X35630218Y-66051476D01*
X35626988Y-66326202D01*
X35624614Y-66565212D01*
X35623110Y-66767431D01*
X35622487Y-66931784D01*
X35622758Y-67057197D01*
X35623935Y-67142594D01*
X35626031Y-67186901D01*
X35626417Y-67189884D01*
X35678693Y-67396767D01*
X35765960Y-67588526D01*
X35884047Y-67760593D01*
X36028783Y-67908400D01*
X36195997Y-68027381D01*
X36381516Y-68112968D01*
X36500031Y-68146424D01*
X36542886Y-68151077D01*
X36624972Y-68155372D01*
X36743188Y-68159310D01*
X36894433Y-68162891D01*
X37075605Y-68166115D01*
X37283605Y-68168982D01*
X37515331Y-68171493D01*
X37767682Y-68173648D01*
X38037558Y-68175447D01*
X38321856Y-68176891D01*
X38617477Y-68177979D01*
X38921319Y-68178713D01*
X39230282Y-68179091D01*
X39541264Y-68179116D01*
X39851164Y-68178786D01*
X40156882Y-68178102D01*
X40455317Y-68177064D01*
X40743367Y-68175673D01*
X41017932Y-68173929D01*
X41275910Y-68171832D01*
X41514201Y-68169382D01*
X41729704Y-68166579D01*
X41919318Y-68163425D01*
X42079942Y-68159919D01*
X42208474Y-68156061D01*
X42301815Y-68151852D01*
X42356863Y-68147291D01*
X42365083Y-68145933D01*
X42558932Y-68085169D01*
X42737638Y-67990206D01*
X42896345Y-67865957D01*
X43030192Y-67717335D01*
X43134322Y-67549253D01*
X43203877Y-67366626D01*
X43223062Y-67278250D01*
X43235106Y-67204872D01*
X43251520Y-67104062D01*
X43269968Y-66990183D01*
X43284958Y-66897250D01*
X43357901Y-66566027D01*
X43465985Y-66257989D01*
X43608485Y-65973829D01*
X43784677Y-65714241D01*
X43993835Y-65479920D01*
X44235235Y-65271560D01*
X44508152Y-65089855D01*
X44811861Y-64935501D01*
X45145638Y-64809191D01*
X45508757Y-64711619D01*
X45582416Y-64696103D01*
X45983326Y-64631459D01*
X46371891Y-64603015D01*
X46757712Y-64610771D01*
X47150391Y-64654726D01*
X47381583Y-64696103D01*
X47747657Y-64787522D01*
X48085801Y-64908065D01*
X48395040Y-65056896D01*
X48674401Y-65233178D01*
X48922911Y-65436077D01*
X49139596Y-65664756D01*
X49323484Y-65918379D01*
X49473600Y-66196111D01*
X49588972Y-66497114D01*
X49624849Y-66622595D01*
X49649574Y-66729531D01*
X49675094Y-66859512D01*
X49697842Y-66993474D01*
X49710034Y-67078067D01*
X49736197Y-67246598D01*
X49768185Y-67384143D01*
X49809766Y-67502001D01*
X49864708Y-67611472D01*
X49914543Y-67691272D01*
X50044827Y-67849049D01*
X50204657Y-67979584D01*
X50388346Y-68079103D01*
X50590206Y-68143829D01*
X50599285Y-68145791D01*
X50643692Y-68150645D01*
X50727309Y-68155140D01*
X50847022Y-68159275D01*
X50999716Y-68163049D01*
X51182274Y-68166461D01*
X51391583Y-68169510D01*
X51624526Y-68172196D01*
X51877988Y-68174517D01*
X52148855Y-68176473D01*
X52434011Y-68178063D01*
X52730341Y-68179287D01*
X53034730Y-68180142D01*
X53344063Y-68180629D01*
X53655223Y-68180746D01*
X53965097Y-68180493D01*
X54270569Y-68179869D01*
X54568523Y-68178873D01*
X54855845Y-68177504D01*
X55129419Y-68175761D01*
X55386131Y-68173644D01*
X55622864Y-68171151D01*
X55836504Y-68168282D01*
X56023935Y-68165036D01*
X56182043Y-68161412D01*
X56307712Y-68157409D01*
X56397827Y-68153027D01*
X56449272Y-68148264D01*
X56454082Y-68147388D01*
X56651627Y-68084572D01*
X56832637Y-67985811D01*
X56992980Y-67855635D01*
X57128524Y-67698574D01*
X57235138Y-67519158D01*
X57308689Y-67321918D01*
X57337934Y-67178302D01*
X57339643Y-67142033D01*
X57340559Y-67065496D01*
X57340708Y-66950747D01*
X57340113Y-66799842D01*
X57338797Y-66614839D01*
X57336785Y-66397793D01*
X57334100Y-66150762D01*
X57330766Y-65875802D01*
X57326808Y-65574970D01*
X57322248Y-65250322D01*
X57317112Y-64903916D01*
X57311422Y-64537807D01*
X57305203Y-64154053D01*
X57298478Y-63754710D01*
X57297610Y-63704171D01*
X57290036Y-63263814D01*
X57283192Y-62863817D01*
X57277067Y-62502213D01*
X57271653Y-62177037D01*
X57266938Y-61886321D01*
X57262911Y-61628098D01*
X57259563Y-61400403D01*
X57256882Y-61201268D01*
X57254859Y-61028728D01*
X57253483Y-60880814D01*
X57252743Y-60755562D01*
X57252630Y-60651003D01*
X57253132Y-60565172D01*
X57254240Y-60496101D01*
X57255942Y-60441825D01*
X57258229Y-60400376D01*
X57261091Y-60369789D01*
X57264515Y-60348096D01*
X57268493Y-60333330D01*
X57273014Y-60323526D01*
X57278066Y-60316716D01*
X57279645Y-60315004D01*
X57308359Y-60286798D01*
X57318233Y-60289336D01*
X57319333Y-60314281D01*
X57325867Y-60329096D01*
X57348459Y-60319596D01*
X57391590Y-60282970D01*
X57433225Y-60242826D01*
X57498955Y-60172309D01*
X57532254Y-60121782D01*
X57536718Y-60090580D01*
X57543623Y-60055358D01*
X57578936Y-59999070D01*
X57634724Y-59930869D01*
X57853220Y-59930869D01*
X57880481Y-59912231D01*
X57933655Y-59874234D01*
X58004639Y-59822714D01*
X58072422Y-59773017D01*
X58162746Y-59707882D01*
X58275543Y-59628599D01*
X58397848Y-59544176D01*
X58516696Y-59463621D01*
X58543381Y-59445787D01*
X58638208Y-59381839D01*
X58719198Y-59325736D01*
X58780380Y-59281735D01*
X58815781Y-59254091D01*
X58822166Y-59247073D01*
X58805763Y-59232211D01*
X58763082Y-59201596D01*
X58703914Y-59161634D01*
X58638051Y-59118732D01*
X58575285Y-59079298D01*
X58525407Y-59049737D01*
X58502738Y-59038065D01*
X58486502Y-59052538D01*
X58451578Y-59096631D01*
X58402313Y-59164445D01*
X58343053Y-59250082D01*
X58307771Y-59302649D01*
X58229486Y-59417575D01*
X58143569Y-59538902D01*
X58059623Y-59653339D01*
X57987251Y-59747596D01*
X57977003Y-59760393D01*
X57920159Y-59832181D01*
X57877869Y-59888306D01*
X57854298Y-59923032D01*
X57853220Y-59930869D01*
X57634724Y-59930869D01*
X57644463Y-59918964D01*
X57664015Y-59896864D01*
X57815691Y-59717216D01*
X57973872Y-59511808D01*
X58128842Y-59293982D01*
X58270886Y-59077079D01*
X58322437Y-58992679D01*
X58540443Y-58589176D01*
X58716547Y-58179693D01*
X58850753Y-57764259D01*
X58943061Y-57342904D01*
X58993476Y-56915660D01*
X59001999Y-56482556D01*
X58968633Y-56043624D01*
X58893381Y-55598892D01*
X58776245Y-55148392D01*
X58617228Y-54692155D01*
X58416332Y-54230210D01*
X58173560Y-53762587D01*
X57888914Y-53289318D01*
X57833520Y-53203973D01*
X57531245Y-52769862D01*
X57190381Y-52328904D01*
X57037500Y-52148209D01*
X57247090Y-52148209D01*
X57339191Y-52262563D01*
X57625667Y-52635435D01*
X57895153Y-53020477D01*
X58143803Y-53411284D01*
X58367775Y-53801453D01*
X58563225Y-54184579D01*
X58726310Y-54554259D01*
X58749242Y-54611986D01*
X58828614Y-54815055D01*
X58968265Y-54874120D01*
X59096822Y-54932209D01*
X59249805Y-55007248D01*
X59416030Y-55093291D01*
X59584317Y-55184394D01*
X59743482Y-55274609D01*
X59882346Y-55357991D01*
X59904791Y-55372112D01*
X60293340Y-55641604D01*
X60655646Y-55939458D01*
X60988477Y-56262525D01*
X61288606Y-56607651D01*
X61552805Y-56971687D01*
X61569055Y-56996541D01*
X61623241Y-57079645D01*
X61668249Y-57148037D01*
X61699568Y-57194905D01*
X61712683Y-57213437D01*
X61712792Y-57213500D01*
X61726938Y-57198539D01*
X61763532Y-57157674D01*
X61817226Y-57096928D01*
X61882672Y-57022324D01*
X61891242Y-57012520D01*
X62190301Y-56647346D01*
X62457297Y-56271713D01*
X62551157Y-56125480D01*
X62620507Y-56011358D01*
X62691634Y-55888967D01*
X62761229Y-55764581D01*
X62825985Y-55644473D01*
X62882594Y-55534917D01*
X62927750Y-55442185D01*
X62958144Y-55372552D01*
X62970469Y-55332290D01*
X62970580Y-55329950D01*
X62958203Y-55301743D01*
X62924576Y-55247735D01*
X62874655Y-55175376D01*
X62813392Y-55092113D01*
X62805410Y-55081607D01*
X62469023Y-54675022D01*
X62099543Y-54293411D01*
X61699002Y-53938122D01*
X61269436Y-53610504D01*
X60812879Y-53311905D01*
X60331364Y-53043673D01*
X59826926Y-52807159D01*
X59301600Y-52603710D01*
X58853916Y-52461711D01*
X58564062Y-52384113D01*
X58261399Y-52313087D01*
X57958569Y-52251201D01*
X57668218Y-52201026D01*
X57402987Y-52165129D01*
X57383753Y-52163008D01*
X57247090Y-52148209D01*
X57037500Y-52148209D01*
X56813626Y-51883606D01*
X56403678Y-51436479D01*
X55963235Y-50990029D01*
X55494994Y-50546765D01*
X55001654Y-50109195D01*
X54485913Y-49679829D01*
X53950468Y-49261173D01*
X53398017Y-48855737D01*
X52831257Y-48466029D01*
X52517275Y-48261132D01*
X52276635Y-48107050D01*
X51755275Y-48172522D01*
X51309255Y-48226320D01*
X50853091Y-48277122D01*
X50390725Y-48324666D01*
X49926103Y-48368690D01*
X49463168Y-48408933D01*
X49005864Y-48445133D01*
X48558135Y-48477027D01*
X48123926Y-48504354D01*
X47707180Y-48526851D01*
X47311842Y-48544258D01*
X46941854Y-48556312D01*
X46601162Y-48562751D01*
X46293710Y-48563314D01*
X46023441Y-48557738D01*
X45978916Y-48556057D01*
X45247028Y-48522845D01*
X44549214Y-48484008D01*
X43877512Y-48438912D01*
X43223957Y-48386924D01*
X42580588Y-48327411D01*
X41939440Y-48259740D01*
X41293592Y-48183406D01*
X40687767Y-48108137D01*
X40510425Y-48218678D01*
X40253560Y-48383835D01*
X39972701Y-48573512D01*
X39674344Y-48782864D01*
X39364985Y-49007045D01*
X39051122Y-49241208D01*
X38739250Y-49480507D01*
X38435867Y-49720098D01*
X38147469Y-49955133D01*
X37884192Y-50177626D01*
X37353293Y-50651952D01*
X36858785Y-51127159D01*
X36401257Y-51602469D01*
X35981297Y-52077105D01*
X35599495Y-52550287D01*
X35256437Y-53021238D01*
X34952714Y-53489181D01*
X34688913Y-53953338D01*
X34465624Y-54412930D01*
X34283433Y-54867179D01*
X34239156Y-54995437D01*
X34125520Y-55376420D01*
X34044019Y-55743267D01*
X33992792Y-56107070D01*
X33969978Y-56478922D01*
X33968363Y-56610250D01*
X33818440Y-56610250D01*
X33821606Y-56439848D01*
X33831350Y-56237236D01*
X33846825Y-56049306D01*
X33864017Y-55911750D01*
X33949134Y-55467961D01*
X34070548Y-55024437D01*
X34228848Y-54580099D01*
X34424623Y-54133863D01*
X34658462Y-53684649D01*
X34930954Y-53231376D01*
X35242687Y-52772962D01*
X35594252Y-52308327D01*
X35986236Y-51836389D01*
X36239124Y-51551416D01*
X36583072Y-51187077D01*
X36961484Y-50812682D01*
X37369054Y-50432675D01*
X37800472Y-50051499D01*
X38250430Y-49673596D01*
X38713621Y-49303410D01*
X39184736Y-48945383D01*
X39658467Y-48603958D01*
X40129505Y-48283578D01*
X40193972Y-48241285D01*
X40284198Y-48181540D01*
X40358374Y-48130828D01*
X40410914Y-48093101D01*
X40436229Y-48072310D01*
X40436910Y-48069500D01*
X40405337Y-48066027D01*
X40337703Y-48056236D01*
X40239653Y-48041069D01*
X40116832Y-48021466D01*
X39974885Y-47998368D01*
X39819458Y-47972717D01*
X39656196Y-47945455D01*
X39490743Y-47917521D01*
X39328745Y-47889857D01*
X39175847Y-47863405D01*
X39037694Y-47839105D01*
X38919932Y-47817899D01*
X38851416Y-47805165D01*
X37997055Y-47632449D01*
X37170973Y-47443473D01*
X36374089Y-47238632D01*
X35607320Y-47018324D01*
X34871584Y-46782944D01*
X34167797Y-46532889D01*
X33496877Y-46268555D01*
X32859742Y-45990338D01*
X32257309Y-45698636D01*
X31690495Y-45393844D01*
X31160219Y-45076358D01*
X30667396Y-44746576D01*
X30212946Y-44404893D01*
X29797784Y-44051705D01*
X29497034Y-43763645D01*
X29376612Y-43637545D01*
X29257701Y-43505296D01*
X29144030Y-43371746D01*
X29039328Y-43241746D01*
X28947326Y-43120147D01*
X28871754Y-43011799D01*
X28816341Y-42921552D01*
X28784816Y-42854258D01*
X28779111Y-42830033D01*
X28791180Y-42807990D01*
X28834144Y-42782844D01*
X28912375Y-42752308D01*
X28956000Y-42737588D01*
X29160069Y-42665700D01*
X29368655Y-42582935D01*
X29576359Y-42492132D01*
X29777782Y-42396127D01*
X29967526Y-42297757D01*
X30140192Y-42199859D01*
X30290382Y-42105271D01*
X30412697Y-42016828D01*
X30501740Y-41937369D01*
X30522097Y-41914577D01*
X30550389Y-41881045D01*
X30572727Y-41852158D01*
X30587038Y-41824746D01*
X30591252Y-41795636D01*
X30583299Y-41761659D01*
X30561108Y-41719643D01*
X30522609Y-41666416D01*
X30465729Y-41598809D01*
X30388400Y-41513649D01*
X30288551Y-41407767D01*
X30164110Y-41277990D01*
X30013007Y-41121149D01*
X29985014Y-41092080D01*
X29852825Y-40954367D01*
X29730546Y-40826183D01*
X29621143Y-40710696D01*
X29527584Y-40611077D01*
X29452835Y-40530493D01*
X29399864Y-40472114D01*
X29371637Y-40439108D01*
X29367787Y-40432823D01*
X29391512Y-40424749D01*
X29445575Y-40411873D01*
X29518647Y-40396875D01*
X29524502Y-40395754D01*
X29709664Y-40346429D01*
X29920626Y-40264225D01*
X30156878Y-40149432D01*
X30417911Y-40002336D01*
X30703214Y-39823225D01*
X31012280Y-39612386D01*
X31344597Y-39370107D01*
X31352938Y-39363845D01*
X31470894Y-39275664D01*
X31559624Y-39210720D01*
X31623440Y-39166416D01*
X31666653Y-39140157D01*
X31693574Y-39129345D01*
X31708513Y-39131384D01*
X31715784Y-39143677D01*
X31716175Y-39145069D01*
X31725373Y-39186599D01*
X31725461Y-39222166D01*
X31712360Y-39256787D01*
X31681991Y-39295479D01*
X31630274Y-39343260D01*
X31553131Y-39405145D01*
X31446482Y-39486153D01*
X31426930Y-39500833D01*
X31166552Y-39691177D01*
X30912022Y-39867515D01*
X30667098Y-40027604D01*
X30435540Y-40169202D01*
X30221109Y-40290066D01*
X30027564Y-40387954D01*
X29858665Y-40460622D01*
X29762352Y-40493729D01*
X29709268Y-40513131D01*
X29678641Y-40531099D01*
X29675666Y-40536294D01*
X29689923Y-40554795D01*
X29730464Y-40599990D01*
X29793945Y-40668335D01*
X29877021Y-40756288D01*
X29976348Y-40860304D01*
X30088582Y-40976841D01*
X30196676Y-41088280D01*
X30318745Y-41214550D01*
X30431713Y-41332998D01*
X30532058Y-41439809D01*
X30616258Y-41531169D01*
X30680790Y-41603261D01*
X30722134Y-41652270D01*
X30736426Y-41672964D01*
X30754063Y-41765281D01*
X30736348Y-41859607D01*
X30682111Y-41957576D01*
X30590184Y-42060821D01*
X30459398Y-42170979D01*
X30301321Y-42281418D01*
X30172815Y-42359202D01*
X30014076Y-42445814D01*
X29834951Y-42536460D01*
X29645289Y-42626341D01*
X29454936Y-42710663D01*
X29273742Y-42784629D01*
X29246969Y-42794912D01*
X28977022Y-42897609D01*
X29064594Y-43022929D01*
X29241691Y-43254969D01*
X29454572Y-43496959D01*
X29698976Y-43745115D01*
X29970643Y-43995650D01*
X30265312Y-44244781D01*
X30578724Y-44488720D01*
X30906620Y-44723684D01*
X31189083Y-44910682D01*
X31768981Y-45259493D01*
X32387015Y-45591163D01*
X33042539Y-45905525D01*
X33734909Y-46202415D01*
X34463479Y-46481667D01*
X35227604Y-46743115D01*
X36026639Y-46986595D01*
X36859940Y-47211940D01*
X37726861Y-47418986D01*
X38626757Y-47607566D01*
X39558984Y-47777516D01*
X40522896Y-47928670D01*
X41517848Y-48060863D01*
X42543195Y-48173929D01*
X43598293Y-48267703D01*
X44534666Y-48333142D01*
X44912262Y-48355567D01*
X45257014Y-48374215D01*
X45574999Y-48389057D01*
X45872297Y-48400062D01*
X46154985Y-48407200D01*
X46429141Y-48410441D01*
X46700844Y-48409755D01*
X46976171Y-48405112D01*
X47261202Y-48396481D01*
X47562013Y-48383833D01*
X47884684Y-48367137D01*
X48235291Y-48346364D01*
X48619915Y-48321483D01*
X48757416Y-48312225D01*
X49847262Y-48227173D01*
X50907548Y-48122045D01*
X51937403Y-47997009D01*
X52935953Y-47852236D01*
X53902325Y-47687893D01*
X54835647Y-47504152D01*
X55735047Y-47301181D01*
X56599650Y-47079150D01*
X57428584Y-46838229D01*
X58220977Y-46578587D01*
X58832750Y-46355692D01*
X59341392Y-46152374D01*
X59845617Y-45933082D01*
X60338061Y-45701436D01*
X60811360Y-45461053D01*
X61258150Y-45215554D01*
X61671066Y-44968555D01*
X61724903Y-44934600D01*
X62128778Y-44665673D01*
X62508127Y-44387845D01*
X62859808Y-44103859D01*
X63180678Y-43816459D01*
X63467595Y-43528387D01*
X63717418Y-43242386D01*
X63831670Y-43095333D01*
X63886608Y-43020232D01*
X63930626Y-42957877D01*
X63958441Y-42915890D01*
X63965494Y-42902286D01*
X63947072Y-42889722D01*
X63897894Y-42867783D01*
X63827346Y-42840536D01*
X63801625Y-42831301D01*
X63556849Y-42738962D01*
X63316997Y-42637033D01*
X63087777Y-42528574D01*
X62874896Y-42416642D01*
X62684060Y-42304297D01*
X62520976Y-42194595D01*
X62391351Y-42090596D01*
X62354755Y-42055922D01*
X62261206Y-41946208D01*
X62208102Y-41843881D01*
X62194595Y-41746999D01*
X62201262Y-41704449D01*
X62220759Y-41671829D01*
X62269196Y-41611293D01*
X62345151Y-41524423D01*
X62447199Y-41412802D01*
X62573916Y-41278010D01*
X62723879Y-41121630D01*
X62752198Y-41092377D01*
X62874748Y-40965600D01*
X62987450Y-40848340D01*
X63087020Y-40744063D01*
X63170177Y-40656237D01*
X63233636Y-40588329D01*
X63274116Y-40543807D01*
X63288333Y-40526138D01*
X63270772Y-40514779D01*
X63251291Y-40512584D01*
X63206900Y-40502723D01*
X63132834Y-40476025D01*
X63036595Y-40435903D01*
X62925683Y-40385773D01*
X62807600Y-40329048D01*
X62689846Y-40269142D01*
X62579921Y-40209472D01*
X62558083Y-40197031D01*
X62451077Y-40133173D01*
X62326359Y-40054938D01*
X62189042Y-39965886D01*
X62044240Y-39869578D01*
X61897067Y-39769576D01*
X61752635Y-39669440D01*
X61616058Y-39572732D01*
X61492449Y-39483012D01*
X61386922Y-39403842D01*
X61304591Y-39338783D01*
X61250569Y-39291396D01*
X61237095Y-39277073D01*
X61223677Y-39231277D01*
X61229620Y-39173936D01*
X61245750Y-39099240D01*
X61552666Y-39332427D01*
G37*
X61552666Y-39332427D02*
X61819150Y-39529512D01*
X62078361Y-39710695D01*
X62327502Y-39874435D01*
X62563776Y-40019191D01*
X62784386Y-40143422D01*
X62986533Y-40245586D01*
X63167421Y-40324141D01*
X63324253Y-40377547D01*
X63454230Y-40404263D01*
X63503197Y-40407166D01*
X63550307Y-40414043D01*
X63573849Y-40427955D01*
X63569066Y-40443129D01*
X63545405Y-40476034D01*
X63501500Y-40528132D01*
X63435983Y-40600884D01*
X63347487Y-40695751D01*
X63234644Y-40814195D01*
X63096089Y-40957677D01*
X62930453Y-41127659D01*
X62736369Y-41325602D01*
X62689117Y-41373657D01*
X62573241Y-41491629D01*
X62484373Y-41583857D01*
X62419987Y-41654927D01*
X62377560Y-41709429D01*
X62354568Y-41751948D01*
X62348487Y-41787073D01*
X62356792Y-41819391D01*
X62376960Y-41853490D01*
X62404393Y-41891150D01*
X62449199Y-41938644D01*
X62522022Y-42001167D01*
X62614386Y-42072292D01*
X62717815Y-42145589D01*
X62823834Y-42214630D01*
X62859245Y-42236159D01*
X62986825Y-42306902D01*
X63143581Y-42385635D01*
X63319386Y-42467956D01*
X63504111Y-42549464D01*
X63687628Y-42625758D01*
X63859809Y-42692435D01*
X64010525Y-42745095D01*
X64077654Y-42765649D01*
X64200225Y-42800684D01*
X64143883Y-42904203D01*
X64066178Y-43030646D01*
X63960539Y-43177772D01*
X63831884Y-43339565D01*
X63685130Y-43510008D01*
X63525196Y-43683085D01*
X63416374Y-43794273D01*
X63022072Y-44161801D01*
X62587954Y-44517298D01*
X62114900Y-44860393D01*
X61603793Y-45190710D01*
X61055512Y-45507875D01*
X60470939Y-45811515D01*
X59850954Y-46101255D01*
X59196440Y-46376721D01*
X58508275Y-46637540D01*
X57787343Y-46883337D01*
X57034523Y-47113738D01*
X56250697Y-47328370D01*
X55436745Y-47526858D01*
X54593548Y-47708828D01*
X53869166Y-47847584D01*
X53741430Y-47870355D01*
X53597169Y-47895497D01*
X53442234Y-47922046D01*
X53282479Y-47949039D01*
X53123754Y-47975513D01*
X52971912Y-48000503D01*
X52832804Y-48023047D01*
X52712283Y-48042182D01*
X52616200Y-48056943D01*
X52550407Y-48066367D01*
X52521267Y-48069500D01*
X52534518Y-48080646D01*
X52578069Y-48111802D01*
X52646963Y-48159544D01*
X52736244Y-48220448D01*
X52840955Y-48291090D01*
X52877281Y-48315440D01*
X53496906Y-48742337D01*
X54080609Y-49170182D01*
X54634598Y-49604038D01*
X55165084Y-50048970D01*
X55678277Y-50510042D01*
X56180387Y-50992317D01*
X56272149Y-51083856D01*
X56801883Y-51615337D01*
X57203483Y-51536855D01*
X57308894Y-51516838D01*
X57449646Y-51490999D01*
X57619321Y-51460473D01*
X57811500Y-51426392D01*
X58019765Y-51389888D01*
X58237699Y-51352096D01*
X58458885Y-51314147D01*
X58621083Y-51286596D01*
X58976396Y-51225836D01*
X59293055Y-51170107D01*
X59574339Y-51118661D01*
X59823532Y-51070748D01*
X60043914Y-51025619D01*
X60238766Y-50982525D01*
X60243910Y-50981279D01*
X60708084Y-50981279D01*
X60955750Y-51061777D01*
X61136392Y-51127459D01*
X61337954Y-51212510D01*
X61547623Y-51310720D01*
X61752588Y-51415877D01*
X61940039Y-51521772D01*
X62060666Y-51597436D01*
X62366221Y-51820191D01*
X62663742Y-52075742D01*
X62945291Y-52356003D01*
X63202929Y-52652893D01*
X63428717Y-52958326D01*
X63491831Y-53054787D01*
X63545511Y-53134383D01*
X63583858Y-53179940D01*
X63605319Y-53189679D01*
X63607446Y-53187175D01*
X63615256Y-53157029D01*
X63626419Y-53093449D01*
X63639579Y-53005073D01*
X63653378Y-52900537D01*
X63656595Y-52874333D01*
X63691512Y-52558871D01*
X63715791Y-52275723D01*
X63730069Y-52016399D01*
X63734545Y-51837166D01*
X63734978Y-51720636D01*
X63732163Y-51634920D01*
X63724687Y-51568536D01*
X63711136Y-51510005D01*
X63690100Y-51447846D01*
X63684977Y-51434250D01*
X63570341Y-51174847D01*
X63433390Y-50944571D01*
X63267854Y-50733372D01*
X63205118Y-50665348D01*
X62996959Y-50475965D01*
X62768613Y-50322619D01*
X62516668Y-50203259D01*
X62333690Y-50141490D01*
X62172798Y-50094872D01*
X61977318Y-50267392D01*
X61701461Y-50488113D01*
X61411472Y-50677021D01*
X61113565Y-50830419D01*
X60871138Y-50925958D01*
X60708084Y-50981279D01*
X60243910Y-50981279D01*
X60411372Y-50940719D01*
X60565011Y-50899449D01*
X60702966Y-50857968D01*
X60828518Y-50815527D01*
X60944948Y-50771376D01*
X61025844Y-50737732D01*
X61346304Y-50576631D01*
X61649726Y-50377397D01*
X61935102Y-50141077D01*
X62201427Y-49868719D01*
X62447694Y-49561370D01*
X62672896Y-49220078D01*
X62876028Y-48845889D01*
X62908529Y-48778583D01*
X63040839Y-48480677D01*
X63150691Y-48193179D01*
X63229184Y-47944398D01*
X63277750Y-47770094D01*
X63373000Y-47784289D01*
X63432981Y-47796983D01*
X63473373Y-47812480D01*
X63480853Y-47818822D01*
X63488296Y-47845304D01*
X63501338Y-47906569D01*
X63518623Y-47995641D01*
X63538795Y-48105544D01*
X63559624Y-48224205D01*
X63677637Y-48980520D01*
X63766471Y-49706912D01*
X63826080Y-50404171D01*
X63856417Y-51073090D01*
X63857434Y-51714459D01*
X63829086Y-52329072D01*
X63771324Y-52917720D01*
X63684103Y-53481194D01*
X63567374Y-54020287D01*
X63421092Y-54535791D01*
X63245209Y-55028496D01*
X63141595Y-55276963D01*
X62931581Y-55716947D01*
X62698430Y-56129420D01*
X62437763Y-56520759D01*
X62145200Y-56897342D01*
X61816363Y-57265546D01*
X61679855Y-57405726D01*
X61421250Y-57656721D01*
X61168174Y-57883408D01*
X60912234Y-58092122D01*
X60645042Y-58289196D01*
X60358206Y-58480965D01*
X60043337Y-58673764D01*
X59859333Y-58780173D01*
X59449366Y-59017853D01*
X59072933Y-59246344D01*
X58723462Y-59470021D01*
X58394386Y-59693257D01*
X58079135Y-59920426D01*
X57771140Y-60155901D01*
X57658000Y-60245771D01*
X57393416Y-60458009D01*
X57450529Y-63751713D01*
X57456889Y-64123342D01*
X57462905Y-64484377D01*
X57468544Y-64832458D01*
X57473775Y-65165226D01*
X57478566Y-65480321D01*
X57482885Y-65775383D01*
X57486701Y-66048054D01*
X57489981Y-66295973D01*
X57492695Y-66516781D01*
X57494809Y-66708118D01*
X57496294Y-66867625D01*
X57497116Y-66992942D01*
X57497244Y-67081710D01*
X57496646Y-67131570D01*
X57496134Y-67140666D01*
X57447532Y-67380793D01*
X57363376Y-67601135D01*
X57245868Y-67798862D01*
X57097209Y-67971145D01*
X56919601Y-68115153D01*
X56715244Y-68228057D01*
X56620833Y-68265930D01*
X56483250Y-68315416D01*
X53541083Y-68315416D01*
X53128650Y-68315397D01*
X52756388Y-68315321D01*
X52422137Y-68315161D01*
X52123736Y-68314888D01*
X51859022Y-68314476D01*
X51625834Y-68313896D01*
X51422011Y-68313122D01*
X51245391Y-68312125D01*
X51093813Y-68310878D01*
X50965116Y-68309353D01*
X50857138Y-68307523D01*
X50767718Y-68305360D01*
X50694694Y-68302836D01*
X50635905Y-68299924D01*
X50589190Y-68296596D01*
X50552386Y-68292824D01*
X50523333Y-68288582D01*
X50499870Y-68283840D01*
X50479834Y-68278573D01*
X50471916Y-68276195D01*
X50273068Y-68194739D01*
X50087649Y-68079886D01*
X49923174Y-67937779D01*
X49787158Y-67774562D01*
X49717145Y-67659250D01*
X49674264Y-67573121D01*
X49641677Y-67495305D01*
X49616488Y-67415274D01*
X49595804Y-67322501D01*
X49576731Y-67206458D01*
X49560765Y-67090385D01*
X49502061Y-66759277D01*
X49416050Y-66458717D01*
X49301208Y-66185680D01*
X49156012Y-65937138D01*
X48978938Y-65710064D01*
X48768462Y-65501432D01*
X48755005Y-65489666D01*
X48509060Y-65303086D01*
X48234657Y-65143397D01*
X47936196Y-65010793D01*
X47618074Y-64905468D01*
X47284688Y-64827617D01*
X46940437Y-64777435D01*
X46589717Y-64755116D01*
X46236928Y-64760855D01*
X45886467Y-64794845D01*
X45542732Y-64857283D01*
X45210120Y-64948361D01*
X44893029Y-65068275D01*
X44595858Y-65217219D01*
X44460583Y-65299730D01*
X44337530Y-65389606D01*
X44205162Y-65503180D01*
X44072259Y-65631449D01*
X43947600Y-65765407D01*
X43839962Y-65896049D01*
X43758124Y-66014371D01*
X43749239Y-66029416D01*
X43635171Y-66248093D01*
X43545226Y-66469266D01*
X43475855Y-66703912D01*
X43423506Y-66963009D01*
X43403509Y-67098333D01*
X43383743Y-67237764D01*
X43364651Y-67345967D01*
X43343194Y-67433883D01*
X43316335Y-67512454D01*
X43281036Y-67592622D01*
X43247777Y-67659250D01*
X43137290Y-67830372D01*
X42992699Y-67985805D01*
X42821078Y-68119691D01*
X42629501Y-68226175D01*
X42502666Y-68276245D01*
X42484675Y-68281754D01*
X42463858Y-68286724D01*
X42438041Y-68291186D01*
X42405050Y-68295170D01*
X42362712Y-68298706D01*
X42308852Y-68301825D01*
X42241296Y-68304558D01*
X42157871Y-68306934D01*
X42056404Y-68308985D01*
X41934720Y-68310741D01*
X41790645Y-68312231D01*
X41622006Y-68313488D01*
X41426629Y-68314540D01*
X41202339Y-68315420D01*
X40946964Y-68316156D01*
X40658330Y-68316780D01*
X40334262Y-68317322D01*
X39972586Y-68317812D01*
X39571130Y-68318281D01*
X39497000Y-68318363D01*
X39148979Y-68318622D01*
X38811563Y-68318632D01*
X38487285Y-68318407D01*
X38178677Y-68317956D01*
X37888273Y-68317293D01*
X37618606Y-68316429D01*
X37372209Y-68315374D01*
X37151617Y-68314142D01*
X36959361Y-68312743D01*
X36797975Y-68311189D01*
X36669993Y-68309492D01*
X36577948Y-68307664D01*
X36524373Y-68305716D01*
X36512500Y-68304649D01*
X36296787Y-68245579D01*
X36098171Y-68147830D01*
X35916490Y-68011310D01*
X35833469Y-67930097D01*
X35684812Y-67743357D01*
X35573186Y-67537122D01*
X35497832Y-67309769D01*
X35468126Y-67151250D01*
X35467196Y-67120854D01*
X35467023Y-67050471D01*
X35467573Y-66942439D01*
X35468814Y-66799097D01*
X35470714Y-66622782D01*
X35473240Y-66415834D01*
X35476360Y-66180590D01*
X35480041Y-65919390D01*
X35484251Y-65634572D01*
X35488957Y-65328474D01*
X35494126Y-65003435D01*
X35499726Y-64661794D01*
X35505725Y-64305888D01*
X35512090Y-63938056D01*
X35515523Y-63743416D01*
X35574525Y-60420250D01*
X35395231Y-60229750D01*
X35058425Y-59847536D01*
X34763009Y-59460110D01*
X34508200Y-59065926D01*
X34293213Y-58663440D01*
X34117263Y-58251105D01*
X33979568Y-57827376D01*
X33879343Y-57390707D01*
X33843619Y-57171166D01*
X33828602Y-57022803D01*
X33820049Y-56843930D01*
X33817779Y-56645846D01*
X33818440Y-56610250D01*
X33968363Y-56610250D01*
X33981318Y-56986555D01*
X34022032Y-57342131D01*
X34092582Y-57685910D01*
X34195043Y-58026823D01*
X34331491Y-58373802D01*
X34425766Y-58578750D01*
X34650508Y-58999400D01*
X34909641Y-59399753D01*
X35206112Y-59784247D01*
X35293608Y-59886681D01*
X35368671Y-59977371D01*
X35413004Y-60042435D01*
X35427928Y-60083899D01*
X35427177Y-60090980D01*
X35434408Y-60127445D01*
X35472686Y-60181355D01*
X35530774Y-60242826D01*
X35589823Y-60298788D01*
X35625391Y-60325777D01*
X35641961Y-60326606D01*
X35644666Y-60314281D01*
X35646611Y-60286708D01*
X35659211Y-60289343D01*
X35685423Y-60315004D01*
X35690766Y-60321090D01*
X35695574Y-60329172D01*
X35699836Y-60341214D01*
X35703543Y-60359182D01*
X35706683Y-60385040D01*
X35709245Y-60420752D01*
X35711219Y-60468283D01*
X35712595Y-60529598D01*
X35713360Y-60606660D01*
X35713506Y-60701436D01*
X35713020Y-60815888D01*
X35711892Y-60951982D01*
X35710112Y-61111682D01*
X35707668Y-61296954D01*
X35704551Y-61509760D01*
X35700749Y-61752066D01*
X35696252Y-62025837D01*
X35691048Y-62333037D01*
X35685128Y-62675630D01*
X35678480Y-63055581D01*
X35671094Y-63474855D01*
X35666883Y-63713274D01*
X35658777Y-64179725D01*
X35651453Y-64616908D01*
X35644922Y-65023750D01*
X35639197Y-65399175D01*
X35634292Y-65742108D01*
X35630218Y-66051476D01*
X35626988Y-66326202D01*
X35624614Y-66565212D01*
X35623110Y-66767431D01*
X35622487Y-66931784D01*
X35622758Y-67057197D01*
X35623935Y-67142594D01*
X35626031Y-67186901D01*
X35626417Y-67189884D01*
X35678693Y-67396767D01*
X35765960Y-67588526D01*
X35884047Y-67760593D01*
X36028783Y-67908400D01*
X36195997Y-68027381D01*
X36381516Y-68112968D01*
X36500031Y-68146424D01*
X36542886Y-68151077D01*
X36624972Y-68155372D01*
X36743188Y-68159310D01*
X36894433Y-68162891D01*
X37075605Y-68166115D01*
X37283605Y-68168982D01*
X37515331Y-68171493D01*
X37767682Y-68173648D01*
X38037558Y-68175447D01*
X38321856Y-68176891D01*
X38617477Y-68177979D01*
X38921319Y-68178713D01*
X39230282Y-68179091D01*
X39541264Y-68179116D01*
X39851164Y-68178786D01*
X40156882Y-68178102D01*
X40455317Y-68177064D01*
X40743367Y-68175673D01*
X41017932Y-68173929D01*
X41275910Y-68171832D01*
X41514201Y-68169382D01*
X41729704Y-68166579D01*
X41919318Y-68163425D01*
X42079942Y-68159919D01*
X42208474Y-68156061D01*
X42301815Y-68151852D01*
X42356863Y-68147291D01*
X42365083Y-68145933D01*
X42558932Y-68085169D01*
X42737638Y-67990206D01*
X42896345Y-67865957D01*
X43030192Y-67717335D01*
X43134322Y-67549253D01*
X43203877Y-67366626D01*
X43223062Y-67278250D01*
X43235106Y-67204872D01*
X43251520Y-67104062D01*
X43269968Y-66990183D01*
X43284958Y-66897250D01*
X43357901Y-66566027D01*
X43465985Y-66257989D01*
X43608485Y-65973829D01*
X43784677Y-65714241D01*
X43993835Y-65479920D01*
X44235235Y-65271560D01*
X44508152Y-65089855D01*
X44811861Y-64935501D01*
X45145638Y-64809191D01*
X45508757Y-64711619D01*
X45582416Y-64696103D01*
X45983326Y-64631459D01*
X46371891Y-64603015D01*
X46757712Y-64610771D01*
X47150391Y-64654726D01*
X47381583Y-64696103D01*
X47747657Y-64787522D01*
X48085801Y-64908065D01*
X48395040Y-65056896D01*
X48674401Y-65233178D01*
X48922911Y-65436077D01*
X49139596Y-65664756D01*
X49323484Y-65918379D01*
X49473600Y-66196111D01*
X49588972Y-66497114D01*
X49624849Y-66622595D01*
X49649574Y-66729531D01*
X49675094Y-66859512D01*
X49697842Y-66993474D01*
X49710034Y-67078067D01*
X49736197Y-67246598D01*
X49768185Y-67384143D01*
X49809766Y-67502001D01*
X49864708Y-67611472D01*
X49914543Y-67691272D01*
X50044827Y-67849049D01*
X50204657Y-67979584D01*
X50388346Y-68079103D01*
X50590206Y-68143829D01*
X50599285Y-68145791D01*
X50643692Y-68150645D01*
X50727309Y-68155140D01*
X50847022Y-68159275D01*
X50999716Y-68163049D01*
X51182274Y-68166461D01*
X51391583Y-68169510D01*
X51624526Y-68172196D01*
X51877988Y-68174517D01*
X52148855Y-68176473D01*
X52434011Y-68178063D01*
X52730341Y-68179287D01*
X53034730Y-68180142D01*
X53344063Y-68180629D01*
X53655223Y-68180746D01*
X53965097Y-68180493D01*
X54270569Y-68179869D01*
X54568523Y-68178873D01*
X54855845Y-68177504D01*
X55129419Y-68175761D01*
X55386131Y-68173644D01*
X55622864Y-68171151D01*
X55836504Y-68168282D01*
X56023935Y-68165036D01*
X56182043Y-68161412D01*
X56307712Y-68157409D01*
X56397827Y-68153027D01*
X56449272Y-68148264D01*
X56454082Y-68147388D01*
X56651627Y-68084572D01*
X56832637Y-67985811D01*
X56992980Y-67855635D01*
X57128524Y-67698574D01*
X57235138Y-67519158D01*
X57308689Y-67321918D01*
X57337934Y-67178302D01*
X57339643Y-67142033D01*
X57340559Y-67065496D01*
X57340708Y-66950747D01*
X57340113Y-66799842D01*
X57338797Y-66614839D01*
X57336785Y-66397793D01*
X57334100Y-66150762D01*
X57330766Y-65875802D01*
X57326808Y-65574970D01*
X57322248Y-65250322D01*
X57317112Y-64903916D01*
X57311422Y-64537807D01*
X57305203Y-64154053D01*
X57298478Y-63754710D01*
X57297610Y-63704171D01*
X57290036Y-63263814D01*
X57283192Y-62863817D01*
X57277067Y-62502213D01*
X57271653Y-62177037D01*
X57266938Y-61886321D01*
X57262911Y-61628098D01*
X57259563Y-61400403D01*
X57256882Y-61201268D01*
X57254859Y-61028728D01*
X57253483Y-60880814D01*
X57252743Y-60755562D01*
X57252630Y-60651003D01*
X57253132Y-60565172D01*
X57254240Y-60496101D01*
X57255942Y-60441825D01*
X57258229Y-60400376D01*
X57261091Y-60369789D01*
X57264515Y-60348096D01*
X57268493Y-60333330D01*
X57273014Y-60323526D01*
X57278066Y-60316716D01*
X57279645Y-60315004D01*
X57308359Y-60286798D01*
X57318233Y-60289336D01*
X57319333Y-60314281D01*
X57325867Y-60329096D01*
X57348459Y-60319596D01*
X57391590Y-60282970D01*
X57433225Y-60242826D01*
X57498955Y-60172309D01*
X57532254Y-60121782D01*
X57536718Y-60090580D01*
X57543623Y-60055358D01*
X57578936Y-59999070D01*
X57634724Y-59930869D01*
X57853220Y-59930869D01*
X57880481Y-59912231D01*
X57933655Y-59874234D01*
X58004639Y-59822714D01*
X58072422Y-59773017D01*
X58162746Y-59707882D01*
X58275543Y-59628599D01*
X58397848Y-59544176D01*
X58516696Y-59463621D01*
X58543381Y-59445787D01*
X58638208Y-59381839D01*
X58719198Y-59325736D01*
X58780380Y-59281735D01*
X58815781Y-59254091D01*
X58822166Y-59247073D01*
X58805763Y-59232211D01*
X58763082Y-59201596D01*
X58703914Y-59161634D01*
X58638051Y-59118732D01*
X58575285Y-59079298D01*
X58525407Y-59049737D01*
X58502738Y-59038065D01*
X58486502Y-59052538D01*
X58451578Y-59096631D01*
X58402313Y-59164445D01*
X58343053Y-59250082D01*
X58307771Y-59302649D01*
X58229486Y-59417575D01*
X58143569Y-59538902D01*
X58059623Y-59653339D01*
X57987251Y-59747596D01*
X57977003Y-59760393D01*
X57920159Y-59832181D01*
X57877869Y-59888306D01*
X57854298Y-59923032D01*
X57853220Y-59930869D01*
X57634724Y-59930869D01*
X57644463Y-59918964D01*
X57664015Y-59896864D01*
X57815691Y-59717216D01*
X57973872Y-59511808D01*
X58128842Y-59293982D01*
X58270886Y-59077079D01*
X58322437Y-58992679D01*
X58540443Y-58589176D01*
X58716547Y-58179693D01*
X58850753Y-57764259D01*
X58943061Y-57342904D01*
X58993476Y-56915660D01*
X59001999Y-56482556D01*
X58968633Y-56043624D01*
X58893381Y-55598892D01*
X58776245Y-55148392D01*
X58617228Y-54692155D01*
X58416332Y-54230210D01*
X58173560Y-53762587D01*
X57888914Y-53289318D01*
X57833520Y-53203973D01*
X57531245Y-52769862D01*
X57190381Y-52328904D01*
X57037500Y-52148209D01*
X57247090Y-52148209D01*
X57339191Y-52262563D01*
X57625667Y-52635435D01*
X57895153Y-53020477D01*
X58143803Y-53411284D01*
X58367775Y-53801453D01*
X58563225Y-54184579D01*
X58726310Y-54554259D01*
X58749242Y-54611986D01*
X58828614Y-54815055D01*
X58968265Y-54874120D01*
X59096822Y-54932209D01*
X59249805Y-55007248D01*
X59416030Y-55093291D01*
X59584317Y-55184394D01*
X59743482Y-55274609D01*
X59882346Y-55357991D01*
X59904791Y-55372112D01*
X60293340Y-55641604D01*
X60655646Y-55939458D01*
X60988477Y-56262525D01*
X61288606Y-56607651D01*
X61552805Y-56971687D01*
X61569055Y-56996541D01*
X61623241Y-57079645D01*
X61668249Y-57148037D01*
X61699568Y-57194905D01*
X61712683Y-57213437D01*
X61712792Y-57213500D01*
X61726938Y-57198539D01*
X61763532Y-57157674D01*
X61817226Y-57096928D01*
X61882672Y-57022324D01*
X61891242Y-57012520D01*
X62190301Y-56647346D01*
X62457297Y-56271713D01*
X62551157Y-56125480D01*
X62620507Y-56011358D01*
X62691634Y-55888967D01*
X62761229Y-55764581D01*
X62825985Y-55644473D01*
X62882594Y-55534917D01*
X62927750Y-55442185D01*
X62958144Y-55372552D01*
X62970469Y-55332290D01*
X62970580Y-55329950D01*
X62958203Y-55301743D01*
X62924576Y-55247735D01*
X62874655Y-55175376D01*
X62813392Y-55092113D01*
X62805410Y-55081607D01*
X62469023Y-54675022D01*
X62099543Y-54293411D01*
X61699002Y-53938122D01*
X61269436Y-53610504D01*
X60812879Y-53311905D01*
X60331364Y-53043673D01*
X59826926Y-52807159D01*
X59301600Y-52603710D01*
X58853916Y-52461711D01*
X58564062Y-52384113D01*
X58261399Y-52313087D01*
X57958569Y-52251201D01*
X57668218Y-52201026D01*
X57402987Y-52165129D01*
X57383753Y-52163008D01*
X57247090Y-52148209D01*
X57037500Y-52148209D01*
X56813626Y-51883606D01*
X56403678Y-51436479D01*
X55963235Y-50990029D01*
X55494994Y-50546765D01*
X55001654Y-50109195D01*
X54485913Y-49679829D01*
X53950468Y-49261173D01*
X53398017Y-48855737D01*
X52831257Y-48466029D01*
X52517275Y-48261132D01*
X52276635Y-48107050D01*
X51755275Y-48172522D01*
X51309255Y-48226320D01*
X50853091Y-48277122D01*
X50390725Y-48324666D01*
X49926103Y-48368690D01*
X49463168Y-48408933D01*
X49005864Y-48445133D01*
X48558135Y-48477027D01*
X48123926Y-48504354D01*
X47707180Y-48526851D01*
X47311842Y-48544258D01*
X46941854Y-48556312D01*
X46601162Y-48562751D01*
X46293710Y-48563314D01*
X46023441Y-48557738D01*
X45978916Y-48556057D01*
X45247028Y-48522845D01*
X44549214Y-48484008D01*
X43877512Y-48438912D01*
X43223957Y-48386924D01*
X42580588Y-48327411D01*
X41939440Y-48259740D01*
X41293592Y-48183406D01*
X40687767Y-48108137D01*
X40510425Y-48218678D01*
X40253560Y-48383835D01*
X39972701Y-48573512D01*
X39674344Y-48782864D01*
X39364985Y-49007045D01*
X39051122Y-49241208D01*
X38739250Y-49480507D01*
X38435867Y-49720098D01*
X38147469Y-49955133D01*
X37884192Y-50177626D01*
X37353293Y-50651952D01*
X36858785Y-51127159D01*
X36401257Y-51602469D01*
X35981297Y-52077105D01*
X35599495Y-52550287D01*
X35256437Y-53021238D01*
X34952714Y-53489181D01*
X34688913Y-53953338D01*
X34465624Y-54412930D01*
X34283433Y-54867179D01*
X34239156Y-54995437D01*
X34125520Y-55376420D01*
X34044019Y-55743267D01*
X33992792Y-56107070D01*
X33969978Y-56478922D01*
X33968363Y-56610250D01*
X33818440Y-56610250D01*
X33821606Y-56439848D01*
X33831350Y-56237236D01*
X33846825Y-56049306D01*
X33864017Y-55911750D01*
X33949134Y-55467961D01*
X34070548Y-55024437D01*
X34228848Y-54580099D01*
X34424623Y-54133863D01*
X34658462Y-53684649D01*
X34930954Y-53231376D01*
X35242687Y-52772962D01*
X35594252Y-52308327D01*
X35986236Y-51836389D01*
X36239124Y-51551416D01*
X36583072Y-51187077D01*
X36961484Y-50812682D01*
X37369054Y-50432675D01*
X37800472Y-50051499D01*
X38250430Y-49673596D01*
X38713621Y-49303410D01*
X39184736Y-48945383D01*
X39658467Y-48603958D01*
X40129505Y-48283578D01*
X40193972Y-48241285D01*
X40284198Y-48181540D01*
X40358374Y-48130828D01*
X40410914Y-48093101D01*
X40436229Y-48072310D01*
X40436910Y-48069500D01*
X40405337Y-48066027D01*
X40337703Y-48056236D01*
X40239653Y-48041069D01*
X40116832Y-48021466D01*
X39974885Y-47998368D01*
X39819458Y-47972717D01*
X39656196Y-47945455D01*
X39490743Y-47917521D01*
X39328745Y-47889857D01*
X39175847Y-47863405D01*
X39037694Y-47839105D01*
X38919932Y-47817899D01*
X38851416Y-47805165D01*
X37997055Y-47632449D01*
X37170973Y-47443473D01*
X36374089Y-47238632D01*
X35607320Y-47018324D01*
X34871584Y-46782944D01*
X34167797Y-46532889D01*
X33496877Y-46268555D01*
X32859742Y-45990338D01*
X32257309Y-45698636D01*
X31690495Y-45393844D01*
X31160219Y-45076358D01*
X30667396Y-44746576D01*
X30212946Y-44404893D01*
X29797784Y-44051705D01*
X29497034Y-43763645D01*
X29376612Y-43637545D01*
X29257701Y-43505296D01*
X29144030Y-43371746D01*
X29039328Y-43241746D01*
X28947326Y-43120147D01*
X28871754Y-43011799D01*
X28816341Y-42921552D01*
X28784816Y-42854258D01*
X28779111Y-42830033D01*
X28791180Y-42807990D01*
X28834144Y-42782844D01*
X28912375Y-42752308D01*
X28956000Y-42737588D01*
X29160069Y-42665700D01*
X29368655Y-42582935D01*
X29576359Y-42492132D01*
X29777782Y-42396127D01*
X29967526Y-42297757D01*
X30140192Y-42199859D01*
X30290382Y-42105271D01*
X30412697Y-42016828D01*
X30501740Y-41937369D01*
X30522097Y-41914577D01*
X30550389Y-41881045D01*
X30572727Y-41852158D01*
X30587038Y-41824746D01*
X30591252Y-41795636D01*
X30583299Y-41761659D01*
X30561108Y-41719643D01*
X30522609Y-41666416D01*
X30465729Y-41598809D01*
X30388400Y-41513649D01*
X30288551Y-41407767D01*
X30164110Y-41277990D01*
X30013007Y-41121149D01*
X29985014Y-41092080D01*
X29852825Y-40954367D01*
X29730546Y-40826183D01*
X29621143Y-40710696D01*
X29527584Y-40611077D01*
X29452835Y-40530493D01*
X29399864Y-40472114D01*
X29371637Y-40439108D01*
X29367787Y-40432823D01*
X29391512Y-40424749D01*
X29445575Y-40411873D01*
X29518647Y-40396875D01*
X29524502Y-40395754D01*
X29709664Y-40346429D01*
X29920626Y-40264225D01*
X30156878Y-40149432D01*
X30417911Y-40002336D01*
X30703214Y-39823225D01*
X31012280Y-39612386D01*
X31344597Y-39370107D01*
X31352938Y-39363845D01*
X31470894Y-39275664D01*
X31559624Y-39210720D01*
X31623440Y-39166416D01*
X31666653Y-39140157D01*
X31693574Y-39129345D01*
X31708513Y-39131384D01*
X31715784Y-39143677D01*
X31716175Y-39145069D01*
X31725373Y-39186599D01*
X31725461Y-39222166D01*
X31712360Y-39256787D01*
X31681991Y-39295479D01*
X31630274Y-39343260D01*
X31553131Y-39405145D01*
X31446482Y-39486153D01*
X31426930Y-39500833D01*
X31166552Y-39691177D01*
X30912022Y-39867515D01*
X30667098Y-40027604D01*
X30435540Y-40169202D01*
X30221109Y-40290066D01*
X30027564Y-40387954D01*
X29858665Y-40460622D01*
X29762352Y-40493729D01*
X29709268Y-40513131D01*
X29678641Y-40531099D01*
X29675666Y-40536294D01*
X29689923Y-40554795D01*
X29730464Y-40599990D01*
X29793945Y-40668335D01*
X29877021Y-40756288D01*
X29976348Y-40860304D01*
X30088582Y-40976841D01*
X30196676Y-41088280D01*
X30318745Y-41214550D01*
X30431713Y-41332998D01*
X30532058Y-41439809D01*
X30616258Y-41531169D01*
X30680790Y-41603261D01*
X30722134Y-41652270D01*
X30736426Y-41672964D01*
X30754063Y-41765281D01*
X30736348Y-41859607D01*
X30682111Y-41957576D01*
X30590184Y-42060821D01*
X30459398Y-42170979D01*
X30301321Y-42281418D01*
X30172815Y-42359202D01*
X30014076Y-42445814D01*
X29834951Y-42536460D01*
X29645289Y-42626341D01*
X29454936Y-42710663D01*
X29273742Y-42784629D01*
X29246969Y-42794912D01*
X28977022Y-42897609D01*
X29064594Y-43022929D01*
X29241691Y-43254969D01*
X29454572Y-43496959D01*
X29698976Y-43745115D01*
X29970643Y-43995650D01*
X30265312Y-44244781D01*
X30578724Y-44488720D01*
X30906620Y-44723684D01*
X31189083Y-44910682D01*
X31768981Y-45259493D01*
X32387015Y-45591163D01*
X33042539Y-45905525D01*
X33734909Y-46202415D01*
X34463479Y-46481667D01*
X35227604Y-46743115D01*
X36026639Y-46986595D01*
X36859940Y-47211940D01*
X37726861Y-47418986D01*
X38626757Y-47607566D01*
X39558984Y-47777516D01*
X40522896Y-47928670D01*
X41517848Y-48060863D01*
X42543195Y-48173929D01*
X43598293Y-48267703D01*
X44534666Y-48333142D01*
X44912262Y-48355567D01*
X45257014Y-48374215D01*
X45574999Y-48389057D01*
X45872297Y-48400062D01*
X46154985Y-48407200D01*
X46429141Y-48410441D01*
X46700844Y-48409755D01*
X46976171Y-48405112D01*
X47261202Y-48396481D01*
X47562013Y-48383833D01*
X47884684Y-48367137D01*
X48235291Y-48346364D01*
X48619915Y-48321483D01*
X48757416Y-48312225D01*
X49847262Y-48227173D01*
X50907548Y-48122045D01*
X51937403Y-47997009D01*
X52935953Y-47852236D01*
X53902325Y-47687893D01*
X54835647Y-47504152D01*
X55735047Y-47301181D01*
X56599650Y-47079150D01*
X57428584Y-46838229D01*
X58220977Y-46578587D01*
X58832750Y-46355692D01*
X59341392Y-46152374D01*
X59845617Y-45933082D01*
X60338061Y-45701436D01*
X60811360Y-45461053D01*
X61258150Y-45215554D01*
X61671066Y-44968555D01*
X61724903Y-44934600D01*
X62128778Y-44665673D01*
X62508127Y-44387845D01*
X62859808Y-44103859D01*
X63180678Y-43816459D01*
X63467595Y-43528387D01*
X63717418Y-43242386D01*
X63831670Y-43095333D01*
X63886608Y-43020232D01*
X63930626Y-42957877D01*
X63958441Y-42915890D01*
X63965494Y-42902286D01*
X63947072Y-42889722D01*
X63897894Y-42867783D01*
X63827346Y-42840536D01*
X63801625Y-42831301D01*
X63556849Y-42738962D01*
X63316997Y-42637033D01*
X63087777Y-42528574D01*
X62874896Y-42416642D01*
X62684060Y-42304297D01*
X62520976Y-42194595D01*
X62391351Y-42090596D01*
X62354755Y-42055922D01*
X62261206Y-41946208D01*
X62208102Y-41843881D01*
X62194595Y-41746999D01*
X62201262Y-41704449D01*
X62220759Y-41671829D01*
X62269196Y-41611293D01*
X62345151Y-41524423D01*
X62447199Y-41412802D01*
X62573916Y-41278010D01*
X62723879Y-41121630D01*
X62752198Y-41092377D01*
X62874748Y-40965600D01*
X62987450Y-40848340D01*
X63087020Y-40744063D01*
X63170177Y-40656237D01*
X63233636Y-40588329D01*
X63274116Y-40543807D01*
X63288333Y-40526138D01*
X63270772Y-40514779D01*
X63251291Y-40512584D01*
X63206900Y-40502723D01*
X63132834Y-40476025D01*
X63036595Y-40435903D01*
X62925683Y-40385773D01*
X62807600Y-40329048D01*
X62689846Y-40269142D01*
X62579921Y-40209472D01*
X62558083Y-40197031D01*
X62451077Y-40133173D01*
X62326359Y-40054938D01*
X62189042Y-39965886D01*
X62044240Y-39869578D01*
X61897067Y-39769576D01*
X61752635Y-39669440D01*
X61616058Y-39572732D01*
X61492449Y-39483012D01*
X61386922Y-39403842D01*
X61304591Y-39338783D01*
X61250569Y-39291396D01*
X61237095Y-39277073D01*
X61223677Y-39231277D01*
X61229620Y-39173936D01*
X61245750Y-39099240D01*
X61552666Y-39332427D01*
G36*
X37199303Y-35882214D02*
G01*
X37443246Y-35885653D01*
X37454416Y-35885888D01*
X38037842Y-35901483D01*
X38582280Y-35922724D01*
X39090732Y-35949876D01*
X39566198Y-35983208D01*
X40011682Y-36022985D01*
X40430185Y-36069475D01*
X40824709Y-36122943D01*
X41198256Y-36183656D01*
X41538099Y-36248632D01*
X41710766Y-36286462D01*
X41886014Y-36328984D01*
X42057947Y-36374408D01*
X42220667Y-36420943D01*
X42368275Y-36466800D01*
X42494874Y-36510187D01*
X42594566Y-36549315D01*
X42661453Y-36582392D01*
X42679683Y-36595171D01*
X42713141Y-36634457D01*
X42761908Y-36706248D01*
X42822805Y-36804964D01*
X42892653Y-36925027D01*
X42968273Y-37060858D01*
X43046486Y-37206877D01*
X43124113Y-37357507D01*
X43190262Y-37491190D01*
X43340612Y-37814255D01*
X43476628Y-38134343D01*
X43602699Y-38462867D01*
X43723215Y-38811241D01*
X43837765Y-39174973D01*
X43884155Y-39332379D01*
X43930687Y-39497404D01*
X43975840Y-39663961D01*
X44018088Y-39825965D01*
X44055910Y-39977330D01*
X44087783Y-40111972D01*
X44112182Y-40223804D01*
X44127584Y-40306740D01*
X44132500Y-40352485D01*
X44126131Y-40412473D01*
X44108252Y-40505622D01*
X44080701Y-40624919D01*
X44045319Y-40763350D01*
X44003945Y-40913905D01*
X43958418Y-41069570D01*
X43910578Y-41223332D01*
X43878554Y-41320590D01*
X43696380Y-41805697D01*
X43488624Y-42257401D01*
X43254974Y-42676265D01*
X42995115Y-43062851D01*
X42713410Y-43412422D01*
X42473325Y-43657570D01*
X42192098Y-43894941D01*
X41870269Y-44124146D01*
X41508380Y-44344796D01*
X41155060Y-44532658D01*
X40729727Y-44728251D01*
X40296316Y-44892989D01*
X39847888Y-45028972D01*
X39377508Y-45138301D01*
X38878237Y-45223077D01*
X38872583Y-45223877D01*
X38749066Y-45237375D01*
X38591779Y-45248481D01*
X38409224Y-45257102D01*
X38209902Y-45263146D01*
X38002313Y-45266521D01*
X37794960Y-45267133D01*
X37596344Y-45264890D01*
X37414965Y-45259701D01*
X37259325Y-45251471D01*
X37158083Y-45242528D01*
X36792837Y-45192808D01*
X36442662Y-45128281D01*
X36115322Y-45050656D01*
X35818578Y-44961641D01*
X35713652Y-44924517D01*
X35379184Y-44778008D01*
X35059767Y-44592991D01*
X34756701Y-44370995D01*
X34471288Y-44113550D01*
X34204828Y-43822187D01*
X33958624Y-43498435D01*
X33733976Y-43143824D01*
X33532185Y-42759884D01*
X33354552Y-42348146D01*
X33233430Y-42008134D01*
X33172187Y-41808972D01*
X33113791Y-41598696D01*
X33061699Y-41390883D01*
X33019367Y-41199113D01*
X32997022Y-41079487D01*
X32970321Y-40920584D01*
X33145205Y-40711500D01*
X33345350Y-40456242D01*
X33516797Y-40201080D01*
X33614027Y-40029120D01*
X36830159Y-40029120D01*
X36850091Y-40353337D01*
X36909329Y-40666580D01*
X37006450Y-40965821D01*
X37140033Y-41248032D01*
X37308652Y-41510185D01*
X37510887Y-41749255D01*
X37734841Y-41953835D01*
X37976132Y-42129431D01*
X38221144Y-42269171D01*
X38480607Y-42378949D01*
X38555083Y-42404397D01*
X38818683Y-42472312D01*
X39099570Y-42512208D01*
X39383990Y-42523082D01*
X39658192Y-42503930D01*
X39742843Y-42491068D01*
X40054577Y-42417623D01*
X40344513Y-42309119D01*
X40615641Y-42163996D01*
X40870952Y-41980693D01*
X41076600Y-41794856D01*
X41296996Y-41547852D01*
X41479958Y-41282710D01*
X41624716Y-41001392D01*
X41730497Y-40705857D01*
X41796529Y-40398068D01*
X41822039Y-40079984D01*
X41818962Y-39909750D01*
X41781915Y-39586257D01*
X41705925Y-39276101D01*
X41593029Y-38981996D01*
X41445265Y-38706661D01*
X41264669Y-38452811D01*
X41053279Y-38223162D01*
X40813132Y-38020433D01*
X40546265Y-37847338D01*
X40254714Y-37706595D01*
X40132000Y-37660091D01*
X39848200Y-37581700D01*
X39548905Y-37538208D01*
X39242661Y-37529670D01*
X38938015Y-37556143D01*
X38643515Y-37617681D01*
X38537870Y-37649667D01*
X38246654Y-37767643D01*
X37973602Y-37921522D01*
X37722017Y-38107892D01*
X37495201Y-38323340D01*
X37296454Y-38564453D01*
X37129079Y-38827818D01*
X36996376Y-39110022D01*
X36926261Y-39315639D01*
X36885309Y-39468706D01*
X36857306Y-39606071D01*
X36840181Y-39743111D01*
X36831864Y-39895200D01*
X36830159Y-40029120D01*
X33614027Y-40029120D01*
X33670028Y-39930078D01*
X33706961Y-39857497D01*
X33750745Y-39768557D01*
X33790572Y-39684510D01*
X33828524Y-39600090D01*
X33866683Y-39510033D01*
X33907129Y-39409074D01*
X33951945Y-39291947D01*
X34003212Y-39153387D01*
X34063010Y-38988130D01*
X34133422Y-38790910D01*
X34175799Y-38671500D01*
X34291566Y-38351171D01*
X34399654Y-38067126D01*
X34502775Y-37814609D01*
X34603641Y-37588865D01*
X34704965Y-37385140D01*
X34809460Y-37198678D01*
X34919838Y-37024724D01*
X35038812Y-36858524D01*
X35169093Y-36695322D01*
X35313395Y-36530364D01*
X35474430Y-36358895D01*
X35524261Y-36307666D01*
X35621872Y-36209694D01*
X35713740Y-36120653D01*
X35794358Y-36045637D01*
X35858216Y-35989738D01*
X35899808Y-35958049D01*
X35906331Y-35954387D01*
X35964387Y-35937423D01*
X36060505Y-35922354D01*
X36190450Y-35909366D01*
X36349985Y-35898648D01*
X36534874Y-35890386D01*
X36740881Y-35884768D01*
X36963769Y-35881982D01*
X37199303Y-35882214D01*
G37*
X37199303Y-35882214D02*
X37443246Y-35885653D01*
X37454416Y-35885888D01*
X38037842Y-35901483D01*
X38582280Y-35922724D01*
X39090732Y-35949876D01*
X39566198Y-35983208D01*
X40011682Y-36022985D01*
X40430185Y-36069475D01*
X40824709Y-36122943D01*
X41198256Y-36183656D01*
X41538099Y-36248632D01*
X41710766Y-36286462D01*
X41886014Y-36328984D01*
X42057947Y-36374408D01*
X42220667Y-36420943D01*
X42368275Y-36466800D01*
X42494874Y-36510187D01*
X42594566Y-36549315D01*
X42661453Y-36582392D01*
X42679683Y-36595171D01*
X42713141Y-36634457D01*
X42761908Y-36706248D01*
X42822805Y-36804964D01*
X42892653Y-36925027D01*
X42968273Y-37060858D01*
X43046486Y-37206877D01*
X43124113Y-37357507D01*
X43190262Y-37491190D01*
X43340612Y-37814255D01*
X43476628Y-38134343D01*
X43602699Y-38462867D01*
X43723215Y-38811241D01*
X43837765Y-39174973D01*
X43884155Y-39332379D01*
X43930687Y-39497404D01*
X43975840Y-39663961D01*
X44018088Y-39825965D01*
X44055910Y-39977330D01*
X44087783Y-40111972D01*
X44112182Y-40223804D01*
X44127584Y-40306740D01*
X44132500Y-40352485D01*
X44126131Y-40412473D01*
X44108252Y-40505622D01*
X44080701Y-40624919D01*
X44045319Y-40763350D01*
X44003945Y-40913905D01*
X43958418Y-41069570D01*
X43910578Y-41223332D01*
X43878554Y-41320590D01*
X43696380Y-41805697D01*
X43488624Y-42257401D01*
X43254974Y-42676265D01*
X42995115Y-43062851D01*
X42713410Y-43412422D01*
X42473325Y-43657570D01*
X42192098Y-43894941D01*
X41870269Y-44124146D01*
X41508380Y-44344796D01*
X41155060Y-44532658D01*
X40729727Y-44728251D01*
X40296316Y-44892989D01*
X39847888Y-45028972D01*
X39377508Y-45138301D01*
X38878237Y-45223077D01*
X38872583Y-45223877D01*
X38749066Y-45237375D01*
X38591779Y-45248481D01*
X38409224Y-45257102D01*
X38209902Y-45263146D01*
X38002313Y-45266521D01*
X37794960Y-45267133D01*
X37596344Y-45264890D01*
X37414965Y-45259701D01*
X37259325Y-45251471D01*
X37158083Y-45242528D01*
X36792837Y-45192808D01*
X36442662Y-45128281D01*
X36115322Y-45050656D01*
X35818578Y-44961641D01*
X35713652Y-44924517D01*
X35379184Y-44778008D01*
X35059767Y-44592991D01*
X34756701Y-44370995D01*
X34471288Y-44113550D01*
X34204828Y-43822187D01*
X33958624Y-43498435D01*
X33733976Y-43143824D01*
X33532185Y-42759884D01*
X33354552Y-42348146D01*
X33233430Y-42008134D01*
X33172187Y-41808972D01*
X33113791Y-41598696D01*
X33061699Y-41390883D01*
X33019367Y-41199113D01*
X32997022Y-41079487D01*
X32970321Y-40920584D01*
X33145205Y-40711500D01*
X33345350Y-40456242D01*
X33516797Y-40201080D01*
X33614027Y-40029120D01*
X36830159Y-40029120D01*
X36850091Y-40353337D01*
X36909329Y-40666580D01*
X37006450Y-40965821D01*
X37140033Y-41248032D01*
X37308652Y-41510185D01*
X37510887Y-41749255D01*
X37734841Y-41953835D01*
X37976132Y-42129431D01*
X38221144Y-42269171D01*
X38480607Y-42378949D01*
X38555083Y-42404397D01*
X38818683Y-42472312D01*
X39099570Y-42512208D01*
X39383990Y-42523082D01*
X39658192Y-42503930D01*
X39742843Y-42491068D01*
X40054577Y-42417623D01*
X40344513Y-42309119D01*
X40615641Y-42163996D01*
X40870952Y-41980693D01*
X41076600Y-41794856D01*
X41296996Y-41547852D01*
X41479958Y-41282710D01*
X41624716Y-41001392D01*
X41730497Y-40705857D01*
X41796529Y-40398068D01*
X41822039Y-40079984D01*
X41818962Y-39909750D01*
X41781915Y-39586257D01*
X41705925Y-39276101D01*
X41593029Y-38981996D01*
X41445265Y-38706661D01*
X41264669Y-38452811D01*
X41053279Y-38223162D01*
X40813132Y-38020433D01*
X40546265Y-37847338D01*
X40254714Y-37706595D01*
X40132000Y-37660091D01*
X39848200Y-37581700D01*
X39548905Y-37538208D01*
X39242661Y-37529670D01*
X38938015Y-37556143D01*
X38643515Y-37617681D01*
X38537870Y-37649667D01*
X38246654Y-37767643D01*
X37973602Y-37921522D01*
X37722017Y-38107892D01*
X37495201Y-38323340D01*
X37296454Y-38564453D01*
X37129079Y-38827818D01*
X36996376Y-39110022D01*
X36926261Y-39315639D01*
X36885309Y-39468706D01*
X36857306Y-39606071D01*
X36840181Y-39743111D01*
X36831864Y-39895200D01*
X36830159Y-40029120D01*
X33614027Y-40029120D01*
X33670028Y-39930078D01*
X33706961Y-39857497D01*
X33750745Y-39768557D01*
X33790572Y-39684510D01*
X33828524Y-39600090D01*
X33866683Y-39510033D01*
X33907129Y-39409074D01*
X33951945Y-39291947D01*
X34003212Y-39153387D01*
X34063010Y-38988130D01*
X34133422Y-38790910D01*
X34175799Y-38671500D01*
X34291566Y-38351171D01*
X34399654Y-38067126D01*
X34502775Y-37814609D01*
X34603641Y-37588865D01*
X34704965Y-37385140D01*
X34809460Y-37198678D01*
X34919838Y-37024724D01*
X35038812Y-36858524D01*
X35169093Y-36695322D01*
X35313395Y-36530364D01*
X35474430Y-36358895D01*
X35524261Y-36307666D01*
X35621872Y-36209694D01*
X35713740Y-36120653D01*
X35794358Y-36045637D01*
X35858216Y-35989738D01*
X35899808Y-35958049D01*
X35906331Y-35954387D01*
X35964387Y-35937423D01*
X36060505Y-35922354D01*
X36190450Y-35909366D01*
X36349985Y-35898648D01*
X36534874Y-35890386D01*
X36740881Y-35884768D01*
X36963769Y-35881982D01*
X37199303Y-35882214D01*
G36*
X56139505Y-35885470D02*
G01*
X56353303Y-35888975D01*
X56545963Y-35894688D01*
X56713419Y-35902512D01*
X56851601Y-35912349D01*
X56956442Y-35924101D01*
X57023874Y-35937670D01*
X57032599Y-35940625D01*
X57067664Y-35963716D01*
X57125978Y-36013006D01*
X57202390Y-36083301D01*
X57291749Y-36169409D01*
X57388903Y-36266134D01*
X57488702Y-36368284D01*
X57585995Y-36470664D01*
X57675629Y-36568080D01*
X57752455Y-36655340D01*
X57806166Y-36720610D01*
X57915820Y-36864880D01*
X58016149Y-37006566D01*
X58109292Y-37150076D01*
X58197387Y-37299817D01*
X58282574Y-37460194D01*
X58366992Y-37635616D01*
X58452779Y-37830489D01*
X58542075Y-38049220D01*
X58637018Y-38296215D01*
X58739749Y-38575883D01*
X58831256Y-38832560D01*
X58927331Y-39100637D01*
X59014387Y-39333427D01*
X59094987Y-39536357D01*
X59171695Y-39714860D01*
X59247074Y-39874364D01*
X59323689Y-40020299D01*
X59404102Y-40158095D01*
X59490877Y-40293182D01*
X59584676Y-40428333D01*
X59658421Y-40527885D01*
X59740076Y-40632616D01*
X59817486Y-40727157D01*
X59857589Y-40773434D01*
X59924053Y-40851500D01*
X59962716Y-40907440D01*
X59977363Y-40947313D01*
X59976699Y-40963934D01*
X59967487Y-41009708D01*
X59953952Y-41079607D01*
X59942995Y-41137416D01*
X59908525Y-41301525D01*
X59862763Y-41490871D01*
X59809563Y-41691162D01*
X59752777Y-41888104D01*
X59696261Y-42067403D01*
X59677022Y-42124018D01*
X59502301Y-42572238D01*
X59301011Y-42989130D01*
X59073568Y-43374092D01*
X58820391Y-43726517D01*
X58541897Y-44045803D01*
X58238504Y-44331344D01*
X58042325Y-44487994D01*
X57766416Y-44669945D01*
X57455416Y-44829013D01*
X57109988Y-44964983D01*
X56730792Y-45077642D01*
X56318489Y-45166778D01*
X55873741Y-45232177D01*
X55668333Y-45253343D01*
X55576306Y-45259397D01*
X55452355Y-45264312D01*
X55305629Y-45268030D01*
X55145275Y-45270492D01*
X54980439Y-45271637D01*
X54820270Y-45271407D01*
X54673915Y-45269743D01*
X54550521Y-45266585D01*
X54459235Y-45261873D01*
X54451250Y-45261233D01*
X53894817Y-45194392D01*
X53352760Y-45089315D01*
X52826932Y-44946522D01*
X52319182Y-44766533D01*
X51831362Y-44549870D01*
X51717161Y-44492319D01*
X51422999Y-44334010D01*
X51163234Y-44179490D01*
X50930847Y-44023788D01*
X50718818Y-43861931D01*
X50520127Y-43688946D01*
X50353280Y-43526169D01*
X50081706Y-43220195D01*
X49828920Y-42878257D01*
X49596254Y-42502960D01*
X49385044Y-42096909D01*
X49196621Y-41662707D01*
X49032320Y-41202960D01*
X48893474Y-40720272D01*
X48871641Y-40632607D01*
X48800305Y-40339464D01*
X48875838Y-40039588D01*
X51121725Y-40039588D01*
X51141691Y-40339050D01*
X51199831Y-40638528D01*
X51297562Y-40935045D01*
X51358740Y-41074998D01*
X51517345Y-41361994D01*
X51707700Y-41622817D01*
X51927051Y-41855332D01*
X52172645Y-42057403D01*
X52441729Y-42226893D01*
X52731548Y-42361667D01*
X53039351Y-42459589D01*
X53184536Y-42491353D01*
X53329395Y-42510018D01*
X53501908Y-42518571D01*
X53688768Y-42517481D01*
X53876668Y-42507219D01*
X54052302Y-42488255D01*
X54202362Y-42461059D01*
X54229000Y-42454446D01*
X54543572Y-42350675D01*
X54836711Y-42211279D01*
X55106286Y-42037995D01*
X55350166Y-41832559D01*
X55566217Y-41596711D01*
X55752310Y-41332187D01*
X55870824Y-41116250D01*
X55995290Y-40815182D01*
X56078670Y-40506744D01*
X56120968Y-40193769D01*
X56122183Y-39879087D01*
X56082318Y-39565530D01*
X56001373Y-39255929D01*
X55879350Y-38953117D01*
X55869815Y-38933363D01*
X55708222Y-38648977D01*
X55515058Y-38392050D01*
X55292254Y-38164158D01*
X55041739Y-37966880D01*
X54765444Y-37801792D01*
X54465298Y-37670472D01*
X54235628Y-37597748D01*
X54158266Y-37577771D01*
X54090383Y-37563177D01*
X54022898Y-37553132D01*
X53946731Y-37546804D01*
X53852803Y-37543359D01*
X53732032Y-37541962D01*
X53625750Y-37541757D01*
X53480578Y-37542210D01*
X53368655Y-37544123D01*
X53280900Y-37548331D01*
X53208233Y-37555667D01*
X53141574Y-37566964D01*
X53071843Y-37583057D01*
X53015871Y-37597748D01*
X52709544Y-37700606D01*
X52425789Y-37836218D01*
X52166023Y-38001608D01*
X51931665Y-38193799D01*
X51724134Y-38409817D01*
X51544847Y-38646683D01*
X51395223Y-38901423D01*
X51276681Y-39171059D01*
X51190638Y-39452617D01*
X51138513Y-39743118D01*
X51121725Y-40039588D01*
X48875838Y-40039588D01*
X48923734Y-39849440D01*
X49020228Y-39489161D01*
X49129062Y-39123396D01*
X49247641Y-38759291D01*
X49373367Y-38403993D01*
X49503644Y-38064646D01*
X49635876Y-37748396D01*
X49767468Y-37462390D01*
X49851650Y-37295666D01*
X49935875Y-37138525D01*
X50017415Y-36991688D01*
X50093165Y-36860390D01*
X50160017Y-36749868D01*
X50214865Y-36665358D01*
X50254601Y-36612096D01*
X50261960Y-36604126D01*
X50304374Y-36577004D01*
X50382218Y-36542405D01*
X50489643Y-36502220D01*
X50620795Y-36458340D01*
X50769824Y-36412659D01*
X50930876Y-36367066D01*
X51098101Y-36323455D01*
X51223333Y-36293350D01*
X51525575Y-36227814D01*
X51837199Y-36169010D01*
X52161811Y-36116571D01*
X52503016Y-36070134D01*
X52864420Y-36029333D01*
X53249631Y-35993803D01*
X53662254Y-35963179D01*
X54105895Y-35937096D01*
X54584161Y-35915190D01*
X55100657Y-35897095D01*
X55154297Y-35895488D01*
X55411966Y-35889182D01*
X55664768Y-35885476D01*
X55908637Y-35884271D01*
X56139505Y-35885470D01*
G37*
X56139505Y-35885470D02*
X56353303Y-35888975D01*
X56545963Y-35894688D01*
X56713419Y-35902512D01*
X56851601Y-35912349D01*
X56956442Y-35924101D01*
X57023874Y-35937670D01*
X57032599Y-35940625D01*
X57067664Y-35963716D01*
X57125978Y-36013006D01*
X57202390Y-36083301D01*
X57291749Y-36169409D01*
X57388903Y-36266134D01*
X57488702Y-36368284D01*
X57585995Y-36470664D01*
X57675629Y-36568080D01*
X57752455Y-36655340D01*
X57806166Y-36720610D01*
X57915820Y-36864880D01*
X58016149Y-37006566D01*
X58109292Y-37150076D01*
X58197387Y-37299817D01*
X58282574Y-37460194D01*
X58366992Y-37635616D01*
X58452779Y-37830489D01*
X58542075Y-38049220D01*
X58637018Y-38296215D01*
X58739749Y-38575883D01*
X58831256Y-38832560D01*
X58927331Y-39100637D01*
X59014387Y-39333427D01*
X59094987Y-39536357D01*
X59171695Y-39714860D01*
X59247074Y-39874364D01*
X59323689Y-40020299D01*
X59404102Y-40158095D01*
X59490877Y-40293182D01*
X59584676Y-40428333D01*
X59658421Y-40527885D01*
X59740076Y-40632616D01*
X59817486Y-40727157D01*
X59857589Y-40773434D01*
X59924053Y-40851500D01*
X59962716Y-40907440D01*
X59977363Y-40947313D01*
X59976699Y-40963934D01*
X59967487Y-41009708D01*
X59953952Y-41079607D01*
X59942995Y-41137416D01*
X59908525Y-41301525D01*
X59862763Y-41490871D01*
X59809563Y-41691162D01*
X59752777Y-41888104D01*
X59696261Y-42067403D01*
X59677022Y-42124018D01*
X59502301Y-42572238D01*
X59301011Y-42989130D01*
X59073568Y-43374092D01*
X58820391Y-43726517D01*
X58541897Y-44045803D01*
X58238504Y-44331344D01*
X58042325Y-44487994D01*
X57766416Y-44669945D01*
X57455416Y-44829013D01*
X57109988Y-44964983D01*
X56730792Y-45077642D01*
X56318489Y-45166778D01*
X55873741Y-45232177D01*
X55668333Y-45253343D01*
X55576306Y-45259397D01*
X55452355Y-45264312D01*
X55305629Y-45268030D01*
X55145275Y-45270492D01*
X54980439Y-45271637D01*
X54820270Y-45271407D01*
X54673915Y-45269743D01*
X54550521Y-45266585D01*
X54459235Y-45261873D01*
X54451250Y-45261233D01*
X53894817Y-45194392D01*
X53352760Y-45089315D01*
X52826932Y-44946522D01*
X52319182Y-44766533D01*
X51831362Y-44549870D01*
X51717161Y-44492319D01*
X51422999Y-44334010D01*
X51163234Y-44179490D01*
X50930847Y-44023788D01*
X50718818Y-43861931D01*
X50520127Y-43688946D01*
X50353280Y-43526169D01*
X50081706Y-43220195D01*
X49828920Y-42878257D01*
X49596254Y-42502960D01*
X49385044Y-42096909D01*
X49196621Y-41662707D01*
X49032320Y-41202960D01*
X48893474Y-40720272D01*
X48871641Y-40632607D01*
X48800305Y-40339464D01*
X48875838Y-40039588D01*
X51121725Y-40039588D01*
X51141691Y-40339050D01*
X51199831Y-40638528D01*
X51297562Y-40935045D01*
X51358740Y-41074998D01*
X51517345Y-41361994D01*
X51707700Y-41622817D01*
X51927051Y-41855332D01*
X52172645Y-42057403D01*
X52441729Y-42226893D01*
X52731548Y-42361667D01*
X53039351Y-42459589D01*
X53184536Y-42491353D01*
X53329395Y-42510018D01*
X53501908Y-42518571D01*
X53688768Y-42517481D01*
X53876668Y-42507219D01*
X54052302Y-42488255D01*
X54202362Y-42461059D01*
X54229000Y-42454446D01*
X54543572Y-42350675D01*
X54836711Y-42211279D01*
X55106286Y-42037995D01*
X55350166Y-41832559D01*
X55566217Y-41596711D01*
X55752310Y-41332187D01*
X55870824Y-41116250D01*
X55995290Y-40815182D01*
X56078670Y-40506744D01*
X56120968Y-40193769D01*
X56122183Y-39879087D01*
X56082318Y-39565530D01*
X56001373Y-39255929D01*
X55879350Y-38953117D01*
X55869815Y-38933363D01*
X55708222Y-38648977D01*
X55515058Y-38392050D01*
X55292254Y-38164158D01*
X55041739Y-37966880D01*
X54765444Y-37801792D01*
X54465298Y-37670472D01*
X54235628Y-37597748D01*
X54158266Y-37577771D01*
X54090383Y-37563177D01*
X54022898Y-37553132D01*
X53946731Y-37546804D01*
X53852803Y-37543359D01*
X53732032Y-37541962D01*
X53625750Y-37541757D01*
X53480578Y-37542210D01*
X53368655Y-37544123D01*
X53280900Y-37548331D01*
X53208233Y-37555667D01*
X53141574Y-37566964D01*
X53071843Y-37583057D01*
X53015871Y-37597748D01*
X52709544Y-37700606D01*
X52425789Y-37836218D01*
X52166023Y-38001608D01*
X51931665Y-38193799D01*
X51724134Y-38409817D01*
X51544847Y-38646683D01*
X51395223Y-38901423D01*
X51276681Y-39171059D01*
X51190638Y-39452617D01*
X51138513Y-39743118D01*
X51121725Y-40039588D01*
X48875838Y-40039588D01*
X48923734Y-39849440D01*
X49020228Y-39489161D01*
X49129062Y-39123396D01*
X49247641Y-38759291D01*
X49373367Y-38403993D01*
X49503644Y-38064646D01*
X49635876Y-37748396D01*
X49767468Y-37462390D01*
X49851650Y-37295666D01*
X49935875Y-37138525D01*
X50017415Y-36991688D01*
X50093165Y-36860390D01*
X50160017Y-36749868D01*
X50214865Y-36665358D01*
X50254601Y-36612096D01*
X50261960Y-36604126D01*
X50304374Y-36577004D01*
X50382218Y-36542405D01*
X50489643Y-36502220D01*
X50620795Y-36458340D01*
X50769824Y-36412659D01*
X50930876Y-36367066D01*
X51098101Y-36323455D01*
X51223333Y-36293350D01*
X51525575Y-36227814D01*
X51837199Y-36169010D01*
X52161811Y-36116571D01*
X52503016Y-36070134D01*
X52864420Y-36029333D01*
X53249631Y-35993803D01*
X53662254Y-35963179D01*
X54105895Y-35937096D01*
X54584161Y-35915190D01*
X55100657Y-35897095D01*
X55154297Y-35895488D01*
X55411966Y-35889182D01*
X55664768Y-35885476D01*
X55908637Y-35884271D01*
X56139505Y-35885470D01*
G36*
X32236265Y-41649853D02*
G01*
X32249232Y-41677726D01*
X32269050Y-41733416D01*
X32287992Y-41793583D01*
X32374220Y-42050009D01*
X32485233Y-42328293D01*
X32616609Y-42619650D01*
X32763923Y-42915297D01*
X32922751Y-43206449D01*
X33088671Y-43484322D01*
X33257259Y-43740131D01*
X33295568Y-43794394D01*
X33394280Y-43930109D01*
X33483766Y-44047435D01*
X33571806Y-44155543D01*
X33666185Y-44263605D01*
X33774685Y-44380794D01*
X33905088Y-44516282D01*
X33928200Y-44539958D01*
X34008557Y-44622665D01*
X34076557Y-44693629D01*
X34127537Y-44747901D01*
X34156831Y-44780532D01*
X34161873Y-44787849D01*
X34139559Y-44780545D01*
X34085519Y-44761206D01*
X34007651Y-44732698D01*
X33913851Y-44697889D01*
X33905256Y-44694679D01*
X33545647Y-44546738D01*
X33217321Y-44383763D01*
X32921874Y-44206978D01*
X32660900Y-44017607D01*
X32435990Y-43816875D01*
X32248740Y-43606006D01*
X32100743Y-43386223D01*
X32034768Y-43257887D01*
X31955095Y-43037237D01*
X31909435Y-42803162D01*
X31897715Y-42563770D01*
X31919857Y-42327170D01*
X31975788Y-42101472D01*
X32047141Y-41929565D01*
X32103161Y-41823905D01*
X32153595Y-41738842D01*
X32195176Y-41679212D01*
X32224635Y-41649847D01*
X32236265Y-41649853D01*
G37*
X32236265Y-41649853D02*
X32249232Y-41677726D01*
X32269050Y-41733416D01*
X32287992Y-41793583D01*
X32374220Y-42050009D01*
X32485233Y-42328293D01*
X32616609Y-42619650D01*
X32763923Y-42915297D01*
X32922751Y-43206449D01*
X33088671Y-43484322D01*
X33257259Y-43740131D01*
X33295568Y-43794394D01*
X33394280Y-43930109D01*
X33483766Y-44047435D01*
X33571806Y-44155543D01*
X33666185Y-44263605D01*
X33774685Y-44380794D01*
X33905088Y-44516282D01*
X33928200Y-44539958D01*
X34008557Y-44622665D01*
X34076557Y-44693629D01*
X34127537Y-44747901D01*
X34156831Y-44780532D01*
X34161873Y-44787849D01*
X34139559Y-44780545D01*
X34085519Y-44761206D01*
X34007651Y-44732698D01*
X33913851Y-44697889D01*
X33905256Y-44694679D01*
X33545647Y-44546738D01*
X33217321Y-44383763D01*
X32921874Y-44206978D01*
X32660900Y-44017607D01*
X32435990Y-43816875D01*
X32248740Y-43606006D01*
X32100743Y-43386223D01*
X32034768Y-43257887D01*
X31955095Y-43037237D01*
X31909435Y-42803162D01*
X31897715Y-42563770D01*
X31919857Y-42327170D01*
X31975788Y-42101472D01*
X32047141Y-41929565D01*
X32103161Y-41823905D01*
X32153595Y-41738842D01*
X32195176Y-41679212D01*
X32224635Y-41649847D01*
X32236265Y-41649853D01*
G36*
X60762094Y-41687969D02*
G01*
X60813004Y-41762937D01*
X60869070Y-41865829D01*
X60924342Y-41983717D01*
X60972871Y-42103676D01*
X61008706Y-42212777D01*
X61015286Y-42238083D01*
X61035121Y-42350608D01*
X61047788Y-42487280D01*
X61051609Y-42608500D01*
X61031449Y-42859076D01*
X60970392Y-43102115D01*
X60869355Y-43336703D01*
X60729253Y-43561926D01*
X60551001Y-43776871D01*
X60335516Y-43980622D01*
X60083713Y-44172267D01*
X59796507Y-44350891D01*
X59474814Y-44515581D01*
X59119551Y-44665422D01*
X58917416Y-44738692D01*
X58769250Y-44789586D01*
X59025277Y-44529835D01*
X59289065Y-44248727D01*
X59524779Y-43967422D01*
X59738666Y-43677011D01*
X59936970Y-43368588D01*
X60125938Y-43033244D01*
X60261126Y-42767250D01*
X60330196Y-42620939D01*
X60401915Y-42460248D01*
X60472861Y-42293629D01*
X60539613Y-42129534D01*
X60598747Y-41976418D01*
X60646843Y-41842732D01*
X60680478Y-41736929D01*
X60685205Y-41719719D01*
X60710363Y-41624689D01*
X60762094Y-41687969D01*
G37*
X60762094Y-41687969D02*
X60813004Y-41762937D01*
X60869070Y-41865829D01*
X60924342Y-41983717D01*
X60972871Y-42103676D01*
X61008706Y-42212777D01*
X61015286Y-42238083D01*
X61035121Y-42350608D01*
X61047788Y-42487280D01*
X61051609Y-42608500D01*
X61031449Y-42859076D01*
X60970392Y-43102115D01*
X60869355Y-43336703D01*
X60729253Y-43561926D01*
X60551001Y-43776871D01*
X60335516Y-43980622D01*
X60083713Y-44172267D01*
X59796507Y-44350891D01*
X59474814Y-44515581D01*
X59119551Y-44665422D01*
X58917416Y-44738692D01*
X58769250Y-44789586D01*
X59025277Y-44529835D01*
X59289065Y-44248727D01*
X59524779Y-43967422D01*
X59738666Y-43677011D01*
X59936970Y-43368588D01*
X60125938Y-43033244D01*
X60261126Y-42767250D01*
X60330196Y-42620939D01*
X60401915Y-42460248D01*
X60472861Y-42293629D01*
X60539613Y-42129534D01*
X60598747Y-41976418D01*
X60646843Y-41842732D01*
X60680478Y-41736929D01*
X60685205Y-41719719D01*
X60710363Y-41624689D01*
X60762094Y-41687969D01*
G36*
X46568156Y-39481668D02*
G01*
X46682097Y-39497732D01*
X46816436Y-39521859D01*
X46961134Y-39551886D01*
X47106152Y-39585649D01*
X47241448Y-39620982D01*
X47356984Y-39655722D01*
X47415568Y-39676508D01*
X47439310Y-39675256D01*
X47459155Y-39645523D01*
X47477659Y-39589299D01*
X47505765Y-39488915D01*
X47542575Y-39593499D01*
X47569135Y-39676364D01*
X47579458Y-39735081D01*
X47574817Y-39784042D01*
X47562781Y-39821712D01*
X47542896Y-39874013D01*
X47314073Y-39802051D01*
X47062951Y-39728702D01*
X46839077Y-39677138D01*
X46633352Y-39647441D01*
X46436677Y-39639693D01*
X46239954Y-39653976D01*
X46034084Y-39690372D01*
X45809967Y-39748963D01*
X45594514Y-39817565D01*
X45514784Y-39844355D01*
X45452276Y-39865056D01*
X45416281Y-39876604D01*
X45411183Y-39878000D01*
X45401965Y-39860388D01*
X45385541Y-39817428D01*
X45383582Y-39811852D01*
X45372215Y-39757548D01*
X45377691Y-39695026D01*
X45393675Y-39631664D01*
X45414711Y-39571985D01*
X45434833Y-39535573D01*
X45446414Y-39529727D01*
X45465507Y-39555939D01*
X45466000Y-39560371D01*
X45472924Y-39592735D01*
X45485462Y-39630100D01*
X45504924Y-39681289D01*
X45744753Y-39612598D01*
X45910520Y-39568774D01*
X46077178Y-39531315D01*
X46234606Y-39502093D01*
X46372680Y-39482978D01*
X46481279Y-39475843D01*
X46484655Y-39475833D01*
X46568156Y-39481668D01*
G37*
X46568156Y-39481668D02*
X46682097Y-39497732D01*
X46816436Y-39521859D01*
X46961134Y-39551886D01*
X47106152Y-39585649D01*
X47241448Y-39620982D01*
X47356984Y-39655722D01*
X47415568Y-39676508D01*
X47439310Y-39675256D01*
X47459155Y-39645523D01*
X47477659Y-39589299D01*
X47505765Y-39488915D01*
X47542575Y-39593499D01*
X47569135Y-39676364D01*
X47579458Y-39735081D01*
X47574817Y-39784042D01*
X47562781Y-39821712D01*
X47542896Y-39874013D01*
X47314073Y-39802051D01*
X47062951Y-39728702D01*
X46839077Y-39677138D01*
X46633352Y-39647441D01*
X46436677Y-39639693D01*
X46239954Y-39653976D01*
X46034084Y-39690372D01*
X45809967Y-39748963D01*
X45594514Y-39817565D01*
X45514784Y-39844355D01*
X45452276Y-39865056D01*
X45416281Y-39876604D01*
X45411183Y-39878000D01*
X45401965Y-39860388D01*
X45385541Y-39817428D01*
X45383582Y-39811852D01*
X45372215Y-39757548D01*
X45377691Y-39695026D01*
X45393675Y-39631664D01*
X45414711Y-39571985D01*
X45434833Y-39535573D01*
X45446414Y-39529727D01*
X45465507Y-39555939D01*
X45466000Y-39560371D01*
X45472924Y-39592735D01*
X45485462Y-39630100D01*
X45504924Y-39681289D01*
X45744753Y-39612598D01*
X45910520Y-39568774D01*
X46077178Y-39531315D01*
X46234606Y-39502093D01*
X46372680Y-39482978D01*
X46481279Y-39475843D01*
X46484655Y-39475833D01*
X46568156Y-39481668D01*
G36*
X34349362Y-36316518D02*
G01*
X34326106Y-36356176D01*
X34284206Y-36414242D01*
X34252561Y-36454291D01*
X34143794Y-36590715D01*
X34050844Y-36712753D01*
X33976342Y-36816649D01*
X33922917Y-36898644D01*
X33893199Y-36954980D01*
X33887833Y-36975502D01*
X33875826Y-37025653D01*
X33842859Y-37101253D01*
X33793513Y-37193991D01*
X33732371Y-37295555D01*
X33664014Y-37397636D01*
X33627653Y-37447479D01*
X33556775Y-37536964D01*
X33464042Y-37647393D01*
X33357503Y-37769745D01*
X33245204Y-37895000D01*
X33135194Y-38014135D01*
X33035521Y-38118130D01*
X32980139Y-38173287D01*
X32871833Y-38278325D01*
X32873321Y-38194454D01*
X32877817Y-38131207D01*
X32887009Y-38082390D01*
X32889196Y-38076254D01*
X32907663Y-38049852D01*
X32949835Y-37998175D01*
X33010721Y-37927072D01*
X33085331Y-37842391D01*
X33151060Y-37769338D01*
X33310763Y-37590190D01*
X33441644Y-37435288D01*
X33546183Y-37300376D01*
X33626859Y-37181198D01*
X33686150Y-37073495D01*
X33726536Y-36973013D01*
X33750495Y-36875493D01*
X33760506Y-36776680D01*
X33760998Y-36721963D01*
X33762074Y-36651273D01*
X33771615Y-36608972D01*
X33794195Y-36581294D01*
X33812007Y-36568505D01*
X33856833Y-36541109D01*
X33879111Y-36539847D01*
X33891587Y-36567477D01*
X33896582Y-36586811D01*
X33905011Y-36613120D01*
X33917090Y-36619090D01*
X33939533Y-36600963D01*
X33979054Y-36554984D01*
X34000620Y-36528603D01*
X34065664Y-36462112D01*
X34146330Y-36398597D01*
X34230760Y-36345752D01*
X34307093Y-36311272D01*
X34349567Y-36302174D01*
X34349362Y-36316518D01*
G37*
X34349362Y-36316518D02*
X34326106Y-36356176D01*
X34284206Y-36414242D01*
X34252561Y-36454291D01*
X34143794Y-36590715D01*
X34050844Y-36712753D01*
X33976342Y-36816649D01*
X33922917Y-36898644D01*
X33893199Y-36954980D01*
X33887833Y-36975502D01*
X33875826Y-37025653D01*
X33842859Y-37101253D01*
X33793513Y-37193991D01*
X33732371Y-37295555D01*
X33664014Y-37397636D01*
X33627653Y-37447479D01*
X33556775Y-37536964D01*
X33464042Y-37647393D01*
X33357503Y-37769745D01*
X33245204Y-37895000D01*
X33135194Y-38014135D01*
X33035521Y-38118130D01*
X32980139Y-38173287D01*
X32871833Y-38278325D01*
X32873321Y-38194454D01*
X32877817Y-38131207D01*
X32887009Y-38082390D01*
X32889196Y-38076254D01*
X32907663Y-38049852D01*
X32949835Y-37998175D01*
X33010721Y-37927072D01*
X33085331Y-37842391D01*
X33151060Y-37769338D01*
X33310763Y-37590190D01*
X33441644Y-37435288D01*
X33546183Y-37300376D01*
X33626859Y-37181198D01*
X33686150Y-37073495D01*
X33726536Y-36973013D01*
X33750495Y-36875493D01*
X33760506Y-36776680D01*
X33760998Y-36721963D01*
X33762074Y-36651273D01*
X33771615Y-36608972D01*
X33794195Y-36581294D01*
X33812007Y-36568505D01*
X33856833Y-36541109D01*
X33879111Y-36539847D01*
X33891587Y-36567477D01*
X33896582Y-36586811D01*
X33905011Y-36613120D01*
X33917090Y-36619090D01*
X33939533Y-36600963D01*
X33979054Y-36554984D01*
X34000620Y-36528603D01*
X34065664Y-36462112D01*
X34146330Y-36398597D01*
X34230760Y-36345752D01*
X34307093Y-36311272D01*
X34349567Y-36302174D01*
X34349362Y-36316518D01*
G36*
X58618130Y-36311756D02*
G01*
X58668176Y-36328803D01*
X58734018Y-36355612D01*
X58810202Y-36393371D01*
X58870697Y-36437456D01*
X58929729Y-36499571D01*
X58969734Y-36549547D01*
X59021802Y-36616270D01*
X59053332Y-36652802D01*
X59069471Y-36662605D01*
X59075366Y-36649142D01*
X59076166Y-36621124D01*
X59082459Y-36572217D01*
X59105121Y-36557505D01*
X59149824Y-36575213D01*
X59174289Y-36590412D01*
X59201862Y-36610758D01*
X59216901Y-36633813D01*
X59221677Y-36670603D01*
X59218459Y-36732155D01*
X59213896Y-36782788D01*
X59207522Y-36867319D01*
X59209674Y-36927504D01*
X59223429Y-36980983D01*
X59251859Y-37045389D01*
X59263970Y-37070001D01*
X59340220Y-37202186D01*
X59447134Y-37355056D01*
X59581290Y-37524190D01*
X59739266Y-37705170D01*
X59837389Y-37810601D01*
X60071000Y-38056204D01*
X60071000Y-38162768D01*
X60069387Y-38223400D01*
X60065262Y-38262000D01*
X60061983Y-38269333D01*
X60045432Y-38254591D01*
X60004749Y-38213560D01*
X59944544Y-38151029D01*
X59869427Y-38071790D01*
X59784009Y-37980633D01*
X59779898Y-37976222D01*
X59680764Y-37868107D01*
X59579913Y-37755136D01*
X59485675Y-37646846D01*
X59406381Y-37552772D01*
X59363318Y-37499323D01*
X59294732Y-37406090D01*
X59226962Y-37304503D01*
X59164611Y-37202557D01*
X59112282Y-37108247D01*
X59074579Y-37029568D01*
X59056104Y-36974515D01*
X59055000Y-36963840D01*
X59041717Y-36927759D01*
X59003920Y-36863992D01*
X58944688Y-36776960D01*
X58867099Y-36671084D01*
X58774229Y-36550784D01*
X58720802Y-36483848D01*
X58665525Y-36413478D01*
X58623191Y-36355979D01*
X58599036Y-36318688D01*
X58595699Y-36308578D01*
X58618130Y-36311756D01*
G37*
X58618130Y-36311756D02*
X58668176Y-36328803D01*
X58734018Y-36355612D01*
X58810202Y-36393371D01*
X58870697Y-36437456D01*
X58929729Y-36499571D01*
X58969734Y-36549547D01*
X59021802Y-36616270D01*
X59053332Y-36652802D01*
X59069471Y-36662605D01*
X59075366Y-36649142D01*
X59076166Y-36621124D01*
X59082459Y-36572217D01*
X59105121Y-36557505D01*
X59149824Y-36575213D01*
X59174289Y-36590412D01*
X59201862Y-36610758D01*
X59216901Y-36633813D01*
X59221677Y-36670603D01*
X59218459Y-36732155D01*
X59213896Y-36782788D01*
X59207522Y-36867319D01*
X59209674Y-36927504D01*
X59223429Y-36980983D01*
X59251859Y-37045389D01*
X59263970Y-37070001D01*
X59340220Y-37202186D01*
X59447134Y-37355056D01*
X59581290Y-37524190D01*
X59739266Y-37705170D01*
X59837389Y-37810601D01*
X60071000Y-38056204D01*
X60071000Y-38162768D01*
X60069387Y-38223400D01*
X60065262Y-38262000D01*
X60061983Y-38269333D01*
X60045432Y-38254591D01*
X60004749Y-38213560D01*
X59944544Y-38151029D01*
X59869427Y-38071790D01*
X59784009Y-37980633D01*
X59779898Y-37976222D01*
X59680764Y-37868107D01*
X59579913Y-37755136D01*
X59485675Y-37646846D01*
X59406381Y-37552772D01*
X59363318Y-37499323D01*
X59294732Y-37406090D01*
X59226962Y-37304503D01*
X59164611Y-37202557D01*
X59112282Y-37108247D01*
X59074579Y-37029568D01*
X59056104Y-36974515D01*
X59055000Y-36963840D01*
X59041717Y-36927759D01*
X59003920Y-36863992D01*
X58944688Y-36776960D01*
X58867099Y-36671084D01*
X58774229Y-36550784D01*
X58720802Y-36483848D01*
X58665525Y-36413478D01*
X58623191Y-36355979D01*
X58599036Y-36318688D01*
X58595699Y-36308578D01*
X58618130Y-36311756D01*
G36*
X39887730Y-33327116D02*
G01*
X40297223Y-33370412D01*
X40696416Y-33454179D01*
X41088000Y-33578993D01*
X41474664Y-33745428D01*
X41501821Y-33758754D01*
X41852495Y-33950760D01*
X42189108Y-34173537D01*
X42514232Y-34429313D01*
X42830442Y-34720314D01*
X43140312Y-35048768D01*
X43446415Y-35416901D01*
X43504125Y-35491208D01*
X43555189Y-35560288D01*
X43577219Y-35600888D01*
X43568541Y-35616831D01*
X43527481Y-35611941D01*
X43459821Y-35592379D01*
X43389320Y-35559497D01*
X43331003Y-35514045D01*
X43322238Y-35503931D01*
X43011442Y-35132375D01*
X42686916Y-34795407D01*
X42350597Y-34494697D01*
X42004420Y-34231916D01*
X41650322Y-34008737D01*
X41489057Y-33921747D01*
X41230730Y-33798760D01*
X40977749Y-33698387D01*
X40716932Y-33616252D01*
X40435097Y-33547978D01*
X40259000Y-33513406D01*
X40127821Y-33495687D01*
X39965165Y-33483349D01*
X39781545Y-33476384D01*
X39587473Y-33474783D01*
X39393460Y-33478536D01*
X39210019Y-33487636D01*
X39047662Y-33502073D01*
X38957250Y-33514506D01*
X38515765Y-33603458D01*
X38085116Y-33723877D01*
X37660731Y-33877606D01*
X37238038Y-34066488D01*
X36812466Y-34292367D01*
X36392392Y-34548687D01*
X36291386Y-34613722D01*
X36217851Y-34659030D01*
X36163782Y-34687982D01*
X36121172Y-34703950D01*
X36082018Y-34710306D01*
X36038313Y-34710420D01*
X36011392Y-34709145D01*
X35888083Y-34702750D01*
X36226750Y-34478611D01*
X36564111Y-34263624D01*
X36883594Y-34077927D01*
X37193365Y-33917434D01*
X37501591Y-33778062D01*
X37816437Y-33655726D01*
X37994166Y-33594623D01*
X38327836Y-33493824D01*
X38643412Y-33418440D01*
X38954607Y-33365944D01*
X39275130Y-33333813D01*
X39465250Y-33323719D01*
X39887730Y-33327116D01*
G37*
X39887730Y-33327116D02*
X40297223Y-33370412D01*
X40696416Y-33454179D01*
X41088000Y-33578993D01*
X41474664Y-33745428D01*
X41501821Y-33758754D01*
X41852495Y-33950760D01*
X42189108Y-34173537D01*
X42514232Y-34429313D01*
X42830442Y-34720314D01*
X43140312Y-35048768D01*
X43446415Y-35416901D01*
X43504125Y-35491208D01*
X43555189Y-35560288D01*
X43577219Y-35600888D01*
X43568541Y-35616831D01*
X43527481Y-35611941D01*
X43459821Y-35592379D01*
X43389320Y-35559497D01*
X43331003Y-35514045D01*
X43322238Y-35503931D01*
X43011442Y-35132375D01*
X42686916Y-34795407D01*
X42350597Y-34494697D01*
X42004420Y-34231916D01*
X41650322Y-34008737D01*
X41489057Y-33921747D01*
X41230730Y-33798760D01*
X40977749Y-33698387D01*
X40716932Y-33616252D01*
X40435097Y-33547978D01*
X40259000Y-33513406D01*
X40127821Y-33495687D01*
X39965165Y-33483349D01*
X39781545Y-33476384D01*
X39587473Y-33474783D01*
X39393460Y-33478536D01*
X39210019Y-33487636D01*
X39047662Y-33502073D01*
X38957250Y-33514506D01*
X38515765Y-33603458D01*
X38085116Y-33723877D01*
X37660731Y-33877606D01*
X37238038Y-34066488D01*
X36812466Y-34292367D01*
X36392392Y-34548687D01*
X36291386Y-34613722D01*
X36217851Y-34659030D01*
X36163782Y-34687982D01*
X36121172Y-34703950D01*
X36082018Y-34710306D01*
X36038313Y-34710420D01*
X36011392Y-34709145D01*
X35888083Y-34702750D01*
X36226750Y-34478611D01*
X36564111Y-34263624D01*
X36883594Y-34077927D01*
X37193365Y-33917434D01*
X37501591Y-33778062D01*
X37816437Y-33655726D01*
X37994166Y-33594623D01*
X38327836Y-33493824D01*
X38643412Y-33418440D01*
X38954607Y-33365944D01*
X39275130Y-33333813D01*
X39465250Y-33323719D01*
X39887730Y-33327116D01*
G36*
X53736972Y-33334921D02*
G01*
X54179783Y-33394263D01*
X54598192Y-33486183D01*
X54940489Y-33588895D01*
X55299700Y-33722397D01*
X55668171Y-33883002D01*
X56038250Y-34067025D01*
X56402282Y-34270780D01*
X56752616Y-34490581D01*
X56916636Y-34602796D01*
X57073528Y-34713333D01*
X56943490Y-34713333D01*
X56889309Y-34712294D01*
X56844610Y-34706716D01*
X56800597Y-34692909D01*
X56748472Y-34667184D01*
X56679437Y-34625850D01*
X56584694Y-34565217D01*
X56574268Y-34558469D01*
X56118134Y-34282086D01*
X55665753Y-34045822D01*
X55217742Y-33849761D01*
X54774717Y-33693989D01*
X54337295Y-33578591D01*
X53906092Y-33503653D01*
X53481725Y-33469260D01*
X53064810Y-33475499D01*
X52655965Y-33522454D01*
X52255806Y-33610210D01*
X51864949Y-33738854D01*
X51572583Y-33864935D01*
X51321457Y-33992859D01*
X51089449Y-34129180D01*
X50868492Y-34279760D01*
X50650520Y-34450462D01*
X50427467Y-34647147D01*
X50216432Y-34850502D01*
X50106157Y-34962377D01*
X49995544Y-35078075D01*
X49891898Y-35189702D01*
X49802523Y-35289366D01*
X49734723Y-35369175D01*
X49723783Y-35382833D01*
X49641583Y-35482238D01*
X49578078Y-35547892D01*
X49530480Y-35582527D01*
X49513601Y-35588699D01*
X49450782Y-35603617D01*
X49408291Y-35614875D01*
X49371842Y-35619731D01*
X49360666Y-35613017D01*
X49373050Y-35591474D01*
X49406904Y-35543602D01*
X49457276Y-35476153D01*
X49519220Y-35395875D01*
X49529312Y-35383006D01*
X49856817Y-34993989D01*
X50196103Y-34645245D01*
X50546911Y-34336873D01*
X50908980Y-34068969D01*
X51282051Y-33841631D01*
X51665864Y-33654955D01*
X52060159Y-33509040D01*
X52464678Y-33403981D01*
X52879159Y-33339877D01*
X53303343Y-33316825D01*
X53736972Y-33334921D01*
G37*
X53736972Y-33334921D02*
X54179783Y-33394263D01*
X54598192Y-33486183D01*
X54940489Y-33588895D01*
X55299700Y-33722397D01*
X55668171Y-33883002D01*
X56038250Y-34067025D01*
X56402282Y-34270780D01*
X56752616Y-34490581D01*
X56916636Y-34602796D01*
X57073528Y-34713333D01*
X56943490Y-34713333D01*
X56889309Y-34712294D01*
X56844610Y-34706716D01*
X56800597Y-34692909D01*
X56748472Y-34667184D01*
X56679437Y-34625850D01*
X56584694Y-34565217D01*
X56574268Y-34558469D01*
X56118134Y-34282086D01*
X55665753Y-34045822D01*
X55217742Y-33849761D01*
X54774717Y-33693989D01*
X54337295Y-33578591D01*
X53906092Y-33503653D01*
X53481725Y-33469260D01*
X53064810Y-33475499D01*
X52655965Y-33522454D01*
X52255806Y-33610210D01*
X51864949Y-33738854D01*
X51572583Y-33864935D01*
X51321457Y-33992859D01*
X51089449Y-34129180D01*
X50868492Y-34279760D01*
X50650520Y-34450462D01*
X50427467Y-34647147D01*
X50216432Y-34850502D01*
X50106157Y-34962377D01*
X49995544Y-35078075D01*
X49891898Y-35189702D01*
X49802523Y-35289366D01*
X49734723Y-35369175D01*
X49723783Y-35382833D01*
X49641583Y-35482238D01*
X49578078Y-35547892D01*
X49530480Y-35582527D01*
X49513601Y-35588699D01*
X49450782Y-35603617D01*
X49408291Y-35614875D01*
X49371842Y-35619731D01*
X49360666Y-35613017D01*
X49373050Y-35591474D01*
X49406904Y-35543602D01*
X49457276Y-35476153D01*
X49519220Y-35395875D01*
X49529312Y-35383006D01*
X49856817Y-34993989D01*
X50196103Y-34645245D01*
X50546911Y-34336873D01*
X50908980Y-34068969D01*
X51282051Y-33841631D01*
X51665864Y-33654955D01*
X52060159Y-33509040D01*
X52464678Y-33403981D01*
X52879159Y-33339877D01*
X53303343Y-33316825D01*
X53736972Y-33334921D01*
G36*
X39397791Y-34558545D02*
G01*
X39582732Y-34564688D01*
X39748690Y-34576897D01*
X39878000Y-34594108D01*
X40189548Y-34661687D01*
X40489527Y-34750452D01*
X40768653Y-34857206D01*
X41017643Y-34978753D01*
X41052750Y-34998600D01*
X41104033Y-35029019D01*
X41134676Y-35050562D01*
X41141485Y-35063458D01*
X41121262Y-35067935D01*
X41070812Y-35064221D01*
X40986939Y-35052546D01*
X40866448Y-35033137D01*
X40777583Y-35018267D01*
X40512415Y-34976605D01*
X40213978Y-34934939D01*
X39891324Y-34894289D01*
X39553505Y-34855676D01*
X39209572Y-34820122D01*
X38868578Y-34788645D01*
X38539574Y-34762267D01*
X38450785Y-34755931D01*
X38339858Y-34747760D01*
X38244833Y-34739837D01*
X38173279Y-34732864D01*
X38132765Y-34727547D01*
X38126565Y-34725787D01*
X38141129Y-34717181D01*
X38189922Y-34702509D01*
X38265556Y-34683453D01*
X38360640Y-34661696D01*
X38467786Y-34638918D01*
X38579604Y-34616801D01*
X38688705Y-34597026D01*
X38703250Y-34594556D01*
X38846596Y-34576475D01*
X39017970Y-34564444D01*
X39205620Y-34558465D01*
X39397791Y-34558545D01*
G37*
X39397791Y-34558545D02*
X39582732Y-34564688D01*
X39748690Y-34576897D01*
X39878000Y-34594108D01*
X40189548Y-34661687D01*
X40489527Y-34750452D01*
X40768653Y-34857206D01*
X41017643Y-34978753D01*
X41052750Y-34998600D01*
X41104033Y-35029019D01*
X41134676Y-35050562D01*
X41141485Y-35063458D01*
X41121262Y-35067935D01*
X41070812Y-35064221D01*
X40986939Y-35052546D01*
X40866448Y-35033137D01*
X40777583Y-35018267D01*
X40512415Y-34976605D01*
X40213978Y-34934939D01*
X39891324Y-34894289D01*
X39553505Y-34855676D01*
X39209572Y-34820122D01*
X38868578Y-34788645D01*
X38539574Y-34762267D01*
X38450785Y-34755931D01*
X38339858Y-34747760D01*
X38244833Y-34739837D01*
X38173279Y-34732864D01*
X38132765Y-34727547D01*
X38126565Y-34725787D01*
X38141129Y-34717181D01*
X38189922Y-34702509D01*
X38265556Y-34683453D01*
X38360640Y-34661696D01*
X38467786Y-34638918D01*
X38579604Y-34616801D01*
X38688705Y-34597026D01*
X38703250Y-34594556D01*
X38846596Y-34576475D01*
X39017970Y-34564444D01*
X39205620Y-34558465D01*
X39397791Y-34558545D01*
G36*
X54002723Y-34568336D02*
G01*
X54389441Y-34619030D01*
X54705250Y-34689060D01*
X54853416Y-34728260D01*
X54662916Y-34743302D01*
X54577248Y-34750068D01*
X54460952Y-34759252D01*
X54325599Y-34769943D01*
X54182765Y-34781225D01*
X54080833Y-34789276D01*
X53673521Y-34825879D01*
X53236006Y-34873410D01*
X52778617Y-34930583D01*
X52311681Y-34996111D01*
X51868916Y-35064886D01*
X51815906Y-35070535D01*
X51800713Y-35063511D01*
X51805416Y-35056203D01*
X51843001Y-35029003D01*
X51912265Y-34990401D01*
X52005305Y-34944008D01*
X52114220Y-34893436D01*
X52231107Y-34842300D01*
X52348064Y-34794210D01*
X52457189Y-34752779D01*
X52507026Y-34735463D01*
X52862563Y-34638422D01*
X53233928Y-34578145D01*
X53615767Y-34554745D01*
X54002723Y-34568336D01*
G37*
X54002723Y-34568336D02*
X54389441Y-34619030D01*
X54705250Y-34689060D01*
X54853416Y-34728260D01*
X54662916Y-34743302D01*
X54577248Y-34750068D01*
X54460952Y-34759252D01*
X54325599Y-34769943D01*
X54182765Y-34781225D01*
X54080833Y-34789276D01*
X53673521Y-34825879D01*
X53236006Y-34873410D01*
X52778617Y-34930583D01*
X52311681Y-34996111D01*
X51868916Y-35064886D01*
X51815906Y-35070535D01*
X51800713Y-35063511D01*
X51805416Y-35056203D01*
X51843001Y-35029003D01*
X51912265Y-34990401D01*
X52005305Y-34944008D01*
X52114220Y-34893436D01*
X52231107Y-34842300D01*
X52348064Y-34794210D01*
X52457189Y-34752779D01*
X52507026Y-34735463D01*
X52862563Y-34638422D01*
X53233928Y-34578145D01*
X53615767Y-34554745D01*
X54002723Y-34568336D01*
G36*
X60716583Y-23311528D02*
G01*
X61004170Y-23320326D01*
X61260075Y-23334598D01*
X61494749Y-23355693D01*
X61718642Y-23384960D01*
X61942205Y-23423747D01*
X62175888Y-23473405D01*
X62409916Y-23530134D01*
X62540238Y-23564393D01*
X62637869Y-23594970D01*
X62711440Y-23627390D01*
X62769581Y-23667176D01*
X62820921Y-23719854D01*
X62874090Y-23790946D01*
X62917155Y-23854833D01*
X63082534Y-24140036D01*
X63222857Y-24457023D01*
X63337709Y-24803157D01*
X63426677Y-25175800D01*
X63489348Y-25572315D01*
X63525307Y-25990065D01*
X63534142Y-26426413D01*
X63515438Y-26878720D01*
X63468782Y-27344351D01*
X63466829Y-27359393D01*
X63374923Y-27930973D01*
X63246212Y-28522255D01*
X63080982Y-29132534D01*
X62879521Y-29761107D01*
X62642114Y-30407272D01*
X62369048Y-31070324D01*
X62060609Y-31749560D01*
X61717084Y-32444277D01*
X61338759Y-33153772D01*
X60925921Y-33877342D01*
X60575020Y-34459333D01*
X60479322Y-34614352D01*
X60403195Y-34737095D01*
X60343983Y-34831318D01*
X60299035Y-34900775D01*
X60265696Y-34949224D01*
X60241312Y-34980418D01*
X60223232Y-34998113D01*
X60208800Y-35006065D01*
X60195365Y-35008029D01*
X60187416Y-35007916D01*
X60128275Y-35002669D01*
X60098535Y-34987043D01*
X60097142Y-34954771D01*
X60123039Y-34899585D01*
X60159193Y-34840245D01*
X60613129Y-34104944D01*
X61033191Y-33385512D01*
X61419246Y-32682374D01*
X61771158Y-31995956D01*
X62088793Y-31326682D01*
X62372016Y-30674978D01*
X62620692Y-30041268D01*
X62834685Y-29425979D01*
X63013862Y-28829535D01*
X63158087Y-28252361D01*
X63267225Y-27694883D01*
X63341142Y-27157525D01*
X63379702Y-26640714D01*
X63382771Y-26144873D01*
X63350214Y-25670428D01*
X63281895Y-25217804D01*
X63254102Y-25084972D01*
X63183948Y-24816644D01*
X63095978Y-24554928D01*
X62993823Y-24308488D01*
X62881114Y-24085985D01*
X62761484Y-23896083D01*
X62747800Y-23877206D01*
X62656843Y-23753648D01*
X62512213Y-23739658D01*
X62324244Y-23733508D01*
X62105268Y-23747289D01*
X61860986Y-23779849D01*
X61597101Y-23830034D01*
X61319315Y-23896694D01*
X61033330Y-23978674D01*
X60744848Y-24074823D01*
X60612732Y-24123548D01*
X60076746Y-24344008D01*
X59526305Y-24602830D01*
X58962893Y-24899158D01*
X58387995Y-25232134D01*
X57803093Y-25600903D01*
X57209672Y-26004607D01*
X56652583Y-26409801D01*
X56507557Y-26518992D01*
X56348652Y-26639453D01*
X56178946Y-26768788D01*
X56001519Y-26904601D01*
X55819448Y-27044498D01*
X55635814Y-27186082D01*
X55453696Y-27326958D01*
X55276171Y-27464732D01*
X55106321Y-27597006D01*
X54947222Y-27721387D01*
X54801956Y-27835478D01*
X54673600Y-27936884D01*
X54565234Y-28023210D01*
X54479936Y-28092060D01*
X54420787Y-28141039D01*
X54390864Y-28167751D01*
X54387750Y-28171807D01*
X54402821Y-28190290D01*
X54444749Y-28232075D01*
X54508608Y-28292499D01*
X54589469Y-28366901D01*
X54682406Y-28450622D01*
X54684083Y-28452117D01*
X55209787Y-28949034D01*
X55710593Y-29479788D01*
X56185952Y-30043581D01*
X56635311Y-30639620D01*
X57058120Y-31267107D01*
X57453827Y-31925247D01*
X57821882Y-32613244D01*
X58161734Y-33330302D01*
X58326352Y-33712528D01*
X58373938Y-33828572D01*
X58426076Y-33958754D01*
X58480520Y-34097144D01*
X58535025Y-34237811D01*
X58587342Y-34374827D01*
X58635226Y-34502261D01*
X58676430Y-34614185D01*
X58708707Y-34704668D01*
X58729812Y-34767781D01*
X58737498Y-34797595D01*
X58737499Y-34797753D01*
X58719538Y-34813380D01*
X58676488Y-34818867D01*
X58624602Y-34813188D01*
X58601647Y-34806318D01*
X58572582Y-34785681D01*
X58568166Y-34774696D01*
X58560514Y-34743970D01*
X58539048Y-34679870D01*
X58506007Y-34588195D01*
X58463626Y-34474744D01*
X58414143Y-34345316D01*
X58359795Y-34205710D01*
X58302819Y-34061724D01*
X58245453Y-33919159D01*
X58189932Y-33783812D01*
X58140880Y-33667073D01*
X57806795Y-32931016D01*
X57446358Y-32227831D01*
X57059627Y-31557590D01*
X56646661Y-30920364D01*
X56207516Y-30316224D01*
X55742250Y-29745243D01*
X55250921Y-29207493D01*
X54733586Y-28703044D01*
X54190303Y-28231969D01*
X53621129Y-27794339D01*
X53170666Y-27483751D01*
X52577076Y-27118594D01*
X51958490Y-26786095D01*
X51318561Y-26487741D01*
X50660938Y-26225020D01*
X49989273Y-25999421D01*
X49307216Y-25812431D01*
X48789166Y-25698047D01*
X48545296Y-25651189D01*
X48322674Y-25611879D01*
X48114237Y-25579503D01*
X47912921Y-25553446D01*
X47711663Y-25533094D01*
X47503398Y-25517831D01*
X47281064Y-25507042D01*
X47037597Y-25500114D01*
X46765932Y-25496429D01*
X46460833Y-25495375D01*
X46210115Y-25495737D01*
X45995125Y-25497050D01*
X45809261Y-25499770D01*
X45645921Y-25504351D01*
X45498503Y-25511247D01*
X45360404Y-25520911D01*
X45225022Y-25533799D01*
X45085756Y-25550364D01*
X44936003Y-25571061D01*
X44769160Y-25596343D01*
X44598166Y-25623517D01*
X43900968Y-25756859D01*
X43212146Y-25930631D01*
X42534252Y-26143756D01*
X41869844Y-26395153D01*
X41221474Y-26683745D01*
X40591699Y-27008452D01*
X39983073Y-27368195D01*
X39398150Y-27761895D01*
X39211250Y-27898721D01*
X38653027Y-28342269D01*
X38119263Y-28820102D01*
X37610345Y-29331677D01*
X37126661Y-29876454D01*
X36668601Y-30453892D01*
X36236550Y-31063450D01*
X35830899Y-31704588D01*
X35452034Y-32376765D01*
X35100345Y-33079440D01*
X34776218Y-33812072D01*
X34542722Y-34404138D01*
X34495913Y-34525463D01*
X34452024Y-34632308D01*
X34413874Y-34718316D01*
X34384282Y-34777129D01*
X34366110Y-34802367D01*
X34317760Y-34815300D01*
X34280261Y-34815228D01*
X34264453Y-34812251D01*
X34254307Y-34804877D01*
X34251075Y-34788318D01*
X34256013Y-34757790D01*
X34270376Y-34708503D01*
X34295419Y-34635673D01*
X34332395Y-34534511D01*
X34382561Y-34400232D01*
X34404071Y-34342916D01*
X34704687Y-33590150D01*
X35028707Y-32871876D01*
X35377052Y-32186714D01*
X35750645Y-31533285D01*
X36150409Y-30910210D01*
X36577267Y-30316109D01*
X37032140Y-29749604D01*
X37515952Y-29209315D01*
X38029624Y-28693862D01*
X38423904Y-28332548D01*
X38497324Y-28267047D01*
X38543040Y-28222956D01*
X38565399Y-28194031D01*
X38568750Y-28174027D01*
X38557442Y-28156700D01*
X38550904Y-28150189D01*
X38508773Y-28113263D01*
X38435908Y-28053453D01*
X38335503Y-27973189D01*
X38210753Y-27874903D01*
X38064853Y-27761029D01*
X37900996Y-27633997D01*
X37722378Y-27496240D01*
X37532193Y-27350190D01*
X37333635Y-27198279D01*
X37129899Y-27042939D01*
X36924179Y-26886603D01*
X36719670Y-26731701D01*
X36519567Y-26580667D01*
X36327063Y-26435932D01*
X36145353Y-26299928D01*
X35977632Y-26175088D01*
X35827094Y-26063843D01*
X35696933Y-25968625D01*
X35590345Y-25891867D01*
X35517666Y-25840891D01*
X35118333Y-25575145D01*
X34707099Y-25317705D01*
X34289490Y-25071491D01*
X33871032Y-24839421D01*
X33457250Y-24624413D01*
X33053670Y-24429385D01*
X32665817Y-24257256D01*
X32299216Y-24110945D01*
X32120416Y-24046587D01*
X31793584Y-23940717D01*
X31493928Y-23858794D01*
X31214687Y-23799458D01*
X30949101Y-23761350D01*
X30690408Y-23743110D01*
X30601431Y-23741180D01*
X30310112Y-23738416D01*
X30257115Y-23801916D01*
X30202647Y-23875702D01*
X30137496Y-23977066D01*
X30068116Y-24094873D01*
X30000958Y-24217992D01*
X29942475Y-24335288D01*
X29922184Y-24379834D01*
X29816209Y-24655642D01*
X29725052Y-24965745D01*
X29650291Y-25304229D01*
X29607997Y-25558750D01*
X29597321Y-25661370D01*
X29589233Y-25798468D01*
X29583683Y-25962271D01*
X29580624Y-26145004D01*
X29580005Y-26338895D01*
X29581778Y-26536170D01*
X29585894Y-26729056D01*
X29592303Y-26909779D01*
X29600957Y-27070565D01*
X29611806Y-27203642D01*
X29618754Y-27262666D01*
X29707461Y-27813692D01*
X29823652Y-28369622D01*
X29968102Y-28932500D01*
X30141586Y-29504367D01*
X30344881Y-30087267D01*
X30578763Y-30683243D01*
X30844006Y-31294336D01*
X31141387Y-31922590D01*
X31471682Y-32570047D01*
X31835666Y-33238751D01*
X31995224Y-33520244D01*
X32101982Y-33704820D01*
X32216073Y-33899056D01*
X32333317Y-34096053D01*
X32449537Y-34288909D01*
X32560555Y-34470725D01*
X32662193Y-34634599D01*
X32750272Y-34773631D01*
X32804308Y-34856527D01*
X32841061Y-34915568D01*
X32863976Y-34959620D01*
X32868206Y-34978015D01*
X32842308Y-34988859D01*
X32794073Y-35000876D01*
X32793825Y-35000926D01*
X32744453Y-35003819D01*
X32709076Y-34981587D01*
X32687121Y-34953522D01*
X32648644Y-34896072D01*
X32592270Y-34808243D01*
X32521704Y-34696064D01*
X32440652Y-34565561D01*
X32352821Y-34422763D01*
X32261914Y-34273697D01*
X32171639Y-34124391D01*
X32085701Y-33980873D01*
X32007805Y-33849170D01*
X31999449Y-33834916D01*
X31591434Y-33116330D01*
X31217665Y-32412721D01*
X30878382Y-31724731D01*
X30573823Y-31053003D01*
X30304226Y-30398178D01*
X30069831Y-29760900D01*
X29870877Y-29141811D01*
X29707602Y-28541553D01*
X29580245Y-27960769D01*
X29489045Y-27400100D01*
X29441295Y-26954414D01*
X29432092Y-26799599D01*
X29426772Y-26618997D01*
X29425141Y-26421677D01*
X29427005Y-26216706D01*
X29432173Y-26013152D01*
X29440449Y-25820084D01*
X29451641Y-25646570D01*
X29465556Y-25501677D01*
X29473545Y-25442333D01*
X29542816Y-25079172D01*
X29636298Y-24729918D01*
X29751391Y-24403054D01*
X29879179Y-24119416D01*
X29945045Y-23997601D01*
X30014986Y-23881650D01*
X30083876Y-23779052D01*
X30146590Y-23697298D01*
X30198002Y-23643877D01*
X30211479Y-23633828D01*
X30267351Y-23607964D01*
X30358996Y-23577445D01*
X30480287Y-23543650D01*
X30625096Y-23507960D01*
X30787297Y-23471757D01*
X30960761Y-23436420D01*
X31139362Y-23403331D01*
X31316972Y-23373870D01*
X31453666Y-23353918D01*
X31614718Y-23336926D01*
X31809253Y-23324365D01*
X32028660Y-23316186D01*
X32264325Y-23312342D01*
X32507636Y-23312787D01*
X32749982Y-23317472D01*
X32982748Y-23326351D01*
X33197324Y-23339376D01*
X33385097Y-23356500D01*
X33453916Y-23364905D01*
X34072260Y-23466064D01*
X34691574Y-23604417D01*
X35313265Y-23780489D01*
X35938741Y-23994808D01*
X36569408Y-24247899D01*
X37206674Y-24540288D01*
X37851946Y-24872500D01*
X38506631Y-25245062D01*
X38544500Y-25267668D01*
X38817584Y-25435898D01*
X39108004Y-25623511D01*
X39406436Y-25824023D01*
X39703553Y-26030950D01*
X39990032Y-26237805D01*
X40256545Y-26438103D01*
X40475327Y-26610397D01*
X40681071Y-26776891D01*
X40877494Y-26678226D01*
X41540869Y-26368203D01*
X42219210Y-26096724D01*
X42910192Y-25864448D01*
X43611491Y-25672035D01*
X44320780Y-25520145D01*
X45035735Y-25409439D01*
X45529500Y-25357548D01*
X45661407Y-25349082D01*
X45827736Y-25342668D01*
X46020629Y-25338265D01*
X46232225Y-25335833D01*
X46454667Y-25335332D01*
X46680093Y-25336721D01*
X46900647Y-25339959D01*
X47108467Y-25345007D01*
X47295695Y-25351823D01*
X47454472Y-25360368D01*
X47550916Y-25367958D01*
X48282766Y-25458248D01*
X49001642Y-25588799D01*
X49707413Y-25759573D01*
X50399945Y-25970534D01*
X51079108Y-26221646D01*
X51744770Y-26512870D01*
X51871853Y-26573776D01*
X52276956Y-26770710D01*
X52475103Y-26611294D01*
X53012454Y-26196918D01*
X53568216Y-25802871D01*
X54138629Y-25431061D01*
X54719933Y-25083395D01*
X55308371Y-24761780D01*
X55900184Y-24468123D01*
X56491612Y-24204333D01*
X57078896Y-23972315D01*
X57658279Y-23773978D01*
X58226000Y-23611229D01*
X58533210Y-23537288D01*
X58929313Y-23455180D01*
X59300206Y-23392556D01*
X59657608Y-23348206D01*
X60013240Y-23320917D01*
X60378821Y-23309478D01*
X60716583Y-23311528D01*
G37*
X60716583Y-23311528D02*
X61004170Y-23320326D01*
X61260075Y-23334598D01*
X61494749Y-23355693D01*
X61718642Y-23384960D01*
X61942205Y-23423747D01*
X62175888Y-23473405D01*
X62409916Y-23530134D01*
X62540238Y-23564393D01*
X62637869Y-23594970D01*
X62711440Y-23627390D01*
X62769581Y-23667176D01*
X62820921Y-23719854D01*
X62874090Y-23790946D01*
X62917155Y-23854833D01*
X63082534Y-24140036D01*
X63222857Y-24457023D01*
X63337709Y-24803157D01*
X63426677Y-25175800D01*
X63489348Y-25572315D01*
X63525307Y-25990065D01*
X63534142Y-26426413D01*
X63515438Y-26878720D01*
X63468782Y-27344351D01*
X63466829Y-27359393D01*
X63374923Y-27930973D01*
X63246212Y-28522255D01*
X63080982Y-29132534D01*
X62879521Y-29761107D01*
X62642114Y-30407272D01*
X62369048Y-31070324D01*
X62060609Y-31749560D01*
X61717084Y-32444277D01*
X61338759Y-33153772D01*
X60925921Y-33877342D01*
X60575020Y-34459333D01*
X60479322Y-34614352D01*
X60403195Y-34737095D01*
X60343983Y-34831318D01*
X60299035Y-34900775D01*
X60265696Y-34949224D01*
X60241312Y-34980418D01*
X60223232Y-34998113D01*
X60208800Y-35006065D01*
X60195365Y-35008029D01*
X60187416Y-35007916D01*
X60128275Y-35002669D01*
X60098535Y-34987043D01*
X60097142Y-34954771D01*
X60123039Y-34899585D01*
X60159193Y-34840245D01*
X60613129Y-34104944D01*
X61033191Y-33385512D01*
X61419246Y-32682374D01*
X61771158Y-31995956D01*
X62088793Y-31326682D01*
X62372016Y-30674978D01*
X62620692Y-30041268D01*
X62834685Y-29425979D01*
X63013862Y-28829535D01*
X63158087Y-28252361D01*
X63267225Y-27694883D01*
X63341142Y-27157525D01*
X63379702Y-26640714D01*
X63382771Y-26144873D01*
X63350214Y-25670428D01*
X63281895Y-25217804D01*
X63254102Y-25084972D01*
X63183948Y-24816644D01*
X63095978Y-24554928D01*
X62993823Y-24308488D01*
X62881114Y-24085985D01*
X62761484Y-23896083D01*
X62747800Y-23877206D01*
X62656843Y-23753648D01*
X62512213Y-23739658D01*
X62324244Y-23733508D01*
X62105268Y-23747289D01*
X61860986Y-23779849D01*
X61597101Y-23830034D01*
X61319315Y-23896694D01*
X61033330Y-23978674D01*
X60744848Y-24074823D01*
X60612732Y-24123548D01*
X60076746Y-24344008D01*
X59526305Y-24602830D01*
X58962893Y-24899158D01*
X58387995Y-25232134D01*
X57803093Y-25600903D01*
X57209672Y-26004607D01*
X56652583Y-26409801D01*
X56507557Y-26518992D01*
X56348652Y-26639453D01*
X56178946Y-26768788D01*
X56001519Y-26904601D01*
X55819448Y-27044498D01*
X55635814Y-27186082D01*
X55453696Y-27326958D01*
X55276171Y-27464732D01*
X55106321Y-27597006D01*
X54947222Y-27721387D01*
X54801956Y-27835478D01*
X54673600Y-27936884D01*
X54565234Y-28023210D01*
X54479936Y-28092060D01*
X54420787Y-28141039D01*
X54390864Y-28167751D01*
X54387750Y-28171807D01*
X54402821Y-28190290D01*
X54444749Y-28232075D01*
X54508608Y-28292499D01*
X54589469Y-28366901D01*
X54682406Y-28450622D01*
X54684083Y-28452117D01*
X55209787Y-28949034D01*
X55710593Y-29479788D01*
X56185952Y-30043581D01*
X56635311Y-30639620D01*
X57058120Y-31267107D01*
X57453827Y-31925247D01*
X57821882Y-32613244D01*
X58161734Y-33330302D01*
X58326352Y-33712528D01*
X58373938Y-33828572D01*
X58426076Y-33958754D01*
X58480520Y-34097144D01*
X58535025Y-34237811D01*
X58587342Y-34374827D01*
X58635226Y-34502261D01*
X58676430Y-34614185D01*
X58708707Y-34704668D01*
X58729812Y-34767781D01*
X58737498Y-34797595D01*
X58737499Y-34797753D01*
X58719538Y-34813380D01*
X58676488Y-34818867D01*
X58624602Y-34813188D01*
X58601647Y-34806318D01*
X58572582Y-34785681D01*
X58568166Y-34774696D01*
X58560514Y-34743970D01*
X58539048Y-34679870D01*
X58506007Y-34588195D01*
X58463626Y-34474744D01*
X58414143Y-34345316D01*
X58359795Y-34205710D01*
X58302819Y-34061724D01*
X58245453Y-33919159D01*
X58189932Y-33783812D01*
X58140880Y-33667073D01*
X57806795Y-32931016D01*
X57446358Y-32227831D01*
X57059627Y-31557590D01*
X56646661Y-30920364D01*
X56207516Y-30316224D01*
X55742250Y-29745243D01*
X55250921Y-29207493D01*
X54733586Y-28703044D01*
X54190303Y-28231969D01*
X53621129Y-27794339D01*
X53170666Y-27483751D01*
X52577076Y-27118594D01*
X51958490Y-26786095D01*
X51318561Y-26487741D01*
X50660938Y-26225020D01*
X49989273Y-25999421D01*
X49307216Y-25812431D01*
X48789166Y-25698047D01*
X48545296Y-25651189D01*
X48322674Y-25611879D01*
X48114237Y-25579503D01*
X47912921Y-25553446D01*
X47711663Y-25533094D01*
X47503398Y-25517831D01*
X47281064Y-25507042D01*
X47037597Y-25500114D01*
X46765932Y-25496429D01*
X46460833Y-25495375D01*
X46210115Y-25495737D01*
X45995125Y-25497050D01*
X45809261Y-25499770D01*
X45645921Y-25504351D01*
X45498503Y-25511247D01*
X45360404Y-25520911D01*
X45225022Y-25533799D01*
X45085756Y-25550364D01*
X44936003Y-25571061D01*
X44769160Y-25596343D01*
X44598166Y-25623517D01*
X43900968Y-25756859D01*
X43212146Y-25930631D01*
X42534252Y-26143756D01*
X41869844Y-26395153D01*
X41221474Y-26683745D01*
X40591699Y-27008452D01*
X39983073Y-27368195D01*
X39398150Y-27761895D01*
X39211250Y-27898721D01*
X38653027Y-28342269D01*
X38119263Y-28820102D01*
X37610345Y-29331677D01*
X37126661Y-29876454D01*
X36668601Y-30453892D01*
X36236550Y-31063450D01*
X35830899Y-31704588D01*
X35452034Y-32376765D01*
X35100345Y-33079440D01*
X34776218Y-33812072D01*
X34542722Y-34404138D01*
X34495913Y-34525463D01*
X34452024Y-34632308D01*
X34413874Y-34718316D01*
X34384282Y-34777129D01*
X34366110Y-34802367D01*
X34317760Y-34815300D01*
X34280261Y-34815228D01*
X34264453Y-34812251D01*
X34254307Y-34804877D01*
X34251075Y-34788318D01*
X34256013Y-34757790D01*
X34270376Y-34708503D01*
X34295419Y-34635673D01*
X34332395Y-34534511D01*
X34382561Y-34400232D01*
X34404071Y-34342916D01*
X34704687Y-33590150D01*
X35028707Y-32871876D01*
X35377052Y-32186714D01*
X35750645Y-31533285D01*
X36150409Y-30910210D01*
X36577267Y-30316109D01*
X37032140Y-29749604D01*
X37515952Y-29209315D01*
X38029624Y-28693862D01*
X38423904Y-28332548D01*
X38497324Y-28267047D01*
X38543040Y-28222956D01*
X38565399Y-28194031D01*
X38568750Y-28174027D01*
X38557442Y-28156700D01*
X38550904Y-28150189D01*
X38508773Y-28113263D01*
X38435908Y-28053453D01*
X38335503Y-27973189D01*
X38210753Y-27874903D01*
X38064853Y-27761029D01*
X37900996Y-27633997D01*
X37722378Y-27496240D01*
X37532193Y-27350190D01*
X37333635Y-27198279D01*
X37129899Y-27042939D01*
X36924179Y-26886603D01*
X36719670Y-26731701D01*
X36519567Y-26580667D01*
X36327063Y-26435932D01*
X36145353Y-26299928D01*
X35977632Y-26175088D01*
X35827094Y-26063843D01*
X35696933Y-25968625D01*
X35590345Y-25891867D01*
X35517666Y-25840891D01*
X35118333Y-25575145D01*
X34707099Y-25317705D01*
X34289490Y-25071491D01*
X33871032Y-24839421D01*
X33457250Y-24624413D01*
X33053670Y-24429385D01*
X32665817Y-24257256D01*
X32299216Y-24110945D01*
X32120416Y-24046587D01*
X31793584Y-23940717D01*
X31493928Y-23858794D01*
X31214687Y-23799458D01*
X30949101Y-23761350D01*
X30690408Y-23743110D01*
X30601431Y-23741180D01*
X30310112Y-23738416D01*
X30257115Y-23801916D01*
X30202647Y-23875702D01*
X30137496Y-23977066D01*
X30068116Y-24094873D01*
X30000958Y-24217992D01*
X29942475Y-24335288D01*
X29922184Y-24379834D01*
X29816209Y-24655642D01*
X29725052Y-24965745D01*
X29650291Y-25304229D01*
X29607997Y-25558750D01*
X29597321Y-25661370D01*
X29589233Y-25798468D01*
X29583683Y-25962271D01*
X29580624Y-26145004D01*
X29580005Y-26338895D01*
X29581778Y-26536170D01*
X29585894Y-26729056D01*
X29592303Y-26909779D01*
X29600957Y-27070565D01*
X29611806Y-27203642D01*
X29618754Y-27262666D01*
X29707461Y-27813692D01*
X29823652Y-28369622D01*
X29968102Y-28932500D01*
X30141586Y-29504367D01*
X30344881Y-30087267D01*
X30578763Y-30683243D01*
X30844006Y-31294336D01*
X31141387Y-31922590D01*
X31471682Y-32570047D01*
X31835666Y-33238751D01*
X31995224Y-33520244D01*
X32101982Y-33704820D01*
X32216073Y-33899056D01*
X32333317Y-34096053D01*
X32449537Y-34288909D01*
X32560555Y-34470725D01*
X32662193Y-34634599D01*
X32750272Y-34773631D01*
X32804308Y-34856527D01*
X32841061Y-34915568D01*
X32863976Y-34959620D01*
X32868206Y-34978015D01*
X32842308Y-34988859D01*
X32794073Y-35000876D01*
X32793825Y-35000926D01*
X32744453Y-35003819D01*
X32709076Y-34981587D01*
X32687121Y-34953522D01*
X32648644Y-34896072D01*
X32592270Y-34808243D01*
X32521704Y-34696064D01*
X32440652Y-34565561D01*
X32352821Y-34422763D01*
X32261914Y-34273697D01*
X32171639Y-34124391D01*
X32085701Y-33980873D01*
X32007805Y-33849170D01*
X31999449Y-33834916D01*
X31591434Y-33116330D01*
X31217665Y-32412721D01*
X30878382Y-31724731D01*
X30573823Y-31053003D01*
X30304226Y-30398178D01*
X30069831Y-29760900D01*
X29870877Y-29141811D01*
X29707602Y-28541553D01*
X29580245Y-27960769D01*
X29489045Y-27400100D01*
X29441295Y-26954414D01*
X29432092Y-26799599D01*
X29426772Y-26618997D01*
X29425141Y-26421677D01*
X29427005Y-26216706D01*
X29432173Y-26013152D01*
X29440449Y-25820084D01*
X29451641Y-25646570D01*
X29465556Y-25501677D01*
X29473545Y-25442333D01*
X29542816Y-25079172D01*
X29636298Y-24729918D01*
X29751391Y-24403054D01*
X29879179Y-24119416D01*
X29945045Y-23997601D01*
X30014986Y-23881650D01*
X30083876Y-23779052D01*
X30146590Y-23697298D01*
X30198002Y-23643877D01*
X30211479Y-23633828D01*
X30267351Y-23607964D01*
X30358996Y-23577445D01*
X30480287Y-23543650D01*
X30625096Y-23507960D01*
X30787297Y-23471757D01*
X30960761Y-23436420D01*
X31139362Y-23403331D01*
X31316972Y-23373870D01*
X31453666Y-23353918D01*
X31614718Y-23336926D01*
X31809253Y-23324365D01*
X32028660Y-23316186D01*
X32264325Y-23312342D01*
X32507636Y-23312787D01*
X32749982Y-23317472D01*
X32982748Y-23326351D01*
X33197324Y-23339376D01*
X33385097Y-23356500D01*
X33453916Y-23364905D01*
X34072260Y-23466064D01*
X34691574Y-23604417D01*
X35313265Y-23780489D01*
X35938741Y-23994808D01*
X36569408Y-24247899D01*
X37206674Y-24540288D01*
X37851946Y-24872500D01*
X38506631Y-25245062D01*
X38544500Y-25267668D01*
X38817584Y-25435898D01*
X39108004Y-25623511D01*
X39406436Y-25824023D01*
X39703553Y-26030950D01*
X39990032Y-26237805D01*
X40256545Y-26438103D01*
X40475327Y-26610397D01*
X40681071Y-26776891D01*
X40877494Y-26678226D01*
X41540869Y-26368203D01*
X42219210Y-26096724D01*
X42910192Y-25864448D01*
X43611491Y-25672035D01*
X44320780Y-25520145D01*
X45035735Y-25409439D01*
X45529500Y-25357548D01*
X45661407Y-25349082D01*
X45827736Y-25342668D01*
X46020629Y-25338265D01*
X46232225Y-25335833D01*
X46454667Y-25335332D01*
X46680093Y-25336721D01*
X46900647Y-25339959D01*
X47108467Y-25345007D01*
X47295695Y-25351823D01*
X47454472Y-25360368D01*
X47550916Y-25367958D01*
X48282766Y-25458248D01*
X49001642Y-25588799D01*
X49707413Y-25759573D01*
X50399945Y-25970534D01*
X51079108Y-26221646D01*
X51744770Y-26512870D01*
X51871853Y-26573776D01*
X52276956Y-26770710D01*
X52475103Y-26611294D01*
X53012454Y-26196918D01*
X53568216Y-25802871D01*
X54138629Y-25431061D01*
X54719933Y-25083395D01*
X55308371Y-24761780D01*
X55900184Y-24468123D01*
X56491612Y-24204333D01*
X57078896Y-23972315D01*
X57658279Y-23773978D01*
X58226000Y-23611229D01*
X58533210Y-23537288D01*
X58929313Y-23455180D01*
X59300206Y-23392556D01*
X59657608Y-23348206D01*
X60013240Y-23320917D01*
X60378821Y-23309478D01*
X60716583Y-23311528D01*
G36*
X56158578Y-65689792D02*
G01*
X56307530Y-65728749D01*
X56439963Y-65798755D01*
X56535835Y-65884106D01*
X56607163Y-65976425D01*
X56654661Y-66068743D01*
X56682253Y-66172994D01*
X56693861Y-66301115D01*
X56694916Y-66368083D01*
X56689095Y-66510478D01*
X56669015Y-66623755D01*
X56630753Y-66719851D01*
X56570387Y-66810699D01*
X56535835Y-66852059D01*
X56429082Y-66943274D01*
X56296744Y-67008635D01*
X56148420Y-67045829D01*
X55993711Y-67052541D01*
X55842216Y-67026457D01*
X55829080Y-67022425D01*
X55733010Y-66975163D01*
X55634780Y-66899120D01*
X55545771Y-66805626D01*
X55477359Y-66706012D01*
X55449806Y-66644771D01*
X55424969Y-66532663D01*
X55415236Y-66398570D01*
X55416649Y-66361954D01*
X55732445Y-66361954D01*
X55743052Y-66460291D01*
X55785288Y-66553094D01*
X55861482Y-66633145D01*
X55877355Y-66644542D01*
X55973297Y-66686708D01*
X56080944Y-66697538D01*
X56185117Y-66676870D01*
X56240850Y-66648469D01*
X56323667Y-66571499D01*
X56373508Y-66480208D01*
X56392395Y-66381898D01*
X56382350Y-66283870D01*
X56345395Y-66193425D01*
X56283552Y-66117865D01*
X56198843Y-66064491D01*
X56093291Y-66040604D01*
X56072331Y-66040000D01*
X55959726Y-66057691D01*
X55867107Y-66105953D01*
X55796801Y-66177565D01*
X55751137Y-66265306D01*
X55732445Y-66361954D01*
X55416649Y-66361954D01*
X55420583Y-66260046D01*
X55440986Y-66134643D01*
X55450536Y-66100638D01*
X55507391Y-65983394D01*
X55595815Y-65873962D01*
X55705128Y-65782820D01*
X55824649Y-65720445D01*
X55845222Y-65713454D01*
X56001633Y-65683991D01*
X56158578Y-65689792D01*
G37*
X56158578Y-65689792D02*
X56307530Y-65728749D01*
X56439963Y-65798755D01*
X56535835Y-65884106D01*
X56607163Y-65976425D01*
X56654661Y-66068743D01*
X56682253Y-66172994D01*
X56693861Y-66301115D01*
X56694916Y-66368083D01*
X56689095Y-66510478D01*
X56669015Y-66623755D01*
X56630753Y-66719851D01*
X56570387Y-66810699D01*
X56535835Y-66852059D01*
X56429082Y-66943274D01*
X56296744Y-67008635D01*
X56148420Y-67045829D01*
X55993711Y-67052541D01*
X55842216Y-67026457D01*
X55829080Y-67022425D01*
X55733010Y-66975163D01*
X55634780Y-66899120D01*
X55545771Y-66805626D01*
X55477359Y-66706012D01*
X55449806Y-66644771D01*
X55424969Y-66532663D01*
X55415236Y-66398570D01*
X55416649Y-66361954D01*
X55732445Y-66361954D01*
X55743052Y-66460291D01*
X55785288Y-66553094D01*
X55861482Y-66633145D01*
X55877355Y-66644542D01*
X55973297Y-66686708D01*
X56080944Y-66697538D01*
X56185117Y-66676870D01*
X56240850Y-66648469D01*
X56323667Y-66571499D01*
X56373508Y-66480208D01*
X56392395Y-66381898D01*
X56382350Y-66283870D01*
X56345395Y-66193425D01*
X56283552Y-66117865D01*
X56198843Y-66064491D01*
X56093291Y-66040604D01*
X56072331Y-66040000D01*
X55959726Y-66057691D01*
X55867107Y-66105953D01*
X55796801Y-66177565D01*
X55751137Y-66265306D01*
X55732445Y-66361954D01*
X55416649Y-66361954D01*
X55420583Y-66260046D01*
X55440986Y-66134643D01*
X55450536Y-66100638D01*
X55507391Y-65983394D01*
X55595815Y-65873962D01*
X55705128Y-65782820D01*
X55824649Y-65720445D01*
X55845222Y-65713454D01*
X56001633Y-65683991D01*
X56158578Y-65689792D01*
G36*
X55176845Y-65135720D02*
G01*
X55308593Y-65268649D01*
X55186224Y-65389741D01*
X55126866Y-65446055D01*
X55077541Y-65488426D01*
X55046780Y-65509657D01*
X55042640Y-65510833D01*
X55018794Y-65496707D01*
X54974231Y-65459176D01*
X54917409Y-65405512D01*
X54900380Y-65388512D01*
X54779335Y-65266191D01*
X54912216Y-65134491D01*
X55045098Y-65002791D01*
X55176845Y-65135720D01*
G37*
X55176845Y-65135720D02*
X55308593Y-65268649D01*
X55186224Y-65389741D01*
X55126866Y-65446055D01*
X55077541Y-65488426D01*
X55046780Y-65509657D01*
X55042640Y-65510833D01*
X55018794Y-65496707D01*
X54974231Y-65459176D01*
X54917409Y-65405512D01*
X54900380Y-65388512D01*
X54779335Y-65266191D01*
X54912216Y-65134491D01*
X55045098Y-65002791D01*
X55176845Y-65135720D01*
G36*
X56684333Y-65447333D02*
G01*
X56063444Y-65447333D01*
X55905377Y-65446869D01*
X55761189Y-65445559D01*
X55636273Y-65443521D01*
X55536021Y-65440875D01*
X55465825Y-65437742D01*
X55431076Y-65434240D01*
X55428444Y-65433222D01*
X55421772Y-65406715D01*
X55416802Y-65349185D01*
X55414421Y-65271936D01*
X55414333Y-65253305D01*
X55414333Y-65087500D01*
X56684333Y-65087500D01*
X56684333Y-65447333D01*
G37*
X56684333Y-65447333D02*
X56063444Y-65447333D01*
X55905377Y-65446869D01*
X55761189Y-65445559D01*
X55636273Y-65443521D01*
X55536021Y-65440875D01*
X55465825Y-65437742D01*
X55431076Y-65434240D01*
X55428444Y-65433222D01*
X55421772Y-65406715D01*
X55416802Y-65349185D01*
X55414421Y-65271936D01*
X55414333Y-65253305D01*
X55414333Y-65087500D01*
X56684333Y-65087500D01*
X56684333Y-65447333D01*
G36*
X56684333Y-64727666D02*
G01*
X56324500Y-64727666D01*
X56324500Y-64367833D01*
X56684333Y-64367833D01*
X56684333Y-64727666D01*
G37*
X56684333Y-64727666D02*
X56324500Y-64727666D01*
X56324500Y-64367833D01*
X56684333Y-64367833D01*
X56684333Y-64727666D01*
G36*
X56221514Y-63018469D02*
G01*
X56345666Y-63060788D01*
X56428152Y-63102385D01*
X56485129Y-63138821D01*
X56530324Y-63180825D01*
X56577466Y-63239129D01*
X56582615Y-63246000D01*
X56647382Y-63364632D01*
X56687772Y-63508309D01*
X56703067Y-63666970D01*
X56692547Y-63830553D01*
X56655495Y-63988999D01*
X56638926Y-64034458D01*
X56623233Y-64068231D01*
X56603624Y-64084831D01*
X56570172Y-64085308D01*
X56512950Y-64070707D01*
X56458058Y-64053549D01*
X56395019Y-64032114D01*
X56350284Y-64014350D01*
X56337126Y-64007012D01*
X56336384Y-63981867D01*
X56346640Y-63930281D01*
X56357026Y-63892523D01*
X56382800Y-63767799D01*
X56385761Y-63649292D01*
X56366229Y-63548803D01*
X56346523Y-63506319D01*
X56276945Y-63430291D01*
X56182887Y-63380090D01*
X56075218Y-63358246D01*
X55964805Y-63367289D01*
X55882229Y-63398231D01*
X55792069Y-63468673D01*
X55734265Y-63563255D01*
X55710171Y-63677291D01*
X55721139Y-63806099D01*
X55742642Y-63881640D01*
X55760610Y-63936683D01*
X55769280Y-63971676D01*
X55769101Y-63977381D01*
X55741321Y-63990408D01*
X55687668Y-64007785D01*
X55621135Y-64026170D01*
X55554716Y-64042218D01*
X55501404Y-64052589D01*
X55474192Y-64053938D01*
X55473410Y-64053452D01*
X55451999Y-64014277D01*
X55431617Y-63944378D01*
X55414273Y-63855352D01*
X55401973Y-63758797D01*
X55396726Y-63666311D01*
X55397845Y-63616839D01*
X55426590Y-63446769D01*
X55489306Y-63301922D01*
X55586226Y-63181951D01*
X55717582Y-63086510D01*
X55772336Y-63058557D01*
X55913577Y-63013944D01*
X56068146Y-63000600D01*
X56221514Y-63018469D01*
G37*
X56221514Y-63018469D02*
X56345666Y-63060788D01*
X56428152Y-63102385D01*
X56485129Y-63138821D01*
X56530324Y-63180825D01*
X56577466Y-63239129D01*
X56582615Y-63246000D01*
X56647382Y-63364632D01*
X56687772Y-63508309D01*
X56703067Y-63666970D01*
X56692547Y-63830553D01*
X56655495Y-63988999D01*
X56638926Y-64034458D01*
X56623233Y-64068231D01*
X56603624Y-64084831D01*
X56570172Y-64085308D01*
X56512950Y-64070707D01*
X56458058Y-64053549D01*
X56395019Y-64032114D01*
X56350284Y-64014350D01*
X56337126Y-64007012D01*
X56336384Y-63981867D01*
X56346640Y-63930281D01*
X56357026Y-63892523D01*
X56382800Y-63767799D01*
X56385761Y-63649292D01*
X56366229Y-63548803D01*
X56346523Y-63506319D01*
X56276945Y-63430291D01*
X56182887Y-63380090D01*
X56075218Y-63358246D01*
X55964805Y-63367289D01*
X55882229Y-63398231D01*
X55792069Y-63468673D01*
X55734265Y-63563255D01*
X55710171Y-63677291D01*
X55721139Y-63806099D01*
X55742642Y-63881640D01*
X55760610Y-63936683D01*
X55769280Y-63971676D01*
X55769101Y-63977381D01*
X55741321Y-63990408D01*
X55687668Y-64007785D01*
X55621135Y-64026170D01*
X55554716Y-64042218D01*
X55501404Y-64052589D01*
X55474192Y-64053938D01*
X55473410Y-64053452D01*
X55451999Y-64014277D01*
X55431617Y-63944378D01*
X55414273Y-63855352D01*
X55401973Y-63758797D01*
X55396726Y-63666311D01*
X55397845Y-63616839D01*
X55426590Y-63446769D01*
X55489306Y-63301922D01*
X55586226Y-63181951D01*
X55717582Y-63086510D01*
X55772336Y-63058557D01*
X55913577Y-63013944D01*
X56068146Y-63000600D01*
X56221514Y-63018469D01*
G36*
X48422838Y-57188975D02*
G01*
X48428842Y-57241068D01*
X48429333Y-57262432D01*
X48429333Y-57351199D01*
X45535271Y-60245029D01*
X45444915Y-60229763D01*
X45354559Y-60214498D01*
X44817613Y-60751135D01*
X44694000Y-60875051D01*
X44580423Y-60989633D01*
X44480241Y-61091431D01*
X44396818Y-61177001D01*
X44333513Y-61242894D01*
X44293689Y-61285664D01*
X44280666Y-61301732D01*
X44298459Y-61317313D01*
X44341984Y-61336996D01*
X44348854Y-61339462D01*
X44417042Y-61363232D01*
X43232383Y-62548033D01*
X43046739Y-62733548D01*
X42869723Y-62910147D01*
X42703615Y-63075574D01*
X42550694Y-63227572D01*
X42413240Y-63363884D01*
X42293532Y-63482256D01*
X42193849Y-63580429D01*
X42116470Y-63656149D01*
X42063676Y-63707158D01*
X42037745Y-63731201D01*
X42035468Y-63732833D01*
X42014199Y-63718927D01*
X41978227Y-63684873D01*
X41972736Y-63679104D01*
X41922260Y-63625374D01*
X45158656Y-60388926D01*
X45467762Y-60079942D01*
X45769003Y-59779067D01*
X46061008Y-59487662D01*
X46342407Y-59207084D01*
X46611830Y-58938693D01*
X46867906Y-58683847D01*
X47109265Y-58443904D01*
X47334537Y-58220224D01*
X47542351Y-58014165D01*
X47731338Y-57827085D01*
X47900126Y-57660344D01*
X48047345Y-57515300D01*
X48171625Y-57393312D01*
X48271596Y-57295738D01*
X48345887Y-57223938D01*
X48393129Y-57179269D01*
X48411949Y-57163091D01*
X48412193Y-57163071D01*
X48422838Y-57188975D01*
G37*
X48422838Y-57188975D02*
X48428842Y-57241068D01*
X48429333Y-57262432D01*
X48429333Y-57351199D01*
X45535271Y-60245029D01*
X45444915Y-60229763D01*
X45354559Y-60214498D01*
X44817613Y-60751135D01*
X44694000Y-60875051D01*
X44580423Y-60989633D01*
X44480241Y-61091431D01*
X44396818Y-61177001D01*
X44333513Y-61242894D01*
X44293689Y-61285664D01*
X44280666Y-61301732D01*
X44298459Y-61317313D01*
X44341984Y-61336996D01*
X44348854Y-61339462D01*
X44417042Y-61363232D01*
X43232383Y-62548033D01*
X43046739Y-62733548D01*
X42869723Y-62910147D01*
X42703615Y-63075574D01*
X42550694Y-63227572D01*
X42413240Y-63363884D01*
X42293532Y-63482256D01*
X42193849Y-63580429D01*
X42116470Y-63656149D01*
X42063676Y-63707158D01*
X42037745Y-63731201D01*
X42035468Y-63732833D01*
X42014199Y-63718927D01*
X41978227Y-63684873D01*
X41972736Y-63679104D01*
X41922260Y-63625374D01*
X45158656Y-60388926D01*
X45467762Y-60079942D01*
X45769003Y-59779067D01*
X46061008Y-59487662D01*
X46342407Y-59207084D01*
X46611830Y-58938693D01*
X46867906Y-58683847D01*
X47109265Y-58443904D01*
X47334537Y-58220224D01*
X47542351Y-58014165D01*
X47731338Y-57827085D01*
X47900126Y-57660344D01*
X48047345Y-57515300D01*
X48171625Y-57393312D01*
X48271596Y-57295738D01*
X48345887Y-57223938D01*
X48393129Y-57179269D01*
X48411949Y-57163091D01*
X48412193Y-57163071D01*
X48422838Y-57188975D01*
G36*
X55731833Y-62230000D02*
G01*
X56684333Y-62230000D01*
X56684333Y-62568666D01*
X55731833Y-62568666D01*
X55731833Y-62843833D01*
X55414333Y-62843833D01*
X55414333Y-62568666D01*
X55279341Y-62568666D01*
X55185411Y-62573755D01*
X55128003Y-62591865D01*
X55102219Y-62627263D01*
X55103164Y-62684215D01*
X55110419Y-62715833D01*
X55131884Y-62796252D01*
X55018640Y-62851792D01*
X54955063Y-62881558D01*
X54906489Y-62901715D01*
X54886996Y-62907333D01*
X54868640Y-62889525D01*
X54844206Y-62844734D01*
X54834548Y-62822238D01*
X54810156Y-62728253D01*
X54801220Y-62618369D01*
X54807618Y-62509560D01*
X54829229Y-62418800D01*
X54837574Y-62399755D01*
X54881249Y-62337678D01*
X54939160Y-62283195D01*
X54946505Y-62278046D01*
X54987274Y-62254655D01*
X55031747Y-62240242D01*
X55091446Y-62232754D01*
X55177893Y-62230142D01*
X55216380Y-62230000D01*
X55414333Y-62230000D01*
X55414333Y-62039500D01*
X55731833Y-62039500D01*
X55731833Y-62230000D01*
G37*
X55731833Y-62230000D02*
X56684333Y-62230000D01*
X56684333Y-62568666D01*
X55731833Y-62568666D01*
X55731833Y-62843833D01*
X55414333Y-62843833D01*
X55414333Y-62568666D01*
X55279341Y-62568666D01*
X55185411Y-62573755D01*
X55128003Y-62591865D01*
X55102219Y-62627263D01*
X55103164Y-62684215D01*
X55110419Y-62715833D01*
X55131884Y-62796252D01*
X55018640Y-62851792D01*
X54955063Y-62881558D01*
X54906489Y-62901715D01*
X54886996Y-62907333D01*
X54868640Y-62889525D01*
X54844206Y-62844734D01*
X54834548Y-62822238D01*
X54810156Y-62728253D01*
X54801220Y-62618369D01*
X54807618Y-62509560D01*
X54829229Y-62418800D01*
X54837574Y-62399755D01*
X54881249Y-62337678D01*
X54939160Y-62283195D01*
X54946505Y-62278046D01*
X54987274Y-62254655D01*
X55031747Y-62240242D01*
X55091446Y-62232754D01*
X55177893Y-62230142D01*
X55216380Y-62230000D01*
X55414333Y-62230000D01*
X55414333Y-62039500D01*
X55731833Y-62039500D01*
X55731833Y-62230000D01*
G36*
X56600595Y-60873758D02*
G01*
X56629312Y-60926647D01*
X56656607Y-61003999D01*
X56679688Y-61096983D01*
X56695765Y-61196766D01*
X56701004Y-61258413D01*
X56697358Y-61437099D01*
X56667339Y-61587279D01*
X56612028Y-61707309D01*
X56532506Y-61795544D01*
X56429854Y-61850339D01*
X56305155Y-61870051D01*
X56298721Y-61870087D01*
X56219132Y-61859524D01*
X56147900Y-61833164D01*
X56142705Y-61830141D01*
X56082537Y-61785849D01*
X56032023Y-61728850D01*
X55985241Y-61650452D01*
X55936270Y-61541961D01*
X55921512Y-61505390D01*
X55886535Y-61421865D01*
X55853235Y-61350417D01*
X55827159Y-61302685D01*
X55820461Y-61293375D01*
X55776357Y-61262169D01*
X55732232Y-61260581D01*
X55702648Y-61289048D01*
X55702347Y-61289814D01*
X55690962Y-61352384D01*
X55690712Y-61439000D01*
X55700600Y-61533150D01*
X55719629Y-61618322D01*
X55722770Y-61628017D01*
X55740215Y-61686617D01*
X55747564Y-61726651D01*
X55746214Y-61735841D01*
X55722308Y-61746615D01*
X55669602Y-61765048D01*
X55605978Y-61785153D01*
X55475570Y-61824637D01*
X55456235Y-61773783D01*
X55430584Y-61682410D01*
X55410948Y-61567476D01*
X55399591Y-61447586D01*
X55398779Y-61341347D01*
X55400664Y-61317401D01*
X55431847Y-61163676D01*
X55489622Y-61041663D01*
X55573415Y-60952202D01*
X55682651Y-60896132D01*
X55690324Y-60893752D01*
X55794284Y-60877602D01*
X55888101Y-60896043D01*
X55973936Y-60950765D01*
X56053950Y-61043456D01*
X56130303Y-61175807D01*
X56173944Y-61271839D01*
X56223373Y-61382201D01*
X56263856Y-61454987D01*
X56298458Y-61493214D01*
X56330239Y-61499902D01*
X56362265Y-61478068D01*
X56371939Y-61466950D01*
X56400458Y-61402268D01*
X56408355Y-61311646D01*
X56396003Y-61205906D01*
X56363774Y-61095870D01*
X56358739Y-61083256D01*
X56309317Y-60963095D01*
X56430680Y-60908631D01*
X56497495Y-60880069D01*
X56549689Y-60860348D01*
X56573248Y-60854166D01*
X56600595Y-60873758D01*
G37*
X56600595Y-60873758D02*
X56629312Y-60926647D01*
X56656607Y-61003999D01*
X56679688Y-61096983D01*
X56695765Y-61196766D01*
X56701004Y-61258413D01*
X56697358Y-61437099D01*
X56667339Y-61587279D01*
X56612028Y-61707309D01*
X56532506Y-61795544D01*
X56429854Y-61850339D01*
X56305155Y-61870051D01*
X56298721Y-61870087D01*
X56219132Y-61859524D01*
X56147900Y-61833164D01*
X56142705Y-61830141D01*
X56082537Y-61785849D01*
X56032023Y-61728850D01*
X55985241Y-61650452D01*
X55936270Y-61541961D01*
X55921512Y-61505390D01*
X55886535Y-61421865D01*
X55853235Y-61350417D01*
X55827159Y-61302685D01*
X55820461Y-61293375D01*
X55776357Y-61262169D01*
X55732232Y-61260581D01*
X55702648Y-61289048D01*
X55702347Y-61289814D01*
X55690962Y-61352384D01*
X55690712Y-61439000D01*
X55700600Y-61533150D01*
X55719629Y-61618322D01*
X55722770Y-61628017D01*
X55740215Y-61686617D01*
X55747564Y-61726651D01*
X55746214Y-61735841D01*
X55722308Y-61746615D01*
X55669602Y-61765048D01*
X55605978Y-61785153D01*
X55475570Y-61824637D01*
X55456235Y-61773783D01*
X55430584Y-61682410D01*
X55410948Y-61567476D01*
X55399591Y-61447586D01*
X55398779Y-61341347D01*
X55400664Y-61317401D01*
X55431847Y-61163676D01*
X55489622Y-61041663D01*
X55573415Y-60952202D01*
X55682651Y-60896132D01*
X55690324Y-60893752D01*
X55794284Y-60877602D01*
X55888101Y-60896043D01*
X55973936Y-60950765D01*
X56053950Y-61043456D01*
X56130303Y-61175807D01*
X56173944Y-61271839D01*
X56223373Y-61382201D01*
X56263856Y-61454987D01*
X56298458Y-61493214D01*
X56330239Y-61499902D01*
X56362265Y-61478068D01*
X56371939Y-61466950D01*
X56400458Y-61402268D01*
X56408355Y-61311646D01*
X56396003Y-61205906D01*
X56363774Y-61095870D01*
X56358739Y-61083256D01*
X56309317Y-60963095D01*
X56430680Y-60908631D01*
X56497495Y-60880069D01*
X56549689Y-60860348D01*
X56573248Y-60854166D01*
X56600595Y-60873758D01*
G36*
X44359219Y-59577138D02*
G01*
X44403524Y-59614312D01*
X44458128Y-59666664D01*
X44461379Y-59669964D01*
X44533823Y-59737193D01*
X44623004Y-59810850D01*
X44709682Y-59875049D01*
X44710124Y-59875352D01*
X44853832Y-59973777D01*
X44318697Y-60509222D01*
X44194968Y-60632652D01*
X44080589Y-60746043D01*
X43979012Y-60846030D01*
X43893686Y-60929246D01*
X43828061Y-60992325D01*
X43785587Y-61031902D01*
X43769859Y-61044666D01*
X43747485Y-61032969D01*
X43700426Y-61001946D01*
X43637841Y-60957702D01*
X43621536Y-60945802D01*
X43526457Y-60873622D01*
X43437749Y-60802005D01*
X43361479Y-60736295D01*
X43303717Y-60681835D01*
X43270530Y-60643970D01*
X43264933Y-60631757D01*
X43279343Y-60611847D01*
X43319936Y-60566599D01*
X43382540Y-60500183D01*
X43462984Y-60416768D01*
X43557094Y-60320522D01*
X43660700Y-60215615D01*
X43769627Y-60106216D01*
X43879704Y-59996493D01*
X43986759Y-59890617D01*
X44086620Y-59792755D01*
X44175113Y-59707076D01*
X44248067Y-59637751D01*
X44301310Y-59588947D01*
X44330669Y-59564834D01*
X44334534Y-59563000D01*
X44359219Y-59577138D01*
G37*
X44359219Y-59577138D02*
X44403524Y-59614312D01*
X44458128Y-59666664D01*
X44461379Y-59669964D01*
X44533823Y-59737193D01*
X44623004Y-59810850D01*
X44709682Y-59875049D01*
X44710124Y-59875352D01*
X44853832Y-59973777D01*
X44318697Y-60509222D01*
X44194968Y-60632652D01*
X44080589Y-60746043D01*
X43979012Y-60846030D01*
X43893686Y-60929246D01*
X43828061Y-60992325D01*
X43785587Y-61031902D01*
X43769859Y-61044666D01*
X43747485Y-61032969D01*
X43700426Y-61001946D01*
X43637841Y-60957702D01*
X43621536Y-60945802D01*
X43526457Y-60873622D01*
X43437749Y-60802005D01*
X43361479Y-60736295D01*
X43303717Y-60681835D01*
X43270530Y-60643970D01*
X43264933Y-60631757D01*
X43279343Y-60611847D01*
X43319936Y-60566599D01*
X43382540Y-60500183D01*
X43462984Y-60416768D01*
X43557094Y-60320522D01*
X43660700Y-60215615D01*
X43769627Y-60106216D01*
X43879704Y-59996493D01*
X43986759Y-59890617D01*
X44086620Y-59792755D01*
X44175113Y-59707076D01*
X44248067Y-59637751D01*
X44301310Y-59588947D01*
X44330669Y-59564834D01*
X44334534Y-59563000D01*
X44359219Y-59577138D01*
G36*
X56224546Y-59349109D02*
G01*
X56372547Y-59404919D01*
X56498457Y-59496073D01*
X56599794Y-59621046D01*
X56635519Y-59685461D01*
X56663585Y-59747136D01*
X56681166Y-59802170D01*
X56690647Y-59863905D01*
X56694409Y-59945683D01*
X56694916Y-60018083D01*
X56689029Y-60160916D01*
X56668801Y-60274548D01*
X56630376Y-60370794D01*
X56569904Y-60461466D01*
X56537774Y-60499851D01*
X56437008Y-60585515D01*
X56309896Y-60649922D01*
X56168371Y-60689898D01*
X56024365Y-60702269D01*
X55889810Y-60683861D01*
X55869416Y-60677668D01*
X55713103Y-60606758D01*
X55587822Y-60508597D01*
X55495244Y-60384789D01*
X55447041Y-60272181D01*
X55422606Y-60154354D01*
X55417264Y-60063822D01*
X55716827Y-60063822D01*
X55747964Y-60156339D01*
X55805527Y-60236062D01*
X55884232Y-60298000D01*
X55978795Y-60337164D01*
X56083933Y-60348566D01*
X56194361Y-60327216D01*
X56232635Y-60311391D01*
X56321562Y-60246996D01*
X56381505Y-60155376D01*
X56408184Y-60043682D01*
X56409166Y-60016300D01*
X56390433Y-59899068D01*
X56337441Y-59802700D01*
X56255002Y-59731763D01*
X56147929Y-59690823D01*
X56057459Y-59682497D01*
X55936709Y-59701711D01*
X55839063Y-59756217D01*
X55762719Y-59847074D01*
X55754966Y-59860360D01*
X55717399Y-59963499D01*
X55716827Y-60063822D01*
X55417264Y-60063822D01*
X55414686Y-60020141D01*
X55422609Y-59884505D01*
X55445708Y-59762410D01*
X55473211Y-59687451D01*
X55562541Y-59551212D01*
X55679600Y-59445043D01*
X55819655Y-59371841D01*
X55977974Y-59334503D01*
X56056940Y-59330166D01*
X56224546Y-59349109D01*
G37*
X56224546Y-59349109D02*
X56372547Y-59404919D01*
X56498457Y-59496073D01*
X56599794Y-59621046D01*
X56635519Y-59685461D01*
X56663585Y-59747136D01*
X56681166Y-59802170D01*
X56690647Y-59863905D01*
X56694409Y-59945683D01*
X56694916Y-60018083D01*
X56689029Y-60160916D01*
X56668801Y-60274548D01*
X56630376Y-60370794D01*
X56569904Y-60461466D01*
X56537774Y-60499851D01*
X56437008Y-60585515D01*
X56309896Y-60649922D01*
X56168371Y-60689898D01*
X56024365Y-60702269D01*
X55889810Y-60683861D01*
X55869416Y-60677668D01*
X55713103Y-60606758D01*
X55587822Y-60508597D01*
X55495244Y-60384789D01*
X55447041Y-60272181D01*
X55422606Y-60154354D01*
X55417264Y-60063822D01*
X55716827Y-60063822D01*
X55747964Y-60156339D01*
X55805527Y-60236062D01*
X55884232Y-60298000D01*
X55978795Y-60337164D01*
X56083933Y-60348566D01*
X56194361Y-60327216D01*
X56232635Y-60311391D01*
X56321562Y-60246996D01*
X56381505Y-60155376D01*
X56408184Y-60043682D01*
X56409166Y-60016300D01*
X56390433Y-59899068D01*
X56337441Y-59802700D01*
X56255002Y-59731763D01*
X56147929Y-59690823D01*
X56057459Y-59682497D01*
X55936709Y-59701711D01*
X55839063Y-59756217D01*
X55762719Y-59847074D01*
X55754966Y-59860360D01*
X55717399Y-59963499D01*
X55716827Y-60063822D01*
X55417264Y-60063822D01*
X55414686Y-60020141D01*
X55422609Y-59884505D01*
X55445708Y-59762410D01*
X55473211Y-59687451D01*
X55562541Y-59551212D01*
X55679600Y-59445043D01*
X55819655Y-59371841D01*
X55977974Y-59334503D01*
X56056940Y-59330166D01*
X56224546Y-59349109D01*
G36*
X50577200Y-55203079D02*
G01*
X50173124Y-55607154D01*
X49769048Y-56011230D01*
X49702368Y-55848250D01*
X50081646Y-55467526D01*
X50460924Y-55086803D01*
X50577200Y-55203079D01*
G37*
X50577200Y-55203079D02*
X50173124Y-55607154D01*
X49769048Y-56011230D01*
X49702368Y-55848250D01*
X50081646Y-55467526D01*
X50460924Y-55086803D01*
X50577200Y-55203079D01*
G36*
X38524218Y-39552057D02*
G01*
X38635611Y-39594692D01*
X38699436Y-39640682D01*
X38762634Y-39723637D01*
X38803553Y-39830693D01*
X38819623Y-39948485D01*
X38808272Y-40063650D01*
X38791069Y-40117135D01*
X38734148Y-40204759D01*
X38647888Y-40280357D01*
X38545115Y-40335695D01*
X38438653Y-40362538D01*
X38406916Y-40363786D01*
X38359855Y-40356265D01*
X38297008Y-40338686D01*
X38282822Y-40333828D01*
X38196905Y-40288928D01*
X38115457Y-40222618D01*
X38056060Y-40149474D01*
X38052139Y-40142583D01*
X38016140Y-40035834D01*
X38011350Y-39916156D01*
X38036511Y-39797789D01*
X38090366Y-39694972D01*
X38091843Y-39693020D01*
X38178013Y-39612772D01*
X38285447Y-39561956D01*
X38404173Y-39541432D01*
X38524218Y-39552057D01*
G37*
X38524218Y-39552057D02*
X38635611Y-39594692D01*
X38699436Y-39640682D01*
X38762634Y-39723637D01*
X38803553Y-39830693D01*
X38819623Y-39948485D01*
X38808272Y-40063650D01*
X38791069Y-40117135D01*
X38734148Y-40204759D01*
X38647888Y-40280357D01*
X38545115Y-40335695D01*
X38438653Y-40362538D01*
X38406916Y-40363786D01*
X38359855Y-40356265D01*
X38297008Y-40338686D01*
X38282822Y-40333828D01*
X38196905Y-40288928D01*
X38115457Y-40222618D01*
X38056060Y-40149474D01*
X38052139Y-40142583D01*
X38016140Y-40035834D01*
X38011350Y-39916156D01*
X38036511Y-39797789D01*
X38090366Y-39694972D01*
X38091843Y-39693020D01*
X38178013Y-39612772D01*
X38285447Y-39561956D01*
X38404173Y-39541432D01*
X38524218Y-39552057D01*
G36*
X40338495Y-38120507D02*
G01*
X40509236Y-38185011D01*
X40662594Y-38281940D01*
X40794119Y-38408055D01*
X40899362Y-38560118D01*
X40973873Y-38734889D01*
X41003773Y-38859461D01*
X41016028Y-39046596D01*
X40990151Y-39225005D01*
X40930051Y-39390938D01*
X40839636Y-39540642D01*
X40722814Y-39670363D01*
X40583495Y-39776350D01*
X40425586Y-39854850D01*
X40252996Y-39902112D01*
X40069634Y-39914381D01*
X39922626Y-39897439D01*
X39743078Y-39842602D01*
X39586408Y-39756226D01*
X39454049Y-39643274D01*
X39347436Y-39508709D01*
X39268004Y-39357491D01*
X39217187Y-39194584D01*
X39196419Y-39024950D01*
X39207134Y-38853552D01*
X39250768Y-38685351D01*
X39328753Y-38525309D01*
X39442526Y-38378390D01*
X39474334Y-38346569D01*
X39619560Y-38229857D01*
X39774237Y-38150652D01*
X39947992Y-38104128D01*
X39962666Y-38101726D01*
X40154822Y-38091665D01*
X40338495Y-38120507D01*
G37*
X40338495Y-38120507D02*
X40509236Y-38185011D01*
X40662594Y-38281940D01*
X40794119Y-38408055D01*
X40899362Y-38560118D01*
X40973873Y-38734889D01*
X41003773Y-38859461D01*
X41016028Y-39046596D01*
X40990151Y-39225005D01*
X40930051Y-39390938D01*
X40839636Y-39540642D01*
X40722814Y-39670363D01*
X40583495Y-39776350D01*
X40425586Y-39854850D01*
X40252996Y-39902112D01*
X40069634Y-39914381D01*
X39922626Y-39897439D01*
X39743078Y-39842602D01*
X39586408Y-39756226D01*
X39454049Y-39643274D01*
X39347436Y-39508709D01*
X39268004Y-39357491D01*
X39217187Y-39194584D01*
X39196419Y-39024950D01*
X39207134Y-38853552D01*
X39250768Y-38685351D01*
X39328753Y-38525309D01*
X39442526Y-38378390D01*
X39474334Y-38346569D01*
X39619560Y-38229857D01*
X39774237Y-38150652D01*
X39947992Y-38104128D01*
X39962666Y-38101726D01*
X40154822Y-38091665D01*
X40338495Y-38120507D01*
G36*
X54704894Y-39577328D02*
G01*
X54805541Y-39641654D01*
X54884488Y-39732898D01*
X54934489Y-39847470D01*
X54941216Y-39877178D01*
X54942638Y-39970838D01*
X54919365Y-40075852D01*
X54876396Y-40173404D01*
X54853379Y-40208012D01*
X54771870Y-40282527D01*
X54666122Y-40332918D01*
X54548860Y-40355695D01*
X54432810Y-40347367D01*
X54390655Y-40334944D01*
X54283189Y-40275462D01*
X54203130Y-40191575D01*
X54150927Y-40090734D01*
X54127030Y-39980394D01*
X54131888Y-39868007D01*
X54165952Y-39761026D01*
X54229672Y-39666905D01*
X54323497Y-39593095D01*
X54345198Y-39581772D01*
X54467478Y-39543797D01*
X54589792Y-39543512D01*
X54704894Y-39577328D01*
G37*
X54704894Y-39577328D02*
X54805541Y-39641654D01*
X54884488Y-39732898D01*
X54934489Y-39847470D01*
X54941216Y-39877178D01*
X54942638Y-39970838D01*
X54919365Y-40075852D01*
X54876396Y-40173404D01*
X54853379Y-40208012D01*
X54771870Y-40282527D01*
X54666122Y-40332918D01*
X54548860Y-40355695D01*
X54432810Y-40347367D01*
X54390655Y-40334944D01*
X54283189Y-40275462D01*
X54203130Y-40191575D01*
X54150927Y-40090734D01*
X54127030Y-39980394D01*
X54131888Y-39868007D01*
X54165952Y-39761026D01*
X54229672Y-39666905D01*
X54323497Y-39593095D01*
X54345198Y-39581772D01*
X54467478Y-39543797D01*
X54589792Y-39543512D01*
X54704894Y-39577328D01*
G36*
X53032910Y-38111285D02*
G01*
X53200795Y-38162591D01*
X53356485Y-38245444D01*
X53494530Y-38358999D01*
X53609483Y-38502410D01*
X53655802Y-38583470D01*
X53725796Y-38766367D01*
X53755917Y-38953952D01*
X53747022Y-39140732D01*
X53699970Y-39321211D01*
X53615622Y-39489897D01*
X53494836Y-39641293D01*
X53489585Y-39646585D01*
X53340836Y-39767404D01*
X53173788Y-39853756D01*
X52994874Y-39903843D01*
X52810531Y-39915871D01*
X52627193Y-39888041D01*
X52625932Y-39887702D01*
X52444853Y-39819326D01*
X52288917Y-39721508D01*
X52159478Y-39599125D01*
X52057890Y-39457054D01*
X51985505Y-39300168D01*
X51943677Y-39133345D01*
X51933758Y-38961459D01*
X51957103Y-38789387D01*
X52015063Y-38622003D01*
X52108993Y-38464185D01*
X52201278Y-38357594D01*
X52348402Y-38238466D01*
X52510576Y-38155118D01*
X52682352Y-38106703D01*
X52858279Y-38092374D01*
X53032910Y-38111285D01*
G37*
X53032910Y-38111285D02*
X53200795Y-38162591D01*
X53356485Y-38245444D01*
X53494530Y-38358999D01*
X53609483Y-38502410D01*
X53655802Y-38583470D01*
X53725796Y-38766367D01*
X53755917Y-38953952D01*
X53747022Y-39140732D01*
X53699970Y-39321211D01*
X53615622Y-39489897D01*
X53494836Y-39641293D01*
X53489585Y-39646585D01*
X53340836Y-39767404D01*
X53173788Y-39853756D01*
X52994874Y-39903843D01*
X52810531Y-39915871D01*
X52627193Y-39888041D01*
X52625932Y-39887702D01*
X52444853Y-39819326D01*
X52288917Y-39721508D01*
X52159478Y-39599125D01*
X52057890Y-39457054D01*
X51985505Y-39300168D01*
X51943677Y-39133345D01*
X51933758Y-38961459D01*
X51957103Y-38789387D01*
X52015063Y-38622003D01*
X52108993Y-38464185D01*
X52201278Y-38357594D01*
X52348402Y-38238466D01*
X52510576Y-38155118D01*
X52682352Y-38106703D01*
X52858279Y-38092374D01*
X53032910Y-38111285D01*
%TD*%
D11*
%TO.C,*%
X60429333Y-27171576D03*
%TD*%
M02*
