%TF.GenerationSoftware,KiCad,Pcbnew,(5.1.7)-1*%
%TF.CreationDate,2020-09-28T14:59:46+02:00*%
%TF.ProjectId,oscar_pcb_svg2shenzen,6f736361-725f-4706-9362-5f7376673273,rev?*%
%TF.SameCoordinates,Original*%
%TF.FileFunction,Profile,NP*%
%FSLAX46Y46*%
G04 Gerber Fmt 4.6, Leading zero omitted, Abs format (unit mm)*
G04 Created by KiCad (PCBNEW (5.1.7)-1) date 2020-09-28 14:59:46*
%MOMM*%
%LPD*%
G01*
G04 APERTURE LIST*
%TA.AperFunction,Profile*%
%ADD10C,0.100000*%
%TD*%
G04 APERTURE END LIST*
D10*
X32333040Y-23453440D02*
X32069360Y-23457400D01*
X32069360Y-23457400D02*
X31805040Y-23470420D01*
X31805040Y-23470420D02*
X31540240Y-23492880D01*
X31540240Y-23492880D02*
X31275150Y-23525130D01*
X31275150Y-23525130D02*
X31142550Y-23545050D01*
X31142550Y-23545050D02*
X31009960Y-23567540D01*
X31009960Y-23567540D02*
X30877390Y-23592660D01*
X30877390Y-23592660D02*
X30744870Y-23620460D01*
X30744870Y-23620460D02*
X30612390Y-23650980D01*
X30612390Y-23650980D02*
X30480030Y-23684250D01*
X30480030Y-23684250D02*
X30347780Y-23720350D01*
X30347780Y-23720350D02*
X30215660Y-23759290D01*
X30215660Y-23759290D02*
X30185100Y-23793170D01*
X30185100Y-23793170D02*
X30149950Y-23836280D01*
X30149950Y-23836280D02*
X30104260Y-23897520D01*
X30104260Y-23897520D02*
X30050060Y-23977400D01*
X30050060Y-23977400D02*
X29989390Y-24076400D01*
X29989390Y-24076400D02*
X29924290Y-24195050D01*
X29924290Y-24195050D02*
X29856770Y-24333850D01*
X29856770Y-24333850D02*
X29788860Y-24493310D01*
X29788860Y-24493310D02*
X29755420Y-24580950D01*
X29755420Y-24580950D02*
X29722620Y-24673940D01*
X29722620Y-24673940D02*
X29690760Y-24772360D01*
X29690760Y-24772360D02*
X29660070Y-24876240D01*
X29660070Y-24876240D02*
X29630810Y-24985680D01*
X29630810Y-24985680D02*
X29603240Y-25100720D01*
X29603240Y-25100720D02*
X29577600Y-25221440D01*
X29577600Y-25221440D02*
X29554140Y-25347890D01*
X29554140Y-25347890D02*
X29533150Y-25480140D01*
X29533150Y-25480140D02*
X29514840Y-25618240D01*
X29514840Y-25618240D02*
X29499500Y-25762280D01*
X29499500Y-25762280D02*
X29487360Y-25912300D01*
X29487360Y-25912300D02*
X29478680Y-26068370D01*
X29478680Y-26068370D02*
X29473720Y-26230570D01*
X29473720Y-26230570D02*
X29472720Y-26398930D01*
X29472720Y-26398930D02*
X29475950Y-26573550D01*
X29475950Y-26573550D02*
X29483660Y-26754460D01*
X29483660Y-26754460D02*
X29496110Y-26941750D01*
X29496110Y-26941750D02*
X29513540Y-27135470D01*
X29513540Y-27135470D02*
X29536190Y-27335680D01*
X29536190Y-27335680D02*
X29564350Y-27542440D01*
X29564350Y-27542440D02*
X29598250Y-27755830D01*
X29598250Y-27755830D02*
X29638170Y-27975910D01*
X29638170Y-27975910D02*
X29684330Y-28202740D01*
X29684330Y-28202740D02*
X29737010Y-28436400D01*
X29737010Y-28436400D02*
X29796440Y-28676900D01*
X29796440Y-28676900D02*
X29862900Y-28924400D01*
X29862900Y-28924400D02*
X29936630Y-29178800D01*
X29936630Y-29178800D02*
X30017880Y-29440300D01*
X30017880Y-29440300D02*
X30106910Y-29709000D01*
X30106910Y-29709000D02*
X30203970Y-29984800D01*
X30203970Y-29984800D02*
X30309340Y-30267900D01*
X30309340Y-30267900D02*
X30423240Y-30558300D01*
X30423240Y-30558300D02*
X30545930Y-30856100D01*
X30545930Y-30856100D02*
X30677680Y-31161400D01*
X30677680Y-31161400D02*
X30818720Y-31474100D01*
X30818720Y-31474100D02*
X30969330Y-31794500D01*
X30969330Y-31794500D02*
X31129750Y-32122400D01*
X31129750Y-32122400D02*
X31300220Y-32458100D01*
X31300220Y-32458100D02*
X31481030Y-32801500D01*
X31481030Y-32801500D02*
X31672410Y-33152700D01*
X31672410Y-33152700D02*
X31874600Y-33511900D01*
X31874600Y-33511900D02*
X32087890Y-33879000D01*
X32087890Y-33879000D02*
X32312520Y-34254100D01*
X32312520Y-34254100D02*
X32548720Y-34637300D01*
X32548720Y-34637300D02*
X32796790Y-35028600D01*
X32796790Y-35028600D02*
X32354100Y-35101400D01*
X32354100Y-35101400D02*
X31954550Y-35175000D01*
X31954550Y-35175000D02*
X31599950Y-35247100D01*
X31599950Y-35247100D02*
X31292180Y-35315400D01*
X31292180Y-35315400D02*
X31033070Y-35377500D01*
X31033070Y-35377500D02*
X30824490Y-35431100D01*
X30824490Y-35431100D02*
X30566280Y-35503300D01*
X30566280Y-35503300D02*
X30545950Y-35512400D01*
X30545950Y-35512400D02*
X30530240Y-35527300D01*
X30530240Y-35527300D02*
X30520290Y-35546500D01*
X30520290Y-35546500D02*
X30517200Y-35568600D01*
X30517200Y-35568600D02*
X30517200Y-37748300D01*
X30517200Y-37748300D02*
X30522070Y-37773300D01*
X30522070Y-37773300D02*
X30535000Y-37794200D01*
X30535000Y-37794200D02*
X30554340Y-37809500D01*
X30554340Y-37809500D02*
X30578560Y-37817000D01*
X30578560Y-37817000D02*
X30681910Y-37831900D01*
X30681910Y-37831900D02*
X30778140Y-37850300D01*
X30778140Y-37850300D02*
X30867500Y-37871700D01*
X30867500Y-37871700D02*
X30950240Y-37896000D01*
X30950240Y-37896000D02*
X31026640Y-37922800D01*
X31026640Y-37922800D02*
X31096900Y-37952000D01*
X31096900Y-37952000D02*
X31161320Y-37983300D01*
X31161320Y-37983300D02*
X31220120Y-38016400D01*
X31220120Y-38016400D02*
X31273570Y-38051200D01*
X31273570Y-38051200D02*
X31321920Y-38087400D01*
X31321920Y-38087400D02*
X31365400Y-38124600D01*
X31365400Y-38124600D02*
X31404300Y-38162600D01*
X31404300Y-38162600D02*
X31438840Y-38201300D01*
X31438840Y-38201300D02*
X31469280Y-38240400D01*
X31469280Y-38240400D02*
X31495880Y-38279500D01*
X31495880Y-38279500D02*
X31518870Y-38318500D01*
X31518870Y-38318500D02*
X31538520Y-38356900D01*
X31538520Y-38356900D02*
X31555080Y-38394900D01*
X31555080Y-38394900D02*
X31579950Y-38467600D01*
X31579950Y-38467600D02*
X31595450Y-38534700D01*
X31595450Y-38534700D02*
X31603620Y-38594200D01*
X31603620Y-38594200D02*
X31606470Y-38643900D01*
X31606470Y-38643900D02*
X31606030Y-38681800D01*
X31606030Y-38681800D02*
X31603240Y-38714700D01*
X31603240Y-38714700D02*
X31605630Y-38839700D01*
X31605630Y-38839700D02*
X31612420Y-38970900D01*
X31612420Y-38970900D02*
X31623090Y-39106900D01*
X31623090Y-39106900D02*
X31637070Y-39246700D01*
X31637070Y-39246700D02*
X31477600Y-39371700D01*
X31477600Y-39371700D02*
X31317850Y-39493600D01*
X31317850Y-39493600D02*
X31158490Y-39611800D01*
X31158490Y-39611800D02*
X31000180Y-39725600D01*
X31000180Y-39725600D02*
X30843570Y-39834700D01*
X30843570Y-39834700D02*
X30689330Y-39938100D01*
X30689330Y-39938100D02*
X30538120Y-40035600D01*
X30538120Y-40035600D02*
X30390600Y-40126500D01*
X30390600Y-40126500D02*
X30247420Y-40210000D01*
X30247420Y-40210000D02*
X30109270Y-40286000D01*
X30109270Y-40286000D02*
X29976780Y-40353400D01*
X29976780Y-40353400D02*
X29850620Y-40411800D01*
X29850620Y-40411800D02*
X29731440Y-40460700D01*
X29731440Y-40460700D02*
X29619940Y-40499600D01*
X29619940Y-40499600D02*
X29516730Y-40527600D01*
X29516730Y-40527600D02*
X29422500Y-40544400D01*
X29422500Y-40544400D02*
X29782000Y-40921000D01*
X29782000Y-40921000D02*
X30143310Y-41294100D01*
X30143310Y-41294100D02*
X30547360Y-41703400D01*
X30547360Y-41703400D02*
X30576800Y-41739500D01*
X30576800Y-41739500D02*
X30587390Y-41758000D01*
X30587390Y-41758000D02*
X30595320Y-41777000D01*
X30595320Y-41777000D02*
X30600650Y-41796300D01*
X30600650Y-41796300D02*
X30603470Y-41816000D01*
X30603470Y-41816000D02*
X30601810Y-41856500D01*
X30601810Y-41856500D02*
X30590860Y-41898100D01*
X30590860Y-41898100D02*
X30571170Y-41940700D01*
X30571170Y-41940700D02*
X30543320Y-41984400D01*
X30543320Y-41984400D02*
X30507810Y-42028500D01*
X30507810Y-42028500D02*
X30465190Y-42073400D01*
X30465190Y-42073400D02*
X30416020Y-42118700D01*
X30416020Y-42118700D02*
X30360860Y-42164200D01*
X30360860Y-42164200D02*
X30300210Y-42209900D01*
X30300210Y-42209900D02*
X30234650Y-42255600D01*
X30234650Y-42255600D02*
X30164730Y-42301100D01*
X30164730Y-42301100D02*
X30013890Y-42391000D01*
X30013890Y-42391000D02*
X29852100Y-42478400D01*
X29852100Y-42478400D02*
X29683680Y-42562000D01*
X29683680Y-42562000D02*
X29513010Y-42640800D01*
X29513010Y-42640800D02*
X29344450Y-42713300D01*
X29344450Y-42713300D02*
X29182330Y-42778600D01*
X29182330Y-42778600D02*
X29031030Y-42835300D01*
X29031030Y-42835300D02*
X28894900Y-42882000D01*
X28894900Y-42882000D02*
X28778290Y-42918000D01*
X28778290Y-42918000D02*
X28802250Y-42961000D01*
X28802250Y-42961000D02*
X28833870Y-43012900D01*
X28833870Y-43012900D02*
X28880080Y-43083900D01*
X28880080Y-43083900D02*
X28941980Y-43172600D01*
X28941980Y-43172600D02*
X29020700Y-43277700D01*
X29020700Y-43277700D02*
X29117350Y-43398500D01*
X29117350Y-43398500D02*
X29233040Y-43533300D01*
X29233040Y-43533300D02*
X29368890Y-43681600D01*
X29368890Y-43681600D02*
X29526020Y-43841800D01*
X29526020Y-43841800D02*
X29705520Y-44012800D01*
X29705520Y-44012800D02*
X29908550Y-44193700D01*
X29908550Y-44193700D02*
X30136190Y-44383100D01*
X30136190Y-44383100D02*
X30259580Y-44480700D01*
X30259580Y-44480700D02*
X30389560Y-44580100D01*
X30389560Y-44580100D02*
X30526250Y-44681000D01*
X30526250Y-44681000D02*
X30669800Y-44783400D01*
X30669800Y-44783400D02*
X30820330Y-44887100D01*
X30820330Y-44887100D02*
X30978000Y-44991900D01*
X30978000Y-44991900D02*
X31142930Y-45097700D01*
X31142930Y-45097700D02*
X31315270Y-45204600D01*
X31315270Y-45204600D02*
X31495160Y-45312100D01*
X31495160Y-45312100D02*
X31682740Y-45420100D01*
X31682740Y-45420100D02*
X31878160Y-45528600D01*
X31878160Y-45528600D02*
X32081520Y-45637500D01*
X32081520Y-45637500D02*
X32293010Y-45746500D01*
X32293010Y-45746500D02*
X32512750Y-45855600D01*
X32512750Y-45855600D02*
X32740870Y-45964500D01*
X32740870Y-45964500D02*
X32977510Y-46073100D01*
X32977510Y-46073100D02*
X33222810Y-46181500D01*
X33222810Y-46181500D02*
X33476930Y-46289200D01*
X33476930Y-46289200D02*
X33739980Y-46396200D01*
X33739980Y-46396200D02*
X34012110Y-46502300D01*
X34012110Y-46502300D02*
X34293490Y-46607600D01*
X34293490Y-46607600D02*
X34584210Y-46711800D01*
X34584210Y-46711800D02*
X34884440Y-46814700D01*
X34884440Y-46814700D02*
X35194300Y-46916200D01*
X35194300Y-46916200D02*
X35513940Y-47016100D01*
X35513940Y-47016100D02*
X35843500Y-47114500D01*
X35843500Y-47114500D02*
X36183130Y-47210900D01*
X36183130Y-47210900D02*
X36532950Y-47305500D01*
X36532950Y-47305500D02*
X36893100Y-47397900D01*
X36893100Y-47397900D02*
X37263800Y-47487900D01*
X37263800Y-47487900D02*
X37645000Y-47575700D01*
X37645000Y-47575700D02*
X38037000Y-47661000D01*
X38037000Y-47661000D02*
X38439900Y-47743500D01*
X38439900Y-47743500D02*
X38853900Y-47823400D01*
X38853900Y-47823400D02*
X39279000Y-47900100D01*
X39279000Y-47900100D02*
X39715400Y-47973800D01*
X39715400Y-47973800D02*
X40163300Y-48044300D01*
X40163300Y-48044300D02*
X40622800Y-48111400D01*
X40622800Y-48111400D02*
X40464400Y-48210600D01*
X40464400Y-48210600D02*
X40265300Y-48338800D01*
X40265300Y-48338800D02*
X40029300Y-48494700D01*
X40029300Y-48494700D02*
X39760600Y-48677500D01*
X39760600Y-48677500D02*
X39463400Y-48886100D01*
X39463400Y-48886100D02*
X39141700Y-49119300D01*
X39141700Y-49119300D02*
X38799600Y-49376200D01*
X38799600Y-49376200D02*
X38441100Y-49656000D01*
X38441100Y-49656000D02*
X38257100Y-49803900D01*
X38257100Y-49803900D02*
X38070500Y-49957300D01*
X38070500Y-49957300D02*
X37881800Y-50115500D01*
X37881800Y-50115500D02*
X37691700Y-50279100D01*
X37691700Y-50279100D02*
X37500500Y-50447400D01*
X37500500Y-50447400D02*
X37308900Y-50620700D01*
X37308900Y-50620700D02*
X37117210Y-50798300D01*
X37117210Y-50798300D02*
X36926090Y-50980700D01*
X36926090Y-50980700D02*
X36736030Y-51167400D01*
X36736030Y-51167400D02*
X36547510Y-51358300D01*
X36547510Y-51358300D02*
X36361040Y-51553200D01*
X36361040Y-51553200D02*
X36177150Y-51752300D01*
X36177150Y-51752300D02*
X35996340Y-51955300D01*
X35996340Y-51955300D02*
X35819120Y-52162000D01*
X35819120Y-52162000D02*
X35646020Y-52372200D01*
X35646020Y-52372200D02*
X35477540Y-52586100D01*
X35477540Y-52586100D02*
X35314180Y-52803100D01*
X35314180Y-52803100D02*
X35156470Y-53023600D01*
X35156470Y-53023600D02*
X35004920Y-53247100D01*
X35004920Y-53247100D02*
X34860030Y-53473500D01*
X34860030Y-53473500D02*
X34722320Y-53702800D01*
X34722320Y-53702800D02*
X34592290Y-53934800D01*
X34592290Y-53934800D02*
X34470480Y-54169300D01*
X34470480Y-54169300D02*
X34357360Y-54406200D01*
X34357360Y-54406200D02*
X34253470Y-54645700D01*
X34253470Y-54645700D02*
X34159330Y-54887200D01*
X34159330Y-54887200D02*
X34116050Y-55008800D01*
X34116050Y-55008800D02*
X34075430Y-55131000D01*
X34075430Y-55131000D02*
X34037470Y-55253400D01*
X34037470Y-55253400D02*
X34002280Y-55376500D01*
X34002280Y-55376500D02*
X33969900Y-55500000D01*
X33969900Y-55500000D02*
X33940400Y-55623800D01*
X33940400Y-55623800D02*
X33913860Y-55748200D01*
X33913860Y-55748200D02*
X33890300Y-55873000D01*
X33890300Y-55873000D02*
X33869830Y-55998200D01*
X33869830Y-55998200D02*
X33852510Y-56123700D01*
X33852510Y-56123700D02*
X33838380Y-56249500D01*
X33838380Y-56249500D02*
X33827510Y-56375700D01*
X33827510Y-56375700D02*
X33819990Y-56502300D01*
X33819990Y-56502300D02*
X33815850Y-56629100D01*
X33815850Y-56629100D02*
X33815150Y-56756200D01*
X33815150Y-56756200D02*
X33817990Y-56883700D01*
X33817990Y-56883700D02*
X33824410Y-57011300D01*
X33824410Y-57011300D02*
X33834480Y-57139300D01*
X33834480Y-57139300D02*
X33848270Y-57267400D01*
X33848270Y-57267400D02*
X33865840Y-57395800D01*
X33865840Y-57395800D02*
X33887240Y-57524400D01*
X33887240Y-57524400D02*
X33912540Y-57653100D01*
X33912540Y-57653100D02*
X33941810Y-57782000D01*
X33941810Y-57782000D02*
X33975110Y-57911100D01*
X33975110Y-57911100D02*
X34012510Y-58040300D01*
X34012510Y-58040300D02*
X34054090Y-58169600D01*
X34054090Y-58169600D02*
X34099860Y-58299000D01*
X34099860Y-58299000D02*
X34149950Y-58428400D01*
X34149950Y-58428400D02*
X34204380Y-58558000D01*
X34204380Y-58558000D02*
X34263210Y-58687600D01*
X34263210Y-58687600D02*
X34326550Y-58817400D01*
X34326550Y-58817400D02*
X34394420Y-58947000D01*
X34394420Y-58947000D02*
X34466890Y-59076700D01*
X34466890Y-59076700D02*
X34544050Y-59206300D01*
X34544050Y-59206300D02*
X34625930Y-59335900D01*
X34625930Y-59335900D02*
X34712610Y-59465700D01*
X34712610Y-59465700D02*
X34804160Y-59595100D01*
X34804160Y-59595100D02*
X34900650Y-59724500D01*
X34900650Y-59724500D02*
X35002110Y-59853900D01*
X35002110Y-59853900D02*
X35108630Y-59983200D01*
X35108630Y-59983200D02*
X35220290Y-60112400D01*
X35220290Y-60112400D02*
X35337110Y-60241300D01*
X35337110Y-60241300D02*
X35459190Y-60370200D01*
X35459190Y-60370200D02*
X35586570Y-60498800D01*
X35586570Y-60498800D02*
X35471130Y-67109700D01*
X35471130Y-67109700D02*
X35471600Y-67175100D01*
X35471600Y-67175100D02*
X35475200Y-67239600D01*
X35475200Y-67239600D02*
X35481810Y-67303300D01*
X35481810Y-67303300D02*
X35491390Y-67366000D01*
X35491390Y-67366000D02*
X35503840Y-67427700D01*
X35503840Y-67427700D02*
X35519110Y-67488100D01*
X35519110Y-67488100D02*
X35537100Y-67547400D01*
X35537100Y-67547400D02*
X35557750Y-67605300D01*
X35557750Y-67605300D02*
X35580970Y-67661900D01*
X35580970Y-67661900D02*
X35606680Y-67716900D01*
X35606680Y-67716900D02*
X35634820Y-67770400D01*
X35634820Y-67770400D02*
X35665310Y-67822200D01*
X35665310Y-67822200D02*
X35698070Y-67872500D01*
X35698070Y-67872500D02*
X35733030Y-67920700D01*
X35733030Y-67920700D02*
X35770090Y-67967100D01*
X35770090Y-67967100D02*
X35809200Y-68011600D01*
X35809200Y-68011600D02*
X35850290Y-68054000D01*
X35850290Y-68054000D02*
X35893260Y-68094300D01*
X35893260Y-68094300D02*
X35938030Y-68132300D01*
X35938030Y-68132300D02*
X35984550Y-68168000D01*
X35984550Y-68168000D02*
X36032730Y-68201300D01*
X36032730Y-68201300D02*
X36082490Y-68232200D01*
X36082490Y-68232200D02*
X36133750Y-68260500D01*
X36133750Y-68260500D02*
X36186450Y-68286200D01*
X36186450Y-68286200D02*
X36240520Y-68309300D01*
X36240520Y-68309300D02*
X36295830Y-68329300D01*
X36295830Y-68329300D02*
X36352370Y-68346700D01*
X36352370Y-68346700D02*
X36410030Y-68361100D01*
X36410030Y-68361100D02*
X36468750Y-68372300D01*
X36468750Y-68372300D02*
X36528430Y-68380600D01*
X36528430Y-68380600D02*
X36589010Y-68385500D01*
X36589010Y-68385500D02*
X36650410Y-68387200D01*
X36650410Y-68387200D02*
X42111600Y-68387200D01*
X42111600Y-68387200D02*
X42168300Y-68385500D01*
X42168300Y-68385500D02*
X42224300Y-68381100D01*
X42224300Y-68381100D02*
X42279600Y-68374100D01*
X42279600Y-68374100D02*
X42334100Y-68364800D01*
X42334100Y-68364800D02*
X42387800Y-68352900D01*
X42387800Y-68352900D02*
X42440500Y-68338500D01*
X42440500Y-68338500D02*
X42543000Y-68302800D01*
X42543000Y-68302800D02*
X42641000Y-68258100D01*
X42641000Y-68258100D02*
X42734000Y-68205100D01*
X42734000Y-68205100D02*
X42821600Y-68144000D01*
X42821600Y-68144000D02*
X42903100Y-68075400D01*
X42903100Y-68075400D02*
X42978200Y-67999600D01*
X42978200Y-67999600D02*
X43046300Y-67917400D01*
X43046300Y-67917400D02*
X43106900Y-67829100D01*
X43106900Y-67829100D02*
X43159400Y-67735000D01*
X43159400Y-67735000D02*
X43203300Y-67635800D01*
X43203300Y-67635800D02*
X43222000Y-67584500D01*
X43222000Y-67584500D02*
X43238300Y-67532100D01*
X43238300Y-67532100D02*
X43252200Y-67478400D01*
X43252200Y-67478400D02*
X43263600Y-67423900D01*
X43263600Y-67423900D02*
X43272500Y-67368300D01*
X43272500Y-67368300D02*
X43278900Y-67312100D01*
X43278900Y-67312100D02*
X43291300Y-67190800D01*
X43291300Y-67190800D02*
X43307700Y-67073500D01*
X43307700Y-67073500D02*
X43327700Y-66960000D01*
X43327700Y-66960000D02*
X43351300Y-66850700D01*
X43351300Y-66850700D02*
X43378500Y-66744800D01*
X43378500Y-66744800D02*
X43408900Y-66642800D01*
X43408900Y-66642800D02*
X43442600Y-66544300D01*
X43442600Y-66544300D02*
X43479400Y-66449500D01*
X43479400Y-66449500D02*
X43519100Y-66358100D01*
X43519100Y-66358100D02*
X43561600Y-66270300D01*
X43561600Y-66270300D02*
X43606800Y-66185700D01*
X43606800Y-66185700D02*
X43654600Y-66104500D01*
X43654600Y-66104500D02*
X43704800Y-66026600D01*
X43704800Y-66026600D02*
X43757400Y-65951900D01*
X43757400Y-65951900D02*
X43812100Y-65880200D01*
X43812100Y-65880200D02*
X43868800Y-65811600D01*
X43868800Y-65811600D02*
X43927500Y-65746000D01*
X43927500Y-65746000D02*
X43987900Y-65683300D01*
X43987900Y-65683300D02*
X44050000Y-65623400D01*
X44050000Y-65623400D02*
X44113600Y-65566300D01*
X44113600Y-65566300D02*
X44178700Y-65512000D01*
X44178700Y-65512000D02*
X44244900Y-65460300D01*
X44244900Y-65460300D02*
X44312400Y-65411300D01*
X44312400Y-65411300D02*
X44380800Y-65364500D01*
X44380800Y-65364500D02*
X44520100Y-65278800D01*
X44520100Y-65278800D02*
X44661900Y-65202200D01*
X44661900Y-65202200D02*
X44805100Y-65134200D01*
X44805100Y-65134200D02*
X44948800Y-65074600D01*
X44948800Y-65074600D02*
X45091800Y-65022800D01*
X45091800Y-65022800D02*
X45233000Y-64978000D01*
X45233000Y-64978000D02*
X45371600Y-64939900D01*
X45371600Y-64939900D02*
X45506400Y-64908000D01*
X45506400Y-64908000D02*
X45636300Y-64881500D01*
X45636300Y-64881500D02*
X45760300Y-64860300D01*
X45760300Y-64860300D02*
X45877700Y-64843500D01*
X45877700Y-64843500D02*
X45986900Y-64830700D01*
X45986900Y-64830700D02*
X46177600Y-64815100D01*
X46177600Y-64815100D02*
X46324000Y-64809200D01*
X46324000Y-64809200D02*
X46417900Y-64808900D01*
X46417900Y-64808900D02*
X46451100Y-64809500D01*
X46451100Y-64809500D02*
X46484400Y-64808900D01*
X46484400Y-64808900D02*
X46578300Y-64809200D01*
X46578300Y-64809200D02*
X46724700Y-64815100D01*
X46724700Y-64815100D02*
X46915200Y-64830700D01*
X46915200Y-64830700D02*
X47024500Y-64843700D01*
X47024500Y-64843700D02*
X47141600Y-64860300D01*
X47141600Y-64860300D02*
X47265800Y-64881700D01*
X47265800Y-64881700D02*
X47395700Y-64908000D01*
X47395700Y-64908000D02*
X47530400Y-64939900D01*
X47530400Y-64939900D02*
X47669000Y-64978200D01*
X47669000Y-64978200D02*
X47810100Y-65022800D01*
X47810100Y-65022800D02*
X47953100Y-65074800D01*
X47953100Y-65074800D02*
X48096700Y-65134400D01*
X48096700Y-65134400D02*
X48239800Y-65202200D01*
X48239800Y-65202200D02*
X48381700Y-65278800D01*
X48381700Y-65278800D02*
X48520900Y-65364700D01*
X48520900Y-65364700D02*
X48589400Y-65411300D01*
X48589400Y-65411300D02*
X48656800Y-65460300D01*
X48656800Y-65460300D02*
X48723000Y-65512100D01*
X48723000Y-65512100D02*
X48788100Y-65566500D01*
X48788100Y-65566500D02*
X48851800Y-65623600D01*
X48851800Y-65623600D02*
X48913800Y-65683300D01*
X48913800Y-65683300D02*
X48974200Y-65746000D01*
X48974200Y-65746000D02*
X49033000Y-65811600D01*
X49033000Y-65811600D02*
X49089700Y-65880200D01*
X49089700Y-65880200D02*
X49144400Y-65951900D01*
X49144400Y-65951900D02*
X49196900Y-66026600D01*
X49196900Y-66026600D02*
X49247200Y-66104500D01*
X49247200Y-66104500D02*
X49294900Y-66185700D01*
X49294900Y-66185700D02*
X49340200Y-66270100D01*
X49340200Y-66270100D02*
X49382700Y-66358100D01*
X49382700Y-66358100D02*
X49422400Y-66449300D01*
X49422400Y-66449300D02*
X49459300Y-66544300D01*
X49459300Y-66544300D02*
X49492900Y-66642600D01*
X49492900Y-66642600D02*
X49523300Y-66744700D01*
X49523300Y-66744700D02*
X49550500Y-66850300D01*
X49550500Y-66850300D02*
X49574100Y-66959900D01*
X49574100Y-66959900D02*
X49594300Y-67073200D01*
X49594300Y-67073200D02*
X49610600Y-67190500D01*
X49610600Y-67190500D02*
X49623000Y-67311800D01*
X49623000Y-67311800D02*
X49629300Y-67368200D01*
X49629300Y-67368200D02*
X49638300Y-67423500D01*
X49638300Y-67423500D02*
X49649700Y-67478200D01*
X49649700Y-67478200D02*
X49663600Y-67531700D01*
X49663600Y-67531700D02*
X49679900Y-67584200D01*
X49679900Y-67584200D02*
X49698600Y-67635700D01*
X49698600Y-67635700D02*
X49742400Y-67734900D01*
X49742400Y-67734900D02*
X49795100Y-67829000D01*
X49795100Y-67829000D02*
X49855500Y-67917300D01*
X49855500Y-67917300D02*
X49923600Y-67999600D01*
X49923600Y-67999600D02*
X49998700Y-68075200D01*
X49998700Y-68075200D02*
X50080400Y-68144000D01*
X50080400Y-68144000D02*
X50168000Y-68205000D01*
X50168000Y-68205000D02*
X50261100Y-68258100D01*
X50261100Y-68258100D02*
X50359100Y-68302800D01*
X50359100Y-68302800D02*
X50461700Y-68338500D01*
X50461700Y-68338500D02*
X50514300Y-68352700D01*
X50514300Y-68352700D02*
X50568000Y-68364800D01*
X50568000Y-68364800D02*
X50622500Y-68374100D01*
X50622500Y-68374100D02*
X50677900Y-68381100D01*
X50677900Y-68381100D02*
X50733900Y-68385500D01*
X50733900Y-68385500D02*
X50790700Y-68387200D01*
X50790700Y-68387200D02*
X56249900Y-68387200D01*
X56249900Y-68387200D02*
X56311400Y-68385500D01*
X56311400Y-68385500D02*
X56372200Y-68380600D01*
X56372200Y-68380600D02*
X56432000Y-68372300D01*
X56432000Y-68372300D02*
X56490900Y-68361100D01*
X56490900Y-68361100D02*
X56548600Y-68346700D01*
X56548600Y-68346700D02*
X56605400Y-68329300D01*
X56605400Y-68329300D02*
X56660700Y-68309300D01*
X56660700Y-68309300D02*
X56714900Y-68286200D01*
X56714900Y-68286200D02*
X56767700Y-68260500D01*
X56767700Y-68260500D02*
X56819000Y-68232200D01*
X56819000Y-68232200D02*
X56869000Y-68201300D01*
X56869000Y-68201300D02*
X56917000Y-68168000D01*
X56917000Y-68168000D02*
X56963700Y-68132300D01*
X56963700Y-68132300D02*
X57008400Y-68094300D01*
X57008400Y-68094300D02*
X57051400Y-68054000D01*
X57051400Y-68054000D02*
X57092500Y-68011600D01*
X57092500Y-68011600D02*
X57131700Y-67967100D01*
X57131700Y-67967100D02*
X57168700Y-67920700D01*
X57168700Y-67920700D02*
X57203600Y-67872500D01*
X57203600Y-67872500D02*
X57236300Y-67822200D01*
X57236300Y-67822200D02*
X57266700Y-67770400D01*
X57266700Y-67770400D02*
X57294900Y-67716900D01*
X57294900Y-67716900D02*
X57320600Y-67661900D01*
X57320600Y-67661900D02*
X57343700Y-67605300D01*
X57343700Y-67605300D02*
X57364200Y-67547400D01*
X57364200Y-67547400D02*
X57382100Y-67488100D01*
X57382100Y-67488100D02*
X57397200Y-67427700D01*
X57397200Y-67427700D02*
X57409600Y-67366000D01*
X57409600Y-67366000D02*
X57418900Y-67303300D01*
X57418900Y-67303300D02*
X57425400Y-67239600D01*
X57425400Y-67239600D02*
X57428800Y-67175100D01*
X57428800Y-67175100D02*
X57429100Y-67109700D01*
X57429100Y-67109700D02*
X57317000Y-60500500D01*
X57317000Y-60500500D02*
X57576400Y-60287900D01*
X57576400Y-60287900D02*
X57848600Y-60075000D01*
X57848600Y-60075000D02*
X58134000Y-59862400D01*
X58134000Y-59862400D02*
X58433000Y-59651000D01*
X58433000Y-59651000D02*
X58745700Y-59440900D01*
X58745700Y-59440900D02*
X59072700Y-59232800D01*
X59072700Y-59232800D02*
X59413900Y-59027300D01*
X59413900Y-59027300D02*
X59590000Y-58925700D01*
X59590000Y-58925700D02*
X59769700Y-58825000D01*
X59769700Y-58825000D02*
X59963500Y-58715100D01*
X59963500Y-58715100D02*
X60151700Y-58602400D01*
X60151700Y-58602400D02*
X60334100Y-58487000D01*
X60334100Y-58487000D02*
X60511100Y-58369000D01*
X60511100Y-58369000D02*
X60682400Y-58248400D01*
X60682400Y-58248400D02*
X60848400Y-58125300D01*
X60848400Y-58125300D02*
X61009000Y-57999600D01*
X61009000Y-57999600D02*
X61164300Y-57871400D01*
X61164300Y-57871400D02*
X61314400Y-57740700D01*
X61314400Y-57740700D02*
X61459300Y-57607600D01*
X61459300Y-57607600D02*
X61599100Y-57472100D01*
X61599100Y-57472100D02*
X61733900Y-57334300D01*
X61733900Y-57334300D02*
X61863700Y-57194200D01*
X61863700Y-57194200D02*
X61988500Y-57051900D01*
X61988500Y-57051900D02*
X62108600Y-56907200D01*
X62108600Y-56907200D02*
X62223700Y-56760400D01*
X62223700Y-56760400D02*
X62334300Y-56611500D01*
X62334300Y-56611500D02*
X62440300Y-56460500D01*
X62440300Y-56460500D02*
X62541500Y-56307300D01*
X62541500Y-56307300D02*
X62638300Y-56152200D01*
X62638300Y-56152200D02*
X62730500Y-55995100D01*
X62730500Y-55995100D02*
X62818400Y-55836000D01*
X62818400Y-55836000D02*
X62902100Y-55675000D01*
X62902100Y-55675000D02*
X62981200Y-55512100D01*
X62981200Y-55512100D02*
X63056500Y-55347300D01*
X63056500Y-55347300D02*
X63127300Y-55180700D01*
X63127300Y-55180700D02*
X63194200Y-55012400D01*
X63194200Y-55012400D02*
X63257100Y-54842400D01*
X63257100Y-54842400D02*
X63316000Y-54670700D01*
X63316000Y-54670700D02*
X63371000Y-54497300D01*
X63371000Y-54497300D02*
X63422300Y-54322300D01*
X63422300Y-54322300D02*
X63469900Y-54145700D01*
X63469900Y-54145700D02*
X63513500Y-53967700D01*
X63513500Y-53967700D02*
X63553800Y-53788200D01*
X63553800Y-53788200D02*
X63590300Y-53607100D01*
X63590300Y-53607100D02*
X63623400Y-53424600D01*
X63623400Y-53424600D02*
X63653100Y-53240800D01*
X63653100Y-53240800D02*
X63679500Y-53055700D01*
X63679500Y-53055700D02*
X63702600Y-52869200D01*
X63702600Y-52869200D02*
X63722300Y-52681500D01*
X63722300Y-52681500D02*
X63738900Y-52492500D01*
X63738900Y-52492500D02*
X63752500Y-52302200D01*
X63752500Y-52302200D02*
X63762900Y-52111000D01*
X63762900Y-52111000D02*
X63770400Y-51918600D01*
X63770400Y-51918600D02*
X63775000Y-51725100D01*
X63775000Y-51725100D02*
X63776700Y-51530700D01*
X63776700Y-51530700D02*
X63775700Y-51335200D01*
X63775700Y-51335200D02*
X63772000Y-51138700D01*
X63772000Y-51138700D02*
X63765500Y-50941300D01*
X63765500Y-50941300D02*
X63756500Y-50743100D01*
X63756500Y-50743100D02*
X63730800Y-50344000D01*
X63730800Y-50344000D02*
X63695600Y-49942000D01*
X63695600Y-49942000D02*
X63651300Y-49537200D01*
X63651300Y-49537200D02*
X63598500Y-49129900D01*
X63598500Y-49129900D02*
X63537700Y-48720600D01*
X63537700Y-48720600D02*
X63469200Y-48309400D01*
X63469200Y-48309400D02*
X63393800Y-47896700D01*
X63393800Y-47896700D02*
X63366500Y-47762600D01*
X63366500Y-47762600D02*
X63333000Y-47630200D01*
X63333000Y-47630200D02*
X63294000Y-47499800D01*
X63294000Y-47499800D02*
X63249600Y-47371200D01*
X63249600Y-47371200D02*
X63200700Y-47244900D01*
X63200700Y-47244900D02*
X63147700Y-47120500D01*
X63147700Y-47120500D02*
X63091000Y-46998600D01*
X63091000Y-46998600D02*
X63031200Y-46879000D01*
X63031200Y-46879000D02*
X62968700Y-46761800D01*
X62968700Y-46761800D02*
X62903800Y-46647400D01*
X62903800Y-46647400D02*
X62837400Y-46535600D01*
X62837400Y-46535600D02*
X62769700Y-46426600D01*
X62769700Y-46426600D02*
X62632600Y-46217300D01*
X62632600Y-46217300D02*
X62496400Y-46020500D01*
X62496400Y-46020500D02*
X62242500Y-45667400D01*
X62242500Y-45667400D02*
X62132800Y-45512800D01*
X62132800Y-45512800D02*
X62039400Y-45373900D01*
X62039400Y-45373900D02*
X62000100Y-45310500D01*
X62000100Y-45310500D02*
X61966700Y-45251400D01*
X61966700Y-45251400D02*
X61939200Y-45196800D01*
X61939200Y-45196800D02*
X61918100Y-45146300D01*
X61918100Y-45146300D02*
X61904300Y-45100600D01*
X61904300Y-45100600D02*
X61898000Y-45059500D01*
X61898000Y-45059500D02*
X61899700Y-45023200D01*
X61899700Y-45023200D02*
X61910100Y-44991600D01*
X61910100Y-44991600D02*
X62067700Y-44886600D01*
X62067700Y-44886600D02*
X62218000Y-44783000D01*
X62218000Y-44783000D02*
X62361500Y-44680600D01*
X62361500Y-44680600D02*
X62498100Y-44579700D01*
X62498100Y-44579700D02*
X62628000Y-44480400D01*
X62628000Y-44480400D02*
X62751300Y-44382900D01*
X62751300Y-44382900D02*
X62978700Y-44193300D01*
X62978700Y-44193300D02*
X63181500Y-44012600D01*
X63181500Y-44012600D02*
X63360900Y-43841400D01*
X63360900Y-43841400D02*
X63518000Y-43681400D01*
X63518000Y-43681400D02*
X63653700Y-43533300D01*
X63653700Y-43533300D02*
X63769200Y-43398300D01*
X63769200Y-43398300D02*
X63865800Y-43277700D01*
X63865800Y-43277700D02*
X63944500Y-43172400D01*
X63944500Y-43172400D02*
X64006300Y-43083900D01*
X64006300Y-43083900D02*
X64052500Y-43012900D01*
X64052500Y-43012900D02*
X64084100Y-42961000D01*
X64084100Y-42961000D02*
X64108000Y-42918000D01*
X64108000Y-42918000D02*
X63991300Y-42882200D01*
X63991300Y-42882200D02*
X63855000Y-42835400D01*
X63855000Y-42835400D02*
X63703500Y-42778700D01*
X63703500Y-42778700D02*
X63541300Y-42713700D01*
X63541300Y-42713700D02*
X63372600Y-42641000D01*
X63372600Y-42641000D02*
X63201900Y-42562300D01*
X63201900Y-42562300D02*
X63033400Y-42478600D01*
X63033400Y-42478600D02*
X62871700Y-42391300D01*
X62871700Y-42391300D02*
X62720900Y-42301300D01*
X62720900Y-42301300D02*
X62651000Y-42255800D01*
X62651000Y-42255800D02*
X62585400Y-42210100D01*
X62585400Y-42210100D02*
X62524900Y-42164400D01*
X62524900Y-42164400D02*
X62469700Y-42118900D01*
X62469700Y-42118900D02*
X62420700Y-42073500D01*
X62420700Y-42073500D02*
X62378200Y-42028700D01*
X62378200Y-42028700D02*
X62342700Y-41984300D01*
X62342700Y-41984300D02*
X62314800Y-41940900D01*
X62314800Y-41940900D02*
X62295300Y-41898100D01*
X62295300Y-41898100D02*
X62284400Y-41856500D01*
X62284400Y-41856500D02*
X62282900Y-41816000D01*
X62282900Y-41816000D02*
X62285800Y-41796300D01*
X62285800Y-41796300D02*
X62291200Y-41777000D01*
X62291200Y-41777000D02*
X62299200Y-41758000D01*
X62299200Y-41758000D02*
X62309800Y-41739400D01*
X62309800Y-41739400D02*
X62339300Y-41703400D01*
X62339300Y-41703400D02*
X62743400Y-41294100D01*
X62743400Y-41294100D02*
X63104600Y-40921000D01*
X63104600Y-40921000D02*
X63463800Y-40544400D01*
X63463800Y-40544400D02*
X63369600Y-40527800D01*
X63369600Y-40527800D02*
X63266300Y-40499900D01*
X63266300Y-40499900D02*
X63154700Y-40461200D01*
X63154700Y-40461200D02*
X63035500Y-40412300D01*
X63035500Y-40412300D02*
X62909300Y-40353900D01*
X62909300Y-40353900D02*
X62776700Y-40286400D01*
X62776700Y-40286400D02*
X62638400Y-40210500D01*
X62638400Y-40210500D02*
X62495200Y-40127000D01*
X62495200Y-40127000D02*
X62347600Y-40036100D01*
X62347600Y-40036100D02*
X62196300Y-39938400D01*
X62196300Y-39938400D02*
X62041900Y-39834800D01*
X62041900Y-39834800D02*
X61885200Y-39725800D01*
X61885200Y-39725800D02*
X61726900Y-39611800D01*
X61726900Y-39611800D02*
X61567400Y-39493400D01*
X61567400Y-39493400D02*
X61407600Y-39371500D01*
X61407600Y-39371500D02*
X61248100Y-39246300D01*
X61248100Y-39246300D02*
X61262000Y-39106700D01*
X61262000Y-39106700D02*
X61272700Y-38971000D01*
X61272700Y-38971000D02*
X61279500Y-38840200D01*
X61279500Y-38840200D02*
X61281900Y-38715200D01*
X61281900Y-38715200D02*
X61279000Y-38682500D01*
X61279000Y-38682500D02*
X61278700Y-38644400D01*
X61278700Y-38644400D02*
X61281600Y-38594800D01*
X61281600Y-38594800D02*
X61289800Y-38535400D01*
X61289800Y-38535400D02*
X61305200Y-38468300D01*
X61305200Y-38468300D02*
X61330000Y-38395400D01*
X61330000Y-38395400D02*
X61346700Y-38357600D01*
X61346700Y-38357600D02*
X61366400Y-38319000D01*
X61366400Y-38319000D02*
X61389300Y-38280100D01*
X61389300Y-38280100D02*
X61416000Y-38241100D01*
X61416000Y-38241100D02*
X61446400Y-38202000D01*
X61446400Y-38202000D02*
X61480900Y-38163300D01*
X61480900Y-38163300D02*
X61519800Y-38125200D01*
X61519800Y-38125200D02*
X61563200Y-38088000D01*
X61563200Y-38088000D02*
X61611600Y-38051900D01*
X61611600Y-38051900D02*
X61665100Y-38017000D01*
X61665100Y-38017000D02*
X61723900Y-37983900D01*
X61723900Y-37983900D02*
X61788300Y-37952700D01*
X61788300Y-37952700D02*
X61858600Y-37923500D01*
X61858600Y-37923500D02*
X61935000Y-37896400D01*
X61935000Y-37896400D02*
X62017700Y-37872300D01*
X62017700Y-37872300D02*
X62107100Y-37850900D01*
X62107100Y-37850900D02*
X62203400Y-37832600D01*
X62203400Y-37832600D02*
X62306600Y-37817600D01*
X62306600Y-37817600D02*
X62330800Y-37810000D01*
X62330800Y-37810000D02*
X62349900Y-37794900D01*
X62349900Y-37794900D02*
X62362700Y-37774000D01*
X62362700Y-37774000D02*
X62367300Y-37749100D01*
X62367300Y-37749100D02*
X62367300Y-35569300D01*
X62367300Y-35569300D02*
X62363900Y-35547600D01*
X62363900Y-35547600D02*
X62353900Y-35528700D01*
X62353900Y-35528700D02*
X62338600Y-35513700D01*
X62338600Y-35513700D02*
X62318900Y-35504000D01*
X62318900Y-35504000D02*
X62060900Y-35431700D01*
X62060900Y-35431700D02*
X61852700Y-35378100D01*
X61852700Y-35378100D02*
X61593800Y-35316000D01*
X61593800Y-35316000D02*
X61286400Y-35247800D01*
X61286400Y-35247800D02*
X60932100Y-35175700D01*
X60932100Y-35175700D02*
X60533000Y-35102100D01*
X60533000Y-35102100D02*
X60090700Y-35029300D01*
X60090700Y-35029300D02*
X60338900Y-34637900D01*
X60338900Y-34637900D02*
X60574900Y-34254700D01*
X60574900Y-34254700D02*
X60799600Y-33879600D01*
X60799600Y-33879600D02*
X61013000Y-33512500D01*
X61013000Y-33512500D02*
X61215100Y-33153300D01*
X61215100Y-33153300D02*
X61406500Y-32802000D01*
X61406500Y-32802000D02*
X61587400Y-32458600D01*
X61587400Y-32458600D02*
X61757900Y-32122900D01*
X61757900Y-32122900D02*
X61918200Y-31794900D01*
X61918200Y-31794900D02*
X62068900Y-31474600D01*
X62068900Y-31474600D02*
X62209800Y-31161800D01*
X62209800Y-31161800D02*
X62341600Y-30856600D01*
X62341600Y-30856600D02*
X62464400Y-30558700D01*
X62464400Y-30558700D02*
X62578200Y-30268300D01*
X62578200Y-30268300D02*
X62683700Y-29985200D01*
X62683700Y-29985200D02*
X62780700Y-29709400D01*
X62780700Y-29709400D02*
X62869700Y-29440700D01*
X62869700Y-29440700D02*
X62951000Y-29179200D01*
X62951000Y-29179200D02*
X63024700Y-28924700D01*
X63024700Y-28924700D02*
X63091100Y-28677200D01*
X63091100Y-28677200D02*
X63150600Y-28436700D01*
X63150600Y-28436700D02*
X63203400Y-28203010D01*
X63203400Y-28203010D02*
X63249400Y-27976170D01*
X63249400Y-27976170D02*
X63289300Y-27756070D01*
X63289300Y-27756070D02*
X63323300Y-27542660D01*
X63323300Y-27542660D02*
X63351500Y-27335880D01*
X63351500Y-27335880D02*
X63374100Y-27135670D01*
X63374100Y-27135670D02*
X63391600Y-26941930D01*
X63391600Y-26941930D02*
X63404000Y-26754650D01*
X63404000Y-26754650D02*
X63411800Y-26573720D01*
X63411800Y-26573720D02*
X63415000Y-26399100D01*
X63415000Y-26399100D02*
X63414000Y-26230720D01*
X63414000Y-26230720D02*
X63409100Y-26068520D01*
X63409100Y-26068520D02*
X63400400Y-25912440D01*
X63400400Y-25912440D02*
X63388200Y-25762400D01*
X63388200Y-25762400D02*
X63372900Y-25618360D01*
X63372900Y-25618360D02*
X63354500Y-25480240D01*
X63354500Y-25480240D02*
X63333600Y-25347990D01*
X63333600Y-25347990D02*
X63310200Y-25221540D01*
X63310200Y-25221540D02*
X63284600Y-25100820D01*
X63284600Y-25100820D02*
X63256900Y-24985770D01*
X63256900Y-24985770D02*
X63227700Y-24876320D01*
X63227700Y-24876320D02*
X63196900Y-24772430D01*
X63196900Y-24772430D02*
X63165200Y-24674000D01*
X63165200Y-24674000D02*
X63132400Y-24581020D01*
X63132400Y-24581020D02*
X63098900Y-24493380D01*
X63098900Y-24493380D02*
X63031000Y-24333900D01*
X63031000Y-24333900D02*
X62963600Y-24195090D01*
X62963600Y-24195090D02*
X62898300Y-24076430D01*
X62898300Y-24076430D02*
X62837700Y-23977420D01*
X62837700Y-23977420D02*
X62783500Y-23897540D01*
X62783500Y-23897540D02*
X62737800Y-23836310D01*
X62737800Y-23836310D02*
X62702700Y-23793190D01*
X62702700Y-23793190D02*
X62672100Y-23759310D01*
X62672100Y-23759310D02*
X62442700Y-23693490D01*
X62442700Y-23693490D02*
X62212900Y-23636150D01*
X62212900Y-23636150D02*
X61982700Y-23587090D01*
X61982700Y-23587090D02*
X61752600Y-23546020D01*
X61752600Y-23546020D02*
X61522400Y-23512730D01*
X61522400Y-23512730D02*
X61292300Y-23487000D01*
X61292300Y-23487000D02*
X61062700Y-23468590D01*
X61062700Y-23468590D02*
X60833200Y-23457240D01*
X60833200Y-23457240D02*
X60604300Y-23452760D01*
X60604300Y-23452760D02*
X60376200Y-23454900D01*
X60376200Y-23454900D02*
X60148600Y-23463410D01*
X60148600Y-23463410D02*
X59922000Y-23478090D01*
X59922000Y-23478090D02*
X59696300Y-23498650D01*
X59696300Y-23498650D02*
X59471800Y-23524930D01*
X59471800Y-23524930D02*
X59248400Y-23556640D01*
X59248400Y-23556640D02*
X59026500Y-23593560D01*
X59026500Y-23593560D02*
X58806000Y-23635460D01*
X58806000Y-23635460D02*
X58587100Y-23682130D01*
X58587100Y-23682130D02*
X58370000Y-23733310D01*
X58370000Y-23733310D02*
X58154700Y-23788760D01*
X58154700Y-23788760D02*
X57941200Y-23848260D01*
X57941200Y-23848260D02*
X57729900Y-23911590D01*
X57729900Y-23911590D02*
X57520800Y-23978490D01*
X57520800Y-23978490D02*
X57313900Y-24048740D01*
X57313900Y-24048740D02*
X57109600Y-24122090D01*
X57109600Y-24122090D02*
X56907900Y-24198350D01*
X56907900Y-24198350D02*
X56708600Y-24277240D01*
X56708600Y-24277240D02*
X56512300Y-24358550D01*
X56512300Y-24358550D02*
X56319000Y-24442040D01*
X56319000Y-24442040D02*
X56128600Y-24527490D01*
X56128600Y-24527490D02*
X55941500Y-24614650D01*
X55941500Y-24614650D02*
X55757500Y-24703270D01*
X55757500Y-24703270D02*
X55577000Y-24793170D01*
X55577000Y-24793170D02*
X55400000Y-24884070D01*
X55400000Y-24884070D02*
X55057300Y-25067970D01*
X55057300Y-25067970D02*
X54729800Y-25253110D01*
X54729800Y-25253110D02*
X54419000Y-25437680D01*
X54419000Y-25437680D02*
X54125700Y-25619770D01*
X54125700Y-25619770D02*
X53851000Y-25797510D01*
X53851000Y-25797510D02*
X53595600Y-25969030D01*
X53595600Y-25969030D02*
X53360700Y-26132480D01*
X53360700Y-26132480D02*
X53147100Y-26285990D01*
X53147100Y-26285990D02*
X52955800Y-26427690D01*
X52955800Y-26427690D02*
X52788000Y-26555700D01*
X52788000Y-26555700D02*
X52644300Y-26668160D01*
X52644300Y-26668160D02*
X52433700Y-26838990D01*
X52433700Y-26838990D02*
X52331800Y-26925240D01*
X52331800Y-26925240D02*
X52045500Y-26774470D01*
X52045500Y-26774470D02*
X51761000Y-26634080D01*
X51761000Y-26634080D02*
X51478900Y-26503670D01*
X51478900Y-26503670D02*
X51199800Y-26382920D01*
X51199800Y-26382920D02*
X50924000Y-26271430D01*
X50924000Y-26271430D02*
X50652100Y-26168830D01*
X50652100Y-26168830D02*
X50384400Y-26074790D01*
X50384400Y-26074790D02*
X50121500Y-25988900D01*
X50121500Y-25988900D02*
X49863800Y-25910820D01*
X49863800Y-25910820D02*
X49612000Y-25840190D01*
X49612000Y-25840190D02*
X49366200Y-25776630D01*
X49366200Y-25776630D02*
X49127100Y-25719770D01*
X49127100Y-25719770D02*
X48895100Y-25669260D01*
X48895100Y-25669260D02*
X48670500Y-25624710D01*
X48670500Y-25624710D02*
X48454200Y-25585780D01*
X48454200Y-25585780D02*
X48246300Y-25552100D01*
X48246300Y-25552100D02*
X48047400Y-25523280D01*
X48047400Y-25523280D02*
X47857800Y-25498990D01*
X47857800Y-25498990D02*
X47678300Y-25478830D01*
X47678300Y-25478830D02*
X47509200Y-25462460D01*
X47509200Y-25462460D02*
X47203800Y-25439580D01*
X47203800Y-25439580D02*
X46945600Y-25427420D01*
X46945600Y-25427420D02*
X46738300Y-25423070D01*
X46738300Y-25423070D02*
X46585400Y-25423580D01*
X46585400Y-25423580D02*
X46458700Y-25427520D01*
X46458700Y-25427520D02*
X46331500Y-25423490D01*
X46331500Y-25423490D02*
X46178100Y-25422880D01*
X46178100Y-25422880D02*
X45969900Y-25427160D01*
X45969900Y-25427160D02*
X45710500Y-25439250D01*
X45710500Y-25439250D02*
X45403800Y-25462130D01*
X45403800Y-25462130D02*
X45234000Y-25478540D01*
X45234000Y-25478540D02*
X45053600Y-25498750D01*
X45053600Y-25498750D02*
X44863400Y-25523120D01*
X44863400Y-25523120D02*
X44663700Y-25552030D01*
X44663700Y-25552030D02*
X44455000Y-25585860D01*
X44455000Y-25585860D02*
X44237800Y-25624960D01*
X44237800Y-25624960D02*
X44012500Y-25669710D01*
X44012500Y-25669710D02*
X43779600Y-25720480D01*
X43779600Y-25720480D02*
X43539600Y-25777630D01*
X43539600Y-25777630D02*
X43292900Y-25841520D01*
X43292900Y-25841520D02*
X43040100Y-25912550D01*
X43040100Y-25912550D02*
X42781600Y-25991070D01*
X42781600Y-25991070D02*
X42517800Y-26077450D01*
X42517800Y-26077450D02*
X42249300Y-26172070D01*
X42249300Y-26172070D02*
X41976400Y-26275270D01*
X41976400Y-26275270D02*
X41699800Y-26387450D01*
X41699800Y-26387450D02*
X41419800Y-26508950D01*
X41419800Y-26508950D02*
X41136900Y-26640170D01*
X41136900Y-26640170D02*
X40851600Y-26781470D01*
X40851600Y-26781470D02*
X40564400Y-26933200D01*
X40564400Y-26933200D02*
X40498100Y-26876510D01*
X40498100Y-26876510D02*
X40348600Y-26753150D01*
X40348600Y-26753150D02*
X40120900Y-26572830D01*
X40120900Y-26572830D02*
X39820100Y-26345240D01*
X39820100Y-26345240D02*
X39643800Y-26216740D01*
X39643800Y-26216740D02*
X39451200Y-26080050D01*
X39451200Y-26080050D02*
X39242700Y-25936400D01*
X39242700Y-25936400D02*
X39019200Y-25786980D01*
X39019200Y-25786980D02*
X38781100Y-25633000D01*
X38781100Y-25633000D02*
X38529100Y-25475670D01*
X38529100Y-25475670D02*
X38263800Y-25316230D01*
X38263800Y-25316230D02*
X37985900Y-25155860D01*
X37985900Y-25155860D02*
X37696000Y-24995790D01*
X37696000Y-24995790D02*
X37394700Y-24837220D01*
X37394700Y-24837220D02*
X37082660Y-24681370D01*
X37082660Y-24681370D02*
X36760500Y-24529450D01*
X36760500Y-24529450D02*
X36428840Y-24382660D01*
X36428840Y-24382660D02*
X36088290Y-24242210D01*
X36088290Y-24242210D02*
X35914900Y-24174750D01*
X35914900Y-24174750D02*
X35739520Y-24109330D01*
X35739520Y-24109330D02*
X35562220Y-24046100D01*
X35562220Y-24046100D02*
X35383110Y-23985230D01*
X35383110Y-23985230D02*
X35202260Y-23926840D01*
X35202260Y-23926840D02*
X35019730Y-23871090D01*
X35019730Y-23871090D02*
X34835600Y-23818150D01*
X34835600Y-23818150D02*
X34649970Y-23768150D01*
X34649970Y-23768150D02*
X34462900Y-23721260D01*
X34462900Y-23721260D02*
X34274500Y-23677630D01*
X34274500Y-23677630D02*
X34084800Y-23637390D01*
X34084800Y-23637390D02*
X33893900Y-23600710D01*
X33893900Y-23600710D02*
X33701890Y-23567740D01*
X33701890Y-23567740D02*
X33508840Y-23538630D01*
X33508840Y-23538630D02*
X33314830Y-23513530D01*
X33314830Y-23513530D02*
X33119920Y-23492570D01*
X33119920Y-23492570D02*
X32924210Y-23475940D01*
X32924210Y-23475940D02*
X32727770Y-23463780D01*
X32727770Y-23463780D02*
X32530680Y-23456220D01*
X32530680Y-23456220D02*
X32333040Y-23453440D01*
X32333040Y-23453440D02*
X32333040Y-23453440D01*
X32333040Y-23453440D02*
X32333040Y-23453440D01*
M02*
