%TF.GenerationSoftware,KiCad,Pcbnew,5.1.8-db9833491~88~ubuntu20.04.1*%
%TF.CreationDate,2020-12-09T15:47:01+01:00*%
%TF.ProjectId,oscar_pcb_svg2shenzen,6f736361-725f-4706-9362-5f7376673273,rev?*%
%TF.SameCoordinates,Original*%
%TF.FileFunction,Soldermask,Bot*%
%TF.FilePolarity,Negative*%
%FSLAX46Y46*%
G04 Gerber Fmt 4.6, Leading zero omitted, Abs format (unit mm)*
G04 Created by KiCad (PCBNEW 5.1.8-db9833491~88~ubuntu20.04.1) date 2020-12-09 15:47:01*
%MOMM*%
%LPD*%
G01*
G04 APERTURE LIST*
%ADD10C,0.010000*%
%ADD11C,4.119199*%
G04 APERTURE END LIST*
D10*
%TO.C,G\u002A\u002A\u002A*%
G36*
X-9149890Y20298453D02*
G01*
X-8982378Y20237355D01*
X-8827050Y20141621D01*
X-8731987Y20057103D01*
X-8613212Y19906740D01*
X-8530310Y19739531D01*
X-8483466Y19561406D01*
X-8472871Y19378297D01*
X-8498710Y19196132D01*
X-8561172Y19020843D01*
X-8660445Y18858359D01*
X-8692776Y18818396D01*
X-8827805Y18692107D01*
X-8986919Y18596264D01*
X-9162459Y18533308D01*
X-9346762Y18505681D01*
X-9532168Y18515825D01*
X-9599084Y18529534D01*
X-9780572Y18594777D01*
X-9938405Y18691668D01*
X-10070325Y18815330D01*
X-10174075Y18960885D01*
X-10247398Y19123455D01*
X-10288036Y19298160D01*
X-10293733Y19480125D01*
X-10262230Y19664469D01*
X-10200149Y19828503D01*
X-10101844Y19985800D01*
X-9977099Y20114475D01*
X-9831430Y20213669D01*
X-9670357Y20282523D01*
X-9499398Y20320178D01*
X-9324069Y20325775D01*
X-9149890Y20298453D01*
G37*
X-9149890Y20298453D02*
X-8982378Y20237355D01*
X-8827050Y20141621D01*
X-8731987Y20057103D01*
X-8613212Y19906740D01*
X-8530310Y19739531D01*
X-8483466Y19561406D01*
X-8472871Y19378297D01*
X-8498710Y19196132D01*
X-8561172Y19020843D01*
X-8660445Y18858359D01*
X-8692776Y18818396D01*
X-8827805Y18692107D01*
X-8986919Y18596264D01*
X-9162459Y18533308D01*
X-9346762Y18505681D01*
X-9532168Y18515825D01*
X-9599084Y18529534D01*
X-9780572Y18594777D01*
X-9938405Y18691668D01*
X-10070325Y18815330D01*
X-10174075Y18960885D01*
X-10247398Y19123455D01*
X-10288036Y19298160D01*
X-10293733Y19480125D01*
X-10262230Y19664469D01*
X-10200149Y19828503D01*
X-10101844Y19985800D01*
X-9977099Y20114475D01*
X-9831430Y20213669D01*
X-9670357Y20282523D01*
X-9499398Y20320178D01*
X-9324069Y20325775D01*
X-9149890Y20298453D01*
G36*
X-7518964Y18842705D02*
G01*
X-7416357Y18771003D01*
X-7393083Y18746588D01*
X-7321803Y18636162D01*
X-7288445Y18515251D01*
X-7293433Y18391554D01*
X-7337192Y18272769D01*
X-7364576Y18229827D01*
X-7450401Y18145263D01*
X-7559202Y18088644D01*
X-7679586Y18063442D01*
X-7800162Y18073133D01*
X-7839345Y18085056D01*
X-7945772Y18144086D01*
X-8025410Y18227610D01*
X-8077755Y18328140D01*
X-8102303Y18438193D01*
X-8098550Y18550283D01*
X-8065992Y18656925D01*
X-8004126Y18750634D01*
X-7912448Y18823924D01*
X-7889881Y18835770D01*
X-7763009Y18876396D01*
X-7636942Y18878272D01*
X-7518964Y18842705D01*
G37*
X-7518964Y18842705D02*
X-7416357Y18771003D01*
X-7393083Y18746588D01*
X-7321803Y18636162D01*
X-7288445Y18515251D01*
X-7293433Y18391554D01*
X-7337192Y18272769D01*
X-7364576Y18229827D01*
X-7450401Y18145263D01*
X-7559202Y18088644D01*
X-7679586Y18063442D01*
X-7800162Y18073133D01*
X-7839345Y18085056D01*
X-7945772Y18144086D01*
X-8025410Y18227610D01*
X-8077755Y18328140D01*
X-8102303Y18438193D01*
X-8098550Y18550283D01*
X-8065992Y18656925D01*
X-8004126Y18750634D01*
X-7912448Y18823924D01*
X-7889881Y18835770D01*
X-7763009Y18876396D01*
X-7636942Y18878272D01*
X-7518964Y18842705D01*
G36*
X-21954179Y20312597D02*
G01*
X-21790415Y20264676D01*
X-21637880Y20187819D01*
X-21501407Y20083604D01*
X-21385830Y19953607D01*
X-21295980Y19799407D01*
X-21236690Y19622580D01*
X-21224387Y19557816D01*
X-21214635Y19368016D01*
X-21242618Y19187883D01*
X-21304380Y19021056D01*
X-21395965Y18871179D01*
X-21513417Y18741892D01*
X-21652782Y18636837D01*
X-21810102Y18559656D01*
X-21981422Y18513990D01*
X-22162786Y18503480D01*
X-22341417Y18529534D01*
X-22520533Y18593777D01*
X-22675412Y18688483D01*
X-22804650Y18808656D01*
X-22906844Y18949300D01*
X-22980590Y19105419D01*
X-23024484Y19272018D01*
X-23037121Y19444101D01*
X-23017099Y19616671D01*
X-22963013Y19784732D01*
X-22873460Y19943290D01*
X-22772310Y20062977D01*
X-22624885Y20183388D01*
X-22464527Y20266979D01*
X-22296068Y20315326D01*
X-22124341Y20330006D01*
X-21954179Y20312597D01*
G37*
X-21954179Y20312597D02*
X-21790415Y20264676D01*
X-21637880Y20187819D01*
X-21501407Y20083604D01*
X-21385830Y19953607D01*
X-21295980Y19799407D01*
X-21236690Y19622580D01*
X-21224387Y19557816D01*
X-21214635Y19368016D01*
X-21242618Y19187883D01*
X-21304380Y19021056D01*
X-21395965Y18871179D01*
X-21513417Y18741892D01*
X-21652782Y18636837D01*
X-21810102Y18559656D01*
X-21981422Y18513990D01*
X-22162786Y18503480D01*
X-22341417Y18529534D01*
X-22520533Y18593777D01*
X-22675412Y18688483D01*
X-22804650Y18808656D01*
X-22906844Y18949300D01*
X-22980590Y19105419D01*
X-23024484Y19272018D01*
X-23037121Y19444101D01*
X-23017099Y19616671D01*
X-22963013Y19784732D01*
X-22873460Y19943290D01*
X-22772310Y20062977D01*
X-22624885Y20183388D01*
X-22464527Y20266979D01*
X-22296068Y20315326D01*
X-22124341Y20330006D01*
X-21954179Y20312597D01*
G36*
X-23739620Y18876824D02*
G01*
X-23624549Y18840525D01*
X-23529790Y18777573D01*
X-23471117Y18701555D01*
X-23430523Y18600285D01*
X-23410584Y18487905D01*
X-23413874Y18378556D01*
X-23441003Y18290091D01*
X-23513581Y18191528D01*
X-23611483Y18117787D01*
X-23724864Y18073235D01*
X-23843879Y18062234D01*
X-23923328Y18076243D01*
X-24043400Y18132450D01*
X-24135660Y18216797D01*
X-24196629Y18322850D01*
X-24222830Y18444176D01*
X-24210783Y18574341D01*
X-24204728Y18596730D01*
X-24151875Y18707470D01*
X-24071298Y18792897D01*
X-23970635Y18850963D01*
X-23857529Y18879621D01*
X-23739620Y18876824D01*
G37*
X-23739620Y18876824D02*
X-23624549Y18840525D01*
X-23529790Y18777573D01*
X-23471117Y18701555D01*
X-23430523Y18600285D01*
X-23410584Y18487905D01*
X-23413874Y18378556D01*
X-23441003Y18290091D01*
X-23513581Y18191528D01*
X-23611483Y18117787D01*
X-23724864Y18073235D01*
X-23843879Y18062234D01*
X-23923328Y18076243D01*
X-24043400Y18132450D01*
X-24135660Y18216797D01*
X-24196629Y18322850D01*
X-24222830Y18444176D01*
X-24210783Y18574341D01*
X-24204728Y18596730D01*
X-24151875Y18707470D01*
X-24071298Y18792897D01*
X-23970635Y18850963D01*
X-23857529Y18879621D01*
X-23739620Y18876824D01*
G36*
X-18497724Y2950663D02*
G01*
X-18115190Y2568129D01*
X-18147599Y2490565D01*
X-18169501Y2441688D01*
X-18184428Y2414799D01*
X-18186588Y2413000D01*
X-18202668Y2427356D01*
X-18244674Y2467836D01*
X-18308664Y2530560D01*
X-18390700Y2611649D01*
X-18486843Y2707223D01*
X-18593153Y2813401D01*
X-18594781Y2815031D01*
X-18996394Y3217062D01*
X-18938326Y3275129D01*
X-18880259Y3333197D01*
X-18497724Y2950663D01*
G37*
X-18497724Y2950663D02*
X-18115190Y2568129D01*
X-18147599Y2490565D01*
X-18169501Y2441688D01*
X-18184428Y2414799D01*
X-18186588Y2413000D01*
X-18202668Y2427356D01*
X-18244674Y2467836D01*
X-18308664Y2530560D01*
X-18390700Y2611649D01*
X-18486843Y2707223D01*
X-18593153Y2813401D01*
X-18594781Y2815031D01*
X-18996394Y3217062D01*
X-18938326Y3275129D01*
X-18880259Y3333197D01*
X-18497724Y2950663D01*
G36*
X-6064886Y-922291D02*
G01*
X-5990338Y-928112D01*
X-5934829Y-940009D01*
X-5886749Y-959778D01*
X-5873750Y-966581D01*
X-5757901Y-1049556D01*
X-5656054Y-1160791D01*
X-5583753Y-1280583D01*
X-5552497Y-1380524D01*
X-5535121Y-1504586D01*
X-5531721Y-1638097D01*
X-5542394Y-1766385D01*
X-5567236Y-1874777D01*
X-5579654Y-1906075D01*
X-5666604Y-2049538D01*
X-5778371Y-2158817D01*
X-5913850Y-2233163D01*
X-6071935Y-2271825D01*
X-6125418Y-2276450D01*
X-6211206Y-2278129D01*
X-6288867Y-2274815D01*
X-6339417Y-2267651D01*
X-6483054Y-2211199D01*
X-6607465Y-2120463D01*
X-6655786Y-2071120D01*
X-6737394Y-1960228D01*
X-6789331Y-1838054D01*
X-6814919Y-1694850D01*
X-6819009Y-1592215D01*
X-6818279Y-1584484D01*
X-6516254Y-1584484D01*
X-6510933Y-1657394D01*
X-6472141Y-1759781D01*
X-6403190Y-1840658D01*
X-6312176Y-1896648D01*
X-6207193Y-1924372D01*
X-6096337Y-1920453D01*
X-5987702Y-1881513D01*
X-5981787Y-1878193D01*
X-5899457Y-1809293D01*
X-5846161Y-1719691D01*
X-5822317Y-1618700D01*
X-5828340Y-1515635D01*
X-5864647Y-1419808D01*
X-5931654Y-1340535D01*
X-5956929Y-1321945D01*
X-6061011Y-1275057D01*
X-6168232Y-1263081D01*
X-6271874Y-1281949D01*
X-6365216Y-1327591D01*
X-6441540Y-1395941D01*
X-6494126Y-1482928D01*
X-6516254Y-1584484D01*
X-6818279Y-1584484D01*
X-6801909Y-1411120D01*
X-6750979Y-1254267D01*
X-6666773Y-1122695D01*
X-6549846Y-1017447D01*
X-6494432Y-983169D01*
X-6438511Y-954124D01*
X-6389457Y-935791D01*
X-6334639Y-925739D01*
X-6261427Y-921537D01*
X-6170084Y-920750D01*
X-6064886Y-922291D01*
G37*
X-6064886Y-922291D02*
X-5990338Y-928112D01*
X-5934829Y-940009D01*
X-5886749Y-959778D01*
X-5873750Y-966581D01*
X-5757901Y-1049556D01*
X-5656054Y-1160791D01*
X-5583753Y-1280583D01*
X-5552497Y-1380524D01*
X-5535121Y-1504586D01*
X-5531721Y-1638097D01*
X-5542394Y-1766385D01*
X-5567236Y-1874777D01*
X-5579654Y-1906075D01*
X-5666604Y-2049538D01*
X-5778371Y-2158817D01*
X-5913850Y-2233163D01*
X-6071935Y-2271825D01*
X-6125418Y-2276450D01*
X-6211206Y-2278129D01*
X-6288867Y-2274815D01*
X-6339417Y-2267651D01*
X-6483054Y-2211199D01*
X-6607465Y-2120463D01*
X-6655786Y-2071120D01*
X-6737394Y-1960228D01*
X-6789331Y-1838054D01*
X-6814919Y-1694850D01*
X-6819009Y-1592215D01*
X-6818279Y-1584484D01*
X-6516254Y-1584484D01*
X-6510933Y-1657394D01*
X-6472141Y-1759781D01*
X-6403190Y-1840658D01*
X-6312176Y-1896648D01*
X-6207193Y-1924372D01*
X-6096337Y-1920453D01*
X-5987702Y-1881513D01*
X-5981787Y-1878193D01*
X-5899457Y-1809293D01*
X-5846161Y-1719691D01*
X-5822317Y-1618700D01*
X-5828340Y-1515635D01*
X-5864647Y-1419808D01*
X-5931654Y-1340535D01*
X-5956929Y-1321945D01*
X-6061011Y-1275057D01*
X-6168232Y-1263081D01*
X-6271874Y-1281949D01*
X-6365216Y-1327591D01*
X-6441540Y-1395941D01*
X-6494126Y-1482928D01*
X-6516254Y-1584484D01*
X-6818279Y-1584484D01*
X-6801909Y-1411120D01*
X-6750979Y-1254267D01*
X-6666773Y-1122695D01*
X-6549846Y-1017447D01*
X-6494432Y-983169D01*
X-6438511Y-954124D01*
X-6389457Y-935791D01*
X-6334639Y-925739D01*
X-6261427Y-921537D01*
X-6170084Y-920750D01*
X-6064886Y-922291D01*
G36*
X-12731408Y-1157468D02*
G01*
X-12686303Y-1198628D01*
X-12618356Y-1263113D01*
X-12531049Y-1347556D01*
X-12427865Y-1448588D01*
X-12312288Y-1562843D01*
X-12195068Y-1679680D01*
X-11658696Y-2216361D01*
X-11782473Y-2325122D01*
X-11866668Y-2396881D01*
X-11953294Y-2466942D01*
X-12035292Y-2530009D01*
X-12105600Y-2580787D01*
X-12157159Y-2613981D01*
X-12181573Y-2624444D01*
X-12200958Y-2610020D01*
X-12246628Y-2568892D01*
X-12315077Y-2504430D01*
X-12402800Y-2420007D01*
X-12506291Y-2318995D01*
X-12622044Y-2204765D01*
X-12738153Y-2089100D01*
X-13273410Y-1553533D01*
X-13162767Y-1481839D01*
X-13094285Y-1432554D01*
X-13011337Y-1365776D01*
X-12929310Y-1294026D01*
X-12910530Y-1276572D01*
X-12846423Y-1217905D01*
X-12793004Y-1172359D01*
X-12758154Y-1146497D01*
X-12750188Y-1143000D01*
X-12731408Y-1157468D01*
G37*
X-12731408Y-1157468D02*
X-12686303Y-1198628D01*
X-12618356Y-1263113D01*
X-12531049Y-1347556D01*
X-12427865Y-1448588D01*
X-12312288Y-1562843D01*
X-12195068Y-1679680D01*
X-11658696Y-2216361D01*
X-11782473Y-2325122D01*
X-11866668Y-2396881D01*
X-11953294Y-2466942D01*
X-12035292Y-2530009D01*
X-12105600Y-2580787D01*
X-12157159Y-2613981D01*
X-12181573Y-2624444D01*
X-12200958Y-2610020D01*
X-12246628Y-2568892D01*
X-12315077Y-2504430D01*
X-12402800Y-2420007D01*
X-12506291Y-2318995D01*
X-12622044Y-2204765D01*
X-12738153Y-2089100D01*
X-13273410Y-1553533D01*
X-13162767Y-1481839D01*
X-13094285Y-1432554D01*
X-13011337Y-1365776D01*
X-12929310Y-1294026D01*
X-12910530Y-1276572D01*
X-12846423Y-1217905D01*
X-12793004Y-1172359D01*
X-12758154Y-1146497D01*
X-12750188Y-1143000D01*
X-12731408Y-1157468D01*
G36*
X-5615365Y-2470912D02*
G01*
X-5586960Y-2533980D01*
X-5561246Y-2620356D01*
X-5540685Y-2720557D01*
X-5527736Y-2825101D01*
X-5524500Y-2901268D01*
X-5538926Y-3072823D01*
X-5581608Y-3216599D01*
X-5651649Y-3330696D01*
X-5748156Y-3413215D01*
X-5771817Y-3426413D01*
X-5822415Y-3440141D01*
X-5896274Y-3447279D01*
X-5974751Y-3447243D01*
X-6039203Y-3439445D01*
X-6053667Y-3435271D01*
X-6126865Y-3388301D01*
X-6199547Y-3302675D01*
X-6269261Y-3182025D01*
X-6333554Y-3029984D01*
X-6340645Y-3010211D01*
X-6382516Y-2914146D01*
X-6426080Y-2857467D01*
X-6470233Y-2841327D01*
X-6494115Y-2849986D01*
X-6519933Y-2888216D01*
X-6534184Y-2955783D01*
X-6536394Y-3041170D01*
X-6526090Y-3132860D01*
X-6508617Y-3202709D01*
X-6492258Y-3264626D01*
X-6487566Y-3309479D01*
X-6491508Y-3322769D01*
X-6519948Y-3336099D01*
X-6575979Y-3355232D01*
X-6631474Y-3371527D01*
X-6699596Y-3389536D01*
X-6737962Y-3395146D01*
X-6757633Y-3387186D01*
X-6769669Y-3364485D01*
X-6772704Y-3356574D01*
X-6804287Y-3244469D01*
X-6825197Y-3111618D01*
X-6832796Y-2978838D01*
X-6829748Y-2906564D01*
X-6800938Y-2754810D01*
X-6746666Y-2631558D01*
X-6668919Y-2539511D01*
X-6569682Y-2481370D01*
X-6504921Y-2464541D01*
X-6402163Y-2460883D01*
X-6312692Y-2487150D01*
X-6233116Y-2546177D01*
X-6160046Y-2640800D01*
X-6090091Y-2773853D01*
X-6064553Y-2832825D01*
X-6025825Y-2919994D01*
X-5987666Y-2995239D01*
X-5955805Y-3047705D01*
X-5943167Y-3062807D01*
X-5912513Y-3086439D01*
X-5889928Y-3082364D01*
X-5858708Y-3047816D01*
X-5834319Y-3009446D01*
X-5823675Y-2963781D01*
X-5824124Y-2896047D01*
X-5826219Y-2866787D01*
X-5839669Y-2776652D01*
X-5862878Y-2686114D01*
X-5879172Y-2641989D01*
X-5921860Y-2545486D01*
X-5799152Y-2486837D01*
X-5730473Y-2458128D01*
X-5673639Y-2441692D01*
X-5644003Y-2440636D01*
X-5615365Y-2470912D01*
G37*
X-5615365Y-2470912D02*
X-5586960Y-2533980D01*
X-5561246Y-2620356D01*
X-5540685Y-2720557D01*
X-5527736Y-2825101D01*
X-5524500Y-2901268D01*
X-5538926Y-3072823D01*
X-5581608Y-3216599D01*
X-5651649Y-3330696D01*
X-5748156Y-3413215D01*
X-5771817Y-3426413D01*
X-5822415Y-3440141D01*
X-5896274Y-3447279D01*
X-5974751Y-3447243D01*
X-6039203Y-3439445D01*
X-6053667Y-3435271D01*
X-6126865Y-3388301D01*
X-6199547Y-3302675D01*
X-6269261Y-3182025D01*
X-6333554Y-3029984D01*
X-6340645Y-3010211D01*
X-6382516Y-2914146D01*
X-6426080Y-2857467D01*
X-6470233Y-2841327D01*
X-6494115Y-2849986D01*
X-6519933Y-2888216D01*
X-6534184Y-2955783D01*
X-6536394Y-3041170D01*
X-6526090Y-3132860D01*
X-6508617Y-3202709D01*
X-6492258Y-3264626D01*
X-6487566Y-3309479D01*
X-6491508Y-3322769D01*
X-6519948Y-3336099D01*
X-6575979Y-3355232D01*
X-6631474Y-3371527D01*
X-6699596Y-3389536D01*
X-6737962Y-3395146D01*
X-6757633Y-3387186D01*
X-6769669Y-3364485D01*
X-6772704Y-3356574D01*
X-6804287Y-3244469D01*
X-6825197Y-3111618D01*
X-6832796Y-2978838D01*
X-6829748Y-2906564D01*
X-6800938Y-2754810D01*
X-6746666Y-2631558D01*
X-6668919Y-2539511D01*
X-6569682Y-2481370D01*
X-6504921Y-2464541D01*
X-6402163Y-2460883D01*
X-6312692Y-2487150D01*
X-6233116Y-2546177D01*
X-6160046Y-2640800D01*
X-6090091Y-2773853D01*
X-6064553Y-2832825D01*
X-6025825Y-2919994D01*
X-5987666Y-2995239D01*
X-5955805Y-3047705D01*
X-5943167Y-3062807D01*
X-5912513Y-3086439D01*
X-5889928Y-3082364D01*
X-5858708Y-3047816D01*
X-5834319Y-3009446D01*
X-5823675Y-2963781D01*
X-5824124Y-2896047D01*
X-5826219Y-2866787D01*
X-5839669Y-2776652D01*
X-5862878Y-2686114D01*
X-5879172Y-2641989D01*
X-5921860Y-2545486D01*
X-5799152Y-2486837D01*
X-5730473Y-2458128D01*
X-5673639Y-2441692D01*
X-5644003Y-2440636D01*
X-5615365Y-2470912D01*
G36*
X-6498167Y-3810000D02*
G01*
X-5545667Y-3810000D01*
X-5545667Y-4148666D01*
X-6498167Y-4148666D01*
X-6498167Y-4423833D01*
X-6815667Y-4423833D01*
X-6815667Y-4148666D01*
X-6950659Y-4148666D01*
X-7044589Y-4153755D01*
X-7101997Y-4171865D01*
X-7127781Y-4207263D01*
X-7126836Y-4264215D01*
X-7119581Y-4295833D01*
X-7098116Y-4376252D01*
X-7211360Y-4431792D01*
X-7274937Y-4461558D01*
X-7323511Y-4481715D01*
X-7343004Y-4487333D01*
X-7361151Y-4469493D01*
X-7385907Y-4424347D01*
X-7397613Y-4397375D01*
X-7423579Y-4300833D01*
X-7433219Y-4191467D01*
X-7426707Y-4084871D01*
X-7404218Y-3996643D01*
X-7392894Y-3973482D01*
X-7341089Y-3901698D01*
X-7278856Y-3853279D01*
X-7197557Y-3824501D01*
X-7088551Y-3811639D01*
X-7013620Y-3810000D01*
X-6815667Y-3810000D01*
X-6815667Y-3619500D01*
X-6498167Y-3619500D01*
X-6498167Y-3810000D01*
G37*
X-6498167Y-3810000D02*
X-5545667Y-3810000D01*
X-5545667Y-4148666D01*
X-6498167Y-4148666D01*
X-6498167Y-4423833D01*
X-6815667Y-4423833D01*
X-6815667Y-4148666D01*
X-6950659Y-4148666D01*
X-7044589Y-4153755D01*
X-7101997Y-4171865D01*
X-7127781Y-4207263D01*
X-7126836Y-4264215D01*
X-7119581Y-4295833D01*
X-7098116Y-4376252D01*
X-7211360Y-4431792D01*
X-7274937Y-4461558D01*
X-7323511Y-4481715D01*
X-7343004Y-4487333D01*
X-7361151Y-4469493D01*
X-7385907Y-4424347D01*
X-7397613Y-4397375D01*
X-7423579Y-4300833D01*
X-7433219Y-4191467D01*
X-7426707Y-4084871D01*
X-7404218Y-3996643D01*
X-7392894Y-3973482D01*
X-7341089Y-3901698D01*
X-7278856Y-3853279D01*
X-7197557Y-3824501D01*
X-7088551Y-3811639D01*
X-7013620Y-3810000D01*
X-6815667Y-3810000D01*
X-6815667Y-3619500D01*
X-6498167Y-3619500D01*
X-6498167Y-3810000D01*
G36*
X-16823653Y1231390D02*
G01*
X-16804253Y1217586D01*
X-16771916Y1190401D01*
X-16725664Y1148872D01*
X-16664520Y1092038D01*
X-16587507Y1018936D01*
X-16493648Y928606D01*
X-16381966Y820085D01*
X-16251483Y692412D01*
X-16101223Y544625D01*
X-15930207Y375762D01*
X-15737460Y184862D01*
X-15522004Y-29037D01*
X-15282861Y-266898D01*
X-15019054Y-529680D01*
X-14729608Y-818347D01*
X-14413543Y-1133861D01*
X-14069883Y-1477181D01*
X-13697651Y-1849272D01*
X-13579044Y-1967873D01*
X-10341594Y-5205374D01*
X-10392070Y-5259104D01*
X-10429037Y-5295076D01*
X-10453195Y-5312523D01*
X-10454803Y-5312833D01*
X-10471329Y-5298224D01*
X-10515474Y-5255900D01*
X-10584959Y-5188119D01*
X-10677503Y-5097136D01*
X-10790828Y-4985208D01*
X-10922654Y-4854591D01*
X-11070702Y-4707541D01*
X-11232692Y-4546314D01*
X-11406346Y-4373168D01*
X-11589384Y-4190357D01*
X-11651717Y-4128033D01*
X-12836376Y-2943232D01*
X-12768188Y-2919462D01*
X-12722375Y-2899849D01*
X-12700346Y-2883259D01*
X-12700000Y-2881732D01*
X-12714455Y-2864072D01*
X-12755577Y-2820020D01*
X-12820006Y-2753024D01*
X-12904380Y-2666529D01*
X-13005338Y-2563984D01*
X-13119518Y-2448835D01*
X-13236947Y-2331135D01*
X-13773894Y-1794498D01*
X-13864250Y-1809763D01*
X-13954606Y-1825029D01*
X-15401636Y-378114D01*
X-15644162Y-135499D01*
X-15858374Y79070D01*
X-16045987Y267387D01*
X-16208717Y431245D01*
X-16348279Y572437D01*
X-16466391Y692755D01*
X-16564767Y793992D01*
X-16645123Y877941D01*
X-16709175Y946395D01*
X-16758638Y1001146D01*
X-16795229Y1043988D01*
X-16820664Y1076714D01*
X-16836657Y1101116D01*
X-16844925Y1118987D01*
X-16847184Y1132119D01*
X-16847179Y1132359D01*
X-16841269Y1191545D01*
X-16831093Y1232773D01*
X-16823653Y1231390D01*
G37*
X-16823653Y1231390D02*
X-16804253Y1217586D01*
X-16771916Y1190401D01*
X-16725664Y1148872D01*
X-16664520Y1092038D01*
X-16587507Y1018936D01*
X-16493648Y928606D01*
X-16381966Y820085D01*
X-16251483Y692412D01*
X-16101223Y544625D01*
X-15930207Y375762D01*
X-15737460Y184862D01*
X-15522004Y-29037D01*
X-15282861Y-266898D01*
X-15019054Y-529680D01*
X-14729608Y-818347D01*
X-14413543Y-1133861D01*
X-14069883Y-1477181D01*
X-13697651Y-1849272D01*
X-13579044Y-1967873D01*
X-10341594Y-5205374D01*
X-10392070Y-5259104D01*
X-10429037Y-5295076D01*
X-10453195Y-5312523D01*
X-10454803Y-5312833D01*
X-10471329Y-5298224D01*
X-10515474Y-5255900D01*
X-10584959Y-5188119D01*
X-10677503Y-5097136D01*
X-10790828Y-4985208D01*
X-10922654Y-4854591D01*
X-11070702Y-4707541D01*
X-11232692Y-4546314D01*
X-11406346Y-4373168D01*
X-11589384Y-4190357D01*
X-11651717Y-4128033D01*
X-12836376Y-2943232D01*
X-12768188Y-2919462D01*
X-12722375Y-2899849D01*
X-12700346Y-2883259D01*
X-12700000Y-2881732D01*
X-12714455Y-2864072D01*
X-12755577Y-2820020D01*
X-12820006Y-2753024D01*
X-12904380Y-2666529D01*
X-13005338Y-2563984D01*
X-13119518Y-2448835D01*
X-13236947Y-2331135D01*
X-13773894Y-1794498D01*
X-13864250Y-1809763D01*
X-13954606Y-1825029D01*
X-15401636Y-378114D01*
X-15644162Y-135499D01*
X-15858374Y79070D01*
X-16045987Y267387D01*
X-16208717Y431245D01*
X-16348279Y572437D01*
X-16466391Y692755D01*
X-16564767Y793992D01*
X-16645123Y877941D01*
X-16709175Y946395D01*
X-16758638Y1001146D01*
X-16795229Y1043988D01*
X-16820664Y1076714D01*
X-16836657Y1101116D01*
X-16844925Y1118987D01*
X-16847184Y1132119D01*
X-16847179Y1132359D01*
X-16841269Y1191545D01*
X-16831093Y1232773D01*
X-16823653Y1231390D01*
G36*
X-6010299Y-4600531D02*
G01*
X-5856532Y-4647909D01*
X-5730934Y-4726310D01*
X-5634486Y-4834622D01*
X-5568171Y-4971731D01*
X-5532972Y-5136524D01*
X-5529871Y-5327888D01*
X-5530283Y-5334000D01*
X-5542029Y-5433526D01*
X-5561455Y-5525699D01*
X-5585779Y-5601805D01*
X-5612215Y-5653129D01*
X-5637924Y-5670959D01*
X-5670429Y-5664504D01*
X-5728816Y-5649660D01*
X-5778500Y-5635873D01*
X-5842675Y-5616954D01*
X-5887748Y-5602689D01*
X-5901649Y-5597335D01*
X-5899861Y-5576042D01*
X-5888171Y-5526569D01*
X-5875191Y-5480412D01*
X-5844039Y-5328840D01*
X-5846190Y-5199677D01*
X-5880578Y-5094775D01*
X-5946137Y-5015980D01*
X-6041803Y-4965143D01*
X-6166511Y-4944112D01*
X-6184340Y-4943668D01*
X-6288507Y-4953863D01*
X-6370905Y-4991070D01*
X-6442893Y-5061507D01*
X-6471709Y-5100951D01*
X-6511437Y-5196864D01*
X-6516256Y-5316255D01*
X-6488360Y-5451356D01*
X-6471576Y-5510376D01*
X-6462411Y-5549148D01*
X-6461902Y-5557527D01*
X-6494406Y-5572375D01*
X-6550618Y-5591067D01*
X-6617643Y-5610158D01*
X-6682587Y-5626204D01*
X-6732554Y-5635763D01*
X-6754448Y-5635656D01*
X-6776482Y-5594114D01*
X-6798347Y-5522655D01*
X-6817430Y-5433625D01*
X-6831120Y-5339369D01*
X-6836803Y-5252232D01*
X-6836834Y-5246285D01*
X-6818102Y-5074041D01*
X-6763164Y-4921081D01*
X-6673909Y-4790511D01*
X-6552226Y-4685439D01*
X-6466417Y-4636870D01*
X-6394132Y-4607930D01*
X-6318702Y-4591946D01*
X-6223050Y-4585716D01*
X-6191250Y-4585289D01*
X-6010299Y-4600531D01*
G37*
X-6010299Y-4600531D02*
X-5856532Y-4647909D01*
X-5730934Y-4726310D01*
X-5634486Y-4834622D01*
X-5568171Y-4971731D01*
X-5532972Y-5136524D01*
X-5529871Y-5327888D01*
X-5530283Y-5334000D01*
X-5542029Y-5433526D01*
X-5561455Y-5525699D01*
X-5585779Y-5601805D01*
X-5612215Y-5653129D01*
X-5637924Y-5670959D01*
X-5670429Y-5664504D01*
X-5728816Y-5649660D01*
X-5778500Y-5635873D01*
X-5842675Y-5616954D01*
X-5887748Y-5602689D01*
X-5901649Y-5597335D01*
X-5899861Y-5576042D01*
X-5888171Y-5526569D01*
X-5875191Y-5480412D01*
X-5844039Y-5328840D01*
X-5846190Y-5199677D01*
X-5880578Y-5094775D01*
X-5946137Y-5015980D01*
X-6041803Y-4965143D01*
X-6166511Y-4944112D01*
X-6184340Y-4943668D01*
X-6288507Y-4953863D01*
X-6370905Y-4991070D01*
X-6442893Y-5061507D01*
X-6471709Y-5100951D01*
X-6511437Y-5196864D01*
X-6516256Y-5316255D01*
X-6488360Y-5451356D01*
X-6471576Y-5510376D01*
X-6462411Y-5549148D01*
X-6461902Y-5557527D01*
X-6494406Y-5572375D01*
X-6550618Y-5591067D01*
X-6617643Y-5610158D01*
X-6682587Y-5626204D01*
X-6732554Y-5635763D01*
X-6754448Y-5635656D01*
X-6776482Y-5594114D01*
X-6798347Y-5522655D01*
X-6817430Y-5433625D01*
X-6831120Y-5339369D01*
X-6836803Y-5252232D01*
X-6836834Y-5246285D01*
X-6818102Y-5074041D01*
X-6763164Y-4921081D01*
X-6673909Y-4790511D01*
X-6552226Y-4685439D01*
X-6466417Y-4636870D01*
X-6394132Y-4607930D01*
X-6318702Y-4591946D01*
X-6223050Y-4585716D01*
X-6191250Y-4585289D01*
X-6010299Y-4600531D01*
G36*
X-5545667Y-6307666D02*
G01*
X-5905500Y-6307666D01*
X-5905500Y-5947833D01*
X-5545667Y-5947833D01*
X-5545667Y-6307666D01*
G37*
X-5545667Y-6307666D02*
X-5905500Y-6307666D01*
X-5905500Y-5947833D01*
X-5545667Y-5947833D01*
X-5545667Y-6307666D01*
G36*
X-5545667Y-7027333D02*
G01*
X-6815667Y-7027333D01*
X-6815667Y-6667500D01*
X-5545667Y-6667500D01*
X-5545667Y-7027333D01*
G37*
X-5545667Y-7027333D02*
X-6815667Y-7027333D01*
X-6815667Y-6667500D01*
X-5545667Y-6667500D01*
X-5545667Y-7027333D01*
G36*
X-7053181Y-6715694D02*
G01*
X-6921459Y-6848598D01*
X-7054362Y-6980319D01*
X-7187265Y-7112041D01*
X-7450709Y-6846235D01*
X-7317806Y-6714513D01*
X-7184902Y-6582791D01*
X-7053181Y-6715694D01*
G37*
X-7053181Y-6715694D02*
X-6921459Y-6848598D01*
X-7054362Y-6980319D01*
X-7187265Y-7112041D01*
X-7450709Y-6846235D01*
X-7317806Y-6714513D01*
X-7184902Y-6582791D01*
X-7053181Y-6715694D01*
G36*
X-6043890Y-7269579D02*
G01*
X-5900399Y-7313904D01*
X-5770419Y-7392802D01*
X-5749113Y-7410675D01*
X-5682976Y-7481423D01*
X-5620900Y-7568335D01*
X-5594481Y-7615461D01*
X-5566432Y-7677075D01*
X-5548869Y-7731993D01*
X-5539417Y-7793547D01*
X-5535700Y-7875070D01*
X-5535238Y-7948083D01*
X-5542935Y-8102880D01*
X-5568320Y-8227496D01*
X-5615206Y-8331746D01*
X-5687409Y-8425445D01*
X-5741098Y-8477663D01*
X-5867853Y-8564158D01*
X-6014619Y-8617686D01*
X-6172908Y-8636585D01*
X-6334230Y-8619190D01*
X-6388665Y-8604587D01*
X-6533534Y-8539056D01*
X-6650333Y-8442799D01*
X-6737620Y-8318001D01*
X-6793952Y-8166845D01*
X-6817887Y-7991518D01*
X-6818660Y-7953464D01*
X-6818575Y-7951507D01*
X-6496267Y-7951507D01*
X-6478844Y-8052782D01*
X-6452867Y-8106833D01*
X-6384312Y-8195901D01*
X-6304442Y-8249093D01*
X-6202680Y-8272416D01*
X-6157339Y-8274678D01*
X-6056687Y-8261580D01*
X-5989150Y-8228469D01*
X-5906034Y-8151279D01*
X-5856088Y-8059860D01*
X-5837272Y-7961499D01*
X-5847546Y-7863482D01*
X-5884870Y-7773095D01*
X-5947204Y-7697626D01*
X-6032508Y-7644360D01*
X-6138742Y-7620585D01*
X-6159500Y-7620000D01*
X-6268444Y-7638214D01*
X-6361071Y-7687904D01*
X-6432903Y-7761637D01*
X-6479461Y-7851982D01*
X-6496267Y-7951507D01*
X-6818575Y-7951507D01*
X-6812794Y-7818913D01*
X-6791800Y-7710070D01*
X-6751560Y-7611768D01*
X-6704563Y-7533255D01*
X-6604708Y-7418983D01*
X-6481301Y-7334528D01*
X-6341754Y-7280841D01*
X-6193479Y-7258875D01*
X-6043890Y-7269579D01*
G37*
X-6043890Y-7269579D02*
X-5900399Y-7313904D01*
X-5770419Y-7392802D01*
X-5749113Y-7410675D01*
X-5682976Y-7481423D01*
X-5620900Y-7568335D01*
X-5594481Y-7615461D01*
X-5566432Y-7677075D01*
X-5548869Y-7731993D01*
X-5539417Y-7793547D01*
X-5535700Y-7875070D01*
X-5535238Y-7948083D01*
X-5542935Y-8102880D01*
X-5568320Y-8227496D01*
X-5615206Y-8331746D01*
X-5687409Y-8425445D01*
X-5741098Y-8477663D01*
X-5867853Y-8564158D01*
X-6014619Y-8617686D01*
X-6172908Y-8636585D01*
X-6334230Y-8619190D01*
X-6388665Y-8604587D01*
X-6533534Y-8539056D01*
X-6650333Y-8442799D01*
X-6737620Y-8318001D01*
X-6793952Y-8166845D01*
X-6817887Y-7991518D01*
X-6818660Y-7953464D01*
X-6818575Y-7951507D01*
X-6496267Y-7951507D01*
X-6478844Y-8052782D01*
X-6452867Y-8106833D01*
X-6384312Y-8195901D01*
X-6304442Y-8249093D01*
X-6202680Y-8272416D01*
X-6157339Y-8274678D01*
X-6056687Y-8261580D01*
X-5989150Y-8228469D01*
X-5906034Y-8151279D01*
X-5856088Y-8059860D01*
X-5837272Y-7961499D01*
X-5847546Y-7863482D01*
X-5884870Y-7773095D01*
X-5947204Y-7697626D01*
X-6032508Y-7644360D01*
X-6138742Y-7620585D01*
X-6159500Y-7620000D01*
X-6268444Y-7638214D01*
X-6361071Y-7687904D01*
X-6432903Y-7761637D01*
X-6479461Y-7851982D01*
X-6496267Y-7951507D01*
X-6818575Y-7951507D01*
X-6812794Y-7818913D01*
X-6791800Y-7710070D01*
X-6751560Y-7611768D01*
X-6704563Y-7533255D01*
X-6604708Y-7418983D01*
X-6481301Y-7334528D01*
X-6341754Y-7280841D01*
X-6193479Y-7258875D01*
X-6043890Y-7269579D01*
G36*
X-29598897Y35112466D02*
G01*
X-29411228Y35107686D01*
X-29245349Y35100105D01*
X-29157084Y35093913D01*
X-28551336Y35023235D01*
X-27936637Y34911407D01*
X-27313377Y34758570D01*
X-26681948Y34564863D01*
X-26042740Y34330426D01*
X-25396144Y34055400D01*
X-24742552Y33739925D01*
X-24082354Y33384139D01*
X-23611417Y33108108D01*
X-23305562Y32917593D01*
X-22988038Y32709988D01*
X-22668911Y32492297D01*
X-22358246Y32271524D01*
X-22066108Y32054673D01*
X-21808263Y31853338D01*
X-21550275Y31645787D01*
X-21162680Y31833816D01*
X-20492451Y32136233D01*
X-19813444Y32397324D01*
X-19124601Y32617383D01*
X-18424868Y32796707D01*
X-17713189Y32935592D01*
X-16988510Y33034332D01*
X-16816917Y33051676D01*
X-16677296Y33062088D01*
X-16503444Y33070647D01*
X-16303389Y33077311D01*
X-16085158Y33082038D01*
X-15856777Y33084787D01*
X-15626276Y33085514D01*
X-15401680Y33084179D01*
X-15191018Y33080739D01*
X-15002316Y33075152D01*
X-14843602Y33067376D01*
X-14774334Y33062349D01*
X-14069164Y32982391D01*
X-13367502Y32861925D01*
X-12673010Y32701975D01*
X-11989347Y32503567D01*
X-11320174Y32267725D01*
X-10669151Y31995476D01*
X-10247231Y31794358D01*
X-9957848Y31649310D01*
X-9789049Y31785056D01*
X-9251803Y32199313D01*
X-8694400Y32594979D01*
X-8121355Y32969593D01*
X-7537184Y33320695D01*
X-6946403Y33645822D01*
X-6353526Y33942515D01*
X-5763070Y34208311D01*
X-5179551Y34440750D01*
X-4607484Y34637371D01*
X-4487926Y34674274D01*
X-4031086Y34803881D01*
X-3597847Y34908495D01*
X-3178843Y34989675D01*
X-2764706Y35048985D01*
X-2346072Y35087986D01*
X-1913572Y35108240D01*
X-1880533Y35109042D01*
X-1556380Y35112547D01*
X-1259560Y35106731D01*
X-980395Y35090409D01*
X-709204Y35062400D01*
X-436309Y35021519D01*
X-152029Y34966584D01*
X153315Y34896412D01*
X423333Y34827430D01*
X497867Y34788806D01*
X578888Y34713265D01*
X664108Y34605304D01*
X751238Y34469420D01*
X837990Y34310109D01*
X922075Y34131869D01*
X1001204Y33939195D01*
X1073090Y33736586D01*
X1135444Y33528537D01*
X1182576Y33335491D01*
X1223994Y33123621D01*
X1255240Y32915109D01*
X1277246Y32699799D01*
X1290943Y32467533D01*
X1297264Y32208154D01*
X1297951Y32078084D01*
X1296820Y31866592D01*
X1292661Y31684130D01*
X1284559Y31517653D01*
X1271598Y31354114D01*
X1252863Y31180469D01*
X1227439Y30983674D01*
X1214796Y30892750D01*
X1144023Y30471243D01*
X1047519Y30022976D01*
X926970Y29553449D01*
X784060Y29068157D01*
X620475Y28572598D01*
X437900Y28072271D01*
X238020Y27572671D01*
X95444Y27241500D01*
X-151099Y26702924D01*
X-412589Y26166925D01*
X-692217Y25627557D01*
X-993171Y25078875D01*
X-1318640Y24514934D01*
X-1671815Y23929788D01*
X-1742403Y23815578D01*
X-1996512Y23405906D01*
X-2069796Y23417798D01*
X-2121154Y23428074D01*
X-2150646Y23437618D01*
X-2152048Y23438659D01*
X-2144764Y23458804D01*
X-2118280Y23506962D01*
X-2076806Y23575875D01*
X-2025694Y23656523D01*
X-1744314Y24102833D01*
X-1462126Y24573410D01*
X-1182765Y25061308D01*
X-909869Y25559580D01*
X-647075Y26061280D01*
X-398019Y26559464D01*
X-166337Y27047184D01*
X44333Y27517496D01*
X230354Y27963453D01*
X233668Y27971750D01*
X472938Y28609255D01*
X677785Y29235862D01*
X847636Y29849405D01*
X981916Y30447714D01*
X1080052Y31028620D01*
X1113515Y31294917D01*
X1127959Y31457527D01*
X1138707Y31646346D01*
X1145684Y31851337D01*
X1148817Y32062464D01*
X1148031Y32269692D01*
X1143251Y32462983D01*
X1134405Y32632303D01*
X1124225Y32744834D01*
X1076912Y33064734D01*
X1010956Y33376348D01*
X928353Y33673725D01*
X831104Y33950911D01*
X721206Y34201953D01*
X600659Y34420900D01*
X522842Y34536027D01*
X427369Y34665637D01*
X290702Y34680272D01*
X111049Y34687530D01*
X-100026Y34675331D01*
X-336947Y34644795D01*
X-594137Y34597038D01*
X-866020Y34533178D01*
X-1147021Y34454333D01*
X-1431562Y34361621D01*
X-1595056Y34302298D01*
X-2002543Y34137737D01*
X-2431190Y33943990D01*
X-2875008Y33724354D01*
X-3328009Y33482124D01*
X-3784204Y33220597D01*
X-4237604Y32943068D01*
X-4682221Y32652835D01*
X-5031370Y32411009D01*
X-5133295Y32337514D01*
X-5256902Y32246805D01*
X-5399261Y32141138D01*
X-5557437Y32022770D01*
X-5728499Y31893961D01*
X-5909513Y31756966D01*
X-6097547Y31614043D01*
X-6289669Y31467449D01*
X-6482944Y31319443D01*
X-6674442Y31172281D01*
X-6861229Y31028220D01*
X-7040372Y30889519D01*
X-7208939Y30758434D01*
X-7363997Y30637224D01*
X-7502614Y30528144D01*
X-7621856Y30433454D01*
X-7718791Y30355409D01*
X-7790486Y30296269D01*
X-7834008Y30258289D01*
X-7846648Y30243985D01*
X-7829865Y30225742D01*
X-7787028Y30185524D01*
X-7724235Y30128899D01*
X-7647581Y30061433D01*
X-7630584Y30046662D01*
X-7494257Y29924645D01*
X-7337893Y29778311D01*
X-7169200Y29615313D01*
X-6995886Y29443309D01*
X-6825660Y29269953D01*
X-6666229Y29102900D01*
X-6525302Y28949807D01*
X-6518274Y28941981D01*
X-6058780Y28399506D01*
X-5621557Y27822201D01*
X-5207673Y27211877D01*
X-4818196Y26570347D01*
X-4454193Y25899420D01*
X-4116733Y25200907D01*
X-3806884Y24476621D01*
X-3655809Y24087153D01*
X-3610737Y23965799D01*
X-3570118Y23854513D01*
X-3536630Y23760787D01*
X-3512951Y23692113D01*
X-3502031Y23657092D01*
X-3494993Y23618728D01*
X-3507046Y23603507D01*
X-3548285Y23603215D01*
X-3566424Y23604689D01*
X-3612050Y23611282D01*
X-3641128Y23628154D01*
X-3663751Y23665537D01*
X-3687900Y23727834D01*
X-3986568Y24501425D01*
X-4308593Y25240042D01*
X-4654376Y25944279D01*
X-5024319Y26614729D01*
X-5418822Y27251986D01*
X-5838286Y27856646D01*
X-6283113Y28429301D01*
X-6753703Y28970547D01*
X-7250457Y29480976D01*
X-7773777Y29961183D01*
X-8056035Y30198736D01*
X-8623578Y30635424D01*
X-9212322Y31035515D01*
X-9821990Y31398895D01*
X-10452305Y31725447D01*
X-11102989Y32015056D01*
X-11773768Y32267605D01*
X-12464362Y32482979D01*
X-13174496Y32661061D01*
X-13903892Y32801737D01*
X-14478000Y32884435D01*
X-14612969Y32897658D01*
X-14783027Y32908882D01*
X-14980977Y32918043D01*
X-15199621Y32925078D01*
X-15431759Y32929923D01*
X-15670194Y32932516D01*
X-15907726Y32932794D01*
X-16137157Y32930692D01*
X-16351289Y32926149D01*
X-16542922Y32919101D01*
X-16704859Y32909484D01*
X-16764000Y32904502D01*
X-17491107Y32815242D01*
X-18206469Y32685834D01*
X-18908960Y32516655D01*
X-19597454Y32308082D01*
X-20270824Y32060491D01*
X-20927944Y31774257D01*
X-21567687Y31449758D01*
X-22172084Y31097848D01*
X-22570542Y30840169D01*
X-22947554Y30574430D01*
X-23310924Y30294367D01*
X-23668455Y29993719D01*
X-24027953Y29666224D01*
X-24364044Y29338929D01*
X-24707309Y28984727D01*
X-25020762Y28638273D01*
X-25312856Y28289206D01*
X-25592042Y27927164D01*
X-25866772Y27541786D01*
X-26040392Y27283834D01*
X-26386795Y26730978D01*
X-26718545Y26146255D01*
X-27030979Y25538937D01*
X-27319433Y24918293D01*
X-27579242Y24293596D01*
X-27685585Y24013584D01*
X-27729990Y23896420D01*
X-27771852Y23792213D01*
X-27808199Y23707886D01*
X-27836060Y23650364D01*
X-27851350Y23627292D01*
X-27897193Y23607215D01*
X-27943416Y23600834D01*
X-28002240Y23600834D01*
X-27917316Y23838959D01*
X-27638748Y24568167D01*
X-27331205Y25275857D01*
X-26995873Y25960226D01*
X-26633942Y26619470D01*
X-26246598Y27251786D01*
X-25835029Y27855370D01*
X-25400423Y28428419D01*
X-24943967Y28969128D01*
X-24466850Y29475695D01*
X-23970258Y29946315D01*
X-23794008Y30100546D01*
X-23637932Y30234278D01*
X-23698758Y30283670D01*
X-23765357Y30336992D01*
X-23861430Y30412839D01*
X-23982836Y30508010D01*
X-24125431Y30619300D01*
X-24285073Y30743507D01*
X-24457619Y30877428D01*
X-24638927Y31017859D01*
X-24824853Y31161599D01*
X-25011256Y31305443D01*
X-25193992Y31446188D01*
X-25368919Y31580633D01*
X-25531894Y31705572D01*
X-25678775Y31817805D01*
X-25805419Y31914127D01*
X-25897002Y31983311D01*
X-26406692Y32355660D01*
X-26914777Y32705407D01*
X-27418793Y33031238D01*
X-27916279Y33331835D01*
X-28404772Y33605882D01*
X-28881809Y33852063D01*
X-29344927Y34069062D01*
X-29791664Y34255563D01*
X-30219556Y34410250D01*
X-30626142Y34531806D01*
X-30702250Y34551416D01*
X-30944761Y34605886D01*
X-31181665Y34647055D01*
X-31404815Y34673955D01*
X-31606062Y34685616D01*
X-31777260Y34681069D01*
X-31786054Y34680292D01*
X-31938523Y34666212D01*
X-32042662Y34515148D01*
X-32203584Y34248712D01*
X-32342000Y33948676D01*
X-32458184Y33614276D01*
X-32552409Y33244750D01*
X-32610934Y32931039D01*
X-32627730Y32792602D01*
X-32640158Y32620294D01*
X-32648266Y32422345D01*
X-32652097Y32206986D01*
X-32651697Y31982447D01*
X-32647112Y31756961D01*
X-32638387Y31538757D01*
X-32625567Y31336066D01*
X-32608699Y31157120D01*
X-32600801Y31093834D01*
X-32503557Y30504164D01*
X-32369748Y29898616D01*
X-32199244Y29276875D01*
X-31991913Y28638625D01*
X-31747625Y27983550D01*
X-31466249Y27311336D01*
X-31147655Y26621666D01*
X-30791713Y25914225D01*
X-30398290Y25188698D01*
X-29967258Y24444770D01*
X-29595542Y23836609D01*
X-29512383Y23702721D01*
X-29450767Y23600278D01*
X-29409397Y23525084D01*
X-29386976Y23472940D01*
X-29382208Y23439651D01*
X-29393796Y23421018D01*
X-29420441Y23412844D01*
X-29460848Y23410932D01*
X-29464000Y23410925D01*
X-29484800Y23415088D01*
X-29508004Y23430603D01*
X-29537036Y23461940D01*
X-29575316Y23513570D01*
X-29626268Y23589964D01*
X-29693312Y23695593D01*
X-29743222Y23775726D01*
X-30203543Y24538359D01*
X-30626382Y25281572D01*
X-31011799Y26005511D01*
X-31359852Y26710323D01*
X-31670599Y27396155D01*
X-31944099Y28063154D01*
X-32180410Y28711467D01*
X-32379592Y29341241D01*
X-32541703Y29952623D01*
X-32666800Y30545759D01*
X-32754943Y31120797D01*
X-32786067Y31411334D01*
X-32797416Y31577297D01*
X-32804549Y31771011D01*
X-32807548Y31981361D01*
X-32806500Y32197233D01*
X-32801487Y32407514D01*
X-32792594Y32601089D01*
X-32779904Y32766847D01*
X-32775502Y32808334D01*
X-32713965Y33212277D01*
X-32625113Y33593041D01*
X-32510039Y33946618D01*
X-32386178Y34235763D01*
X-32322816Y34358088D01*
X-32253041Y34478611D01*
X-32181910Y34589764D01*
X-32114480Y34683982D01*
X-32055806Y34753697D01*
X-32017527Y34787435D01*
X-31958361Y34815343D01*
X-31863066Y34846998D01*
X-31737557Y34881210D01*
X-31587748Y34916791D01*
X-31419556Y34952554D01*
X-31238895Y34987308D01*
X-31051680Y35019865D01*
X-30863827Y35049038D01*
X-30681251Y35073636D01*
X-30509868Y35092472D01*
X-30490584Y35094266D01*
X-30354039Y35103529D01*
X-30185927Y35109978D01*
X-29996918Y35113615D01*
X-29797684Y35114443D01*
X-29598897Y35112466D01*
G37*
X-29598897Y35112466D02*
X-29411228Y35107686D01*
X-29245349Y35100105D01*
X-29157084Y35093913D01*
X-28551336Y35023235D01*
X-27936637Y34911407D01*
X-27313377Y34758570D01*
X-26681948Y34564863D01*
X-26042740Y34330426D01*
X-25396144Y34055400D01*
X-24742552Y33739925D01*
X-24082354Y33384139D01*
X-23611417Y33108108D01*
X-23305562Y32917593D01*
X-22988038Y32709988D01*
X-22668911Y32492297D01*
X-22358246Y32271524D01*
X-22066108Y32054673D01*
X-21808263Y31853338D01*
X-21550275Y31645787D01*
X-21162680Y31833816D01*
X-20492451Y32136233D01*
X-19813444Y32397324D01*
X-19124601Y32617383D01*
X-18424868Y32796707D01*
X-17713189Y32935592D01*
X-16988510Y33034332D01*
X-16816917Y33051676D01*
X-16677296Y33062088D01*
X-16503444Y33070647D01*
X-16303389Y33077311D01*
X-16085158Y33082038D01*
X-15856777Y33084787D01*
X-15626276Y33085514D01*
X-15401680Y33084179D01*
X-15191018Y33080739D01*
X-15002316Y33075152D01*
X-14843602Y33067376D01*
X-14774334Y33062349D01*
X-14069164Y32982391D01*
X-13367502Y32861925D01*
X-12673010Y32701975D01*
X-11989347Y32503567D01*
X-11320174Y32267725D01*
X-10669151Y31995476D01*
X-10247231Y31794358D01*
X-9957848Y31649310D01*
X-9789049Y31785056D01*
X-9251803Y32199313D01*
X-8694400Y32594979D01*
X-8121355Y32969593D01*
X-7537184Y33320695D01*
X-6946403Y33645822D01*
X-6353526Y33942515D01*
X-5763070Y34208311D01*
X-5179551Y34440750D01*
X-4607484Y34637371D01*
X-4487926Y34674274D01*
X-4031086Y34803881D01*
X-3597847Y34908495D01*
X-3178843Y34989675D01*
X-2764706Y35048985D01*
X-2346072Y35087986D01*
X-1913572Y35108240D01*
X-1880533Y35109042D01*
X-1556380Y35112547D01*
X-1259560Y35106731D01*
X-980395Y35090409D01*
X-709204Y35062400D01*
X-436309Y35021519D01*
X-152029Y34966584D01*
X153315Y34896412D01*
X423333Y34827430D01*
X497867Y34788806D01*
X578888Y34713265D01*
X664108Y34605304D01*
X751238Y34469420D01*
X837990Y34310109D01*
X922075Y34131869D01*
X1001204Y33939195D01*
X1073090Y33736586D01*
X1135444Y33528537D01*
X1182576Y33335491D01*
X1223994Y33123621D01*
X1255240Y32915109D01*
X1277246Y32699799D01*
X1290943Y32467533D01*
X1297264Y32208154D01*
X1297951Y32078084D01*
X1296820Y31866592D01*
X1292661Y31684130D01*
X1284559Y31517653D01*
X1271598Y31354114D01*
X1252863Y31180469D01*
X1227439Y30983674D01*
X1214796Y30892750D01*
X1144023Y30471243D01*
X1047519Y30022976D01*
X926970Y29553449D01*
X784060Y29068157D01*
X620475Y28572598D01*
X437900Y28072271D01*
X238020Y27572671D01*
X95444Y27241500D01*
X-151099Y26702924D01*
X-412589Y26166925D01*
X-692217Y25627557D01*
X-993171Y25078875D01*
X-1318640Y24514934D01*
X-1671815Y23929788D01*
X-1742403Y23815578D01*
X-1996512Y23405906D01*
X-2069796Y23417798D01*
X-2121154Y23428074D01*
X-2150646Y23437618D01*
X-2152048Y23438659D01*
X-2144764Y23458804D01*
X-2118280Y23506962D01*
X-2076806Y23575875D01*
X-2025694Y23656523D01*
X-1744314Y24102833D01*
X-1462126Y24573410D01*
X-1182765Y25061308D01*
X-909869Y25559580D01*
X-647075Y26061280D01*
X-398019Y26559464D01*
X-166337Y27047184D01*
X44333Y27517496D01*
X230354Y27963453D01*
X233668Y27971750D01*
X472938Y28609255D01*
X677785Y29235862D01*
X847636Y29849405D01*
X981916Y30447714D01*
X1080052Y31028620D01*
X1113515Y31294917D01*
X1127959Y31457527D01*
X1138707Y31646346D01*
X1145684Y31851337D01*
X1148817Y32062464D01*
X1148031Y32269692D01*
X1143251Y32462983D01*
X1134405Y32632303D01*
X1124225Y32744834D01*
X1076912Y33064734D01*
X1010956Y33376348D01*
X928353Y33673725D01*
X831104Y33950911D01*
X721206Y34201953D01*
X600659Y34420900D01*
X522842Y34536027D01*
X427369Y34665637D01*
X290702Y34680272D01*
X111049Y34687530D01*
X-100026Y34675331D01*
X-336947Y34644795D01*
X-594137Y34597038D01*
X-866020Y34533178D01*
X-1147021Y34454333D01*
X-1431562Y34361621D01*
X-1595056Y34302298D01*
X-2002543Y34137737D01*
X-2431190Y33943990D01*
X-2875008Y33724354D01*
X-3328009Y33482124D01*
X-3784204Y33220597D01*
X-4237604Y32943068D01*
X-4682221Y32652835D01*
X-5031370Y32411009D01*
X-5133295Y32337514D01*
X-5256902Y32246805D01*
X-5399261Y32141138D01*
X-5557437Y32022770D01*
X-5728499Y31893961D01*
X-5909513Y31756966D01*
X-6097547Y31614043D01*
X-6289669Y31467449D01*
X-6482944Y31319443D01*
X-6674442Y31172281D01*
X-6861229Y31028220D01*
X-7040372Y30889519D01*
X-7208939Y30758434D01*
X-7363997Y30637224D01*
X-7502614Y30528144D01*
X-7621856Y30433454D01*
X-7718791Y30355409D01*
X-7790486Y30296269D01*
X-7834008Y30258289D01*
X-7846648Y30243985D01*
X-7829865Y30225742D01*
X-7787028Y30185524D01*
X-7724235Y30128899D01*
X-7647581Y30061433D01*
X-7630584Y30046662D01*
X-7494257Y29924645D01*
X-7337893Y29778311D01*
X-7169200Y29615313D01*
X-6995886Y29443309D01*
X-6825660Y29269953D01*
X-6666229Y29102900D01*
X-6525302Y28949807D01*
X-6518274Y28941981D01*
X-6058780Y28399506D01*
X-5621557Y27822201D01*
X-5207673Y27211877D01*
X-4818196Y26570347D01*
X-4454193Y25899420D01*
X-4116733Y25200907D01*
X-3806884Y24476621D01*
X-3655809Y24087153D01*
X-3610737Y23965799D01*
X-3570118Y23854513D01*
X-3536630Y23760787D01*
X-3512951Y23692113D01*
X-3502031Y23657092D01*
X-3494993Y23618728D01*
X-3507046Y23603507D01*
X-3548285Y23603215D01*
X-3566424Y23604689D01*
X-3612050Y23611282D01*
X-3641128Y23628154D01*
X-3663751Y23665537D01*
X-3687900Y23727834D01*
X-3986568Y24501425D01*
X-4308593Y25240042D01*
X-4654376Y25944279D01*
X-5024319Y26614729D01*
X-5418822Y27251986D01*
X-5838286Y27856646D01*
X-6283113Y28429301D01*
X-6753703Y28970547D01*
X-7250457Y29480976D01*
X-7773777Y29961183D01*
X-8056035Y30198736D01*
X-8623578Y30635424D01*
X-9212322Y31035515D01*
X-9821990Y31398895D01*
X-10452305Y31725447D01*
X-11102989Y32015056D01*
X-11773768Y32267605D01*
X-12464362Y32482979D01*
X-13174496Y32661061D01*
X-13903892Y32801737D01*
X-14478000Y32884435D01*
X-14612969Y32897658D01*
X-14783027Y32908882D01*
X-14980977Y32918043D01*
X-15199621Y32925078D01*
X-15431759Y32929923D01*
X-15670194Y32932516D01*
X-15907726Y32932794D01*
X-16137157Y32930692D01*
X-16351289Y32926149D01*
X-16542922Y32919101D01*
X-16704859Y32909484D01*
X-16764000Y32904502D01*
X-17491107Y32815242D01*
X-18206469Y32685834D01*
X-18908960Y32516655D01*
X-19597454Y32308082D01*
X-20270824Y32060491D01*
X-20927944Y31774257D01*
X-21567687Y31449758D01*
X-22172084Y31097848D01*
X-22570542Y30840169D01*
X-22947554Y30574430D01*
X-23310924Y30294367D01*
X-23668455Y29993719D01*
X-24027953Y29666224D01*
X-24364044Y29338929D01*
X-24707309Y28984727D01*
X-25020762Y28638273D01*
X-25312856Y28289206D01*
X-25592042Y27927164D01*
X-25866772Y27541786D01*
X-26040392Y27283834D01*
X-26386795Y26730978D01*
X-26718545Y26146255D01*
X-27030979Y25538937D01*
X-27319433Y24918293D01*
X-27579242Y24293596D01*
X-27685585Y24013584D01*
X-27729990Y23896420D01*
X-27771852Y23792213D01*
X-27808199Y23707886D01*
X-27836060Y23650364D01*
X-27851350Y23627292D01*
X-27897193Y23607215D01*
X-27943416Y23600834D01*
X-28002240Y23600834D01*
X-27917316Y23838959D01*
X-27638748Y24568167D01*
X-27331205Y25275857D01*
X-26995873Y25960226D01*
X-26633942Y26619470D01*
X-26246598Y27251786D01*
X-25835029Y27855370D01*
X-25400423Y28428419D01*
X-24943967Y28969128D01*
X-24466850Y29475695D01*
X-23970258Y29946315D01*
X-23794008Y30100546D01*
X-23637932Y30234278D01*
X-23698758Y30283670D01*
X-23765357Y30336992D01*
X-23861430Y30412839D01*
X-23982836Y30508010D01*
X-24125431Y30619300D01*
X-24285073Y30743507D01*
X-24457619Y30877428D01*
X-24638927Y31017859D01*
X-24824853Y31161599D01*
X-25011256Y31305443D01*
X-25193992Y31446188D01*
X-25368919Y31580633D01*
X-25531894Y31705572D01*
X-25678775Y31817805D01*
X-25805419Y31914127D01*
X-25897002Y31983311D01*
X-26406692Y32355660D01*
X-26914777Y32705407D01*
X-27418793Y33031238D01*
X-27916279Y33331835D01*
X-28404772Y33605882D01*
X-28881809Y33852063D01*
X-29344927Y34069062D01*
X-29791664Y34255563D01*
X-30219556Y34410250D01*
X-30626142Y34531806D01*
X-30702250Y34551416D01*
X-30944761Y34605886D01*
X-31181665Y34647055D01*
X-31404815Y34673955D01*
X-31606062Y34685616D01*
X-31777260Y34681069D01*
X-31786054Y34680292D01*
X-31938523Y34666212D01*
X-32042662Y34515148D01*
X-32203584Y34248712D01*
X-32342000Y33948676D01*
X-32458184Y33614276D01*
X-32552409Y33244750D01*
X-32610934Y32931039D01*
X-32627730Y32792602D01*
X-32640158Y32620294D01*
X-32648266Y32422345D01*
X-32652097Y32206986D01*
X-32651697Y31982447D01*
X-32647112Y31756961D01*
X-32638387Y31538757D01*
X-32625567Y31336066D01*
X-32608699Y31157120D01*
X-32600801Y31093834D01*
X-32503557Y30504164D01*
X-32369748Y29898616D01*
X-32199244Y29276875D01*
X-31991913Y28638625D01*
X-31747625Y27983550D01*
X-31466249Y27311336D01*
X-31147655Y26621666D01*
X-30791713Y25914225D01*
X-30398290Y25188698D01*
X-29967258Y24444770D01*
X-29595542Y23836609D01*
X-29512383Y23702721D01*
X-29450767Y23600278D01*
X-29409397Y23525084D01*
X-29386976Y23472940D01*
X-29382208Y23439651D01*
X-29393796Y23421018D01*
X-29420441Y23412844D01*
X-29460848Y23410932D01*
X-29464000Y23410925D01*
X-29484800Y23415088D01*
X-29508004Y23430603D01*
X-29537036Y23461940D01*
X-29575316Y23513570D01*
X-29626268Y23589964D01*
X-29693312Y23695593D01*
X-29743222Y23775726D01*
X-30203543Y24538359D01*
X-30626382Y25281572D01*
X-31011799Y26005511D01*
X-31359852Y26710323D01*
X-31670599Y27396155D01*
X-31944099Y28063154D01*
X-32180410Y28711467D01*
X-32379592Y29341241D01*
X-32541703Y29952623D01*
X-32666800Y30545759D01*
X-32754943Y31120797D01*
X-32786067Y31411334D01*
X-32797416Y31577297D01*
X-32804549Y31771011D01*
X-32807548Y31981361D01*
X-32806500Y32197233D01*
X-32801487Y32407514D01*
X-32792594Y32601089D01*
X-32779904Y32766847D01*
X-32775502Y32808334D01*
X-32713965Y33212277D01*
X-32625113Y33593041D01*
X-32510039Y33946618D01*
X-32386178Y34235763D01*
X-32322816Y34358088D01*
X-32253041Y34478611D01*
X-32181910Y34589764D01*
X-32114480Y34683982D01*
X-32055806Y34753697D01*
X-32017527Y34787435D01*
X-31958361Y34815343D01*
X-31863066Y34846998D01*
X-31737557Y34881210D01*
X-31587748Y34916791D01*
X-31419556Y34952554D01*
X-31238895Y34987308D01*
X-31051680Y35019865D01*
X-30863827Y35049038D01*
X-30681251Y35073636D01*
X-30509868Y35092472D01*
X-30490584Y35094266D01*
X-30354039Y35103529D01*
X-30185927Y35109978D01*
X-29996918Y35113615D01*
X-29797684Y35114443D01*
X-29598897Y35112466D01*
G36*
X-8312156Y23858143D02*
G01*
X-7934416Y23816090D01*
X-7744507Y23780748D01*
X-7607703Y23751396D01*
X-7510085Y23729242D01*
X-7449372Y23712950D01*
X-7423286Y23701185D01*
X-7429548Y23692610D01*
X-7465879Y23685889D01*
X-7529999Y23679686D01*
X-7567084Y23676725D01*
X-8035433Y23638537D01*
X-8465815Y23599794D01*
X-8862596Y23559994D01*
X-9230142Y23518635D01*
X-9572820Y23475214D01*
X-9894995Y23429228D01*
X-10201034Y23380177D01*
X-10312744Y23360852D01*
X-10387776Y23349079D01*
X-10442243Y23343374D01*
X-10466922Y23344607D01*
X-10467253Y23346291D01*
X-10443130Y23363737D01*
X-10387756Y23394389D01*
X-10308735Y23434655D01*
X-10213674Y23480941D01*
X-10110177Y23529655D01*
X-10005850Y23577203D01*
X-9908299Y23619993D01*
X-9825129Y23654431D01*
X-9775699Y23672988D01*
X-9430334Y23771570D01*
X-9066819Y23835527D01*
X-8691859Y23864503D01*
X-8312156Y23858143D01*
G37*
X-8312156Y23858143D02*
X-7934416Y23816090D01*
X-7744507Y23780748D01*
X-7607703Y23751396D01*
X-7510085Y23729242D01*
X-7449372Y23712950D01*
X-7423286Y23701185D01*
X-7429548Y23692610D01*
X-7465879Y23685889D01*
X-7529999Y23679686D01*
X-7567084Y23676725D01*
X-8035433Y23638537D01*
X-8465815Y23599794D01*
X-8862596Y23559994D01*
X-9230142Y23518635D01*
X-9572820Y23475214D01*
X-9894995Y23429228D01*
X-10201034Y23380177D01*
X-10312744Y23360852D01*
X-10387776Y23349079D01*
X-10442243Y23343374D01*
X-10466922Y23344607D01*
X-10467253Y23346291D01*
X-10443130Y23363737D01*
X-10387756Y23394389D01*
X-10308735Y23434655D01*
X-10213674Y23480941D01*
X-10110177Y23529655D01*
X-10005850Y23577203D01*
X-9908299Y23619993D01*
X-9825129Y23654431D01*
X-9775699Y23672988D01*
X-9430334Y23771570D01*
X-9066819Y23835527D01*
X-8691859Y23864503D01*
X-8312156Y23858143D01*
G36*
X-22451352Y23840596D02*
G01*
X-22288043Y23816443D01*
X-21955565Y23738869D01*
X-21622902Y23627401D01*
X-21346584Y23507334D01*
X-21252077Y23460123D01*
X-21167511Y23415532D01*
X-21098664Y23376915D01*
X-21051319Y23347624D01*
X-21031258Y23331014D01*
X-21039667Y23329303D01*
X-21063691Y23333756D01*
X-21120046Y23343943D01*
X-21199385Y23358177D01*
X-21261917Y23369349D01*
X-21523850Y23413099D01*
X-21817824Y23456988D01*
X-22133573Y23499743D01*
X-22460828Y23540089D01*
X-22789321Y23576751D01*
X-23108786Y23608456D01*
X-23368000Y23630748D01*
X-23509010Y23641878D01*
X-23650951Y23653082D01*
X-23782249Y23663447D01*
X-23891332Y23672059D01*
X-23950084Y23676698D01*
X-24140584Y23691740D01*
X-23992417Y23730321D01*
X-23692431Y23795263D01*
X-23377391Y23839314D01*
X-23058238Y23861921D01*
X-22745912Y23862533D01*
X-22451352Y23840596D01*
G37*
X-22451352Y23840596D02*
X-22288043Y23816443D01*
X-21955565Y23738869D01*
X-21622902Y23627401D01*
X-21346584Y23507334D01*
X-21252077Y23460123D01*
X-21167511Y23415532D01*
X-21098664Y23376915D01*
X-21051319Y23347624D01*
X-21031258Y23331014D01*
X-21039667Y23329303D01*
X-21063691Y23333756D01*
X-21120046Y23343943D01*
X-21199385Y23358177D01*
X-21261917Y23369349D01*
X-21523850Y23413099D01*
X-21817824Y23456988D01*
X-22133573Y23499743D01*
X-22460828Y23540089D01*
X-22789321Y23576751D01*
X-23108786Y23608456D01*
X-23368000Y23630748D01*
X-23509010Y23641878D01*
X-23650951Y23653082D01*
X-23782249Y23663447D01*
X-23891332Y23672059D01*
X-23950084Y23676698D01*
X-24140584Y23691740D01*
X-23992417Y23730321D01*
X-23692431Y23795263D01*
X-23377391Y23839314D01*
X-23058238Y23861921D01*
X-22745912Y23862533D01*
X-22451352Y23840596D01*
G36*
X-8659661Y25088509D02*
G01*
X-8448962Y25079185D01*
X-8256703Y25061724D01*
X-8071101Y25034679D01*
X-7880372Y24996599D01*
X-7672733Y24946035D01*
X-7630579Y24934945D01*
X-7279130Y24831248D01*
X-6937772Y24708680D01*
X-6599871Y24564138D01*
X-6258796Y24394518D01*
X-5907911Y24196718D01*
X-5540585Y23967635D01*
X-5484995Y23931263D01*
X-5159740Y23717250D01*
X-5289607Y23710938D01*
X-5346175Y23709067D01*
X-5390760Y23712362D01*
X-5433123Y23724590D01*
X-5483028Y23749517D01*
X-5550236Y23790911D01*
X-5627323Y23841240D01*
X-6062247Y24108516D01*
X-6499598Y24340699D01*
X-6937063Y24537001D01*
X-7372329Y24696632D01*
X-7803082Y24818805D01*
X-8227009Y24902730D01*
X-8641796Y24947619D01*
X-8895997Y24955500D01*
X-9305610Y24934600D01*
X-9708805Y24872299D01*
X-10104446Y24769202D01*
X-10491395Y24625910D01*
X-10868516Y24443028D01*
X-11234670Y24221158D01*
X-11588721Y23960902D01*
X-11929532Y23662865D01*
X-12255965Y23327648D01*
X-12494538Y23047397D01*
X-12579735Y22945809D01*
X-12645466Y22877590D01*
X-12694469Y22840067D01*
X-12716093Y22831362D01*
X-12778941Y22816449D01*
X-12821709Y22805125D01*
X-12858171Y22800027D01*
X-12869334Y22806306D01*
X-12856263Y22831946D01*
X-12820024Y22884052D01*
X-12765078Y22957014D01*
X-12695882Y23045223D01*
X-12616899Y23143068D01*
X-12532587Y23244942D01*
X-12447406Y23345235D01*
X-12375150Y23427864D01*
X-12053088Y23762996D01*
X-11714171Y24063527D01*
X-11360442Y24328140D01*
X-10993942Y24555520D01*
X-10616714Y24744350D01*
X-10230800Y24893315D01*
X-9990667Y24964395D01*
X-9830823Y25004656D01*
X-9690374Y25035578D01*
X-9559242Y25058332D01*
X-9427347Y25074090D01*
X-9284612Y25084025D01*
X-9120956Y25089307D01*
X-8926302Y25091110D01*
X-8900584Y25091147D01*
X-8659661Y25088509D01*
G37*
X-8659661Y25088509D02*
X-8448962Y25079185D01*
X-8256703Y25061724D01*
X-8071101Y25034679D01*
X-7880372Y24996599D01*
X-7672733Y24946035D01*
X-7630579Y24934945D01*
X-7279130Y24831248D01*
X-6937772Y24708680D01*
X-6599871Y24564138D01*
X-6258796Y24394518D01*
X-5907911Y24196718D01*
X-5540585Y23967635D01*
X-5484995Y23931263D01*
X-5159740Y23717250D01*
X-5289607Y23710938D01*
X-5346175Y23709067D01*
X-5390760Y23712362D01*
X-5433123Y23724590D01*
X-5483028Y23749517D01*
X-5550236Y23790911D01*
X-5627323Y23841240D01*
X-6062247Y24108516D01*
X-6499598Y24340699D01*
X-6937063Y24537001D01*
X-7372329Y24696632D01*
X-7803082Y24818805D01*
X-8227009Y24902730D01*
X-8641796Y24947619D01*
X-8895997Y24955500D01*
X-9305610Y24934600D01*
X-9708805Y24872299D01*
X-10104446Y24769202D01*
X-10491395Y24625910D01*
X-10868516Y24443028D01*
X-11234670Y24221158D01*
X-11588721Y23960902D01*
X-11929532Y23662865D01*
X-12255965Y23327648D01*
X-12494538Y23047397D01*
X-12579735Y22945809D01*
X-12645466Y22877590D01*
X-12694469Y22840067D01*
X-12716093Y22831362D01*
X-12778941Y22816449D01*
X-12821709Y22805125D01*
X-12858171Y22800027D01*
X-12869334Y22806306D01*
X-12856263Y22831946D01*
X-12820024Y22884052D01*
X-12765078Y22957014D01*
X-12695882Y23045223D01*
X-12616899Y23143068D01*
X-12532587Y23244942D01*
X-12447406Y23345235D01*
X-12375150Y23427864D01*
X-12053088Y23762996D01*
X-11714171Y24063527D01*
X-11360442Y24328140D01*
X-10993942Y24555520D01*
X-10616714Y24744350D01*
X-10230800Y24893315D01*
X-9990667Y24964395D01*
X-9830823Y25004656D01*
X-9690374Y25035578D01*
X-9559242Y25058332D01*
X-9427347Y25074090D01*
X-9284612Y25084025D01*
X-9120956Y25089307D01*
X-8926302Y25091110D01*
X-8900584Y25091147D01*
X-8659661Y25088509D01*
G36*
X-22457834Y25097068D02*
G01*
X-22042767Y25063132D01*
X-21643395Y24993084D01*
X-21257594Y24886010D01*
X-20883239Y24740991D01*
X-20518207Y24557112D01*
X-20160374Y24333458D01*
X-19807616Y24069111D01*
X-19538634Y23837729D01*
X-19455766Y23759181D01*
X-19362865Y23665568D01*
X-19263414Y23560973D01*
X-19160899Y23449479D01*
X-19058801Y23335167D01*
X-18960605Y23222121D01*
X-18869795Y23114424D01*
X-18789855Y23016157D01*
X-18724267Y22931403D01*
X-18676517Y22864245D01*
X-18650087Y22818765D01*
X-18648462Y22799046D01*
X-18651897Y22798579D01*
X-18688517Y22805165D01*
X-18746899Y22819159D01*
X-18769048Y22825037D01*
X-18814346Y22841332D01*
X-18856139Y22867735D01*
X-18902255Y22911121D01*
X-18960521Y22978365D01*
X-19001635Y23029334D01*
X-19095128Y23140931D01*
X-19211465Y23270625D01*
X-19342897Y23410533D01*
X-19481676Y23552777D01*
X-19620051Y23689477D01*
X-19750276Y23812751D01*
X-19864601Y23914720D01*
X-19907250Y23950304D01*
X-20159854Y24140773D01*
X-20430775Y24318769D01*
X-20710223Y24478766D01*
X-20988405Y24615237D01*
X-21255529Y24722655D01*
X-21306310Y24740015D01*
X-21709929Y24851689D01*
X-22120574Y24921783D01*
X-22538338Y24950288D01*
X-22963314Y24937199D01*
X-23395596Y24882508D01*
X-23835279Y24786207D01*
X-24282456Y24648289D01*
X-24722667Y24475087D01*
X-24967210Y24363846D01*
X-25202150Y24245864D01*
X-25438515Y24115128D01*
X-25687334Y23965630D01*
X-25869137Y23850275D01*
X-25963129Y23790071D01*
X-26030721Y23749451D01*
X-26080930Y23724814D01*
X-26122775Y23712560D01*
X-26165275Y23709089D01*
X-26217450Y23710800D01*
X-26218387Y23710848D01*
X-26341917Y23717250D01*
X-26140834Y23857118D01*
X-25705557Y24140334D01*
X-25265169Y24388547D01*
X-24821934Y24600994D01*
X-24378114Y24776915D01*
X-23935974Y24915546D01*
X-23497775Y25016127D01*
X-23065781Y25077895D01*
X-22642256Y25100088D01*
X-22457834Y25097068D01*
G37*
X-22457834Y25097068D02*
X-22042767Y25063132D01*
X-21643395Y24993084D01*
X-21257594Y24886010D01*
X-20883239Y24740991D01*
X-20518207Y24557112D01*
X-20160374Y24333458D01*
X-19807616Y24069111D01*
X-19538634Y23837729D01*
X-19455766Y23759181D01*
X-19362865Y23665568D01*
X-19263414Y23560973D01*
X-19160899Y23449479D01*
X-19058801Y23335167D01*
X-18960605Y23222121D01*
X-18869795Y23114424D01*
X-18789855Y23016157D01*
X-18724267Y22931403D01*
X-18676517Y22864245D01*
X-18650087Y22818765D01*
X-18648462Y22799046D01*
X-18651897Y22798579D01*
X-18688517Y22805165D01*
X-18746899Y22819159D01*
X-18769048Y22825037D01*
X-18814346Y22841332D01*
X-18856139Y22867735D01*
X-18902255Y22911121D01*
X-18960521Y22978365D01*
X-19001635Y23029334D01*
X-19095128Y23140931D01*
X-19211465Y23270625D01*
X-19342897Y23410533D01*
X-19481676Y23552777D01*
X-19620051Y23689477D01*
X-19750276Y23812751D01*
X-19864601Y23914720D01*
X-19907250Y23950304D01*
X-20159854Y24140773D01*
X-20430775Y24318769D01*
X-20710223Y24478766D01*
X-20988405Y24615237D01*
X-21255529Y24722655D01*
X-21306310Y24740015D01*
X-21709929Y24851689D01*
X-22120574Y24921783D01*
X-22538338Y24950288D01*
X-22963314Y24937199D01*
X-23395596Y24882508D01*
X-23835279Y24786207D01*
X-24282456Y24648289D01*
X-24722667Y24475087D01*
X-24967210Y24363846D01*
X-25202150Y24245864D01*
X-25438515Y24115128D01*
X-25687334Y23965630D01*
X-25869137Y23850275D01*
X-25963129Y23790071D01*
X-26030721Y23749451D01*
X-26080930Y23724814D01*
X-26122775Y23712560D01*
X-26165275Y23709089D01*
X-26217450Y23710800D01*
X-26218387Y23710848D01*
X-26341917Y23717250D01*
X-26140834Y23857118D01*
X-25705557Y24140334D01*
X-25265169Y24388547D01*
X-24821934Y24600994D01*
X-24378114Y24776915D01*
X-23935974Y24915546D01*
X-23497775Y25016127D01*
X-23065781Y25077895D01*
X-22642256Y25100088D01*
X-22457834Y25097068D01*
G36*
X-3637072Y22125023D02*
G01*
X-3587594Y22105691D01*
X-3519408Y22075832D01*
X-3502401Y22068021D01*
X-3415269Y22023546D01*
X-3351390Y21977677D01*
X-3293987Y21916744D01*
X-3255150Y21866560D01*
X-3156638Y21733993D01*
X-3143250Y21884987D01*
X-3072295Y21839878D01*
X-3001340Y21794770D01*
X-3015750Y21640990D01*
X-3021662Y21550515D01*
X-3017821Y21484782D01*
X-3002355Y21426940D01*
X-2988104Y21392134D01*
X-2918587Y21261478D01*
X-2817253Y21110068D01*
X-2686906Y20941514D01*
X-2530351Y20759424D01*
X-2350392Y20567407D01*
X-2334532Y20551177D01*
X-2156536Y20369604D01*
X-2163060Y20256052D01*
X-2169584Y20142501D01*
X-2428279Y20416839D01*
X-2527954Y20524442D01*
X-2631709Y20639711D01*
X-2730005Y20751836D01*
X-2813303Y20850007D01*
X-2847467Y20891881D01*
X-2918596Y20986550D01*
X-2989013Y21090322D01*
X-3054165Y21195333D01*
X-3109495Y21293718D01*
X-3150451Y21377612D01*
X-3172478Y21439150D01*
X-3175000Y21457472D01*
X-3188477Y21493933D01*
X-3226977Y21558116D01*
X-3287605Y21645919D01*
X-3367469Y21753242D01*
X-3463673Y21875984D01*
X-3515797Y21940385D01*
X-3574867Y22013947D01*
X-3621599Y22074637D01*
X-3650863Y22115622D01*
X-3658103Y22129954D01*
X-3637072Y22125023D01*
G37*
X-3637072Y22125023D02*
X-3587594Y22105691D01*
X-3519408Y22075832D01*
X-3502401Y22068021D01*
X-3415269Y22023546D01*
X-3351390Y21977677D01*
X-3293987Y21916744D01*
X-3255150Y21866560D01*
X-3156638Y21733993D01*
X-3143250Y21884987D01*
X-3072295Y21839878D01*
X-3001340Y21794770D01*
X-3015750Y21640990D01*
X-3021662Y21550515D01*
X-3017821Y21484782D01*
X-3002355Y21426940D01*
X-2988104Y21392134D01*
X-2918587Y21261478D01*
X-2817253Y21110068D01*
X-2686906Y20941514D01*
X-2530351Y20759424D01*
X-2350392Y20567407D01*
X-2334532Y20551177D01*
X-2156536Y20369604D01*
X-2163060Y20256052D01*
X-2169584Y20142501D01*
X-2428279Y20416839D01*
X-2527954Y20524442D01*
X-2631709Y20639711D01*
X-2730005Y20751836D01*
X-2813303Y20850007D01*
X-2847467Y20891881D01*
X-2918596Y20986550D01*
X-2989013Y21090322D01*
X-3054165Y21195333D01*
X-3109495Y21293718D01*
X-3150451Y21377612D01*
X-3172478Y21439150D01*
X-3175000Y21457472D01*
X-3188477Y21493933D01*
X-3226977Y21558116D01*
X-3287605Y21645919D01*
X-3367469Y21753242D01*
X-3463673Y21875984D01*
X-3515797Y21940385D01*
X-3574867Y22013947D01*
X-3621599Y22074637D01*
X-3650863Y22115622D01*
X-3658103Y22129954D01*
X-3637072Y22125023D01*
G36*
X-27965209Y21977900D02*
G01*
X-28107818Y21800167D01*
X-28218880Y21648963D01*
X-28298198Y21524580D01*
X-28345571Y21427311D01*
X-28352879Y21405671D01*
X-28407247Y21272655D01*
X-28497631Y21118148D01*
X-28623774Y20942489D01*
X-28785425Y20746021D01*
X-28982328Y20529084D01*
X-29086865Y20420265D01*
X-29360385Y20140084D01*
X-29351864Y20250541D01*
X-29344958Y20307804D01*
X-29330333Y20354137D01*
X-29301707Y20401259D01*
X-29252797Y20460889D01*
X-29218463Y20499401D01*
X-29086783Y20645746D01*
X-28979879Y20765664D01*
X-28893824Y20863842D01*
X-28824691Y20944967D01*
X-28768552Y21013728D01*
X-28721480Y21074812D01*
X-28679547Y21132907D01*
X-28643716Y21185372D01*
X-28558810Y21326734D01*
X-28504223Y21455646D01*
X-28475820Y21584255D01*
X-28469167Y21698012D01*
X-28466779Y21769297D01*
X-28456383Y21812160D01*
X-28433133Y21840398D01*
X-28414414Y21853841D01*
X-28374751Y21876810D01*
X-28354249Y21882943D01*
X-28354036Y21882733D01*
X-28340627Y21860604D01*
X-28327652Y21837065D01*
X-28313586Y21819696D01*
X-28295261Y21823796D01*
X-28265731Y21853989D01*
X-28225544Y21905054D01*
X-28162420Y21975289D01*
X-28097255Y22027371D01*
X-28068555Y22042567D01*
X-27996357Y22072373D01*
X-27919345Y22104674D01*
X-27910375Y22108478D01*
X-27827833Y22143549D01*
X-27965209Y21977900D01*
G37*
X-27965209Y21977900D02*
X-28107818Y21800167D01*
X-28218880Y21648963D01*
X-28298198Y21524580D01*
X-28345571Y21427311D01*
X-28352879Y21405671D01*
X-28407247Y21272655D01*
X-28497631Y21118148D01*
X-28623774Y20942489D01*
X-28785425Y20746021D01*
X-28982328Y20529084D01*
X-29086865Y20420265D01*
X-29360385Y20140084D01*
X-29351864Y20250541D01*
X-29344958Y20307804D01*
X-29330333Y20354137D01*
X-29301707Y20401259D01*
X-29252797Y20460889D01*
X-29218463Y20499401D01*
X-29086783Y20645746D01*
X-28979879Y20765664D01*
X-28893824Y20863842D01*
X-28824691Y20944967D01*
X-28768552Y21013728D01*
X-28721480Y21074812D01*
X-28679547Y21132907D01*
X-28643716Y21185372D01*
X-28558810Y21326734D01*
X-28504223Y21455646D01*
X-28475820Y21584255D01*
X-28469167Y21698012D01*
X-28466779Y21769297D01*
X-28456383Y21812160D01*
X-28433133Y21840398D01*
X-28414414Y21853841D01*
X-28374751Y21876810D01*
X-28354249Y21882943D01*
X-28354036Y21882733D01*
X-28340627Y21860604D01*
X-28327652Y21837065D01*
X-28313586Y21819696D01*
X-28295261Y21823796D01*
X-28265731Y21853989D01*
X-28225544Y21905054D01*
X-28162420Y21975289D01*
X-28097255Y22027371D01*
X-28068555Y22042567D01*
X-27996357Y22072373D01*
X-27919345Y22104674D01*
X-27910375Y22108478D01*
X-27827833Y22143549D01*
X-27965209Y21977900D01*
G36*
X-15544164Y18921808D02*
G01*
X-15349421Y18889139D01*
X-15132199Y18837358D01*
X-14992124Y18798577D01*
X-14784917Y18739022D01*
X-14752122Y18833967D01*
X-14719326Y18928911D01*
X-14680734Y18801451D01*
X-14660952Y18711145D01*
X-14658375Y18635138D01*
X-14671980Y18581170D01*
X-14700741Y18556982D01*
X-14713112Y18556814D01*
X-14743274Y18564163D01*
X-14805709Y18581412D01*
X-14892167Y18606219D01*
X-14994398Y18636239D01*
X-15028334Y18646337D01*
X-15244861Y18707194D01*
X-15429779Y18750418D01*
X-15589518Y18776955D01*
X-15730506Y18787750D01*
X-15859174Y18783747D01*
X-15917334Y18777006D01*
X-16095151Y18745702D01*
X-16292986Y18700966D01*
X-16492507Y18647295D01*
X-16656583Y18595678D01*
X-16731180Y18570444D01*
X-16788298Y18551581D01*
X-16817882Y18542397D01*
X-16819775Y18542000D01*
X-16828876Y18560101D01*
X-16844105Y18605164D01*
X-16848962Y18621375D01*
X-16860246Y18677997D01*
X-16856203Y18733896D01*
X-16835237Y18807458D01*
X-16831976Y18816994D01*
X-16791829Y18933237D01*
X-16764552Y18848744D01*
X-16745916Y18793136D01*
X-16732355Y18756427D01*
X-16729937Y18751152D01*
X-16707935Y18751271D01*
X-16654486Y18762070D01*
X-16578530Y18781540D01*
X-16519511Y18798432D01*
X-16291954Y18861339D01*
X-16090323Y18905130D01*
X-15904934Y18929804D01*
X-15726108Y18935363D01*
X-15544164Y18921808D01*
G37*
X-15544164Y18921808D02*
X-15349421Y18889139D01*
X-15132199Y18837358D01*
X-14992124Y18798577D01*
X-14784917Y18739022D01*
X-14752122Y18833967D01*
X-14719326Y18928911D01*
X-14680734Y18801451D01*
X-14660952Y18711145D01*
X-14658375Y18635138D01*
X-14671980Y18581170D01*
X-14700741Y18556982D01*
X-14713112Y18556814D01*
X-14743274Y18564163D01*
X-14805709Y18581412D01*
X-14892167Y18606219D01*
X-14994398Y18636239D01*
X-15028334Y18646337D01*
X-15244861Y18707194D01*
X-15429779Y18750418D01*
X-15589518Y18776955D01*
X-15730506Y18787750D01*
X-15859174Y18783747D01*
X-15917334Y18777006D01*
X-16095151Y18745702D01*
X-16292986Y18700966D01*
X-16492507Y18647295D01*
X-16656583Y18595678D01*
X-16731180Y18570444D01*
X-16788298Y18551581D01*
X-16817882Y18542397D01*
X-16819775Y18542000D01*
X-16828876Y18560101D01*
X-16844105Y18605164D01*
X-16848962Y18621375D01*
X-16860246Y18677997D01*
X-16856203Y18733896D01*
X-16835237Y18807458D01*
X-16831976Y18816994D01*
X-16791829Y18933237D01*
X-16764552Y18848744D01*
X-16745916Y18793136D01*
X-16732355Y18756427D01*
X-16729937Y18751152D01*
X-16707935Y18751271D01*
X-16654486Y18762070D01*
X-16578530Y18781540D01*
X-16519511Y18798432D01*
X-16291954Y18861339D01*
X-16090323Y18905130D01*
X-15904934Y18929804D01*
X-15726108Y18935363D01*
X-15544164Y18921808D01*
G36*
X-1467281Y16729957D02*
G01*
X-1361524Y16568480D01*
X-1276892Y16379042D01*
X-1215752Y16171630D01*
X-1180469Y15956234D01*
X-1173409Y15742840D01*
X-1191916Y15567418D01*
X-1259706Y15310278D01*
X-1367785Y15065019D01*
X-1515688Y14832057D01*
X-1702953Y14611811D01*
X-1929114Y14404697D01*
X-2193709Y14211134D01*
X-2496273Y14031540D01*
X-2836343Y13866332D01*
X-3213455Y13715927D01*
X-3269580Y13695936D01*
X-3459409Y13629262D01*
X-3194176Y13900173D01*
X-2843098Y14288970D01*
X-2523930Y14705561D01*
X-2236719Y15149867D01*
X-1981514Y15621810D01*
X-1758363Y16121309D01*
X-1617861Y16497124D01*
X-1516330Y16791164D01*
X-1467281Y16729957D01*
G37*
X-1467281Y16729957D02*
X-1361524Y16568480D01*
X-1276892Y16379042D01*
X-1215752Y16171630D01*
X-1180469Y15956234D01*
X-1173409Y15742840D01*
X-1191916Y15567418D01*
X-1259706Y15310278D01*
X-1367785Y15065019D01*
X-1515688Y14832057D01*
X-1702953Y14611811D01*
X-1929114Y14404697D01*
X-2193709Y14211134D01*
X-2496273Y14031540D01*
X-2836343Y13866332D01*
X-3213455Y13715927D01*
X-3269580Y13695936D01*
X-3459409Y13629262D01*
X-3194176Y13900173D01*
X-2843098Y14288970D01*
X-2523930Y14705561D01*
X-2236719Y15149867D01*
X-1981514Y15621810D01*
X-1758363Y16121309D01*
X-1617861Y16497124D01*
X-1516330Y16791164D01*
X-1467281Y16729957D01*
G36*
X-29992793Y16774353D02*
G01*
X-29976746Y16747942D01*
X-29961665Y16698607D01*
X-29960881Y16694966D01*
X-29940314Y16619822D01*
X-29904629Y16513925D01*
X-29856819Y16384782D01*
X-29799879Y16239905D01*
X-29736801Y16086800D01*
X-29670580Y15932979D01*
X-29604208Y15785950D01*
X-29567357Y15707851D01*
X-29332402Y15257430D01*
X-29074416Y14834661D01*
X-28795594Y14442657D01*
X-28498134Y14084530D01*
X-28216792Y13794223D01*
X-28150326Y13729571D01*
X-28098843Y13677260D01*
X-28067827Y13643021D01*
X-28061941Y13632391D01*
X-28087428Y13639707D01*
X-28143061Y13658493D01*
X-28219303Y13685477D01*
X-28268084Y13703180D01*
X-28655518Y13858748D01*
X-29002803Y14027185D01*
X-29310183Y14208689D01*
X-29577901Y14403457D01*
X-29806199Y14611685D01*
X-29995322Y14833571D01*
X-30145512Y15069312D01*
X-30254221Y15311384D01*
X-30282419Y15394631D01*
X-30301681Y15469799D01*
X-30314202Y15550165D01*
X-30322179Y15649009D01*
X-30326745Y15749785D01*
X-30325006Y15967036D01*
X-30301075Y16158365D01*
X-30252912Y16335083D01*
X-30196356Y16471861D01*
X-30152112Y16558523D01*
X-30104961Y16639740D01*
X-30059998Y16707939D01*
X-30022316Y16755552D01*
X-29997010Y16775008D01*
X-29992793Y16774353D01*
G37*
X-29992793Y16774353D02*
X-29976746Y16747942D01*
X-29961665Y16698607D01*
X-29960881Y16694966D01*
X-29940314Y16619822D01*
X-29904629Y16513925D01*
X-29856819Y16384782D01*
X-29799879Y16239905D01*
X-29736801Y16086800D01*
X-29670580Y15932979D01*
X-29604208Y15785950D01*
X-29567357Y15707851D01*
X-29332402Y15257430D01*
X-29074416Y14834661D01*
X-28795594Y14442657D01*
X-28498134Y14084530D01*
X-28216792Y13794223D01*
X-28150326Y13729571D01*
X-28098843Y13677260D01*
X-28067827Y13643021D01*
X-28061941Y13632391D01*
X-28087428Y13639707D01*
X-28143061Y13658493D01*
X-28219303Y13685477D01*
X-28268084Y13703180D01*
X-28655518Y13858748D01*
X-29002803Y14027185D01*
X-29310183Y14208689D01*
X-29577901Y14403457D01*
X-29806199Y14611685D01*
X-29995322Y14833571D01*
X-30145512Y15069312D01*
X-30254221Y15311384D01*
X-30282419Y15394631D01*
X-30301681Y15469799D01*
X-30314202Y15550165D01*
X-30322179Y15649009D01*
X-30326745Y15749785D01*
X-30325006Y15967036D01*
X-30301075Y16158365D01*
X-30252912Y16335083D01*
X-30196356Y16471861D01*
X-30152112Y16558523D01*
X-30104961Y16639740D01*
X-30059998Y16707939D01*
X-30022316Y16755552D01*
X-29997010Y16775008D01*
X-29992793Y16774353D01*
G36*
X-6080971Y22534879D02*
G01*
X-5867130Y22531256D01*
X-5674943Y22525386D01*
X-5508429Y22517367D01*
X-5371609Y22507296D01*
X-5268503Y22495272D01*
X-5203131Y22481391D01*
X-5197412Y22479379D01*
X-5163072Y22456712D01*
X-5105344Y22408080D01*
X-5029466Y22338705D01*
X-4940681Y22253804D01*
X-4844228Y22158597D01*
X-4745349Y22058303D01*
X-4649284Y21958142D01*
X-4561274Y21863334D01*
X-4486560Y21779097D01*
X-4448232Y21733257D01*
X-4326686Y21577144D01*
X-4215110Y21420579D01*
X-4111129Y21258807D01*
X-4012370Y21087077D01*
X-3916457Y20900634D01*
X-3821016Y20694726D01*
X-3723672Y20464601D01*
X-3622051Y20205504D01*
X-3513777Y19912684D01*
X-3451373Y19737917D01*
X-3372727Y19516380D01*
X-3305566Y19329616D01*
X-3247844Y19172285D01*
X-3197515Y19039048D01*
X-3152532Y18924566D01*
X-3110849Y18823500D01*
X-3070420Y18730509D01*
X-3037638Y18658417D01*
X-2900981Y18394011D01*
X-2736046Y18125896D01*
X-2552657Y17868819D01*
X-2360634Y17637525D01*
X-2349643Y17625436D01*
X-2239796Y17505245D01*
X-2295730Y17235165D01*
X-2413617Y16743345D01*
X-2557419Y16279602D01*
X-2726449Y15844899D01*
X-2920016Y15440200D01*
X-3137432Y15066468D01*
X-3378007Y14724668D01*
X-3641052Y14415764D01*
X-3925878Y14140720D01*
X-4231796Y13900499D01*
X-4558116Y13696065D01*
X-4904149Y13528382D01*
X-4963584Y13504118D01*
X-5140401Y13441768D01*
X-5350845Y13380901D01*
X-5586209Y13323354D01*
X-5837788Y13270966D01*
X-6096876Y13225574D01*
X-6354769Y13189018D01*
X-6561667Y13166702D01*
X-6650458Y13160811D01*
X-6769925Y13155965D01*
X-6911425Y13152223D01*
X-7066314Y13149643D01*
X-7225949Y13148285D01*
X-7381686Y13148206D01*
X-7524883Y13149465D01*
X-7646895Y13152121D01*
X-7739079Y13156232D01*
X-7768167Y13158536D01*
X-8228224Y13212802D01*
X-8655412Y13283063D01*
X-9056812Y13371312D01*
X-9439506Y13479542D01*
X-9810576Y13609745D01*
X-10177102Y13763916D01*
X-10530417Y13935877D01*
X-10878683Y14126491D01*
X-11189787Y14319981D01*
X-11468871Y14520807D01*
X-11721078Y14733428D01*
X-11951550Y14962306D01*
X-12165429Y15211899D01*
X-12367856Y15486668D01*
X-12436716Y15589250D01*
X-12657172Y15956015D01*
X-12859940Y16356016D01*
X-13042352Y16782909D01*
X-13201741Y17230351D01*
X-13335440Y17692001D01*
X-13357149Y17778468D01*
X-13426792Y18062685D01*
X-13389162Y18244135D01*
X-13334054Y18485892D01*
X-13328704Y18506458D01*
X-11102098Y18506458D01*
X-11097717Y18206824D01*
X-11056867Y17909371D01*
X-10979549Y17617452D01*
X-10865763Y17334420D01*
X-10715511Y17063629D01*
X-10528791Y16808430D01*
X-10361937Y16626417D01*
X-10116455Y16411670D01*
X-9850512Y16232696D01*
X-9567283Y16090522D01*
X-9269944Y15986177D01*
X-8961670Y15920688D01*
X-8645637Y15895082D01*
X-8325022Y15910388D01*
X-8201604Y15927313D01*
X-7892022Y15998596D01*
X-7595756Y16108594D01*
X-7316308Y16254843D01*
X-7057183Y16434879D01*
X-6821881Y16646236D01*
X-6613908Y16886450D01*
X-6436765Y17153056D01*
X-6421659Y17179682D01*
X-6282657Y17469950D01*
X-6183601Y17769355D01*
X-6124005Y18074487D01*
X-6103385Y18381934D01*
X-6121256Y18688288D01*
X-6177131Y18990136D01*
X-6270526Y19284069D01*
X-6400956Y19566676D01*
X-6567936Y19834547D01*
X-6770980Y20084271D01*
X-6845994Y20162294D01*
X-7091846Y20379007D01*
X-7358914Y20559298D01*
X-7648226Y20703756D01*
X-7960810Y20812973D01*
X-7994778Y20822355D01*
X-8072022Y20842299D01*
X-8139853Y20856868D01*
X-8207346Y20866894D01*
X-8283578Y20873210D01*
X-8377624Y20876648D01*
X-8498560Y20878040D01*
X-8604250Y20878243D01*
X-8749769Y20877774D01*
X-8861957Y20875825D01*
X-8949813Y20871584D01*
X-9022335Y20864236D01*
X-9088520Y20852969D01*
X-9157367Y20836970D01*
X-9207500Y20823731D01*
X-9524030Y20717876D01*
X-9815387Y20578375D01*
X-10083430Y20404166D01*
X-10330014Y20194185D01*
X-10362507Y20162294D01*
X-10576950Y19919988D01*
X-10754922Y19659744D01*
X-10896422Y19384916D01*
X-11001450Y19098857D01*
X-11070009Y18804920D01*
X-11102098Y18506458D01*
X-13328704Y18506458D01*
X-13263536Y18756941D01*
X-13180374Y19048339D01*
X-13087332Y19351142D01*
X-12987176Y19656410D01*
X-12882671Y19955198D01*
X-12776582Y20238565D01*
X-12757133Y20288250D01*
X-12682553Y20470127D01*
X-12600518Y20657443D01*
X-12513414Y20845740D01*
X-12423623Y21030562D01*
X-12333530Y21207450D01*
X-12245518Y21371949D01*
X-12161971Y21519599D01*
X-12085272Y21645944D01*
X-12017806Y21746527D01*
X-11961956Y21816889D01*
X-11920735Y21852258D01*
X-11863204Y21876772D01*
X-11773020Y21909254D01*
X-11658519Y21947099D01*
X-11528039Y21987700D01*
X-11389918Y22028451D01*
X-11252494Y22066746D01*
X-11144250Y22094970D01*
X-10835885Y22166820D01*
X-10511236Y22231496D01*
X-10167380Y22289307D01*
X-9801396Y22340561D01*
X-9410361Y22385566D01*
X-8991355Y22424633D01*
X-8541455Y22458068D01*
X-8057740Y22486180D01*
X-7537287Y22509278D01*
X-7072463Y22524947D01*
X-6812211Y22531289D01*
X-6557531Y22534993D01*
X-6312445Y22536158D01*
X-6080971Y22534879D01*
G37*
X-6080971Y22534879D02*
X-5867130Y22531256D01*
X-5674943Y22525386D01*
X-5508429Y22517367D01*
X-5371609Y22507296D01*
X-5268503Y22495272D01*
X-5203131Y22481391D01*
X-5197412Y22479379D01*
X-5163072Y22456712D01*
X-5105344Y22408080D01*
X-5029466Y22338705D01*
X-4940681Y22253804D01*
X-4844228Y22158597D01*
X-4745349Y22058303D01*
X-4649284Y21958142D01*
X-4561274Y21863334D01*
X-4486560Y21779097D01*
X-4448232Y21733257D01*
X-4326686Y21577144D01*
X-4215110Y21420579D01*
X-4111129Y21258807D01*
X-4012370Y21087077D01*
X-3916457Y20900634D01*
X-3821016Y20694726D01*
X-3723672Y20464601D01*
X-3622051Y20205504D01*
X-3513777Y19912684D01*
X-3451373Y19737917D01*
X-3372727Y19516380D01*
X-3305566Y19329616D01*
X-3247844Y19172285D01*
X-3197515Y19039048D01*
X-3152532Y18924566D01*
X-3110849Y18823500D01*
X-3070420Y18730509D01*
X-3037638Y18658417D01*
X-2900981Y18394011D01*
X-2736046Y18125896D01*
X-2552657Y17868819D01*
X-2360634Y17637525D01*
X-2349643Y17625436D01*
X-2239796Y17505245D01*
X-2295730Y17235165D01*
X-2413617Y16743345D01*
X-2557419Y16279602D01*
X-2726449Y15844899D01*
X-2920016Y15440200D01*
X-3137432Y15066468D01*
X-3378007Y14724668D01*
X-3641052Y14415764D01*
X-3925878Y14140720D01*
X-4231796Y13900499D01*
X-4558116Y13696065D01*
X-4904149Y13528382D01*
X-4963584Y13504118D01*
X-5140401Y13441768D01*
X-5350845Y13380901D01*
X-5586209Y13323354D01*
X-5837788Y13270966D01*
X-6096876Y13225574D01*
X-6354769Y13189018D01*
X-6561667Y13166702D01*
X-6650458Y13160811D01*
X-6769925Y13155965D01*
X-6911425Y13152223D01*
X-7066314Y13149643D01*
X-7225949Y13148285D01*
X-7381686Y13148206D01*
X-7524883Y13149465D01*
X-7646895Y13152121D01*
X-7739079Y13156232D01*
X-7768167Y13158536D01*
X-8228224Y13212802D01*
X-8655412Y13283063D01*
X-9056812Y13371312D01*
X-9439506Y13479542D01*
X-9810576Y13609745D01*
X-10177102Y13763916D01*
X-10530417Y13935877D01*
X-10878683Y14126491D01*
X-11189787Y14319981D01*
X-11468871Y14520807D01*
X-11721078Y14733428D01*
X-11951550Y14962306D01*
X-12165429Y15211899D01*
X-12367856Y15486668D01*
X-12436716Y15589250D01*
X-12657172Y15956015D01*
X-12859940Y16356016D01*
X-13042352Y16782909D01*
X-13201741Y17230351D01*
X-13335440Y17692001D01*
X-13357149Y17778468D01*
X-13426792Y18062685D01*
X-13389162Y18244135D01*
X-13334054Y18485892D01*
X-13328704Y18506458D01*
X-11102098Y18506458D01*
X-11097717Y18206824D01*
X-11056867Y17909371D01*
X-10979549Y17617452D01*
X-10865763Y17334420D01*
X-10715511Y17063629D01*
X-10528791Y16808430D01*
X-10361937Y16626417D01*
X-10116455Y16411670D01*
X-9850512Y16232696D01*
X-9567283Y16090522D01*
X-9269944Y15986177D01*
X-8961670Y15920688D01*
X-8645637Y15895082D01*
X-8325022Y15910388D01*
X-8201604Y15927313D01*
X-7892022Y15998596D01*
X-7595756Y16108594D01*
X-7316308Y16254843D01*
X-7057183Y16434879D01*
X-6821881Y16646236D01*
X-6613908Y16886450D01*
X-6436765Y17153056D01*
X-6421659Y17179682D01*
X-6282657Y17469950D01*
X-6183601Y17769355D01*
X-6124005Y18074487D01*
X-6103385Y18381934D01*
X-6121256Y18688288D01*
X-6177131Y18990136D01*
X-6270526Y19284069D01*
X-6400956Y19566676D01*
X-6567936Y19834547D01*
X-6770980Y20084271D01*
X-6845994Y20162294D01*
X-7091846Y20379007D01*
X-7358914Y20559298D01*
X-7648226Y20703756D01*
X-7960810Y20812973D01*
X-7994778Y20822355D01*
X-8072022Y20842299D01*
X-8139853Y20856868D01*
X-8207346Y20866894D01*
X-8283578Y20873210D01*
X-8377624Y20876648D01*
X-8498560Y20878040D01*
X-8604250Y20878243D01*
X-8749769Y20877774D01*
X-8861957Y20875825D01*
X-8949813Y20871584D01*
X-9022335Y20864236D01*
X-9088520Y20852969D01*
X-9157367Y20836970D01*
X-9207500Y20823731D01*
X-9524030Y20717876D01*
X-9815387Y20578375D01*
X-10083430Y20404166D01*
X-10330014Y20194185D01*
X-10362507Y20162294D01*
X-10576950Y19919988D01*
X-10754922Y19659744D01*
X-10896422Y19384916D01*
X-11001450Y19098857D01*
X-11070009Y18804920D01*
X-11102098Y18506458D01*
X-13328704Y18506458D01*
X-13263536Y18756941D01*
X-13180374Y19048339D01*
X-13087332Y19351142D01*
X-12987176Y19656410D01*
X-12882671Y19955198D01*
X-12776582Y20238565D01*
X-12757133Y20288250D01*
X-12682553Y20470127D01*
X-12600518Y20657443D01*
X-12513414Y20845740D01*
X-12423623Y21030562D01*
X-12333530Y21207450D01*
X-12245518Y21371949D01*
X-12161971Y21519599D01*
X-12085272Y21645944D01*
X-12017806Y21746527D01*
X-11961956Y21816889D01*
X-11920735Y21852258D01*
X-11863204Y21876772D01*
X-11773020Y21909254D01*
X-11658519Y21947099D01*
X-11528039Y21987700D01*
X-11389918Y22028451D01*
X-11252494Y22066746D01*
X-11144250Y22094970D01*
X-10835885Y22166820D01*
X-10511236Y22231496D01*
X-10167380Y22289307D01*
X-9801396Y22340561D01*
X-9410361Y22385566D01*
X-8991355Y22424633D01*
X-8541455Y22458068D01*
X-8057740Y22486180D01*
X-7537287Y22509278D01*
X-7072463Y22524947D01*
X-6812211Y22531289D01*
X-6557531Y22534993D01*
X-6312445Y22536158D01*
X-6080971Y22534879D01*
G36*
X-24882977Y22534698D02*
G01*
X-24587199Y22529972D01*
X-24275371Y22522179D01*
X-23950401Y22511283D01*
X-23653750Y22499004D01*
X-23051428Y22465724D01*
X-22482264Y22421748D01*
X-21947362Y22367243D01*
X-21447826Y22302376D01*
X-20984757Y22227312D01*
X-20559258Y22142219D01*
X-20172433Y22047262D01*
X-19825384Y21942609D01*
X-19714892Y21904216D01*
X-19543700Y21842481D01*
X-19382158Y21573366D01*
X-19294956Y21421190D01*
X-19197740Y21239797D01*
X-19095572Y21039527D01*
X-18993512Y20830722D01*
X-18896624Y20623723D01*
X-18809967Y20428870D01*
X-18742783Y20267084D01*
X-18662147Y20054266D01*
X-18576726Y19811940D01*
X-18489460Y19549684D01*
X-18403290Y19277074D01*
X-18321155Y19003687D01*
X-18245995Y18739100D01*
X-18180750Y18492891D01*
X-18128361Y18274635D01*
X-18121287Y18242575D01*
X-18081484Y18059566D01*
X-18160994Y17743100D01*
X-18303405Y17240670D01*
X-18470913Y16766031D01*
X-18662705Y16320738D01*
X-18877967Y15906348D01*
X-19115887Y15524417D01*
X-19375653Y15176501D01*
X-19656451Y14864158D01*
X-19673150Y14847382D01*
X-19841850Y14686305D01*
X-20009417Y14542973D01*
X-20187096Y14408702D01*
X-20386135Y14274808D01*
X-20533157Y14183342D01*
X-21015459Y13915302D01*
X-21514279Y13686093D01*
X-22028350Y13496129D01*
X-22556407Y13345824D01*
X-23097184Y13235592D01*
X-23643167Y13166402D01*
X-23765241Y13158385D01*
X-23919497Y13152665D01*
X-24095847Y13149223D01*
X-24284205Y13148041D01*
X-24474482Y13149097D01*
X-24656591Y13152375D01*
X-24820444Y13157853D01*
X-24955954Y13165514D01*
X-24997834Y13168985D01*
X-25300520Y13204704D01*
X-25604812Y13254823D01*
X-25903100Y13317432D01*
X-26187777Y13390620D01*
X-26451234Y13472476D01*
X-26685865Y13561090D01*
X-26839702Y13631519D01*
X-27103925Y13782617D01*
X-27369079Y13969114D01*
X-27627709Y14184915D01*
X-27872364Y14423924D01*
X-28042901Y14615584D01*
X-28277911Y14925867D01*
X-28494826Y15270876D01*
X-28691703Y15646206D01*
X-28866600Y16047452D01*
X-29017573Y16470208D01*
X-29142680Y16910070D01*
X-29229531Y17306191D01*
X-29266935Y17503750D01*
X-29169142Y17615417D01*
X-28949214Y17882337D01*
X-28762047Y18144906D01*
X-28600651Y18413320D01*
X-28572151Y18467552D01*
X-25400846Y18467552D01*
X-25392043Y18157779D01*
X-25345910Y17853109D01*
X-25262005Y17559296D01*
X-25237471Y17494250D01*
X-25097814Y17196613D01*
X-24925217Y16924356D01*
X-24721927Y16679322D01*
X-24490192Y16463354D01*
X-24232258Y16278295D01*
X-23950372Y16125988D01*
X-23646782Y16008275D01*
X-23327324Y15927677D01*
X-23182196Y15909112D01*
X-23009554Y15901158D01*
X-22822730Y15903304D01*
X-22635054Y15915034D01*
X-22459859Y15935837D01*
X-22310475Y15965198D01*
X-22303038Y15967113D01*
X-21989963Y16069764D01*
X-21699050Y16208416D01*
X-21429454Y16383532D01*
X-21208764Y16568549D01*
X-20999115Y16786278D01*
X-20823852Y17016355D01*
X-20679206Y17265197D01*
X-20561407Y17539220D01*
X-20473111Y17820533D01*
X-20452757Y17900682D01*
X-20438172Y17971879D01*
X-20428420Y18044012D01*
X-20422562Y18126973D01*
X-20419662Y18230652D01*
X-20418781Y18364940D01*
X-20418764Y18393834D01*
X-20419363Y18534594D01*
X-20421794Y18642962D01*
X-20427005Y18728868D01*
X-20435948Y18802244D01*
X-20449572Y18873021D01*
X-20468826Y18951130D01*
X-20473887Y18970192D01*
X-20558732Y19244587D01*
X-20659667Y19487230D01*
X-20781813Y19707260D01*
X-20930292Y19913811D01*
X-21110226Y20116022D01*
X-21124334Y20130457D01*
X-21334575Y20327180D01*
X-21545511Y20488043D01*
X-21766009Y20618721D01*
X-22004942Y20724891D01*
X-22114550Y20764084D01*
X-22424260Y20846373D01*
X-22735766Y20887880D01*
X-23045781Y20889853D01*
X-23351019Y20853537D01*
X-23648195Y20780178D01*
X-23934023Y20671022D01*
X-24205216Y20527316D01*
X-24458489Y20350306D01*
X-24690555Y20141237D01*
X-24898130Y19901356D01*
X-25071644Y19642667D01*
X-25207719Y19369988D01*
X-25308240Y19079409D01*
X-25372764Y18776680D01*
X-25400846Y18467552D01*
X-28572151Y18467552D01*
X-28530363Y18547065D01*
X-28475513Y18659525D01*
X-28422333Y18776332D01*
X-28368353Y18903665D01*
X-28311108Y19047700D01*
X-28248131Y19214614D01*
X-28176952Y19410586D01*
X-28109668Y19600334D01*
X-27987141Y19942040D01*
X-27872252Y20246962D01*
X-27762536Y20519428D01*
X-27655526Y20763762D01*
X-27548756Y20984293D01*
X-27439759Y21185345D01*
X-27326071Y21371245D01*
X-27205224Y21546320D01*
X-27074752Y21714896D01*
X-26932188Y21881299D01*
X-26775068Y22049855D01*
X-26629579Y22196718D01*
X-26542268Y22280802D01*
X-26460224Y22356028D01*
X-26390319Y22416370D01*
X-26339427Y22455801D01*
X-26322125Y22466346D01*
X-26259527Y22484879D01*
X-26157595Y22500628D01*
X-26019240Y22513560D01*
X-25847372Y22523638D01*
X-25644902Y22530826D01*
X-25414739Y22535089D01*
X-25159794Y22536392D01*
X-24882977Y22534698D01*
G37*
X-24882977Y22534698D02*
X-24587199Y22529972D01*
X-24275371Y22522179D01*
X-23950401Y22511283D01*
X-23653750Y22499004D01*
X-23051428Y22465724D01*
X-22482264Y22421748D01*
X-21947362Y22367243D01*
X-21447826Y22302376D01*
X-20984757Y22227312D01*
X-20559258Y22142219D01*
X-20172433Y22047262D01*
X-19825384Y21942609D01*
X-19714892Y21904216D01*
X-19543700Y21842481D01*
X-19382158Y21573366D01*
X-19294956Y21421190D01*
X-19197740Y21239797D01*
X-19095572Y21039527D01*
X-18993512Y20830722D01*
X-18896624Y20623723D01*
X-18809967Y20428870D01*
X-18742783Y20267084D01*
X-18662147Y20054266D01*
X-18576726Y19811940D01*
X-18489460Y19549684D01*
X-18403290Y19277074D01*
X-18321155Y19003687D01*
X-18245995Y18739100D01*
X-18180750Y18492891D01*
X-18128361Y18274635D01*
X-18121287Y18242575D01*
X-18081484Y18059566D01*
X-18160994Y17743100D01*
X-18303405Y17240670D01*
X-18470913Y16766031D01*
X-18662705Y16320738D01*
X-18877967Y15906348D01*
X-19115887Y15524417D01*
X-19375653Y15176501D01*
X-19656451Y14864158D01*
X-19673150Y14847382D01*
X-19841850Y14686305D01*
X-20009417Y14542973D01*
X-20187096Y14408702D01*
X-20386135Y14274808D01*
X-20533157Y14183342D01*
X-21015459Y13915302D01*
X-21514279Y13686093D01*
X-22028350Y13496129D01*
X-22556407Y13345824D01*
X-23097184Y13235592D01*
X-23643167Y13166402D01*
X-23765241Y13158385D01*
X-23919497Y13152665D01*
X-24095847Y13149223D01*
X-24284205Y13148041D01*
X-24474482Y13149097D01*
X-24656591Y13152375D01*
X-24820444Y13157853D01*
X-24955954Y13165514D01*
X-24997834Y13168985D01*
X-25300520Y13204704D01*
X-25604812Y13254823D01*
X-25903100Y13317432D01*
X-26187777Y13390620D01*
X-26451234Y13472476D01*
X-26685865Y13561090D01*
X-26839702Y13631519D01*
X-27103925Y13782617D01*
X-27369079Y13969114D01*
X-27627709Y14184915D01*
X-27872364Y14423924D01*
X-28042901Y14615584D01*
X-28277911Y14925867D01*
X-28494826Y15270876D01*
X-28691703Y15646206D01*
X-28866600Y16047452D01*
X-29017573Y16470208D01*
X-29142680Y16910070D01*
X-29229531Y17306191D01*
X-29266935Y17503750D01*
X-29169142Y17615417D01*
X-28949214Y17882337D01*
X-28762047Y18144906D01*
X-28600651Y18413320D01*
X-28572151Y18467552D01*
X-25400846Y18467552D01*
X-25392043Y18157779D01*
X-25345910Y17853109D01*
X-25262005Y17559296D01*
X-25237471Y17494250D01*
X-25097814Y17196613D01*
X-24925217Y16924356D01*
X-24721927Y16679322D01*
X-24490192Y16463354D01*
X-24232258Y16278295D01*
X-23950372Y16125988D01*
X-23646782Y16008275D01*
X-23327324Y15927677D01*
X-23182196Y15909112D01*
X-23009554Y15901158D01*
X-22822730Y15903304D01*
X-22635054Y15915034D01*
X-22459859Y15935837D01*
X-22310475Y15965198D01*
X-22303038Y15967113D01*
X-21989963Y16069764D01*
X-21699050Y16208416D01*
X-21429454Y16383532D01*
X-21208764Y16568549D01*
X-20999115Y16786278D01*
X-20823852Y17016355D01*
X-20679206Y17265197D01*
X-20561407Y17539220D01*
X-20473111Y17820533D01*
X-20452757Y17900682D01*
X-20438172Y17971879D01*
X-20428420Y18044012D01*
X-20422562Y18126973D01*
X-20419662Y18230652D01*
X-20418781Y18364940D01*
X-20418764Y18393834D01*
X-20419363Y18534594D01*
X-20421794Y18642962D01*
X-20427005Y18728868D01*
X-20435948Y18802244D01*
X-20449572Y18873021D01*
X-20468826Y18951130D01*
X-20473887Y18970192D01*
X-20558732Y19244587D01*
X-20659667Y19487230D01*
X-20781813Y19707260D01*
X-20930292Y19913811D01*
X-21110226Y20116022D01*
X-21124334Y20130457D01*
X-21334575Y20327180D01*
X-21545511Y20488043D01*
X-21766009Y20618721D01*
X-22004942Y20724891D01*
X-22114550Y20764084D01*
X-22424260Y20846373D01*
X-22735766Y20887880D01*
X-23045781Y20889853D01*
X-23351019Y20853537D01*
X-23648195Y20780178D01*
X-23934023Y20671022D01*
X-24205216Y20527316D01*
X-24458489Y20350306D01*
X-24690555Y20141237D01*
X-24898130Y19901356D01*
X-25071644Y19642667D01*
X-25207719Y19369988D01*
X-25308240Y19079409D01*
X-25372764Y18776680D01*
X-25400846Y18467552D01*
X-28572151Y18467552D01*
X-28530363Y18547065D01*
X-28475513Y18659525D01*
X-28422333Y18776332D01*
X-28368353Y18903665D01*
X-28311108Y19047700D01*
X-28248131Y19214614D01*
X-28176952Y19410586D01*
X-28109668Y19600334D01*
X-27987141Y19942040D01*
X-27872252Y20246962D01*
X-27762536Y20519428D01*
X-27655526Y20763762D01*
X-27548756Y20984293D01*
X-27439759Y21185345D01*
X-27326071Y21371245D01*
X-27205224Y21546320D01*
X-27074752Y21714896D01*
X-26932188Y21881299D01*
X-26775068Y22049855D01*
X-26629579Y22196718D01*
X-26542268Y22280802D01*
X-26460224Y22356028D01*
X-26390319Y22416370D01*
X-26339427Y22455801D01*
X-26322125Y22466346D01*
X-26259527Y22484879D01*
X-26157595Y22500628D01*
X-26019240Y22513560D01*
X-25847372Y22523638D01*
X-25644902Y22530826D01*
X-25414739Y22535089D01*
X-25159794Y22536392D01*
X-24882977Y22534698D01*
G36*
X-728975Y19128334D02*
G01*
X-454591Y18924293D01*
X-188797Y18737021D01*
X65813Y18567963D01*
X306647Y18418565D01*
X531112Y18290271D01*
X736612Y18184527D01*
X920556Y18102776D01*
X1080350Y18046465D01*
X1213400Y18017038D01*
X1273197Y18012834D01*
X1301106Y18012468D01*
X1322665Y18009885D01*
X1336014Y18002857D01*
X1339291Y17989157D01*
X1330635Y17966557D01*
X1308185Y17932828D01*
X1270080Y17885743D01*
X1214459Y17823075D01*
X1139462Y17742595D01*
X1043226Y17642076D01*
X923891Y17519290D01*
X779597Y17372009D01*
X608481Y17198006D01*
X502991Y17090848D01*
X397652Y16983289D01*
X302812Y16885368D01*
X222340Y16801169D01*
X160107Y16734775D01*
X119981Y16690270D01*
X105833Y16671755D01*
X120773Y16626195D01*
X160913Y16563254D01*
X219234Y16493007D01*
X257593Y16453876D01*
X371402Y16358981D01*
X520382Y16257026D01*
X698594Y16151042D01*
X900096Y16044063D01*
X1118948Y15939120D01*
X1349209Y15839248D01*
X1584940Y15747478D01*
X1762996Y15685381D01*
X1970243Y15616929D01*
X1903013Y15497256D01*
X1811927Y15353112D01*
X1691157Y15189804D01*
X1545601Y15012584D01*
X1380158Y14826703D01*
X1199726Y14637416D01*
X1009202Y14449974D01*
X813486Y14269629D01*
X617475Y14101634D01*
X551957Y14048519D01*
X59670Y13678871D01*
X-471611Y13324597D01*
X-1041352Y12985911D01*
X-1649023Y12663027D01*
X-2294092Y12356158D01*
X-2976026Y12065518D01*
X-3694293Y11791320D01*
X-4448361Y11533778D01*
X-5237699Y11293106D01*
X-6061774Y11069517D01*
X-6920054Y10863226D01*
X-7812007Y10674445D01*
X-7888798Y10659322D01*
X-8055441Y10627598D01*
X-8254906Y10591115D01*
X-8478155Y10551425D01*
X-8716151Y10510082D01*
X-8959855Y10468639D01*
X-9200230Y10428650D01*
X-9428238Y10391669D01*
X-9633624Y10359434D01*
X-9657117Y10355202D01*
X-9670602Y10348966D01*
X-9670687Y10337801D01*
X-9653976Y10318787D01*
X-9617075Y10289000D01*
X-9556590Y10245518D01*
X-9469125Y10185418D01*
X-9351287Y10105777D01*
X-9294957Y10067843D01*
X-8677360Y9638976D01*
X-8087701Y9202115D01*
X-7511674Y8746539D01*
X-7312415Y8582164D01*
X-7127079Y8426773D01*
X-6963051Y8286958D01*
X-6813576Y8156510D01*
X-6671904Y8029223D01*
X-6531282Y7898892D01*
X-6384958Y7759309D01*
X-6226179Y7604267D01*
X-6048194Y7427561D01*
X-5957165Y7336443D01*
X-5426746Y6804462D01*
X-5025831Y6883573D01*
X-4917547Y6904309D01*
X-4774316Y6930770D01*
X-4602953Y6961746D01*
X-4410271Y6996030D01*
X-4203088Y7032412D01*
X-3988215Y7069684D01*
X-3772470Y7106638D01*
X-3672417Y7123601D01*
X-3346787Y7178970D01*
X-3059321Y7228699D01*
X-2806337Y7273549D01*
X-2584151Y7314281D01*
X-2389081Y7351657D01*
X-2217445Y7386439D01*
X-2065560Y7419387D01*
X-1975193Y7440597D01*
X-1513417Y7440597D01*
X-1259417Y7354209D01*
X-878925Y7208659D01*
X-525088Y7038704D01*
X-191931Y6840531D01*
X126523Y6610328D01*
X436247Y6344281D01*
X649853Y6135915D01*
X807501Y5967631D01*
X949564Y5799468D01*
X1087011Y5617784D01*
X1213104Y5435518D01*
X1274658Y5346799D01*
X1325052Y5280694D01*
X1360662Y5241623D01*
X1377862Y5234001D01*
X1378127Y5234435D01*
X1385532Y5263954D01*
X1396378Y5326963D01*
X1409337Y5414888D01*
X1423080Y5519155D01*
X1426349Y5545667D01*
X1469451Y5951385D01*
X1495534Y6319619D01*
X1504210Y6595301D01*
X1504887Y6704468D01*
X1502649Y6784119D01*
X1495240Y6847065D01*
X1480404Y6906117D01*
X1455887Y6974086D01*
X1423443Y7054043D01*
X1288293Y7332387D01*
X1125166Y7579869D01*
X935027Y7795594D01*
X718846Y7978666D01*
X477590Y8128188D01*
X212226Y8243264D01*
X100285Y8279235D01*
X-64013Y8327132D01*
X-174882Y8220727D01*
X-417768Y8010853D01*
X-684903Y7821916D01*
X-966487Y7659928D01*
X-1252721Y7530903D01*
X-1365250Y7490229D01*
X-1513417Y7440597D01*
X-1975193Y7440597D01*
X-1929744Y7451264D01*
X-1806314Y7482831D01*
X-1691587Y7514849D01*
X-1581881Y7548080D01*
X-1513622Y7570002D01*
X-1160259Y7706595D01*
X-832362Y7876807D01*
X-528417Y8081639D01*
X-246909Y8322092D01*
X-28514Y8550231D01*
X161676Y8787599D01*
X346856Y9057868D01*
X522035Y9351604D01*
X682226Y9659377D01*
X822437Y9971751D01*
X937679Y10279296D01*
X1006061Y10506123D01*
X1044621Y10651163D01*
X1120269Y10638648D01*
X1177650Y10630176D01*
X1218065Y10625986D01*
X1220948Y10625900D01*
X1231784Y10624485D01*
X1241249Y10617392D01*
X1250407Y10600012D01*
X1260324Y10567741D01*
X1272064Y10515972D01*
X1286692Y10440098D01*
X1305272Y10335513D01*
X1328868Y10197611D01*
X1353091Y10054167D01*
X1428735Y9580612D01*
X1490582Y9136871D01*
X1539597Y8713085D01*
X1576745Y8299390D01*
X1602989Y7885927D01*
X1619294Y7462833D01*
X1623189Y7291917D01*
X1626075Y6820361D01*
X1615960Y6382124D01*
X1592160Y5970023D01*
X1553990Y5576876D01*
X1500766Y5195500D01*
X1431804Y4818711D01*
X1354680Y4473293D01*
X1200755Y3918538D01*
X1012877Y3388836D01*
X790744Y2883559D01*
X534059Y2402080D01*
X242521Y1943772D01*
X-24922Y1582065D01*
X-115728Y1473425D01*
X-232099Y1344013D01*
X-367355Y1200483D01*
X-514814Y1049492D01*
X-667796Y897696D01*
X-819621Y751752D01*
X-963609Y618315D01*
X-1093079Y504042D01*
X-1174750Y436417D01*
X-1448589Y229401D01*
X-1754310Y18469D01*
X-2082690Y-190180D01*
X-2296584Y-317396D01*
X-2541823Y-459971D01*
X-2755422Y-585336D01*
X-2942748Y-696839D01*
X-3109166Y-797829D01*
X-3260043Y-891655D01*
X-3400745Y-981664D01*
X-3536638Y-1071205D01*
X-3673089Y-1163627D01*
X-3815464Y-1262276D01*
X-3852334Y-1288109D01*
X-3961159Y-1365705D01*
X-4081409Y-1453492D01*
X-4207635Y-1547286D01*
X-4334390Y-1642906D01*
X-4456224Y-1736169D01*
X-4567690Y-1822891D01*
X-4663340Y-1898890D01*
X-4737725Y-1959983D01*
X-4785397Y-2001989D01*
X-4795453Y-2012161D01*
X-4800693Y-2018774D01*
X-4805400Y-2027768D01*
X-4809564Y-2041122D01*
X-4813176Y-2060817D01*
X-4816226Y-2088832D01*
X-4818704Y-2127147D01*
X-4820603Y-2177741D01*
X-4821912Y-2242595D01*
X-4822622Y-2323687D01*
X-4822723Y-2422999D01*
X-4822207Y-2542509D01*
X-4821064Y-2684197D01*
X-4819285Y-2850044D01*
X-4816861Y-3042028D01*
X-4813781Y-3262129D01*
X-4810038Y-3512328D01*
X-4805621Y-3794604D01*
X-4800521Y-4110936D01*
X-4794729Y-4463305D01*
X-4788236Y-4853690D01*
X-4781032Y-5284071D01*
X-4779677Y-5364825D01*
X-4772186Y-5814530D01*
X-4765484Y-6223825D01*
X-4759558Y-6594622D01*
X-4754391Y-6928836D01*
X-4749968Y-7228383D01*
X-4746273Y-7495175D01*
X-4743290Y-7731128D01*
X-4741004Y-7938155D01*
X-4739399Y-8118171D01*
X-4738460Y-8273091D01*
X-4738170Y-8404829D01*
X-4738514Y-8515298D01*
X-4739477Y-8606414D01*
X-4741043Y-8680091D01*
X-4743197Y-8738243D01*
X-4745922Y-8782784D01*
X-4749202Y-8815629D01*
X-4751364Y-8830131D01*
X-4810611Y-9054904D01*
X-4905418Y-9261684D01*
X-5032491Y-9446594D01*
X-5188537Y-9605755D01*
X-5370262Y-9735289D01*
X-5574374Y-9831319D01*
X-5612817Y-9844609D01*
X-5767917Y-9895416D01*
X-11631084Y-9895416D01*
X-11779250Y-9848470D01*
X-11988410Y-9760892D01*
X-12177186Y-9638849D01*
X-12340654Y-9486431D01*
X-12473888Y-9307733D01*
X-12513070Y-9238586D01*
X-12554768Y-9155307D01*
X-12586462Y-9080729D01*
X-12611034Y-9004473D01*
X-12631365Y-8916160D01*
X-12650335Y-8805410D01*
X-12668576Y-8678333D01*
X-12713851Y-8411342D01*
X-12773674Y-8173827D01*
X-12851297Y-7954465D01*
X-12920761Y-7799916D01*
X-13029227Y-7598296D01*
X-13146551Y-7423764D01*
X-13283886Y-7261140D01*
X-13407669Y-7136958D01*
X-13647084Y-6938672D01*
X-13918854Y-6766656D01*
X-14221713Y-6621458D01*
X-14554391Y-6503625D01*
X-14915622Y-6413708D01*
X-15187084Y-6367345D01*
X-15307247Y-6355078D01*
X-15458233Y-6346741D01*
X-15628715Y-6342321D01*
X-15807367Y-6341807D01*
X-15982862Y-6345186D01*
X-16143874Y-6352446D01*
X-16279076Y-6363575D01*
X-16319500Y-6368561D01*
X-16598067Y-6418296D01*
X-16878479Y-6489189D01*
X-17150064Y-6577728D01*
X-17402149Y-6680395D01*
X-17624060Y-6793677D01*
X-17641762Y-6804022D01*
X-17907517Y-6982046D01*
X-18138765Y-7182067D01*
X-18336385Y-7405483D01*
X-18501251Y-7653694D01*
X-18634241Y-7928096D01*
X-18736231Y-8230089D01*
X-18808097Y-8561070D01*
X-18827893Y-8696309D01*
X-18846039Y-8815209D01*
X-18868914Y-8932332D01*
X-18893443Y-9033218D01*
X-18912015Y-9092052D01*
X-19010990Y-9296364D01*
X-19143993Y-9477623D01*
X-19307663Y-9632626D01*
X-19498638Y-9758170D01*
X-19706167Y-9848560D01*
X-19843750Y-9895416D01*
X-22743584Y-9899282D01*
X-23167631Y-9899779D01*
X-23551295Y-9900073D01*
X-23896526Y-9900149D01*
X-24205273Y-9899991D01*
X-24479486Y-9899584D01*
X-24721115Y-9898911D01*
X-24932109Y-9897958D01*
X-25114419Y-9896708D01*
X-25269993Y-9895146D01*
X-25400783Y-9893257D01*
X-25508737Y-9891025D01*
X-25595806Y-9888434D01*
X-25663938Y-9885469D01*
X-25715084Y-9882115D01*
X-25751194Y-9878354D01*
X-25770417Y-9875077D01*
X-25987359Y-9806311D01*
X-26183359Y-9701257D01*
X-26356645Y-9561372D01*
X-26505446Y-9388111D01*
X-26627991Y-9182929D01*
X-26638190Y-9161856D01*
X-26655931Y-9125160D01*
X-26672094Y-9091812D01*
X-26686720Y-9059786D01*
X-26699850Y-9027050D01*
X-26711522Y-8991578D01*
X-26721779Y-8951340D01*
X-26730660Y-8904308D01*
X-26738206Y-8848452D01*
X-26744456Y-8781745D01*
X-26749453Y-8702158D01*
X-26753235Y-8607661D01*
X-26755843Y-8496226D01*
X-26757318Y-8365825D01*
X-26757700Y-8214428D01*
X-26757030Y-8040008D01*
X-26755347Y-7840535D01*
X-26752693Y-7613981D01*
X-26749107Y-7358317D01*
X-26744630Y-7071514D01*
X-26739303Y-6751543D01*
X-26733166Y-6396377D01*
X-26726259Y-6003986D01*
X-26718622Y-5572342D01*
X-26714413Y-5333797D01*
X-26655714Y-2000250D01*
X-26842039Y-1802840D01*
X-27182676Y-1416112D01*
X-27481943Y-1021631D01*
X-27739788Y-619554D01*
X-27956160Y-210038D01*
X-28131007Y206758D01*
X-28264277Y630678D01*
X-28355917Y1061563D01*
X-28405877Y1499256D01*
X-28408898Y1662431D01*
X-28263114Y1662431D01*
X-28228423Y1239129D01*
X-28151826Y819497D01*
X-28033498Y404029D01*
X-27873608Y-6782D01*
X-27672330Y-412442D01*
X-27429835Y-812456D01*
X-27146295Y-1206333D01*
X-27078586Y-1291912D01*
X-27003686Y-1384196D01*
X-26935852Y-1466196D01*
X-26880446Y-1531549D01*
X-26842828Y-1573894D01*
X-26831105Y-1585546D01*
X-26805027Y-1627347D01*
X-26797000Y-1670262D01*
X-26783139Y-1719210D01*
X-26739087Y-1780488D01*
X-26691167Y-1830916D01*
X-26634962Y-1883883D01*
X-26601946Y-1907981D01*
X-26587304Y-1906089D01*
X-26585334Y-1894208D01*
X-26583369Y-1866723D01*
X-26570709Y-1869369D01*
X-26544402Y-1895004D01*
X-26539033Y-1901060D01*
X-26534200Y-1909048D01*
X-26529913Y-1920932D01*
X-26526184Y-1938680D01*
X-26523023Y-1964256D01*
X-26520440Y-1999628D01*
X-26518446Y-2046759D01*
X-26517052Y-2107617D01*
X-26516268Y-2184167D01*
X-26516104Y-2278375D01*
X-26516572Y-2392206D01*
X-26517682Y-2527627D01*
X-26519444Y-2686604D01*
X-26521868Y-2871101D01*
X-26524967Y-3083086D01*
X-26528749Y-3324523D01*
X-26533227Y-3597379D01*
X-26538409Y-3903619D01*
X-26544307Y-4245209D01*
X-26550932Y-4624116D01*
X-26558293Y-5042304D01*
X-26562651Y-5289249D01*
X-26570561Y-5739936D01*
X-26577655Y-6150233D01*
X-26583950Y-6522075D01*
X-26589464Y-6857395D01*
X-26594213Y-7158128D01*
X-26598216Y-7426210D01*
X-26601488Y-7663574D01*
X-26604048Y-7872155D01*
X-26605913Y-8053889D01*
X-26607099Y-8210709D01*
X-26607625Y-8344551D01*
X-26607507Y-8457348D01*
X-26606763Y-8551036D01*
X-26605410Y-8627550D01*
X-26603465Y-8688823D01*
X-26600946Y-8736791D01*
X-26597869Y-8773387D01*
X-26594252Y-8800548D01*
X-26593976Y-8802161D01*
X-26539521Y-9000873D01*
X-26450023Y-9186589D01*
X-26330267Y-9354175D01*
X-26185040Y-9498496D01*
X-26019126Y-9614418D01*
X-25837313Y-9696806D01*
X-25733108Y-9725784D01*
X-25690474Y-9730391D01*
X-25608608Y-9734657D01*
X-25490612Y-9738583D01*
X-25339584Y-9742167D01*
X-25158627Y-9745409D01*
X-24950840Y-9748307D01*
X-24719323Y-9750862D01*
X-24467178Y-9753073D01*
X-24197504Y-9754938D01*
X-23913402Y-9756456D01*
X-23617973Y-9757628D01*
X-23314316Y-9758453D01*
X-23005533Y-9758929D01*
X-22694724Y-9759056D01*
X-22384988Y-9758833D01*
X-22079428Y-9758260D01*
X-21781143Y-9757335D01*
X-21493233Y-9756058D01*
X-21218799Y-9754428D01*
X-20960941Y-9752445D01*
X-20722761Y-9750107D01*
X-20507358Y-9747414D01*
X-20317832Y-9744366D01*
X-20157285Y-9740960D01*
X-20028816Y-9737198D01*
X-19935527Y-9733077D01*
X-19880517Y-9728597D01*
X-19872049Y-9727206D01*
X-19667533Y-9663222D01*
X-19481317Y-9563788D01*
X-19317960Y-9432787D01*
X-19182020Y-9274102D01*
X-19078055Y-9091615D01*
X-19052321Y-9028925D01*
X-19032221Y-8961006D01*
X-19010579Y-8864680D01*
X-18990216Y-8753646D01*
X-18976121Y-8658732D01*
X-18925026Y-8352701D01*
X-18855372Y-8079386D01*
X-18765603Y-7832735D01*
X-18760597Y-7821083D01*
X-18615120Y-7536778D01*
X-18436096Y-7277895D01*
X-18224137Y-7044847D01*
X-17979855Y-6838051D01*
X-17703863Y-6657921D01*
X-17396770Y-6504873D01*
X-17059191Y-6379321D01*
X-16691735Y-6281680D01*
X-16414750Y-6229795D01*
X-16280629Y-6213822D01*
X-16115449Y-6202168D01*
X-15930272Y-6194912D01*
X-15736159Y-6192136D01*
X-15544173Y-6193919D01*
X-15365375Y-6200342D01*
X-15210828Y-6211486D01*
X-15134167Y-6220496D01*
X-14746445Y-6292419D01*
X-14386689Y-6393467D01*
X-14055731Y-6522902D01*
X-13754403Y-6679987D01*
X-13483538Y-6863984D01*
X-13243967Y-7074155D01*
X-13036524Y-7309762D01*
X-12862040Y-7570068D01*
X-12721348Y-7854335D01*
X-12615279Y-8161825D01*
X-12544667Y-8491801D01*
X-12540511Y-8519583D01*
X-12516959Y-8677309D01*
X-12496650Y-8800368D01*
X-12477951Y-8896144D01*
X-12459230Y-8972020D01*
X-12438852Y-9035382D01*
X-12415185Y-9093613D01*
X-12411938Y-9100847D01*
X-12308348Y-9279476D01*
X-12171000Y-9437193D01*
X-12005350Y-9569034D01*
X-11816854Y-9670038D01*
X-11762656Y-9691412D01*
X-11609917Y-9747250D01*
X-8784167Y-9753273D01*
X-8338131Y-9754103D01*
X-7933132Y-9754597D01*
X-7567875Y-9754746D01*
X-7241065Y-9754544D01*
X-6951408Y-9753981D01*
X-6697609Y-9753051D01*
X-6478372Y-9751746D01*
X-6292403Y-9750056D01*
X-6138408Y-9747976D01*
X-6015090Y-9745496D01*
X-5921155Y-9742610D01*
X-5855309Y-9739308D01*
X-5816256Y-9735584D01*
X-5814065Y-9735236D01*
X-5618723Y-9681910D01*
X-5437637Y-9591956D01*
X-5275026Y-9469872D01*
X-5135109Y-9320156D01*
X-5022105Y-9147305D01*
X-4940233Y-8955819D01*
X-4894297Y-8754625D01*
X-4892016Y-8713157D01*
X-4890650Y-8630351D01*
X-4890190Y-8507192D01*
X-4890623Y-8344665D01*
X-4891939Y-8143753D01*
X-4894127Y-7905443D01*
X-4897176Y-7630720D01*
X-4901076Y-7320567D01*
X-4905814Y-6975971D01*
X-4911381Y-6597916D01*
X-4917765Y-6187387D01*
X-4924956Y-5745368D01*
X-4932895Y-5275558D01*
X-4940445Y-4835808D01*
X-4947265Y-4436416D01*
X-4953368Y-4075412D01*
X-4958762Y-3750828D01*
X-4963458Y-3460692D01*
X-4967467Y-3203037D01*
X-4970798Y-2975893D01*
X-4973462Y-2777291D01*
X-4975469Y-2605260D01*
X-4976830Y-2457833D01*
X-4977554Y-2333039D01*
X-4977652Y-2228910D01*
X-4977134Y-2143475D01*
X-4976010Y-2074766D01*
X-4974291Y-2020813D01*
X-4971987Y-1979648D01*
X-4969107Y-1949299D01*
X-4965663Y-1927800D01*
X-4961665Y-1913179D01*
X-4957122Y-1903467D01*
X-4952045Y-1896696D01*
X-4950477Y-1895004D01*
X-4921687Y-1866806D01*
X-4911776Y-1869309D01*
X-4910667Y-1894281D01*
X-4904133Y-1909096D01*
X-4881541Y-1899596D01*
X-4838410Y-1862970D01*
X-4796775Y-1822826D01*
X-4730148Y-1751069D01*
X-4696910Y-1699753D01*
X-4693095Y-1671295D01*
X-4685091Y-1635586D01*
X-4647718Y-1575726D01*
X-4589999Y-1502833D01*
X-4370620Y-1502833D01*
X-4350602Y-1490974D01*
X-4303849Y-1458750D01*
X-4237498Y-1411187D01*
X-4164600Y-1357700D01*
X-4072440Y-1290679D01*
X-3958258Y-1209552D01*
X-3835298Y-1123631D01*
X-3716802Y-1042230D01*
X-3693584Y-1026486D01*
X-3599191Y-962087D01*
X-3518110Y-905691D01*
X-3456443Y-861630D01*
X-3420291Y-834234D01*
X-3413409Y-827661D01*
X-3425231Y-809728D01*
X-3470057Y-776091D01*
X-3549592Y-725582D01*
X-3643205Y-669997D01*
X-3740994Y-613037D01*
X-3921037Y-883310D01*
X-3998093Y-996436D01*
X-4081373Y-1114479D01*
X-4161743Y-1224740D01*
X-4230070Y-1314516D01*
X-4240936Y-1328208D01*
X-4297120Y-1399472D01*
X-4340543Y-1456701D01*
X-4366200Y-1493155D01*
X-4370620Y-1502833D01*
X-4589999Y-1502833D01*
X-4579906Y-1490088D01*
X-4552993Y-1458579D01*
X-4242560Y-1072318D01*
X-3973239Y-678489D01*
X-3745144Y-277458D01*
X-3558387Y130410D01*
X-3413083Y544749D01*
X-3309346Y965193D01*
X-3247288Y1391377D01*
X-3227025Y1822933D01*
X-3248670Y2259497D01*
X-3292967Y2592917D01*
X-3366258Y2944008D01*
X-3470056Y3312744D01*
X-3601647Y3690527D01*
X-3758318Y4068760D01*
X-3759628Y4071682D01*
X-3975687Y4511117D01*
X-4232010Y4957075D01*
X-4527275Y5408180D01*
X-4860156Y5863057D01*
X-5163305Y6238552D01*
X-4950725Y6238552D01*
X-4933754Y6212109D01*
X-4903890Y6175363D01*
X-4895137Y6164792D01*
X-4661803Y5867629D01*
X-4432301Y5547692D01*
X-4211422Y5212921D01*
X-4003952Y4871254D01*
X-3814679Y4530630D01*
X-3648394Y4198988D01*
X-3509882Y3884265D01*
X-3490847Y3836593D01*
X-3453401Y3744760D01*
X-3420124Y3669362D01*
X-3394574Y3618052D01*
X-3380313Y3598485D01*
X-3380113Y3598468D01*
X-3351120Y3589058D01*
X-3291435Y3563239D01*
X-3207806Y3524361D01*
X-3106981Y3475772D01*
X-2995707Y3420823D01*
X-2880732Y3362861D01*
X-2768805Y3305237D01*
X-2666672Y3251300D01*
X-2581083Y3204399D01*
X-2548006Y3185456D01*
X-2196640Y2963257D01*
X-1860706Y2717529D01*
X-1544830Y2452658D01*
X-1253641Y2173028D01*
X-991766Y1883024D01*
X-763832Y1587029D01*
X-608307Y1347647D01*
X-522288Y1203043D01*
X-404019Y1335075D01*
X-339297Y1409116D01*
X-260180Y1502251D01*
X-178557Y1600387D01*
X-130264Y1659595D01*
X5955Y1837488D01*
X149943Y2041846D01*
X293445Y2259953D01*
X428207Y2479093D01*
X545974Y2686547D01*
X587426Y2765266D01*
X639741Y2868817D01*
X684391Y2959993D01*
X718062Y3031804D01*
X737442Y3077259D01*
X740833Y3088962D01*
X726851Y3126091D01*
X687399Y3189278D01*
X626215Y3273937D01*
X547037Y3375485D01*
X453605Y3489338D01*
X349657Y3610909D01*
X238931Y3735616D01*
X125167Y3858874D01*
X43079Y3944555D01*
X-363958Y4332078D01*
X-796368Y4685729D01*
X-1254086Y5005479D01*
X-1737047Y5291293D01*
X-2245188Y5543142D01*
X-2778445Y5760992D01*
X-3336752Y5944813D01*
X-3920046Y6094572D01*
X-4528263Y6210239D01*
X-4549919Y6213656D01*
X-4697259Y6236726D01*
X-4806863Y6253010D01*
X-4882871Y6261920D01*
X-4929424Y6262871D01*
X-4950662Y6255277D01*
X-4950725Y6238552D01*
X-5163305Y6238552D01*
X-5229327Y6320330D01*
X-5633466Y6778626D01*
X-6071246Y7236568D01*
X-6541343Y7692783D01*
X-7042432Y8145893D01*
X-7573188Y8594526D01*
X-8132288Y9037305D01*
X-8718405Y9472856D01*
X-9330215Y9899804D01*
X-9455968Y9984323D01*
X-9947851Y10312848D01*
X-10556634Y10236849D01*
X-11260804Y10153584D01*
X-11952735Y10081446D01*
X-12645773Y10019243D01*
X-13353268Y9965782D01*
X-14088568Y9919870D01*
X-14128750Y9917614D01*
X-14451390Y9900251D01*
X-14753690Y9885280D01*
X-15032693Y9872803D01*
X-15285442Y9862921D01*
X-15508980Y9855737D01*
X-15700350Y9851352D01*
X-15856596Y9849868D01*
X-15974760Y9851387D01*
X-16010565Y9852851D01*
X-16095884Y9857144D01*
X-16213797Y9862789D01*
X-16354603Y9869336D01*
X-16508600Y9876338D01*
X-16666088Y9883343D01*
X-16721667Y9885775D01*
X-17842004Y9946154D01*
X-18955541Y10029131D01*
X-20051503Y10133811D01*
X-20938052Y10236282D01*
X-21545519Y10312275D01*
X-21784718Y10156837D01*
X-22402149Y9742137D01*
X-23000742Y9313149D01*
X-23577870Y8872217D01*
X-24130903Y8421688D01*
X-24657212Y7963907D01*
X-25154170Y7501220D01*
X-25619148Y7035972D01*
X-26049516Y6570508D01*
X-26442646Y6107175D01*
X-26715334Y5757334D01*
X-27027515Y5317846D01*
X-27306847Y4877585D01*
X-27552145Y4439005D01*
X-27762220Y4004562D01*
X-27935886Y3576710D01*
X-28071954Y3157905D01*
X-28169031Y2751667D01*
X-28193591Y2623769D01*
X-28211567Y2525101D01*
X-28224568Y2443364D01*
X-28234202Y2366254D01*
X-28242080Y2281471D01*
X-28249811Y2176713D01*
X-28255730Y2088910D01*
X-28263114Y1662431D01*
X-28408898Y1662431D01*
X-28414104Y1943600D01*
X-28380547Y2394437D01*
X-28330840Y2721037D01*
X-28227346Y3172407D01*
X-28082095Y3629478D01*
X-27895237Y4091961D01*
X-27666922Y4559563D01*
X-27397300Y5031993D01*
X-27086520Y5508960D01*
X-26734734Y5990172D01*
X-26490728Y6297084D01*
X-26115396Y6734303D01*
X-25702285Y7177069D01*
X-25255038Y7622200D01*
X-24777298Y8066513D01*
X-24272709Y8506827D01*
X-23744916Y8939959D01*
X-23197561Y9362728D01*
X-22634290Y9771952D01*
X-22072501Y10155363D01*
X-21782417Y10347103D01*
X-21860834Y10359106D01*
X-22761436Y10505691D01*
X-23623029Y10663946D01*
X-24447442Y10834396D01*
X-25236506Y11017569D01*
X-25992052Y11213991D01*
X-26715910Y11424188D01*
X-27409911Y11648687D01*
X-28075885Y11888015D01*
X-28715664Y12142698D01*
X-29331077Y12413263D01*
X-29823834Y12649850D01*
X-30363729Y12932445D01*
X-30870999Y13224633D01*
X-31344317Y13525415D01*
X-31782358Y13833793D01*
X-32183799Y14148768D01*
X-32547314Y14469340D01*
X-32871577Y14794511D01*
X-33155264Y15123282D01*
X-33226779Y15215233D01*
X-33287356Y15299628D01*
X-33344751Y15387720D01*
X-33394529Y15471676D01*
X-33432258Y15543661D01*
X-33453505Y15595841D01*
X-33455224Y15618886D01*
X-33427629Y15636744D01*
X-33377615Y15652719D01*
X-33374299Y15653442D01*
X-33297362Y15674725D01*
X-33190233Y15711360D01*
X-33060791Y15760180D01*
X-32916911Y15818022D01*
X-32766474Y15881719D01*
X-32617355Y15948107D01*
X-32480250Y16012649D01*
X-32236552Y16137112D01*
X-32033592Y16253675D01*
X-31871546Y16362220D01*
X-31750586Y16462626D01*
X-31670886Y16554774D01*
X-31654359Y16582062D01*
X-31629647Y16631476D01*
X-31625534Y16662057D01*
X-31642187Y16692043D01*
X-31655514Y16708974D01*
X-31679095Y16735331D01*
X-31728712Y16788496D01*
X-31800940Y16864877D01*
X-31892356Y16960880D01*
X-31999535Y17072911D01*
X-32119054Y17197378D01*
X-32247489Y17330688D01*
X-32284564Y17369092D01*
X-32412546Y17502059D01*
X-32530457Y17625453D01*
X-32635233Y17736000D01*
X-32723808Y17830425D01*
X-32793117Y17905453D01*
X-32840095Y17957809D01*
X-32861676Y17984218D01*
X-32862676Y17986714D01*
X-32838726Y17994994D01*
X-32784394Y18008051D01*
X-32710970Y18023194D01*
X-32703523Y18024622D01*
X-32531508Y18070534D01*
X-32333229Y18147300D01*
X-32110361Y18253966D01*
X-31864577Y18389581D01*
X-31597551Y18553191D01*
X-31310957Y18743844D01*
X-31006469Y18960588D01*
X-30836207Y19087377D01*
X-30722379Y19172819D01*
X-30637744Y19233852D01*
X-30577985Y19271935D01*
X-30538786Y19288525D01*
X-30515829Y19285084D01*
X-30504798Y19263069D01*
X-30501375Y19223940D01*
X-30501167Y19200619D01*
X-30505592Y19175181D01*
X-30522039Y19147087D01*
X-30555267Y19111751D01*
X-30610036Y19064585D01*
X-30691106Y19001002D01*
X-30771042Y18940524D01*
X-31046631Y18738803D01*
X-31312699Y18554053D01*
X-31565976Y18388241D01*
X-31803193Y18243338D01*
X-32021079Y18121311D01*
X-32216365Y18024129D01*
X-32385780Y17953761D01*
X-32441303Y17934899D01*
X-32502981Y17912822D01*
X-32544035Y17893078D01*
X-32554334Y17883113D01*
X-32540023Y17864748D01*
X-32499345Y17819822D01*
X-32435687Y17751891D01*
X-32352430Y17664510D01*
X-32252961Y17561235D01*
X-32140663Y17445623D01*
X-32039249Y17341937D01*
X-31917434Y17217179D01*
X-31804477Y17100358D01*
X-31703987Y16995295D01*
X-31619575Y16905811D01*
X-31554851Y16835724D01*
X-31513423Y16788857D01*
X-31499499Y16770684D01*
X-31474115Y16680149D01*
X-31488678Y16581169D01*
X-31542045Y16475476D01*
X-31633070Y16364803D01*
X-31760610Y16250881D01*
X-31915791Y16140423D01*
X-32041528Y16064974D01*
X-32197838Y15980378D01*
X-32375198Y15891069D01*
X-32564086Y15801482D01*
X-32754979Y15716052D01*
X-32938354Y15639214D01*
X-33104688Y15575403D01*
X-33197266Y15543621D01*
X-33258115Y15523990D01*
X-33091672Y15302620D01*
X-32918507Y15088616D01*
X-32713336Y14863078D01*
X-32482596Y14632198D01*
X-32232724Y14402169D01*
X-31970158Y14179182D01*
X-31721415Y13984450D01*
X-31210226Y13623297D01*
X-30660367Y13277936D01*
X-30072520Y12948557D01*
X-29447368Y12635352D01*
X-28785595Y12338514D01*
X-28087884Y12058234D01*
X-27354919Y11794703D01*
X-26587381Y11548113D01*
X-25785956Y11318656D01*
X-24951326Y11106524D01*
X-24084175Y10911908D01*
X-23185185Y10735000D01*
X-22255040Y10575991D01*
X-21294424Y10435073D01*
X-20304019Y10312438D01*
X-19284509Y10208278D01*
X-18236578Y10122784D01*
X-17864667Y10097401D01*
X-17474496Y10072817D01*
X-17118652Y10052184D01*
X-16791098Y10035516D01*
X-16485795Y10022830D01*
X-16196706Y10014139D01*
X-15917793Y10009458D01*
X-15643020Y10008804D01*
X-15366347Y10012190D01*
X-15081738Y10019633D01*
X-14783155Y10031146D01*
X-14464560Y10046746D01*
X-14119916Y10066446D01*
X-13743184Y10090263D01*
X-13472584Y10108342D01*
X-12406362Y10191338D01*
X-11369493Y10293404D01*
X-10362612Y10414368D01*
X-9386355Y10554059D01*
X-8441358Y10712305D01*
X-7528257Y10888935D01*
X-6647689Y11083776D01*
X-5800288Y11296657D01*
X-4986692Y11527407D01*
X-4207536Y11775854D01*
X-3463456Y12041827D01*
X-2755088Y12325153D01*
X-2083068Y12625662D01*
X-1448032Y12943180D01*
X-850616Y13277538D01*
X-291457Y13628564D01*
X-200878Y13689457D01*
X204894Y13979486D01*
X580629Y14277702D01*
X923603Y14581623D01*
X1231088Y14888767D01*
X1500360Y15196651D01*
X1613920Y15342211D01*
X1666218Y15413043D01*
X1707262Y15470608D01*
X1731483Y15506988D01*
X1735628Y15515264D01*
X1716980Y15526190D01*
X1666034Y15548315D01*
X1590340Y15578532D01*
X1497443Y15613734D01*
X1486958Y15617608D01*
X1313170Y15686067D01*
X1124805Y15767891D01*
X931980Y15858115D01*
X744811Y15951779D01*
X573414Y16043917D01*
X427907Y16129568D01*
X378322Y16161496D01*
X214695Y16280537D01*
X92340Y16392513D01*
X10885Y16497959D01*
X-30046Y16597407D01*
X-30823Y16691393D01*
X-19015Y16729991D01*
X3810Y16764811D01*
X54032Y16826520D01*
X129006Y16912183D01*
X226086Y17018864D01*
X342625Y17143628D01*
X475977Y17283540D01*
X537132Y17346910D01*
X1063682Y17890598D01*
X939299Y17932477D01*
X748859Y18007147D01*
X533000Y18110901D01*
X295054Y18241749D01*
X38354Y18397701D01*
X-233770Y18576767D01*
X-517984Y18776959D01*
X-697283Y18909666D01*
X-792809Y18981578D01*
X-876982Y19044805D01*
X-943790Y19094841D01*
X-987222Y19127183D01*
X-1000731Y19137043D01*
X-1008991Y19164718D01*
X-1005194Y19218683D01*
X-1001948Y19236543D01*
X-984250Y19323084D01*
X-728975Y19128334D01*
G37*
X-728975Y19128334D02*
X-454591Y18924293D01*
X-188797Y18737021D01*
X65813Y18567963D01*
X306647Y18418565D01*
X531112Y18290271D01*
X736612Y18184527D01*
X920556Y18102776D01*
X1080350Y18046465D01*
X1213400Y18017038D01*
X1273197Y18012834D01*
X1301106Y18012468D01*
X1322665Y18009885D01*
X1336014Y18002857D01*
X1339291Y17989157D01*
X1330635Y17966557D01*
X1308185Y17932828D01*
X1270080Y17885743D01*
X1214459Y17823075D01*
X1139462Y17742595D01*
X1043226Y17642076D01*
X923891Y17519290D01*
X779597Y17372009D01*
X608481Y17198006D01*
X502991Y17090848D01*
X397652Y16983289D01*
X302812Y16885368D01*
X222340Y16801169D01*
X160107Y16734775D01*
X119981Y16690270D01*
X105833Y16671755D01*
X120773Y16626195D01*
X160913Y16563254D01*
X219234Y16493007D01*
X257593Y16453876D01*
X371402Y16358981D01*
X520382Y16257026D01*
X698594Y16151042D01*
X900096Y16044063D01*
X1118948Y15939120D01*
X1349209Y15839248D01*
X1584940Y15747478D01*
X1762996Y15685381D01*
X1970243Y15616929D01*
X1903013Y15497256D01*
X1811927Y15353112D01*
X1691157Y15189804D01*
X1545601Y15012584D01*
X1380158Y14826703D01*
X1199726Y14637416D01*
X1009202Y14449974D01*
X813486Y14269629D01*
X617475Y14101634D01*
X551957Y14048519D01*
X59670Y13678871D01*
X-471611Y13324597D01*
X-1041352Y12985911D01*
X-1649023Y12663027D01*
X-2294092Y12356158D01*
X-2976026Y12065518D01*
X-3694293Y11791320D01*
X-4448361Y11533778D01*
X-5237699Y11293106D01*
X-6061774Y11069517D01*
X-6920054Y10863226D01*
X-7812007Y10674445D01*
X-7888798Y10659322D01*
X-8055441Y10627598D01*
X-8254906Y10591115D01*
X-8478155Y10551425D01*
X-8716151Y10510082D01*
X-8959855Y10468639D01*
X-9200230Y10428650D01*
X-9428238Y10391669D01*
X-9633624Y10359434D01*
X-9657117Y10355202D01*
X-9670602Y10348966D01*
X-9670687Y10337801D01*
X-9653976Y10318787D01*
X-9617075Y10289000D01*
X-9556590Y10245518D01*
X-9469125Y10185418D01*
X-9351287Y10105777D01*
X-9294957Y10067843D01*
X-8677360Y9638976D01*
X-8087701Y9202115D01*
X-7511674Y8746539D01*
X-7312415Y8582164D01*
X-7127079Y8426773D01*
X-6963051Y8286958D01*
X-6813576Y8156510D01*
X-6671904Y8029223D01*
X-6531282Y7898892D01*
X-6384958Y7759309D01*
X-6226179Y7604267D01*
X-6048194Y7427561D01*
X-5957165Y7336443D01*
X-5426746Y6804462D01*
X-5025831Y6883573D01*
X-4917547Y6904309D01*
X-4774316Y6930770D01*
X-4602953Y6961746D01*
X-4410271Y6996030D01*
X-4203088Y7032412D01*
X-3988215Y7069684D01*
X-3772470Y7106638D01*
X-3672417Y7123601D01*
X-3346787Y7178970D01*
X-3059321Y7228699D01*
X-2806337Y7273549D01*
X-2584151Y7314281D01*
X-2389081Y7351657D01*
X-2217445Y7386439D01*
X-2065560Y7419387D01*
X-1975193Y7440597D01*
X-1513417Y7440597D01*
X-1259417Y7354209D01*
X-878925Y7208659D01*
X-525088Y7038704D01*
X-191931Y6840531D01*
X126523Y6610328D01*
X436247Y6344281D01*
X649853Y6135915D01*
X807501Y5967631D01*
X949564Y5799468D01*
X1087011Y5617784D01*
X1213104Y5435518D01*
X1274658Y5346799D01*
X1325052Y5280694D01*
X1360662Y5241623D01*
X1377862Y5234001D01*
X1378127Y5234435D01*
X1385532Y5263954D01*
X1396378Y5326963D01*
X1409337Y5414888D01*
X1423080Y5519155D01*
X1426349Y5545667D01*
X1469451Y5951385D01*
X1495534Y6319619D01*
X1504210Y6595301D01*
X1504887Y6704468D01*
X1502649Y6784119D01*
X1495240Y6847065D01*
X1480404Y6906117D01*
X1455887Y6974086D01*
X1423443Y7054043D01*
X1288293Y7332387D01*
X1125166Y7579869D01*
X935027Y7795594D01*
X718846Y7978666D01*
X477590Y8128188D01*
X212226Y8243264D01*
X100285Y8279235D01*
X-64013Y8327132D01*
X-174882Y8220727D01*
X-417768Y8010853D01*
X-684903Y7821916D01*
X-966487Y7659928D01*
X-1252721Y7530903D01*
X-1365250Y7490229D01*
X-1513417Y7440597D01*
X-1975193Y7440597D01*
X-1929744Y7451264D01*
X-1806314Y7482831D01*
X-1691587Y7514849D01*
X-1581881Y7548080D01*
X-1513622Y7570002D01*
X-1160259Y7706595D01*
X-832362Y7876807D01*
X-528417Y8081639D01*
X-246909Y8322092D01*
X-28514Y8550231D01*
X161676Y8787599D01*
X346856Y9057868D01*
X522035Y9351604D01*
X682226Y9659377D01*
X822437Y9971751D01*
X937679Y10279296D01*
X1006061Y10506123D01*
X1044621Y10651163D01*
X1120269Y10638648D01*
X1177650Y10630176D01*
X1218065Y10625986D01*
X1220948Y10625900D01*
X1231784Y10624485D01*
X1241249Y10617392D01*
X1250407Y10600012D01*
X1260324Y10567741D01*
X1272064Y10515972D01*
X1286692Y10440098D01*
X1305272Y10335513D01*
X1328868Y10197611D01*
X1353091Y10054167D01*
X1428735Y9580612D01*
X1490582Y9136871D01*
X1539597Y8713085D01*
X1576745Y8299390D01*
X1602989Y7885927D01*
X1619294Y7462833D01*
X1623189Y7291917D01*
X1626075Y6820361D01*
X1615960Y6382124D01*
X1592160Y5970023D01*
X1553990Y5576876D01*
X1500766Y5195500D01*
X1431804Y4818711D01*
X1354680Y4473293D01*
X1200755Y3918538D01*
X1012877Y3388836D01*
X790744Y2883559D01*
X534059Y2402080D01*
X242521Y1943772D01*
X-24922Y1582065D01*
X-115728Y1473425D01*
X-232099Y1344013D01*
X-367355Y1200483D01*
X-514814Y1049492D01*
X-667796Y897696D01*
X-819621Y751752D01*
X-963609Y618315D01*
X-1093079Y504042D01*
X-1174750Y436417D01*
X-1448589Y229401D01*
X-1754310Y18469D01*
X-2082690Y-190180D01*
X-2296584Y-317396D01*
X-2541823Y-459971D01*
X-2755422Y-585336D01*
X-2942748Y-696839D01*
X-3109166Y-797829D01*
X-3260043Y-891655D01*
X-3400745Y-981664D01*
X-3536638Y-1071205D01*
X-3673089Y-1163627D01*
X-3815464Y-1262276D01*
X-3852334Y-1288109D01*
X-3961159Y-1365705D01*
X-4081409Y-1453492D01*
X-4207635Y-1547286D01*
X-4334390Y-1642906D01*
X-4456224Y-1736169D01*
X-4567690Y-1822891D01*
X-4663340Y-1898890D01*
X-4737725Y-1959983D01*
X-4785397Y-2001989D01*
X-4795453Y-2012161D01*
X-4800693Y-2018774D01*
X-4805400Y-2027768D01*
X-4809564Y-2041122D01*
X-4813176Y-2060817D01*
X-4816226Y-2088832D01*
X-4818704Y-2127147D01*
X-4820603Y-2177741D01*
X-4821912Y-2242595D01*
X-4822622Y-2323687D01*
X-4822723Y-2422999D01*
X-4822207Y-2542509D01*
X-4821064Y-2684197D01*
X-4819285Y-2850044D01*
X-4816861Y-3042028D01*
X-4813781Y-3262129D01*
X-4810038Y-3512328D01*
X-4805621Y-3794604D01*
X-4800521Y-4110936D01*
X-4794729Y-4463305D01*
X-4788236Y-4853690D01*
X-4781032Y-5284071D01*
X-4779677Y-5364825D01*
X-4772186Y-5814530D01*
X-4765484Y-6223825D01*
X-4759558Y-6594622D01*
X-4754391Y-6928836D01*
X-4749968Y-7228383D01*
X-4746273Y-7495175D01*
X-4743290Y-7731128D01*
X-4741004Y-7938155D01*
X-4739399Y-8118171D01*
X-4738460Y-8273091D01*
X-4738170Y-8404829D01*
X-4738514Y-8515298D01*
X-4739477Y-8606414D01*
X-4741043Y-8680091D01*
X-4743197Y-8738243D01*
X-4745922Y-8782784D01*
X-4749202Y-8815629D01*
X-4751364Y-8830131D01*
X-4810611Y-9054904D01*
X-4905418Y-9261684D01*
X-5032491Y-9446594D01*
X-5188537Y-9605755D01*
X-5370262Y-9735289D01*
X-5574374Y-9831319D01*
X-5612817Y-9844609D01*
X-5767917Y-9895416D01*
X-11631084Y-9895416D01*
X-11779250Y-9848470D01*
X-11988410Y-9760892D01*
X-12177186Y-9638849D01*
X-12340654Y-9486431D01*
X-12473888Y-9307733D01*
X-12513070Y-9238586D01*
X-12554768Y-9155307D01*
X-12586462Y-9080729D01*
X-12611034Y-9004473D01*
X-12631365Y-8916160D01*
X-12650335Y-8805410D01*
X-12668576Y-8678333D01*
X-12713851Y-8411342D01*
X-12773674Y-8173827D01*
X-12851297Y-7954465D01*
X-12920761Y-7799916D01*
X-13029227Y-7598296D01*
X-13146551Y-7423764D01*
X-13283886Y-7261140D01*
X-13407669Y-7136958D01*
X-13647084Y-6938672D01*
X-13918854Y-6766656D01*
X-14221713Y-6621458D01*
X-14554391Y-6503625D01*
X-14915622Y-6413708D01*
X-15187084Y-6367345D01*
X-15307247Y-6355078D01*
X-15458233Y-6346741D01*
X-15628715Y-6342321D01*
X-15807367Y-6341807D01*
X-15982862Y-6345186D01*
X-16143874Y-6352446D01*
X-16279076Y-6363575D01*
X-16319500Y-6368561D01*
X-16598067Y-6418296D01*
X-16878479Y-6489189D01*
X-17150064Y-6577728D01*
X-17402149Y-6680395D01*
X-17624060Y-6793677D01*
X-17641762Y-6804022D01*
X-17907517Y-6982046D01*
X-18138765Y-7182067D01*
X-18336385Y-7405483D01*
X-18501251Y-7653694D01*
X-18634241Y-7928096D01*
X-18736231Y-8230089D01*
X-18808097Y-8561070D01*
X-18827893Y-8696309D01*
X-18846039Y-8815209D01*
X-18868914Y-8932332D01*
X-18893443Y-9033218D01*
X-18912015Y-9092052D01*
X-19010990Y-9296364D01*
X-19143993Y-9477623D01*
X-19307663Y-9632626D01*
X-19498638Y-9758170D01*
X-19706167Y-9848560D01*
X-19843750Y-9895416D01*
X-22743584Y-9899282D01*
X-23167631Y-9899779D01*
X-23551295Y-9900073D01*
X-23896526Y-9900149D01*
X-24205273Y-9899991D01*
X-24479486Y-9899584D01*
X-24721115Y-9898911D01*
X-24932109Y-9897958D01*
X-25114419Y-9896708D01*
X-25269993Y-9895146D01*
X-25400783Y-9893257D01*
X-25508737Y-9891025D01*
X-25595806Y-9888434D01*
X-25663938Y-9885469D01*
X-25715084Y-9882115D01*
X-25751194Y-9878354D01*
X-25770417Y-9875077D01*
X-25987359Y-9806311D01*
X-26183359Y-9701257D01*
X-26356645Y-9561372D01*
X-26505446Y-9388111D01*
X-26627991Y-9182929D01*
X-26638190Y-9161856D01*
X-26655931Y-9125160D01*
X-26672094Y-9091812D01*
X-26686720Y-9059786D01*
X-26699850Y-9027050D01*
X-26711522Y-8991578D01*
X-26721779Y-8951340D01*
X-26730660Y-8904308D01*
X-26738206Y-8848452D01*
X-26744456Y-8781745D01*
X-26749453Y-8702158D01*
X-26753235Y-8607661D01*
X-26755843Y-8496226D01*
X-26757318Y-8365825D01*
X-26757700Y-8214428D01*
X-26757030Y-8040008D01*
X-26755347Y-7840535D01*
X-26752693Y-7613981D01*
X-26749107Y-7358317D01*
X-26744630Y-7071514D01*
X-26739303Y-6751543D01*
X-26733166Y-6396377D01*
X-26726259Y-6003986D01*
X-26718622Y-5572342D01*
X-26714413Y-5333797D01*
X-26655714Y-2000250D01*
X-26842039Y-1802840D01*
X-27182676Y-1416112D01*
X-27481943Y-1021631D01*
X-27739788Y-619554D01*
X-27956160Y-210038D01*
X-28131007Y206758D01*
X-28264277Y630678D01*
X-28355917Y1061563D01*
X-28405877Y1499256D01*
X-28408898Y1662431D01*
X-28263114Y1662431D01*
X-28228423Y1239129D01*
X-28151826Y819497D01*
X-28033498Y404029D01*
X-27873608Y-6782D01*
X-27672330Y-412442D01*
X-27429835Y-812456D01*
X-27146295Y-1206333D01*
X-27078586Y-1291912D01*
X-27003686Y-1384196D01*
X-26935852Y-1466196D01*
X-26880446Y-1531549D01*
X-26842828Y-1573894D01*
X-26831105Y-1585546D01*
X-26805027Y-1627347D01*
X-26797000Y-1670262D01*
X-26783139Y-1719210D01*
X-26739087Y-1780488D01*
X-26691167Y-1830916D01*
X-26634962Y-1883883D01*
X-26601946Y-1907981D01*
X-26587304Y-1906089D01*
X-26585334Y-1894208D01*
X-26583369Y-1866723D01*
X-26570709Y-1869369D01*
X-26544402Y-1895004D01*
X-26539033Y-1901060D01*
X-26534200Y-1909048D01*
X-26529913Y-1920932D01*
X-26526184Y-1938680D01*
X-26523023Y-1964256D01*
X-26520440Y-1999628D01*
X-26518446Y-2046759D01*
X-26517052Y-2107617D01*
X-26516268Y-2184167D01*
X-26516104Y-2278375D01*
X-26516572Y-2392206D01*
X-26517682Y-2527627D01*
X-26519444Y-2686604D01*
X-26521868Y-2871101D01*
X-26524967Y-3083086D01*
X-26528749Y-3324523D01*
X-26533227Y-3597379D01*
X-26538409Y-3903619D01*
X-26544307Y-4245209D01*
X-26550932Y-4624116D01*
X-26558293Y-5042304D01*
X-26562651Y-5289249D01*
X-26570561Y-5739936D01*
X-26577655Y-6150233D01*
X-26583950Y-6522075D01*
X-26589464Y-6857395D01*
X-26594213Y-7158128D01*
X-26598216Y-7426210D01*
X-26601488Y-7663574D01*
X-26604048Y-7872155D01*
X-26605913Y-8053889D01*
X-26607099Y-8210709D01*
X-26607625Y-8344551D01*
X-26607507Y-8457348D01*
X-26606763Y-8551036D01*
X-26605410Y-8627550D01*
X-26603465Y-8688823D01*
X-26600946Y-8736791D01*
X-26597869Y-8773387D01*
X-26594252Y-8800548D01*
X-26593976Y-8802161D01*
X-26539521Y-9000873D01*
X-26450023Y-9186589D01*
X-26330267Y-9354175D01*
X-26185040Y-9498496D01*
X-26019126Y-9614418D01*
X-25837313Y-9696806D01*
X-25733108Y-9725784D01*
X-25690474Y-9730391D01*
X-25608608Y-9734657D01*
X-25490612Y-9738583D01*
X-25339584Y-9742167D01*
X-25158627Y-9745409D01*
X-24950840Y-9748307D01*
X-24719323Y-9750862D01*
X-24467178Y-9753073D01*
X-24197504Y-9754938D01*
X-23913402Y-9756456D01*
X-23617973Y-9757628D01*
X-23314316Y-9758453D01*
X-23005533Y-9758929D01*
X-22694724Y-9759056D01*
X-22384988Y-9758833D01*
X-22079428Y-9758260D01*
X-21781143Y-9757335D01*
X-21493233Y-9756058D01*
X-21218799Y-9754428D01*
X-20960941Y-9752445D01*
X-20722761Y-9750107D01*
X-20507358Y-9747414D01*
X-20317832Y-9744366D01*
X-20157285Y-9740960D01*
X-20028816Y-9737198D01*
X-19935527Y-9733077D01*
X-19880517Y-9728597D01*
X-19872049Y-9727206D01*
X-19667533Y-9663222D01*
X-19481317Y-9563788D01*
X-19317960Y-9432787D01*
X-19182020Y-9274102D01*
X-19078055Y-9091615D01*
X-19052321Y-9028925D01*
X-19032221Y-8961006D01*
X-19010579Y-8864680D01*
X-18990216Y-8753646D01*
X-18976121Y-8658732D01*
X-18925026Y-8352701D01*
X-18855372Y-8079386D01*
X-18765603Y-7832735D01*
X-18760597Y-7821083D01*
X-18615120Y-7536778D01*
X-18436096Y-7277895D01*
X-18224137Y-7044847D01*
X-17979855Y-6838051D01*
X-17703863Y-6657921D01*
X-17396770Y-6504873D01*
X-17059191Y-6379321D01*
X-16691735Y-6281680D01*
X-16414750Y-6229795D01*
X-16280629Y-6213822D01*
X-16115449Y-6202168D01*
X-15930272Y-6194912D01*
X-15736159Y-6192136D01*
X-15544173Y-6193919D01*
X-15365375Y-6200342D01*
X-15210828Y-6211486D01*
X-15134167Y-6220496D01*
X-14746445Y-6292419D01*
X-14386689Y-6393467D01*
X-14055731Y-6522902D01*
X-13754403Y-6679987D01*
X-13483538Y-6863984D01*
X-13243967Y-7074155D01*
X-13036524Y-7309762D01*
X-12862040Y-7570068D01*
X-12721348Y-7854335D01*
X-12615279Y-8161825D01*
X-12544667Y-8491801D01*
X-12540511Y-8519583D01*
X-12516959Y-8677309D01*
X-12496650Y-8800368D01*
X-12477951Y-8896144D01*
X-12459230Y-8972020D01*
X-12438852Y-9035382D01*
X-12415185Y-9093613D01*
X-12411938Y-9100847D01*
X-12308348Y-9279476D01*
X-12171000Y-9437193D01*
X-12005350Y-9569034D01*
X-11816854Y-9670038D01*
X-11762656Y-9691412D01*
X-11609917Y-9747250D01*
X-8784167Y-9753273D01*
X-8338131Y-9754103D01*
X-7933132Y-9754597D01*
X-7567875Y-9754746D01*
X-7241065Y-9754544D01*
X-6951408Y-9753981D01*
X-6697609Y-9753051D01*
X-6478372Y-9751746D01*
X-6292403Y-9750056D01*
X-6138408Y-9747976D01*
X-6015090Y-9745496D01*
X-5921155Y-9742610D01*
X-5855309Y-9739308D01*
X-5816256Y-9735584D01*
X-5814065Y-9735236D01*
X-5618723Y-9681910D01*
X-5437637Y-9591956D01*
X-5275026Y-9469872D01*
X-5135109Y-9320156D01*
X-5022105Y-9147305D01*
X-4940233Y-8955819D01*
X-4894297Y-8754625D01*
X-4892016Y-8713157D01*
X-4890650Y-8630351D01*
X-4890190Y-8507192D01*
X-4890623Y-8344665D01*
X-4891939Y-8143753D01*
X-4894127Y-7905443D01*
X-4897176Y-7630720D01*
X-4901076Y-7320567D01*
X-4905814Y-6975971D01*
X-4911381Y-6597916D01*
X-4917765Y-6187387D01*
X-4924956Y-5745368D01*
X-4932895Y-5275558D01*
X-4940445Y-4835808D01*
X-4947265Y-4436416D01*
X-4953368Y-4075412D01*
X-4958762Y-3750828D01*
X-4963458Y-3460692D01*
X-4967467Y-3203037D01*
X-4970798Y-2975893D01*
X-4973462Y-2777291D01*
X-4975469Y-2605260D01*
X-4976830Y-2457833D01*
X-4977554Y-2333039D01*
X-4977652Y-2228910D01*
X-4977134Y-2143475D01*
X-4976010Y-2074766D01*
X-4974291Y-2020813D01*
X-4971987Y-1979648D01*
X-4969107Y-1949299D01*
X-4965663Y-1927800D01*
X-4961665Y-1913179D01*
X-4957122Y-1903467D01*
X-4952045Y-1896696D01*
X-4950477Y-1895004D01*
X-4921687Y-1866806D01*
X-4911776Y-1869309D01*
X-4910667Y-1894281D01*
X-4904133Y-1909096D01*
X-4881541Y-1899596D01*
X-4838410Y-1862970D01*
X-4796775Y-1822826D01*
X-4730148Y-1751069D01*
X-4696910Y-1699753D01*
X-4693095Y-1671295D01*
X-4685091Y-1635586D01*
X-4647718Y-1575726D01*
X-4589999Y-1502833D01*
X-4370620Y-1502833D01*
X-4350602Y-1490974D01*
X-4303849Y-1458750D01*
X-4237498Y-1411187D01*
X-4164600Y-1357700D01*
X-4072440Y-1290679D01*
X-3958258Y-1209552D01*
X-3835298Y-1123631D01*
X-3716802Y-1042230D01*
X-3693584Y-1026486D01*
X-3599191Y-962087D01*
X-3518110Y-905691D01*
X-3456443Y-861630D01*
X-3420291Y-834234D01*
X-3413409Y-827661D01*
X-3425231Y-809728D01*
X-3470057Y-776091D01*
X-3549592Y-725582D01*
X-3643205Y-669997D01*
X-3740994Y-613037D01*
X-3921037Y-883310D01*
X-3998093Y-996436D01*
X-4081373Y-1114479D01*
X-4161743Y-1224740D01*
X-4230070Y-1314516D01*
X-4240936Y-1328208D01*
X-4297120Y-1399472D01*
X-4340543Y-1456701D01*
X-4366200Y-1493155D01*
X-4370620Y-1502833D01*
X-4589999Y-1502833D01*
X-4579906Y-1490088D01*
X-4552993Y-1458579D01*
X-4242560Y-1072318D01*
X-3973239Y-678489D01*
X-3745144Y-277458D01*
X-3558387Y130410D01*
X-3413083Y544749D01*
X-3309346Y965193D01*
X-3247288Y1391377D01*
X-3227025Y1822933D01*
X-3248670Y2259497D01*
X-3292967Y2592917D01*
X-3366258Y2944008D01*
X-3470056Y3312744D01*
X-3601647Y3690527D01*
X-3758318Y4068760D01*
X-3759628Y4071682D01*
X-3975687Y4511117D01*
X-4232010Y4957075D01*
X-4527275Y5408180D01*
X-4860156Y5863057D01*
X-5163305Y6238552D01*
X-4950725Y6238552D01*
X-4933754Y6212109D01*
X-4903890Y6175363D01*
X-4895137Y6164792D01*
X-4661803Y5867629D01*
X-4432301Y5547692D01*
X-4211422Y5212921D01*
X-4003952Y4871254D01*
X-3814679Y4530630D01*
X-3648394Y4198988D01*
X-3509882Y3884265D01*
X-3490847Y3836593D01*
X-3453401Y3744760D01*
X-3420124Y3669362D01*
X-3394574Y3618052D01*
X-3380313Y3598485D01*
X-3380113Y3598468D01*
X-3351120Y3589058D01*
X-3291435Y3563239D01*
X-3207806Y3524361D01*
X-3106981Y3475772D01*
X-2995707Y3420823D01*
X-2880732Y3362861D01*
X-2768805Y3305237D01*
X-2666672Y3251300D01*
X-2581083Y3204399D01*
X-2548006Y3185456D01*
X-2196640Y2963257D01*
X-1860706Y2717529D01*
X-1544830Y2452658D01*
X-1253641Y2173028D01*
X-991766Y1883024D01*
X-763832Y1587029D01*
X-608307Y1347647D01*
X-522288Y1203043D01*
X-404019Y1335075D01*
X-339297Y1409116D01*
X-260180Y1502251D01*
X-178557Y1600387D01*
X-130264Y1659595D01*
X5955Y1837488D01*
X149943Y2041846D01*
X293445Y2259953D01*
X428207Y2479093D01*
X545974Y2686547D01*
X587426Y2765266D01*
X639741Y2868817D01*
X684391Y2959993D01*
X718062Y3031804D01*
X737442Y3077259D01*
X740833Y3088962D01*
X726851Y3126091D01*
X687399Y3189278D01*
X626215Y3273937D01*
X547037Y3375485D01*
X453605Y3489338D01*
X349657Y3610909D01*
X238931Y3735616D01*
X125167Y3858874D01*
X43079Y3944555D01*
X-363958Y4332078D01*
X-796368Y4685729D01*
X-1254086Y5005479D01*
X-1737047Y5291293D01*
X-2245188Y5543142D01*
X-2778445Y5760992D01*
X-3336752Y5944813D01*
X-3920046Y6094572D01*
X-4528263Y6210239D01*
X-4549919Y6213656D01*
X-4697259Y6236726D01*
X-4806863Y6253010D01*
X-4882871Y6261920D01*
X-4929424Y6262871D01*
X-4950662Y6255277D01*
X-4950725Y6238552D01*
X-5163305Y6238552D01*
X-5229327Y6320330D01*
X-5633466Y6778626D01*
X-6071246Y7236568D01*
X-6541343Y7692783D01*
X-7042432Y8145893D01*
X-7573188Y8594526D01*
X-8132288Y9037305D01*
X-8718405Y9472856D01*
X-9330215Y9899804D01*
X-9455968Y9984323D01*
X-9947851Y10312848D01*
X-10556634Y10236849D01*
X-11260804Y10153584D01*
X-11952735Y10081446D01*
X-12645773Y10019243D01*
X-13353268Y9965782D01*
X-14088568Y9919870D01*
X-14128750Y9917614D01*
X-14451390Y9900251D01*
X-14753690Y9885280D01*
X-15032693Y9872803D01*
X-15285442Y9862921D01*
X-15508980Y9855737D01*
X-15700350Y9851352D01*
X-15856596Y9849868D01*
X-15974760Y9851387D01*
X-16010565Y9852851D01*
X-16095884Y9857144D01*
X-16213797Y9862789D01*
X-16354603Y9869336D01*
X-16508600Y9876338D01*
X-16666088Y9883343D01*
X-16721667Y9885775D01*
X-17842004Y9946154D01*
X-18955541Y10029131D01*
X-20051503Y10133811D01*
X-20938052Y10236282D01*
X-21545519Y10312275D01*
X-21784718Y10156837D01*
X-22402149Y9742137D01*
X-23000742Y9313149D01*
X-23577870Y8872217D01*
X-24130903Y8421688D01*
X-24657212Y7963907D01*
X-25154170Y7501220D01*
X-25619148Y7035972D01*
X-26049516Y6570508D01*
X-26442646Y6107175D01*
X-26715334Y5757334D01*
X-27027515Y5317846D01*
X-27306847Y4877585D01*
X-27552145Y4439005D01*
X-27762220Y4004562D01*
X-27935886Y3576710D01*
X-28071954Y3157905D01*
X-28169031Y2751667D01*
X-28193591Y2623769D01*
X-28211567Y2525101D01*
X-28224568Y2443364D01*
X-28234202Y2366254D01*
X-28242080Y2281471D01*
X-28249811Y2176713D01*
X-28255730Y2088910D01*
X-28263114Y1662431D01*
X-28408898Y1662431D01*
X-28414104Y1943600D01*
X-28380547Y2394437D01*
X-28330840Y2721037D01*
X-28227346Y3172407D01*
X-28082095Y3629478D01*
X-27895237Y4091961D01*
X-27666922Y4559563D01*
X-27397300Y5031993D01*
X-27086520Y5508960D01*
X-26734734Y5990172D01*
X-26490728Y6297084D01*
X-26115396Y6734303D01*
X-25702285Y7177069D01*
X-25255038Y7622200D01*
X-24777298Y8066513D01*
X-24272709Y8506827D01*
X-23744916Y8939959D01*
X-23197561Y9362728D01*
X-22634290Y9771952D01*
X-22072501Y10155363D01*
X-21782417Y10347103D01*
X-21860834Y10359106D01*
X-22761436Y10505691D01*
X-23623029Y10663946D01*
X-24447442Y10834396D01*
X-25236506Y11017569D01*
X-25992052Y11213991D01*
X-26715910Y11424188D01*
X-27409911Y11648687D01*
X-28075885Y11888015D01*
X-28715664Y12142698D01*
X-29331077Y12413263D01*
X-29823834Y12649850D01*
X-30363729Y12932445D01*
X-30870999Y13224633D01*
X-31344317Y13525415D01*
X-31782358Y13833793D01*
X-32183799Y14148768D01*
X-32547314Y14469340D01*
X-32871577Y14794511D01*
X-33155264Y15123282D01*
X-33226779Y15215233D01*
X-33287356Y15299628D01*
X-33344751Y15387720D01*
X-33394529Y15471676D01*
X-33432258Y15543661D01*
X-33453505Y15595841D01*
X-33455224Y15618886D01*
X-33427629Y15636744D01*
X-33377615Y15652719D01*
X-33374299Y15653442D01*
X-33297362Y15674725D01*
X-33190233Y15711360D01*
X-33060791Y15760180D01*
X-32916911Y15818022D01*
X-32766474Y15881719D01*
X-32617355Y15948107D01*
X-32480250Y16012649D01*
X-32236552Y16137112D01*
X-32033592Y16253675D01*
X-31871546Y16362220D01*
X-31750586Y16462626D01*
X-31670886Y16554774D01*
X-31654359Y16582062D01*
X-31629647Y16631476D01*
X-31625534Y16662057D01*
X-31642187Y16692043D01*
X-31655514Y16708974D01*
X-31679095Y16735331D01*
X-31728712Y16788496D01*
X-31800940Y16864877D01*
X-31892356Y16960880D01*
X-31999535Y17072911D01*
X-32119054Y17197378D01*
X-32247489Y17330688D01*
X-32284564Y17369092D01*
X-32412546Y17502059D01*
X-32530457Y17625453D01*
X-32635233Y17736000D01*
X-32723808Y17830425D01*
X-32793117Y17905453D01*
X-32840095Y17957809D01*
X-32861676Y17984218D01*
X-32862676Y17986714D01*
X-32838726Y17994994D01*
X-32784394Y18008051D01*
X-32710970Y18023194D01*
X-32703523Y18024622D01*
X-32531508Y18070534D01*
X-32333229Y18147300D01*
X-32110361Y18253966D01*
X-31864577Y18389581D01*
X-31597551Y18553191D01*
X-31310957Y18743844D01*
X-31006469Y18960588D01*
X-30836207Y19087377D01*
X-30722379Y19172819D01*
X-30637744Y19233852D01*
X-30577985Y19271935D01*
X-30538786Y19288525D01*
X-30515829Y19285084D01*
X-30504798Y19263069D01*
X-30501375Y19223940D01*
X-30501167Y19200619D01*
X-30505592Y19175181D01*
X-30522039Y19147087D01*
X-30555267Y19111751D01*
X-30610036Y19064585D01*
X-30691106Y19001002D01*
X-30771042Y18940524D01*
X-31046631Y18738803D01*
X-31312699Y18554053D01*
X-31565976Y18388241D01*
X-31803193Y18243338D01*
X-32021079Y18121311D01*
X-32216365Y18024129D01*
X-32385780Y17953761D01*
X-32441303Y17934899D01*
X-32502981Y17912822D01*
X-32544035Y17893078D01*
X-32554334Y17883113D01*
X-32540023Y17864748D01*
X-32499345Y17819822D01*
X-32435687Y17751891D01*
X-32352430Y17664510D01*
X-32252961Y17561235D01*
X-32140663Y17445623D01*
X-32039249Y17341937D01*
X-31917434Y17217179D01*
X-31804477Y17100358D01*
X-31703987Y16995295D01*
X-31619575Y16905811D01*
X-31554851Y16835724D01*
X-31513423Y16788857D01*
X-31499499Y16770684D01*
X-31474115Y16680149D01*
X-31488678Y16581169D01*
X-31542045Y16475476D01*
X-31633070Y16364803D01*
X-31760610Y16250881D01*
X-31915791Y16140423D01*
X-32041528Y16064974D01*
X-32197838Y15980378D01*
X-32375198Y15891069D01*
X-32564086Y15801482D01*
X-32754979Y15716052D01*
X-32938354Y15639214D01*
X-33104688Y15575403D01*
X-33197266Y15543621D01*
X-33258115Y15523990D01*
X-33091672Y15302620D01*
X-32918507Y15088616D01*
X-32713336Y14863078D01*
X-32482596Y14632198D01*
X-32232724Y14402169D01*
X-31970158Y14179182D01*
X-31721415Y13984450D01*
X-31210226Y13623297D01*
X-30660367Y13277936D01*
X-30072520Y12948557D01*
X-29447368Y12635352D01*
X-28785595Y12338514D01*
X-28087884Y12058234D01*
X-27354919Y11794703D01*
X-26587381Y11548113D01*
X-25785956Y11318656D01*
X-24951326Y11106524D01*
X-24084175Y10911908D01*
X-23185185Y10735000D01*
X-22255040Y10575991D01*
X-21294424Y10435073D01*
X-20304019Y10312438D01*
X-19284509Y10208278D01*
X-18236578Y10122784D01*
X-17864667Y10097401D01*
X-17474496Y10072817D01*
X-17118652Y10052184D01*
X-16791098Y10035516D01*
X-16485795Y10022830D01*
X-16196706Y10014139D01*
X-15917793Y10009458D01*
X-15643020Y10008804D01*
X-15366347Y10012190D01*
X-15081738Y10019633D01*
X-14783155Y10031146D01*
X-14464560Y10046746D01*
X-14119916Y10066446D01*
X-13743184Y10090263D01*
X-13472584Y10108342D01*
X-12406362Y10191338D01*
X-11369493Y10293404D01*
X-10362612Y10414368D01*
X-9386355Y10554059D01*
X-8441358Y10712305D01*
X-7528257Y10888935D01*
X-6647689Y11083776D01*
X-5800288Y11296657D01*
X-4986692Y11527407D01*
X-4207536Y11775854D01*
X-3463456Y12041827D01*
X-2755088Y12325153D01*
X-2083068Y12625662D01*
X-1448032Y12943180D01*
X-850616Y13277538D01*
X-291457Y13628564D01*
X-200878Y13689457D01*
X204894Y13979486D01*
X580629Y14277702D01*
X923603Y14581623D01*
X1231088Y14888767D01*
X1500360Y15196651D01*
X1613920Y15342211D01*
X1666218Y15413043D01*
X1707262Y15470608D01*
X1731483Y15506988D01*
X1735628Y15515264D01*
X1716980Y15526190D01*
X1666034Y15548315D01*
X1590340Y15578532D01*
X1497443Y15613734D01*
X1486958Y15617608D01*
X1313170Y15686067D01*
X1124805Y15767891D01*
X931980Y15858115D01*
X744811Y15951779D01*
X573414Y16043917D01*
X427907Y16129568D01*
X378322Y16161496D01*
X214695Y16280537D01*
X92340Y16392513D01*
X10885Y16497959D01*
X-30046Y16597407D01*
X-30823Y16691393D01*
X-19015Y16729991D01*
X3810Y16764811D01*
X54032Y16826520D01*
X129006Y16912183D01*
X226086Y17018864D01*
X342625Y17143628D01*
X475977Y17283540D01*
X537132Y17346910D01*
X1063682Y17890598D01*
X939299Y17932477D01*
X748859Y18007147D01*
X533000Y18110901D01*
X295054Y18241749D01*
X38354Y18397701D01*
X-233770Y18576767D01*
X-517984Y18776959D01*
X-697283Y18909666D01*
X-792809Y18981578D01*
X-876982Y19044805D01*
X-943790Y19094841D01*
X-987222Y19127183D01*
X-1000731Y19137043D01*
X-1008991Y19164718D01*
X-1005194Y19218683D01*
X-1001948Y19236543D01*
X-984250Y19323084D01*
X-728975Y19128334D01*
%TD*%
D11*
%TO.C,*%
X-1800667Y31248424D03*
%TD*%
M02*
