%TF.GenerationSoftware,KiCad,Pcbnew,5.1.8-db9833491~88~ubuntu20.04.1*%
%TF.CreationDate,2020-12-09T15:47:01+01:00*%
%TF.ProjectId,oscar_pcb_svg2shenzen,6f736361-725f-4706-9362-5f7376673273,rev?*%
%TF.SameCoordinates,Original*%
%TF.FileFunction,Legend,Bot*%
%TF.FilePolarity,Positive*%
%FSLAX46Y46*%
G04 Gerber Fmt 4.6, Leading zero omitted, Abs format (unit mm)*
G04 Created by KiCad (PCBNEW 5.1.8-db9833491~88~ubuntu20.04.1) date 2020-12-09 15:47:01*
%MOMM*%
%LPD*%
G01*
G04 APERTURE LIST*
%ADD10C,0.010000*%
G04 APERTURE END LIST*
D10*
%TO.C,G\u002A\u002A\u002A*%
G36*
X-9138296Y20238342D02*
G01*
X-8960758Y20167871D01*
X-8805098Y20062916D01*
X-8674525Y19925939D01*
X-8572249Y19759404D01*
X-8528215Y19653250D01*
X-8505610Y19579212D01*
X-8493230Y19507615D01*
X-8489355Y19423049D01*
X-8491636Y19325167D01*
X-8497951Y19219430D01*
X-8509244Y19139762D01*
X-8529065Y19069923D01*
X-8560963Y18993675D01*
X-8566845Y18981028D01*
X-8668153Y18811689D01*
X-8797291Y18671067D01*
X-8949407Y18561652D01*
X-9119645Y18485934D01*
X-9303153Y18446403D01*
X-9495075Y18445550D01*
X-9584769Y18458816D01*
X-9747638Y18510902D01*
X-9904159Y18598377D01*
X-10045558Y18714366D01*
X-10163059Y18851993D01*
X-10229630Y18964063D01*
X-10258604Y19025519D01*
X-10277908Y19076596D01*
X-10289499Y19128607D01*
X-10295334Y19192867D01*
X-10297371Y19280687D01*
X-10297584Y19356917D01*
X-10296932Y19466912D01*
X-10293703Y19545939D01*
X-10285988Y19605358D01*
X-10271876Y19656528D01*
X-10249457Y19710808D01*
X-10231748Y19748500D01*
X-10127853Y19919980D01*
X-9996976Y20060111D01*
X-9842648Y20166835D01*
X-9668400Y20238091D01*
X-9477764Y20271820D01*
X-9334500Y20271864D01*
X-9138296Y20238342D01*
G37*
X-9138296Y20238342D02*
X-8960758Y20167871D01*
X-8805098Y20062916D01*
X-8674525Y19925939D01*
X-8572249Y19759404D01*
X-8528215Y19653250D01*
X-8505610Y19579212D01*
X-8493230Y19507615D01*
X-8489355Y19423049D01*
X-8491636Y19325167D01*
X-8497951Y19219430D01*
X-8509244Y19139762D01*
X-8529065Y19069923D01*
X-8560963Y18993675D01*
X-8566845Y18981028D01*
X-8668153Y18811689D01*
X-8797291Y18671067D01*
X-8949407Y18561652D01*
X-9119645Y18485934D01*
X-9303153Y18446403D01*
X-9495075Y18445550D01*
X-9584769Y18458816D01*
X-9747638Y18510902D01*
X-9904159Y18598377D01*
X-10045558Y18714366D01*
X-10163059Y18851993D01*
X-10229630Y18964063D01*
X-10258604Y19025519D01*
X-10277908Y19076596D01*
X-10289499Y19128607D01*
X-10295334Y19192867D01*
X-10297371Y19280687D01*
X-10297584Y19356917D01*
X-10296932Y19466912D01*
X-10293703Y19545939D01*
X-10285988Y19605358D01*
X-10271876Y19656528D01*
X-10249457Y19710808D01*
X-10231748Y19748500D01*
X-10127853Y19919980D01*
X-9996976Y20060111D01*
X-9842648Y20166835D01*
X-9668400Y20238091D01*
X-9477764Y20271820D01*
X-9334500Y20271864D01*
X-9138296Y20238342D01*
G36*
X-7569697Y18799109D02*
G01*
X-7457688Y18747320D01*
X-7372266Y18665377D01*
X-7317059Y18556859D01*
X-7295693Y18425342D01*
X-7295554Y18413576D01*
X-7313907Y18283156D01*
X-7367198Y18171553D01*
X-7452389Y18084404D01*
X-7483903Y18063760D01*
X-7581619Y18022206D01*
X-7688579Y18001590D01*
X-7787064Y18004695D01*
X-7815495Y18011658D01*
X-7938840Y18070688D01*
X-8031410Y18157206D01*
X-8090540Y18267622D01*
X-8113566Y18398344D01*
X-8113780Y18413576D01*
X-8095368Y18546830D01*
X-8042816Y18657381D01*
X-7959750Y18741652D01*
X-7849797Y18796064D01*
X-7716584Y18817041D01*
X-7704667Y18817167D01*
X-7569697Y18799109D01*
G37*
X-7569697Y18799109D02*
X-7457688Y18747320D01*
X-7372266Y18665377D01*
X-7317059Y18556859D01*
X-7295693Y18425342D01*
X-7295554Y18413576D01*
X-7313907Y18283156D01*
X-7367198Y18171553D01*
X-7452389Y18084404D01*
X-7483903Y18063760D01*
X-7581619Y18022206D01*
X-7688579Y18001590D01*
X-7787064Y18004695D01*
X-7815495Y18011658D01*
X-7938840Y18070688D01*
X-8031410Y18157206D01*
X-8090540Y18267622D01*
X-8113566Y18398344D01*
X-8113780Y18413576D01*
X-8095368Y18546830D01*
X-8042816Y18657381D01*
X-7959750Y18741652D01*
X-7849797Y18796064D01*
X-7716584Y18817041D01*
X-7704667Y18817167D01*
X-7569697Y18799109D01*
G36*
X-22030606Y20261941D02*
G01*
X-21851953Y20211739D01*
X-21687497Y20127458D01*
X-21585457Y20049209D01*
X-21458312Y19908102D01*
X-21363109Y19745236D01*
X-21302541Y19567860D01*
X-21279301Y19383226D01*
X-21287547Y19247387D01*
X-21335283Y19053395D01*
X-21417941Y18879514D01*
X-21532064Y18729411D01*
X-21674192Y18606755D01*
X-21840865Y18515213D01*
X-22028625Y18458455D01*
X-22032190Y18457772D01*
X-22141299Y18441700D01*
X-22237216Y18440386D01*
X-22341532Y18454263D01*
X-22394334Y18465005D01*
X-22575859Y18524448D01*
X-22734686Y18616046D01*
X-22868630Y18734924D01*
X-22975510Y18876206D01*
X-23053143Y19035018D01*
X-23099346Y19206484D01*
X-23111937Y19385730D01*
X-23088733Y19567881D01*
X-23027551Y19748062D01*
X-22996570Y19810109D01*
X-22912481Y19930854D01*
X-22798883Y20045965D01*
X-22668213Y20144085D01*
X-22573575Y20196424D01*
X-22399235Y20255448D01*
X-22215639Y20276898D01*
X-22030606Y20261941D01*
G37*
X-22030606Y20261941D02*
X-21851953Y20211739D01*
X-21687497Y20127458D01*
X-21585457Y20049209D01*
X-21458312Y19908102D01*
X-21363109Y19745236D01*
X-21302541Y19567860D01*
X-21279301Y19383226D01*
X-21287547Y19247387D01*
X-21335283Y19053395D01*
X-21417941Y18879514D01*
X-21532064Y18729411D01*
X-21674192Y18606755D01*
X-21840865Y18515213D01*
X-22028625Y18458455D01*
X-22032190Y18457772D01*
X-22141299Y18441700D01*
X-22237216Y18440386D01*
X-22341532Y18454263D01*
X-22394334Y18465005D01*
X-22575859Y18524448D01*
X-22734686Y18616046D01*
X-22868630Y18734924D01*
X-22975510Y18876206D01*
X-23053143Y19035018D01*
X-23099346Y19206484D01*
X-23111937Y19385730D01*
X-23088733Y19567881D01*
X-23027551Y19748062D01*
X-22996570Y19810109D01*
X-22912481Y19930854D01*
X-22798883Y20045965D01*
X-22668213Y20144085D01*
X-22573575Y20196424D01*
X-22399235Y20255448D01*
X-22215639Y20276898D01*
X-22030606Y20261941D01*
G36*
X-23768866Y18809264D02*
G01*
X-23721428Y18792046D01*
X-23668638Y18760441D01*
X-23574781Y18675366D01*
X-23510376Y18567308D01*
X-23480237Y18446377D01*
X-23481173Y18366747D01*
X-23514774Y18245478D01*
X-23580180Y18143411D01*
X-23670266Y18065014D01*
X-23777906Y18014753D01*
X-23895974Y17997094D01*
X-24017346Y18016504D01*
X-24031845Y18021556D01*
X-24147603Y18084845D01*
X-24232316Y18175801D01*
X-24283635Y18290964D01*
X-24299334Y18415164D01*
X-24279570Y18545825D01*
X-24222183Y18660204D01*
X-24137454Y18746906D01*
X-24086434Y18780366D01*
X-24032943Y18799869D01*
X-23961305Y18809971D01*
X-23909717Y18813115D01*
X-23826272Y18815117D01*
X-23768866Y18809264D01*
G37*
X-23768866Y18809264D02*
X-23721428Y18792046D01*
X-23668638Y18760441D01*
X-23574781Y18675366D01*
X-23510376Y18567308D01*
X-23480237Y18446377D01*
X-23481173Y18366747D01*
X-23514774Y18245478D01*
X-23580180Y18143411D01*
X-23670266Y18065014D01*
X-23777906Y18014753D01*
X-23895974Y17997094D01*
X-24017346Y18016504D01*
X-24031845Y18021556D01*
X-24147603Y18084845D01*
X-24232316Y18175801D01*
X-24283635Y18290964D01*
X-24299334Y18415164D01*
X-24279570Y18545825D01*
X-24222183Y18660204D01*
X-24137454Y18746906D01*
X-24086434Y18780366D01*
X-24032943Y18799869D01*
X-23961305Y18809971D01*
X-23909717Y18813115D01*
X-23826272Y18815117D01*
X-23768866Y18809264D01*
G36*
X-15578741Y16044249D02*
G01*
X-15393020Y16043894D01*
X-15242033Y16043117D01*
X-15121982Y16041767D01*
X-15029069Y16039693D01*
X-14959494Y16036744D01*
X-14909458Y16032768D01*
X-14875163Y16027614D01*
X-14852809Y16021132D01*
X-14838597Y16013169D01*
X-14830531Y16005625D01*
X-14807857Y15977081D01*
X-14794708Y15948018D01*
X-14793225Y15914702D01*
X-14805544Y15873398D01*
X-14833804Y15820371D01*
X-14880143Y15751885D01*
X-14946700Y15664206D01*
X-15035612Y15553598D01*
X-15149019Y15416326D01*
X-15209216Y15344137D01*
X-15622931Y14848809D01*
X-15610417Y13324417D01*
X-15554044Y13217618D01*
X-15463649Y13083897D01*
X-15346667Y12967422D01*
X-15215215Y12879967D01*
X-15197667Y12871330D01*
X-15134080Y12844251D01*
X-15074572Y12827759D01*
X-15004957Y12819416D01*
X-14911050Y12816781D01*
X-14880167Y12816731D01*
X-14780239Y12818288D01*
X-14709018Y12824295D01*
X-14652921Y12837309D01*
X-14598365Y12859889D01*
X-14567236Y12875662D01*
X-14417220Y12976156D01*
X-14300023Y13103281D01*
X-14215509Y13257234D01*
X-14163545Y13438213D01*
X-14157444Y13474970D01*
X-14135983Y13583448D01*
X-14106967Y13655618D01*
X-14066065Y13697381D01*
X-14008947Y13714638D01*
X-13980584Y13716000D01*
X-13908704Y13700589D01*
X-13851148Y13660720D01*
X-13820606Y13605947D01*
X-13818875Y13594292D01*
X-13823246Y13396912D01*
X-13865855Y13208429D01*
X-13942901Y13032776D01*
X-14050579Y12873885D01*
X-14185088Y12735687D01*
X-14342624Y12622117D01*
X-14519386Y12537105D01*
X-14711569Y12484584D01*
X-14907667Y12468387D01*
X-15116292Y12490691D01*
X-15312371Y12553209D01*
X-15494567Y12655334D01*
X-15661542Y12796458D01*
X-15686631Y12822483D01*
X-15742285Y12879807D01*
X-15785166Y12920202D01*
X-15808833Y12937773D01*
X-15811500Y12936754D01*
X-15827253Y12906372D01*
X-15869289Y12857977D01*
X-15929773Y12798618D01*
X-16000873Y12735344D01*
X-16074755Y12675206D01*
X-16143584Y12625252D01*
X-16187099Y12598754D01*
X-16379616Y12519346D01*
X-16584593Y12477332D01*
X-16793267Y12473834D01*
X-16959122Y12500038D01*
X-17152261Y12567037D01*
X-17326493Y12667283D01*
X-17477973Y12796061D01*
X-17602855Y12948655D01*
X-17697294Y13120349D01*
X-17757444Y13306429D01*
X-17779459Y13502179D01*
X-17779483Y13505936D01*
X-17766835Y13607334D01*
X-17728020Y13675776D01*
X-17663280Y13710950D01*
X-17616940Y13716000D01*
X-17543938Y13704328D01*
X-17492512Y13666106D01*
X-17458914Y13596530D01*
X-17439396Y13490792D01*
X-17439092Y13487983D01*
X-17401629Y13317917D01*
X-17329727Y13162177D01*
X-17228013Y13027351D01*
X-17101112Y12920027D01*
X-17002315Y12865907D01*
X-16870595Y12825612D01*
X-16723457Y12809505D01*
X-16577872Y12818189D01*
X-16464438Y12846845D01*
X-16301819Y12929095D01*
X-16168540Y13041027D01*
X-16066684Y13180346D01*
X-15998336Y13344759D01*
X-15992472Y13366115D01*
X-15982791Y13411395D01*
X-15975113Y13467964D01*
X-15969236Y13540718D01*
X-15964959Y13634555D01*
X-15962080Y13754372D01*
X-15960397Y13905066D01*
X-15959710Y14091534D01*
X-15959667Y14163531D01*
X-15959667Y14835001D01*
X-16382566Y15339126D01*
X-16507202Y15488211D01*
X-16606576Y15608942D01*
X-16682947Y15705128D01*
X-16738579Y15780577D01*
X-16775733Y15839100D01*
X-16796671Y15884504D01*
X-16803654Y15920599D01*
X-16798945Y15951195D01*
X-16784805Y15980099D01*
X-16773384Y15997291D01*
X-16740433Y16044334D01*
X-15802998Y16044334D01*
X-15578741Y16044249D01*
G37*
X-15578741Y16044249D02*
X-15393020Y16043894D01*
X-15242033Y16043117D01*
X-15121982Y16041767D01*
X-15029069Y16039693D01*
X-14959494Y16036744D01*
X-14909458Y16032768D01*
X-14875163Y16027614D01*
X-14852809Y16021132D01*
X-14838597Y16013169D01*
X-14830531Y16005625D01*
X-14807857Y15977081D01*
X-14794708Y15948018D01*
X-14793225Y15914702D01*
X-14805544Y15873398D01*
X-14833804Y15820371D01*
X-14880143Y15751885D01*
X-14946700Y15664206D01*
X-15035612Y15553598D01*
X-15149019Y15416326D01*
X-15209216Y15344137D01*
X-15622931Y14848809D01*
X-15610417Y13324417D01*
X-15554044Y13217618D01*
X-15463649Y13083897D01*
X-15346667Y12967422D01*
X-15215215Y12879967D01*
X-15197667Y12871330D01*
X-15134080Y12844251D01*
X-15074572Y12827759D01*
X-15004957Y12819416D01*
X-14911050Y12816781D01*
X-14880167Y12816731D01*
X-14780239Y12818288D01*
X-14709018Y12824295D01*
X-14652921Y12837309D01*
X-14598365Y12859889D01*
X-14567236Y12875662D01*
X-14417220Y12976156D01*
X-14300023Y13103281D01*
X-14215509Y13257234D01*
X-14163545Y13438213D01*
X-14157444Y13474970D01*
X-14135983Y13583448D01*
X-14106967Y13655618D01*
X-14066065Y13697381D01*
X-14008947Y13714638D01*
X-13980584Y13716000D01*
X-13908704Y13700589D01*
X-13851148Y13660720D01*
X-13820606Y13605947D01*
X-13818875Y13594292D01*
X-13823246Y13396912D01*
X-13865855Y13208429D01*
X-13942901Y13032776D01*
X-14050579Y12873885D01*
X-14185088Y12735687D01*
X-14342624Y12622117D01*
X-14519386Y12537105D01*
X-14711569Y12484584D01*
X-14907667Y12468387D01*
X-15116292Y12490691D01*
X-15312371Y12553209D01*
X-15494567Y12655334D01*
X-15661542Y12796458D01*
X-15686631Y12822483D01*
X-15742285Y12879807D01*
X-15785166Y12920202D01*
X-15808833Y12937773D01*
X-15811500Y12936754D01*
X-15827253Y12906372D01*
X-15869289Y12857977D01*
X-15929773Y12798618D01*
X-16000873Y12735344D01*
X-16074755Y12675206D01*
X-16143584Y12625252D01*
X-16187099Y12598754D01*
X-16379616Y12519346D01*
X-16584593Y12477332D01*
X-16793267Y12473834D01*
X-16959122Y12500038D01*
X-17152261Y12567037D01*
X-17326493Y12667283D01*
X-17477973Y12796061D01*
X-17602855Y12948655D01*
X-17697294Y13120349D01*
X-17757444Y13306429D01*
X-17779459Y13502179D01*
X-17779483Y13505936D01*
X-17766835Y13607334D01*
X-17728020Y13675776D01*
X-17663280Y13710950D01*
X-17616940Y13716000D01*
X-17543938Y13704328D01*
X-17492512Y13666106D01*
X-17458914Y13596530D01*
X-17439396Y13490792D01*
X-17439092Y13487983D01*
X-17401629Y13317917D01*
X-17329727Y13162177D01*
X-17228013Y13027351D01*
X-17101112Y12920027D01*
X-17002315Y12865907D01*
X-16870595Y12825612D01*
X-16723457Y12809505D01*
X-16577872Y12818189D01*
X-16464438Y12846845D01*
X-16301819Y12929095D01*
X-16168540Y13041027D01*
X-16066684Y13180346D01*
X-15998336Y13344759D01*
X-15992472Y13366115D01*
X-15982791Y13411395D01*
X-15975113Y13467964D01*
X-15969236Y13540718D01*
X-15964959Y13634555D01*
X-15962080Y13754372D01*
X-15960397Y13905066D01*
X-15959710Y14091534D01*
X-15959667Y14163531D01*
X-15959667Y14835001D01*
X-16382566Y15339126D01*
X-16507202Y15488211D01*
X-16606576Y15608942D01*
X-16682947Y15705128D01*
X-16738579Y15780577D01*
X-16775733Y15839100D01*
X-16796671Y15884504D01*
X-16803654Y15920599D01*
X-16798945Y15951195D01*
X-16784805Y15980099D01*
X-16773384Y15997291D01*
X-16740433Y16044334D01*
X-15802998Y16044334D01*
X-15578741Y16044249D01*
G36*
X-24357858Y23673477D02*
G01*
X-23325720Y23604786D01*
X-22298650Y23495083D01*
X-21277958Y23344479D01*
X-20264956Y23153083D01*
X-19260955Y22921007D01*
X-18267266Y22648359D01*
X-17420167Y22380922D01*
X-16880417Y22199977D01*
X-16541750Y22246674D01*
X-16315858Y22275348D01*
X-16113418Y22294880D01*
X-15924565Y22305183D01*
X-15739436Y22306173D01*
X-15548166Y22297763D01*
X-15340890Y22279869D01*
X-15107744Y22252405D01*
X-14963639Y22233013D01*
X-14719028Y22198996D01*
X-14243972Y22359027D01*
X-13380958Y22633778D01*
X-12520114Y22875345D01*
X-11656172Y23084737D01*
X-10783864Y23262962D01*
X-9897923Y23411028D01*
X-8993080Y23529944D01*
X-8064068Y23620718D01*
X-7408334Y23667341D01*
X-7263895Y23674328D01*
X-7083944Y23680153D01*
X-6875006Y23684815D01*
X-6643604Y23688313D01*
X-6396265Y23690646D01*
X-6139513Y23691812D01*
X-5879873Y23691811D01*
X-5623870Y23690642D01*
X-5378029Y23688304D01*
X-5148875Y23684796D01*
X-4942932Y23680116D01*
X-4766726Y23674263D01*
X-4635500Y23667782D01*
X-4009768Y23624055D01*
X-3418233Y23571458D01*
X-2853516Y23509086D01*
X-2308238Y23436035D01*
X-1775019Y23351404D01*
X-1246480Y23254287D01*
X-1226521Y23250364D01*
X-964487Y23197388D01*
X-723279Y23145918D01*
X-505572Y23096652D01*
X-314044Y23050288D01*
X-151372Y23007524D01*
X-20231Y22969056D01*
X76700Y22935585D01*
X136746Y22907806D01*
X156581Y22889769D01*
X159045Y22862702D01*
X161351Y22797403D01*
X163455Y22697974D01*
X165310Y22568514D01*
X166868Y22413126D01*
X168085Y22235910D01*
X168913Y22040968D01*
X169306Y21832401D01*
X169333Y21761648D01*
X169103Y21504490D01*
X168371Y21286863D01*
X167071Y21105968D01*
X165136Y20959004D01*
X162501Y20843171D01*
X159101Y20755670D01*
X154870Y20693701D01*
X149741Y20654464D01*
X143650Y20635159D01*
X142875Y20634077D01*
X110517Y20614897D01*
X48325Y20593232D01*
X-31701Y20573082D01*
X-52917Y20568783D01*
X-281465Y20509849D01*
X-477810Y20427712D01*
X-640752Y20323249D01*
X-769091Y20197338D01*
X-861624Y20050858D01*
X-900888Y19948769D01*
X-915365Y19877721D01*
X-925996Y19780820D01*
X-931112Y19674491D01*
X-931334Y19648972D01*
X-938247Y19450229D01*
X-958394Y19216522D01*
X-990881Y18952797D01*
X-1034818Y18663998D01*
X-1089311Y18355070D01*
X-1153471Y18030957D01*
X-1226403Y17696604D01*
X-1307218Y17356955D01*
X-1395022Y17016955D01*
X-1427628Y16897383D01*
X-1583996Y16395660D01*
X-1769428Y15913791D01*
X-1982411Y15453932D01*
X-2221434Y15018241D01*
X-2484984Y14608874D01*
X-2771549Y14227988D01*
X-3079615Y13877739D01*
X-3407672Y13560285D01*
X-3754206Y13277782D01*
X-4117705Y13032386D01*
X-4152869Y13011198D01*
X-4443443Y12851674D01*
X-4742410Y12715701D01*
X-5053931Y12602333D01*
X-5382168Y12510622D01*
X-5731282Y12439623D01*
X-6105436Y12388388D01*
X-6508791Y12355972D01*
X-6945510Y12341428D01*
X-7102478Y12340386D01*
X-7663859Y12353526D01*
X-8200057Y12394120D01*
X-8718899Y12463118D01*
X-9228214Y12561471D01*
X-9535584Y12635772D01*
X-9867942Y12728300D01*
X-10171691Y12826817D01*
X-10460547Y12936519D01*
X-10748226Y13062606D01*
X-11039530Y13205689D01*
X-11379870Y13392511D01*
X-11688750Y13588667D01*
X-11977018Y13802067D01*
X-12255525Y14040619D01*
X-12478065Y14254355D01*
X-12685830Y14474581D01*
X-12879640Y14705299D01*
X-13063545Y14952391D01*
X-13241596Y15221737D01*
X-13417841Y15519219D01*
X-13596330Y15850719D01*
X-13650892Y15957627D01*
X-13762373Y16183191D01*
X-13868288Y16407721D01*
X-13970518Y16635999D01*
X-14070946Y16872803D01*
X-14171457Y17122914D01*
X-14273932Y17391113D01*
X-14380255Y17682180D01*
X-14492308Y18000895D01*
X-14611976Y18352038D01*
X-14710595Y18647834D01*
X-14773789Y18837367D01*
X-14835240Y19018780D01*
X-14893219Y19187167D01*
X-14945993Y19337619D01*
X-14977692Y19425870D01*
X-13609323Y19425870D01*
X-13589897Y19081290D01*
X-13550123Y18706776D01*
X-13535076Y18594917D01*
X-13450536Y18098949D01*
X-13338680Y17615601D01*
X-13200950Y17148119D01*
X-13038791Y16699744D01*
X-12853645Y16273721D01*
X-12646956Y15873293D01*
X-12420167Y15501703D01*
X-12174721Y15162195D01*
X-11912062Y14858013D01*
X-11838800Y14782781D01*
X-11609766Y14572304D01*
X-11350919Y14369842D01*
X-11058720Y14172930D01*
X-10729635Y13979106D01*
X-10535904Y13875148D01*
X-10097267Y13665709D01*
X-9646986Y13488724D01*
X-9180489Y13342885D01*
X-8693204Y13226890D01*
X-8180561Y13139432D01*
X-7799917Y13094068D01*
X-7719714Y13089252D01*
X-7604877Y13086692D01*
X-7463036Y13086194D01*
X-7301820Y13087565D01*
X-7128859Y13090613D01*
X-6951781Y13095142D01*
X-6778215Y13100962D01*
X-6615791Y13107878D01*
X-6472138Y13115696D01*
X-6354885Y13124225D01*
X-6275917Y13132666D01*
X-5844280Y13204210D01*
X-5451014Y13293635D01*
X-5096117Y13400942D01*
X-4779589Y13526131D01*
X-4501427Y13669201D01*
X-4498780Y13670758D01*
X-4174794Y13885843D01*
X-3871577Y14136929D01*
X-3589872Y14422718D01*
X-3330424Y14741911D01*
X-3093975Y15093212D01*
X-2881270Y15475322D01*
X-2693053Y15886945D01*
X-2530067Y16326782D01*
X-2393055Y16793536D01*
X-2282763Y17285910D01*
X-2222255Y17642417D01*
X-2167641Y18095768D01*
X-2133446Y18577279D01*
X-2119767Y19077974D01*
X-2126701Y19588876D01*
X-2154344Y20101010D01*
X-2191523Y20506397D01*
X-2218092Y20690675D01*
X-2256502Y20845563D01*
X-2311423Y20983391D01*
X-2387524Y21116490D01*
X-2462614Y21222354D01*
X-2653449Y21439697D01*
X-2881072Y21637107D01*
X-3144793Y21814340D01*
X-3443923Y21971151D01*
X-3777773Y22107294D01*
X-4145655Y22222527D01*
X-4546878Y22316603D01*
X-4980754Y22389279D01*
X-5446594Y22440310D01*
X-5943709Y22469451D01*
X-5979584Y22470662D01*
X-6181201Y22474572D01*
X-6418384Y22474783D01*
X-6684550Y22471560D01*
X-6973116Y22465167D01*
X-7277500Y22455869D01*
X-7591120Y22443930D01*
X-7907393Y22429616D01*
X-8219738Y22413190D01*
X-8521571Y22394918D01*
X-8806311Y22375063D01*
X-9067376Y22353891D01*
X-9207500Y22340902D01*
X-9751857Y22280171D01*
X-10256284Y22208222D01*
X-10721781Y22124655D01*
X-11149347Y22029068D01*
X-11539979Y21921061D01*
X-11894678Y21800233D01*
X-12214441Y21666182D01*
X-12500268Y21518508D01*
X-12753158Y21356809D01*
X-12974109Y21180686D01*
X-13164121Y20989736D01*
X-13324191Y20783559D01*
X-13403995Y20656342D01*
X-13485126Y20480041D01*
X-13546303Y20267602D01*
X-13587447Y20020267D01*
X-13608481Y19739276D01*
X-13609323Y19425870D01*
X-14977692Y19425870D01*
X-14991831Y19465231D01*
X-15029003Y19565097D01*
X-15055777Y19632309D01*
X-15065451Y19653595D01*
X-15127253Y19752186D01*
X-15209739Y19851545D01*
X-15300990Y19939060D01*
X-15389090Y20002119D01*
X-15400715Y20008391D01*
X-15577298Y20077309D01*
X-15755588Y20106521D01*
X-15930575Y20097747D01*
X-16097250Y20052704D01*
X-16250602Y19973112D01*
X-16385624Y19860690D01*
X-16497304Y19717156D01*
X-16552699Y19613137D01*
X-16574452Y19559367D01*
X-16606816Y19471807D01*
X-16647515Y19356990D01*
X-16694270Y19221449D01*
X-16744805Y19071717D01*
X-16796840Y18914326D01*
X-16804376Y18891250D01*
X-16963725Y18410287D01*
X-17115850Y17967561D01*
X-17262110Y17559854D01*
X-17403863Y17183951D01*
X-17542469Y16836633D01*
X-17679285Y16514683D01*
X-17815670Y16214885D01*
X-17952984Y15934021D01*
X-18092583Y15668873D01*
X-18235828Y15416226D01*
X-18354965Y15219331D01*
X-18625677Y14823826D01*
X-18927948Y14455912D01*
X-19260872Y14116008D01*
X-19623545Y13804535D01*
X-20015062Y13521914D01*
X-20434516Y13268566D01*
X-20881003Y13044911D01*
X-21353618Y12851370D01*
X-21851454Y12688364D01*
X-22373608Y12556312D01*
X-22919172Y12455637D01*
X-23487244Y12386759D01*
X-24076916Y12350097D01*
X-24542750Y12344069D01*
X-24689121Y12345465D01*
X-24827528Y12347296D01*
X-24950225Y12349419D01*
X-25049462Y12351693D01*
X-25117494Y12353975D01*
X-25135417Y12354936D01*
X-25565602Y12395837D01*
X-25964102Y12458968D01*
X-26335994Y12545568D01*
X-26686356Y12656877D01*
X-27020267Y12794134D01*
X-27111000Y12837139D01*
X-27422477Y13002130D01*
X-27709038Y13182611D01*
X-27981483Y13386213D01*
X-28250617Y13620567D01*
X-28339599Y13705037D01*
X-28688225Y14071712D01*
X-29009060Y14470035D01*
X-29301714Y14899387D01*
X-29565799Y15359150D01*
X-29800927Y15848704D01*
X-30000894Y16351250D01*
X-30065692Y16544237D01*
X-30134089Y16771913D01*
X-30204413Y17026964D01*
X-30274994Y17302075D01*
X-30344161Y17589933D01*
X-30410245Y17883221D01*
X-30471575Y18174627D01*
X-30526480Y18456834D01*
X-30573291Y18722529D01*
X-30610336Y18964397D01*
X-30626861Y19092334D01*
X-30636467Y19186183D01*
X-29477732Y19186183D01*
X-29470937Y18716830D01*
X-29443856Y18258517D01*
X-29410281Y17917584D01*
X-29334655Y17396517D01*
X-29230699Y16898662D01*
X-29099126Y16425412D01*
X-28940647Y15978159D01*
X-28755973Y15558296D01*
X-28545815Y15167215D01*
X-28310884Y14806308D01*
X-28051893Y14476967D01*
X-27769552Y14180586D01*
X-27464573Y13918555D01*
X-27308694Y13804239D01*
X-27033886Y13636201D01*
X-26724555Y13489131D01*
X-26383321Y13363684D01*
X-26012802Y13260517D01*
X-25615619Y13180286D01*
X-25194390Y13123647D01*
X-24751735Y13091255D01*
X-24429976Y13083356D01*
X-24274955Y13083783D01*
X-24114850Y13086387D01*
X-23961471Y13090823D01*
X-23826628Y13096751D01*
X-23722130Y13103826D01*
X-23720893Y13103936D01*
X-23172845Y13173683D01*
X-22635105Y13284125D01*
X-22109440Y13434643D01*
X-21597619Y13624617D01*
X-21101407Y13853430D01*
X-20622573Y14120462D01*
X-20383500Y14272578D01*
X-20056419Y14513660D01*
X-19752896Y14787019D01*
X-19472273Y15093523D01*
X-19213896Y15434042D01*
X-18977107Y15809442D01*
X-18761251Y16220594D01*
X-18565671Y16668365D01*
X-18557128Y16689917D01*
X-18362112Y17237563D01*
X-18209002Y17786801D01*
X-18097373Y18339700D01*
X-18026800Y18898327D01*
X-17997914Y19412839D01*
X-17994320Y19641688D01*
X-17995875Y19834824D01*
X-18003509Y19998657D01*
X-18018150Y20139595D01*
X-18040724Y20264049D01*
X-18072160Y20378427D01*
X-18113387Y20489140D01*
X-18165331Y20602597D01*
X-18172151Y20616344D01*
X-18308324Y20842066D01*
X-18484006Y21053491D01*
X-18698754Y21250323D01*
X-18952127Y21432264D01*
X-19243681Y21599017D01*
X-19572974Y21750287D01*
X-19939565Y21885776D01*
X-20171834Y21957805D01*
X-20536843Y22053226D01*
X-20941142Y22139281D01*
X-21382689Y22215762D01*
X-21859444Y22282463D01*
X-22369364Y22339175D01*
X-22910409Y22385690D01*
X-23480538Y22421802D01*
X-24077709Y22447303D01*
X-24699882Y22461985D01*
X-25167167Y22465750D01*
X-25431587Y22465476D01*
X-25660413Y22463371D01*
X-25860361Y22458982D01*
X-26038149Y22451857D01*
X-26200492Y22441544D01*
X-26354107Y22427590D01*
X-26505712Y22409543D01*
X-26662022Y22386952D01*
X-26829754Y22359363D01*
X-26881667Y22350332D01*
X-27264543Y22270507D01*
X-27622695Y22170437D01*
X-27954138Y22051263D01*
X-28256890Y21914127D01*
X-28528968Y21760171D01*
X-28768388Y21590536D01*
X-28973167Y21406363D01*
X-29141322Y21208795D01*
X-29270870Y20998973D01*
X-29287293Y20965584D01*
X-29317667Y20898152D01*
X-29342200Y20833174D01*
X-29362146Y20763906D01*
X-29378756Y20683603D01*
X-29393285Y20585520D01*
X-29406983Y20462914D01*
X-29421104Y20309040D01*
X-29430781Y20193000D01*
X-29464321Y19675323D01*
X-29477732Y19186183D01*
X-30636467Y19186183D01*
X-30636754Y19188986D01*
X-30647265Y19313530D01*
X-30657287Y19451562D01*
X-30665716Y19588675D01*
X-30667504Y19622264D01*
X-30674321Y19748228D01*
X-30680969Y19840780D01*
X-30689136Y19908797D01*
X-30700509Y19961159D01*
X-30716775Y20006744D01*
X-30739620Y20054433D01*
X-30755261Y20084140D01*
X-30853430Y20227715D01*
X-30982834Y20347324D01*
X-31145125Y20444028D01*
X-31341952Y20518888D01*
X-31489671Y20556439D01*
X-31580349Y20575950D01*
X-31656680Y20592635D01*
X-31708352Y20604226D01*
X-31723542Y20607876D01*
X-31729532Y20617983D01*
X-31734610Y20646658D01*
X-31738840Y20696653D01*
X-31742285Y20770722D01*
X-31745007Y20871619D01*
X-31747069Y21002098D01*
X-31748534Y21164913D01*
X-31749465Y21362817D01*
X-31749925Y21598564D01*
X-31750001Y21767751D01*
X-31750000Y22920497D01*
X-31632945Y22954526D01*
X-31429219Y23010438D01*
X-31192184Y23069862D01*
X-30930524Y23130949D01*
X-30652923Y23191851D01*
X-30368065Y23250722D01*
X-30084634Y23305715D01*
X-29811314Y23354981D01*
X-29556790Y23396673D01*
X-29548667Y23397921D01*
X-28510860Y23535934D01*
X-27471564Y23632386D01*
X-26432091Y23687388D01*
X-25393752Y23701048D01*
X-24357858Y23673477D01*
G37*
X-24357858Y23673477D02*
X-23325720Y23604786D01*
X-22298650Y23495083D01*
X-21277958Y23344479D01*
X-20264956Y23153083D01*
X-19260955Y22921007D01*
X-18267266Y22648359D01*
X-17420167Y22380922D01*
X-16880417Y22199977D01*
X-16541750Y22246674D01*
X-16315858Y22275348D01*
X-16113418Y22294880D01*
X-15924565Y22305183D01*
X-15739436Y22306173D01*
X-15548166Y22297763D01*
X-15340890Y22279869D01*
X-15107744Y22252405D01*
X-14963639Y22233013D01*
X-14719028Y22198996D01*
X-14243972Y22359027D01*
X-13380958Y22633778D01*
X-12520114Y22875345D01*
X-11656172Y23084737D01*
X-10783864Y23262962D01*
X-9897923Y23411028D01*
X-8993080Y23529944D01*
X-8064068Y23620718D01*
X-7408334Y23667341D01*
X-7263895Y23674328D01*
X-7083944Y23680153D01*
X-6875006Y23684815D01*
X-6643604Y23688313D01*
X-6396265Y23690646D01*
X-6139513Y23691812D01*
X-5879873Y23691811D01*
X-5623870Y23690642D01*
X-5378029Y23688304D01*
X-5148875Y23684796D01*
X-4942932Y23680116D01*
X-4766726Y23674263D01*
X-4635500Y23667782D01*
X-4009768Y23624055D01*
X-3418233Y23571458D01*
X-2853516Y23509086D01*
X-2308238Y23436035D01*
X-1775019Y23351404D01*
X-1246480Y23254287D01*
X-1226521Y23250364D01*
X-964487Y23197388D01*
X-723279Y23145918D01*
X-505572Y23096652D01*
X-314044Y23050288D01*
X-151372Y23007524D01*
X-20231Y22969056D01*
X76700Y22935585D01*
X136746Y22907806D01*
X156581Y22889769D01*
X159045Y22862702D01*
X161351Y22797403D01*
X163455Y22697974D01*
X165310Y22568514D01*
X166868Y22413126D01*
X168085Y22235910D01*
X168913Y22040968D01*
X169306Y21832401D01*
X169333Y21761648D01*
X169103Y21504490D01*
X168371Y21286863D01*
X167071Y21105968D01*
X165136Y20959004D01*
X162501Y20843171D01*
X159101Y20755670D01*
X154870Y20693701D01*
X149741Y20654464D01*
X143650Y20635159D01*
X142875Y20634077D01*
X110517Y20614897D01*
X48325Y20593232D01*
X-31701Y20573082D01*
X-52917Y20568783D01*
X-281465Y20509849D01*
X-477810Y20427712D01*
X-640752Y20323249D01*
X-769091Y20197338D01*
X-861624Y20050858D01*
X-900888Y19948769D01*
X-915365Y19877721D01*
X-925996Y19780820D01*
X-931112Y19674491D01*
X-931334Y19648972D01*
X-938247Y19450229D01*
X-958394Y19216522D01*
X-990881Y18952797D01*
X-1034818Y18663998D01*
X-1089311Y18355070D01*
X-1153471Y18030957D01*
X-1226403Y17696604D01*
X-1307218Y17356955D01*
X-1395022Y17016955D01*
X-1427628Y16897383D01*
X-1583996Y16395660D01*
X-1769428Y15913791D01*
X-1982411Y15453932D01*
X-2221434Y15018241D01*
X-2484984Y14608874D01*
X-2771549Y14227988D01*
X-3079615Y13877739D01*
X-3407672Y13560285D01*
X-3754206Y13277782D01*
X-4117705Y13032386D01*
X-4152869Y13011198D01*
X-4443443Y12851674D01*
X-4742410Y12715701D01*
X-5053931Y12602333D01*
X-5382168Y12510622D01*
X-5731282Y12439623D01*
X-6105436Y12388388D01*
X-6508791Y12355972D01*
X-6945510Y12341428D01*
X-7102478Y12340386D01*
X-7663859Y12353526D01*
X-8200057Y12394120D01*
X-8718899Y12463118D01*
X-9228214Y12561471D01*
X-9535584Y12635772D01*
X-9867942Y12728300D01*
X-10171691Y12826817D01*
X-10460547Y12936519D01*
X-10748226Y13062606D01*
X-11039530Y13205689D01*
X-11379870Y13392511D01*
X-11688750Y13588667D01*
X-11977018Y13802067D01*
X-12255525Y14040619D01*
X-12478065Y14254355D01*
X-12685830Y14474581D01*
X-12879640Y14705299D01*
X-13063545Y14952391D01*
X-13241596Y15221737D01*
X-13417841Y15519219D01*
X-13596330Y15850719D01*
X-13650892Y15957627D01*
X-13762373Y16183191D01*
X-13868288Y16407721D01*
X-13970518Y16635999D01*
X-14070946Y16872803D01*
X-14171457Y17122914D01*
X-14273932Y17391113D01*
X-14380255Y17682180D01*
X-14492308Y18000895D01*
X-14611976Y18352038D01*
X-14710595Y18647834D01*
X-14773789Y18837367D01*
X-14835240Y19018780D01*
X-14893219Y19187167D01*
X-14945993Y19337619D01*
X-14977692Y19425870D01*
X-13609323Y19425870D01*
X-13589897Y19081290D01*
X-13550123Y18706776D01*
X-13535076Y18594917D01*
X-13450536Y18098949D01*
X-13338680Y17615601D01*
X-13200950Y17148119D01*
X-13038791Y16699744D01*
X-12853645Y16273721D01*
X-12646956Y15873293D01*
X-12420167Y15501703D01*
X-12174721Y15162195D01*
X-11912062Y14858013D01*
X-11838800Y14782781D01*
X-11609766Y14572304D01*
X-11350919Y14369842D01*
X-11058720Y14172930D01*
X-10729635Y13979106D01*
X-10535904Y13875148D01*
X-10097267Y13665709D01*
X-9646986Y13488724D01*
X-9180489Y13342885D01*
X-8693204Y13226890D01*
X-8180561Y13139432D01*
X-7799917Y13094068D01*
X-7719714Y13089252D01*
X-7604877Y13086692D01*
X-7463036Y13086194D01*
X-7301820Y13087565D01*
X-7128859Y13090613D01*
X-6951781Y13095142D01*
X-6778215Y13100962D01*
X-6615791Y13107878D01*
X-6472138Y13115696D01*
X-6354885Y13124225D01*
X-6275917Y13132666D01*
X-5844280Y13204210D01*
X-5451014Y13293635D01*
X-5096117Y13400942D01*
X-4779589Y13526131D01*
X-4501427Y13669201D01*
X-4498780Y13670758D01*
X-4174794Y13885843D01*
X-3871577Y14136929D01*
X-3589872Y14422718D01*
X-3330424Y14741911D01*
X-3093975Y15093212D01*
X-2881270Y15475322D01*
X-2693053Y15886945D01*
X-2530067Y16326782D01*
X-2393055Y16793536D01*
X-2282763Y17285910D01*
X-2222255Y17642417D01*
X-2167641Y18095768D01*
X-2133446Y18577279D01*
X-2119767Y19077974D01*
X-2126701Y19588876D01*
X-2154344Y20101010D01*
X-2191523Y20506397D01*
X-2218092Y20690675D01*
X-2256502Y20845563D01*
X-2311423Y20983391D01*
X-2387524Y21116490D01*
X-2462614Y21222354D01*
X-2653449Y21439697D01*
X-2881072Y21637107D01*
X-3144793Y21814340D01*
X-3443923Y21971151D01*
X-3777773Y22107294D01*
X-4145655Y22222527D01*
X-4546878Y22316603D01*
X-4980754Y22389279D01*
X-5446594Y22440310D01*
X-5943709Y22469451D01*
X-5979584Y22470662D01*
X-6181201Y22474572D01*
X-6418384Y22474783D01*
X-6684550Y22471560D01*
X-6973116Y22465167D01*
X-7277500Y22455869D01*
X-7591120Y22443930D01*
X-7907393Y22429616D01*
X-8219738Y22413190D01*
X-8521571Y22394918D01*
X-8806311Y22375063D01*
X-9067376Y22353891D01*
X-9207500Y22340902D01*
X-9751857Y22280171D01*
X-10256284Y22208222D01*
X-10721781Y22124655D01*
X-11149347Y22029068D01*
X-11539979Y21921061D01*
X-11894678Y21800233D01*
X-12214441Y21666182D01*
X-12500268Y21518508D01*
X-12753158Y21356809D01*
X-12974109Y21180686D01*
X-13164121Y20989736D01*
X-13324191Y20783559D01*
X-13403995Y20656342D01*
X-13485126Y20480041D01*
X-13546303Y20267602D01*
X-13587447Y20020267D01*
X-13608481Y19739276D01*
X-13609323Y19425870D01*
X-14977692Y19425870D01*
X-14991831Y19465231D01*
X-15029003Y19565097D01*
X-15055777Y19632309D01*
X-15065451Y19653595D01*
X-15127253Y19752186D01*
X-15209739Y19851545D01*
X-15300990Y19939060D01*
X-15389090Y20002119D01*
X-15400715Y20008391D01*
X-15577298Y20077309D01*
X-15755588Y20106521D01*
X-15930575Y20097747D01*
X-16097250Y20052704D01*
X-16250602Y19973112D01*
X-16385624Y19860690D01*
X-16497304Y19717156D01*
X-16552699Y19613137D01*
X-16574452Y19559367D01*
X-16606816Y19471807D01*
X-16647515Y19356990D01*
X-16694270Y19221449D01*
X-16744805Y19071717D01*
X-16796840Y18914326D01*
X-16804376Y18891250D01*
X-16963725Y18410287D01*
X-17115850Y17967561D01*
X-17262110Y17559854D01*
X-17403863Y17183951D01*
X-17542469Y16836633D01*
X-17679285Y16514683D01*
X-17815670Y16214885D01*
X-17952984Y15934021D01*
X-18092583Y15668873D01*
X-18235828Y15416226D01*
X-18354965Y15219331D01*
X-18625677Y14823826D01*
X-18927948Y14455912D01*
X-19260872Y14116008D01*
X-19623545Y13804535D01*
X-20015062Y13521914D01*
X-20434516Y13268566D01*
X-20881003Y13044911D01*
X-21353618Y12851370D01*
X-21851454Y12688364D01*
X-22373608Y12556312D01*
X-22919172Y12455637D01*
X-23487244Y12386759D01*
X-24076916Y12350097D01*
X-24542750Y12344069D01*
X-24689121Y12345465D01*
X-24827528Y12347296D01*
X-24950225Y12349419D01*
X-25049462Y12351693D01*
X-25117494Y12353975D01*
X-25135417Y12354936D01*
X-25565602Y12395837D01*
X-25964102Y12458968D01*
X-26335994Y12545568D01*
X-26686356Y12656877D01*
X-27020267Y12794134D01*
X-27111000Y12837139D01*
X-27422477Y13002130D01*
X-27709038Y13182611D01*
X-27981483Y13386213D01*
X-28250617Y13620567D01*
X-28339599Y13705037D01*
X-28688225Y14071712D01*
X-29009060Y14470035D01*
X-29301714Y14899387D01*
X-29565799Y15359150D01*
X-29800927Y15848704D01*
X-30000894Y16351250D01*
X-30065692Y16544237D01*
X-30134089Y16771913D01*
X-30204413Y17026964D01*
X-30274994Y17302075D01*
X-30344161Y17589933D01*
X-30410245Y17883221D01*
X-30471575Y18174627D01*
X-30526480Y18456834D01*
X-30573291Y18722529D01*
X-30610336Y18964397D01*
X-30626861Y19092334D01*
X-30636467Y19186183D01*
X-29477732Y19186183D01*
X-29470937Y18716830D01*
X-29443856Y18258517D01*
X-29410281Y17917584D01*
X-29334655Y17396517D01*
X-29230699Y16898662D01*
X-29099126Y16425412D01*
X-28940647Y15978159D01*
X-28755973Y15558296D01*
X-28545815Y15167215D01*
X-28310884Y14806308D01*
X-28051893Y14476967D01*
X-27769552Y14180586D01*
X-27464573Y13918555D01*
X-27308694Y13804239D01*
X-27033886Y13636201D01*
X-26724555Y13489131D01*
X-26383321Y13363684D01*
X-26012802Y13260517D01*
X-25615619Y13180286D01*
X-25194390Y13123647D01*
X-24751735Y13091255D01*
X-24429976Y13083356D01*
X-24274955Y13083783D01*
X-24114850Y13086387D01*
X-23961471Y13090823D01*
X-23826628Y13096751D01*
X-23722130Y13103826D01*
X-23720893Y13103936D01*
X-23172845Y13173683D01*
X-22635105Y13284125D01*
X-22109440Y13434643D01*
X-21597619Y13624617D01*
X-21101407Y13853430D01*
X-20622573Y14120462D01*
X-20383500Y14272578D01*
X-20056419Y14513660D01*
X-19752896Y14787019D01*
X-19472273Y15093523D01*
X-19213896Y15434042D01*
X-18977107Y15809442D01*
X-18761251Y16220594D01*
X-18565671Y16668365D01*
X-18557128Y16689917D01*
X-18362112Y17237563D01*
X-18209002Y17786801D01*
X-18097373Y18339700D01*
X-18026800Y18898327D01*
X-17997914Y19412839D01*
X-17994320Y19641688D01*
X-17995875Y19834824D01*
X-18003509Y19998657D01*
X-18018150Y20139595D01*
X-18040724Y20264049D01*
X-18072160Y20378427D01*
X-18113387Y20489140D01*
X-18165331Y20602597D01*
X-18172151Y20616344D01*
X-18308324Y20842066D01*
X-18484006Y21053491D01*
X-18698754Y21250323D01*
X-18952127Y21432264D01*
X-19243681Y21599017D01*
X-19572974Y21750287D01*
X-19939565Y21885776D01*
X-20171834Y21957805D01*
X-20536843Y22053226D01*
X-20941142Y22139281D01*
X-21382689Y22215762D01*
X-21859444Y22282463D01*
X-22369364Y22339175D01*
X-22910409Y22385690D01*
X-23480538Y22421802D01*
X-24077709Y22447303D01*
X-24699882Y22461985D01*
X-25167167Y22465750D01*
X-25431587Y22465476D01*
X-25660413Y22463371D01*
X-25860361Y22458982D01*
X-26038149Y22451857D01*
X-26200492Y22441544D01*
X-26354107Y22427590D01*
X-26505712Y22409543D01*
X-26662022Y22386952D01*
X-26829754Y22359363D01*
X-26881667Y22350332D01*
X-27264543Y22270507D01*
X-27622695Y22170437D01*
X-27954138Y22051263D01*
X-28256890Y21914127D01*
X-28528968Y21760171D01*
X-28768388Y21590536D01*
X-28973167Y21406363D01*
X-29141322Y21208795D01*
X-29270870Y20998973D01*
X-29287293Y20965584D01*
X-29317667Y20898152D01*
X-29342200Y20833174D01*
X-29362146Y20763906D01*
X-29378756Y20683603D01*
X-29393285Y20585520D01*
X-29406983Y20462914D01*
X-29421104Y20309040D01*
X-29430781Y20193000D01*
X-29464321Y19675323D01*
X-29477732Y19186183D01*
X-30636467Y19186183D01*
X-30636754Y19188986D01*
X-30647265Y19313530D01*
X-30657287Y19451562D01*
X-30665716Y19588675D01*
X-30667504Y19622264D01*
X-30674321Y19748228D01*
X-30680969Y19840780D01*
X-30689136Y19908797D01*
X-30700509Y19961159D01*
X-30716775Y20006744D01*
X-30739620Y20054433D01*
X-30755261Y20084140D01*
X-30853430Y20227715D01*
X-30982834Y20347324D01*
X-31145125Y20444028D01*
X-31341952Y20518888D01*
X-31489671Y20556439D01*
X-31580349Y20575950D01*
X-31656680Y20592635D01*
X-31708352Y20604226D01*
X-31723542Y20607876D01*
X-31729532Y20617983D01*
X-31734610Y20646658D01*
X-31738840Y20696653D01*
X-31742285Y20770722D01*
X-31745007Y20871619D01*
X-31747069Y21002098D01*
X-31748534Y21164913D01*
X-31749465Y21362817D01*
X-31749925Y21598564D01*
X-31750001Y21767751D01*
X-31750000Y22920497D01*
X-31632945Y22954526D01*
X-31429219Y23010438D01*
X-31192184Y23069862D01*
X-30930524Y23130949D01*
X-30652923Y23191851D01*
X-30368065Y23250722D01*
X-30084634Y23305715D01*
X-29811314Y23354981D01*
X-29556790Y23396673D01*
X-29548667Y23397921D01*
X-28510860Y23535934D01*
X-27471564Y23632386D01*
X-26432091Y23687388D01*
X-25393752Y23701048D01*
X-24357858Y23673477D01*
G36*
X-10158159Y8629896D02*
G01*
X-10140781Y8613282D01*
X-10113619Y8582524D01*
X-10074553Y8534928D01*
X-10021462Y8467803D01*
X-9952225Y8378454D01*
X-9864721Y8264188D01*
X-9756829Y8122313D01*
X-9626428Y7950135D01*
X-9576868Y7884584D01*
X-8979311Y7076424D01*
X-8418710Y6282151D01*
X-7895208Y5502041D01*
X-7408945Y4736365D01*
X-6960061Y3985398D01*
X-6548697Y3249413D01*
X-6174994Y2528683D01*
X-5839093Y1823482D01*
X-5541134Y1134084D01*
X-5281258Y460762D01*
X-5059607Y-196211D01*
X-4876319Y-836562D01*
X-4731538Y-1460015D01*
X-4708812Y-1574375D01*
X-4652008Y-1868167D01*
X-4780409Y-1996568D01*
X-4849289Y-2061890D01*
X-4893923Y-2095450D01*
X-4916337Y-2098680D01*
X-4918902Y-2094359D01*
X-4926213Y-2063984D01*
X-4939907Y-1999786D01*
X-4958389Y-1909513D01*
X-4980064Y-1800918D01*
X-4994931Y-1725083D01*
X-5064719Y-1395541D01*
X-5150337Y-1039338D01*
X-5248678Y-667675D01*
X-5356639Y-291752D01*
X-5471114Y77228D01*
X-5588997Y428065D01*
X-5602251Y465667D01*
X-5832135Y1081582D01*
X-6088972Y1707087D01*
X-6373549Y2343609D01*
X-6686651Y2992577D01*
X-7029065Y3655419D01*
X-7401578Y4333561D01*
X-7804974Y5028433D01*
X-8240041Y5741461D01*
X-8707565Y6474073D01*
X-9208332Y7227697D01*
X-9743128Y8003761D01*
X-9789660Y8070067D01*
X-9879442Y8197854D01*
X-9962385Y8315954D01*
X-10035034Y8419447D01*
X-10093936Y8503411D01*
X-10135638Y8562925D01*
X-10156686Y8593069D01*
X-10157291Y8593942D01*
X-10172778Y8625113D01*
X-10167874Y8635060D01*
X-10158159Y8629896D01*
G37*
X-10158159Y8629896D02*
X-10140781Y8613282D01*
X-10113619Y8582524D01*
X-10074553Y8534928D01*
X-10021462Y8467803D01*
X-9952225Y8378454D01*
X-9864721Y8264188D01*
X-9756829Y8122313D01*
X-9626428Y7950135D01*
X-9576868Y7884584D01*
X-8979311Y7076424D01*
X-8418710Y6282151D01*
X-7895208Y5502041D01*
X-7408945Y4736365D01*
X-6960061Y3985398D01*
X-6548697Y3249413D01*
X-6174994Y2528683D01*
X-5839093Y1823482D01*
X-5541134Y1134084D01*
X-5281258Y460762D01*
X-5059607Y-196211D01*
X-4876319Y-836562D01*
X-4731538Y-1460015D01*
X-4708812Y-1574375D01*
X-4652008Y-1868167D01*
X-4780409Y-1996568D01*
X-4849289Y-2061890D01*
X-4893923Y-2095450D01*
X-4916337Y-2098680D01*
X-4918902Y-2094359D01*
X-4926213Y-2063984D01*
X-4939907Y-1999786D01*
X-4958389Y-1909513D01*
X-4980064Y-1800918D01*
X-4994931Y-1725083D01*
X-5064719Y-1395541D01*
X-5150337Y-1039338D01*
X-5248678Y-667675D01*
X-5356639Y-291752D01*
X-5471114Y77228D01*
X-5588997Y428065D01*
X-5602251Y465667D01*
X-5832135Y1081582D01*
X-6088972Y1707087D01*
X-6373549Y2343609D01*
X-6686651Y2992577D01*
X-7029065Y3655419D01*
X-7401578Y4333561D01*
X-7804974Y5028433D01*
X-8240041Y5741461D01*
X-8707565Y6474073D01*
X-9208332Y7227697D01*
X-9743128Y8003761D01*
X-9789660Y8070067D01*
X-9879442Y8197854D01*
X-9962385Y8315954D01*
X-10035034Y8419447D01*
X-10093936Y8503411D01*
X-10135638Y8562925D01*
X-10156686Y8593069D01*
X-10157291Y8593942D01*
X-10172778Y8625113D01*
X-10167874Y8635060D01*
X-10158159Y8629896D01*
G36*
X-21411809Y8634198D02*
G01*
X-21419354Y8613934D01*
X-21447718Y8565921D01*
X-21492791Y8496625D01*
X-21550463Y8412513D01*
X-21572835Y8380811D01*
X-22119334Y7599740D01*
X-22631950Y6841589D01*
X-23111459Y6104963D01*
X-23558634Y5388471D01*
X-23974251Y4690721D01*
X-24359084Y4010320D01*
X-24713908Y3345877D01*
X-25039497Y2695998D01*
X-25336626Y2059292D01*
X-25606070Y1434367D01*
X-25848603Y819830D01*
X-25980027Y459759D01*
X-26095469Y119301D01*
X-26207818Y-239283D01*
X-26314256Y-605724D01*
X-26411969Y-969754D01*
X-26498139Y-1321104D01*
X-26569950Y-1649505D01*
X-26598102Y-1793875D01*
X-26619435Y-1904532D01*
X-26638992Y-1998839D01*
X-26655191Y-2069708D01*
X-26666452Y-2110048D01*
X-26670069Y-2116666D01*
X-26689390Y-2102648D01*
X-26730430Y-2065344D01*
X-26785457Y-2011880D01*
X-26804724Y-1992556D01*
X-26927539Y-1868446D01*
X-26871521Y-1585098D01*
X-26733340Y-967874D01*
X-26560524Y-339643D01*
X-26352642Y300650D01*
X-26109267Y954060D01*
X-25829967Y1621640D01*
X-25514313Y2304447D01*
X-25161876Y3003534D01*
X-24772226Y3719957D01*
X-24557056Y4095750D01*
X-24248797Y4611691D01*
X-23912326Y5149412D01*
X-23551575Y5703147D01*
X-23170475Y6267129D01*
X-22772958Y6835591D01*
X-22362956Y7402765D01*
X-21944401Y7962885D01*
X-21729638Y8243031D01*
X-21646887Y8350159D01*
X-21572596Y8446582D01*
X-21510790Y8527057D01*
X-21465492Y8586342D01*
X-21440726Y8619194D01*
X-21437693Y8623418D01*
X-21417115Y8636778D01*
X-21411809Y8634198D01*
G37*
X-21411809Y8634198D02*
X-21419354Y8613934D01*
X-21447718Y8565921D01*
X-21492791Y8496625D01*
X-21550463Y8412513D01*
X-21572835Y8380811D01*
X-22119334Y7599740D01*
X-22631950Y6841589D01*
X-23111459Y6104963D01*
X-23558634Y5388471D01*
X-23974251Y4690721D01*
X-24359084Y4010320D01*
X-24713908Y3345877D01*
X-25039497Y2695998D01*
X-25336626Y2059292D01*
X-25606070Y1434367D01*
X-25848603Y819830D01*
X-25980027Y459759D01*
X-26095469Y119301D01*
X-26207818Y-239283D01*
X-26314256Y-605724D01*
X-26411969Y-969754D01*
X-26498139Y-1321104D01*
X-26569950Y-1649505D01*
X-26598102Y-1793875D01*
X-26619435Y-1904532D01*
X-26638992Y-1998839D01*
X-26655191Y-2069708D01*
X-26666452Y-2110048D01*
X-26670069Y-2116666D01*
X-26689390Y-2102648D01*
X-26730430Y-2065344D01*
X-26785457Y-2011880D01*
X-26804724Y-1992556D01*
X-26927539Y-1868446D01*
X-26871521Y-1585098D01*
X-26733340Y-967874D01*
X-26560524Y-339643D01*
X-26352642Y300650D01*
X-26109267Y954060D01*
X-25829967Y1621640D01*
X-25514313Y2304447D01*
X-25161876Y3003534D01*
X-24772226Y3719957D01*
X-24557056Y4095750D01*
X-24248797Y4611691D01*
X-23912326Y5149412D01*
X-23551575Y5703147D01*
X-23170475Y6267129D01*
X-22772958Y6835591D01*
X-22362956Y7402765D01*
X-21944401Y7962885D01*
X-21729638Y8243031D01*
X-21646887Y8350159D01*
X-21572596Y8446582D01*
X-21510790Y8527057D01*
X-21465492Y8586342D01*
X-21440726Y8619194D01*
X-21437693Y8623418D01*
X-21417115Y8636778D01*
X-21411809Y8634198D01*
G36*
X-18938092Y6781889D02*
G01*
X-18720950Y6739577D01*
X-18514638Y6661152D01*
X-18324495Y6549603D01*
X-18155860Y6407920D01*
X-18014072Y6239090D01*
X-17927772Y6094894D01*
X-17861282Y5945518D01*
X-17819102Y5802157D01*
X-17797500Y5648484D01*
X-17792524Y5503334D01*
X-17801028Y5320910D01*
X-17828667Y5163166D01*
X-17878625Y5015566D01*
X-17917969Y4931073D01*
X-17967538Y4833254D01*
X-17518623Y4384703D01*
X-17069708Y3936153D01*
X-16996229Y3991325D01*
X-16680483Y4202499D01*
X-16338365Y4382618D01*
X-15973900Y4530089D01*
X-15591112Y4643323D01*
X-15194024Y4720728D01*
X-15127791Y4729897D01*
X-14948639Y4747366D01*
X-14741643Y4757853D01*
X-14520714Y4761356D01*
X-14299761Y4757877D01*
X-14092694Y4747414D01*
X-13913423Y4729968D01*
X-13912876Y4729897D01*
X-13503437Y4656584D01*
X-13113565Y4546619D01*
X-12744665Y4400986D01*
X-12398143Y4220673D01*
X-12075403Y4006664D01*
X-11777852Y3759945D01*
X-11506893Y3481503D01*
X-11263933Y3172322D01*
X-11050377Y2833389D01*
X-10956508Y2655975D01*
X-10795349Y2286357D01*
X-10668508Y1895869D01*
X-10576576Y1489225D01*
X-10520144Y1071139D01*
X-10499802Y646328D01*
X-10516142Y219504D01*
X-10569754Y-204616D01*
X-10586464Y-296333D01*
X-10631415Y-491933D01*
X-10693284Y-707164D01*
X-10766835Y-926361D01*
X-10846831Y-1133861D01*
X-10923653Y-1305115D01*
X-11036790Y-1516461D01*
X-11168111Y-1729446D01*
X-11310533Y-1934021D01*
X-11456967Y-2120135D01*
X-11600329Y-2277737D01*
X-11629694Y-2306570D01*
X-11706288Y-2380057D01*
X-16420324Y2333837D01*
X-16474647Y2241127D01*
X-16625975Y1944948D01*
X-16742200Y1631792D01*
X-16824145Y1298672D01*
X-16872631Y942598D01*
X-16884732Y751417D01*
X-16881711Y377683D01*
X-16841890Y21127D01*
X-16765633Y-316829D01*
X-16653302Y-634762D01*
X-16505263Y-931251D01*
X-16419367Y-1068916D01*
X-16333905Y-1180817D01*
X-16222386Y-1303778D01*
X-16095443Y-1427738D01*
X-15963706Y-1542640D01*
X-15837809Y-1638423D01*
X-15772976Y-1680466D01*
X-15553281Y-1794196D01*
X-15310824Y-1889192D01*
X-15063503Y-1958499D01*
X-15049500Y-1961560D01*
X-14908266Y-1983640D01*
X-14738492Y-1997144D01*
X-14553086Y-2002106D01*
X-14364958Y-1998557D01*
X-14187018Y-1986528D01*
X-14032174Y-1966051D01*
X-13995543Y-1958982D01*
X-13798835Y-1917714D01*
X-13240026Y-2476224D01*
X-13114190Y-2602651D01*
X-12998766Y-2719888D01*
X-12896985Y-2824556D01*
X-12812075Y-2913279D01*
X-12747266Y-2982679D01*
X-12705788Y-3029378D01*
X-12690869Y-3050000D01*
X-12690949Y-3050477D01*
X-12717144Y-3067933D01*
X-12776180Y-3095044D01*
X-12860431Y-3129035D01*
X-12962268Y-3167132D01*
X-13074066Y-3206559D01*
X-13188198Y-3244543D01*
X-13297037Y-3278309D01*
X-13385345Y-3303107D01*
X-13508856Y-3333204D01*
X-13645059Y-3362910D01*
X-13773118Y-3387813D01*
X-13833674Y-3398041D01*
X-13963679Y-3413742D01*
X-14124059Y-3426157D01*
X-14302962Y-3434971D01*
X-14488533Y-3439869D01*
X-14668918Y-3440536D01*
X-14832265Y-3436656D01*
X-14964834Y-3428098D01*
X-15382568Y-3368261D01*
X-15781792Y-3271293D01*
X-16161001Y-3138322D01*
X-16518687Y-2970474D01*
X-16853346Y-2768876D01*
X-17163472Y-2534654D01*
X-17447558Y-2268937D01*
X-17704099Y-1972850D01*
X-17931589Y-1647520D01*
X-18128522Y-1294075D01*
X-18280764Y-946735D01*
X-18398100Y-590362D01*
X-18481742Y-215021D01*
X-18532175Y182092D01*
X-18549881Y603782D01*
X-18549907Y613834D01*
X-18537617Y1002406D01*
X-18498178Y1368329D01*
X-18429849Y1722815D01*
X-18330890Y2077075D01*
X-18315333Y2124758D01*
X-18251372Y2296628D01*
X-18169153Y2485659D01*
X-18074629Y2680167D01*
X-17993989Y2830693D01*
X-15964515Y2830693D01*
X-14200014Y1066097D01*
X-13972655Y838843D01*
X-13753578Y620095D01*
X-13544645Y411702D01*
X-13347718Y215510D01*
X-13164661Y33369D01*
X-12997336Y-132875D01*
X-12847605Y-281373D01*
X-12717332Y-410276D01*
X-12608378Y-517738D01*
X-12522607Y-601909D01*
X-12461880Y-660943D01*
X-12428061Y-692991D01*
X-12421440Y-698500D01*
X-12407611Y-680243D01*
X-12384206Y-632099D01*
X-12356002Y-564008D01*
X-12352628Y-555247D01*
X-12249379Y-226582D01*
X-12183181Y121427D01*
X-12154269Y487224D01*
X-12155851Y740834D01*
X-12178692Y1055196D01*
X-12222901Y1341115D01*
X-12290653Y1607879D01*
X-12384124Y1864779D01*
X-12456414Y2024137D01*
X-12614783Y2305123D01*
X-12800444Y2554184D01*
X-13012588Y2770641D01*
X-13250404Y2953816D01*
X-13513083Y3103029D01*
X-13799814Y3217602D01*
X-13923311Y3254184D01*
X-14001408Y3274167D01*
X-14070366Y3288675D01*
X-14139513Y3298568D01*
X-14218182Y3304707D01*
X-14315703Y3307955D01*
X-14441407Y3309172D01*
X-14520334Y3309288D01*
X-14663813Y3308801D01*
X-14774360Y3306752D01*
X-14861371Y3302260D01*
X-14934242Y3294443D01*
X-15002370Y3282418D01*
X-15075150Y3265306D01*
X-15123087Y3252731D01*
X-15267984Y3206960D01*
X-15424086Y3145881D01*
X-15579079Y3075212D01*
X-15720650Y3000677D01*
X-15836488Y2927996D01*
X-15861549Y2909589D01*
X-15964515Y2830693D01*
X-17993989Y2830693D01*
X-17973750Y2868470D01*
X-17872471Y3038885D01*
X-17780248Y3175000D01*
X-17718046Y3259342D01*
X-17662032Y3335538D01*
X-17618794Y3394614D01*
X-17596481Y3425397D01*
X-17587038Y3440095D01*
X-17583069Y3455169D01*
X-17587494Y3474145D01*
X-17603238Y3500550D01*
X-17633220Y3537910D01*
X-17680364Y3589752D01*
X-17747591Y3659602D01*
X-17837824Y3750988D01*
X-17953983Y3867434D01*
X-18005106Y3918565D01*
X-18448960Y4362419D01*
X-18553689Y4317157D01*
X-18771328Y4245329D01*
X-18994256Y4213555D01*
X-19217366Y4220847D01*
X-19435551Y4266223D01*
X-19643706Y4348697D01*
X-19836724Y4467285D01*
X-19981921Y4592580D01*
X-20129315Y4766885D01*
X-20239268Y4954012D01*
X-20313238Y5150074D01*
X-20352680Y5351182D01*
X-20359051Y5553448D01*
X-20358152Y5560562D01*
X-19680132Y5560562D01*
X-19679687Y5461000D01*
X-19650351Y5300277D01*
X-19585965Y5163217D01*
X-19486141Y5049240D01*
X-19350491Y4957763D01*
X-19340194Y4952465D01*
X-19266776Y4917592D01*
X-19208498Y4898641D01*
X-19147145Y4891993D01*
X-19064503Y4894030D01*
X-19050000Y4894813D01*
X-18913979Y4911567D01*
X-18809747Y4945743D01*
X-18800419Y4950370D01*
X-18669825Y5038627D01*
X-18571134Y5148654D01*
X-18504270Y5274484D01*
X-18469157Y5410146D01*
X-18465716Y5549675D01*
X-18493873Y5687101D01*
X-18553549Y5816457D01*
X-18644669Y5931774D01*
X-18767157Y6027084D01*
X-18814576Y6053194D01*
X-18959834Y6103688D01*
X-19108316Y6113532D01*
X-19254806Y6083561D01*
X-19394089Y6014609D01*
X-19481261Y5946579D01*
X-19586566Y5828868D01*
X-19652056Y5702156D01*
X-19680132Y5560562D01*
X-20358152Y5560562D01*
X-20333808Y5752984D01*
X-20278405Y5945904D01*
X-20194299Y6128318D01*
X-20082947Y6296339D01*
X-19945804Y6446080D01*
X-19784328Y6573652D01*
X-19599973Y6675168D01*
X-19394196Y6746739D01*
X-19168454Y6784478D01*
X-19160723Y6785099D01*
X-18938092Y6781889D01*
G37*
X-18938092Y6781889D02*
X-18720950Y6739577D01*
X-18514638Y6661152D01*
X-18324495Y6549603D01*
X-18155860Y6407920D01*
X-18014072Y6239090D01*
X-17927772Y6094894D01*
X-17861282Y5945518D01*
X-17819102Y5802157D01*
X-17797500Y5648484D01*
X-17792524Y5503334D01*
X-17801028Y5320910D01*
X-17828667Y5163166D01*
X-17878625Y5015566D01*
X-17917969Y4931073D01*
X-17967538Y4833254D01*
X-17518623Y4384703D01*
X-17069708Y3936153D01*
X-16996229Y3991325D01*
X-16680483Y4202499D01*
X-16338365Y4382618D01*
X-15973900Y4530089D01*
X-15591112Y4643323D01*
X-15194024Y4720728D01*
X-15127791Y4729897D01*
X-14948639Y4747366D01*
X-14741643Y4757853D01*
X-14520714Y4761356D01*
X-14299761Y4757877D01*
X-14092694Y4747414D01*
X-13913423Y4729968D01*
X-13912876Y4729897D01*
X-13503437Y4656584D01*
X-13113565Y4546619D01*
X-12744665Y4400986D01*
X-12398143Y4220673D01*
X-12075403Y4006664D01*
X-11777852Y3759945D01*
X-11506893Y3481503D01*
X-11263933Y3172322D01*
X-11050377Y2833389D01*
X-10956508Y2655975D01*
X-10795349Y2286357D01*
X-10668508Y1895869D01*
X-10576576Y1489225D01*
X-10520144Y1071139D01*
X-10499802Y646328D01*
X-10516142Y219504D01*
X-10569754Y-204616D01*
X-10586464Y-296333D01*
X-10631415Y-491933D01*
X-10693284Y-707164D01*
X-10766835Y-926361D01*
X-10846831Y-1133861D01*
X-10923653Y-1305115D01*
X-11036790Y-1516461D01*
X-11168111Y-1729446D01*
X-11310533Y-1934021D01*
X-11456967Y-2120135D01*
X-11600329Y-2277737D01*
X-11629694Y-2306570D01*
X-11706288Y-2380057D01*
X-16420324Y2333837D01*
X-16474647Y2241127D01*
X-16625975Y1944948D01*
X-16742200Y1631792D01*
X-16824145Y1298672D01*
X-16872631Y942598D01*
X-16884732Y751417D01*
X-16881711Y377683D01*
X-16841890Y21127D01*
X-16765633Y-316829D01*
X-16653302Y-634762D01*
X-16505263Y-931251D01*
X-16419367Y-1068916D01*
X-16333905Y-1180817D01*
X-16222386Y-1303778D01*
X-16095443Y-1427738D01*
X-15963706Y-1542640D01*
X-15837809Y-1638423D01*
X-15772976Y-1680466D01*
X-15553281Y-1794196D01*
X-15310824Y-1889192D01*
X-15063503Y-1958499D01*
X-15049500Y-1961560D01*
X-14908266Y-1983640D01*
X-14738492Y-1997144D01*
X-14553086Y-2002106D01*
X-14364958Y-1998557D01*
X-14187018Y-1986528D01*
X-14032174Y-1966051D01*
X-13995543Y-1958982D01*
X-13798835Y-1917714D01*
X-13240026Y-2476224D01*
X-13114190Y-2602651D01*
X-12998766Y-2719888D01*
X-12896985Y-2824556D01*
X-12812075Y-2913279D01*
X-12747266Y-2982679D01*
X-12705788Y-3029378D01*
X-12690869Y-3050000D01*
X-12690949Y-3050477D01*
X-12717144Y-3067933D01*
X-12776180Y-3095044D01*
X-12860431Y-3129035D01*
X-12962268Y-3167132D01*
X-13074066Y-3206559D01*
X-13188198Y-3244543D01*
X-13297037Y-3278309D01*
X-13385345Y-3303107D01*
X-13508856Y-3333204D01*
X-13645059Y-3362910D01*
X-13773118Y-3387813D01*
X-13833674Y-3398041D01*
X-13963679Y-3413742D01*
X-14124059Y-3426157D01*
X-14302962Y-3434971D01*
X-14488533Y-3439869D01*
X-14668918Y-3440536D01*
X-14832265Y-3436656D01*
X-14964834Y-3428098D01*
X-15382568Y-3368261D01*
X-15781792Y-3271293D01*
X-16161001Y-3138322D01*
X-16518687Y-2970474D01*
X-16853346Y-2768876D01*
X-17163472Y-2534654D01*
X-17447558Y-2268937D01*
X-17704099Y-1972850D01*
X-17931589Y-1647520D01*
X-18128522Y-1294075D01*
X-18280764Y-946735D01*
X-18398100Y-590362D01*
X-18481742Y-215021D01*
X-18532175Y182092D01*
X-18549881Y603782D01*
X-18549907Y613834D01*
X-18537617Y1002406D01*
X-18498178Y1368329D01*
X-18429849Y1722815D01*
X-18330890Y2077075D01*
X-18315333Y2124758D01*
X-18251372Y2296628D01*
X-18169153Y2485659D01*
X-18074629Y2680167D01*
X-17993989Y2830693D01*
X-15964515Y2830693D01*
X-14200014Y1066097D01*
X-13972655Y838843D01*
X-13753578Y620095D01*
X-13544645Y411702D01*
X-13347718Y215510D01*
X-13164661Y33369D01*
X-12997336Y-132875D01*
X-12847605Y-281373D01*
X-12717332Y-410276D01*
X-12608378Y-517738D01*
X-12522607Y-601909D01*
X-12461880Y-660943D01*
X-12428061Y-692991D01*
X-12421440Y-698500D01*
X-12407611Y-680243D01*
X-12384206Y-632099D01*
X-12356002Y-564008D01*
X-12352628Y-555247D01*
X-12249379Y-226582D01*
X-12183181Y121427D01*
X-12154269Y487224D01*
X-12155851Y740834D01*
X-12178692Y1055196D01*
X-12222901Y1341115D01*
X-12290653Y1607879D01*
X-12384124Y1864779D01*
X-12456414Y2024137D01*
X-12614783Y2305123D01*
X-12800444Y2554184D01*
X-13012588Y2770641D01*
X-13250404Y2953816D01*
X-13513083Y3103029D01*
X-13799814Y3217602D01*
X-13923311Y3254184D01*
X-14001408Y3274167D01*
X-14070366Y3288675D01*
X-14139513Y3298568D01*
X-14218182Y3304707D01*
X-14315703Y3307955D01*
X-14441407Y3309172D01*
X-14520334Y3309288D01*
X-14663813Y3308801D01*
X-14774360Y3306752D01*
X-14861371Y3302260D01*
X-14934242Y3294443D01*
X-15002370Y3282418D01*
X-15075150Y3265306D01*
X-15123087Y3252731D01*
X-15267984Y3206960D01*
X-15424086Y3145881D01*
X-15579079Y3075212D01*
X-15720650Y3000677D01*
X-15836488Y2927996D01*
X-15861549Y2909589D01*
X-15964515Y2830693D01*
X-17993989Y2830693D01*
X-17973750Y2868470D01*
X-17872471Y3038885D01*
X-17780248Y3175000D01*
X-17718046Y3259342D01*
X-17662032Y3335538D01*
X-17618794Y3394614D01*
X-17596481Y3425397D01*
X-17587038Y3440095D01*
X-17583069Y3455169D01*
X-17587494Y3474145D01*
X-17603238Y3500550D01*
X-17633220Y3537910D01*
X-17680364Y3589752D01*
X-17747591Y3659602D01*
X-17837824Y3750988D01*
X-17953983Y3867434D01*
X-18005106Y3918565D01*
X-18448960Y4362419D01*
X-18553689Y4317157D01*
X-18771328Y4245329D01*
X-18994256Y4213555D01*
X-19217366Y4220847D01*
X-19435551Y4266223D01*
X-19643706Y4348697D01*
X-19836724Y4467285D01*
X-19981921Y4592580D01*
X-20129315Y4766885D01*
X-20239268Y4954012D01*
X-20313238Y5150074D01*
X-20352680Y5351182D01*
X-20359051Y5553448D01*
X-20358152Y5560562D01*
X-19680132Y5560562D01*
X-19679687Y5461000D01*
X-19650351Y5300277D01*
X-19585965Y5163217D01*
X-19486141Y5049240D01*
X-19350491Y4957763D01*
X-19340194Y4952465D01*
X-19266776Y4917592D01*
X-19208498Y4898641D01*
X-19147145Y4891993D01*
X-19064503Y4894030D01*
X-19050000Y4894813D01*
X-18913979Y4911567D01*
X-18809747Y4945743D01*
X-18800419Y4950370D01*
X-18669825Y5038627D01*
X-18571134Y5148654D01*
X-18504270Y5274484D01*
X-18469157Y5410146D01*
X-18465716Y5549675D01*
X-18493873Y5687101D01*
X-18553549Y5816457D01*
X-18644669Y5931774D01*
X-18767157Y6027084D01*
X-18814576Y6053194D01*
X-18959834Y6103688D01*
X-19108316Y6113532D01*
X-19254806Y6083561D01*
X-19394089Y6014609D01*
X-19481261Y5946579D01*
X-19586566Y5828868D01*
X-19652056Y5702156D01*
X-19680132Y5560562D01*
X-20358152Y5560562D01*
X-20333808Y5752984D01*
X-20278405Y5945904D01*
X-20194299Y6128318D01*
X-20082947Y6296339D01*
X-19945804Y6446080D01*
X-19784328Y6573652D01*
X-19599973Y6675168D01*
X-19394196Y6746739D01*
X-19168454Y6784478D01*
X-19160723Y6785099D01*
X-18938092Y6781889D01*
%TD*%
M02*
